<?xml version="1.0" encoding="utf-8"?>
<!-- Generator: Adobe Illustrator 21.1.0, SVG Export Plug-In . SVG Version: 6.00 Build 0)  -->
<svg version="1.1" id="圖層_1" xmlns="http://www.w3.org/2000/svg" xmlns:xlink="http://www.w3.org/1999/xlink" x="0px" y="0px"
	 viewBox="0 0 90 90" style="enable-background:new 0 0 90 90;" xml:space="preserve">
<style type="text/css">
	.st0{fill:#FFFFFF;}
</style>
<path class="st0" d="M45,90C20.2,90,0,69.8,0,45C0,20.2,20.2,0,45,0c24.8,0,45,20.2,45,45C90,69.8,69.8,90,45,90z M45,2.2
	C21.4,2.2,2.2,21.4,2.2,45c0,23.6,19.2,42.8,42.8,42.8S87.8,68.6,87.8,45C87.8,21.4,68.6,2.2,45,2.2z M64.1,63.9
	c-0.3,0.2-7.3,4.7-19.1,4.7s-18.8-4.5-19.1-4.7c-0.2-0.1-0.4-0.4-0.5-0.6c-0.5-1.3-0.5-3.9-0.5-4.4c0,0,0,0,0,0c0-0.1,0-0.2,0-0.2
	c0.1-1.9,0.2-6.5,4.4-7.9c0,0,0.1,0,0.1,0c4.4-1.1,8.1-3.7,8.1-3.7c0.6-0.4,1.4-0.3,1.8,0.3c0.4,0.6,0.3,1.4-0.3,1.8
	c-0.2,0.1-4.1,2.8-8.9,4.1c-2.3,0.8-2.5,3.2-2.6,5.5c0,0.1,0,0.2,0,0.2c0,0.9,0,2.2,0.2,3c1.6,0.9,7.8,4,17.2,4
	c9.4,0,15.6-3.1,17.2-4c0.2-0.8,0.2-2.1,0.2-3c0-0.1,0-0.2,0-0.2c-0.1-2.2-0.3-4.7-2.6-5.5c-4.9-1.3-8.8-4-8.9-4.1
	c-0.6-0.4-0.7-1.2-0.3-1.8c0.4-0.6,1.2-0.7,1.8-0.3c0,0,3.7,2.6,8.1,3.7c0,0,0.1,0,0.1,0c4.2,1.4,4.4,6,4.4,7.9c0,0.1,0,0.2,0,0.2
	c0,0,0,0,0,0c0,0.5,0,3.1-0.5,4.4C64.5,63.6,64.3,63.8,64.1,63.9z M45.1,46.8C45.1,46.8,45.1,46.8,45.1,46.8c-0.1,0-0.1,0-0.2,0
	c-0.1,0-0.1,0-0.2,0c-2.9,0-5.2-1.1-6.9-3c-3.8-4.2-3.1-11.5-3.1-12.2c0.2-5.2,2.7-7.7,4.8-8.9c2-1.2,4.2-1.3,5.3-1.3H45
	c0,0,0,0,0,0h0.1c2,0,3.7,0.5,5.3,1.4c2,1.2,4.5,3.7,4.7,8.9c0.1,0.7,0.7,8-3.1,12.2C50.3,45.8,48,46.8,45.1,46.8z M52.5,31.9
	C52.5,31.9,52.5,31.8,52.5,31.9c-0.3-6.7-4.8-7.8-7.4-7.8c0,0-0.1,0-0.1,0h0c-2.1,0-7.1,0.8-7.4,7.8c0,0,0,0,0,0.1
	c0,0.1-0.7,6.7,2.4,10.2c1.2,1.4,2.9,2.1,5,2.1c0,0,0,0,0,0c0,0,0,0,0,0c2.2,0,3.8-0.7,5-2.1C53.2,38.6,52.5,32,52.5,31.9z"/>
</svg>
