<?xml version="1.0" encoding="utf-8"?>
<!-- Generator: Adobe Illustrator 21.1.0, SVG Export Plug-In . SVG Version: 6.00 Build 0)  -->
<svg version="1.1" id="圖層_1" xmlns="http://www.w3.org/2000/svg" xmlns:xlink="http://www.w3.org/1999/xlink" x="0px" y="0px"
	 viewBox="0 0 90 90" style="enable-background:new 0 0 90 90;" xml:space="preserve">
<style type="text/css">
	.st0{fill:#FFFFFF;}
</style>
<path class="st0" d="M45,90C20.2,90,0,69.8,0,45C0,20.2,20.2,0,45,0s45,20.2,45,45C90,69.8,69.8,90,45,90z M45,2.2
	C21.4,2.2,2.2,21.4,2.2,45c0,23.6,19.2,42.8,42.8,42.8S87.8,68.6,87.8,45C87.8,21.4,68.6,2.2,45,2.2z M57.8,64.5c0,0-29.9,0-29.9,0
	c-2.9,0-5.3-2.4-5.3-5.3V44.5c0-0.5,0.4-0.9,0.9-0.9h7.9V26.3c0-0.5,0.4-0.9,0.9-0.9h29.9c0.5,0,0.9,0.4,0.9,0.9v32.9
	C63.1,62.2,60.7,64.5,57.8,64.5z M31.4,45.4h-7.1v13.9c0,2,1.6,3.5,3.5,3.5s3.5-1.6,3.5-3.5V45.4z M61.3,27.2H33.1v32
	c0,1.4-0.5,2.6-1.4,3.5h26c2,0,3.5-1.6,3.5-3.5V27.2z M57.1,54.6H46c-0.5,0-0.9-0.4-0.9-0.9c0-0.5,0.4-0.9,0.9-0.9h11.1
	c0.5,0,0.9,0.4,0.9,0.9C58,54.2,57.6,54.6,57.1,54.6z M57.1,45.1H46c-0.5,0-0.9-0.4-0.9-0.9c0-0.5,0.4-0.9,0.9-0.9h11.1
	c0.5,0,0.9,0.4,0.9,0.9C58,44.7,57.6,45.1,57.1,45.1z M57.1,35.5H46c-0.5,0-0.9-0.4-0.9-0.9c0-0.5,0.4-0.9,0.9-0.9h11.1
	c0.5,0,0.9,0.4,0.9,0.9C58,35.1,57.6,35.5,57.1,35.5z M39.2,36.5c-0.2,0.2-0.4,0.3-0.6,0.3c0,0,0,0,0,0c-0.2,0-0.5-0.1-0.6-0.3
	l-1.9-2c-0.3-0.3-0.3-0.9,0-1.2c0.3-0.3,0.9-0.3,1.2,0l1.3,1.4l4.1-4.5c0.3-0.4,0.9-0.4,1.2-0.1c0.4,0.3,0.4,0.9,0.1,1.2L39.2,36.5z
	 M37.3,43.2l1.3,1.4l4.1-4.5c0.3-0.4,0.9-0.4,1.2-0.1c0.4,0.3,0.4,0.9,0.1,1.2l-4.8,5.2c-0.2,0.2-0.4,0.3-0.6,0.3c0,0,0,0,0,0
	c-0.2,0-0.5-0.1-0.6-0.3l-1.9-2c-0.3-0.3-0.3-0.9,0-1.2C36.4,42.9,37,42.9,37.3,43.2z M37.3,53.2l1.3,1.4l4.1-4.5
	c0.3-0.4,0.9-0.4,1.2-0.1c0.4,0.3,0.4,0.9,0.1,1.2l-4.8,5.2c-0.2,0.2-0.4,0.3-0.6,0.3c0,0,0,0,0,0c-0.2,0-0.5-0.1-0.6-0.3l-1.9-2
	c-0.3-0.3-0.3-0.9,0-1.2C36.4,52.8,37,52.9,37.3,53.2z"/>
</svg>
