<?xml version="1.0" encoding="utf-8"?>
<!-- Generator: Adobe Illustrator 21.1.0, SVG Export Plug-In . SVG Version: 6.00 Build 0)  -->
<svg version="1.1" id="圖層_1" xmlns="http://www.w3.org/2000/svg" xmlns:xlink="http://www.w3.org/1999/xlink" x="0px" y="0px"
	 viewBox="0 0 90 90" style="enable-background:new 0 0 90 90;" xml:space="preserve">
<style type="text/css">
	.st0{fill:#FFFFFF;}
</style>
<path class="st0" d="M45,90C20.2,90,0,69.8,0,45C0,20.2,20.2,0,45,0s45,20.2,45,45C90,69.8,69.8,90,45,90z M45,2.2
	C21.4,2.2,2.2,21.4,2.2,45c0,23.6,19.2,42.8,42.8,42.8S87.8,68.6,87.8,45C87.8,21.4,68.6,2.2,45,2.2z M68.2,65.5H21.7
	c-0.5,0-0.9-0.4-0.9-0.9c0-0.1,0-0.3,0.1-0.4c2.7-5.9,3.9-11.9,3.6-17.9l-0.1-1.3c-0.9-0.8-1.5-2-1.6-3.2c0-0.1-0.1-0.5-0.1-0.6
	c0-0.3,0.2-0.6,0.5-0.8l3.5-1.9C33.2,35,39,30.7,44.1,25.5v-7.7c0-0.5,0.4-0.9,0.9-0.9s0.9,0.4,0.9,0.9v7.7
	c5.1,5.2,10.9,9.5,17.2,12.9l3.5,1.9c0.3,0.2,0.5,0.5,0.5,0.8c0,0.1,0,0.4,0,0.5c-0.1,1.3-0.7,2.5-1.6,3.3l-0.1,1.4
	c-0.2,6,1,12,3.6,17.8l0,0.1c0.1,0.3,0.1,0.6-0.1,0.9C68.8,65.4,68.5,65.5,68.2,65.5z M49.6,63.7c-1.3-1.3-2.5-3.3-3.5-5.9
	c-0.4-1.2-0.8-2.3-1.1-3.3c-0.3,1-0.6,2.2-1.1,3.3c-1,2.6-2.2,4.6-3.5,5.9H49.6z M45,44.5c1.6,0,2.9-1.1,3.2-2.5h-6.5
	C42.1,43.5,43.4,44.5,45,44.5C45,44.5,45,44.5,45,44.5C45,44.5,45,44.5,45,44.5z M23.1,63.7h13.1c0,0,0,0,0,0
	c4.6,0,7.2-9.6,7.8-13.4v-4c-1.4-0.2-2.6-1-3.3-2.1c-0.9,1.3-2.5,2.2-4.2,2.2c-1.8,0-3.3-0.9-4.2-2.2c-0.9,1.3-2.5,2.2-4.2,2.2
	c-0.6,0-1.1-0.1-1.7-0.3l0,0.1C26.6,52.1,25.5,58,23.1,63.7z M39.7,42h-6.5c0.4,1.4,1.7,2.5,3.2,2.5S39.4,43.5,39.7,42z M24.8,42
	c0.4,1.4,1.7,2.5,3.2,2.5c1.6,0,2.9-1.1,3.2-2.5H24.8z M62.3,40c-6.4-3.4-12.2-7.7-17.3-12.8h0h0c-5.1,5.1-10.9,9.4-17.3,12.8
	l-0.3,0.1h35.1L62.3,40z M50.2,42c0.4,1.4,1.7,2.5,3.2,2.5c1.6,0,2.9-1.1,3.2-2.5H50.2z M58.7,42c0.4,1.4,1.7,2.5,3.2,2.5
	s2.9-1.1,3.2-2.5H58.7z M63.6,46.3l0-0.2c-0.5,0.2-1.1,0.3-1.7,0.3c-1.8,0-3.3-0.9-4.2-2.2c-0.9,1.3-2.5,2.2-4.2,2.2
	c-1.8,0-3.3-0.9-4.2-2.2c-0.8,1.1-2,1.9-3.3,2.1v4c0.6,3.8,3.2,13.4,7.8,13.4c0,0,0,0,0,0h13.1C64.4,58,63.4,52.1,63.6,46.3z"/>
</svg>
