<?xml version="1.0" encoding="utf-8"?>
<!-- Generator: Adobe Illustrator 21.1.0, SVG Export Plug-In . SVG Version: 6.00 Build 0)  -->
<svg version="1.1" id="圖層_1" xmlns="http://www.w3.org/2000/svg" xmlns:xlink="http://www.w3.org/1999/xlink" x="0px" y="0px"
	 viewBox="0 0 90 90" style="enable-background:new 0 0 90 90;" xml:space="preserve">
<style type="text/css">
	.st0{fill:#FFFFFF;}
</style>
<path class="st0" d="M45,90C20.2,90,0,69.8,0,45C0,20.2,20.2,0,45,0s45,20.2,45,45C90,69.8,69.8,90,45,90z M45,2.2
	C21.4,2.2,2.2,21.4,2.2,45c0,23.6,19.2,42.8,42.8,42.8S87.8,68.6,87.8,45C87.8,21.4,68.6,2.2,45,2.2z M67.7,68.6H22.3
	c-0.5,0-1-0.4-1-1c0-0.5,0.4-1,1-1h7.6V43.3c0-0.5,0.4-1,1-1c0.5,0,1,0.4,1,1v23.4h2.3V56.3c0-0.5,0.4-1,1-1c0.5,0,1,0.4,1,1v10.4
	h2.6V54.1c-2.8-0.2-5-2.4-5-5.2v-9.2c0-1.5,0.3-2.9,0.9-4.2c-4,0.3-7.2,3.6-7.2,7.5v5.4c0,0.5-0.4,1-1,1c-0.5,0-1-0.4-1-1V43
	c0-4,2.6-7.4,6.2-8.8c-1.1-0.9-1.7-2.3-1.7-3.8c0-2.8,2.3-5,5-5c0.8,0,1.7,0.2,2.4,0.6c0.5,0.3,0.6,0.8,0.4,1.3
	c-0.3,0.5-0.8,0.6-1.3,0.4c-0.5-0.2-1-0.4-1.5-0.4c-1.7,0-3.1,1.4-3.1,3.1c0,1.7,1.4,3.1,3.1,3.1c0,0,0,0,0.1,0c0.1,0,0.1,0,0.2,0
	c0.2,0,0.3,0,0.5,0c1.3-1.8,3.1-3.1,5.1-3.8c-1.3-1-2.1-2.6-2.1-4.4c0-3.1,2.5-5.6,5.6-5.6c3.1,0,5.6,2.5,5.6,5.6
	c0,1.7-0.7,3.2-1.9,4.2c2.2,0.7,4.1,2.1,5.5,4c0.1,0,0.1,0,0.2,0c0,0,0.1,0,0.1,0c1.7,0,3.1-1.4,3.1-3.1c0-1.7-1.4-3.1-3.1-3.1
	c-0.5,0-1,0.1-1.4,0.4c-0.5,0.2-1,0.1-1.3-0.4c-0.2-0.5-0.1-1,0.4-1.3c0.7-0.4,1.5-0.6,2.3-0.6c0,0,0,0,0,0c2.8,0,5,2.3,5,5
	c0,1.4-0.6,2.7-1.6,3.7c1.4,0.5,2.6,1.2,3.7,2.2c1.9,1.8,2.9,4.2,2.9,6.7l0,5.4c0,0.5-0.4,1-1,1c0,0,0,0,0,0c-0.5,0-1-0.4-1-1l0-5.4
	c0-2-0.8-3.9-2.3-5.3c-1.3-1.3-3.1-2.1-5-2.2c0.6,1.3,0.9,2.8,0.9,4.2v9.2c0,2.7-2.1,4.9-4.8,5.2v12.6H53l0-10.4c0-0.5,0.4-1,1-1
	c0,0,0,0,0,0c0.5,0,1,0.4,1,1l0,10.4h2.8l0-23.4c0-0.5,0.4-1,1-1c0,0,0,0,0,0c0.5,0,1,0.4,1,1l0.1,23.4h8.2c0.5,0,1,0.4,1,1
	C68.7,68.2,68.3,68.6,67.7,68.6z M47.9,25.4c0-2-1.7-3.7-3.7-3.7s-3.7,1.7-3.7,3.7s1.7,3.7,3.7,3.7S47.9,27.4,47.9,25.4z M53.6,48.9
	v-9.2c0-1.6-0.5-3.3-1.4-4.6c-1.7-2.6-4.5-4.1-7.6-4.1c-3.1,0-6,1.5-7.6,4.1c-0.9,1.4-1.4,3-1.4,4.6v9.2c0,1.7,1.4,3.1,3.1,3.3V40
	c0-0.5,0.4-1,1-1s1,0.4,1,1v26.7h2.9V53.4c0-0.5,0.4-1,1-1s1,0.4,1,1v13.3h3.4V40c0-0.5,0.4-1,1-1s1,0.4,1,1v12.2
	C52.3,51.9,53.6,50.6,53.6,48.9z"/>
</svg>
