<?xml version="1.0" encoding="utf-8"?>
<!-- Generator: Adobe Illustrator 21.1.0, SVG Export Plug-In . SVG Version: 6.00 Build 0)  -->
<svg version="1.1" id="圖層_1" xmlns="http://www.w3.org/2000/svg" xmlns:xlink="http://www.w3.org/1999/xlink" x="0px" y="0px"
	 viewBox="0 0 90 90" style="enable-background:new 0 0 90 90;" xml:space="preserve">
<style type="text/css">
	.st0{fill:#FFFFFF;}
</style>
<path class="st0" d="M45,90C20.2,90,0,69.8,0,45C0,20.2,20.2,0,45,0s45,20.2,45,45C90,69.8,69.8,90,45,90z M45,2.2
	C21.4,2.2,2.2,21.4,2.2,45c0,23.6,19.2,42.8,42.8,42.8S87.8,68.6,87.8,45C87.8,21.4,68.6,2.2,45,2.2z M45,70.2
	c-6.7,0-13.1-2.6-17.9-7.4S19.8,51.7,19.8,45c0-6.7,2.6-13.1,7.4-17.8s11.1-7.4,17.9-7.4s13.1,2.6,17.8,7.4
	c4.8,4.8,7.4,11.1,7.4,17.8c0,6.7-2.6,13.1-7.4,17.9C58.1,67.6,51.7,70.2,45,70.2z M31.1,63.3l0.3-2.6c0-0.2,0-0.3-0.2-0.4l-2.8-2.6
	c-0.2-0.2-0.3-0.3-0.5-0.5l-2.9-4.5c-0.1-0.1-0.3-0.2-0.4-0.2h-1.4C24.7,56.8,27.5,60.6,31.1,63.3z M30,27.6
	c-3.5,3.1-6.1,7.2-7.3,11.8l2.2-3.2c0.4-0.6,0.9-1,1.4-1.4l2.4-1.6c0.8-0.5,1.3-1.4,1.3-2.3V27.6z M45,22c-1.1,0-2.3,0.1-3.4,0.2
	l0.3,1.2c0.1,0.6,0,1.2-0.2,1.7l-1.9,3.5c0,0-0.1,0.3,0,0.5c0,0,0.1,0.1,0.3,0.1c0.1,0,0.2,0,0.2-0.1l4.2-4.9c0.3-0.3,0.6-0.6,1-0.7
	l2.7-1.1c0,0,0.3-0.3,0.3-0.3C47.3,22.1,46.2,22,45,22z M57.9,26l-1.1,4.6c-0.2,0.9-1,1.6-2,1.7l-5,0.5c0,0,0,0,0,0L46.4,36
	c-0.3,0.3-0.6,0.4-1,0.5l-2.7,0.7c0,0,0,0,0,0c0,0,0,0,0,0c0,0,0,0,0,0c0,0,0,0,0,0l9.1,0.5c0.9,0,1.6,0.6,2,1.3l0.3,0.7
	c0.4,1,0.1,2.2-0.8,2.8L50.1,45c-0.5,0.3-1,0.5-1.6,0.4l-4.9-0.5c-0.2,0-0.4-0.1-0.6-0.2l-3.5-1.5c0,0,0,0,0,0L35.8,46c0,0,0,0,0,0
	l-0.6,4c0,0,0,0,0,0l2.4,4.1c0,0,0,0,0,0l4.2,0.4c0.9,0.1,1.6,0.7,1.9,1.5l0.9,2.5c0,0.1,1,4.7,1,4.7c0,0,0,0,0,0l2.1,1.2
	c0,0,0,0,0,0l3.2-3.1c0,0,0,0,0,0l0.2-5.2c0-0.4,0.1-0.8,0.4-1.2l2.4-3.6c0,0,0,0,0,0l-1.5-1.4c-0.6-0.5-0.8-1.3-0.7-2l0.2-1.3
	c0.1-0.8,0.6-1.4,1.3-1.7c0.7-0.3,1.5-0.2,2.2,0.2l2.8,1.8c0,0,0,0,0,0l1-1.2c0,0,0,0,0,0c0,0,0,0,0,0l-0.1,0
	c-0.9-0.3-1.4-1.1-1.5-2c-0.1-0.9,0.4-1.7,1.2-2.2l1.7-0.9c0.8-0.4,1.7-0.3,2.4,0.2l1.3,1c0,0,0,0,0,0s0,0,0,0l0.2-0.9
	c0.2-0.9,0.9-1.5,1.8-1.7l0.6-0.1C65.7,33.5,62.4,29,57.9,26z M67.7,41L67,41.1c0,0,0,0,0,0l-0.2,0.9c-0.2,0.7-0.7,1.3-1.4,1.6
	c-0.7,0.3-1.5,0.1-2.1-0.3l-1.3-1c0,0,0,0,0,0l-1.7,0.9c0,0,0,0,0,0c0,0,0,0,0,0c0,0,0,0,0,0l0.1,0c0.7,0.3,1.2,0.8,1.4,1.6
	c0.2,0.7,0,1.5-0.5,2.1l-1,1.2c-0.7,0.8-2,1-3,0.4l-2.8-1.8c0,0,0,0,0,0c0,0,0,0,0,0L54,48.1c0,0,0,0,0,0l1.5,1.4
	c0.8,0.8,1,2,0.3,2.9L53.4,56c0,0,0,0,0,0l-0.2,5.2c0,0.6-0.3,1.1-0.7,1.5l-3.2,3.1c-0.4,0.4-1,0.6-1.6,0.6c-0.4,0-0.8-0.1-1.1-0.3
	L44.5,65c-0.5-0.3-0.9-0.9-1.1-1.5l-1-4.4l-0.9-2.5c0,0,0,0,0,0l-4.2-0.4c-0.7-0.1-1.4-0.5-1.8-1.1l-2.4-4.1c-0.3-0.4-0.4-1-0.3-1.5
	l0.6-4c0.1-0.6,0.4-1.1,0.9-1.5l3.7-2.8c0.6-0.5,1.5-0.6,2.2-0.3l3.5,1.5l4.9,0.5c0,0,0,0,0,0l3.2-2.3c0,0,0,0,0,0l-0.3-0.7
	c0,0,0,0,0,0l-9.1-0.5c-0.4,0-0.7-0.1-1-0.3c-0.8-0.5-1.2-1.3-1.1-2.3c0.1-0.9,0.8-1.7,1.7-1.9l2.7-0.7c0,0,0,0,0,0l3.3-3.2
	c0.4-0.3,0.8-0.6,1.3-0.6l5-0.5c0,0,0,0,0,0c0,0,1.3-5.2,1.3-5.3c-1.6-0.9-3.3-1.5-5-2l-1,1.2c-0.3,0.3-0.6,0.6-1,0.7l-2.7,1.1
	c0,0-0.1,0-0.1,0.1L42,30.7c-0.8,0.9-1.9,0.9-1.9,0.9c-0.7,0-1.4-0.3-1.9-0.9c-0.5-0.6-0.7-1.4-0.6-2.2c0,0,0.2-0.6,0.3-0.8l1.9-3.5
	c0-0.1,0-0.1,0-0.2l-0.3-1.3c-2.6,0.7-5.1,1.8-7.2,3.2V31c0,1.7-0.9,3.3-2.3,4.2l-2.4,1.6c-0.3,0.2-0.6,0.5-0.8,0.8L22,44.4
	c0,0.2,0,0.4,0,0.6c0,1.8,0.2,3.5,0.6,5.2h2.1c0.9,0,1.8,0.5,2.3,1.3l2.9,4.5c0,0,2.9,2.7,2.9,2.7c0.7,0.6,1,1.5,0.9,2.4l-0.5,3.7
	C36.6,66.8,40.7,68,45,68c12.7,0,23-10.3,23-23C68,43.6,67.9,42.3,67.7,41z"/>
</svg>
