<?xml version="1.0" encoding="utf-8"?>
<!-- Generator: Adobe Illustrator 21.1.0, SVG Export Plug-In . SVG Version: 6.00 Build 0)  -->
<svg version="1.1" id="圖層_1" xmlns="http://www.w3.org/2000/svg" xmlns:xlink="http://www.w3.org/1999/xlink" x="0px" y="0px"
	 viewBox="0 0 90 90" style="enable-background:new 0 0 90 90;" xml:space="preserve">
<style type="text/css">
	.st0{fill:#FFFFFF;}
</style>
<path class="st0" d="M45,90C20.2,90,0,69.8,0,45C0,20.2,20.2,0,45,0c24.8,0,45,20.2,45,45C90,69.8,69.8,90,45,90z M45,2.2
	C21.4,2.2,2.2,21.4,2.2,45c0,23.6,19.2,42.8,42.8,42.8S87.8,68.6,87.8,45C87.8,21.4,68.6,2.2,45,2.2z M67.4,50.4
	c1,1.9,0.3,4.2-0.9,5.5c0.7,0.9,1.4,7.3-5.8,7.3H41.3c-1.3,0-2.4-0.7-3.2-1.2c-0.2-0.1-0.7-0.1-0.7-0.1v0.7c0,1.1-0.9,2.1-2.1,2.1
	H22.4c-1.1,0-2-0.8-2.1-1.9l0-19.9c0-1.2,1-2.2,2.2-2.2h14.4c0.4,0,0.8,0.1,1.1,0.3c1.4-0.6,5.9-8.1,7.2-11c0-1.3-0.1-6-0.1-6
	c0-0.5,0.3-2.2,3-2.8c2.1-0.5,4.2,0.6,4.6,1.4c0.1,0.2,2.4,4.5,2.6,8.1c0,0.4-0.6,4.4-1,6.8l11.4,0c4.3,0,5.1,5,2.6,7.5
	C69.5,47.3,68.1,49.6,67.4,50.4z M34.9,42.7H22.4v19.9h12.5V42.7z M65.4,39.4H51.7c0.5-2.1,1.5-8.7,1.5-8.7
	c-0.2-3.2-2.4-7.3-2.4-7.3c-2.6-1.1-3.7,0.4-3.7,0.4s0.1,5.1,0.1,6.3c0,1.2-5.9,10.7-7.3,11.9c-0.8,0.6-2.1,1.5-3.2,2.2v15.3h0.9
	c1,0,2.3,1.6,3.7,1.6l19.7,0c3.9,0,4.6-4.4,2-4.9l0.1-0.5c2.5-0.3,4-4.2,0.8-5l0.1-0.5c2.4-0.2,4.2-4.1,0.8-5l0.1-0.5
	C68.1,44.2,68.7,39.4,65.4,39.4z"/>
</svg>
