<svg 
 xmlns="http://www.w3.org/2000/svg"
 xmlns:xlink="http://www.w3.org/1999/xlink"
 width="4.657cm" height="4.657cm">
<path fill-rule="evenodd"  fill="rgb(19, 17, 22)"
 d="M-0.002,132.009 L-0.002,0.008 L131.998,0.008 L131.998,132.009 L-0.002,132.009 ZM122.221,9.786 L9.776,9.786 L9.776,122.231 L122.221,122.231 L122.221,9.786 ZM65.805,77.328 C80.665,77.328 93.416,86.614 98.859,101.281 L33.137,101.281 C38.784,87.151 51.287,77.328 65.805,77.328 ZM65.998,65.521 C56.008,65.521 47.910,57.425 47.910,47.434 C47.910,37.447 56.008,29.349 65.998,29.349 C75.988,29.349 84.086,37.447 84.086,47.434 C84.086,57.425 75.988,65.521 65.998,65.521 Z"/>
</svg>