<svg id="a700ea4f-3b03-40cf-9c7d-27bc06845987" data-name="圖層 1" xmlns="http://www.w3.org/2000/svg" viewBox="0 0 133.01 55.28"><defs><style>.a22502a3-166e-4c14-959c-c20aa7f0adee{fill:#430098;}</style></defs><title>ci_logosvg_purple</title><path class="a22502a3-166e-4c14-959c-c20aa7f0adee" d="M130.64,21.15a1.87,1.87,0,0,0-1.41-.46,2.09,2.09,0,0,0-1.64,1.86,1.9,1.9,0,0,0,.55,1.17A43.52,43.52,0,0,1,132.85,30a2.11,2.11,0,0,0,2,1.18,3.18,3.18,0,0,0,2.38-3C137.14,27.62,137,26.06,130.64,21.15Z" transform="translate(-6.79 -7.96)"/><path class="a22502a3-166e-4c14-959c-c20aa7f0adee" d="M115.78,38.91A72.65,72.65,0,0,0,109,31.83l-1.63,1.76,0-13.83h3.16v-2h-3.19V9l0-.06h-4.9c0,.69,0,3.34,0,4.13v4.7H97.76v2h4.59c-.55,5.37-3.15,8.73-8.61,12l-.66-1.14-.41.24,4.49,7.77.41-.24-.48-.84a29.82,29.82,0,0,0,5.44-6.9V45.95h4.84V35.85a59.71,59.71,0,0,1,5,6.6Z" transform="translate(-6.79 -7.96)"/><path class="a22502a3-166e-4c14-959c-c20aa7f0adee" d="M109.67,30.59a.12.12,0,0,0,.12.16c1,.12,5.94-2.76,7-3.67a27.74,27.74,0,0,1,3.35-2.84c1.18-.42,1.33-.5,1.37-.82.08-.65-3-3.14-3.61-3.35a14.8,14.8,0,0,0-.69,1.47,34.54,34.54,0,0,1-6.59,8A3.43,3.43,0,0,0,109.67,30.59Z" transform="translate(-6.79 -7.96)"/><path class="a22502a3-166e-4c14-959c-c20aa7f0adee" d="M139.31,39.87l-.13.89c-5,.06-9.57-2.21-13-4.79.23-.59.57-1.33.73-1.75a11,11,0,0,1,1.73-3c.08-.08.56-.36.65-.44l.08-.69-.08-.36c-.08-.12-.48-.73-.6-.85a10.22,10.22,0,0,0-2.82-1.37.38.38,0,0,0-.4.4c0,.24.4,1.29.4,1.53,0,.44-.69,2.46-.85,3a8.28,8.28,0,0,1-.81,1.77l-.06.11a32.9,32.9,0,0,1-3.68-3.77l.57-.1-.09-.55-5.56,1,.1.55.91-.16a21.84,21.84,0,0,0,5.14,7.31,25,25,0,0,1-4.67,4.32,12.61,12.61,0,0,1-1.45.89c-.73.56-2.22.81-2.82,1.49a.7.7,0,0,0-.12.28c0,.32.56.4.77.4a18.16,18.16,0,0,0,3.55-.6,12.72,12.72,0,0,0,5.81-3.51,12,12,0,0,0,1.09-1.49c.56.39,1.22.82,2,1.27h0l.83.46s7.49,4,11.84,4.68l-.13.93.49.07,1.11-7.81Z" transform="translate(-6.79 -7.96)"/><path class="a22502a3-166e-4c14-959c-c20aa7f0adee" d="M113.05,18.74c.17.17.26.26.39.26s.77-.09.9-.09c1-.09,2.58-.13,5.46-.13h14.7c1.42,0,2.28,0,2.28-.6,0-.3-.47-.6-.69-.77-.39-.3-2.36-1.93-2.88-1.93-.34,0-.47.13-1.33,1.46-.52.73-.9.73-2.75.73l-15-.13c-.26,0-1.59-.17-1.89-.17a.11.11,0,0,0-.13.13s0,.09.17.26Z" transform="translate(-6.79 -7.96)"/><path class="a22502a3-166e-4c14-959c-c20aa7f0adee" d="M127.14,12.47,123.37,8.7l-1.88,1.88h0l-1.88,1.88,3.77,3.77Z" transform="translate(-6.79 -7.96)"/><path class="a22502a3-166e-4c14-959c-c20aa7f0adee" d="M14.86,17.32c.11.15.18.22.33.22s.66-.07.77-.07c1-.07,2.24-.11,3.19-.11h9.58c1.8,0,2,0,2-.51s-2.05-2.13-2.24-2.13S27.3,16,27,16.19a1.33,1.33,0,0,1-.92.22H23.65c-.32-1.57-1.67-7-2-8.1l.67,0,0-.31-5.12.28,0,.31.86,0c.36,1.31,1.66,6.42,2,7.9h-.82c-.81,0-4.4-.26-5.14-.26,0,0-.15,0-.15.07s0,.07.18.26Z" transform="translate(-6.79 -7.96)"/><path class="a22502a3-166e-4c14-959c-c20aa7f0adee" d="M18.59,25.25q1,1.06,1.83,2.13L22.37,25a36.11,36.11,0,0,0-2.64-2.53q.4-1.28.77-2.61L17.67,19a15.42,15.42,0,0,1-3.78,7.67L16,29A14.6,14.6,0,0,0,18.59,25.25Z" transform="translate(-6.79 -7.96)"/><path class="a22502a3-166e-4c14-959c-c20aa7f0adee" d="M28.36,23.2c.25-1.41.36-2.82.58-4.23h-4.2c-.06,1.33-.19,2.65-.33,4a14.74,14.74,0,0,1-1.82,5.33c-.21.38-.5.89-.81,1.4H19.65c0,.72,0,1.31,0,2.2H13.8v2.05h4.51c-.51,2-6.3,7.37-10.34,9.13l-.88-.76-.31.36L12,47.19l.31-.36-.45-.39a101.34,101.34,0,0,0,7.83-7.8v7.23h4.81V38.53a42.59,42.59,0,0,0,5.6,4.82L32,39c-2.51-1.21-5.87-3.38-6.68-5h4.4l0-2.06a8.24,8.24,0,0,0-2.26-1.55c-.18,0-1.21,1.25-1.47,1.47l-.13.09H24.48V30.05a1.58,1.58,0,0,1,0-.2,10.19,10.19,0,0,0,2.6-3.17c.36-.8.69-1.6,1-2.4a16.6,16.6,0,0,1,.64,4,2.69,2.69,0,0,0,2.12,1.87A2.11,2.11,0,0,0,33.12,28C33.12,25.39,30.05,24.14,28.36,23.2Z" transform="translate(-6.79 -7.96)"/><circle class="a22502a3-166e-4c14-959c-c20aa7f0adee" cx="37.05" cy="5" r="2.82"/><path class="a22502a3-166e-4c14-959c-c20aa7f0adee" d="M50.41,39.5a1.63,1.63,0,0,0-.78.18,7.45,7.45,0,0,1-3.22.89c-.18,0-1-.09-1.4-.15V34.35l5.06,0c.85,0,1.38,0,1.37-.5s-2.29-2.11-2.46-2.1c-.33,0-1.08,1.34-1.27,1.55a19.92,19.92,0,0,1-2.7.13V26.78h5.37v-2H45v-5.5h6.27v.6h.34l0-3.05h-.34v.61H37.18c1.25-2.4,2.61-5.09,2.61-5.09l-4.33-1.67c-.9,4.1-2.76,6.79-5.57,10.64l2.85,2.85a24.38,24.38,0,0,0,1.51-1.94l-.17,22.52c0,.18,0,.33,0,.42,0,.43.1.62.66.62,1.51,0,1.71-.89,1.74-1.45a6.06,6.06,0,0,0,1.56.35,2.15,2.15,0,0,0,.78-.18l1.05-.31,1.44,0,3.5-.31,7.49.36c2.61.13,2.61-1.43,2.61-1.65C54.9,41.47,51.41,39.5,50.41,39.5ZM41.5,19.26v5.5H38.22a.94.94,0,0,0-.94.94v.15c0,.52.42.94,1.35.94H41.5v6.67l-3.56,0-.92,0a.57.57,0,0,1-.55-.32V19.26Zm-4,21.5-1.06.08c0-.21,0-.35,0-.35V34.8a.56.56,0,0,1,.54-.4l4.48,0v6.12C39.92,40.6,38.22,40.73,37.53,40.75Z" transform="translate(-6.79 -7.96)"/><path class="a22502a3-166e-4c14-959c-c20aa7f0adee" d="M90.72,34.14c-2.65-1.86-3.29-2.31-4-2.31,0,0-.76.45-.83.49-.34.19-.42.23-3.75.23-.23,0-1.44.08-1.74.08-.15,0-1,.15-1.21.15s-1.4-.11-1.67-.11h-.25v-.82a14,14,0,0,0,8-8.81H62.65v3.48H79c-1,1.36-3.09,2.79-7,3.47h-.06v2.79l-.24,0-3.1.42-1.63.34L64.06,34c-.08,0-.34.11-.57.19a18.44,18.44,0,0,1-2.23.42c-.38,0-2,.34-2.31.34s-.8-.23-.87-.19a6.47,6.47,0,0,1-1,0c-.08,0-.23.11-.3.15l0,.08c.19.19,1.1,1,1.33,1.14s2.08,1.48,2.46,1.78c.23.15,1.44.64,1.7.8l.91.19a2.75,2.75,0,0,1,.45-.19c.11-.08.72-.53.87-.61l1-.27a6.5,6.5,0,0,0,.8-.27l3.07-.8h.26l2.36-.39v4.79c0,1.74-.38,2-2.12,2-1.51,0-2.43,0-4.2,0l0,3.35h7.23c3.1,0,4.43-.87,4.43-4V35.86l.66,0,.3,0,3.33.15,1.21.19,3.86.72c.08,0,.57.26.68.26s1.86.23,2.08.23c.95,0,2-.8,2-1.17A3.05,3.05,0,0,0,90.72,34.14Z" transform="translate(-6.79 -7.96)"/><path class="a22502a3-166e-4c14-959c-c20aa7f0adee" d="M94.33,20.94c0-1-3.16-3.68-4.06-3.68-.47,0-.56.13-1,.77s-1.07.73-2.74.73H81.8A47.68,47.68,0,0,0,88.93,13l2-1.71L82.57,8.46l-.48,2a56,56,0,0,1-3.43,8.26H68c-.48-2.22-2.05-8.5-2.38-9.86l.83,0,0-.39L60,8.81l0,.39,1.08-.06c.43,1.58,1.94,7.5,2.42,9.62H61.31c-.43,0-1,0-1.24-.6-.47-1.11-.81-1.88-1.2-1.88-.21,0-.3.34-.34.47-.43,2.14-.51,2.44-1.24,3.42-1.33,1.84-1.54,2.14-1.54,3a1.63,1.63,0,0,0,1.58,1.67c1.71,0,2.22-2.18,2.78-4.15.21-.86.6-.86,1.37-.86H86.84c.6,0,1.15,0,1.15.6,0,.38-1.45,2.87-1.45,3.34a.18.18,0,0,0,.17.17c.21,0,.43-.17.77-.43,2.18-1.75,3.46-2.14,4.49-2.14.17,0,1.37.21,1.5.21C93.77,21.62,94.33,21.41,94.33,20.94Z" transform="translate(-6.79 -7.96)"/><polygon class="a22502a3-166e-4c14-959c-c20aa7f0adee" points="71.52 2.46 63.03 2.46 67.27 9.81 71.52 2.46"/><polygon class="a22502a3-166e-4c14-959c-c20aa7f0adee" points="12.3 47.44 7.11 47.44 7.11 44.96 17.53 44.96 12.81 52.55 17.5 52.55 17.5 55.28 7.25 55.28 12.3 47.44"/><polygon class="a22502a3-166e-4c14-959c-c20aa7f0adee" points="24.05 44.96 18.6 55.28 22.08 55.28 25.97 55.28 29.45 55.28 24.05 44.96"/><path class="a22502a3-166e-4c14-959c-c20aa7f0adee" d="M42.4,60.06h4.9c.4,0,.6-.24.6-.46s-.19-.32-.58-.32h-1.9a3.12,3.12,0,0,1-3.08-3.33,2.82,2.82,0,0,1,3.08-3H50.6v2.77H45.43c-.44,0-.37.52-.06.62h2c3.1,0,3.64,1.52,3.64,3.24a3.5,3.5,0,0,1-3.63,3.52H42.4Z" transform="translate(-6.79 -7.96)"/><polygon class="a22502a3-166e-4c14-959c-c20aa7f0adee" points="50.78 51.6 48.55 51.6 48.55 55.28 45.2 55.28 45.2 44.96 48.55 44.96 48.55 48.65 50.78 48.65 50.78 44.96 54.13 44.96 54.13 55.28 50.78 55.28 50.78 51.6"/><polygon class="a22502a3-166e-4c14-959c-c20aa7f0adee" points="60.4 44.96 54.94 55.28 58.42 55.28 62.31 55.28 65.79 55.28 60.4 44.96"/><path class="a22502a3-166e-4c14-959c-c20aa7f0adee" d="M79.47,58.44a3.11,3.11,0,0,0,1.92-2.52c0-2.3-1.81-2.93-3.79-2.93H73.86V63.2h3.07V58.57l2.3,4.65h2.61Zm-1.92-1.83h-.62V55.46h.66c.22,0,1,0,1,.5S77.89,56.59,77.55,56.61Z" transform="translate(-6.79 -7.96)"/><polygon class="a22502a3-166e-4c14-959c-c20aa7f0adee" points="79.23 47.92 79.23 48.65 82.95 48.65 82.95 51.6 79.23 51.6 79.23 52.36 82.98 52.36 82.98 55.28 76.27 55.27 76.27 44.96 82.95 44.97 82.95 47.92 79.23 47.92"/><polygon class="a22502a3-166e-4c14-959c-c20aa7f0adee" points="92.48 47.92 92.48 48.65 96.19 48.65 96.19 51.6 92.48 51.6 92.48 52.36 96.22 52.36 96.22 55.28 89.51 55.27 89.51 44.96 96.19 44.97 96.19 47.92 92.48 47.92"/><polygon class="a22502a3-166e-4c14-959c-c20aa7f0adee" points="100.88 50.11 97.55 44.94 101.9 44.94 103.05 46.73 104.19 44.94 108.49 44.94 105.22 50.08 108.6 55.28 104.25 55.28 103.07 53.47 101.9 55.28 97.59 55.28 100.88 50.11"/><path class="a22502a3-166e-4c14-959c-c20aa7f0adee" d="M120.81,53h-3.73V63.2h3.07V58.48h2.21a2.92,2.92,0,0,0,2.24-2.57C124.63,53.62,122.79,53,120.81,53Zm0,3.63h-.62V55.46h.66c.22,0,1,0,1,.5S121.11,56.59,120.77,56.61Z" transform="translate(-6.79 -7.96)"/><path class="a22502a3-166e-4c14-959c-c20aa7f0adee" d="M131.33,52.92a5.15,5.15,0,1,0,5.41,5.13A5.27,5.27,0,0,0,131.33,52.92Z" transform="translate(-6.79 -7.96)"/></svg>