<svg id="40d40069-1120-4335-885a-2ce7749f4aea" data-name="圖層 1" xmlns="http://www.w3.org/2000/svg" viewBox="0 0 529 111"><defs><style>.\35 3426260-c3af-4fad-9f2b-7d3470e701b6{fill:#f7323f;}</style></defs><title>logo_red</title><path class="53426260-c3af-4fad-9f2b-7d3470e701b6" d="M314.87,38.87a4.72,4.72,0,0,0-3.55-1.16c-1.94.18-4.33,2.75-4.15,4.69a4.8,4.8,0,0,0,1.39,2.94,109.91,109.91,0,0,1,11.9,15.84c1.42,2.29,3.27,3.14,4.93,3,2.77-.26,6.34-4.24,6-7.65C331.28,55.23,330.82,51.27,314.87,38.87Z"/><path class="53426260-c3af-4fad-9f2b-7d3470e701b6" d="M231.32,82.51,230.1,80.4c2.52-2.59,9.19-8.86,13.75-17.42v38.53h12.24l0-25.54a150.16,150.16,0,0,1,12.65,16.7l8.54-8.94a183.61,183.61,0,0,0-17.08-17.88l-4.11,4.44,0-34.94h8v-5.1h-8.07V8.12l.07-.16H243.77c.08,1.74.08,8.44.08,10.43V30.26H231.8v5.1h11.59c-1.38,13.56-7.95,22.05-21.74,30.39L220,62.87l-1,.6,11.34,19.64Z"/><path class="53426260-c3af-4fad-9f2b-7d3470e701b6" d="M261.9,62.73a.31.31,0,0,0,.31.39c2.57.31,15-7,17.65-9.26,1.19-1,6.83-6.54,8.45-7.18,3-1.07,3.35-1.26,3.45-2.08.2-1.64-7.65-7.94-9.13-8.47a37.53,37.53,0,0,0-1.75,3.71A87.27,87.27,0,0,1,264.24,60,8.66,8.66,0,0,0,261.9,62.73Z"/><path class="53426260-c3af-4fad-9f2b-7d3470e701b6" d="M336.78,86.16l-.32,2.26c-12.75.15-24.18-5.59-32.91-12.11.59-1.5,1.44-3.38,1.85-4.43a27.78,27.78,0,0,1,4.38-7.64c.2-.2,1.43-.92,1.63-1.12l.2-1.73-.2-.92c-.2-.3-1.22-1.83-1.53-2.14-.51-.41-5.6-3.46-7.13-3.46a1,1,0,0,0-1,1c0,.61,1,3.26,1,3.87-.1,1.12-1.73,6.21-2.14,7.64a20.92,20.92,0,0,1-2,4.48l-.15.28a83.17,83.17,0,0,1-9.3-9.54l1.46-.25-.24-1.4-14.05,2.42.24,1.4,2.29-.39a55.08,55.08,0,0,0,13,18.48c-3.37,4.39-8,8-11.78,10.91A31.84,31.84,0,0,1,276.36,96c-1.83,1.43-5.6,2-7.13,3.77a1.76,1.76,0,0,0-.31.71c0,.82,1.43,1,1.94,1a45.88,45.88,0,0,0,9-1.53c7.74-2.45,10.18-4.79,14.67-8.86a30.16,30.16,0,0,0,2.74-3.75c1.41,1,3.09,2.07,5.06,3.2h0c.65.37,1.34.76,2.09,1.16.07,0,18.91,10.12,29.92,11.84l-.33,2.33,1.23.17L338,86.33Z"/><path class="53426260-c3af-4fad-9f2b-7d3470e701b6" d="M270.44,32.8c.43.43.65.65,1,.65s2-.22,2.28-.22c2.61-.22,6.52-.33,13.79-.33h37.14c3.58,0,5.76,0,5.76-1.52,0-.76-1.2-1.52-1.74-2-1-.76-6-4.89-7.28-4.89-.87,0-1.19.33-3.37,3.69-1.3,1.85-2.28,1.85-6.95,1.85l-38-.33c-.65-.11-4-.43-4.78-.43a.29.29,0,0,0-.33.33c0,.11,0,.22.43.65Z"/><path class="53426260-c3af-4fad-9f2b-7d3470e701b6" d="M306,17l-9.53-9.53-4.75,4.75,0,0L287,17l9.53,9.53Z"/><path class="53426260-c3af-4fad-9f2b-7d3470e701b6" d="M22.4,29.21c.28.37.46.56.83.56s1.67-.19,1.95-.19c2.41-.19,5.65-.28,8.06-.28H57.44c4.54,0,5.1,0,5.1-1.3s-5.19-5.38-5.65-5.38-3.06,3.15-3.71,3.71a3.35,3.35,0,0,1-2.32.56H44.6c-.81-4-4.22-17.57-4.93-20.45l1.68-.09,0-.78-12.93.7,0,.78,2.18-.12c.91,3.35,4.19,16.21,5,20H33.52c-2,0-11.12-.65-13-.65-.09,0-.37,0-.37.19s0,.19.46.65Z"/><path class="53426260-c3af-4fad-9f2b-7d3470e701b6" d="M31.81,49.23q2.5,2.69,4.63,5.38l4.91-6.12a91.23,91.23,0,0,0-6.67-6.4q1-3.24,1.95-6.58l-7.14-2.13q-2.78,12.51-9.55,19.37l5.38,6A36.88,36.88,0,0,0,31.81,49.23Z"/><path class="53426260-c3af-4fad-9f2b-7d3470e701b6" d="M65.78,83.89c-6.35-3.07-14.83-8.53-16.87-12.7H60L60.09,66a20.81,20.81,0,0,0-5.72-3.91c-.46,0-3.06,3.15-3.71,3.71a1.9,1.9,0,0,1-.33.22H46.68V61.36a3.84,3.84,0,0,1,.1-.5c2.48-2.22,5.33-5.09,6.57-8,.91-2,1.75-4,2.44-6.07A41.93,41.93,0,0,1,57.41,57c.14,1.82,3.18,4.73,5.35,4.73,3.21,0,5.76-1.94,5.76-5.57,0-6.56-7.76-9.71-12-12.08.63-3.56.91-7.12,1.47-10.68H47.35c-.14,3.35-.49,6.7-.84,10.06a37.24,37.24,0,0,1-4.61,13.48c-.54,1-1.25,2.24-2.05,3.54H34.47c.07,1.81.07,3.31.07,5.55H19.71v5.19h11.4C29.83,76.12,15.21,89.81,5,94.25L2.78,92.32l-.79.9L15.1,104.64l.79-.9-1.13-1c5.66-5,17.61-16.71,19.78-19.7v18.26H46.68V82.78A107.58,107.58,0,0,0,60.83,95Z"/><circle class="53426260-c3af-4fad-9f2b-7d3470e701b6" cx="95.57" cy="18.19" r="7.11"/><path class="53426260-c3af-4fad-9f2b-7d3470e701b6" d="M117,97.07c6.59.34,6.59-3.6,6.59-4.17,0-2.7-8.83-7.66-11.36-7.66a4.13,4.13,0,0,0-2,.45c-3.65,1.58-5.47,2.25-8.13,2.25-.47,0-2.47-.23-3.54-.38V72.22l12.79-.08c2.16-.06,3.48-.1,3.45-1.26s-5.79-5.32-6.21-5.31c-.83,0-2.73,3.4-3.21,3.91a50.18,50.18,0,0,1-6.82.33V53.09h13.57V48H98.55V34.09h15.85l0,1.53.86,0-.11-7.71-.86,0,0,1.54H78.78c3.15-6.06,6.6-12.86,6.6-12.86L74.44,12.36c-2.28,10.36-7,17.16-14.07,26.89l7.2,7.2a61.65,61.65,0,0,0,3.82-4.9L71,98.45h0c0,.46,0,.83,0,1.05,0,1.08.25,1.58,1.66,1.58,3.81,0,4.32-2.24,4.39-3.65a15.22,15.22,0,0,0,4,.87,5.43,5.43,0,0,0,2-.45l2.66-.79L89.19,97,98,96.17Zm-27.28-63V48H81.4A2.38,2.38,0,0,0,79,50.34v.37c0,1.3,1.07,2.37,3.42,2.37h7.23V69.94c-4.17,0-7.84.07-9,.1l-2.32.06a1.48,1.48,0,0,1-1.4-.77V34.09Zm-10,54.31c-.32,0-1.76.13-2.69.19,0-.54,0-.88,0-.88V73.33a1.41,1.41,0,0,1,1.37-1l11.33-.07V87.72C85.68,88,81.4,88.34,79.66,88.4Z"/><path class="53426260-c3af-4fad-9f2b-7d3470e701b6" d="M211.39,71.69c-6.7-4.69-8.32-5.84-10-5.84-.1,0-1.91,1.15-2.1,1.24-.86.48-1.05.57-9.47.57-.57,0-3.63.19-4.4.19-.38,0-2.58.38-3.06.38S178.77,68,178.1,68h-.63V65.91c11.77-4.49,17.9-15,20.2-22.28h-57.2v8.8H181.8c-2.48,3.43-7.8,7-17.75,8.78h-.16v7a4.16,4.16,0,0,1-.62.11l-7.84,1.05-4.11.86-7.27,1c-.19.1-.86.29-1.44.48A46.6,46.6,0,0,1,137,72.75c-1,0-5.16.86-5.83.86-.38,0-2-.57-2.2-.48a16.36,16.36,0,0,1-2.58.1c-.19,0-.57.29-.77.38l-.1.19c.48.48,2.77,2.49,3.35,2.87.86.67,5.26,3.73,6.22,4.5.57.38,3.63,1.63,4.3,2l2.3.48a6.89,6.89,0,0,1,1.15-.48c.29-.19,1.82-1.34,2.2-1.53s2.11-.57,2.49-.67a16.42,16.42,0,0,0,2-.67l7.75-2h.67l6-1V89.43c0,4.4-1,5-5.36,5-3.83,0-6.14-.1-10.62,0l.11,8.47h18.26c7.84,0,11.19-2.2,11.19-10.14V76l1.68-.12.77-.1,8.42.38,3.06.48,9.76,1.82c.19,0,1.44.67,1.72.67.57.1,4.69.57,5.26.57,2.39,0,5-2,5-3A7.71,7.71,0,0,0,211.39,71.69Z"/><path class="53426260-c3af-4fad-9f2b-7d3470e701b6" d="M220.51,38.34c0-2.48-8-9.29-10.26-9.29-1.19,0-1.4.32-2.59,1.94-1.4,1.84-2.7,1.84-6.91,1.84H188.87c7.8-5.45,13.21-9.75,18-14.67L212,13.84l-21.19-7L189.59,12a141.65,141.65,0,0,1-8.67,20.88H154.06c-1.21-5.63-5.17-21.43-6-24.91l2.1-.11-.06-1-16.16.87.06,1,2.73-.15c1.09,4,4.9,18.94,6.1,24.3h-5.7c-1.08,0-2.48,0-3.13-1.51-1.19-2.81-2.05-4.75-3-4.75-.54,0-.76.86-.86,1.19-1.08,5.4-1.3,6.16-3.13,8.64-3.35,4.65-3.89,5.4-3.89,7.67a4.11,4.11,0,0,0,4,4.21c4.32,0,5.62-5.51,7-10.48.54-2.16,1.51-2.16,3.46-2.16H201.6c1.51,0,2.92.11,2.92,1.51,0,1-3.67,7.24-3.67,8.43a.47.47,0,0,0,.43.43c.54,0,1.08-.43,1.94-1.08,5.51-4.43,8.75-5.4,11.34-5.4.43,0,3.46.54,3.78.54C219.1,40.07,220.51,39.53,220.51,38.34Z"/><polygon class="53426260-c3af-4fad-9f2b-7d3470e701b6" points="180.03 11.77 158.58 11.77 169.3 30.34 180.03 11.77"/><polygon class="53426260-c3af-4fad-9f2b-7d3470e701b6" points="356.4 10.84 356.4 19.78 375.12 19.78 356.93 48.08 393.9 48.08 393.9 38.23 376.99 38.23 394.01 10.84 356.4 10.84"/><polygon class="53426260-c3af-4fad-9f2b-7d3470e701b6" points="397.84 48.08 410.4 48.08 424.44 48.08 437 48.08 417.53 10.84 397.84 48.08"/><path class="53426260-c3af-4fad-9f2b-7d3470e701b6" d="M373.94,78.05h-7.08c-1.12-.37-1.38-2.23.21-2.23h18.67v-10H367.08c-7.5,0-11.12,4.84-11.12,10.74s3.83,12,11.12,12h6.86c1.38,0,2.08.59,2.08,1.17,0,.8-.75,1.6-2.18,1.65H356.18v11.06H374c8.62-.16,13.09-6.49,13.09-12.71S385.12,78.05,373.94,78.05Z"/><polygon class="53426260-c3af-4fad-9f2b-7d3470e701b6" points="410.86 78.96 402.83 78.96 402.83 65.66 390.76 65.66 390.76 102.89 402.83 102.89 402.83 89.6 410.86 89.6 410.86 102.89 422.94 102.89 422.94 65.66 410.86 65.66 410.86 78.96"/><polygon class="53426260-c3af-4fad-9f2b-7d3470e701b6" points="425.87 102.89 438.42 102.89 452.47 102.89 465.02 102.89 445.55 65.66 425.87 102.89"/><path class="53426260-c3af-4fad-9f2b-7d3470e701b6" d="M496.78,76.46c.11-8.3-6.54-10.59-13.67-10.59H469.65v36.86h11.07V86l8.3,16.76h9.42l-8.56-17.24C493.06,84.6,496.73,80.18,496.78,76.46ZM483,79c-.48,0-1-.05-1.49-.05h-.74v-4.1h2.39c.8,0,3.51-.11,3.51,1.81S484.18,78.9,483,79Z"/><polygon class="53426260-c3af-4fad-9f2b-7d3470e701b6" points="513.49 89.6 526.89 89.6 526.89 78.96 513.49 78.96 513.49 76.35 526.89 76.35 526.89 65.71 502.8 65.66 502.8 102.84 527 102.89 527 92.36 513.49 92.36 513.49 89.6"/></svg>