<?xml version="1.0" encoding="utf-8"?>
<!-- Generator: Adobe Illustrator 21.1.0, SVG Export Plug-In . SVG Version: 6.00 Build 0)  -->
<svg version="1.1" id="圖層_1" xmlns="http://www.w3.org/2000/svg" xmlns:xlink="http://www.w3.org/1999/xlink" x="0px" y="0px"
	 viewBox="0 0 412 396.4" style="enable-background:new 0 0 412 396.4;" xml:space="preserve">
<style type="text/css">
	.st0{fill:#1161EF;}
</style>
<path class="st0" d="M412,265.9v21.6h-54V210h52.5v21.6h-29.3v7.1h24.8v21.6h-24.8v5.6H412z M284.2,248.1
	c0-21.7,17.6-39.2,39.2-39.2c9.9,0,18.9,3.5,25.8,9.4l-11.3,20.9c-4.6-5-10.4-7.2-16.1-7.2c-8.7,0-15.8,7.1-15.8,16.1
	c0,9,7.5,15.6,15.8,15.6c2.8,0,4.4-0.7,6.2-1.3v-12.4h23.1v37.4H323C301.4,287.1,284.2,269.6,284.2,248.1z M265.4,39.4v38.1h-23.1V0
	h23.1l22.4,38.1V0h23.1v77.5h-23.1L265.4,39.4z M214.6,66.2c0-5.4-4.4-9.9-9.9-9.9h-6.1v21.1h-23.1V0h29.7
	c15.6,0,28.2,12.6,28.2,28.1c0,6.3-2.1,12.1-5.5,16.8c5.2,5.5,8.3,13.1,8.3,21.3v11.3h-21.6V66.2z M205.2,21.6h-6.5v13.2h6.5
	c3.7,0,6.6-3,6.6-6.6C211.8,24.6,208.8,21.6,205.2,21.6z M145.9,67.5h-15.5l-1.7,10h-23.9L121.1,0h35l15.4,77.5h-23.9L145.9,67.5z
	 M138.1,23.2l-3.9,22.6h7.7L138.1,23.2z M48,0h52.5v21.6H71.2v7.1H96v21.6H71.2v5.6H102v21.6H48V0z M86.5,103.9
	c21.9,0,39.7,17.8,39.7,39.8c0,21.9-17.8,39.8-39.7,39.8c-22,0-39.9-17.9-39.9-39.8C46.7,121.7,64.5,103.9,86.5,103.9z M86.5,158.8
	c8.3,0,15.1-6.8,15.1-15.1c0-8.4-6.8-15.2-15.1-15.2c-8.4,0-15.2,6.8-15.2,15.2C71.4,152,78.1,158.8,86.5,158.8z M23.1,133.8h15.4
	v21.6H23.1v27.1H0V105h46.3v21.6H23.1V133.8z M0,0h23.1v55.9h21.5v21.6H0V0z M39.9,263.8c6,0,11.2-3.5,13.6-8.6l11.8,24.1
	c-6.9,5.8-15.8,9.3-25.5,9.3c-22,0-39.9-17.9-39.9-39.8c0-22,17.8-39.8,39.9-39.8c9.9,0,19,3.7,26,9.7L54,241.4
	c-2.7-3.9-7-7.9-14.2-7.9c-8.4,0-15.2,6.8-15.2,15.2C24.7,257,31.4,263.8,39.9,263.8z M0,347.3c1.1,0.2,2.1,0.2,3.1,0.2v-25.1
	c0-2.2-0.2-4.5-0.3-6.9c7.9,0,15-0.7,21.3-2.1c1.1,2.9,2.6,5.6,4.6,8c0.4,0.6,0.7,1.1,0.7,1.4c0,0.5-0.3,0.7-0.7,0.7l-1.3-0.4
	c-3.5,0.7-7.4,1.3-11.6,1.7v1.4H21c1.6,0,3.2-0.1,4.9-0.4c2-1.2,4.1-2.7,6-4.1c-1.9-1.6-3.9-3.3-6-4.9c3.2-1.8,5.6-3.4,7.3-4.9
	c2,1.2,4,2.6,6,4c1.6-1.4,3.1-2.8,4.7-4.3c1.8,1.6,3.7,3.1,5.9,4.4c-0.1-0.8-0.2-1.6-0.2-2.4c1.9,0.3,3.7,0.4,5.6,0.4h13.6
	c2.2,0,4.4-0.1,6.6-0.4c-0.3,1.8-0.3,3.5-0.3,5.2v26.7c0,0.7,0,1.3,0.1,1.9c1,0,2.1-0.1,3.2-0.3c-0.3,1.7-0.3,3.3-0.3,4.9v5.5
	c0,2.6,0.1,5.1,0.3,7.6c-2.5-0.2-4.9-0.3-7.3-0.3c-2.5,0-4.9,0.1-7.3,0.3c0.2-2.5,0.3-5,0.3-7.6V357H14.3v0.6c0,2.6,0.2,5.1,0.7,7.6
	c-2.6-0.2-5.1-0.3-7.7-0.3c-2.5,0-4.9,0.1-7.3,0.3c0.2-2.5,0.3-5,0.3-7.6v-5.5C0.3,350.3,0.2,348.7,0,347.3z M62.5,323.8h-7.3
	c-1.9,0-3.7,0.2-5.6,0.4c0.2-1.6,0.3-3.2,0.3-4.8c-1.2,1-2.4,1.9-3.4,2.6c1.5,1.5,3.1,3,4.4,4.4v-0.9c1.7,0.3,3.4,0.4,5,0.4h6.6
	V323.8z M62.4,347.6c0-0.7,0.1-1.3,0.1-2v-0.4h-7c-1,0-2,0.1-3,0.2c-1.4,0.7-2.6,1.5-3.8,2.2H62.4z M50.5,342.3v-6.1
	c1.7,0.3,3.4,0.4,5,0.4h7v-2h-6.6c-1.5,0-3.1,0.2-5,0.4v-5.7c-1.5,0.8-2.9,1.7-4.3,2.7c1.1,0.9,2.3,1.8,3.5,2.5
	c0.5,0.3,0.8,0.5,0.8,0.9c0,0.4-0.3,0.5-1,0.6c-1.4,1.1-2.6,2-3.8,2.9C47.5,339.9,49,341.1,50.5,342.3z M42,347.6
	c-1.2-1-2.5-1.9-3.7-3c-1.5,1.1-2.9,2.1-4.3,3H42z M38.3,333.7c1-0.8,2-1.6,3.1-2.5c-0.9-1.1-1.9-2.1-2.9-3.2
	c-1.5,1.2-3.1,2.2-4.4,3.3C35.5,332.1,36.9,332.9,38.3,333.7z M25.9,328.1v5.7c1.4-0.9,2.7-1.7,3.7-2.5
	C28.3,330.2,27.1,329.1,25.9,328.1z M15.6,347.6h12.2c-0.9-0.7-1.6-1.3-2.3-1.9v0.3c-1.5-0.2-3.1-0.4-4.9-0.4h-5V347.6z M15.6,336.9
	h5c1.6,0,3.2-0.1,4.9-0.4v5.8c1.7-1,3.3-2,4.9-3.1c-2.2-1.3-4.5-2.7-6.9-4.1c0.2-0.1,0.3-0.2,0.3-0.2c-1-0.1-2-0.2-3-0.2h-5.4V336.9
	z M8.3,371.5H32c-0.1-0.8-0.2-1.6-0.3-2.5c2.3,0.5,5.8,0.9,10.4,1.1c0.8-0.7,1.7-1.5,2.6-2.4H21c-1.3,0-2.8,0.2-4.7,0.4
	c0.2-1.9,0.3-3.6,0.3-4.9c0-1.3-0.2-2.9-0.3-4.9c1.7,0.3,3.3,0.4,4.7,0.4h33.8c2,0,4.2-0.1,6.3-0.4c-0.3,1.7-0.3,3.3-0.3,4.9v4.2
	c-1.3,1.6-2.6,2.9-3.7,4.2h12.1c2,0,4.2-0.1,6.3-0.4c-0.3,1.9-0.3,3.7-0.3,5.5c0,1.8,0.1,3.6,0.3,5.6c-1.9-0.2-4-0.4-6.3-0.4H47.9
	v3.5c0,3.2-1.1,5.7-3.1,7.3c-2.2,1.8-5.2,2.7-9,2.7H24c-0.7-3.5-2-7.3-4-11.1c3.3,0.3,6.6,0.4,9.9,0.4c1.5,0,2.3-0.4,2.3-1.1v-1.7
	H8.3c-1.9,0-4,0.2-6.3,0.4c0.2-2.1,0.3-4,0.3-5.6c0-1.8-0.2-3.6-0.3-5.5C4.3,371.4,6.3,371.5,8.3,371.5z M110,313.7
	c2.8,0.3,5.6,0.4,8.3,0.4s5.6-0.1,8.6-0.4c3.5,3.8,8.1,6.8,13.8,9.1c5.6,2.3,12,3.9,19.1,4.8c-2.1,4.7-3.7,9-4.7,13.1
	c-0.5-0.1-0.8-0.2-1.2-0.4c-0.1,0.4-0.1,0.8-0.1,1.1V358c0,1.4,0.1,2.8,0.3,4.2c-2.5-0.2-4.9-0.4-7.3-0.4H91.7
	c-2.5,0-4.9,0.2-7.3,0.4c0.4-1.3,0.7-2.7,0.7-4.2v-16.9c-0.5,0.2-0.9,0.4-1,0.4c-1.2-4.2-2.8-8.4-4.9-12.8c6.4-1.1,12.6-3,18.5-5.8
	C102.7,320.4,106.7,317.3,110,313.7z M119.3,324.2c-2.6,1.8-5.2,3.5-8,5.1h15.5C124.1,327.7,121.6,326,119.3,324.2z M140.2,354.2v-4
	c-0.2,0.1-0.4,0.2-0.7,0.2c-2.1,1.4-4.1,2.7-6,3.8H140.2z M140.2,349.2v-4h-5.4c1.5,1.4,3.2,2.7,5.1,3.7
	C140.1,349.1,140.2,349.2,140.2,349.2z M125.3,354.2h5.4c-1.8-1.5-3.5-2.8-5.1-4.1c2.7-1.4,5.2-3.1,7.4-4.9h-7.7V354.2z
	 M111.7,354.2v-2.6c-1.4,0.8-2.8,1.7-4.1,2.6H111.7z M111.7,350.1v-4.9h-5.9C108,346.7,110,348.3,111.7,350.1z M98.7,354.2h5.2
	c-1.4-1.4-3.1-2.9-5.2-4.5V354.2z M98.7,349.2c2.7-1.4,4.8-2.7,6.2-4h-6.2V349.2z M144.7,337.6c-2-0.6-3.9-1.3-5.7-2.1H99.1
	c-1.7,0.7-3.3,1.4-5,2.1H144.7z M88,363.6c3,0.3,5.6,0.4,8,0.4h45.5c2.6,0,5.3-0.1,8-0.4c-0.3,1.5-0.3,3-0.3,4.5v18.3
	c0,2.7,0.1,5.5,0.3,8.2c-2.7-0.2-5.4-0.3-8-0.3c-2.7,0-5.4,0.1-8,0.3c0-0.6,0.1-1.2,0.1-1.7h-29.4c0,0.5,0.1,1.2,0.2,1.7
	c-2.8-0.2-5.6-0.3-8.3-0.3c-2.7,0-5.4,0.1-8,0.3c0.2-2.7,0.3-5.5,0.3-8.2v-18.3C88.4,366.3,88.2,364.8,88,363.6z M103.7,384.3h30.2
	v-2.4h-30.2V384.3z M103.7,375h30.2v-2.5h-30.2V375z M182.6,287.5l-1.7-10h-15.5l-1.7,10h-23.9l16.3-77.5h35l15.4,77.5H182.6z
	 M173.2,233.2l-3.9,22.6h7.8L173.2,233.2z M135.8,210v77.5h-23.1v-21.8H93.4v21.8H70.2V210h23.1v34.1h19.3V210H135.8z M191.9,182.5
	h-21.6v-11.3c0-5.4-4.4-9.9-9.9-9.9h-6.1v21.1h-23.1V105h29.7c15.6,0,28.2,12.6,28.2,28.1c0,6.3-2.1,12.1-5.5,16.8
	c5.2,5.5,8.3,13.1,8.3,21.3V182.5z M160.9,126.6h-6.5v13.2h6.5c3.7,0,6.6-3,6.6-6.6C167.5,129.6,164.6,126.6,160.9,126.6z
	 M169.3,315.8h22.5c2.6,0,5.1-0.2,7.7-0.7c-0.3,2.6-0.3,5.1-0.3,7.6v17.6c1-2.1,2-4.3,2.8-6.6c2.7-7.2,4.3-14.4,4.8-21.7
	c4.4,1.2,9.4,2.3,15.1,3c0.9,0.1,1.4,0.4,1.4,1.2c0,0.4-0.6,1.2-1.6,2c-0.3,1.7-0.6,3.3-0.9,4.9h11.9c2.6,0,5.1-0.2,7.7-0.7
	c-0.3,2.8-0.3,5.6-0.3,8.3c0,2.7,0.1,5.4,0.3,8.3c-1.6-0.1-3.2-0.2-4.8-0.3c-0.3,13.5-2.6,24.4-6.5,32.7c3.6,3.4,7.7,6,12.5,8.1
	c-3.5,4.6-6.7,9.7-9.6,15.5c-4.7-2.2-9.1-5.6-13.2-10.2c-4.3,3.9-9.4,7.4-15.4,10.5c-2.6-3.5-4.9-6.6-7.1-9.2
	c-0.8,1.2-1.6,2.2-2.5,2.9c-2.2,1.4-6.6,2.1-13.3,2.1h-6.1c-7,0-10.5-2.3-10.5-6.9v-37.7c0-2.5-0.3-5-0.7-7.5
	c2.5,0.4,5.1,0.6,7.7,0.6h13.9V330h-15.6c-2.4,0-4.7,0.2-7,0.4c0.2-2.5,0.3-5,0.3-7.6c0-2.5-0.1-5-0.3-7.6
	C164.6,315.7,166.9,315.8,169.3,315.8z M218.4,356.3c1.3-5,2-10.8,2-17.6h-3.9c-0.7,1.6-1.3,3.1-1.9,4.5c-0.2,0.4-0.3,0.6-0.4,0.8
	C215.2,348.4,216.7,352.5,218.4,356.3z M178.2,353.9v18.9c0,1,1.5,1.4,4.7,1.4c0.6,0,1.3-0.4,2-1.2c0.3-1.5,0.7-5.9,1-13.4
	c4.8,3.4,9.5,5.5,14.3,6.6c-0.2,4.4-0.6,8.2-1.1,11.3c4.1-1.8,7.5-3.8,10.2-6.1c-2-3.4-3.8-7-5.4-10.9c-1.3,1.6-2.5,3-3.7,4.3
	c-2.5-4.4-5.1-8.1-7.5-11.1H178.2z M290.7,314.1v6.6c-0.7-0.2-1.3-0.4-2-0.4h-14.6c-0.6,0-1.3,0.2-2,0.4v-6.6c0.7,0.3,1.4,0.4,2,0.4
	h14.6C289.4,314.4,290,314.3,290.7,314.1z M279.3,210v77.5h-23.1l-22.4-38.1v38.1h-23.1V210h23.1l22.4,38.1V210H279.3z M259.6,378.7
	c-2.6,1.2-5.2,2.5-8.1,3.5c-2.6-4.3-5.1-7.9-7.7-10.7c6.5-1.9,11.4-4.1,14.7-6.6c1.5-1,2.7-1.9,3.7-3c-1.7-0.1-3.2-0.2-4.5-0.2
	c-2,0-4,0.2-6,0.4c0.2-1.6,0.3-3.2,0.3-4.8v-3.9c-0.6,2.5-1.3,4.8-2,7c-2-1-4.2-1.8-6.4-2.5c1.5-3.9,2.8-8.1,3.7-12.8
	c1.4,0.9,2.9,1.6,4.7,2.1v-3.1c-1.8,0.2-3.6,0.3-5.3,0.3c-0.7,0.5-1.2,0.7-1.4,0.7c-0.4,0-0.7-0.2-0.7-0.7V340
	c0-1.6-0.2-3.4-0.3-5.1h3.1c0.6,0,1.6,0,3-0.1c0.3-0.3,0.6-0.5,0.9-0.9c-2.6-3.5-5.1-6.6-7.7-9.1c2-2.3,3.7-4.8,5.4-7.6
	c0.5,0.4,0.9,0.7,1.4,1.1c1.9-2,3.6-4.2,5.2-6.6c2,1.9,4.3,3.7,6.9,5.3c0.5,0.3,0.8,0.5,0.8,0.9c0,0.4-0.3,0.6-1,0.7
	c-1.7,2.1-3.4,4.1-4.9,5.8c0.5,0.7,1,1.2,1.4,1.7c1.9-2.1,3.6-4.3,5.2-6.5c1.5,1.4,3.2,2.7,5.3,4v-2.3c0.7,0.3,1.4,0.4,2,0.4h18.2
	c0.5,0,0.9,0,1.4-0.2c1.4-1.9,2.7-3.9,3.9-6c0.9,0.7,1.8,1.5,2.6,2.3c2-1.9,3.9-4,5.7-6.1c1.9,1.8,4.1,3.5,6.5,5
	c0.5,0.2,0.8,0.4,0.8,0.8c0,0.4-0.3,0.6-1,0.7c-2,2.2-4,4.3-5.8,6.1c0.7,0.9,1.3,1.7,1.8,2.4c2.7-2.7,5.3-5.5,7.7-8.5
	c1.9,1.8,4.1,3.5,6.5,5c0.5,0.3,0.8,0.5,0.8,0.9c0,0.4-0.3,0.5-1,0.6c-3.7,3.5-7.1,6.8-10.5,9.9c1.1,0,2.2-0.1,3.3-0.1h1
	c-0.3-0.9-0.6-1.8-0.9-2.6c2-0.4,4-0.8,6-1.3c1.2,4.3,2.2,8.3,3,12.1c-1.4,0.4-3.1,0.8-5.2,1.4c2.2,4.1,4.2,8.1,5.9,12
	c-2.7,0.9-5.3,2-7.7,3.5c-1-2.7-2.1-5.4-3.3-7.9v4.4c0,1.4,0.1,3.2,0.3,5.1c-2.4-0.2-4.4-0.3-6.3-0.3c-2,0-4,0.1-6,0.3
	c0.2-1.7,0.3-3.4,0.3-5.1v-1.8c-0.9,1.9-2,3.8-3.1,5.6c-1.5-0.9-3.1-1.6-4.6-2.2v3.9c-1.4-0.2-2.7-0.4-4-0.4h-9.7
	c-0.3,0.4-0.6,0.7-0.9,1.1c-0.2,0.4-0.3,0.7-0.5,1.1H307c2.2,0,4.4-0.1,6.6-0.4c-0.3,1.8-0.3,3.5-0.3,5.2v7.6
	c-3.3,2.1-6.9,4.2-10.6,5.9c5.6,1,11.8,1.8,18.6,2.3c-2.7,3.5-5.1,7.6-7.3,12.1c-11.1-1.4-21.4-3.6-31-6.8c-9.2,2.7-21.2,5-35.8,6.8
	c-1.1-4.7-2.6-8.8-4.3-12.1c7.3-0.1,14.9-0.8,22.5-2C263.3,381.2,261.4,379.9,259.6,378.7z M311.3,345.6c1.4-0.5,2.8-1.2,4.2-1.9
	c-0.1-0.4-0.2-0.8-0.2-1.2c-1.4,0.1-2.8,0.2-4,0.2V345.6z M278.1,354.2h6.3v-2.7h-6.3V354.2z M284.2,377.7c3.6-1.2,6.9-2.6,9.9-4.2
	H274C276.9,375.2,280.3,376.5,284.2,377.7z M274.1,344.2h13.9c1.3,0,2.6-0.1,4-0.4v8.1c1.6-2.7,3-5.3,4-8.1c1.1,0.9,2.3,1.6,3.7,2.1
	v-2.7c-2,0.2-4.1,0.3-6,0.3c-0.5,0.5-0.8,0.7-0.9,0.7c-0.4,0-0.7-0.2-0.7-0.7v-4.2c0-1.4-0.2-2.8-0.3-4.4h4.8
	c0.4-0.4,0.9-0.7,1.3-1.1c-2-2.8-4.1-5.4-6-7.6v1.8c-0.7-0.2-1.4-0.4-2-0.4h-18.2c-0.7,0-1.4,0.2-2,0.4v-3.2
	c-2.7,3.4-5.4,6.6-7.8,9.7c0.7,0,1.4-0.1,2.3-0.1h0.8c-0.2-0.9-0.3-1.7-0.5-2.6c1.8-0.4,3.6-0.9,5.3-1.4c0.8,3.5,1.4,6.8,2,9.8v-3.3
	h19.2v5.9c-0.7-0.2-1.3-0.4-2-0.4h-15.3c-0.5,0-1,0.1-1.5,0.3c0,0.4,0.1,0.5,0.2,0.7c-0.6,0.2-1.1,0.4-1.5,0.4
	C271.8,344.1,272.9,344.2,274.1,344.2z M267.8,344.7c1,2.1,2,4.3,2.7,6.5v-3.5c0-1.2-0.2-2.4-0.3-3.6
	C269.4,344.3,268.6,344.5,267.8,344.7z M270.5,358.5V356c-1.4,0.5-2.6,1.1-3.7,1.7C268,358.1,269.2,358.3,270.5,358.5z M266,343.6
	c-0.9,0.1-1.8,0.1-2.5,0.1v2.2c0.9-0.4,1.8-0.7,2.6-1.1C266.1,344.4,266,344,266,343.6z M263.5,349v8.3c0,0.9,0,1.9,0.2,3
	c0.7-1,1.2-1.9,1.4-3c0.2,0.1,0.3,0.1,0.5,0.1C265,354.4,264.4,351.7,263.5,349z M273.1,334.9c-0.6,0-1.3,0.2-2,0.4v-5.9h19.6v5.9
	c-0.7-0.2-1.3-0.4-2-0.4H273.1z"/>
</svg>
