<svg 
 xmlns="http://www.w3.org/2000/svg"
 xmlns:xlink="http://www.w3.org/1999/xlink"
 width="3.704cm" height="2.505cm">
<path fill-rule="evenodd"  fill="rgb(255, 255, 255)"
 d="M104.176,63.320 L104.176,69.780 L82.368,69.780 L82.368,38.453 L103.381,38.453 L103.381,44.824 L89.651,44.824 L89.651,50.753 L102.630,50.753 L102.630,56.815 L89.651,56.815 L89.651,63.320 L104.176,63.320 ZM73.770,44.626 C72.725,44.138 71.717,43.896 70.747,43.896 C70.246,43.896 69.738,43.939 69.223,44.028 C68.709,44.117 68.244,44.286 67.833,44.537 C67.420,44.788 67.075,45.112 66.795,45.510 C66.515,45.908 66.376,46.417 66.376,47.037 C66.376,47.567 66.486,48.010 66.707,48.364 C66.928,48.718 67.252,49.028 67.678,49.293 C68.105,49.559 68.612,49.802 69.201,50.024 C69.789,50.245 70.452,50.473 71.188,50.709 C72.248,51.063 73.351,51.455 74.499,51.882 C75.647,52.310 76.691,52.877 77.634,53.585 C78.575,54.293 79.355,55.171 79.974,56.218 C80.591,57.265 80.900,58.571 80.900,60.134 C80.900,61.934 80.569,63.490 79.907,64.802 C79.244,66.115 78.354,67.199 77.236,68.054 C76.117,68.910 74.837,69.544 73.395,69.957 C71.953,70.369 70.467,70.576 68.936,70.576 C66.699,70.576 64.537,70.185 62.447,69.404 C60.357,68.623 58.621,67.509 57.238,66.063 L62.183,61.019 C62.946,61.963 63.955,62.752 65.206,63.386 C66.457,64.021 67.701,64.337 68.936,64.337 C69.495,64.337 70.040,64.279 70.570,64.161 C71.099,64.043 71.563,63.850 71.960,63.585 C72.358,63.320 72.674,62.965 72.910,62.523 C73.145,62.081 73.263,61.550 73.263,60.930 C73.263,60.340 73.115,59.839 72.821,59.426 C72.527,59.013 72.108,58.637 71.563,58.298 C71.018,57.959 70.341,57.649 69.533,57.368 C68.723,57.089 67.803,56.786 66.773,56.461 C65.772,56.137 64.793,55.753 63.838,55.311 C62.881,54.869 62.028,54.301 61.277,53.608 C60.526,52.914 59.923,52.074 59.468,51.086 C59.010,50.097 58.782,48.895 58.782,47.479 C58.782,45.739 59.136,44.249 59.842,43.010 C60.549,41.771 61.475,40.754 62.624,39.957 C63.771,39.161 65.065,38.579 66.508,38.210 C67.950,37.841 69.407,37.656 70.878,37.656 C72.645,37.656 74.448,37.981 76.287,38.630 C78.126,39.279 79.737,40.238 81.120,41.506 L76.308,46.595 C75.661,45.769 74.814,45.112 73.770,44.626 ZM37.635,31.289 L27.251,31.289 L43.532,0.417 L59.636,31.289 L49.252,31.289 L37.635,31.289 ZM27.411,23.130 L27.242,31.289 L0.572,31.289 L13.051,7.826 L0.547,7.826 L0.547,0.417 L28.671,0.417 L16.788,23.130 L27.411,23.130 ZM17.251,38.829 C18.517,39.080 19.664,39.508 20.695,40.112 C21.725,40.717 22.563,41.536 23.211,42.568 C23.859,43.601 24.182,44.913 24.182,46.506 C24.182,48.246 23.710,49.685 22.770,50.820 C21.827,51.956 20.591,52.775 19.061,53.276 L19.061,53.364 C19.944,53.512 20.775,53.785 21.555,54.183 C22.334,54.581 23.013,55.090 23.587,55.709 C24.160,56.329 24.616,57.052 24.955,57.877 C25.292,58.704 25.463,59.632 25.463,60.665 C25.463,62.376 25.124,63.814 24.446,64.979 C23.770,66.144 22.873,67.080 21.753,67.789 C20.636,68.497 19.363,69.006 17.936,69.315 C16.507,69.625 15.044,69.780 13.543,69.780 L1.094,69.780 L1.094,38.453 L13.543,38.453 C14.749,38.453 15.985,38.579 17.251,38.829 ZM8.377,63.673 L12.616,63.673 C13.203,63.673 13.815,63.622 14.447,63.519 C15.080,63.416 15.654,63.231 16.170,62.965 C16.684,62.701 17.103,62.324 17.427,61.837 C17.751,61.351 17.913,60.724 17.913,59.957 C17.913,58.659 17.427,57.760 16.457,57.258 C15.486,56.757 14.190,56.506 12.572,56.506 L8.377,56.506 L8.377,63.673 ZM8.377,44.470 L8.377,50.931 L12.439,50.931 C13.852,50.931 14.948,50.643 15.728,50.067 C16.507,49.493 16.898,48.645 16.898,47.524 C16.898,46.462 16.493,45.688 15.684,45.200 C14.873,44.714 13.676,44.470 12.086,44.470 L8.377,44.470 ZM44.542,38.453 L57.521,69.780 L49.133,69.780 L46.705,63.629 L34.609,63.629 L32.314,69.780 L24.103,69.780 L37.214,38.453 L44.542,38.453 ZM44.630,57.568 L40.745,46.815 L36.772,57.568 L44.630,57.568 Z"/>
</svg>