<svg 
 xmlns="http://www.w3.org/2000/svg"
 xmlns:xlink="http://www.w3.org/1999/xlink"
 width="1.905cm" height="1.94cm">
<path fill-rule="evenodd"  fill="rgb(19, 17, 22)"
 d="M-0.001,54.089 L-0.001,0.088 L53.999,0.088 L53.999,54.089 L-0.001,54.089 ZM49.999,4.088 L3.998,4.088 L3.998,50.088 L49.999,50.088 L49.999,4.088 ZM26.919,31.719 C32.999,31.719 38.215,35.518 40.442,41.518 L13.556,41.518 C15.865,35.738 20.980,31.719 26.919,31.719 ZM26.998,26.889 C22.912,26.889 19.599,23.577 19.599,19.490 C19.599,15.404 22.912,12.091 26.998,12.091 C31.086,12.091 34.399,15.404 34.399,19.490 C34.399,23.577 31.086,26.889 26.998,26.889 Z"/>
</svg>