<svg 
 xmlns="http://www.w3.org/2000/svg"
 xmlns:xlink="http://www.w3.org/1999/xlink"
 width="3.951cm" height="2.505cm">
<path fill-rule="evenodd"  fill="rgb(255, 255, 255)"
 d="M110.017,60.825 C109.171,62.856 107.998,64.595 106.496,66.041 C104.995,67.487 103.210,68.605 101.139,69.394 C99.069,70.183 96.824,70.578 94.405,70.578 C91.985,70.578 89.747,70.183 87.693,69.394 C85.637,68.605 83.858,67.487 82.358,66.041 C80.855,64.595 79.682,62.856 78.837,60.825 C77.990,58.795 77.569,56.552 77.569,54.097 C77.569,51.614 77.990,49.371 78.837,47.369 C79.682,45.368 80.855,43.666 82.358,42.263 C83.858,40.861 85.637,39.780 87.693,39.020 C89.747,38.260 91.985,37.880 94.405,37.880 C96.824,37.880 99.069,38.260 101.139,39.020 C103.210,39.780 104.995,40.861 106.496,42.263 C107.998,43.666 109.171,45.368 110.017,47.369 C110.862,49.371 111.285,51.614 111.285,54.097 C111.285,56.552 110.862,58.795 110.017,60.825 ZM102.626,50.328 C102.189,49.160 101.584,48.158 100.812,47.326 C100.038,46.493 99.106,45.836 98.013,45.353 C96.919,44.871 95.717,44.630 94.405,44.630 C93.093,44.630 91.897,44.871 90.819,45.353 C89.740,45.836 88.807,46.493 88.020,47.326 C87.233,48.158 86.628,49.160 86.206,50.328 C85.783,51.497 85.572,52.754 85.572,54.097 C85.572,55.500 85.790,56.793 86.227,57.976 C86.664,59.159 87.269,60.175 88.042,61.023 C88.815,61.871 89.740,62.535 90.819,63.017 C91.897,63.499 93.093,63.740 94.405,63.740 C95.717,63.740 96.912,63.499 97.991,63.017 C99.069,62.535 100.003,61.871 100.789,61.023 C101.577,60.175 102.189,59.159 102.626,57.976 C103.063,56.793 103.283,55.500 103.283,54.097 C103.283,52.754 103.063,51.497 102.626,50.328 ZM73.707,55.851 C72.569,56.611 71.258,57.166 69.771,57.516 C68.284,57.867 66.739,58.042 65.136,58.042 L61.419,58.042 L61.419,69.744 L53.940,69.744 L53.940,38.713 L65.311,38.713 C67.001,38.713 68.583,38.881 70.055,39.217 C71.528,39.554 72.810,40.094 73.904,40.839 C74.997,41.584 75.857,42.563 76.484,43.775 C77.110,44.988 77.425,46.486 77.425,48.268 C77.425,50.080 77.089,51.607 76.418,52.848 C75.747,54.090 74.844,55.091 73.707,55.851 ZM69.509,46.515 C69.217,46.048 68.823,45.682 68.328,45.419 C67.832,45.156 67.271,44.981 66.644,44.893 C66.017,44.806 65.369,44.761 64.699,44.761 L61.419,44.761 L61.419,52.081 L64.567,52.081 C65.267,52.081 65.937,52.023 66.579,51.906 C67.220,51.789 67.797,51.584 68.306,51.292 C68.816,51.000 69.217,50.613 69.509,50.131 C69.800,49.648 69.947,49.043 69.947,48.312 C69.947,47.582 69.800,46.982 69.509,46.515 ZM37.586,31.249 L27.216,31.249 L43.476,0.419 L59.557,31.249 L49.188,31.249 L37.586,31.249 ZM27.375,23.101 L27.206,31.249 L0.572,31.249 L13.034,7.818 L0.548,7.818 L0.548,0.419 L28.634,0.419 L16.767,23.101 L27.375,23.101 ZM21.909,45.024 L8.308,45.024 L8.308,50.898 L21.165,50.898 L21.165,56.903 L8.308,56.903 L8.308,63.346 L22.696,63.346 L22.696,69.124 L33.130,53.352 L23.159,38.713 L32.167,38.713 L37.940,48.355 L43.625,38.713 L52.328,38.713 L42.532,53.352 L53.728,69.744 L44.500,69.744 L37.721,58.787 L31.206,69.744 L22.696,69.744 L22.285,69.744 L1.093,69.744 L1.093,38.713 L21.909,38.713 L21.909,45.024 Z"/>
</svg>