<?xml version="1.0" encoding="utf-8"?>
<!-- Generator: Adobe Illustrator 21.1.0, SVG Export Plug-In . SVG Version: 6.00 Build 0)  -->
<svg version="1.1" id="圖層_1" xmlns="http://www.w3.org/2000/svg" xmlns:xlink="http://www.w3.org/1999/xlink" x="0px" y="0px"
	 viewBox="0 0 36 36" style="enable-background:new 0 0 36 36;" xml:space="preserve">
<style type="text/css">
	.st0{fill:#131116;}
</style>
<path class="st0" d="M21.2,25h-5.7c-2.3,0-4.2-1.9-4.2-4.2V15c0-2.3,1.9-4.2,4.2-4.2h5.7c2.3,0,4.2,1.9,4.2,4.2v5.7
	C25.4,23.1,23.5,25,21.2,25z M24,15c0-1.5-1.3-2.8-2.8-2.8h-5.7c-1.5,0-2.8,1.3-2.8,2.8v5.7c0,1.5,1.3,2.8,2.8,2.8h5.7
	c1.5,0,2.8-1.3,2.8-2.8V15z M22,15.1c-0.5,0-0.9-0.4-0.9-0.9c0-0.5,0.4-0.9,0.9-0.9s0.9,0.4,0.9,0.9C22.9,14.7,22.5,15.1,22,15.1z
	 M18.4,21.5c-2,0-3.7-1.6-3.7-3.7c0-2,1.6-3.7,3.7-3.7s3.7,1.6,3.7,3.7C22,19.9,20.4,21.5,18.4,21.5z M18.4,15.6
	c-1.2,0-2.2,1-2.2,2.2c0,1.2,1,2.2,2.2,2.2c1.2,0,2.2-1,2.2-2.2C20.6,16.6,19.6,15.6,18.4,15.6z"/>
</svg>
