<svg xmlns="http://www.w3.org/2000/svg" viewBox="0 0 772 470"><defs><style>.af123034-d1cc-468c-a292-3dd468aa6fd8{fill:#0047ba;}.e471b696-1685-49ee-a391-58e408c57de9{fill:#ff4c00;}.\37 dfc443c-0a10-4245-884e-468103a95160,.e7f9a7ad-951f-4ed4-adb0-9f2f04cf9199{fill:none;stroke:#ff4c00;stroke-miterlimit:10;}.\37 dfc443c-0a10-4245-884e-468103a95160{stroke-width:2px;}</style></defs><title>index</title><g id="ecbaeba4-5b82-4ca1-869f-413a58432abc" data-name="pic"><rect class="af123034-d1cc-468c-a292-3dd468aa6fd8" width="772" height="470" rx="5" ry="5"/><path class="e471b696-1685-49ee-a391-58e408c57de9" d="M40.09,370.42v13.65H37.16V361.42H47v9Zm0-6.85v1.26h4v-1.26Zm4,4.67V366.8h-4v1.44Zm7.31,10.08v5.28H48.81v-5.28H46.38a8.23,8.23,0,0,1-3.26,5.76,11.28,11.28,0,0,0-1.9-1.72,5.92,5.92,0,0,0,2.58-4H41.28v-2.45h2.63V374H41.63V371.6H53.83V374h-2.4v1.89h2.78v2.45Zm-2.63-2.45V374H46.46v1.89Zm9.63,4.62c0,1.52-.28,2.38-1.21,2.85s-2.22.56-4.12.56a10.77,10.77,0,0,0-.94-3c1.14.08,2.4,0,2.8,0s.51-.15.51-.53v-10H48.53v-9h9.91Zm-7.05-16.93v1.26h4.09v-1.26Zm4.1,4.75V366.8H51.38v1.52Z"/><path class="e471b696-1685-49ee-a391-58e408c57de9" d="M69.68,368a24.69,24.69,0,0,1-1.59,8.72,35.91,35.91,0,0,1,2.78,2.75L69,381.78c-.58-.68-1.36-1.54-2.3-2.45A16.88,16.88,0,0,1,62.41,384a9.71,9.71,0,0,0-2-2,15.34,15.34,0,0,0,4.27-4.57c-1.26-1.16-2.53-2.3-3.64-3.26a57.46,57.46,0,0,0,1.39-5.63l-1.64.1-.28-2.68c.73,0,1.54-.05,2.4-.1.3-1.79.55-3.61.68-5.23l2.78.18c-.18,1.54-.4,3.23-.71,4.93l1.36-.08V364h2.68v1.47l1.11-.05,0,2.5Zm-4.52.33c-.35,1.74-.76,3.44-1.14,4.93.61.48,1.21,1,1.82,1.54a20.94,20.94,0,0,0,1.14-6.6ZM82,372.48a15.65,15.65,0,0,0-.63-1.67c-8.24.71-9.5.84-10.44,1.22-.18-.58-.63-2-1-2.8.53-.15,1-.66,1.59-1.57A35.61,35.61,0,0,0,75,360.43l3.13.83a47.86,47.86,0,0,1-3.91,7.33l5.71-.41c-.63-1.06-1.31-2.12-2-3l2.4-1.19a28.26,28.26,0,0,1,4.17,7.13Zm-10.92,1H82.9V384H80v-1H73.83v1H71.07Zm2.75,2.63v4.27H80v-4.27Z"/><path class="e471b696-1685-49ee-a391-58e408c57de9" d="M91.92,367a26.45,26.45,0,0,1-1.36,2.48v14.61H87.83V373.41a21.1,21.1,0,0,1-1.52,1.72,18.7,18.7,0,0,0-1.64-2.63,23.8,23.8,0,0,0,4.85-6.8l2.4.83V362h2v3.59H95v-5.13h2.17v5.13h1.26V362h2.12v5.89H91.92Zm-.1-5.61a26.25,26.25,0,0,1-5.38,6.14,14.63,14.63,0,0,0-1.52-2.25,17,17,0,0,0,4.19-4.9ZM108,367.9a32,32,0,0,1-2.3,9.65,9.79,9.79,0,0,0,3.59,4,10.29,10.29,0,0,0-1.89,2.35,11.23,11.23,0,0,1-3.16-3.61,14.91,14.91,0,0,1-3.89,3.87,13.85,13.85,0,0,0-1.9-2,6.46,6.46,0,0,0,.68-.45c-2.48.38-4.93.71-6.92,1l-.61-2.35c.94-.08,2-.2,3.28-.33v-1.82H91.46V376h3.46v-1.24c-.93.1-1.87.18-2.73.23a8.65,8.65,0,0,0-.66-1.92A43.37,43.37,0,0,0,99,371.92l1.49,1.92a27.86,27.86,0,0,1-3.06.63V376H101v2.17H97.43v1.54l3.08-.33.05,1.21a12.08,12.08,0,0,0,2.42-3.18,32.58,32.58,0,0,1-1.34-5.21c-.18.3-.38.63-.58.91a15.45,15.45,0,0,0-1.39-1.74h-8V369h8.57a31.22,31.22,0,0,0,2-8.54l2.73.43c-.2,1.54-.48,3.06-.81,4.52h4.73v2.53Zm-4.57,0c-.08.25-.15.48-.25.73a37.32,37.32,0,0,0,1.14,5.43,34.1,34.1,0,0,0,1.11-6.17Z"/><path class="e471b696-1685-49ee-a391-58e408c57de9" d="M132.28,378a32.65,32.65,0,0,1-3.26,1.95,14,14,0,0,0,4.42,1.54,11.64,11.64,0,0,0-1.74,2.5,12.3,12.3,0,0,1-8.85-7.22h-2.58v3.94l4.24-.81a14.94,14.94,0,0,0-.25,2.48c-5.56,1.21-6.44,1.42-7,1.77v0a9.23,9.23,0,0,0-1.09-2.43,2.73,2.73,0,0,0,1.29-2.35v-2.63h-2.1v-2.53h3.69v-1.74h-3.16V370h3.16v-1.74h-3.69V369c0,4.4-.4,11-3.05,15.11a12.76,12.76,0,0,0-2.68-1.54c2.5-3.89,2.7-9.55,2.7-13.57v-7.48h19.43v6.75h-3.41V370H132v2.5h-3.64v1.74h4.73v2.53h-2.65Zm-16.88-12.3h13.37V364H115.39Zm6.44,4.29h3.77v-1.74h-3.77Zm0,4.24h3.77v-1.74h-3.77Zm3.84,2.53a8.15,8.15,0,0,0,1.39,1.69,27.48,27.48,0,0,0,2.53-1.69Z"/><path class="e471b696-1685-49ee-a391-58e408c57de9" d="M144.38,372.32c0,3.82,1.72,6.16,5.42,6.16a7.19,7.19,0,0,0,4.67-1.61h0l1.23,3.64a11.88,11.88,0,0,1-6.45,1.77c-6.3,0-9.48-4.25-9.48-10s3.27-10.2,9.91-10.2a11.18,11.18,0,0,1,5.78,1.42l-1.28,3.77h-.05a6.91,6.91,0,0,0-4.29-1.38C146.18,365.85,144.38,368.44,144.38,372.32Z"/><path class="e471b696-1685-49ee-a391-58e408c57de9" d="M169.58,377.42l-7-.12L161,382h-4.51l7.31-19.68h4.66L175.74,382h-4.58Zm-6.14-3.29,5.24,0-1.7-5.16c-.35-1.08-.63-2.07-.86-3l-.06.05-.1-.07c-.22,1-.49,2-.84,3.07Z"/><path class="e471b696-1685-49ee-a391-58e408c57de9" d="M190.32,378.24V382H177.41V362.32h4.38v16.2Z"/><path class="e471b696-1685-49ee-a391-58e408c57de9" d="M205.12,378.24V382H192.21V362.31h4.38v16.2Z"/><path class="e471b696-1685-49ee-a391-58e408c57de9" d="M217.67,365.54v5.62l7.83-.15v3.46l-7.83-.15V382h-4.38V362.31h13.47v3.49Z"/><path class="e471b696-1685-49ee-a391-58e408c57de9" d="M246.86,372.06c0,6.13-3.7,10.21-9.7,10.22s-9.48-4-9.48-10.06S231.3,362,237.29,362,246.86,366,246.86,372.06Zm-4.51,0c0-4-1.86-6.3-5.05-6.3s-5.1,2.29-5.11,6.41,1.74,6.33,5,6.33S242.33,376.18,242.35,372.07Z"/><path class="e471b696-1685-49ee-a391-58e408c57de9" d="M260.89,374.24a58.1,58.1,0,0,0,5.07,7.68V382l-4.93.14a46,46,0,0,1-4.45-7.36h-2.66V382h-4.38V362.36a47.82,47.82,0,0,1,5.57-.39c7.57,0,10.15,2.67,10.15,6.36a5.92,5.92,0,0,1-4.36,5.92Zm-7-2.55h3.14c2.41,0,3.77-1.17,3.77-3.24s-1.52-3.37-5.54-3.37c-.39,0-.85,0-1.37.05Z"/><path class="e471b696-1685-49ee-a391-58e408c57de9" d="M293.94,378.47V382H280.2V362.29h13.47v3.49l-9.09-.21v4.92l7.83-.15v3.44l-7.83-.15v5Z"/><path class="e471b696-1685-49ee-a391-58e408c57de9" d="M313.81,381.91V382h-5.18l-4.47-7.77L299.73,382h-4.89v-.05l6.41-9.85-6.13-9.41v-.05L300,362l4.23,7.75,4.17-7.48h4.73l0,.05-5.94,9.51Z"/><path class="e471b696-1685-49ee-a391-58e408c57de9" d="M332.63,362.28V382h-4.38v-8.19l-8.37-.13V382H315.5V362.28h4.38v8.08l8.37-.09v-8Z"/><path class="e471b696-1685-49ee-a391-58e408c57de9" d="M336.58,362.27H341V382h-4.38Z"/><path class="e471b696-1685-49ee-a391-58e408c57de9" d="M360.93,376.37c0,3.58-2.78,5.9-10.14,5.9a50.82,50.82,0,0,1-5.89-.39V362.34a42.9,42.9,0,0,1,5.53-.39c7.34,0,9.72,2.25,9.72,5.4a4.36,4.36,0,0,1-2.8,4.26v.1A4.51,4.51,0,0,1,360.93,376.37ZM349.29,365v5.45h2.87c2.6,0,3.76-.86,3.76-2.64s-1.27-2.87-4.76-2.88C350.68,365,350,365,349.29,365Zm7.16,11.17c0-1.91-1.25-2.74-3.86-2.74h-3.29v5.61c.63,0,1.17.06,1.66.06C355.21,379.14,356.44,378.12,356.44,376.21Z"/><path class="e471b696-1685-49ee-a391-58e408c57de9" d="M363.75,362.27h4.38v19.68h-4.38Z"/><path class="e471b696-1685-49ee-a391-58e408c57de9" d="M386.77,365.94l-6-.07v16.07h-4.38V365.82l-6-.07v-3.49h16.44Z"/><path class="e471b696-1685-49ee-a391-58e408c57de9" d="M406.5,372c0,6.13-3.7,10.21-9.7,10.22s-9.48-4-9.48-10.06S390.94,362,396.93,362,406.49,365.95,406.5,372ZM402,372c0-4-1.86-6.3-5.05-6.3s-5.1,2.29-5.11,6.41,1.74,6.33,5,6.33S402,376.13,402,372Z"/><path class="e471b696-1685-49ee-a391-58e408c57de9" d="M420.75,374.2a58.16,58.16,0,0,0,5.07,7.68v.05l-4.93.14a46,46,0,0,1-4.45-7.36h-2.66v7.21H409.4V362.32a48,48,0,0,1,5.57-.39c7.57,0,10.15,2.67,10.15,6.36a5.92,5.92,0,0,1-4.36,5.92Zm-7-2.55h3.14c2.41,0,3.77-1.17,3.77-3.24s-1.52-3.37-5.54-3.37c-.39,0-.85,0-1.37.05Z"/><path class="e471b696-1685-49ee-a391-58e408c57de9" d="M440,367a8.59,8.59,0,0,0-4.8-1.56c-2.21,0-3.33.81-3.29,2.08.12,3.57,9.76,2.1,9.76,8.8,0,3.7-3,5.85-7.81,5.86a13.53,13.53,0,0,1-6.83-1.71l1.07-3.71h.05a8.6,8.6,0,0,0,5.5,1.92c2.28,0,3.52-.75,3.51-2.18-.05-3.83-9.67-2.15-9.67-8.92,0-3.56,2.65-5.61,7.62-5.62a12.52,12.52,0,0,1,6,1.44L440,367Z"/><path class="e471b696-1685-49ee-a391-58e408c57de9" d="M58.58,423.38v4.45H35.92l-.1-3.68,11.26-8.47c3.52-2.61,4.46-4.1,4.46-5.91,0-2.54-1.9-4.34-5.78-4.34a14.38,14.38,0,0,0-8.44,3h-.1l-1.56-4.51A20,20,0,0,1,46,401c6.82,0,11.12,3.21,11.12,8.42,0,2.77-1.31,5.91-6.24,9.06l-8.1,5.38Z"/><path class="e471b696-1685-49ee-a391-58e408c57de9" d="M89.77,414.58c0,7.7-5.17,13.74-13.69,13.74S62.6,422.4,62.6,414.78,67.75,401,76.25,401,89.77,406.9,89.77,414.58Zm-5.28-.07c0-4.72-2.75-8.45-8.2-8.45-5.66,0-8.38,4-8.41,8.62s2.59,8.55,8.17,8.55S84.49,419.35,84.49,414.51Z"/><path class="e471b696-1685-49ee-a391-58e408c57de9" d="M114.44,423.57v4.26H93.93v-4.26h8V405.71l-8,.19v-4.39h13.42v22Z"/><path class="e471b696-1685-49ee-a391-58e408c57de9" d="M138.53,405a151,151,0,0,0-13.85,30.08h-5.85l0-.1a163.83,163.83,0,0,1,14.46-29.35l-18.55.7v-4.79h23.64Z"/><path class="e471b696-1685-49ee-a391-58e408c57de9" d="M138.77,424.83a3.63,3.63,0,0,1,3.77-3.64,3.34,3.34,0,0,1,3.6,3.39,3.65,3.65,0,0,1-3.77,3.66A3.35,3.35,0,0,1,138.77,424.83Z"/><path class="e471b696-1685-49ee-a391-58e408c57de9" d="M177.73,414.58c0,7.7-5.17,13.74-13.69,13.74s-13.48-5.91-13.48-13.53S155.7,401,164.2,401,177.73,406.9,177.73,414.58Zm-5.28-.07c0-4.72-2.75-8.45-8.2-8.45-5.66,0-8.38,4-8.41,8.62s2.59,8.55,8.17,8.55S172.44,419.35,172.44,414.51Z"/><path class="e471b696-1685-49ee-a391-58e408c57de9" d="M204,405a151,151,0,0,0-13.85,30.08h-5.85l0-.1a163.83,163.83,0,0,1,14.46-29.35l-18.55.7v-4.79h23.64Z"/><path class="e471b696-1685-49ee-a391-58e408c57de9" d="M204.25,424.83a3.63,3.63,0,0,1,3.77-3.64,3.34,3.34,0,0,1,3.6,3.39,3.65,3.65,0,0,1-3.77,3.66A3.35,3.35,0,0,1,204.25,424.83Z"/><path class="e471b696-1685-49ee-a391-58e408c57de9" d="M243.21,414.58c0,7.7-5.17,13.74-13.69,13.74S216,422.4,216,414.78,221.18,401,229.69,401,243.21,406.9,243.21,414.58Zm-5.28-.07c0-4.72-2.75-8.45-8.2-8.45-5.66,0-8.38,4-8.41,8.62s2.59,8.55,8.17,8.55S237.93,419.35,237.93,414.51Z"/><path class="e471b696-1685-49ee-a391-58e408c57de9" d="M266.87,424.63c0,5.84-5.47,12.5-19.33,12.5L246,432.77l0-.1c11.37,0,15.22-3.91,15.22-7.87,0-3.37-2.83-5.53-9-5.53h-2v-4.19h1.82c6.22,0,8.89-2.35,8.89-5.41,0-2.57-1.87-4.28-5.94-4.28-2.26,0-4.13.53-7.29,2.56h-.1l-1.48-4.31a16.3,16.3,0,0,1,9.33-2.61c7.42,0,11.06,3.63,11.06,7.88,0,3.71-2.75,6.47-6,7.75C264.53,417.88,266.87,420.83,266.87,424.63Z"/><path class="e471b696-1685-49ee-a391-58e408c57de9" d="M306,412.43l-.45,4.51-29.7-.33v-4.18Z"/><path class="e471b696-1685-49ee-a391-58e408c57de9" d="M340.65,414.58c0,7.7-5.17,13.74-13.69,13.74s-13.48-5.91-13.48-13.53S318.63,401,327.13,401,340.65,406.9,340.65,414.58Zm-5.28-.07c0-4.72-2.75-8.45-8.2-8.45-5.66,0-8.38,4-8.41,8.62s2.59,8.55,8.17,8.55S335.37,419.35,335.37,414.51Z"/><path class="e471b696-1685-49ee-a391-58e408c57de9" d="M363.43,410.33c3.14,1.64,5.66,3.93,5.66,8.23,0,5.87-4.68,9.78-12.21,9.78S345,424.53,345,418.5c0-3.75,1.73-6.79,5.73-9.38a8.63,8.63,0,0,1-4.57-7.84c0-5.78,4.16-9.59,11.09-9.59s11.11,3.78,11.11,9.75c0,3.54-1.52,6.13-5,8.89Zm.49,8.12c0-4.35-4.77-5.62-9.36-7.49-3.09,2.06-4.42,4.09-4.42,6.87,0,3.88,2.55,6.22,6.82,6.22S363.92,421.71,363.92,418.45Zm-12.63-17.22c0,4.24,4.19,5.75,8.51,7.49a8.73,8.73,0,0,0,3.56-7c0-3.66-2.1-5.73-5.91-5.73S351.29,398.07,351.29,401.23Z"/><path class="e471b696-1685-49ee-a391-58e408c57de9" d="M373.67,424.83a3.63,3.63,0,0,1,3.77-3.64,3.34,3.34,0,0,1,3.6,3.39,3.65,3.65,0,0,1-3.77,3.66A3.35,3.35,0,0,1,373.67,424.83Z"/><path class="e471b696-1685-49ee-a391-58e408c57de9" d="M408.27,423.38v4.45H385.6l-.1-3.68,11.26-8.47c3.52-2.61,4.46-4.1,4.46-5.91,0-2.54-1.9-4.34-5.78-4.34a14.38,14.38,0,0,0-8.44,3h-.1l-1.56-4.51A20,20,0,0,1,395.67,401c6.82,0,11.12,3.21,11.12,8.42,0,2.77-1.31,5.91-6.24,9.06l-8.1,5.38Z"/><path class="e471b696-1685-49ee-a391-58e408c57de9" d="M439.46,414.58c0,7.7-5.17,13.74-13.69,13.74s-13.48-5.91-13.48-13.53S417.43,401,425.94,401,439.46,406.9,439.46,414.58Zm-5.28-.07c0-4.72-2.75-8.45-8.2-8.45-5.66,0-8.38,4-8.41,8.62s2.59,8.55,8.17,8.55S434.18,419.35,434.18,414.51Z"/><path class="e471b696-1685-49ee-a391-58e408c57de9" d="M477.74,201v3.08H462l-.07-2.55,7.81-5.87c2.44-1.81,3.09-2.84,3.09-4.1,0-1.76-1.32-3-4-3a10,10,0,0,0-5.85,2.1h-.07l-1.08-3.13a13.89,13.89,0,0,1,7.17-2c4.73,0,7.71,2.22,7.71,5.84,0,1.92-.91,4.1-4.33,6.28l-5.61,3.73Z"/><path class="e471b696-1685-49ee-a391-58e408c57de9" d="M499.37,194.91c0,5.34-3.59,9.52-9.49,9.52s-9.35-4.1-9.35-9.38,3.57-9.56,9.46-9.56S499.37,189.58,499.37,194.91Zm-3.66,0c0-3.27-1.91-5.86-5.69-5.86s-5.81,2.79-5.83,6,1.8,5.93,5.67,5.93S495.7,198.22,495.7,194.86Z"/><path class="e471b696-1685-49ee-a391-58e408c57de9" d="M516.47,201.14v3H502.25v-3h5.56V188.76l-5.57.14v-3h9.3v15.29Z"/><path class="e471b696-1685-49ee-a391-58e408c57de9" d="M533.18,188.24a104.66,104.66,0,0,0-9.6,20.86h-4.06l0-.07a113.57,113.57,0,0,1,10-20.35l-12.86.48v-3.32H533Z"/><path class="e471b696-1685-49ee-a391-58e408c57de9" d="M533.34,202a2.52,2.52,0,0,1,2.61-2.53,2.32,2.32,0,0,1,2.5,2.35,2.53,2.53,0,0,1-2.61,2.54A2.33,2.33,0,0,1,533.34,202Z"/><path class="e471b696-1685-49ee-a391-58e408c57de9" d="M555.9,201.14v3H541.67v-3h5.56V188.76l-5.57.14v-3H551v15.29Z"/><path class="e471b696-1685-49ee-a391-58e408c57de9" d="M576.54,194.91c0,5.34-3.59,9.52-9.49,9.52s-9.35-4.1-9.35-9.38,3.57-9.56,9.46-9.56S576.54,189.58,576.54,194.91Zm-3.66,0c0-3.27-1.91-5.86-5.69-5.86s-5.81,2.79-5.83,6,1.8,5.93,5.67,5.93S572.88,198.22,572.88,194.86Z"/><path class="e471b696-1685-49ee-a391-58e408c57de9" d="M579.58,202a2.52,2.52,0,0,1,2.61-2.53,2.32,2.32,0,0,1,2.5,2.35,2.53,2.53,0,0,1-2.61,2.54A2.33,2.33,0,0,1,579.58,202Z"/><path class="e471b696-1685-49ee-a391-58e408c57de9" d="M603.57,201v3.08H587.85l-.07-2.55,7.81-5.87c2.44-1.81,3.09-2.84,3.09-4.1,0-1.76-1.32-3-4-3a10,10,0,0,0-5.85,2.1h-.07l-1.08-3.13a13.89,13.89,0,0,1,7.17-2c4.73,0,7.71,2.22,7.71,5.84,0,1.92-.91,4.1-4.33,6.28l-5.61,3.73Z"/><path class="e471b696-1685-49ee-a391-58e408c57de9" d="M625.2,194.91c0,5.34-3.59,9.52-9.49,9.52s-9.35-4.1-9.35-9.38,3.57-9.56,9.46-9.56S625.2,189.58,625.2,194.91Zm-3.66,0c0-3.27-1.91-5.86-5.69-5.86s-5.81,2.79-5.83,6,1.8,5.93,5.67,5.93S621.54,198.22,621.54,194.86Z"/><path class="e471b696-1685-49ee-a391-58e408c57de9" d="M652.29,193.41l-.31,3.13-20.59-.23v-2.9Z"/><path class="e471b696-1685-49ee-a391-58e408c57de9" d="M671.86,201.14v3H657.63v-3h5.56V188.76l-5.57.14v-3h9.3v15.29Z"/><path class="e471b696-1685-49ee-a391-58e408c57de9" d="M692.5,194.91c0,5.34-3.59,9.52-9.49,9.52s-9.35-4.1-9.35-9.38,3.57-9.56,9.46-9.56S692.5,189.58,692.5,194.91Zm-3.66,0c0-3.27-1.91-5.86-5.69-5.86s-5.81,2.79-5.83,6,1.8,5.93,5.67,5.93S688.84,198.22,688.84,194.86Z"/><path class="e471b696-1685-49ee-a391-58e408c57de9" d="M695.54,202a2.52,2.52,0,0,1,2.61-2.53,2.32,2.32,0,0,1,2.5,2.35,2.53,2.53,0,0,1-2.61,2.54A2.33,2.33,0,0,1,695.54,202Z"/><path class="e471b696-1685-49ee-a391-58e408c57de9" d="M719.53,201v3.08H703.81l-.07-2.55,7.81-5.87c2.44-1.81,3.09-2.84,3.09-4.1,0-1.76-1.32-3-4-3a10,10,0,0,0-5.85,2.1h-.07l-1.08-3.13a13.89,13.89,0,0,1,7.17-2c4.73,0,7.71,2.22,7.71,5.84,0,1.92-.91,4.1-4.33,6.28l-5.61,3.73Z"/><path class="e471b696-1685-49ee-a391-58e408c57de9" d="M738.13,201v3.08H722.42l-.07-2.55,7.8-5.87c2.44-1.81,3.09-2.84,3.09-4.1,0-1.76-1.32-3-4-3a10,10,0,0,0-5.85,2.1h-.07l-1.08-3.13a13.89,13.89,0,0,1,7.17-2c4.73,0,7.71,2.22,7.71,5.84,0,1.92-.91,4.1-4.33,6.28l-5.62,3.73Z"/><polygon class="e471b696-1685-49ee-a391-58e408c57de9" points="89.35 106.26 110.84 106.26 134.89 106.26 156.39 106.26 123.05 42.5 89.35 106.26"/><polygon class="e471b696-1685-49ee-a391-58e408c57de9" points="67.69 89.41 92.29 42.5 34.07 42.5 34.07 57.8 59.95 57.8 34.12 106.26 89.33 106.26 89.68 89.41 67.69 89.41"/><path class="e471b696-1685-49ee-a391-58e408c57de9" d="M392.79,61.74c.18-14-11.07-17.91-23.12-17.91H346.9v62.47h18.72V77.94l14,28.34h15.92L381.09,77.13C386.49,75.51,392.7,68,392.79,61.74ZM369.39,66c-.81,0-1.71-.09-2.52-.09h-1.26V58.95h4c1.35,0,5.94-.18,5.94,3.06S371.46,65.88,369.39,66Z"/><path class="e471b696-1685-49ee-a391-58e408c57de9" d="M201.81,64.63h-12c-1.89-.64-2.34-3.81.36-3.81h31.58V43.75H190.2c-12.69,0-18.8,8.26-18.8,18.34,0,10.26,6.48,20.52,18.8,20.52h11.61c2.34,0,3.51,1,3.51,2,0,1.36-1.26,2.72-3.69,2.81H171.76v18.89H201.9C216.47,106,224,95.23,224,84.61S220.7,64.63,201.81,64.63Z"/><polygon class="e471b696-1685-49ee-a391-58e408c57de9" points="259.62 65.82 246.04 65.82 246.04 43.33 225.61 43.33 225.61 106.31 246.04 106.31 246.04 83.82 259.62 83.82 259.62 106.31 280.05 106.31 280.05 43.33 259.62 43.33 259.62 65.82"/><polygon class="e471b696-1685-49ee-a391-58e408c57de9" points="280.37 106.31 301.6 106.31 325.36 106.31 346.59 106.31 313.66 43.33 280.37 106.31"/><polygon class="e471b696-1685-49ee-a391-58e408c57de9" points="415.84 83.87 438.51 83.87 438.51 65.92 415.84 65.92 415.84 61.52 438.51 61.52 438.51 43.56 397.75 43.48 397.75 106.31 438.69 106.31 438.69 88.54 415.84 88.54 415.84 83.87"/><path class="e471b696-1685-49ee-a391-58e408c57de9" d="M132.34,120.75c-.55,4.38-2,11-5.06,20.4h4.79a105,105,0,0,0,5.34-20l24.37.27a199.49,199.49,0,0,1-7.53,19.72h11v21.63h-9.86V172h10.12v19.85H155.35v8.45h10.12v19.58H155.35v8.87h9.76v23.27H103.33V223.16L92.78,245.07c-7.26-5.89-9-8.49-12.32-13.14v20.13h-23V234.53c-4.11,6.3-11.62,11.87-21.62,17.68V223.33A129.4,129.4,0,0,0,50.89,210H36.24V188.11H46.92l-13-17A44.27,44.27,0,0,0,44,149h-7.8V127.05H57.46v-6.3H81.69v6.3h18.48v20.4c2.46-5.75,6.57-16.15,7.8-26.7ZM61.43,183.18a87.66,87.66,0,0,1-5.75-9.72c-3.83,9-5.61,11.23-8.63,14.65H57.46v-4.93Zm4.11-5.75-4,5.75H73.75ZM62.66,149a27.79,27.79,0,0,1-.82,4.24,54,54,0,0,0,7.26,10.41A60.77,60.77,0,0,0,72.79,149ZM94,187.43c-3-3.42-6.57-7.39-9.31-13.14a75.41,75.41,0,0,1-4.38,8.9h.14v4.93h19.72V210H85.53c8.35,8.22,12.87,10.54,17.8,12.87v-35.6l-.82.82-4.38-8.76ZM90.46,149c-.14,1-.27,2.46-.41,3.42a51.8,51.8,0,0,0,4.38,6.71A74.33,74.33,0,0,0,99.49,149Zm35.87,13.83V172h7.53v-9.24Zm0,29.09v8.45h7.53v-8.45Zm0,28v8.87h7.53v-8.87Z"/><path class="e471b696-1685-49ee-a391-58e408c57de9" d="M282.84,196.74H303V170.18h-7.8V124.59H260.39v15.06h12.19v3.29H260.39v10.54h12.19v3.29H260.39v10.13h12.19v3.42H250.26l7.8-9.31c-2.6-1.64-3-1.92-6.3-4,3.29-2.74,4.66-4,6.85-6l-7.53-4.93,8.21-8.21a71.77,71.77,0,0,0-6.71-4.79,75.51,75.51,0,0,0,6.3-5.48l-11.09-7.67a39.37,39.37,0,0,1-8.22,5.75,154.26,154.26,0,0,0-14.24-6.16l-9.17,9.58c2.6,1.09,4.24,1.78,8.08,3.56-4.11,1.37-6.71,2.05-9,2.6l-6.71-15.33c-10.13,2.74-17.25,3.7-29.57,4v46.28h-6.36v26.56h18.69v8.63h46.82c-2.74,1.37-13.69,5.2-13.69,5.2H171.94v20.5h52.44c0,3.29,0,3.59-2.87,3.59H206.76l.1,17.39h31.9c10.82,0,10.82-8.9,10.82-11.91v-9.07H302v-20.5H265.32a90.16,90.16,0,0,0,17.52-5.2Zm-43.4-55.59c3.42,2.33,4.79,3.29,6.44,4.52a50,50,0,0,1-6.57,4.24c-5.61-2.74-7.67-3.56-9.31-4.38C234.38,143.75,237.25,142.25,239.44,141.15ZM238.62,165c1.23.82,2.88,1.78,7.8,5.34H226.3A127.09,127.09,0,0,0,238.62,165Zm-36.42-11.5h12.32V142.93H202.2v-3.29a95.11,95.11,0,0,0,12.73-1.78l5.34,10-4.11,4.93c3.29,1.51,5.2,2.46,7.53,3.56-2.33.68-4.66,1.51-9.17,2.46v-2.05H202.2Zm0,13.42h12.32V162l4.38,8.35H202.2ZM274.9,190H199.46v-4.38H274.9Z"/><path class="e471b696-1685-49ee-a391-58e408c57de9" d="M346.74,228a89.48,89.48,0,0,0,31.35-11.78,176.12,176.12,0,0,1-13.14-26.29L363,191.13l-12.73-20.4a93.9,93.9,0,0,0,20.54-17.52h-15.2v11.91H344.82v8.49c4.24,7,8.21,12,17,21.08l-10,22.86a111.24,111.24,0,0,1-7-9v43.67H322.23V210c-2.74,7.94-9,19.21-13.09,25.37V196.62c10.82-13.28,10.5-27.81,11.19-31.51h-11.5V142h13.42V120.65h22.59V142h10.41v-11.5h28.61v-9.82h25.47v9.82h29.16V153.2H422.59a63.65,63.65,0,0,0,16.27,14.34v29c-1.78-1.1-11.07-5.5-12.3-6.19-1.37,5.34-6.71,18.07-13,25.74,3.42,2.05,8.17,5.89,25.15,10.68l.16,25.49c-19-6.3-38.86-13.44-43.79-17.27-8.35,6.57-28.87,15.22-43.11,17.27Zm73.11-42.58a112.12,112.12,0,0,1-20.13-22.32l17.8-9.86H399.21c-5.75,9.72-23.17,28.89-28.24,32.45l15.47-6.44a118.72,118.72,0,0,0,10,19.44c2.88-4.11,6.71-14,7.39-18.76Z"/><path class="e471b696-1685-49ee-a391-58e408c57de9" d="M476.32,57.44v1.84H460.94V57.44h4.79V55h-3.65V48.91h3.65V46.84h-4.5V45h14.82v1.84h-4.67v2.06h3.79V55h-3.79v2.4Zm-8.65-4.11v4.11h1.77V53.33h3.69V50.61h-3.69V46.84h-1.75v3.77h-3.64v2.72Z"/><path class="e471b696-1685-49ee-a391-58e408c57de9" d="M489.73,52a20.35,20.35,0,0,0-2.79-1.73l1.12-1.48a22.51,22.51,0,0,1,2.87,1.58Zm1.33,2.38c-.56,1.82-1.31,3.77-2,5.44l-1.84-1a49.3,49.3,0,0,0,2.21-5.46Zm-.68-6.82a19.31,19.31,0,0,0-2.79-1.82l1.19-1.48a20,20,0,0,1,2.82,1.67Zm11.86-3V60H500.3V53.25l-.82.39a14.56,14.56,0,0,0-.87-2.35v8.18h-1.89V53.19l-1,.42A21.18,21.18,0,0,0,495,51c-.05,3.13-.37,6.41-2.18,9a7.23,7.23,0,0,0-1.73-1.17,10.93,10.93,0,0,0,1.87-5.42l-1.1.41a17.8,17.8,0,0,0-1-4l1.43-.51a17.12,17.12,0,0,1,.83,2.38c0-.49,0-1,0-1.44V44.52H495v5.13l.88-.34c.32.75.63,1.6.88,2.4V44.85h1.89v4.47l.58-.25c.37.7.77,1.51,1.1,2.28V44.51Z"/><path class="e471b696-1685-49ee-a391-58e408c57de9" d="M528.41,53.14a10.34,10.34,0,0,1-2.09,3.93,9.51,9.51,0,0,0,2.91,1.19A6.67,6.67,0,0,0,528,59.82a9.34,9.34,0,0,1-3.06-1.5A11.26,11.26,0,0,1,522,60a7.42,7.42,0,0,0-1-1.5V60h-1.89V58.51c-2,.22-3.94.41-5.47.58l-.15-1.73,1.48-.12V52.09h-1.33v-1.6h15.09v1.6H521v6.26a8.48,8.48,0,0,0,2.57-1.29,10.37,10.37,0,0,1-1.63-2.6l.61-.17h-1V52.74h5.3l.32-.07ZM517.56,50h-1.94V44.64h11.17V50h-2V46h-7.19Zm-.8,2.13v.7h2.35v-.7Zm0,2.77h2.35v-.68h-2.35Zm0,2.21c.75-.07,1.56-.14,2.35-.22v-.59h-2.35Zm7.36-9.25h-6V46.65h6Zm-6,1.82V48.47h6v1.17Zm5.59,4.64a6.6,6.6,0,0,0,1.16,1.6,6.4,6.4,0,0,0,1.1-1.6Z"/><path class="e471b696-1685-49ee-a391-58e408c57de9" d="M549,50.75A11.34,11.34,0,0,0,555.41,58a8.15,8.15,0,0,0-1.5,1.9,12.68,12.68,0,0,1-6.37-7.21,11.7,11.7,0,0,1-6.36,7.22,6,6,0,0,0-1.51-1.72,10.19,10.19,0,0,0,6.17-7.48H540V48.66h6.19c.17-1.6.15-3.15.17-4.54h2.21c0,1.39,0,3-.2,4.54H555v2.09Z"/><path class="e471b696-1685-49ee-a391-58e408c57de9" d="M569.39,48.88v-.66a17.88,17.88,0,0,1-1.82,1.22h7.17v5.34h-5.9c0,.17-.05.36-.08.53h6.39v4.54h-1.77v-.46h-3.15v.53h-1.68V56.39a10.87,10.87,0,0,1-1.09,3,9.28,9.28,0,0,0-1.77-.78c1.34-2.16,1.48-5.2,1.48-7.19V49.68l-.39.2a10.81,10.81,0,0,0-1.05-1.94,11.7,11.7,0,0,0,5-3.86l1.85.73c-.1.15-.2.29-.31.42,1.26.73,2.67,1.56,3.45,2.13l-1,1.7c-.46-.37-1.12-.82-1.85-1.29v1.1Zm3.52,4.5v-.7H569c0,.22,0,.46,0,.7ZM569,50.83v.66h3.86v-.66Zm3.72-3.15-1.61-1c-.36.34-.73.7-1.1,1Zm-2.53,9v1.21h3.15V56.68ZM578,55.34h-1.9V45.85H578Zm3.11-11.19v13.4c0,1.09-.2,1.63-.83,2a6.44,6.44,0,0,1-2.92.41,8.3,8.3,0,0,0-.6-2l2,0c.27,0,.39-.09.39-.37V44.15Z"/><path class="e471b696-1685-49ee-a391-58e408c57de9" d="M595.1,55.2a16.24,16.24,0,0,1-1.72,3.48,13.13,13.13,0,0,0-1.33-.92,12.14,12.14,0,0,0,1.5-3Zm2.38-1v5.64h-2V54.21h-3.16v-1.7h3.16V51.21h-3.26V49.54h1.65a10.25,10.25,0,0,0-.49-1.77l1.39-.34h-2.29V45.78h2.91c-.15-.46-.34-.93-.51-1.34l2-.49c.25.56.56,1.26.76,1.84h2.43v1.65H598l1.38.27c-.25.65-.51,1.31-.77,1.84h1.77v1.67h-2.91v1.31h2.63v1.7ZM595,47.43a8.45,8.45,0,0,1,.56,1.77l-1.22.34h2.45a19.34,19.34,0,0,0,.73-2.11ZM608,51.56h-1.58v8.35h-2V51.56h-1.58v.2c0,2.5-.22,6-1.67,8.18a7.54,7.54,0,0,0-1.56-1.21,6.64,6.64,0,0,0,.77-1.65l-1.21.75a20.55,20.55,0,0,0-1.33-2.55l1.33-.71a16.83,16.83,0,0,1,1.27,2.23,18.37,18.37,0,0,0,.53-5V45.71a24.12,24.12,0,0,0,5.15-1.44l1.55,1.48A26.38,26.38,0,0,1,602.83,47v2.67H608Z"/><path class="e471b696-1685-49ee-a391-58e408c57de9" d="M633.28,49.06a19.57,19.57,0,0,1-1.84,6.32,7.86,7.86,0,0,0,3,2.82A7.91,7.91,0,0,0,633.06,60a9.1,9.1,0,0,1-2.86-2.72A11.31,11.31,0,0,1,626.6,60a8.48,8.48,0,0,0-1.16-1.84,8.53,8.53,0,0,0,3.65-2.91,21.37,21.37,0,0,1-1.16-3.43c-.26.41-.51.82-.78,1.17A12,12,0,0,0,626,52a17,17,0,0,1-2.35,2.19v.42l3-.25v1.72c-1,.1-2,.2-3,.29V58c0,.88-.15,1.34-.75,1.61a6.26,6.26,0,0,1-2.46.29,5.85,5.85,0,0,0-.58-1.72c.66,0,1.39,0,1.62,0s.29-.07.29-.24V56.54l-3.23.32-.2-1.8c1-.08,2.14-.17,3.43-.29v-.94a12.47,12.47,0,0,0,1.41-1.19h-1.77a15.82,15.82,0,0,1-1.9,1.22,12.34,12.34,0,0,0-1.34-1.53,14.53,14.53,0,0,0,3.23-2.12h-3V48.49H621V47.35h-1.94v-1.7H621V44.1h1.87v1.55h1.51v1.09a14.94,14.94,0,0,0,1.1-2.21l1.85.54a18.3,18.3,0,0,1-1.87,3.42h1.21v1.34a20.76,20.76,0,0,0,1.65-5.73l2.06.32c-.17.94-.37,1.89-.61,2.77h4.52v1.87Zm-10.42-.58h.27a11,11,0,0,0,.85-1.14h-1.12Zm2.79,3a8.7,8.7,0,0,0,.82-1.24h-2.38a9.6,9.6,0,0,1-.8.87h1.41l.36-.1Zm3.6-2.4a21.09,21.09,0,0,0,1,4,19.17,19.17,0,0,0,.9-4Z"/><path class="e471b696-1685-49ee-a391-58e408c57de9" d="M660.15,47.31h-3.54a20.93,20.93,0,0,1,3,2.63l-1.55,1h.71v6.9c0,1.09-.29,1.53-1.1,1.79a15.4,15.4,0,0,1-3.69.22,6.32,6.32,0,0,0-.48-1.72c.93.07,2.33.07,2.62.05s.44-.1.44-.37V56.56c-2.5.54-5,1.05-7,1.46L649,56.24c1.41-.19,3.52-.49,5.73-.83A26.58,26.58,0,0,0,649.37,54l.6-1.21a25,25,0,0,1,5.8,1.39l-.53,1.1,1.33-.2V52.58H649v1.05c0,2-.31,4.76-1.85,6.53A7.25,7.25,0,0,0,645.45,59c1.39-1.56,1.53-3.76,1.53-5.37V50.92H657.7c-.22-.27-.51-.58-.83-.9-8.3.32-9.3.34-10,.59-.1-.39-.41-1.33-.61-1.85a4.06,4.06,0,0,0,1.53-.83,9.14,9.14,0,0,0,.77-.61h-3.43V45.54h5.34a16.48,16.48,0,0,0,1.44-1.65l2.06.78q-.38.43-.82.87h7ZM655.2,48.5l-1-.78.68-.41h-3.62c-.58.49-1.14.94-1.7,1.34Z"/><path class="e471b696-1685-49ee-a391-58e408c57de9" d="M674.81,50.19V60h-2V50.19H671V48.35h1.85V44.12h2v4.23h1.65v1.84Zm12,6.1h-2.21v1.79c0,.88-.15,1.34-.8,1.61a7.61,7.61,0,0,1-2.67.27,7.08,7.08,0,0,0-.54-1.7c.78,0,1.65,0,1.89,0s.32-.07.32-.25V56.29h-3.31c.63.43,1.26.9,1.67,1.21l-1.26,1.36c-.56-.53-1.7-1.38-2.52-2l.59-.6h-2.12V54.67h7v-.61h.61a9.72,9.72,0,0,0-.51-1.12l1,0c.17,0,.22-.05.22-.2V52.5h-1.84v1.26H680.5V52.5h-1.85V54H677v-6.1h3.55v-.49h-4.06V45.87h4.06V44.12h1.85v1.75h1.84l-1.29-.7.92-1.09c.77.34,1.84.88,2.41,1.19l-.46.59h.83v1.56h-4.25v.49H686v4.86c0,.71-.14,1-.61,1.16a2.91,2.91,0,0,1-.71.17v.56h2.19Zm-8.19-7.07v.56h1.85v-.56Zm1.85,2.19v-.53h-1.85v.53Zm1.85-2.19v.56h1.84v-.56Zm1.84,2.19v-.53h-1.84v.53Z"/><path class="e471b696-1685-49ee-a391-58e408c57de9" d="M710.72,58.31c.53,0,.63-.17.71-1.27a5,5,0,0,0,1.67.61c-.19,1.79-.71,2.23-2.18,2.23h-2.48c-2,0-2.53-.48-2.53-2v-.73h-1.85c-.51,1.67-1.84,2.5-6,2.92a4.84,4.84,0,0,0-.88-1.58c3.28-.19,4.35-.53,4.81-1.34h-2.16V51.44h10.73v5.69h-2.7v.7c0,.44.14.48.83.48ZM705.13,51h-7.07V44.58h7v1.16h-2.43v.59h2.11v.32a6,6,0,0,0,1.9-2.53l1.73.25c-.08.2-.17.41-.25.59h4.76v1.26h-5.47c-.1.15-.2.31-.32.46h5v1.12h-5.24V47a7.43,7.43,0,0,1-1,.94,5.31,5.31,0,0,0-1.1-1v2.24h-2.11v.68h2.53Zm-5.37-5.24v.59H701v-.59ZM703,47.38h-3.25v.7H703Zm-3.25,2.45H701v-.68h-1.26Zm2,3.2h6.83v-.54h-6.83Zm0,1.53h6.83V54h-6.83Zm0,1.55h6.83v-.56h-6.83Zm4.06-7.85h6.78V51h-6.78Zm1.33,1.8h.66v-.88h-.66Zm1.67,0h.68v-.88h-.68Zm1.68,0h.71v-.88h-.71Z"/><path class="e471b696-1685-49ee-a391-58e408c57de9" d="M732.94,44.59l-.25.32A16.34,16.34,0,0,0,739.74,48a7,7,0,0,0-1.27,1.55c-.34-.08-.7-.2-1.05-.31V53.6H725.6V49.32c-.36.12-.71.24-1.05.32a10.87,10.87,0,0,0-1.09-1.56c3.13-.73,6.15-2.14,7.7-4.11ZM736.8,49a18.81,18.81,0,0,1-2.31-1v.44h-6v-.34a20.56,20.56,0,0,1-2.06.94Zm-10.25,5.17h10v5.75h-2.07V59.5h-5.93V60h-2Zm1.92-1.79a6.71,6.71,0,0,0-.58-1.77l1.31-.37h-1.92v2.14Zm.07,3.11v.68h5.93v-.68Zm5.93,2.69v-.68h-5.93v.68Zm-3.86-7.94h-1.33A7.71,7.71,0,0,1,730,52l-1.09.34h1.73Zm2.45-3.14a16.59,16.59,0,0,1-1.43-1.1c-.44.37-.94.75-1.44,1.1Zm-.82,3.14v2.14h1.58l-1-.29a13.31,13.31,0,0,0,.66-1.85Zm3.37,0h-1.77l1.33.32c-.34.68-.66,1.34-.94,1.82h1.38Z"/><path class="e471b696-1685-49ee-a391-58e408c57de9" d="M468.16,76.05V77.5H460.8l-.06-1.15,5.37-7.51-5.18.1V67.49h7l.08,1.23-5.29,7.44Z"/><path class="e471b696-1685-49ee-a391-58e408c57de9" d="M476.57,77.43v0l-1.36.18a2,2,0,0,1-.36-1.09h0a3,3,0,0,1-2.42,1.09c-1.34,0-2.51-.66-2.51-2.1s1.37-2.66,4.55-2.66h.4c0-1.38-.73-1.86-2-1.86a3.68,3.68,0,0,0-2.23.72h0l-.43-1.22a5.12,5.12,0,0,1,2.89-.77c2.23,0,3.24.88,3.24,3V75A7.21,7.21,0,0,0,476.57,77.43Zm-1.73-3.15v-.35h-.44c-2.26,0-3,.68-3,1.47s.58,1.05,1.34,1.05A2,2,0,0,0,474.84,74.28Z"/><path class="e471b696-1685-49ee-a391-58e408c57de9" d="M483.74,71.72h0a3.42,3.42,0,0,0-2.13-.78c-.91,0-1.4.39-1.4,1,0,1.61,4.21.67,4.21,3.46,0,1.6-1.39,2.27-3.1,2.27a5.68,5.68,0,0,1-3-.77l.43-1.22h0a3.59,3.59,0,0,0,2.38.81c1,0,1.6-.33,1.6-1,0-1.7-4.18-.78-4.18-3.49,0-1.37,1.07-2.22,3-2.22a4.69,4.69,0,0,1,2.62.74Z"/><path class="e471b696-1685-49ee-a391-58e408c57de9" d="M493.34,72.61V77.5h-1.57V73c0-1.27-.48-1.91-1.5-1.91s-2.16.68-2.16,2.52V77.5h-1.57V67l1.57-.24v4.17h0a3.21,3.21,0,0,1,2.58-1.18C492.36,69.75,493.34,70.74,493.34,72.61Z"/><path class="e471b696-1685-49ee-a391-58e408c57de9" d="M502.09,77.43v0l-1.36.18a2,2,0,0,1-.36-1.09h0a3,3,0,0,1-2.42,1.09c-1.34,0-2.51-.66-2.51-2.1s1.37-2.66,4.55-2.66h.4c0-1.38-.73-1.86-2-1.86a3.68,3.68,0,0,0-2.23.72h0l-.43-1.22a5.12,5.12,0,0,1,2.89-.77c2.23,0,3.24.88,3.24,3V75A7.21,7.21,0,0,0,502.09,77.43Zm-1.73-3.15v-.35h-.44c-2.26,0-3,.68-3,1.47s.58,1.05,1.34,1.05A2,2,0,0,0,500.36,74.28Z"/><path class="e471b696-1685-49ee-a391-58e408c57de9" d="M508.84,71.21c-1.88,0-2.84.73-2.84,2.6V77.5h-1.57V71.33L504.31,70l1.36-.21.26,1.26h0a3.17,3.17,0,0,1,2.77-1.32Z"/><path class="e471b696-1685-49ee-a391-58e408c57de9" d="M516.6,74.09h-5a2.1,2.1,0,0,0,2.32,2.29,3.28,3.28,0,0,0,2.28-.74h0l.43,1.23a5.82,5.82,0,0,1-2.92.78,3.47,3.47,0,0,1-3.7-3.81c0-2.4,1.48-4.08,3.76-4.08,2,0,3,1.29,3,3.29,0,.27,0,.58,0,.91Zm-1.21-1.49a1.57,1.57,0,0,0-1.68-1.67c-1.09,0-1.88.74-2.06,2.17l3.73-.11A2.64,2.64,0,0,0,515.39,72.59Z"/><path class="e471b696-1685-49ee-a391-58e408c57de9" d="M529.31,76.09v1.4h-6.63v-10h6.49v1.4l-4.87-.11v3l4.22-.08v1.41l-4.22-.08v3.12Z"/><path class="e471b696-1685-49ee-a391-58e408c57de9" d="M538.61,77.5H536.8l-2.06-3-2.09,3h-1.73v0l2.85-3.83-2.66-3.47v0l1.71-.27,2,2.84,1.91-2.82h1.72v0l-2.68,3.72Z"/><path class="e471b696-1685-49ee-a391-58e408c57de9" d="M547.42,73.46c0,2.69-1.49,4.18-3.84,4.18a4.88,4.88,0,0,1-1.65-.27v2.71l-1.56.25v-9L540.26,70l1.35-.21.26,1.14h.06a2.9,2.9,0,0,1,2.47-1.2C546.22,69.75,547.42,71.06,547.42,73.46Zm-1.64.18c0-1.76-.7-2.61-1.77-2.61s-2.07.77-2.07,2.54V76a2.5,2.5,0,0,0,1.54.39C545,76.37,545.78,75.51,545.78,73.64Z"/><path class="e471b696-1685-49ee-a391-58e408c57de9" d="M549.24,73.7a3.81,3.81,0,1,1,3.81,3.94A3.6,3.6,0,0,1,549.24,73.7Zm6,0c0-1.73-.84-2.67-2.19-2.67s-2.18.95-2.19,2.68.84,2.68,2.19,2.68S555.25,75.42,555.24,73.69Z"/><path class="e471b696-1685-49ee-a391-58e408c57de9" d="M567.76,67.06l-.4,1.15h0a1.8,1.8,0,0,0-1.09-.34c-1,0-1.53.48-1.53,1.87V70l2.36-.13L567,71.24h-2.29V77.5h-1.57V71.24h-1.39V70.07l1.39-.13v-.39a2.65,2.65,0,0,1,2.9-2.93A3.38,3.38,0,0,1,567.76,67.06Z"/><path class="e471b696-1685-49ee-a391-58e408c57de9" d="M568.29,73.7a3.81,3.81,0,1,1,3.81,3.94A3.6,3.6,0,0,1,568.29,73.7Zm6,0c0-1.73-.84-2.67-2.19-2.67s-2.18.95-2.19,2.68.84,2.68,2.19,2.68S574.3,75.42,574.29,73.69Z"/><path class="e471b696-1685-49ee-a391-58e408c57de9" d="M582.51,71.21c-1.88,0-2.84.73-2.84,2.6V77.5H578.1V71.33L578,70l1.36-.21.26,1.26h0a3.17,3.17,0,0,1,2.77-1.32Z"/><path class="e471b696-1685-49ee-a391-58e408c57de9" d="M587.94,67.49h1.63v10h-1.63Z"/><path class="e471b696-1685-49ee-a391-58e408c57de9" d="M599.18,72.61V77.5h-1.57V73c0-1.27-.48-1.91-1.5-1.91s-2.16.68-2.16,2.52V77.5h-1.57V71.33L592.27,70l1.36-.21.26,1.16h0a3.41,3.41,0,0,1,2.67-1.22C598.2,69.75,599.18,70.74,599.18,72.61Z"/><path class="e471b696-1685-49ee-a391-58e408c57de9" d="M608.55,72.61V77.5H607V73c0-1.27-.48-1.91-1.5-1.91s-2.16.68-2.16,2.52V77.5h-1.57V71.33L601.64,70l1.36-.21.26,1.16h0A3.41,3.41,0,0,1,606,69.75C607.57,69.75,608.55,70.74,608.55,72.61Z"/><path class="e471b696-1685-49ee-a391-58e408c57de9" d="M610.7,73.7a3.81,3.81,0,1,1,3.81,3.94A3.6,3.6,0,0,1,610.7,73.7Zm6,0c0-1.73-.84-2.67-2.19-2.67s-2.18.95-2.19,2.68.84,2.68,2.19,2.68S616.71,75.42,616.7,73.69Z"/><path class="e471b696-1685-49ee-a391-58e408c57de9" d="M627.17,69.89,624,77.5h-1.43L619.39,70l1.7-.23,1.47,4c.24.7.48,1.51.68,2.19h.13c.17-.63.39-1.36.69-2.19l1.48-3.88Z"/><path class="e471b696-1685-49ee-a391-58e408c57de9" d="M635.12,77.43v0l-1.36.18a2,2,0,0,1-.36-1.09h0A3,3,0,0,1,631,77.64c-1.34,0-2.51-.66-2.51-2.1s1.37-2.66,4.55-2.66h.4c0-1.38-.73-1.86-2-1.86a3.68,3.68,0,0,0-2.23.72h0l-.43-1.22a5.12,5.12,0,0,1,2.89-.77c2.23,0,3.24.88,3.24,3V75A7.21,7.21,0,0,0,635.12,77.43Zm-1.73-3.15v-.35H633c-2.26,0-3,.68-3,1.47s.58,1.05,1.34,1.05A2,2,0,0,0,633.39,74.28Z"/><path class="e471b696-1685-49ee-a391-58e408c57de9" d="M642,77.12a3.59,3.59,0,0,1-1.87.52A2,2,0,0,1,638,75.39V71.22h-1.43V70.07l1.43-.13.12-1.76,1.42-.24V70l2.3-.12-.08,1.32h-2.22v4c0,.75.31,1.1,1,1.1a2.07,2.07,0,0,0,1.12-.37h0Z"/><path class="e471b696-1685-49ee-a391-58e408c57de9" d="M643.58,67.78a1,1,0,0,1,1.08-.92c.61,0,1,.35,1,.86a1,1,0,0,1-1.07.93C644,68.65,643.58,68.3,643.58,67.78Zm.23,2.36,1.57-.24V77.5h-1.57Z"/><path class="e471b696-1685-49ee-a391-58e408c57de9" d="M654.92,69.89l-3.19,7.61H650.3L647.14,70l1.7-.23,1.47,4c.24.7.48,1.51.68,2.19h.13c.17-.63.39-1.36.69-2.19l1.48-3.88Z"/><path class="e471b696-1685-49ee-a391-58e408c57de9" d="M662.43,74.09h-5a2.1,2.1,0,0,0,2.32,2.29,3.28,3.28,0,0,0,2.28-.74h0l.43,1.23a5.82,5.82,0,0,1-2.92.78,3.47,3.47,0,0,1-3.7-3.81c0-2.4,1.48-4.08,3.76-4.08,2,0,3,1.29,3,3.29,0,.27,0,.58,0,.91Zm-1.21-1.49a1.57,1.57,0,0,0-1.68-1.67c-1.09,0-1.88.74-2.06,2.17l3.73-.11A2.64,2.64,0,0,0,661.23,72.59Z"/><path class="e471b696-1685-49ee-a391-58e408c57de9" d="M675.14,76.09v1.4h-6.63v-10H675v1.4l-4.87-.11v3l4.22-.08v1.41l-4.22-.08v3.12Z"/><path class="e471b696-1685-49ee-a391-58e408c57de9" d="M684.14,77.43v0l-1.4.18a2.63,2.63,0,0,1-.4-1.19h0a3,3,0,0,1-2.47,1.19c-1.78,0-3-1.35-3-3.73,0-2.68,1.53-4.16,3.87-4.16a4.67,4.67,0,0,1,1.59.26V67l1.57-.24V75A7.19,7.19,0,0,0,684.14,77.43ZM682.3,74V71.52a2.35,2.35,0,0,0-1.56-.5c-1.37,0-2.29.9-2.29,2.8,0,1.65.69,2.54,1.8,2.54S682.26,75.69,682.3,74Z"/><path class="e471b696-1685-49ee-a391-58e408c57de9" d="M693.35,77.43v0l-1.41.18a2.3,2.3,0,0,1-.38-1.09h-.06A3.23,3.23,0,0,1,689,77.64c-1.52,0-2.53-.93-2.53-2.86V70l1.57-.22v4.68c0,1.38.57,1.9,1.5,1.9a1.88,1.88,0,0,0,2-2V69.89h1.57v5.38A6.73,6.73,0,0,0,693.35,77.43Z"/><path class="e471b696-1685-49ee-a391-58e408c57de9" d="M696.92,73.77c0,1.71.77,2.56,2.18,2.56a3.38,3.38,0,0,0,2.11-.72h0l.44,1.25a5.48,5.48,0,0,1-2.77.78c-2.31,0-3.61-1.62-3.61-3.88a3.66,3.66,0,0,1,3.84-4,4.06,4.06,0,0,1,2.47.71l-.45,1.23h0a3.3,3.3,0,0,0-2-.65C697.81,71,696.92,71.93,696.92,73.77Z"/><path class="e471b696-1685-49ee-a391-58e408c57de9" d="M709.88,77.43v0l-1.36.18a2,2,0,0,1-.36-1.09h0a3,3,0,0,1-2.42,1.09c-1.34,0-2.51-.66-2.51-2.1s1.37-2.66,4.55-2.66h.4c0-1.38-.73-1.86-2-1.86a3.68,3.68,0,0,0-2.23.72h0l-.43-1.22a5.12,5.12,0,0,1,2.89-.77c2.23,0,3.24.88,3.24,3V75A7.21,7.21,0,0,0,709.88,77.43Zm-1.73-3.15v-.35h-.44c-2.26,0-3,.68-3,1.47s.58,1.05,1.34,1.05A2,2,0,0,0,708.15,74.28Z"/><path class="e471b696-1685-49ee-a391-58e408c57de9" d="M716.79,77.12a3.59,3.59,0,0,1-1.87.52,2,2,0,0,1-2.17-2.25V71.22h-1.43V70.07l1.43-.13.12-1.76,1.42-.24V70l2.3-.12-.08,1.32H714.3v4c0,.75.31,1.1,1,1.1a2.07,2.07,0,0,0,1.12-.37h0Z"/><path class="e471b696-1685-49ee-a391-58e408c57de9" d="M718.34,67.78a1,1,0,0,1,1.08-.92c.61,0,1,.35,1,.86a1,1,0,0,1-1.07.93C718.73,68.65,718.34,68.3,718.34,67.78Zm.23,2.36,1.57-.24V77.5h-1.57Z"/><path class="e471b696-1685-49ee-a391-58e408c57de9" d="M722.32,73.7a3.81,3.81,0,1,1,3.81,3.94A3.6,3.6,0,0,1,722.32,73.7Zm6,0c0-1.73-.84-2.67-2.19-2.67s-2.18.95-2.19,2.68.84,2.68,2.19,2.68S728.32,75.42,728.31,73.69Z"/><path class="e471b696-1685-49ee-a391-58e408c57de9" d="M738.93,72.61V77.5h-1.57V73c0-1.27-.48-1.91-1.5-1.91s-2.16.68-2.16,2.52V77.5h-1.57V71.33L732,70l1.36-.21.26,1.16h0a3.41,3.41,0,0,1,2.67-1.22C737.95,69.75,738.93,70.74,738.93,72.61Z"/><path class="e471b696-1685-49ee-a391-58e408c57de9" d="M476,217.95v1.24h-6.58v.56h5.2v1.17H462.38v-1.17h5v-.56H461v-1.24h6.43v-.85h2v.85Zm-6.58,13.31h6.48v1.36H461.12v-1.36h6.31v-.54h-4.66v-1.19h4.66V229a17.27,17.27,0,0,0-3.79.24c-.07-.27-.27-.9-.41-1.26a3.92,3.92,0,0,0,.88-.22,9.71,9.71,0,0,0,1.16-.49H463V227h-1.77v-2.53h14.65V227h-1.9v-1.27H463v.49h10.88v1.07h-1.21a16,16,0,0,1,1.89,1.31l-1.1.92h1v1.19h-5Zm4.67-9.84V224H463v-2.57Zm-2,1h-7.31v.6h7.31Zm-4.69,4.9c-.39.24-.77.46-1.14.65l4.66-.07-.92-.51.08-.07Zm2,2.23h3.81c-.2-.19-.48-.41-.77-.63l-3,.08Z"/><path class="e471b696-1685-49ee-a391-58e408c57de9" d="M505.54,228.08l.36,1.8c-2.4,1-5,2.07-7,2.87l-.9-2.07h0c1.16-.36,2.79-.92,4.52-1.51v-6h-3.93v-2h3.93v-3.74h2.11v11Zm5.54,2.41c.63,0,.73-.8.83-3.84a6.05,6.05,0,0,0,1.94,1c-.19,3.52-.66,4.86-2.58,4.86h-2c-1.87,0-2.43-.71-2.43-3.06v-12h2.11v3.71h4.44v2h-4.44v6.32c0,.92.08,1.07.65,1.07Z"/><path class="e471b696-1685-49ee-a391-58e408c57de9" d="M544.59,228.42v.85h5.66v1.67h-5.66v2h-2v-2h-5.64v-1.67h5.64v-.85H536v-1.75h6.63v-3.84h-6.2v-1.65h14.53v1.65h-6.32v3.84h6.8v1.75Zm-4.93-8.58h-3.6v-1.77h3.6v-1h2v1h1.73v1.77h-1.73v1h-2Zm.7,3.3v.73h1.56v1.7h-1.56v.82h-1.87v-.82h-2.12v-1.7h2.12v-.73Zm5.18-3.3h-1.63v-1.77h1.63v-1h2v1h3.69v1.77h-3.69v1h-2Zm1.36,6.54v-.9h-1.65v-1.7h1.65v-.65h1.87v.65h2v1.7h-2v.9Z"/><path class="e471b696-1685-49ee-a391-58e408c57de9" d="M588.17,220.69v12.26H586v-1.21H574.35v-11h2.07v8.91h3.72V217.22h2.13v12.44H586v-9Z"/><path class="e471b696-1685-49ee-a391-58e408c57de9" d="M624,221.93a17.82,17.82,0,0,1-3.5,6.08,16.46,16.46,0,0,0,6.43,2.94,9.35,9.35,0,0,0-1.36,1.89,17,17,0,0,1-6.65-3.33,18.84,18.84,0,0,1-6.88,3.43,10.16,10.16,0,0,0-1.22-1.89,17.47,17.47,0,0,0,6.61-3,19.08,19.08,0,0,1-3.62-6.12h-2.67v-2h7.17a13,13,0,0,0-1-2.4l2.16-.63a14.52,14.52,0,0,1,1.16,2.57l-1.46.46h7.39v2Zm-8.11,0a14.63,14.63,0,0,0,3.06,4.71,13.7,13.7,0,0,0,2.77-4.71Z"/><path class="e471b696-1685-49ee-a391-58e408c57de9" d="M652,221.88v-.66a17.88,17.88,0,0,1-1.82,1.22h7.17v5.34h-5.9c0,.17-.05.36-.08.53h6.39v4.54H656v-.46h-3.15v.53h-1.68v-3.52a10.87,10.87,0,0,1-1.09,3,9.28,9.28,0,0,0-1.77-.78c1.34-2.16,1.48-5.2,1.48-7.19v-1.72l-.39.2a10.81,10.81,0,0,0-1.05-1.94,11.7,11.7,0,0,0,5-3.86l1.85.73c-.1.15-.2.29-.31.42,1.26.73,2.67,1.56,3.45,2.13l-1,1.7c-.46-.37-1.12-.82-1.85-1.29v1.1Zm3.52,4.5v-.7H651.6c0,.22,0,.46,0,.7Zm-3.86-2.55v.66h3.86v-.66Zm3.72-3.15-1.61-1c-.36.34-.73.7-1.1,1Zm-2.53,9v1.21H656v-1.21Zm7.77-1.34h-1.9v-9.49h1.9Zm3.11-11.19v13.4c0,1.09-.2,1.63-.83,2a6.44,6.44,0,0,1-2.92.41,8.3,8.3,0,0,0-.6-2l2,0c.27,0,.39-.09.39-.37V217.15Z"/><path class="e471b696-1685-49ee-a391-58e408c57de9" d="M701.17,217.75V233h-2v-.61H688.57V233h-1.9V217.75Zm-2,12.82v-11H688.57v11Zm-4.59-2.29a5.84,5.84,0,0,0,0,1.22,18.23,18.23,0,0,0-3.67,1.05,3.21,3.21,0,0,0-.46-1,.89.89,0,0,0,.56-1v-.61c-.46.17-.92.32-1.34.46a11.4,11.4,0,0,0-1-1.12,15,15,0,0,0,3.23-1H690v-2.43h7.84v2.43H694.2a8.43,8.43,0,0,1-1.72,1.05v1.44Zm4-4.91h-9.45v-1.12h3.79v-.66h-3v-1.09h3v-.71h1.84v.71h3.13v1.09h-3.13v.66h3.82Zm-6.9,2h4.39v-.7H691.7Zm7.09,1.84a11.23,11.23,0,0,1-1.43.9,17.39,17.39,0,0,1,1.5,1.16l-1.29.77a29.38,29.38,0,0,0-4.06-3l1.22-.68c.48.29,1,.65,1.58,1a13.38,13.38,0,0,0,1.29-1Z"/><path class="e471b696-1685-49ee-a391-58e408c57de9" d="M735.87,230.51a20.08,20.08,0,0,0,3.13-.22c.07.49.19,1.41.29,1.89a19.54,19.54,0,0,1-3.52.19h-6.7c-3,0-4.4-.92-4.4-4v-8.84H724v-1.79h14.45v1.79H726.65v9c0,1.48.49,2.06,2.24,2.06Zm-8.45-5.46h4.69v4.57h-4.69Zm1.63,3.21h1.33v-1.85h-1.33Zm6.78-4h-6.68v-4h6.68Zm-2-2.72H731V223h2.79Zm3.82,8h-4.79v-4.57h4.79Zm-1.75-3.21h-1.38v1.85h1.38Z"/><path class="e471b696-1685-49ee-a391-58e408c57de9" d="M468.28,241.88l-3.15,0v8.65H463.5v-8.67l-3.14,0v-1.3h7.92Z"/><path class="e471b696-1685-49ee-a391-58e408c57de9" d="M474.49,247.82l-4.09-.06-1,2.74h-1.64l3.91-10h1.66l3.91,10h-1.7Zm-3.66-1.29h3.22l-1-2.83c-.23-.62-.4-1.15-.53-1.66h-.07a17.25,17.25,0,0,1-.53,1.68Z"/><path class="e471b696-1685-49ee-a391-58e408c57de9" d="M478.76,240.49h1.63v10h-1.63Z"/><path class="e471b696-1685-49ee-a391-58e408c57de9" d="M490.45,243.73c0,2.33-1.68,3.6-4.58,3.6a11.6,11.6,0,0,1-1.26-.07v3.24H483v-10a16.69,16.69,0,0,1,2.46-.2C489.06,240.34,490.45,241.62,490.45,243.73Zm-1.66.08c0-1.64-1.07-2.2-3.35-2.2-.25,0-.52,0-.83,0V246a10.22,10.22,0,0,0,1.19.07C487.83,246.06,488.78,245.36,488.78,243.81Z"/><path class="e471b696-1685-49ee-a391-58e408c57de9" d="M498.8,249.09v1.4h-6.63v-10h6.49v1.4l-4.87-.11v3l4.22-.08v1.41l-4.22-.08v3.12Z"/><path class="e471b696-1685-49ee-a391-58e408c57de9" d="M500.76,240.49h1.63v10h-1.63Z"/><path class="e471b696-1685-49ee-a391-58e408c57de9" d="M509.8,245.17a1.44,1.44,0,1,1-1.44-1.44A1.44,1.44,0,0,1,509.8,245.17Z"/><path class="e471b696-1685-49ee-a391-58e408c57de9" d="M522.41,240.49v10h-1.63v-4.37l-5-.07v4.44h-1.63v-10h1.63v4.31l5,0v-4.27Z"/><path class="e471b696-1685-49ee-a391-58e408c57de9" d="M533.09,240.49v6c0,2.31-1.16,4.17-4.1,4.17s-4.06-1.82-4.06-4.17v-6h1.63v6c0,1.58.58,2.71,2.42,2.71s2.48-1.12,2.48-2.71v-6Z"/><path class="e471b696-1685-49ee-a391-58e408c57de9" d="M540.81,247.82l-4.09-.06-1,2.74h-1.64l3.91-10h1.66l3.91,10h-1.7Zm-3.66-1.29h3.22l-1-2.83c-.23-.62-.4-1.15-.53-1.66h-.07a17.25,17.25,0,0,1-.53,1.68Z"/><path class="e471b696-1685-49ee-a391-58e408c57de9" d="M550.85,242.49a4,4,0,0,0-2.37-.76c-1.29,0-2,.48-2,1.3,0,2.19,5.08,1.27,5.08,4.68,0,1.81-1.43,2.91-3.72,2.91a6.2,6.2,0,0,1-3.27-.89l.46-1.46h0a4.28,4.28,0,0,0,2.79,1c1.34,0,2-.47,2-1.37,0-2.38-5.06-1.32-5.06-4.77,0-1.72,1.26-2.75,3.62-2.75a5.76,5.76,0,0,1,2.84.7l-.46,1.43Z"/><path class="e471b696-1685-49ee-a391-58e408c57de9" d="M561.87,240.49v10h-1.63v-4.37l-5-.07v4.44H553.6v-10h1.63v4.31l5,0v-4.27Z"/><path class="e471b696-1685-49ee-a391-58e408c57de9" d="M570.17,247.82l-4.09-.06-1,2.74h-1.64l3.91-10H569l3.91,10h-1.7Zm-3.66-1.29h3.22l-1-2.83c-.23-.62-.4-1.15-.53-1.66h-.07a17.25,17.25,0,0,1-.53,1.68Z"/><path class="e471b696-1685-49ee-a391-58e408c57de9" d="M582.77,240.49v10h-1.38l-3.71-5c-.71-.95-1.43-2-1.81-2.56,0,.69.08,2,.08,3.22v4.31h-1.5v-10h1.31l3.77,5c.73,1,1.46,2,1.83,2.59,0-.69-.09-2-.09-3.24v-4.31Z"/><path class="e471b696-1685-49ee-a391-58e408c57de9" d="M597.38,249.26v1.23h-5.93v-1.23h2.32V244.1l-2.32.06v-1.27h3.88v6.38Z"/><path class="e471b696-1685-49ee-a391-58e408c57de9" d="M605.14,246.72a6.36,6.36,0,0,1-6.52,6.45l-.44-1.27,0-.05c2.89,0,4.59-1.38,5.14-3.33a3.82,3.82,0,0,1-2.1.58,3,3,0,0,1-3.32-3.08,3.23,3.23,0,0,1,3.56-3.26C603.84,242.75,605.14,244.27,605.14,246.72Zm-3.71,1.17a3.66,3.66,0,0,0,2.08-.63,4.49,4.49,0,0,0,.09-.87,2.08,2.08,0,0,0-2.14-2.35,1.77,1.77,0,0,0-1.89,2A1.7,1.7,0,0,0,601.43,247.88Z"/><path class="e471b696-1685-49ee-a391-58e408c57de9" d="M612.44,249.26v1.23h-5.93v-1.23h2.32V244.1l-2.32.06v-1.27h3.88v6.38Z"/><path class="e471b696-1685-49ee-a391-58e408c57de9" d="M621.23,250.39h-1.48v2.21h-1.52v-2.21h-4.57v-1l4.51-6.46h1.58v6.34l1.52,0Zm-6.06-1.07,3.1-.06V244.8Z"/><path class="e471b696-1685-49ee-a391-58e408c57de9" d="M630.7,245.56c0,2.27,1,3.63,3.11,3.63a3.93,3.93,0,0,0,2.49-.83h0l.48,1.41a5.87,5.87,0,0,1-3.15.86c-3,0-4.63-2.16-4.63-5.11s1.59-5.18,4.83-5.18a5.6,5.6,0,0,1,2.85.7l-.5,1.48h0a3.71,3.71,0,0,0-2.31-.74C631.77,241.79,630.7,243.26,630.7,245.56Z"/><path class="e471b696-1685-49ee-a391-58e408c57de9" d="M646.29,250.47v0l-1.86.11a27.39,27.39,0,0,1-2.59-4h-1.72v3.89h-1.63v-10a20.94,20.94,0,0,1,2.47-.17c3.75,0,5,1.35,5,3.09a3,3,0,0,1-2.45,3A29.78,29.78,0,0,0,646.29,250.47Zm-6.17-5.1h1.94c1.44,0,2.23-.64,2.23-1.85s-.9-1.9-3.34-1.9l-.84,0Z"/><path class="e471b696-1685-49ee-a391-58e408c57de9" d="M654.67,249.09v1.4H648v-10h6.49v1.4l-4.87-.11v3l4.22-.08v1.41l-4.22-.08v3.12Z"/><path class="e471b696-1685-49ee-a391-58e408c57de9" d="M662.66,247.82l-4.09-.06-1,2.74h-1.64l3.91-10h1.66l3.91,10h-1.7ZM659,246.54h3.22l-1-2.83c-.23-.62-.4-1.15-.53-1.66h-.07a17.25,17.25,0,0,1-.53,1.68Z"/><path class="e471b696-1685-49ee-a391-58e408c57de9" d="M672.77,241.88l-3.15,0v8.65H668v-8.67l-3.14,0v-1.3h7.92Z"/><path class="e471b696-1685-49ee-a391-58e408c57de9" d="M674.41,240.49H676v10h-1.63Z"/><path class="e471b696-1685-49ee-a391-58e408c57de9" d="M687,240.49l-3.79,10H681.5l-3.88-9.84,1.75-.27,2.21,6.08c.28.8.53,1.56.77,2.46h.05c.24-.9.5-1.66.77-2.46l2.1-6Z"/><path class="e471b696-1685-49ee-a391-58e408c57de9" d="M695.19,249.09v1.4h-6.63v-10h6.49v1.4l-4.87-.11v3l4.22-.08v1.41l-4.22-.08v3.12Z"/><path class="e471b696-1685-49ee-a391-58e408c57de9" d="M711.23,243.73c0,2.33-1.68,3.6-4.58,3.6a11.6,11.6,0,0,1-1.26-.07v3.24h-1.63v-10a16.69,16.69,0,0,1,2.46-.2C709.85,240.34,711.23,241.62,711.23,243.73Zm-1.66.08c0-1.64-1.07-2.2-3.35-2.2-.25,0-.52,0-.83,0V246a10.22,10.22,0,0,0,1.19.07C708.61,246.06,709.57,245.36,709.57,243.81Z"/><path class="e471b696-1685-49ee-a391-58e408c57de9" d="M718,247.82l-4.09-.06-1,2.74h-1.64l3.91-10h1.66l3.91,10H719Zm-3.66-1.29h3.22l-1-2.83c-.23-.62-.4-1.15-.53-1.66h-.07a17.25,17.25,0,0,1-.53,1.68Z"/><path class="e471b696-1685-49ee-a391-58e408c57de9" d="M730.06,250.47v0l-1.86.11a27.39,27.39,0,0,1-2.59-4h-1.72v3.89h-1.63v-10a20.94,20.94,0,0,1,2.47-.17c3.75,0,5,1.35,5,3.09a3,3,0,0,1-2.45,3A29.78,29.78,0,0,0,730.06,250.47Zm-6.17-5.1h1.94c1.44,0,2.23-.64,2.23-1.85s-.9-1.9-3.34-1.9l-.84,0Z"/><path class="e471b696-1685-49ee-a391-58e408c57de9" d="M740,250.46v0l-2,.15a26.52,26.52,0,0,1-4.13-4.65h-.42v4.5h-1.63v-10h1.63V245h.34l3.85-4.47h1.88v0l-4.27,4.89A31.54,31.54,0,0,0,740,250.46Z"/><path class="e471b696-1685-49ee-a391-58e408c57de9" d="M563.25,409.29l-2.87,0v7.63H558.3v-7.65l-2.86,0v-1.66h7.8Z"/><path class="e471b696-1685-49ee-a391-58e408c57de9" d="M569.67,413.21a27.59,27.59,0,0,0,2.4,3.64v0l-2.34.07a21.86,21.86,0,0,1-2.11-3.49h-1.26v3.42h-2.08v-9.31a22.75,22.75,0,0,1,2.64-.19c3.59,0,4.82,1.27,4.82,3a2.81,2.81,0,0,1-2.07,2.81ZM566.36,412h1.49c1.14,0,1.79-.55,1.79-1.54s-.72-1.6-2.63-1.6l-.65,0Z"/><path class="e471b696-1685-49ee-a391-58e408c57de9" d="M577.47,413.73v3.15h-2.08v-3.13l-3.35-6,2.25-.26,1.49,3a14.75,14.75,0,0,1,.7,1.8h.13a13.13,13.13,0,0,1,.68-1.79l1.45-2.91h2.15Z"/><path class="e471b696-1685-49ee-a391-58e408c57de9" d="M592.21,409.29l-2.87,0v7.63h-2.08v-7.65l-2.86,0v-1.66h7.8Z"/><path class="e471b696-1685-49ee-a391-58e408c57de9" d="M598.64,413.21a27.59,27.59,0,0,0,2.4,3.64v0l-2.34.07a21.87,21.87,0,0,1-2.11-3.49h-1.26v3.42h-2.08v-9.31a22.75,22.75,0,0,1,2.64-.19c3.59,0,4.82,1.27,4.82,3a2.81,2.81,0,0,1-2.07,2.81ZM595.32,412h1.49c1.14,0,1.79-.55,1.79-1.54s-.72-1.6-2.63-1.6l-.65,0Z"/><path class="e471b696-1685-49ee-a391-58e408c57de9" d="M606.43,413.73v3.15h-2.08v-3.13l-3.35-6,2.25-.26,1.49,3a14.75,14.75,0,0,1,.7,1.8h.13a13.13,13.13,0,0,1,.68-1.79l1.45-2.91h2.15Z"/><path class="e471b696-1685-49ee-a391-58e408c57de9" d="M619.77,409.8a4.08,4.08,0,0,0-2.28-.74c-1,0-1.58.38-1.56,1,.06,1.7,4.63,1,4.63,4.18,0,1.76-1.41,2.78-3.71,2.78a6.41,6.41,0,0,1-3.24-.81l.51-1.76h0a4.08,4.08,0,0,0,2.61.91c1.08,0,1.67-.36,1.67-1,0-1.82-4.59-1-4.59-4.23,0-1.69,1.26-2.67,3.62-2.67a5.94,5.94,0,0,1,2.86.68l-.51,1.7Z"/><path class="e471b696-1685-49ee-a391-58e408c57de9" d="M628.43,415.22v1.66h-6.52v-9.34h6.39v1.66l-4.31-.1v2.34l3.72-.07V413l-3.72-.07v2.4Z"/><path class="e471b696-1685-49ee-a391-58e408c57de9" d="M636.4,415.22v1.66h-6.52v-9.34h6.39v1.66l-4.31-.1v2.34l3.72-.07V413l-3.72-.07v2.4Z"/><path class="e471b696-1685-49ee-a391-58e408c57de9" d="M641,415.9a1.14,1.14,0,0,1,1.24-1.16,1.07,1.07,0,0,1,1.19,1.09,1.15,1.15,0,0,1-1.24,1.17A1.07,1.07,0,0,1,641,415.9Zm.1-8.78,2.23-.33h0l-.34,6.91h-1.58Z"/><path class="e471b696-1685-49ee-a391-58e408c57de9" d="M513.28,374.89l.05-.35-2.83-.13,0,.28a23.64,23.64,0,0,1-.66,3h-7.33v2.81h6.29a15.1,15.1,0,0,1-6.66,7.11l-.31.17,1.58,2.43.26-.14a17.91,17.91,0,0,0,3.7-2.62v9.81h2.81v-4.59h8v1.79h-1.89v2.81h4.7v-15.5h-9.61l.53-1.25h12.32v-2.81H512.74C513,376.77,513.14,375.84,513.28,374.89Zm4.86,13.69v1.25h-8v-1.25Zm-8-2.81v-1.25h8v1.25Z"/><path class="e471b696-1685-49ee-a391-58e408c57de9" d="M577.49,390.08a27.46,27.46,0,0,0,2.68-8.43h2.13v-2.81h-7.08a40.31,40.31,0,0,0,.77-4.08l0-.33-2.68-.23,0,.3a26.14,26.14,0,0,1-1.82,6.76v-1.88h-4.86v-1.52h3.78v-2.81H560v2.81h3.78v1.52H559v2.81h2.16v10l-2.23.56.64,2.71,7-1.6v3.43h2.81V395.5l1.53,1.92.25-.17a19,19,0,0,0,4.79-4.64,20,20,0,0,0,5.3,4.65l.25.15,1.69-2.2-.3-.19A18.64,18.64,0,0,1,577.49,390.08Zm-11,.22v.77l-2.6.57v-1.34Zm0-4.05v1.25h-2.6v-1.25Zm-2.6-2.81V382.2h2.6v1.25Zm5.4-1.25h1.74a18.34,18.34,0,0,1-1.66,2.75l-.08.11Zm4.87-.39.06-.15h3.16a24.66,24.66,0,0,1-1.59,5.5A22,22,0,0,1,574.21,381.81Zm-4.87,13.29v-9.81l2.14,1.59.85-1.33a20.21,20.21,0,0,0,1.93,4.57,16.66,16.66,0,0,1-4.84,4.92Z"/><path class="e471b696-1685-49ee-a391-58e408c57de9" d="M634.33,384h4.32v-2.61h-4.32v-.83h5.4v-6.07H625.58v6.07h5.94v.83h-4.86V384h4.86v.83h-7v1.67l-.21-.5-1.31.44V381.4h2.16v-2.81H623v-4.32h-2.81v4.32h-2.7v2.81h2.7v6.09l-2.89,1.12,1,2.62,1.93-.74v3.78h-1.62v2.81H623v-7.61l2.06-.73v2.18h6.48v.83h-5.4v2.61h5.4v3h2.81v-3h4.86v-2.61h-4.86v-.83h5.94v-2.61h-3l.41-.83h3.17v-2.61h-6.48Zm1.62-5.73v-1.47h1v1.47Zm-1.43,9.17-.4.83H631.7l-.41-.83Zm-2.36-9.17v-1.47h1v1.47Zm-2.81-1.47v1.47h-1v-1.47Zm-4.47,10.64h3.29l.4.83h-3.34Z"/><path class="e471b696-1685-49ee-a391-58e408c57de9" d="M696.07,384v-8.84h-5.68v1l-.79-1.36-2.55,1.44L685,375.11l-.41.7-.41-1.81-5,1.2h-1.14V384h-2.11v5.46h2.81v-2.87H695.4v2.87h2.81V384Zm-2.46-.53V384h-4.23l.89-1.54-.94-.54,1.06-.27v1.82Zm-8.8-5.85-1.06.6V378h-3.22v-.65l3.68-.88-.34.59Zm-.67,6.39h-3.61v-.53h3.22v-.14Zm2.95-.76,1.33.76h-2.67Zm0-2.63-1.48-.84,1.5-.85,1.48.84Zm-3.19.78.94.54-1.06.6v-1.1h-3.22v-1.29h3.22V379l.75,1.3Zm9.75-3.95V378h-3.22v1.81h3.22v1.5h-2.94l-1-2.1.63-1.09-.94-.54,1.06-.6v.45Z"/><polygon class="e471b696-1685-49ee-a391-58e408c57de9" points="694.07 389.25 692.45 387.13 680.81 387.13 680.81 389.69 687.9 389.69 686.8 390.25 685.68 390.25 685.68 391.7 675.95 391.7 675.95 394.26 685.68 394.26 685.68 395.34 684.05 395.34 684.05 397.63 688.48 397.63 688.48 394.26 698.21 394.26 698.21 391.7 688.57 391.7 694.07 389.25"/><line class="7dfc443c-0a10-4245-884e-468103a95160" x1="543.78" y1="383.76" x2="539.25" y2="388.29"/><line class="7dfc443c-0a10-4245-884e-468103a95160" x1="602.52" y1="383.76" x2="597.99" y2="388.29"/><line class="7dfc443c-0a10-4245-884e-468103a95160" x1="660.63" y1="383.76" x2="656.1" y2="388.29"/><line class="e7f9a7ad-951f-4ed4-adb0-9f2f04cf9199" x1="35" y1="332.5" x2="739" y2="332.5"/><line class="e7f9a7ad-951f-4ed4-adb0-9f2f04cf9199" x1="465" y1="363" x2="465" y2="428"/></g></svg>