<?xml version="1.0" encoding="utf-8"?>
<!-- Generator: Adobe Illustrator 21.1.0, SVG Export Plug-In . SVG Version: 6.00 Build 0)  -->
<svg version="1.1" id="圖層_1" xmlns="http://www.w3.org/2000/svg" xmlns:xlink="http://www.w3.org/1999/xlink" x="0px" y="0px"
	 viewBox="0 0 250 97" style="enable-background:new 0 0 250 97;" xml:space="preserve">
<style type="text/css">
	.st0{fill:#0047BA;}
	.st1{fill:#0047BA;stroke:#0047BA;stroke-miterlimit:10;}
</style>
<title>index0829</title>
<g id="e5efbe9c-3884-4eea-b9e8-69790b0263ef">
	<path class="st0" d="M26,39.4c-0.6,2-1.5,3.8-2.8,5.3c-0.5-0.5-1-0.9-1.6-1.3c1.2-1.3,2-2.8,2.4-4.5L26,39.4z M29.9,38.6h-7V23.5h7
		V38.6z M27.9,25.3h-3.1v2.7h3.1V25.3z M27.9,29.6h-3.1v2.7h3.1V29.6z M27.9,34h-3.1v2.7h3.1V34z M28.6,38.9
		c0.8,1.2,1.5,2.4,2.1,3.8l-1.8,0.9c-0.5-1.4-1.2-2.7-2-3.9L28.6,38.9z M43.8,40.8h-1.3v1.8c0,1-0.2,1.5-0.9,1.8
		c-1.1,0.3-2.3,0.4-3.5,0.3c-0.1-0.6-0.3-1.2-0.6-1.8c1.1,0,2.2,0,2.5,0s0.4-0.1,0.4-0.4v-1.7h-6.9v3.9h-2v-3.9h-1.4v-1.6h1.4v-6H36
		v-1.2h-5.7v-1.6h3.2V29h-2.1v-1.6h2.1v-1.2h-2.7v-1.7h2.7v-1.9h2v1.9h3v-1.9h2v1.9h2.8v1.7h-2.8v1.2H43V29h-2.5v1.3h3.2v1.6H38V33
		h4.6v6h1.3V40.8z M33.5,34.8v1.3H36v-1.4L33.5,34.8z M33.5,39.1H36v-1.6h-2.5V39.1z M35.5,27.4h3v-1.2h-3V27.4z M35.5,30.3h3V29h-3
		V30.3z M38,34.8v1.3h2.5v-1.4L38,34.8z M40.5,39.1v-1.6H38v1.5L40.5,39.1z"/>
	<path class="st0" d="M99.4,39.8c-1.6,1.8-3.4,3.2-5.5,4.3c-0.4-0.4-1.2-1.1-1.7-1.5c1.9-0.8,3.7-2.1,5.1-3.6L99.4,39.8z
		 M113.8,36.9v1.8h-9.6v6h-2.2v-6h-9.5v-1.8L113.8,36.9z M99.3,25.3h-6.6v-1.8h20.6v1.8h-6.7v1.6h5.4v5.6h-18v-5.6h5.2L99.3,25.3z
		 M95.3,35.6v-1.8h15.6v1.8L95.3,35.6z M96.2,30.8h3.1v-2.3h-3.1L96.2,30.8z M104.5,25.3h-3.2v1.6h3.2V25.3z M101.3,30.8h3.2v-2.3
		h-3.2V30.8z M108,39.2c2,1,3.9,2.3,5.6,3.7l-1.8,1.3c-1.7-1.4-3.6-2.7-5.5-3.8L108,39.2z M106.7,28.5v2.3h3.2v-2.3H106.7z"/>
	<path class="st0" d="M35,57.9l-5.4-0.1v14.8h-2.7V57.8l-5.4-0.1v-2.2H35V57.9z"/>
	<path class="st0" d="M36.7,56c0-0.9,0.8-1.6,1.8-1.6c0,0,0.1,0,0.1,0c1,0,1.8,0.6,1.8,1.5c0,0.9-0.8,1.6-1.8,1.6c0,0,0,0-0.1,0
		C37.4,57.5,36.7,56.9,36.7,56z M37.1,60l2.7-0.4v13h-2.7L37.1,60z"/>
	<path class="st0" d="M45,66.3c0,2.9,1.3,4.4,3.7,4.4c1.3,0,2.6-0.4,3.6-1.2l0,0l0.8,2.1c-1.4,0.9-3.1,1.3-4.8,1.3
		c-4,0-6.2-2.8-6.2-6.7c0-4,2.4-6.9,6.6-6.9c1.5-0.1,3,0.4,4.2,1.2l-0.8,2.1l0,0c-1-0.7-2.1-1.1-3.3-1.1C46.5,61.6,45,63.1,45,66.3z
		"/>
	<path class="st0" d="M67.3,72.4L67.3,72.4l-3.1,0.3c-2-1.7-3.9-3.6-5.4-5.8l-0.4-0.5h-0.5v6.1h-2.7v-18l2.7-0.4v10.6h0.6l4.7-5.2
		h3.1l0,0l-5.7,5.8l0.7,0.9C63,68.6,65,70.7,67.3,72.4z"/>
	<path class="st0" d="M78.3,66.8h-8.5c0.2,2.7,1.5,3.9,4,3.9c1.4,0.1,2.8-0.4,3.9-1.3l0,0l0.7,2.1c-1.5,0.9-3.2,1.3-5,1.3
		c-4.2,0-6.3-2.8-6.3-6.5c0-4.1,2.5-7,6.4-7c3.4,0,5.1,2.2,5.1,5.6c0,0.5,0,1-0.1,1.6L78.3,66.8z M76.2,64.2c0.1-1.5-1-2.8-2.5-2.9
		c-0.1,0-0.2,0-0.4,0c-1.9,0-3.2,1.3-3.5,3.7l6.4-0.2C76.2,64.7,76.2,64.5,76.2,64.2z"/>
	<path class="st0" d="M89.2,72c-1,0.6-2.1,0.9-3.2,0.9c-2.4,0-3.7-1.4-3.7-3.8v-7.2h-2.4v-2l2.4-0.2l0.2-3l2.4-0.4v3.6l3.9-0.2
		l-0.1,2.3h-3.8v6.9c0,1.3,0.5,1.9,1.6,1.9c0.7,0,1.4-0.2,1.9-0.6l0,0L89.2,72z"/>
	<line class="st1" x1="154.8" y1="34.3" x2="219.6" y2="34.3"/>
	<polygon class="st0" points="218.8,28.2 218.8,40.3 224.9,34.3 	"/>
</g>
</svg>
