<svg xmlns="http://www.w3.org/2000/svg" viewBox="0 0 1920 1080"><defs><style>.ed640dbd-c355-44ac-83fb-209215da983f,.faa94326-28c6-4f10-880a-3f4d71760278{fill:#ff4c00;}.a97891c4-7792-4a32-b4c4-3cbddc312303{fill:#fff;}.\38 9efafdd-f9d0-4eb9-b33e-eea9720ca48d{fill:#0047ba;}.\32 34e22da-9823-46a5-92e4-8971f522f64c,.bd88e8c6-adce-4a71-a25c-85f294a438de,.dd92056f-fd34-4269-b525-b8774eb9ca8e{fill:none;}.bd88e8c6-adce-4a71-a25c-85f294a438de,.dd92056f-fd34-4269-b525-b8774eb9ca8e{stroke:#ff4c00;stroke-miterlimit:10;}.dd92056f-fd34-4269-b525-b8774eb9ca8e{stroke-width:2px;}.\36 9a19cb4-f005-42ff-8352-71cf51bc4294{font-size:16px;font-family:NotoSansCJKtc-Bold, NotoSansCJKtc Bold-B5pc-H;font-weight:700;}.\32 1f1e255-7184-41fc-a5c7-ad3444143219,.\36 9a19cb4-f005-42ff-8352-71cf51bc4294{fill:#f2f2f2;}.\36 1ada4e0-2e4d-4f02-ba0e-8b4f21a44436{letter-spacing:-0.01em;}.\33 ecf24ed-651a-4f36-8536-a8b83c99fafc{letter-spacing:0em;}.\35 20e4e8b-ff00-44d4-ad73-3affff06f974{letter-spacing:-0.01em;}.ba33bc6e-81ce-4fc8-9015-3d1b18fc8634{letter-spacing:-0.01em;}.d6f3f43b-ae36-4a3c-a8b0-d380ae6a2547{letter-spacing:-0.02em;}.\35 ef13351-5be0-46cb-b5fe-1a06ef8accb4{letter-spacing:-0.01em;}.\35 3525691-b33f-4111-b9ae-e6598a06820f{letter-spacing:-0.03em;}.ca32580a-c050-4404-96dd-a6ccaad35773{letter-spacing:0em;}.dfb7530a-3265-4023-a4a0-8b02a884aabf{letter-spacing:-0.02em;}.\39 b956e30-2bca-4be5-a825-cc50b98009ba{letter-spacing:-0.01em;}.\36 00fc561-683b-4b5e-b0c5-866b9380d609{letter-spacing:0em;}.\35 9accd6a-c0f4-4482-bf54-c1d8ef2caca2{letter-spacing:-0.01em;}.dd44278d-95a9-4900-83c9-b529505ae0a8{letter-spacing:0em;}.ed640dbd-c355-44ac-83fb-209215da983f{font-size:24px;font-family:NotoSansHant-Medium, NotoSansHant Medium-B5pc-H;}.\38 bbd6ce5-070c-43ac-9bc0-98da8ed0b780,.ed640dbd-c355-44ac-83fb-209215da983f{letter-spacing:-0.03em;}.\32 0fae0ed-2ebd-4acf-ac46-7502695a1de1,.db4ef242-cfc7-4930-b990-b9492e71aacb,.efb0499a-a1b8-4740-ae54-0c5a8d4f72e3{font-family:LatinaEssential-Medium, LatinaEssential Medium;}.efb0499a-a1b8-4740-ae54-0c5a8d4f72e3{letter-spacing:-0.04em;}.cd2be44a-a139-4caf-b914-cca85a62a1ef{letter-spacing:-0.03em;}.b51d3f8a-abb9-467c-8301-714a990074d2{letter-spacing:-0.03em;}.\33 ff75cee-1541-496c-bfb1-8cfe79404921{letter-spacing:-0.03em;}.\38 15085ca-c2cd-4e55-a714-7e3b94e6a830{letter-spacing:-0.02em;}.bed93467-6c12-4e91-ac9a-27507b91b970{letter-spacing:-0.05em;}.\32 e0771c0-bba7-4baa-9658-ae538c8cd976{letter-spacing:-0.01em;}.\33 76cbf13-5830-4b6c-84f5-597d90681ffa{letter-spacing:-0.03em;}.b2d3ae72-3904-4d1b-9ec6-9983324d8698{letter-spacing:-0.04em;}.aef7ba31-bee3-42e5-867d-66eaf686fdc2{letter-spacing:-0.04em;}.\32 31e876a-7d39-468c-9aee-40be9cd4ae96{letter-spacing:-0.03em;}.f235bd85-d2d7-46e8-841b-9ec5dd7f36ef{letter-spacing:-0.04em;}.\39 40c624d-453a-4f6e-a668-c406117adc67{letter-spacing:-0.03em;}.\32 0fae0ed-2ebd-4acf-ac46-7502695a1de1{letter-spacing:-0.02em;}.\38 74602f0-21d4-4d7e-9fa1-255580bf70b1{letter-spacing:-0.04em;}.\39 bd8800e-9d11-4654-a284-817c7b5c8932{letter-spacing:-0.04em;}.\34 905258f-f6a9-416a-93fc-679ae4592f02{letter-spacing:-0.05em;}.db4ef242-cfc7-4930-b990-b9492e71aacb{letter-spacing:-0.04em;}.d215469a-6a2f-494f-bc6d-53232b31fcf0{letter-spacing:-0.04em;}.d20527c1-6819-4987-a0d2-3214defc901d{letter-spacing:-0.04em;}.ce0381ee-c384-4d9c-91b1-0f94ef9fb99c{letter-spacing:-0.04em;}.\33 426da74-711d-4ec1-b3ad-2d18335f3763{letter-spacing:-0.03em;}.afb8ef87-f2bd-47dc-ae2c-65621621fc23{letter-spacing:-0.03em;}.daec7b17-ae2d-46ba-a1d6-72c9f0f7e4eb{letter-spacing:-0.04em;}.\31 0ecb98e-ac2d-46c3-a85a-3e3bc5f10f2e{letter-spacing:-0.04em;}.\31 0f15145-9928-4d60-87f9-f3435599929b{letter-spacing:-0.03em;}</style></defs><title>index</title><g id="eb34279d-767d-4faf-bf0d-5e50800c6bcb" data-name="bg"><rect class="faa94326-28c6-4f10-880a-3f4d71760278" width="1920" height="1080"/><path class="a97891c4-7792-4a32-b4c4-3cbddc312303" d="M1128,561.75l.54.3v6.88l.42.42h23.53l.6.36v1.2l-.6.36h-46.22l-.54.54v14.13a79.42,79.42,0,0,1-1.59,16.64,44.15,44.15,0,0,1-4.64,12.69l-2-1.08a48.42,48.42,0,0,0,4.19-11.55,61.07,61.07,0,0,0,1.56-14.07V569.71l.42-.36h22l.54-.42V562l.42-.3Zm13.11,55.08-.42.54H1110l-.42-.54v-1.08l.42-.48h30.71l.42.48Zm11.38-26-.54.36h-16.52a44.36,44.36,0,0,0,4.37,11,32.67,32.67,0,0,0,6.58,8.2,3.82,3.82,0,0,0,1.44.48,2.33,2.33,0,0,0,1.11-.27,5.24,5.24,0,0,0,1.17-.93l1.62-2.93,1.5-3.05,1.86,1a21.56,21.56,0,0,1-4.55,8.08,3.9,3.9,0,0,1-2.33.84,4.15,4.15,0,0,1-1.26-.21,5.65,5.65,0,0,1-1.32-.63q-9-7.66-12.57-21.55h-15.27l-.36.36V606l.36.36,15.57-4.25.42.54v1l-.42.6-20.24,5.63-.6-.36V608.5q0-.36.6-.72l1.38-.54.48-.48V578.63q5,0,9.4-.42a39.59,39.59,0,0,0,5.09-.36l5.87-.9,10.36-1.5.72,1.44-6.65,1.5q-1.32.24-2.6.36t-2.78.12a71.64,71.64,0,0,0,.78,10.24h16.82l.54.36Zm-34.72-1.74h15a59.57,59.57,0,0,1-.78-8.86l.12-1-9.16,1.14-5.51.24v8Z"/><path class="a97891c4-7792-4a32-b4c4-3cbddc312303" d="M1212,617l-.54-.48v-1.68l-.42-.48h-46.94l-.48.48v1.68l-.48.3h-1.32l-.42-.3V562.58l.42-.48h51.49l.42.48v53.94l-.42.48Zm-47.9-4.61H1211l.42-.48V564.56l-.42-.36h-46.94l-.48.36v47.36Zm25.27-34.07-.3.36v3l.3.24h20l.42.36v1.2l-.42.3h-42.93l-.54-.3v-1.2l.54-.36h19.82l.42-.24v-3l-.42-.36h-10.72l-.42-.36v-9.16l.42-.54H1200l.66.54V578l-.66.36Zm-17.66,30.35-.6-.54V587.91l.6-.6H1204l.48.6v20.24l-.48.54Zm1.74-18.68v16.22l.48.36h27.72l.48-.36V590l-.48-.6h-27.72Zm4.31-13.65h20.12l.3-.48v-5.15l-.3-.36h-20.12l-.36.36v5.15Zm3,26-.54-.54v-8.26l.54-.36H1195l.36.36v8.26l-.36.54Zm1.86-6.94v4.49l.42.36h9.58l.54-.36v-4.49l-.54-.36H1183Z"/><path class="a97891c4-7792-4a32-b4c4-3cbddc312303" d="M1220.55,588.93l.54-.36h53.22l.66.36v1.26l-.66.48h-25l-.54.36v9.1l.54.3h16.82l.42.36v1.08l-.42.36h-16.82l-.54.36v11q4.43.78,8.77,1.17t8.77.39q1.67,0,5.21-.24t5.27-.24a1.53,1.53,0,0,1,.24.15l.18.15v1.2a.35.35,0,0,1-.18.3.24.24,0,0,0-.18.06q-4.79.42-10.24.42-3.89,0-8.17-.3t-8.71-.84a87.94,87.94,0,0,1-17.84-7.78,38.54,38.54,0,0,1-8.8,9.22l-.42.06a.5.5,0,0,1-.27-.06l-.15-.12-.42-1-.24-.24.24-.24a31.76,31.76,0,0,0,8.56-10.12,41.79,41.79,0,0,0,1.11-4.76,31.35,31.35,0,0,0,.39-5.18l2.09.24a43.54,43.54,0,0,1-1.32,10.6,106.41,106.41,0,0,0,14,6.41V591l-.54-.36h-25l-.54-.48Zm46-6.11-.42.36h-34.9l-.54-.36V562.28l.54-.36h34.9l.42.36Zm-2.75-19.16h-30.29l-.42.54v7.42l.42.36h30.29l.42-.36V564.2Zm0,10.3h-30.29l-.42.36v6.83l.42.54h30.29l.42-.54v-6.83Z"/><path class="a97891c4-7792-4a32-b4c4-3cbddc312303" d="M1314.49,571.92l.54.36v1.26l-.54.36H1300.3l-.66.48v4.55l.66.36h10.12l.42.36v16.46l-.42.36H1300.3a.83.83,0,0,0-.54.3.72.72,0,0,1-.12.18v4.67l.66.3h11.08l.6.36v1.08l-.6.36h-11.32l-.48.54v6a50,50,0,0,0,5.57-.33q2.93-.33,6.53-.93v2.1q-7.36.78-10,1.08-7.36.84-9.46,1-5.09.42-8.86.42v-1.74a66.64,66.64,0,0,0,7.6-.54q4.55-.54,6.53-.72v-6.35l-.42-.54h-12.45l-.54-.36v-1.08l.54-.36h12.57l.36-.3V597l-.36-.54h-10.9l-.42-.36V579.53l.42-.36h10.9l.36-.36v-4.43l-.36-.48h-14.55l-.42-.36v-1.26l.42-.36h14.55l.36-.48v-5.33q-1.92.18-4.82.36t-5.12.18l-1.38-.06-.78-1.92a86.83,86.83,0,0,0,12.3-.87,99.4,99.4,0,0,0,12.54-2.66l.66,2.16a104.36,104.36,0,0,1-11.31,2.45v5.69l.66.48Zm-25.92,15.21h8.62l.36-.36v-5l-.36-.3h-8.62l-.42.3v5Zm0,7.36h8.62l.36-.36v-4.73l-.36-.3h-8.62l-.42.3v4.73Zm11.73-7.36h8.14l.42-.36v-5l-.42-.3h-8.14l-.66.3v5Zm0,7.36h8.14l.42-.36v-4.73l-.42-.3h-8.14l-.66.3v4.73Zm24.37-32.63.54.36v14.13l.6.36h12l.42.36v2.1q0,21.07-3.59,35.74-.78,2.57-4.91,2.57h-4.25L1325,617l-.54-1,.24-.48h6.23q1.62-.36,2.81-4.13,1.26-6.83,1.89-12.33a102.55,102.55,0,0,0,.63-11.62v-8.32l-.42-.36h-10.6a66.24,66.24,0,0,1-2.27,17.3,80.63,80.63,0,0,1-5.63,14.49,51.25,51.25,0,0,1-5.51,7.42l-1.38-1.26a27.41,27.41,0,0,0,5.51-7.78,86.5,86.5,0,0,0,5.15-14.43,64.69,64.69,0,0,0,2-15.75h-6.58l-.54-.54v-1.2l.54-.36h6.17l.42-.36V562.22l.54-.36Z"/><path class="a97891c4-7792-4a32-b4c4-3cbddc312303" d="M1353.64,570.31l.12.3,11.91-1.38.24-.36-1.68-3.11.24-.48.72-.9.72.18,5.63,8.86-.18.72-1.26.48-.72-.12-1.68-3-.84-.54-20.59,2.45-.54-.3-.18-1.32.3-.3,4-.72.72-.36,5.27-8.86.78-.12,1.08.48.24.72Zm-5.81,44.6a.55.55,0,0,1-.3.3l-.36.12-.18-.06-1.14-1-.12-.72,4.61-8,.6-.18h.24l1.26.54.18.72Zm14.85-14.61-.48-.36v-1.26l.48-.36h2.22q2,.12,2-3v-1.62l-.54-.36h-15.39l-.6.36v6.59l-.54.36h-1.26l-.42-.36v-23l.42-.36h20l.6.36v19.4q0,3.59-4.25,3.59Zm-11.73-15.57h15.39l.54-.3v-5.21l-.54-.36h-15.39l-.6.36v5.21Zm0,6.53h15.39l.54-.36v-3.65l-.54-.36h-15.39l-.6.36v3.65Zm10.72,21.79q.42,2.57,4,2.57h13.65q2.81,0,5.39-5.33l1.86.9q-2.69,6.17-6.11,6.53h-15.92q-4.73-.54-5.09-3.83V605l.42-.54h1.44l.42.54Zm12.69-2.39-.24.06a.55.55,0,0,1-.6-.42l-3.65-6.11v-.6l1.26-.48.66.12,4,5.87-.3.72Zm3.35-43.11a29.31,29.31,0,0,0,7.72-1.08,65.38,65.38,0,0,0,7.84-2.81l1,1.62a53.81,53.81,0,0,1-16.4,4.43v4.61q.24,2.4,3.77,2.75h10.54q2-.72,3.05-5.27l2.27,1q-1.38,5.93-4.79,6.29H1381.6l-.3.12q-5.33,0-5.87-4.19v-.48a1.93,1.93,0,0,1-.18-.54l.06-.36V562.1l.66-.36h1.2l.54.36Zm.36,21.91a58.35,58.35,0,0,0,14.73-4.73l1.44,1.56a51.88,51.88,0,0,1-16.11,5.27V596q.6,2.21,4,2.57H1392a6.78,6.78,0,0,0,2.57-3.47l2.4.6q-1.44,4.07-5,5h-11a5.5,5.5,0,0,1-3.23-1.29A6,6,0,0,1,1376,596l-.24-1.74V582.94l.42-.54h1.26l.66.54Zm17.66,25.45H1395l-8.08-9.34.06-.36.9-.9h.72l8.44,9.22-.12.54Z"/><path class="a97891c4-7792-4a32-b4c4-3cbddc312303" d="M1459,575.34l-.54.54h-23.83l-.48.36v15.92l.48.48h20l.48.36v.9l-.48.48h-20l-.48.36v19.46l.48.6h26.46l.42.36v1l-.42.36h-56.64l-.42-.36v-1l.42-.36h27.06l.42-.6V594.73l-.42-.36h-19.46l-.36-.48V593l.36-.36h19.46l.42-.48V576.23l-.42-.36H1407.4l-.54-.54v-1.08l.54-.36h51.07l.54.36Zm-27.9-12.75a2.71,2.71,0,0,1,.48.24.17.17,0,0,0,.06.12q1,1.44,2.45,4l2.63,4.43-1.14.48-1,.72a62.12,62.12,0,0,0-5.33-8.5,1.37,1.37,0,0,1,.36-.48Z"/><path class="a97891c4-7792-4a32-b4c4-3cbddc312303" d="M1477.75,560.79l.36.36v10.78l.42.36H1487l.48.36v1.74a61.76,61.76,0,0,1-9,12.93q3.47,2.64,5.45,4.07,2.75,2,5.09,3.47l.12.36-.06.18-.9,1.08-.36.18a1.34,1.34,0,0,1-.36-.18q-3.47-2.15-8.92-6.17V618l-.42.36h-1.44l-.36-.36v-28.8a60.6,60.6,0,0,1-10.06,8.5l-.48.24-.36-.24L1465,597l-.06-.18c.12-.28.2-.48.24-.6q2.51-1.85,5.18-4.22t5.48-5.24a48,48,0,0,0,9.34-12.39h-19.34l-.54-.48v-1.26l.54-.36h9.46l.54-.36V561.15l.48-.36ZM1493.5,564l.42-.54h22.87l.42.54v33l-.42.36h-6.89l-.42.36v15.75a1.69,1.69,0,0,0,1.92,1.92h6.88q2-.42,2.81-5.33l.42-.18h.3l1.14.36.3.48q-1.44,6.41-4.67,6.41h-8.5q-2.75,0-2.75-2.81V597.73l-.6-.36h-5.09a56.65,56.65,0,0,1-6.14,12.27,26,26,0,0,1-7.51,7.48l-.36.06-.3-.18-.42-.72c-.08,0-.18-.1-.3-.3.12-.16.22-.24.3-.24q7.66-5.21,12.09-16.94l.3-1.08-.3-.36h-5.09l-.42-.36Zm21,1.44h-18.32l-.42.48v7.66l.42.36h18.32l.72-.36v-7.66C1515.19,565.64,1514.95,565.48,1514.51,565.4Zm0,10.42h-18.32l-.42.54v8.32l.42.3h18.32l.72-.3v-8.32Q1515.17,575.94,1514.51,575.82Zm0,10.78h-18.32l-.42.36V595l.42.36h18.32l.72-.36V587Z"/><path class="a97891c4-7792-4a32-b4c4-3cbddc312303" d="M1544.68,563.18q-4.37,1.14-9.34,2v3.35l.48.36H1544l.6.36v1.26l-.6.36h-8.14l-.48.48v3.17l.48.36h8.5l.48.54v1.08l-.48.48h-8.5l-.48.36v4.07l.48.36h38.74l.42-.36v-3.47l-.42-.6h-9.64l-.48-.36v-1.2l.48-.36h9.64l.42-.54v-3.65l-.42-.54h-9.22l-.54-.36v-1.2l.54-.36h9.22l.42-.36V564.8l-.42-.54h-10.12l-.66-.36v-1.44l.66-.36h12.21l.48.36v18.92l.66.36h4l.54.36v11.32l-.54.48h-1.26l-.6-.48v-8.8l-.42-.54h-49.63l-.54.54v8.92l-.42.6h-1.26l-.6-.6V582.1l.6-.36h4.91l.48-.36v-18l-.06-.18a.48.48,0,0,1,.54-.54l1.68.72a45,45,0,0,0,8.38-2.51l.42-.18.36.72Zm27.18,44.48-.42.36H1562l-.6.36v5.21a2,2,0,0,0,2.16,1.74h14.79a3.22,3.22,0,0,0,1.59-1.08,15.79,15.79,0,0,0,1.83-2.69.42.42,0,0,1,.48-.48l1.32.9c.16.08.25.17.27.27a1.32,1.32,0,0,1,0,.21,12.06,12.06,0,0,1-2.21,3.5,6,6,0,0,1-2.69,1.65h-16.4q-2.75-.48-3.35-3.65v-5.57l-.42-.36h-9.58a27.77,27.77,0,0,1-10.9,8.74,22.83,22.83,0,0,1-8.2,1.56h-.36l-.36.06q-.36-.12-.36-.24l-.54-1.26c.2-.24.34-.36.42-.36a28,28,0,0,0,17.48-8.5h-8.14l-.66-.36V588.51l.66-.36h33.23l.42.36Zm-2.1-13.89V590.6l-.42-.36h-29l-.48.36v3.17l.48.48h29Zm0,5.81v-3.23l-.42-.36h-29l-.48.36v3.23l.48.6h29Zm0,5.87V602.4l-.42-.36h-29l-.48.36v3.05l.48.48h29ZM1560.55,580l-.36.12-.3-.12a27.92,27.92,0,0,0-2.66-1.71l-2.3-1.35a47.93,47.93,0,0,1-6.47,3.17l-.48.24-.36-.24-.84-1.08h-.3l.42-.3,6.35-3.17-4.19-1.92a.49.49,0,0,1-.27-.06l-.15-.12.24-.36.6-1.44.48-.12h.36l5,2.81a18.54,18.54,0,0,0,2.37-1.56,16.68,16.68,0,0,0,2.18-2.16l.54,2.1-.12.36a.28.28,0,0,1-.3.18q-.36.3-1.44,1.14a17.65,17.65,0,0,1-1.68,1.14l4.49,2.63a.46.46,0,0,1,.21.24.36.36,0,0,0,.09.18Zm.42-10.54-.48.12-.48-.12a26.83,26.83,0,0,1-4.79-2.57,51,51,0,0,1-6,3.59l-1,.36-.36-.36-.36-1-.3-.24.42-.36,5.81-3.23-2.69-1.26q-1.62-.84-2.4-1.2l-.36-.36.24-.36.66-1,.72-.18,5.09,2.81a9.13,9.13,0,0,0,2.16-1.23,12.63,12.63,0,0,0,2.16-2.13l.6.18.42.9.18.3-.18.24q-1.92,2.57-2.93,2.93a26.39,26.39,0,0,0,4.31,2.75.28.28,0,0,1,.21.21.39.39,0,0,0,.09.21Z"/></g><g id="42c5435b-912f-4105-9feb-e247350e77b7" data-name="pic"><rect class="89efafdd-f9d0-4eb9-b33e-eea9720ca48d" x="92" y="264" width="772" height="470" rx="5" ry="5"/><path class="faa94326-28c6-4f10-880a-3f4d71760278" d="M132.09,634.42v13.65h-2.93V625.42H139v9Zm0-6.85v1.26h4v-1.26Zm4,4.67V630.8h-4v1.44Zm7.31,10.08v5.28h-2.63v-5.28h-2.43a8.23,8.23,0,0,1-3.26,5.76,11.28,11.28,0,0,0-1.9-1.72,5.92,5.92,0,0,0,2.58-4h-2.53v-2.45h2.63V638h-2.27V635.6h12.21V638h-2.4v1.89h2.78v2.45Zm-2.63-2.45V638h-2.35v1.89Zm9.63,4.62c0,1.52-.28,2.38-1.21,2.85s-2.22.56-4.12.56a10.77,10.77,0,0,0-.94-3c1.14.08,2.4,0,2.8,0s.51-.15.51-.53v-10h-6.95v-9h9.91Zm-7.05-16.93v1.26h4.09v-1.26Zm4.1,4.75V630.8h-4.09v1.52Z"/><path class="faa94326-28c6-4f10-880a-3f4d71760278" d="M161.68,632a24.69,24.69,0,0,1-1.59,8.72,35.91,35.91,0,0,1,2.78,2.75L161,645.78c-.58-.68-1.36-1.54-2.3-2.45a16.88,16.88,0,0,1-4.32,4.65,9.71,9.71,0,0,0-2-2,15.34,15.34,0,0,0,4.27-4.57c-1.26-1.16-2.53-2.3-3.64-3.26a57.46,57.46,0,0,0,1.39-5.63l-1.64.1-.28-2.68c.73,0,1.54-.05,2.4-.1.3-1.79.55-3.61.68-5.23l2.78.18c-.18,1.54-.4,3.23-.71,4.93l1.36-.08V628h2.68v1.47l1.11-.05,0,2.5Zm-4.52.33c-.35,1.74-.76,3.44-1.14,4.93.61.48,1.21,1,1.82,1.54a20.94,20.94,0,0,0,1.14-6.6ZM174,636.48a15.65,15.65,0,0,0-.63-1.67c-8.24.71-9.5.84-10.44,1.22-.18-.58-.63-2-1-2.8.53-.15,1-.66,1.59-1.57a35.61,35.61,0,0,0,3.49-7.23l3.13.83a47.86,47.86,0,0,1-3.91,7.33l5.71-.41c-.63-1.06-1.31-2.12-2-3l2.4-1.19a28.26,28.26,0,0,1,4.17,7.13Zm-10.92,1H174.9V648H172v-1h-6.19v1h-2.75Zm2.75,2.63v4.27H172v-4.27Z"/><path class="faa94326-28c6-4f10-880a-3f4d71760278" d="M183.92,631a26.45,26.45,0,0,1-1.36,2.48v14.61h-2.73V637.41a21.1,21.1,0,0,1-1.52,1.72,18.7,18.7,0,0,0-1.64-2.63,23.8,23.8,0,0,0,4.85-6.8l2.4.83V626h2v3.59H187v-5.13h2.17v5.13h1.26V626h2.12v5.89h-8.69Zm-.1-5.61a26.25,26.25,0,0,1-5.38,6.14,14.63,14.63,0,0,0-1.52-2.25,17,17,0,0,0,4.19-4.9ZM200,631.9a32,32,0,0,1-2.3,9.65,9.79,9.79,0,0,0,3.59,4,10.29,10.29,0,0,0-1.89,2.35,11.23,11.23,0,0,1-3.16-3.61,14.91,14.91,0,0,1-3.89,3.87,13.85,13.85,0,0,0-1.9-2,6.46,6.46,0,0,0,.68-.45c-2.48.38-4.93.71-6.92,1l-.61-2.35c.94-.08,2-.2,3.28-.33v-1.82h-3.46V640h3.46v-1.24c-.93.1-1.87.18-2.73.23a8.65,8.65,0,0,0-.66-1.92,43.37,43.37,0,0,0,7.45-1.16l1.49,1.92a27.86,27.86,0,0,1-3.06.63V640H193v2.17h-3.61v1.54l3.08-.33.05,1.21a12.08,12.08,0,0,0,2.42-3.18,32.58,32.58,0,0,1-1.34-5.21c-.18.3-.38.63-.58.91a15.45,15.45,0,0,0-1.39-1.74h-8V633h8.57a31.22,31.22,0,0,0,2-8.54l2.73.43c-.2,1.54-.48,3.06-.81,4.52h4.73v2.53Zm-4.57,0c-.08.25-.15.48-.25.73a37.32,37.32,0,0,0,1.14,5.43,34.1,34.1,0,0,0,1.11-6.17Z"/><path class="faa94326-28c6-4f10-880a-3f4d71760278" d="M224.28,642a32.65,32.65,0,0,1-3.26,1.95,14,14,0,0,0,4.42,1.54,11.64,11.64,0,0,0-1.74,2.5,12.3,12.3,0,0,1-8.85-7.22h-2.58v3.94l4.24-.81a14.94,14.94,0,0,0-.25,2.48c-5.56,1.21-6.44,1.42-7,1.77v0a9.23,9.23,0,0,0-1.09-2.43,2.73,2.73,0,0,0,1.29-2.35v-2.63h-2.1v-2.53h3.69v-1.74h-3.16V634h3.16v-1.74h-3.69V633c0,4.4-.4,11-3.05,15.11a12.76,12.76,0,0,0-2.68-1.54c2.5-3.89,2.7-9.55,2.7-13.57v-7.48h19.43v6.75h-3.41V634H224v2.5h-3.64v1.74h4.73v2.53h-2.65Zm-16.88-12.3h13.37V628H207.39Zm6.44,4.29h3.77v-1.74h-3.77Zm0,4.24h3.77v-1.74h-3.77Zm3.84,2.53a8.15,8.15,0,0,0,1.39,1.69,27.48,27.48,0,0,0,2.53-1.69Z"/><path class="faa94326-28c6-4f10-880a-3f4d71760278" d="M236.38,636.32c0,3.82,1.72,6.16,5.42,6.16a7.19,7.19,0,0,0,4.67-1.61h0l1.23,3.64a11.88,11.88,0,0,1-6.45,1.77c-6.3,0-9.48-4.25-9.48-10s3.27-10.2,9.91-10.2a11.18,11.18,0,0,1,5.78,1.42l-1.28,3.77h-.05a6.91,6.91,0,0,0-4.29-1.38C238.18,629.85,236.38,632.44,236.38,636.32Z"/><path class="faa94326-28c6-4f10-880a-3f4d71760278" d="M261.58,641.42l-7-.12L253,646h-4.51l7.31-19.68h4.66L267.74,646h-4.58Zm-6.14-3.29,5.24,0-1.7-5.16c-.35-1.08-.63-2.07-.86-3l-.06.05-.1-.07c-.22,1-.49,2-.84,3.07Z"/><path class="faa94326-28c6-4f10-880a-3f4d71760278" d="M282.32,642.24V646H269.41V626.32h4.38v16.2Z"/><path class="faa94326-28c6-4f10-880a-3f4d71760278" d="M297.12,642.24V646H284.21V626.31h4.38v16.2Z"/><path class="faa94326-28c6-4f10-880a-3f4d71760278" d="M309.67,629.54v5.62l7.83-.15v3.46l-7.83-.15V646h-4.38V626.31h13.47v3.49Z"/><path class="faa94326-28c6-4f10-880a-3f4d71760278" d="M338.86,636.06c0,6.13-3.7,10.21-9.7,10.22s-9.48-4-9.48-10.06S323.3,626,329.29,626,338.86,630,338.86,636.06Zm-4.51,0c0-4-1.86-6.3-5.05-6.3s-5.1,2.29-5.11,6.41,1.74,6.33,5,6.33S334.33,640.18,334.35,636.07Z"/><path class="faa94326-28c6-4f10-880a-3f4d71760278" d="M352.89,638.24a58.1,58.1,0,0,0,5.07,7.68V646l-4.93.14a46,46,0,0,1-4.45-7.36h-2.66V646h-4.38V626.36a47.82,47.82,0,0,1,5.57-.39c7.57,0,10.15,2.67,10.15,6.36a5.92,5.92,0,0,1-4.36,5.92Zm-7-2.55h3.14c2.41,0,3.77-1.17,3.77-3.24s-1.52-3.37-5.54-3.37c-.39,0-.85,0-1.37.05Z"/><path class="faa94326-28c6-4f10-880a-3f4d71760278" d="M385.94,642.47V646H372.2V626.29h13.47v3.49l-9.09-.21v4.92l7.83-.15v3.44l-7.83-.15v5Z"/><path class="faa94326-28c6-4f10-880a-3f4d71760278" d="M405.81,645.91V646h-5.18l-4.47-7.77L391.73,646h-4.89v-.05l6.41-9.85-6.13-9.41v-.05L392,626l4.23,7.75,4.17-7.48h4.73l0,.05-5.94,9.51Z"/><path class="faa94326-28c6-4f10-880a-3f4d71760278" d="M424.63,626.28V646h-4.38v-8.19l-8.37-.13V646H407.5V626.28h4.38v8.08l8.37-.09v-8Z"/><path class="faa94326-28c6-4f10-880a-3f4d71760278" d="M428.58,626.27H433V646h-4.38Z"/><path class="faa94326-28c6-4f10-880a-3f4d71760278" d="M452.93,640.37c0,3.58-2.78,5.9-10.14,5.9a50.82,50.82,0,0,1-5.89-.39V626.34a42.9,42.9,0,0,1,5.53-.39c7.34,0,9.72,2.25,9.72,5.4a4.36,4.36,0,0,1-2.8,4.26v.1A4.51,4.51,0,0,1,452.93,640.37ZM441.29,629v5.45h2.87c2.6,0,3.76-.86,3.76-2.64s-1.27-2.87-4.76-2.88C442.68,629,442,629,441.29,629Zm7.16,11.17c0-1.91-1.25-2.74-3.86-2.74h-3.29v5.61c.63,0,1.17.06,1.66.06C447.21,643.14,448.44,642.12,448.44,640.21Z"/><path class="faa94326-28c6-4f10-880a-3f4d71760278" d="M455.75,626.27h4.38v19.68h-4.38Z"/><path class="faa94326-28c6-4f10-880a-3f4d71760278" d="M478.77,629.94l-6-.07v16.07h-4.38V629.82l-6-.07v-3.49h16.44Z"/><path class="faa94326-28c6-4f10-880a-3f4d71760278" d="M498.5,636c0,6.13-3.7,10.21-9.7,10.22s-9.48-4-9.48-10.06S482.94,626,488.93,626,498.49,629.95,498.5,636ZM494,636c0-4-1.86-6.3-5.05-6.3s-5.1,2.29-5.11,6.41,1.74,6.33,5,6.33S494,640.13,494,636Z"/><path class="faa94326-28c6-4f10-880a-3f4d71760278" d="M512.75,638.2a58.16,58.16,0,0,0,5.07,7.68v.05l-4.93.14a46,46,0,0,1-4.45-7.36h-2.66v7.21H501.4V626.32a48,48,0,0,1,5.57-.39c7.57,0,10.15,2.67,10.15,6.36a5.92,5.92,0,0,1-4.36,5.92Zm-7-2.55h3.14c2.41,0,3.77-1.17,3.77-3.24s-1.52-3.37-5.54-3.37c-.39,0-.85,0-1.37.05Z"/><path class="faa94326-28c6-4f10-880a-3f4d71760278" d="M532,631a8.59,8.59,0,0,0-4.8-1.56c-2.21,0-3.33.81-3.29,2.08.12,3.57,9.76,2.1,9.76,8.8,0,3.7-3,5.85-7.81,5.86a13.53,13.53,0,0,1-6.83-1.71l1.07-3.71h.05a8.6,8.6,0,0,0,5.5,1.92c2.28,0,3.52-.75,3.51-2.18-.05-3.83-9.67-2.15-9.67-8.92,0-3.56,2.65-5.61,7.62-5.62a12.52,12.52,0,0,1,6,1.44L532,631Z"/><path class="faa94326-28c6-4f10-880a-3f4d71760278" d="M150.58,687.38v4.45H127.92l-.1-3.68,11.26-8.47c3.52-2.61,4.46-4.1,4.46-5.91,0-2.54-1.9-4.34-5.78-4.34a14.38,14.38,0,0,0-8.44,3h-.1l-1.56-4.51A20,20,0,0,1,138,665c6.82,0,11.12,3.21,11.12,8.42,0,2.77-1.31,5.91-6.24,9.06l-8.1,5.38Z"/><path class="faa94326-28c6-4f10-880a-3f4d71760278" d="M181.77,678.58c0,7.7-5.17,13.74-13.69,13.74s-13.48-5.91-13.48-13.53S159.75,665,168.25,665,181.77,670.9,181.77,678.58Zm-5.28-.07c0-4.72-2.75-8.45-8.2-8.45-5.66,0-8.38,4-8.41,8.62s2.59,8.55,8.17,8.55S176.49,683.35,176.49,678.51Z"/><path class="faa94326-28c6-4f10-880a-3f4d71760278" d="M206.44,687.57v4.26H185.93v-4.26h8V669.71l-8,.19v-4.39h13.42v22Z"/><path class="faa94326-28c6-4f10-880a-3f4d71760278" d="M230.53,669a151,151,0,0,0-13.85,30.08h-5.85l0-.1a163.83,163.83,0,0,1,14.46-29.35l-18.55.7v-4.79h23.64Z"/><path class="faa94326-28c6-4f10-880a-3f4d71760278" d="M230.77,688.83a3.63,3.63,0,0,1,3.77-3.64,3.34,3.34,0,0,1,3.6,3.39,3.65,3.65,0,0,1-3.77,3.66A3.35,3.35,0,0,1,230.77,688.83Z"/><path class="faa94326-28c6-4f10-880a-3f4d71760278" d="M269.73,678.58c0,7.7-5.17,13.74-13.69,13.74s-13.48-5.91-13.48-13.53S247.7,665,256.2,665,269.73,670.9,269.73,678.58Zm-5.28-.07c0-4.72-2.75-8.45-8.2-8.45-5.66,0-8.38,4-8.41,8.62s2.59,8.55,8.17,8.55S264.44,683.35,264.44,678.51Z"/><path class="faa94326-28c6-4f10-880a-3f4d71760278" d="M296,669a151,151,0,0,0-13.85,30.08h-5.85l0-.1a163.83,163.83,0,0,1,14.46-29.35l-18.55.7v-4.79h23.64Z"/><path class="faa94326-28c6-4f10-880a-3f4d71760278" d="M296.25,688.83a3.63,3.63,0,0,1,3.77-3.64,3.34,3.34,0,0,1,3.6,3.39,3.65,3.65,0,0,1-3.77,3.66A3.35,3.35,0,0,1,296.25,688.83Z"/><path class="faa94326-28c6-4f10-880a-3f4d71760278" d="M335.21,678.58c0,7.7-5.17,13.74-13.69,13.74S308,686.4,308,678.78,313.18,665,321.69,665,335.21,670.9,335.21,678.58Zm-5.28-.07c0-4.72-2.75-8.45-8.2-8.45-5.66,0-8.38,4-8.41,8.62s2.59,8.55,8.17,8.55S329.93,683.35,329.93,678.51Z"/><path class="faa94326-28c6-4f10-880a-3f4d71760278" d="M358.87,688.63c0,5.84-5.47,12.5-19.33,12.5L338,696.77l0-.1c11.37,0,15.22-3.91,15.22-7.87,0-3.37-2.83-5.53-9-5.53h-2v-4.19h1.82c6.22,0,8.89-2.35,8.89-5.41,0-2.57-1.87-4.28-5.94-4.28-2.26,0-4.13.53-7.29,2.56h-.1l-1.48-4.31a16.3,16.3,0,0,1,9.33-2.61c7.42,0,11.06,3.63,11.06,7.88,0,3.71-2.75,6.47-6,7.75C356.53,681.88,358.87,684.83,358.87,688.63Z"/><path class="faa94326-28c6-4f10-880a-3f4d71760278" d="M398,676.43l-.45,4.51-29.7-.33v-4.18Z"/><path class="faa94326-28c6-4f10-880a-3f4d71760278" d="M432.65,678.58c0,7.7-5.17,13.74-13.69,13.74s-13.48-5.91-13.48-13.53S410.63,665,419.13,665,432.65,670.9,432.65,678.58Zm-5.28-.07c0-4.72-2.75-8.45-8.2-8.45-5.66,0-8.38,4-8.41,8.62s2.59,8.55,8.17,8.55S427.37,683.35,427.37,678.51Z"/><path class="faa94326-28c6-4f10-880a-3f4d71760278" d="M455.43,674.33c3.14,1.64,5.66,3.93,5.66,8.23,0,5.87-4.68,9.78-12.21,9.78S437,688.53,437,682.5c0-3.75,1.73-6.79,5.73-9.38a8.63,8.63,0,0,1-4.57-7.84c0-5.78,4.16-9.59,11.09-9.59s11.11,3.78,11.11,9.75c0,3.54-1.52,6.13-5,8.89Zm.49,8.12c0-4.35-4.77-5.62-9.36-7.49-3.09,2.06-4.42,4.09-4.42,6.87,0,3.88,2.55,6.22,6.82,6.22S455.92,685.71,455.92,682.45Zm-12.63-17.22c0,4.24,4.19,5.75,8.51,7.49a8.73,8.73,0,0,0,3.56-7c0-3.66-2.1-5.73-5.91-5.73S443.29,662.07,443.29,665.23Z"/><path class="faa94326-28c6-4f10-880a-3f4d71760278" d="M465.67,688.83a3.63,3.63,0,0,1,3.77-3.64,3.34,3.34,0,0,1,3.6,3.39,3.65,3.65,0,0,1-3.77,3.66A3.35,3.35,0,0,1,465.67,688.83Z"/><path class="faa94326-28c6-4f10-880a-3f4d71760278" d="M500.27,687.38v4.45H477.6l-.1-3.68,11.26-8.47c3.52-2.61,4.46-4.1,4.46-5.91,0-2.54-1.9-4.34-5.78-4.34a14.38,14.38,0,0,0-8.44,3h-.1l-1.56-4.51A20,20,0,0,1,487.67,665c6.82,0,11.12,3.21,11.12,8.42,0,2.77-1.31,5.91-6.24,9.06l-8.1,5.38Z"/><path class="faa94326-28c6-4f10-880a-3f4d71760278" d="M531.46,678.58c0,7.7-5.17,13.74-13.69,13.74s-13.48-5.91-13.48-13.53S509.43,665,517.94,665,531.46,670.9,531.46,678.58Zm-5.28-.07c0-4.72-2.75-8.45-8.2-8.45-5.66,0-8.38,4-8.41,8.62s2.59,8.55,8.17,8.55S526.18,683.35,526.18,678.51Z"/><path class="faa94326-28c6-4f10-880a-3f4d71760278" d="M569.74,465v3.08H554l-.07-2.55,7.81-5.87c2.44-1.81,3.09-2.84,3.09-4.1,0-1.76-1.32-3-4-3a10,10,0,0,0-5.85,2.1h-.07l-1.08-3.13a13.89,13.89,0,0,1,7.17-2c4.73,0,7.71,2.22,7.71,5.84,0,1.92-.91,4.1-4.33,6.28l-5.61,3.73Z"/><path class="faa94326-28c6-4f10-880a-3f4d71760278" d="M591.37,458.91c0,5.34-3.59,9.52-9.49,9.52s-9.35-4.1-9.35-9.38,3.57-9.56,9.46-9.56S591.37,453.58,591.37,458.91Zm-3.66,0c0-3.27-1.91-5.86-5.69-5.86s-5.81,2.79-5.83,6,1.8,5.93,5.67,5.93S587.7,462.22,587.7,458.86Z"/><path class="faa94326-28c6-4f10-880a-3f4d71760278" d="M608.47,465.14v3H594.25v-3h5.56V452.76l-5.57.14v-3h9.3v15.29Z"/><path class="faa94326-28c6-4f10-880a-3f4d71760278" d="M625.18,452.24a104.66,104.66,0,0,0-9.6,20.86h-4.06l0-.07a113.57,113.57,0,0,1,10-20.35l-12.86.48v-3.32H625Z"/><path class="faa94326-28c6-4f10-880a-3f4d71760278" d="M625.34,466a2.52,2.52,0,0,1,2.61-2.53,2.32,2.32,0,0,1,2.5,2.35,2.53,2.53,0,0,1-2.61,2.54A2.33,2.33,0,0,1,625.34,466Z"/><path class="faa94326-28c6-4f10-880a-3f4d71760278" d="M647.9,465.14v3H633.67v-3h5.56V452.76l-5.57.14v-3H643v15.29Z"/><path class="faa94326-28c6-4f10-880a-3f4d71760278" d="M668.54,458.91c0,5.34-3.59,9.52-9.49,9.52s-9.35-4.1-9.35-9.38,3.57-9.56,9.46-9.56S668.54,453.58,668.54,458.91Zm-3.66,0c0-3.27-1.91-5.86-5.69-5.86s-5.81,2.79-5.83,6,1.8,5.93,5.67,5.93S664.88,462.22,664.88,458.86Z"/><path class="faa94326-28c6-4f10-880a-3f4d71760278" d="M671.58,466a2.52,2.52,0,0,1,2.61-2.53,2.32,2.32,0,0,1,2.5,2.35,2.53,2.53,0,0,1-2.61,2.54A2.33,2.33,0,0,1,671.58,466Z"/><path class="faa94326-28c6-4f10-880a-3f4d71760278" d="M695.57,465v3.08H679.85l-.07-2.55,7.81-5.87c2.44-1.81,3.09-2.84,3.09-4.1,0-1.76-1.32-3-4-3a10,10,0,0,0-5.85,2.1h-.07l-1.08-3.13a13.89,13.89,0,0,1,7.17-2c4.73,0,7.71,2.22,7.71,5.84,0,1.92-.91,4.1-4.33,6.28l-5.61,3.73Z"/><path class="faa94326-28c6-4f10-880a-3f4d71760278" d="M717.2,458.91c0,5.34-3.59,9.52-9.49,9.52s-9.35-4.1-9.35-9.38,3.57-9.56,9.46-9.56S717.2,453.58,717.2,458.91Zm-3.66,0c0-3.27-1.91-5.86-5.69-5.86s-5.81,2.79-5.83,6,1.8,5.93,5.67,5.93S713.54,462.22,713.54,458.86Z"/><path class="faa94326-28c6-4f10-880a-3f4d71760278" d="M744.29,457.41l-.31,3.13-20.59-.23v-2.9Z"/><path class="faa94326-28c6-4f10-880a-3f4d71760278" d="M763.86,465.14v3H749.63v-3h5.56V452.76l-5.57.14v-3h9.3v15.29Z"/><path class="faa94326-28c6-4f10-880a-3f4d71760278" d="M784.5,458.91c0,5.34-3.59,9.52-9.49,9.52s-9.35-4.1-9.35-9.38,3.57-9.56,9.46-9.56S784.5,453.58,784.5,458.91Zm-3.66,0c0-3.27-1.91-5.86-5.69-5.86s-5.81,2.79-5.83,6,1.8,5.93,5.67,5.93S780.84,462.22,780.84,458.86Z"/><path class="faa94326-28c6-4f10-880a-3f4d71760278" d="M787.54,466a2.52,2.52,0,0,1,2.61-2.53,2.32,2.32,0,0,1,2.5,2.35,2.53,2.53,0,0,1-2.61,2.54A2.33,2.33,0,0,1,787.54,466Z"/><path class="faa94326-28c6-4f10-880a-3f4d71760278" d="M811.53,465v3.08H795.81l-.07-2.55,7.81-5.87c2.44-1.81,3.09-2.84,3.09-4.1,0-1.76-1.32-3-4-3a10,10,0,0,0-5.85,2.1h-.07l-1.08-3.13a13.89,13.89,0,0,1,7.17-2c4.73,0,7.71,2.22,7.71,5.84,0,1.92-.91,4.1-4.33,6.28l-5.61,3.73Z"/><path class="faa94326-28c6-4f10-880a-3f4d71760278" d="M830.13,465v3.08H814.42l-.07-2.55,7.8-5.87c2.44-1.81,3.09-2.84,3.09-4.1,0-1.76-1.32-3-4-3a10,10,0,0,0-5.85,2.1h-.07l-1.08-3.13a13.89,13.89,0,0,1,7.17-2c4.73,0,7.71,2.22,7.71,5.84,0,1.92-.91,4.1-4.33,6.28l-5.62,3.73Z"/><polygon class="faa94326-28c6-4f10-880a-3f4d71760278" points="181.35 370.26 202.84 370.26 226.89 370.26 248.39 370.26 215.05 306.5 181.35 370.26"/><polygon class="faa94326-28c6-4f10-880a-3f4d71760278" points="159.69 353.41 184.29 306.5 126.07 306.5 126.07 321.81 151.95 321.81 126.12 370.26 181.33 370.26 181.68 353.41 159.69 353.41"/><path class="faa94326-28c6-4f10-880a-3f4d71760278" d="M484.79,325.74c.18-14-11.07-17.91-23.12-17.91H438.9v62.47h18.72V341.94l14,28.34h15.92l-14.49-29.15C478.49,339.51,484.7,332,484.79,325.74ZM461.39,330c-.81,0-1.71-.09-2.52-.09h-1.26v-6.93h4c1.35,0,5.94-.18,5.94,3.06S463.46,329.88,461.39,330Z"/><path class="faa94326-28c6-4f10-880a-3f4d71760278" d="M293.81,328.63h-12c-1.89-.64-2.34-3.81.36-3.81h31.58V307.75H282.2c-12.69,0-18.8,8.26-18.8,18.34,0,10.26,6.48,20.52,18.8,20.52h11.61c2.34,0,3.51,1,3.51,2,0,1.36-1.26,2.72-3.69,2.81H263.76v18.89H293.9C308.47,370,316,359.23,316,348.61S312.7,328.63,293.81,328.63Z"/><polygon class="faa94326-28c6-4f10-880a-3f4d71760278" points="351.62 329.82 338.04 329.82 338.04 307.33 317.61 307.33 317.61 370.31 338.04 370.31 338.04 347.82 351.62 347.82 351.62 370.31 372.05 370.31 372.05 307.33 351.62 307.33 351.62 329.82"/><polygon class="faa94326-28c6-4f10-880a-3f4d71760278" points="372.37 370.31 393.6 370.31 417.36 370.31 438.59 370.31 405.66 307.33 372.37 370.31"/><polygon class="faa94326-28c6-4f10-880a-3f4d71760278" points="507.84 347.87 530.51 347.87 530.51 329.92 507.84 329.92 507.84 325.52 530.51 325.52 530.51 307.56 489.75 307.48 489.75 370.31 530.69 370.31 530.69 352.54 507.84 352.54 507.84 347.87"/><path class="faa94326-28c6-4f10-880a-3f4d71760278" d="M224.34,384.75c-.55,4.38-2,11-5.06,20.4h4.79a105,105,0,0,0,5.34-20l24.37.27a199.49,199.49,0,0,1-7.53,19.72h11v21.63h-9.86V436h10.12v19.85H247.35v8.45h10.12v19.58H247.35v8.87h9.76v23.27H195.33V487.16l-10.54,21.91c-7.26-5.89-9-8.49-12.32-13.14v20.13h-23V498.53c-4.11,6.3-11.62,11.87-21.62,17.68V487.33A129.4,129.4,0,0,0,142.89,474H128.24V452.11h10.68l-13-17A44.27,44.27,0,0,0,136,413h-7.8V391.05h21.22v-6.3h24.23v6.3h18.48v20.4c2.46-5.75,6.57-16.15,7.8-26.7Zm-70.91,62.43a87.66,87.66,0,0,1-5.75-9.72c-3.83,9-5.61,11.23-8.63,14.65h10.41v-4.93Zm4.11-5.75-4,5.75h12.19ZM154.66,413a27.79,27.79,0,0,1-.82,4.24,54,54,0,0,0,7.26,10.41,60.77,60.77,0,0,0,3.7-14.65ZM186,451.43c-3-3.42-6.57-7.39-9.31-13.14a75.41,75.41,0,0,1-4.38,8.9h.14v4.93h19.72V474H177.53c8.35,8.22,12.87,10.54,17.8,12.87v-35.6l-.82.82-4.38-8.76ZM182.46,413c-.14,1-.27,2.46-.41,3.42a51.8,51.8,0,0,0,4.38,6.71A74.33,74.33,0,0,0,191.49,413Zm35.87,13.83V436h7.53v-9.24Zm0,29.09v8.45h7.53v-8.45Zm0,28v8.87h7.53v-8.87Z"/><path class="faa94326-28c6-4f10-880a-3f4d71760278" d="M374.84,460.74H395V434.18h-7.8V388.59H352.39v15.06h12.19v3.29H352.39v10.54h12.19v3.29H352.39v10.13h12.19v3.42H342.26l7.8-9.31c-2.6-1.64-3-1.92-6.3-4,3.29-2.74,4.66-4,6.85-6l-7.53-4.93,8.21-8.21a71.77,71.77,0,0,0-6.71-4.79,75.51,75.51,0,0,0,6.3-5.48l-11.09-7.67a39.37,39.37,0,0,1-8.22,5.75,154.26,154.26,0,0,0-14.24-6.16l-9.17,9.58c2.6,1.09,4.24,1.78,8.08,3.56-4.11,1.37-6.71,2.05-9,2.6l-6.71-15.33c-10.13,2.74-17.25,3.7-29.57,4v46.28h-6.36v26.56h18.69v8.63h46.82c-2.74,1.37-13.69,5.2-13.69,5.2H263.94v20.5h52.44c0,3.29,0,3.59-2.87,3.59H298.76l.1,17.39h31.9c10.82,0,10.82-8.9,10.82-11.91v-9.07H394v-20.5H357.32a90.16,90.16,0,0,0,17.52-5.2Zm-43.4-55.59c3.42,2.33,4.79,3.29,6.44,4.52a50,50,0,0,1-6.57,4.24c-5.61-2.74-7.67-3.56-9.31-4.38C326.38,407.75,329.25,406.25,331.44,405.15ZM330.62,429c1.23.82,2.88,1.78,7.8,5.34H318.3A127.09,127.09,0,0,0,330.62,429Zm-36.42-11.5h12.32V406.93H294.2v-3.29a95.11,95.11,0,0,0,12.73-1.78l5.34,10-4.11,4.93c3.29,1.51,5.2,2.46,7.53,3.56-2.33.68-4.66,1.51-9.17,2.46v-2.05H294.2Zm0,13.42h12.32V426l4.38,8.35H294.2ZM366.9,454H291.46v-4.38H366.9Z"/><path class="faa94326-28c6-4f10-880a-3f4d71760278" d="M438.74,492a89.48,89.48,0,0,0,31.35-11.78,176.12,176.12,0,0,1-13.14-26.29L455,455.13l-12.73-20.4a93.9,93.9,0,0,0,20.54-17.52h-15.2v11.91H436.82v8.49c4.24,7,8.21,12,17,21.08l-10,22.86a111.24,111.24,0,0,1-7-9v43.67H414.23V474c-2.74,7.94-9,19.21-13.09,25.37V460.62c10.82-13.28,10.5-27.81,11.19-31.51h-11.5V406h13.42V384.65h22.59V406h10.41v-11.5h28.61v-9.82h25.47v9.82h29.16V417.2H514.59a63.65,63.65,0,0,0,16.27,14.34v29c-1.78-1.1-11.07-5.5-12.3-6.19-1.37,5.34-6.71,18.07-13,25.74,3.42,2.05,8.17,5.89,25.15,10.68l.16,25.49c-19-6.3-38.86-13.44-43.79-17.27-8.35,6.57-28.87,15.22-43.11,17.27Zm73.11-42.58a112.12,112.12,0,0,1-20.13-22.32l17.8-9.86H491.21c-5.75,9.72-23.17,28.89-28.24,32.45l15.47-6.44a118.72,118.72,0,0,0,10,19.44c2.88-4.11,6.71-14,7.39-18.76Z"/><path class="faa94326-28c6-4f10-880a-3f4d71760278" d="M568.32,321.44v1.84H552.94v-1.84h4.79V319h-3.65v-6.14h3.65v-2.07h-4.5V309h14.82v1.84h-4.67v2.06h3.79V319h-3.79v2.4Zm-8.65-4.11v4.11h1.77v-4.11h3.69v-2.72h-3.69v-3.77h-1.75v3.77h-3.64v2.72Z"/><path class="faa94326-28c6-4f10-880a-3f4d71760278" d="M581.73,316a20.35,20.35,0,0,0-2.79-1.73l1.12-1.48a22.51,22.51,0,0,1,2.87,1.58Zm1.33,2.38c-.56,1.82-1.31,3.77-2,5.44l-1.84-1a49.3,49.3,0,0,0,2.21-5.46Zm-.68-6.82a19.31,19.31,0,0,0-2.79-1.82l1.19-1.48a20,20,0,0,1,2.82,1.67Zm11.86-3V324H592.3v-6.71l-.82.39a14.56,14.56,0,0,0-.87-2.35v8.18h-1.89v-6.27l-1,.42A21.18,21.18,0,0,0,587,315c-.05,3.13-.37,6.41-2.18,9a7.23,7.23,0,0,0-1.73-1.17,10.93,10.93,0,0,0,1.87-5.42l-1.1.41a17.8,17.8,0,0,0-1-4l1.43-.51a17.12,17.12,0,0,1,.83,2.38c0-.49,0-1,0-1.44v-5.66H587v5.13l.88-.34c.32.75.63,1.6.88,2.4v-6.87h1.89v4.47l.58-.25c.37.7.77,1.51,1.1,2.28v-6.83Z"/><path class="faa94326-28c6-4f10-880a-3f4d71760278" d="M620.41,317.14a10.34,10.34,0,0,1-2.09,3.93,9.51,9.51,0,0,0,2.91,1.19,6.67,6.67,0,0,0-1.19,1.56,9.34,9.34,0,0,1-3.06-1.5,11.26,11.26,0,0,1-3,1.63,7.42,7.42,0,0,0-1-1.5V324h-1.89v-1.46c-2,.22-3.94.41-5.47.58l-.15-1.73,1.48-.12v-5.15h-1.33v-1.6h15.09v1.6H613v6.26a8.48,8.48,0,0,0,2.57-1.29,10.37,10.37,0,0,1-1.63-2.6l.61-.17h-1v-1.55h5.3l.32-.07ZM609.56,314h-1.94v-5.32h11.17V314h-2V310h-7.19Zm-.8,2.13v.7h2.35v-.7Zm0,2.77h2.35v-.68h-2.35Zm0,2.21c.75-.07,1.56-.14,2.35-.22v-.59h-2.35Zm7.36-9.25h-6v-1.17h6Zm-6,1.82v-1.17h6v1.17Zm5.59,4.64a6.6,6.6,0,0,0,1.16,1.6,6.4,6.4,0,0,0,1.1-1.6Z"/><path class="faa94326-28c6-4f10-880a-3f4d71760278" d="M641,314.75a11.34,11.34,0,0,0,6.36,7.28,8.15,8.15,0,0,0-1.5,1.9,12.68,12.68,0,0,1-6.37-7.21,11.7,11.7,0,0,1-6.36,7.22,6,6,0,0,0-1.51-1.72,10.19,10.19,0,0,0,6.17-7.48H632v-2.09h6.19c.17-1.6.15-3.15.17-4.54h2.21c0,1.39,0,3-.2,4.54H647v2.09Z"/><path class="faa94326-28c6-4f10-880a-3f4d71760278" d="M661.39,312.88v-.66a17.88,17.88,0,0,1-1.82,1.22h7.17v5.34h-5.9c0,.17-.05.36-.08.53h6.39v4.54h-1.77v-.46h-3.15v.53h-1.68v-3.52a10.87,10.87,0,0,1-1.09,3,9.28,9.28,0,0,0-1.77-.78c1.34-2.16,1.48-5.2,1.48-7.19v-1.72l-.39.2a10.81,10.81,0,0,0-1.05-1.94,11.7,11.7,0,0,0,5-3.86l1.85.73c-.1.15-.2.29-.31.42,1.26.73,2.67,1.56,3.45,2.13l-1,1.7c-.46-.37-1.12-.82-1.85-1.29v1.1Zm3.52,4.5v-.7H661c0,.22,0,.46,0,.7ZM661,314.83v.66h3.86v-.66Zm3.72-3.15-1.61-1c-.36.34-.73.7-1.1,1Zm-2.53,9v1.21h3.15v-1.21Zm7.77-1.34h-1.9v-9.49H670Zm3.11-11.19v13.4c0,1.09-.2,1.63-.83,2a6.44,6.44,0,0,1-2.92.41,8.3,8.3,0,0,0-.6-2l2,0c.27,0,.39-.09.39-.37V308.15Z"/><path class="faa94326-28c6-4f10-880a-3f4d71760278" d="M687.1,319.2a16.24,16.24,0,0,1-1.72,3.48,13.13,13.13,0,0,0-1.33-.92,12.14,12.14,0,0,0,1.5-3Zm2.38-1v5.64h-2v-5.64h-3.16v-1.7h3.16v-1.31h-3.26v-1.67h1.65a10.25,10.25,0,0,0-.49-1.77l1.39-.34h-2.29v-1.65h2.91c-.15-.46-.34-.93-.51-1.34l2-.49c.25.56.56,1.26.76,1.84h2.43v1.65H690l1.38.27c-.25.65-.51,1.31-.77,1.84h1.77v1.67h-2.91v1.31h2.63v1.7ZM687,311.43a8.45,8.45,0,0,1,.56,1.77l-1.22.34h2.45a19.34,19.34,0,0,0,.73-2.11ZM700,315.56h-1.58v8.35h-2v-8.35h-1.58v.2c0,2.5-.22,6-1.67,8.18a7.54,7.54,0,0,0-1.56-1.21,6.64,6.64,0,0,0,.77-1.65l-1.21.75a20.55,20.55,0,0,0-1.33-2.55l1.33-.71a16.83,16.83,0,0,1,1.27,2.23,18.37,18.37,0,0,0,.53-5v-6.05a24.12,24.12,0,0,0,5.15-1.44l1.55,1.48a26.38,26.38,0,0,1-4.83,1.27v2.67H700Z"/><path class="faa94326-28c6-4f10-880a-3f4d71760278" d="M725.28,313.06a19.57,19.57,0,0,1-1.84,6.32,7.86,7.86,0,0,0,3,2.82,7.91,7.91,0,0,0-1.39,1.77,9.1,9.1,0,0,1-2.86-2.72,11.31,11.31,0,0,1-3.6,2.79,8.48,8.48,0,0,0-1.16-1.84,8.53,8.53,0,0,0,3.65-2.91,21.37,21.37,0,0,1-1.16-3.43c-.26.41-.51.82-.78,1.17A12,12,0,0,0,718,316a17,17,0,0,1-2.35,2.19v.42l3-.25v1.72c-1,.1-2,.2-3,.29V322c0,.88-.15,1.34-.75,1.61a6.26,6.26,0,0,1-2.46.29,5.85,5.85,0,0,0-.58-1.72c.66,0,1.39,0,1.62,0s.29-.07.29-.24v-1.46l-3.23.32-.2-1.8c1-.08,2.14-.17,3.43-.29v-.94a12.47,12.47,0,0,0,1.41-1.19h-1.77a15.82,15.82,0,0,1-1.9,1.22,12.34,12.34,0,0,0-1.34-1.53,14.53,14.53,0,0,0,3.23-2.12h-3v-1.73H713v-1.14h-1.94v-1.7H713V308.1h1.87v1.55h1.51v1.09a14.94,14.94,0,0,0,1.1-2.21l1.85.54a18.3,18.3,0,0,1-1.87,3.42h1.21v1.34a20.76,20.76,0,0,0,1.65-5.73l2.06.32c-.17.94-.37,1.89-.61,2.77h4.52v1.87Zm-10.42-.58h.27a11,11,0,0,0,.85-1.14h-1.12Zm2.79,3a8.7,8.7,0,0,0,.82-1.24h-2.38a9.6,9.6,0,0,1-.8.87h1.41l.36-.1Zm3.6-2.4a21.09,21.09,0,0,0,1,4,19.17,19.17,0,0,0,.9-4Z"/><path class="faa94326-28c6-4f10-880a-3f4d71760278" d="M752.15,311.31h-3.54a20.93,20.93,0,0,1,3,2.63l-1.55,1h.71v6.9c0,1.09-.29,1.53-1.1,1.79a15.4,15.4,0,0,1-3.69.22,6.32,6.32,0,0,0-.48-1.72c.93.07,2.33.07,2.62.05s.44-.1.44-.37v-1.22c-2.5.54-5,1.05-7,1.46l-.59-1.78c1.41-.19,3.52-.49,5.73-.83a26.58,26.58,0,0,0-5.34-1.38l.6-1.21a25,25,0,0,1,5.8,1.39l-.53,1.1,1.33-.2v-2.53H741v1.05c0,2-.31,4.76-1.85,6.53a7.25,7.25,0,0,0-1.67-1.19c1.39-1.56,1.53-3.76,1.53-5.37v-2.69H749.7c-.22-.27-.51-.58-.83-.9-8.3.32-9.3.34-10,.59-.1-.39-.41-1.33-.61-1.85a4.06,4.06,0,0,0,1.53-.83,9.14,9.14,0,0,0,.77-.61h-3.43v-1.77h5.34a16.48,16.48,0,0,0,1.44-1.65l2.06.78q-.38.43-.82.87h7Zm-4.95,1.19-1-.78.68-.41h-3.62c-.58.49-1.14.94-1.7,1.34Z"/><path class="faa94326-28c6-4f10-880a-3f4d71760278" d="M766.81,314.19V324h-2v-9.79H763v-1.84h1.85v-4.23h2v4.23h1.65v1.84Zm12,6.1h-2.21v1.79c0,.88-.15,1.34-.8,1.61a7.61,7.61,0,0,1-2.67.27,7.08,7.08,0,0,0-.54-1.7c.78,0,1.65,0,1.89,0s.32-.07.32-.25v-1.73h-3.31c.63.43,1.26.9,1.67,1.21l-1.26,1.36c-.56-.53-1.7-1.38-2.52-2l.59-.6h-2.12v-1.61h7v-.61h.61a9.72,9.72,0,0,0-.51-1.12l1,0c.17,0,.22-.05.22-.2v-.25h-1.84v1.26H772.5V316.5h-1.85V318H769v-6.1h3.55v-.49h-4.06v-1.56h4.06v-1.75h1.85v1.75h1.84l-1.29-.7.92-1.09c.77.34,1.84.88,2.41,1.19l-.46.59h.83v1.56h-4.25v.49H778v4.86c0,.71-.14,1-.61,1.16a2.91,2.91,0,0,1-.71.17v.56h2.19Zm-8.19-7.07v.56h1.85v-.56Zm1.85,2.19v-.53h-1.85v.53Zm1.85-2.19v.56h1.84v-.56Zm1.84,2.19v-.53h-1.84v.53Z"/><path class="faa94326-28c6-4f10-880a-3f4d71760278" d="M802.72,322.31c.53,0,.63-.17.71-1.27a5,5,0,0,0,1.67.61c-.19,1.79-.71,2.23-2.18,2.23h-2.48c-2,0-2.53-.48-2.53-2v-.73h-1.85c-.51,1.67-1.84,2.5-6,2.92a4.84,4.84,0,0,0-.88-1.58c3.28-.19,4.35-.53,4.81-1.34h-2.16v-5.69h10.73v5.69h-2.7v.7c0,.44.14.48.83.48ZM797.13,315h-7.07v-6.39h7v1.16h-2.43v.59h2.11v.32a6,6,0,0,0,1.9-2.53l1.73.25c-.08.2-.17.41-.25.59h4.76v1.26h-5.47c-.1.15-.2.31-.32.46h5v1.12h-5.24V311a7.43,7.43,0,0,1-1,.94,5.31,5.31,0,0,0-1.1-1v2.24h-2.11v.68h2.53Zm-5.37-5.24v.59H793v-.59Zm3.25,1.65h-3.25v.7H795Zm-3.25,2.45H793v-.68h-1.26Zm2,3.2h6.83v-.54h-6.83Zm0,1.53h6.83V318h-6.83Zm0,1.55h6.83v-.56h-6.83Zm4.06-7.85h6.78V315h-6.78Zm1.33,1.8h.66v-.88h-.66Zm1.67,0h.68v-.88h-.68Zm1.68,0h.71v-.88h-.71Z"/><path class="faa94326-28c6-4f10-880a-3f4d71760278" d="M824.94,308.59l-.25.32a16.34,16.34,0,0,0,7.05,3.06,7,7,0,0,0-1.27,1.55c-.34-.08-.7-.2-1.05-.31v4.39H817.6v-4.28c-.36.12-.71.24-1.05.32a10.87,10.87,0,0,0-1.09-1.56c3.13-.73,6.15-2.14,7.7-4.11Zm3.86,4.4a18.81,18.81,0,0,1-2.31-1v.44h-6v-.34a20.56,20.56,0,0,1-2.06.94Zm-10.25,5.17h10v5.75h-2.07v-.41h-5.93V324h-2Zm1.92-1.79a6.71,6.71,0,0,0-.58-1.77l1.31-.37h-1.92v2.14Zm.07,3.11v.68h5.93v-.68Zm5.93,2.69v-.68h-5.93v.68Zm-3.86-7.94h-1.33A7.71,7.71,0,0,1,822,316l-1.09.34h1.73Zm2.45-3.14a16.59,16.59,0,0,1-1.43-1.1c-.44.37-.94.75-1.44,1.1Zm-.82,3.14v2.14h1.58l-1-.29a13.31,13.31,0,0,0,.66-1.85Zm3.37,0h-1.77l1.33.32c-.34.68-.66,1.34-.94,1.82h1.38Z"/><path class="faa94326-28c6-4f10-880a-3f4d71760278" d="M560.16,340.05v1.45H552.8l-.06-1.15,5.37-7.51-5.18.1v-1.45h7l.08,1.23-5.29,7.44Z"/><path class="faa94326-28c6-4f10-880a-3f4d71760278" d="M568.57,341.43v0l-1.36.18a2,2,0,0,1-.36-1.09h0a3,3,0,0,1-2.42,1.09c-1.34,0-2.51-.66-2.51-2.1s1.37-2.66,4.55-2.66h.4c0-1.38-.73-1.86-2-1.86a3.68,3.68,0,0,0-2.23.72h0l-.43-1.22a5.12,5.12,0,0,1,2.89-.77c2.23,0,3.24.88,3.24,3V339A7.21,7.21,0,0,0,568.57,341.43Zm-1.73-3.15v-.35h-.44c-2.26,0-3,.68-3,1.47s.58,1.05,1.34,1.05A2,2,0,0,0,566.84,338.28Z"/><path class="faa94326-28c6-4f10-880a-3f4d71760278" d="M575.74,335.72h0a3.42,3.42,0,0,0-2.13-.78c-.91,0-1.4.39-1.4,1,0,1.61,4.21.67,4.21,3.46,0,1.6-1.39,2.27-3.1,2.27a5.68,5.68,0,0,1-3-.77l.43-1.22h0a3.59,3.59,0,0,0,2.38.81c1,0,1.6-.33,1.6-1,0-1.7-4.18-.78-4.18-3.49,0-1.37,1.07-2.22,3-2.22a4.69,4.69,0,0,1,2.62.74Z"/><path class="faa94326-28c6-4f10-880a-3f4d71760278" d="M585.34,336.61v4.89h-1.57V337c0-1.27-.48-1.91-1.5-1.91s-2.16.68-2.16,2.52v3.92h-1.57V331l1.57-.24v4.17h0a3.21,3.21,0,0,1,2.58-1.18C584.36,333.75,585.34,334.74,585.34,336.61Z"/><path class="faa94326-28c6-4f10-880a-3f4d71760278" d="M594.09,341.43v0l-1.36.18a2,2,0,0,1-.36-1.09h0a3,3,0,0,1-2.42,1.09c-1.34,0-2.51-.66-2.51-2.1s1.37-2.66,4.55-2.66h.4c0-1.38-.73-1.86-2-1.86a3.68,3.68,0,0,0-2.23.72h0l-.43-1.22a5.12,5.12,0,0,1,2.89-.77c2.23,0,3.24.88,3.24,3V339A7.21,7.21,0,0,0,594.09,341.43Zm-1.73-3.15v-.35h-.44c-2.26,0-3,.68-3,1.47s.58,1.05,1.34,1.05A2,2,0,0,0,592.36,338.28Z"/><path class="faa94326-28c6-4f10-880a-3f4d71760278" d="M600.84,335.21c-1.88,0-2.84.73-2.84,2.6v3.69h-1.57v-6.17l-.11-1.31,1.36-.21.26,1.26h0a3.17,3.17,0,0,1,2.77-1.32Z"/><path class="faa94326-28c6-4f10-880a-3f4d71760278" d="M608.6,338.09h-5a2.1,2.1,0,0,0,2.32,2.29,3.28,3.28,0,0,0,2.28-.74h0l.43,1.23a5.82,5.82,0,0,1-2.92.78,3.47,3.47,0,0,1-3.7-3.81c0-2.4,1.48-4.08,3.76-4.08,2,0,3,1.29,3,3.29,0,.27,0,.58,0,.91Zm-1.21-1.49a1.57,1.57,0,0,0-1.68-1.67c-1.09,0-1.88.74-2.06,2.17l3.73-.11A2.64,2.64,0,0,0,607.39,336.59Z"/><path class="faa94326-28c6-4f10-880a-3f4d71760278" d="M621.31,340.09v1.4h-6.63v-10h6.49v1.4l-4.87-.11v3l4.22-.08v1.41l-4.22-.08v3.12Z"/><path class="faa94326-28c6-4f10-880a-3f4d71760278" d="M630.61,341.5H628.8l-2.06-3-2.09,3h-1.73v0l2.85-3.83-2.66-3.47v0l1.71-.27,2,2.84,1.91-2.82h1.72v0l-2.68,3.72Z"/><path class="faa94326-28c6-4f10-880a-3f4d71760278" d="M639.42,337.46c0,2.69-1.49,4.18-3.84,4.18a4.88,4.88,0,0,1-1.65-.27v2.71l-1.56.25v-9l-.12-1.31,1.35-.21.26,1.14h.06a2.9,2.9,0,0,1,2.47-1.2C638.22,333.75,639.42,335.06,639.42,337.46Zm-1.64.18c0-1.76-.7-2.61-1.77-2.61s-2.07.77-2.07,2.54V340a2.5,2.5,0,0,0,1.54.39C637,340.37,637.78,339.51,637.78,337.64Z"/><path class="faa94326-28c6-4f10-880a-3f4d71760278" d="M641.24,337.7a3.81,3.81,0,1,1,3.81,3.94A3.6,3.6,0,0,1,641.24,337.7Zm6,0c0-1.73-.84-2.67-2.19-2.67s-2.18.95-2.19,2.68.84,2.68,2.19,2.68S647.25,339.42,647.24,337.69Z"/><path class="faa94326-28c6-4f10-880a-3f4d71760278" d="M659.76,331.06l-.4,1.15h0a1.8,1.8,0,0,0-1.09-.34c-1,0-1.53.48-1.53,1.87V334l2.36-.13-.08,1.34h-2.29v6.26h-1.57v-6.26h-1.39v-1.16l1.39-.13v-.39a2.65,2.65,0,0,1,2.9-2.93A3.38,3.38,0,0,1,659.76,331.06Z"/><path class="faa94326-28c6-4f10-880a-3f4d71760278" d="M660.29,337.7a3.81,3.81,0,1,1,3.81,3.94A3.6,3.6,0,0,1,660.29,337.7Zm6,0c0-1.73-.84-2.67-2.19-2.67s-2.18.95-2.19,2.68.84,2.68,2.19,2.68S666.3,339.42,666.29,337.69Z"/><path class="faa94326-28c6-4f10-880a-3f4d71760278" d="M674.51,335.21c-1.88,0-2.84.73-2.84,2.6v3.69H670.1v-6.17L670,334l1.36-.21.26,1.26h0a3.17,3.17,0,0,1,2.77-1.32Z"/><path class="faa94326-28c6-4f10-880a-3f4d71760278" d="M679.94,331.49h1.63v10h-1.63Z"/><path class="faa94326-28c6-4f10-880a-3f4d71760278" d="M691.18,336.61v4.89h-1.57V337c0-1.27-.48-1.91-1.5-1.91s-2.16.68-2.16,2.52v3.92h-1.57v-6.17l-.11-1.31,1.36-.21.26,1.16h0a3.41,3.41,0,0,1,2.67-1.22C690.2,333.75,691.18,334.74,691.18,336.61Z"/><path class="faa94326-28c6-4f10-880a-3f4d71760278" d="M700.55,336.61v4.89H699V337c0-1.27-.48-1.91-1.5-1.91s-2.16.68-2.16,2.52v3.92h-1.57v-6.17l-.11-1.31,1.36-.21.26,1.16h0a3.41,3.41,0,0,1,2.67-1.22C699.57,333.75,700.55,334.74,700.55,336.61Z"/><path class="faa94326-28c6-4f10-880a-3f4d71760278" d="M702.7,337.7a3.81,3.81,0,1,1,3.81,3.94A3.6,3.6,0,0,1,702.7,337.7Zm6,0c0-1.73-.84-2.67-2.19-2.67s-2.18.95-2.19,2.68.84,2.68,2.19,2.68S708.71,339.42,708.7,337.69Z"/><path class="faa94326-28c6-4f10-880a-3f4d71760278" d="M719.17,333.89,716,341.5h-1.43L711.39,334l1.7-.23,1.47,4c.24.7.48,1.51.68,2.19h.13c.17-.63.39-1.36.69-2.19l1.48-3.88Z"/><path class="faa94326-28c6-4f10-880a-3f4d71760278" d="M727.12,341.43v0l-1.36.18a2,2,0,0,1-.36-1.09h0a3,3,0,0,1-2.42,1.09c-1.34,0-2.51-.66-2.51-2.1s1.37-2.66,4.55-2.66h.4c0-1.38-.73-1.86-2-1.86a3.68,3.68,0,0,0-2.23.72h0l-.43-1.22a5.12,5.12,0,0,1,2.89-.77c2.23,0,3.24.88,3.24,3V339A7.21,7.21,0,0,0,727.12,341.43Zm-1.73-3.15v-.35H725c-2.26,0-3,.68-3,1.47s.58,1.05,1.34,1.05A2,2,0,0,0,725.39,338.28Z"/><path class="faa94326-28c6-4f10-880a-3f4d71760278" d="M734,341.12a3.59,3.59,0,0,1-1.87.52,2,2,0,0,1-2.17-2.25v-4.17h-1.43v-1.15l1.43-.13.12-1.76,1.42-.24V334l2.3-.12-.08,1.32h-2.22v4c0,.75.31,1.1,1,1.1a2.07,2.07,0,0,0,1.12-.37h0Z"/><path class="faa94326-28c6-4f10-880a-3f4d71760278" d="M735.58,331.78a1,1,0,0,1,1.08-.92c.61,0,1,.35,1,.86a1,1,0,0,1-1.07.93C736,332.65,735.58,332.3,735.58,331.78Zm.23,2.36,1.57-.24v7.61h-1.57Z"/><path class="faa94326-28c6-4f10-880a-3f4d71760278" d="M746.92,333.89l-3.19,7.61H742.3L739.14,334l1.7-.23,1.47,4c.24.7.48,1.51.68,2.19h.13c.17-.63.39-1.36.69-2.19l1.48-3.88Z"/><path class="faa94326-28c6-4f10-880a-3f4d71760278" d="M754.43,338.09h-5a2.1,2.1,0,0,0,2.32,2.29,3.28,3.28,0,0,0,2.28-.74h0l.43,1.23a5.82,5.82,0,0,1-2.92.78,3.47,3.47,0,0,1-3.7-3.81c0-2.4,1.48-4.08,3.76-4.08,2,0,3,1.29,3,3.29,0,.27,0,.58,0,.91Zm-1.21-1.49a1.57,1.57,0,0,0-1.68-1.67c-1.09,0-1.88.74-2.06,2.17l3.73-.11A2.64,2.64,0,0,0,753.23,336.59Z"/><path class="faa94326-28c6-4f10-880a-3f4d71760278" d="M767.14,340.09v1.4h-6.63v-10H767v1.4l-4.87-.11v3l4.22-.08v1.41l-4.22-.08v3.12Z"/><path class="faa94326-28c6-4f10-880a-3f4d71760278" d="M776.14,341.43v0l-1.4.18a2.63,2.63,0,0,1-.4-1.19h0a3,3,0,0,1-2.47,1.19c-1.78,0-3-1.35-3-3.73,0-2.68,1.53-4.16,3.87-4.16a4.67,4.67,0,0,1,1.59.26v-3l1.57-.24V339A7.19,7.19,0,0,0,776.14,341.43ZM774.3,338v-2.47a2.35,2.35,0,0,0-1.56-.5c-1.37,0-2.29.9-2.29,2.8,0,1.65.69,2.54,1.8,2.54S774.26,339.69,774.3,338Z"/><path class="faa94326-28c6-4f10-880a-3f4d71760278" d="M785.35,341.43v0l-1.41.18a2.3,2.3,0,0,1-.38-1.09h-.06a3.23,3.23,0,0,1-2.54,1.09c-1.52,0-2.53-.93-2.53-2.86V334l1.57-.22v4.68c0,1.38.57,1.9,1.5,1.9a1.88,1.88,0,0,0,2-2v-4.42h1.57v5.38A6.73,6.73,0,0,0,785.35,341.43Z"/><path class="faa94326-28c6-4f10-880a-3f4d71760278" d="M788.92,337.77c0,1.71.77,2.56,2.18,2.56a3.38,3.38,0,0,0,2.11-.72h0l.44,1.25a5.48,5.48,0,0,1-2.77.78c-2.31,0-3.61-1.62-3.61-3.88a3.66,3.66,0,0,1,3.84-4,4.06,4.06,0,0,1,2.47.71l-.45,1.23h0a3.3,3.3,0,0,0-2-.65C789.81,335,788.92,335.93,788.92,337.77Z"/><path class="faa94326-28c6-4f10-880a-3f4d71760278" d="M801.88,341.43v0l-1.36.18a2,2,0,0,1-.36-1.09h0a3,3,0,0,1-2.42,1.09c-1.34,0-2.51-.66-2.51-2.1s1.37-2.66,4.55-2.66h.4c0-1.38-.73-1.86-2-1.86a3.68,3.68,0,0,0-2.23.72h0l-.43-1.22a5.12,5.12,0,0,1,2.89-.77c2.23,0,3.24.88,3.24,3V339A7.21,7.21,0,0,0,801.88,341.43Zm-1.73-3.15v-.35h-.44c-2.26,0-3,.68-3,1.47s.58,1.05,1.34,1.05A2,2,0,0,0,800.15,338.28Z"/><path class="faa94326-28c6-4f10-880a-3f4d71760278" d="M808.79,341.12a3.59,3.59,0,0,1-1.87.52,2,2,0,0,1-2.17-2.25v-4.17h-1.43v-1.15l1.43-.13.12-1.76,1.42-.24V334l2.3-.12-.08,1.32H806.3v4c0,.75.31,1.1,1,1.1a2.07,2.07,0,0,0,1.12-.37h0Z"/><path class="faa94326-28c6-4f10-880a-3f4d71760278" d="M810.34,331.78a1,1,0,0,1,1.08-.92c.61,0,1,.35,1,.86a1,1,0,0,1-1.07.93C810.73,332.65,810.34,332.3,810.34,331.78Zm.23,2.36,1.57-.24v7.61h-1.57Z"/><path class="faa94326-28c6-4f10-880a-3f4d71760278" d="M814.32,337.7a3.81,3.81,0,1,1,3.81,3.94A3.6,3.6,0,0,1,814.32,337.7Zm6,0c0-1.73-.84-2.67-2.19-2.67s-2.18.95-2.19,2.68.84,2.68,2.19,2.68S820.32,339.42,820.31,337.69Z"/><path class="faa94326-28c6-4f10-880a-3f4d71760278" d="M830.93,336.61v4.89h-1.57V337c0-1.27-.48-1.91-1.5-1.91s-2.16.68-2.16,2.52v3.92h-1.57v-6.17L824,334l1.36-.21.26,1.16h0a3.41,3.41,0,0,1,2.67-1.22C829.95,333.75,830.93,334.74,830.93,336.61Z"/><path class="faa94326-28c6-4f10-880a-3f4d71760278" d="M568,481.95v1.24h-6.58v.56h5.2v1.17H554.38v-1.17h5v-.56H553v-1.24h6.43v-.85h2v.85Zm-6.58,13.31h6.48v1.36H553.12v-1.36h6.31v-.54h-4.66v-1.19h4.66V493a17.27,17.27,0,0,0-3.79.24c-.07-.27-.27-.9-.41-1.26a3.92,3.92,0,0,0,.88-.22,9.71,9.71,0,0,0,1.16-.49H555V491h-1.77v-2.53h14.65V491h-1.9v-1.27H555v.49h10.88v1.07h-1.21a16,16,0,0,1,1.89,1.31l-1.1.92h1v1.19h-5Zm4.67-9.84V488H555v-2.57Zm-2,1h-7.31v.6h7.31Zm-4.69,4.9c-.39.24-.77.46-1.14.65l4.66-.07-.92-.51.08-.07Zm2,2.23h3.81c-.2-.19-.48-.41-.77-.63l-3,.08Z"/><path class="faa94326-28c6-4f10-880a-3f4d71760278" d="M597.54,492.08l.36,1.8c-2.4,1-5,2.07-7,2.87l-.9-2.07h0c1.16-.36,2.79-.92,4.52-1.51v-6h-3.93v-2h3.93v-3.74h2.11v11Zm5.54,2.41c.63,0,.73-.8.83-3.84a6.05,6.05,0,0,0,1.94,1c-.19,3.52-.66,4.86-2.58,4.86h-2c-1.87,0-2.43-.71-2.43-3.06v-12h2.11v3.71h4.44v2h-4.44v6.32c0,.92.08,1.07.65,1.07Z"/><path class="faa94326-28c6-4f10-880a-3f4d71760278" d="M636.59,492.42v.85h5.66v1.67h-5.66v2h-2v-2h-5.64v-1.67h5.64v-.85H628v-1.75h6.63v-3.84h-6.2v-1.65h14.53v1.65h-6.32v3.84h6.8v1.75Zm-4.93-8.58h-3.6v-1.77h3.6v-1h2v1h1.73v1.77h-1.73v1h-2Zm.7,3.3v.73h1.56v1.7h-1.56v.82h-1.87v-.82h-2.12v-1.7h2.12v-.73Zm5.18-3.3h-1.63v-1.77h1.63v-1h2v1h3.69v1.77h-3.69v1h-2Zm1.36,6.54v-.9h-1.65v-1.7h1.65v-.65h1.87v.65h2v1.7h-2v.9Z"/><path class="faa94326-28c6-4f10-880a-3f4d71760278" d="M680.17,484.69v12.26H678v-1.21H666.35v-11h2.07v8.91h3.72V481.22h2.13v12.44H678v-9Z"/><path class="faa94326-28c6-4f10-880a-3f4d71760278" d="M716,485.93a17.82,17.82,0,0,1-3.5,6.08,16.46,16.46,0,0,0,6.43,2.94,9.35,9.35,0,0,0-1.36,1.89,17,17,0,0,1-6.65-3.33,18.84,18.84,0,0,1-6.88,3.43,10.16,10.16,0,0,0-1.22-1.89,17.47,17.47,0,0,0,6.61-3,19.08,19.08,0,0,1-3.62-6.12h-2.67v-2h7.17a13,13,0,0,0-1-2.4l2.16-.63a14.52,14.52,0,0,1,1.16,2.57l-1.46.46h7.39v2Zm-8.11,0a14.63,14.63,0,0,0,3.06,4.71,13.7,13.7,0,0,0,2.77-4.71Z"/><path class="faa94326-28c6-4f10-880a-3f4d71760278" d="M744,485.88v-.66a17.88,17.88,0,0,1-1.82,1.22h7.17v5.34h-5.9c0,.17-.05.36-.08.53h6.39v4.54H748v-.46h-3.15v.53h-1.68v-3.52a10.87,10.87,0,0,1-1.09,3,9.28,9.28,0,0,0-1.77-.78c1.34-2.16,1.48-5.2,1.48-7.19v-1.72l-.39.2a10.81,10.81,0,0,0-1.05-1.94,11.7,11.7,0,0,0,5-3.86l1.85.73c-.1.15-.2.29-.31.42,1.26.73,2.67,1.56,3.45,2.13l-1,1.7c-.46-.37-1.12-.82-1.85-1.29v1.1Zm3.52,4.5v-.7H743.6c0,.22,0,.46,0,.7Zm-3.86-2.55v.66h3.86v-.66Zm3.72-3.15-1.61-1c-.36.34-.73.7-1.1,1Zm-2.53,9v1.21H748v-1.21Zm7.77-1.34h-1.9v-9.49h1.9Zm3.11-11.19v13.4c0,1.09-.2,1.63-.83,2a6.44,6.44,0,0,1-2.92.41,8.3,8.3,0,0,0-.6-2l2,0c.27,0,.39-.09.39-.37V481.15Z"/><path class="faa94326-28c6-4f10-880a-3f4d71760278" d="M793.17,481.75V497h-2v-.61H780.57V497h-1.9V481.75Zm-2,12.82v-11H780.57v11Zm-4.59-2.29a5.84,5.84,0,0,0,0,1.22,18.23,18.23,0,0,0-3.67,1.05,3.21,3.21,0,0,0-.46-1,.89.89,0,0,0,.56-1v-.61c-.46.17-.92.32-1.34.46a11.4,11.4,0,0,0-1-1.12,15,15,0,0,0,3.23-1H782v-2.43h7.84v2.43H786.2a8.43,8.43,0,0,1-1.72,1.05v1.44Zm4-4.91h-9.45v-1.12h3.79v-.66h-3v-1.09h3v-.71h1.84v.71h3.13v1.09h-3.13v.66h3.82Zm-6.9,2h4.39v-.7H783.7Zm7.09,1.84a11.23,11.23,0,0,1-1.43.9,17.39,17.39,0,0,1,1.5,1.16l-1.29.77a29.38,29.38,0,0,0-4.06-3l1.22-.68c.48.29,1,.65,1.58,1a13.38,13.38,0,0,0,1.29-1Z"/><path class="faa94326-28c6-4f10-880a-3f4d71760278" d="M827.87,494.51a20.08,20.08,0,0,0,3.13-.22c.07.49.19,1.41.29,1.89a19.54,19.54,0,0,1-3.52.19h-6.7c-3,0-4.4-.92-4.4-4v-8.84H816v-1.79h14.45v1.79H818.65v9c0,1.48.49,2.06,2.24,2.06Zm-8.45-5.46h4.69v4.57h-4.69Zm1.63,3.21h1.33v-1.85h-1.33Zm6.78-4h-6.68v-4h6.68Zm-2-2.72H823V487h2.79Zm3.82,8h-4.79v-4.57h4.79Zm-1.75-3.21h-1.38v1.85h1.38Z"/><path class="faa94326-28c6-4f10-880a-3f4d71760278" d="M560.28,505.88l-3.15,0v8.65H555.5v-8.67l-3.14,0v-1.3h7.92Z"/><path class="faa94326-28c6-4f10-880a-3f4d71760278" d="M566.49,511.82l-4.09-.06-1,2.74h-1.64l3.91-10h1.66l3.91,10h-1.7Zm-3.66-1.29h3.22l-1-2.83c-.23-.62-.4-1.15-.53-1.66h-.07a17.25,17.25,0,0,1-.53,1.68Z"/><path class="faa94326-28c6-4f10-880a-3f4d71760278" d="M570.76,504.49h1.63v10h-1.63Z"/><path class="faa94326-28c6-4f10-880a-3f4d71760278" d="M582.45,507.73c0,2.33-1.68,3.6-4.58,3.6a11.6,11.6,0,0,1-1.26-.07v3.24H575v-10a16.69,16.69,0,0,1,2.46-.2C581.06,504.34,582.45,505.62,582.45,507.73Zm-1.66.08c0-1.64-1.07-2.2-3.35-2.2-.25,0-.52,0-.83,0V510a10.22,10.22,0,0,0,1.19.07C579.83,510.06,580.78,509.36,580.78,507.81Z"/><path class="faa94326-28c6-4f10-880a-3f4d71760278" d="M590.8,513.09v1.4h-6.63v-10h6.49v1.4l-4.87-.11v3l4.22-.08v1.41l-4.22-.08v3.12Z"/><path class="faa94326-28c6-4f10-880a-3f4d71760278" d="M592.76,504.49h1.63v10h-1.63Z"/><path class="faa94326-28c6-4f10-880a-3f4d71760278" d="M601.8,509.17a1.44,1.44,0,1,1-1.44-1.44A1.44,1.44,0,0,1,601.8,509.17Z"/><path class="faa94326-28c6-4f10-880a-3f4d71760278" d="M614.41,504.49v10h-1.63v-4.37l-5-.07v4.44h-1.63v-10h1.63v4.31l5,0v-4.27Z"/><path class="faa94326-28c6-4f10-880a-3f4d71760278" d="M625.09,504.49v6c0,2.31-1.16,4.17-4.1,4.17s-4.06-1.82-4.06-4.17v-6h1.63v6c0,1.58.58,2.71,2.42,2.71s2.48-1.12,2.48-2.71v-6Z"/><path class="faa94326-28c6-4f10-880a-3f4d71760278" d="M632.81,511.82l-4.09-.06-1,2.74h-1.64l3.91-10h1.66l3.91,10h-1.7Zm-3.66-1.29h3.22l-1-2.83c-.23-.62-.4-1.15-.53-1.66h-.07a17.25,17.25,0,0,1-.53,1.68Z"/><path class="faa94326-28c6-4f10-880a-3f4d71760278" d="M642.85,506.49a4,4,0,0,0-2.37-.76c-1.29,0-2,.48-2,1.3,0,2.19,5.08,1.27,5.08,4.68,0,1.81-1.43,2.91-3.72,2.91a6.2,6.2,0,0,1-3.27-.89l.46-1.46h0a4.28,4.28,0,0,0,2.79,1c1.34,0,2-.47,2-1.37,0-2.38-5.06-1.32-5.06-4.77,0-1.72,1.26-2.75,3.62-2.75a5.76,5.76,0,0,1,2.84.7l-.46,1.43Z"/><path class="faa94326-28c6-4f10-880a-3f4d71760278" d="M653.87,504.49v10h-1.63v-4.37l-5-.07v4.44H645.6v-10h1.63v4.31l5,0v-4.27Z"/><path class="faa94326-28c6-4f10-880a-3f4d71760278" d="M662.17,511.82l-4.09-.06-1,2.74h-1.64l3.91-10H661l3.91,10h-1.7Zm-3.66-1.29h3.22l-1-2.83c-.23-.62-.4-1.15-.53-1.66h-.07a17.25,17.25,0,0,1-.53,1.68Z"/><path class="faa94326-28c6-4f10-880a-3f4d71760278" d="M674.77,504.49v10h-1.38l-3.71-5c-.71-.95-1.43-2-1.81-2.56,0,.69.08,2,.08,3.22v4.31h-1.5v-10h1.31l3.77,5c.73,1,1.46,2,1.83,2.59,0-.69-.09-2-.09-3.24v-4.31Z"/><path class="faa94326-28c6-4f10-880a-3f4d71760278" d="M689.38,513.26v1.23h-5.93v-1.23h2.32V508.1l-2.32.06v-1.27h3.88v6.38Z"/><path class="faa94326-28c6-4f10-880a-3f4d71760278" d="M697.14,510.72a6.36,6.36,0,0,1-6.52,6.45l-.44-1.27,0-.05c2.89,0,4.59-1.38,5.14-3.33a3.82,3.82,0,0,1-2.1.58,3,3,0,0,1-3.32-3.08,3.23,3.23,0,0,1,3.56-3.26C695.84,506.75,697.14,508.27,697.14,510.72Zm-3.71,1.17a3.66,3.66,0,0,0,2.08-.63,4.49,4.49,0,0,0,.09-.87,2.08,2.08,0,0,0-2.14-2.35,1.77,1.77,0,0,0-1.89,2A1.7,1.7,0,0,0,693.43,511.88Z"/><path class="faa94326-28c6-4f10-880a-3f4d71760278" d="M704.44,513.26v1.23h-5.93v-1.23h2.32V508.1l-2.32.06v-1.27h3.88v6.38Z"/><path class="faa94326-28c6-4f10-880a-3f4d71760278" d="M713.23,514.39h-1.48v2.21h-1.52v-2.21h-4.57v-1l4.51-6.46h1.58v6.34l1.52,0Zm-6.06-1.07,3.1-.06V508.8Z"/><path class="faa94326-28c6-4f10-880a-3f4d71760278" d="M722.7,509.56c0,2.27,1,3.63,3.11,3.63a3.93,3.93,0,0,0,2.49-.83h0l.48,1.41a5.87,5.87,0,0,1-3.15.86c-3,0-4.63-2.16-4.63-5.11s1.59-5.18,4.83-5.18a5.6,5.6,0,0,1,2.85.7l-.5,1.48h0a3.71,3.71,0,0,0-2.31-.74C723.77,505.79,722.7,507.26,722.7,509.56Z"/><path class="faa94326-28c6-4f10-880a-3f4d71760278" d="M738.29,514.47v0l-1.86.11a27.39,27.39,0,0,1-2.59-4h-1.72v3.89h-1.63v-10a20.94,20.94,0,0,1,2.47-.17c3.75,0,5,1.35,5,3.09a3,3,0,0,1-2.45,3A29.78,29.78,0,0,0,738.29,514.47Zm-6.17-5.1h1.94c1.44,0,2.23-.64,2.23-1.85s-.9-1.9-3.34-1.9l-.84,0Z"/><path class="faa94326-28c6-4f10-880a-3f4d71760278" d="M746.67,513.09v1.4H740v-10h6.49v1.4l-4.87-.11v3l4.22-.08v1.41l-4.22-.08v3.12Z"/><path class="faa94326-28c6-4f10-880a-3f4d71760278" d="M754.66,511.82l-4.09-.06-1,2.74h-1.64l3.91-10h1.66l3.91,10h-1.7ZM751,510.54h3.22l-1-2.83c-.23-.62-.4-1.15-.53-1.66h-.07a17.25,17.25,0,0,1-.53,1.68Z"/><path class="faa94326-28c6-4f10-880a-3f4d71760278" d="M764.77,505.88l-3.15,0v8.65H760v-8.67l-3.14,0v-1.3h7.92Z"/><path class="faa94326-28c6-4f10-880a-3f4d71760278" d="M766.41,504.49H768v10h-1.63Z"/><path class="faa94326-28c6-4f10-880a-3f4d71760278" d="M779,504.49l-3.79,10H773.5l-3.88-9.84,1.75-.27,2.21,6.08c.28.8.53,1.56.77,2.46h.05c.24-.9.5-1.66.77-2.46l2.1-6Z"/><path class="faa94326-28c6-4f10-880a-3f4d71760278" d="M787.19,513.09v1.4h-6.63v-10h6.49v1.4l-4.87-.11v3l4.22-.08v1.41l-4.22-.08v3.12Z"/><path class="faa94326-28c6-4f10-880a-3f4d71760278" d="M803.23,507.73c0,2.33-1.68,3.6-4.58,3.6a11.6,11.6,0,0,1-1.26-.07v3.24h-1.63v-10a16.69,16.69,0,0,1,2.46-.2C801.85,504.34,803.23,505.62,803.23,507.73Zm-1.66.08c0-1.64-1.07-2.2-3.35-2.2-.25,0-.52,0-.83,0V510a10.22,10.22,0,0,0,1.19.07C800.61,510.06,801.57,509.36,801.57,507.81Z"/><path class="faa94326-28c6-4f10-880a-3f4d71760278" d="M810,511.82l-4.09-.06-1,2.74h-1.64l3.91-10h1.66l3.91,10H811Zm-3.66-1.29h3.22l-1-2.83c-.23-.62-.4-1.15-.53-1.66h-.07a17.25,17.25,0,0,1-.53,1.68Z"/><path class="faa94326-28c6-4f10-880a-3f4d71760278" d="M822.06,514.47v0l-1.86.11a27.39,27.39,0,0,1-2.59-4h-1.72v3.89h-1.63v-10a20.94,20.94,0,0,1,2.47-.17c3.75,0,5,1.35,5,3.09a3,3,0,0,1-2.45,3A29.78,29.78,0,0,0,822.06,514.47Zm-6.17-5.1h1.94c1.44,0,2.23-.64,2.23-1.85s-.9-1.9-3.34-1.9l-.84,0Z"/><path class="faa94326-28c6-4f10-880a-3f4d71760278" d="M832,514.46v0l-2,.15a26.52,26.52,0,0,1-4.13-4.65h-.42v4.5h-1.63v-10h1.63V509h.34l3.85-4.47h1.88v0l-4.27,4.89A31.54,31.54,0,0,0,832,514.46Z"/><path class="faa94326-28c6-4f10-880a-3f4d71760278" d="M655.25,673.29l-2.87,0v7.63H650.3v-7.65l-2.86,0v-1.66h7.8Z"/><path class="faa94326-28c6-4f10-880a-3f4d71760278" d="M661.67,677.21a27.59,27.59,0,0,0,2.4,3.64v0l-2.34.07a21.86,21.86,0,0,1-2.11-3.49h-1.26v3.42h-2.08v-9.31a22.75,22.75,0,0,1,2.64-.19c3.59,0,4.82,1.27,4.82,3a2.81,2.81,0,0,1-2.07,2.81ZM658.36,676h1.49c1.14,0,1.79-.55,1.79-1.54s-.72-1.6-2.63-1.6l-.65,0Z"/><path class="faa94326-28c6-4f10-880a-3f4d71760278" d="M669.47,677.73v3.15h-2.08v-3.13l-3.35-6,2.25-.26,1.49,3a14.75,14.75,0,0,1,.7,1.8h.13a13.13,13.13,0,0,1,.68-1.79l1.45-2.91h2.15Z"/><path class="faa94326-28c6-4f10-880a-3f4d71760278" d="M684.21,673.29l-2.87,0v7.63h-2.08v-7.65l-2.86,0v-1.66h7.8Z"/><path class="faa94326-28c6-4f10-880a-3f4d71760278" d="M690.64,677.21a27.59,27.59,0,0,0,2.4,3.64v0l-2.34.07a21.87,21.87,0,0,1-2.11-3.49h-1.26v3.42h-2.08v-9.31a22.75,22.75,0,0,1,2.64-.19c3.59,0,4.82,1.27,4.82,3a2.81,2.81,0,0,1-2.07,2.81ZM687.32,676h1.49c1.14,0,1.79-.55,1.79-1.54s-.72-1.6-2.63-1.6l-.65,0Z"/><path class="faa94326-28c6-4f10-880a-3f4d71760278" d="M698.43,677.73v3.15h-2.08v-3.13l-3.35-6,2.25-.26,1.49,3a14.75,14.75,0,0,1,.7,1.8h.13a13.13,13.13,0,0,1,.68-1.79l1.45-2.91h2.15Z"/><path class="faa94326-28c6-4f10-880a-3f4d71760278" d="M711.77,673.8a4.08,4.08,0,0,0-2.28-.74c-1,0-1.58.38-1.56,1,.06,1.7,4.63,1,4.63,4.18,0,1.76-1.41,2.78-3.71,2.78a6.41,6.41,0,0,1-3.24-.81l.51-1.76h0a4.08,4.08,0,0,0,2.61.91c1.08,0,1.67-.36,1.67-1,0-1.82-4.59-1-4.59-4.23,0-1.69,1.26-2.67,3.62-2.67a5.94,5.94,0,0,1,2.86.68l-.51,1.7Z"/><path class="faa94326-28c6-4f10-880a-3f4d71760278" d="M720.43,679.22v1.66h-6.52v-9.34h6.39v1.66l-4.31-.1v2.34l3.72-.07V677l-3.72-.07v2.4Z"/><path class="faa94326-28c6-4f10-880a-3f4d71760278" d="M728.4,679.22v1.66h-6.52v-9.34h6.39v1.66l-4.31-.1v2.34l3.72-.07V677l-3.72-.07v2.4Z"/><path class="faa94326-28c6-4f10-880a-3f4d71760278" d="M733,679.9a1.14,1.14,0,0,1,1.24-1.16,1.07,1.07,0,0,1,1.19,1.09,1.15,1.15,0,0,1-1.24,1.17A1.07,1.07,0,0,1,733,679.9Zm.1-8.78,2.23-.33h0l-.34,6.91h-1.58Z"/><path class="faa94326-28c6-4f10-880a-3f4d71760278" d="M605.28,638.89l.05-.35-2.83-.13,0,.28a23.64,23.64,0,0,1-.66,3h-7.33v2.81h6.29a15.1,15.1,0,0,1-6.66,7.11l-.31.17,1.58,2.43.26-.14a17.91,17.91,0,0,0,3.7-2.62v9.81h2.81v-4.59h8v1.79h-1.89v2.81h4.7v-15.5h-9.61l.53-1.25h12.32v-2.81H604.74C605,640.77,605.14,639.84,605.28,638.89Zm4.86,13.69v1.25h-8v-1.25Zm-8-2.81v-1.25h8v1.25Z"/><path class="faa94326-28c6-4f10-880a-3f4d71760278" d="M669.49,654.08a27.46,27.46,0,0,0,2.68-8.43h2.13v-2.81h-7.08a40.31,40.31,0,0,0,.77-4.08l0-.33-2.68-.23,0,.3a26.14,26.14,0,0,1-1.82,6.76v-1.88h-4.86v-1.52h3.78v-2.81H652v2.81h3.78v1.52H651v2.81h2.16v10l-2.23.56.64,2.71,7-1.6v3.43h2.81V659.5l1.53,1.92.25-.17a19,19,0,0,0,4.79-4.64,20,20,0,0,0,5.3,4.65l.25.15,1.69-2.2-.3-.19A18.64,18.64,0,0,1,669.49,654.08Zm-11,.22v.77l-2.6.57v-1.34Zm0-4.05v1.25h-2.6v-1.25Zm-2.6-2.81V646.2h2.6v1.25Zm5.4-1.25h1.74a18.34,18.34,0,0,1-1.66,2.75l-.08.11Zm4.87-.39.06-.15h3.16a24.66,24.66,0,0,1-1.59,5.5A22,22,0,0,1,666.21,645.81Zm-4.87,13.29v-9.81l2.14,1.59.85-1.33a20.21,20.21,0,0,0,1.93,4.57,16.66,16.66,0,0,1-4.84,4.92Z"/><path class="faa94326-28c6-4f10-880a-3f4d71760278" d="M726.33,648h4.32v-2.61h-4.32v-.83h5.4v-6.07H717.58v6.07h5.94v.83h-4.86V648h4.86v.83h-7v1.67l-.21-.5-1.31.44V645.4h2.16v-2.81H715v-4.32h-2.81v4.32h-2.7v2.81h2.7v6.09l-2.89,1.12,1,2.62,1.93-.74v3.78h-1.62v2.81H715v-7.61l2.06-.73v2.18h6.48v.83h-5.4v2.61h5.4v3h2.81v-3h4.86v-2.61h-4.86v-.83h5.94v-2.61h-3l.41-.83h3.17v-2.61h-6.48Zm1.62-5.73v-1.47h1v1.47Zm-1.43,9.17-.4.83H723.7l-.41-.83Zm-2.36-9.17v-1.47h1v1.47Zm-2.81-1.47v1.47h-1v-1.47Zm-4.47,10.64h3.29l.4.83h-3.34Z"/><path class="faa94326-28c6-4f10-880a-3f4d71760278" d="M788.07,648v-8.84h-5.68v1l-.79-1.36-2.55,1.44L777,639.11l-.41.7-.41-1.81-5,1.2h-1.14V648h-2.11v5.46h2.81v-2.87H787.4v2.87h2.81V648Zm-2.46-.53V648h-4.23l.89-1.54-.94-.54,1.06-.27v1.82Zm-8.8-5.85-1.06.6V642h-3.22v-.65l3.68-.88-.34.59Zm-.67,6.39h-3.61v-.53h3.22v-.14Zm2.95-.76,1.33.76h-2.67Zm0-2.63-1.48-.84,1.5-.85,1.48.84Zm-3.19.78.94.54-1.06.6v-1.1h-3.22v-1.29h3.22V643l.75,1.3Zm9.75-3.95V642h-3.22v1.81h3.22v1.5h-2.94l-1-2.1.63-1.09-.94-.54,1.06-.6v.45Z"/><polygon class="faa94326-28c6-4f10-880a-3f4d71760278" points="786.07 653.25 784.45 651.13 772.81 651.13 772.81 653.7 779.9 653.7 778.8 654.25 777.68 654.25 777.68 655.7 767.95 655.7 767.95 658.26 777.68 658.26 777.68 659.34 776.05 659.34 776.05 661.63 780.48 661.63 780.48 658.26 790.21 658.26 790.21 655.7 780.57 655.7 786.07 653.25"/><line class="dd92056f-fd34-4269-b525-b8774eb9ca8e" x1="635.78" y1="647.76" x2="631.25" y2="652.29"/><line class="dd92056f-fd34-4269-b525-b8774eb9ca8e" x1="694.52" y1="647.76" x2="689.99" y2="652.29"/><line class="dd92056f-fd34-4269-b525-b8774eb9ca8e" x1="752.63" y1="647.76" x2="748.1" y2="652.29"/><line class="bd88e8c6-adce-4a71-a25c-85f294a438de" x1="127" y1="596.5" x2="831" y2="596.5"/><line class="bd88e8c6-adce-4a71-a25c-85f294a438de" x1="557" y1="627" x2="557" y2="692"/></g><g id="a63f25f0-7a09-4c02-887d-c13ce774370b" data-name="menu"><rect class="89efafdd-f9d0-4eb9-b33e-eea9720ca48d" width="1920" height="65"/><polygon class="faa94326-28c6-4f10-880a-3f4d71760278" points="113.92 48.77 122.44 48.77 131.98 48.77 140.5 48.77 127.28 23.48 113.92 48.77"/><polygon class="faa94326-28c6-4f10-880a-3f4d71760278" points="105.33 42.08 115.08 23.48 92 23.48 92 29.55 102.26 29.55 92.02 48.77 113.91 48.77 114.05 42.08 105.33 42.08"/><text class="69a19cb4-f005-42ff-8352-71cf51bc4294" transform="translate(1420 39.42)"><tspan class="61ada4e0-2e4d-4f02-ba0e-8b4f21a44436"></tspan><tspan class="3ecf24ed-651a-4f36-8536-a8b83c99fafc" x="15.91" y="0"></tspan><tspan class="520e4e8b-ff00-44d4-ad73-3affff06f974" x="31.93" y="0"></tspan><tspan x="47.72" y="0"></tspan></text><text class="69a19cb4-f005-42ff-8352-71cf51bc4294" transform="translate(1762 37.76)"><tspan class="ba33bc6e-81ce-4fc8-9015-3d1b18fc8634"></tspan><tspan class="d6f3f43b-ae36-4a3c-a8b0-d380ae6a2547" x="15.91" y="0"></tspan><tspan class="5ef13351-5be0-46cb-b5fe-1a06ef8accb4" x="31.59" y="0"></tspan><tspan x="47.38" y="0"></tspan></text><text class="69a19cb4-f005-42ff-8352-71cf51bc4294" transform="translate(1528 39.42)"><tspan class="53525691-b33f-4111-b9ae-e6598a06820f"></tspan><tspan class="ca32580a-c050-4404-96dd-a6ccaad35773" x="15.47" y="0"></tspan><tspan class="dfb7530a-3265-4023-a4a0-8b02a884aabf" x="31.43" y="0"></tspan><tspan x="47.07" y="0"></tspan></text><text class="69a19cb4-f005-42ff-8352-71cf51bc4294" transform="translate(1636 39.42)"><tspan class="9b956e30-2bca-4be5-a825-cc50b98009ba"></tspan><tspan class="600fc561-683b-4b5e-b0c5-866b9380d609" x="15.84" y="0"></tspan><tspan class="59accd6a-c0f4-4482-bf54-c1d8ef2caca2" x="31.85" y="0"></tspan><tspan class="dd44278d-95a9-4900-83c9-b529505ae0a8" x="47.68" y="0"></tspan><tspan x="63.63" y="0"></tspan></text><polygon class="21f1e255-7184-41fc-a5c7-ad3444143219" points="1599 31 1601.89 31 1600.44 33.5 1599 36 1597.56 33.5 1596.11 31 1599 31"/><rect class="89efafdd-f9d0-4eb9-b33e-eea9720ca48d" x="92.24" y="770.04" width="238" height="97" rx="5" ry="5"/><text class="ed640dbd-c355-44ac-83fb-209215da983f" transform="translate(107.1 812.77)"><tspan class="efb0499a-a1b8-4740-ae54-0c5a8d4f72e3"><tspan x="0" y="29.92">A</tspan><tspan class="cd2be44a-a139-4caf-b914-cca85a62a1ef" x="13.75" y="29.92">p</tspan><tspan class="b51d3f8a-abb9-467c-8301-714a990074d2" x="26.57" y="29.92">p</tspan><tspan class="3ff75cee-1541-496c-bfb1-8cfe79404921" x="39.46" y="29.92">l</tspan><tspan class="815085ca-c2cd-4e55-a714-7e3b94e6a830" x="44.31" y="29.92">y </tspan><tspan class="bed93467-6c12-4e91-ac9a-27507b91b970" x="59.5" y="29.92">t</tspan><tspan class="8bbd6ce5-070c-43ac-9bc0-98da8ed0b780" x="66.35" y="29.92">o </tspan><tspan class="2e0771c0-bba7-4baa-9658-ae538c8cd976" x="83.41" y="29.92">E</tspan><tspan class="376cbf13-5830-4b6c-84f5-597d90681ffa" x="94.89" y="29.92">x</tspan><tspan class="b2d3ae72-3904-4d1b-9ec6-9983324d8698" x="105.21" y="29.92">h</tspan><tspan class="aef7ba31-bee3-42e5-867d-66eaf686fdc2" x="117.57" y="29.92">i</tspan><tspan class="231e876a-7d39-468c-9aee-40be9cd4ae96" x="122.22" y="29.92">b</tspan><tspan class="f235bd85-d2d7-46e8-841b-9ec5dd7f36ef" x="135.06" y="29.92">i</tspan><tspan class="940c624d-453a-4f6e-a668-c406117adc67" x="139.79" y="29.92">t</tspan><tspan class="8bbd6ce5-070c-43ac-9bc0-98da8ed0b780" x="146.98" y="29.92">.</tspan></tspan></text><line class="bd88e8c6-adce-4a71-a25c-85f294a438de" x1="241.04" y1="804.3" x2="305.88" y2="804.3"/><polygon class="faa94326-28c6-4f10-880a-3f4d71760278" points="305.06 798.22 305.06 810.37 311.13 804.3 305.06 798.22"/><rect class="89efafdd-f9d0-4eb9-b33e-eea9720ca48d" x="358.5" y="770.04" width="238" height="97" rx="5" ry="5"/><text class="ed640dbd-c355-44ac-83fb-209215da983f" transform="translate(373.36 812.77)"><tspan class="234e22da-9823-46a5-92e4-8971f522f64c" x="23.4" y="0"></tspan><tspan x="70.2" y="0"></tspan><tspan class="20fae0ed-2ebd-4acf-ac46-7502695a1de1"><tspan x="0" y="29.92">T</tspan><tspan class="874602f0-21d4-4d7e-9fa1-255580bf70b1" x="11.4" y="29.92">i</tspan><tspan class="9bd8800e-9d11-4654-a284-817c7b5c8932" x="16.12" y="29.92">c</tspan><tspan class="4905258f-f6a9-416a-93fc-679ae4592f02" x="25.87" y="29.92">k</tspan><tspan class="376cbf13-5830-4b6c-84f5-597d90681ffa" x="35.94" y="29.92">e</tspan><tspan class="8bbd6ce5-070c-43ac-9bc0-98da8ed0b780" x="47.17" y="29.92">t</tspan></tspan></text><line class="bd88e8c6-adce-4a71-a25c-85f294a438de" x1="507.3" y1="804.3" x2="572.13" y2="804.3"/><polygon class="faa94326-28c6-4f10-880a-3f4d71760278" points="571.32 798.22 571.32 810.37 577.39 804.3 571.32 798.22"/><rect class="89efafdd-f9d0-4eb9-b33e-eea9720ca48d" x="624.76" y="770.04" width="238" height="97" rx="5" ry="5"/><text class="ed640dbd-c355-44ac-83fb-209215da983f" transform="translate(639.61 812.77)"><tspan class="db4ef242-cfc7-4930-b990-b9492e71aacb"><tspan x="0" y="29.92">C</tspan><tspan class="d215469a-6a2f-494f-bc6d-53232b31fcf0" x="12.84" y="29.92">r</tspan><tspan class="d20527c1-6819-4987-a0d2-3214defc901d" x="19.73" y="29.92">o</tspan><tspan class="ce0381ee-c384-4d9c-91b1-0f94ef9fb99c" x="31.83" y="29.92">w</tspan><tspan class="3426da74-711d-4ec1-b3ad-2d18335f3763" x="48.46" y="29.92">d</tspan><tspan class="afb8ef87-f2bd-47dc-ae2c-65621621fc23" x="61.18" y="29.92">f</tspan><tspan class="daec7b17-ae2d-46ba-a1d6-72c9f0f7e4eb" x="67.49" y="29.92">u</tspan><tspan class="cd2be44a-a139-4caf-b914-cca85a62a1ef" x="79.78" y="29.92">n</tspan><tspan class="10ecb98e-ac2d-46c3-a85a-3e3bc5f10f2e" x="92.27" y="29.92">d</tspan><tspan class="aef7ba31-bee3-42e5-867d-66eaf686fdc2" x="104.87" y="29.92">i</tspan><tspan class="10f15145-9928-4d60-87f9-f3435599929b" x="109.52" y="29.92">n</tspan><tspan class="8bbd6ce5-070c-43ac-9bc0-98da8ed0b780" x="122" y="29.92">g</tspan></tspan></text><line class="bd88e8c6-adce-4a71-a25c-85f294a438de" x1="773.55" y1="804.3" x2="838.39" y2="804.3"/><polygon class="faa94326-28c6-4f10-880a-3f4d71760278" points="837.57 798.22 837.57 810.37 843.65 804.3 837.57 798.22"/></g></svg>