<svg xmlns="http://www.w3.org/2000/svg" viewBox="0 0 112 93"><defs><style>.b8ae6f0a-4202-4fd9-a8cd-758f2e24e569{fill:#ff4c00;}</style></defs><title>index</title><g id="6d28ee91-a837-4311-9ee4-ce566572059f" data-name="foot"><polygon class="b8ae6f0a-4202-4fd9-a8cd-758f2e24e569" points="22.71 26.55 31.66 26.55 41.68 26.55 50.63 26.55 36.75 0 22.71 26.55"/><polygon class="b8ae6f0a-4202-4fd9-a8cd-758f2e24e569" points="13.69 19.53 23.94 0 -0.31 0 -0.31 6.37 10.47 6.37 -0.28 26.55 22.7 26.55 22.85 19.53 13.69 19.53"/><path class="b8ae6f0a-4202-4fd9-a8cd-758f2e24e569" d="M12.36,42.3h-5c-.79-.26-1-1.59.15-1.59H20.67V33.6H7.52C2.24,33.6-.31,37-.31,41.24s2.7,8.55,7.83,8.55h4.83c1,0,1.46.42,1.46.83,0,.57-.53,1.13-1.54,1.17H-.16v7.86H12.39a8.92,8.92,0,0,0,9.22-9C21.61,46.19,20.23,42.3,12.36,42.3Z"/><polygon class="b8ae6f0a-4202-4fd9-a8cd-758f2e24e569" points="36.43 42.79 30.77 42.79 30.77 33.42 22.27 33.42 22.27 59.65 30.77 59.65 30.77 50.28 36.43 50.28 36.43 59.65 44.94 59.65 44.94 33.42 36.43 33.42 36.43 42.79"/><polygon class="b8ae6f0a-4202-4fd9-a8cd-758f2e24e569" points="45.07 59.65 53.91 59.65 63.81 59.65 72.65 59.65 58.94 33.42 45.07 59.65"/><path class="b8ae6f0a-4202-4fd9-a8cd-758f2e24e569" d="M91.88,41.09c.08-5.85-4.61-7.46-9.63-7.46H72.78v26h7.79V47.84l5.84,11.8H93L87,47.5C89.26,46.82,91.85,43.71,91.88,41.09Zm-9.74,1.76c-.34,0-.71,0-1,0h-.52V39.93h1.69c.56,0,2.47-.07,2.47,1.27S83,42.82,82.14,42.85Z"/><polygon class="b8ae6f0a-4202-4fd9-a8cd-758f2e24e569" points="101.48 50.31 110.92 50.31 110.92 42.83 101.48 42.83 101.48 41 110.92 41 110.92 33.52 93.95 33.49 93.95 59.65 111 59.65 111 52.25 101.48 52.25 101.48 50.31"/><path class="b8ae6f0a-4202-4fd9-a8cd-758f2e24e569" d="M19.18,66.94a24.22,24.22,0,0,1-1,4.09h1a21,21,0,0,0,1.07-4l4.88.05a40,40,0,0,1-1.51,4h2.19v4.33h-2v1.85h2v4h-2v1.69h2v3.92h-2v1.78h2v4.66H13.37V87.46l-2.11,4.39a10.4,10.4,0,0,1-2.47-2.63v4H4.18V89.74A12.68,12.68,0,0,1-.16,93.28V87.5a25.93,25.93,0,0,0,3-2.67H-.08V80.44H2.06L-.54,77a8.87,8.87,0,0,0,2-4.44H-.08V68.21H4.18V66.94H9v1.26h3.7v4.09a20.27,20.27,0,0,0,1.56-5.35ZM5,79.45a17.57,17.57,0,0,1-1.15-1.95,8.63,8.63,0,0,1-1.73,2.94H4.18v-1Zm.82-1.15L5,79.45H7.44Zm-.58-5.71a5.57,5.57,0,0,1-.16.85,10.82,10.82,0,0,0,1.45,2.08,12.18,12.18,0,0,0,.74-2.94ZM11.5,80.3a11,11,0,0,1-1.87-2.63,15.11,15.11,0,0,1-.88,1.78h0v1h4v4.39H9.8a11.24,11.24,0,0,0,3.57,2.58V80.28l-.16.16-.88-1.76Zm-.71-7.71c0,.19-.05.49-.08.69a10.38,10.38,0,0,0,.88,1.34,14.89,14.89,0,0,0,1-2ZM18,75.37v1.85h1.51V75.37Zm0,5.83v1.69h1.51V81.19Zm0,5.62v1.78h1.51V86.81Z"/><path class="b8ae6f0a-4202-4fd9-a8cd-758f2e24e569" d="M49.33,82.17h4V76.85H51.8V67.71h-7v3h2.44v.66H44.83V73.5h2.44v.66H44.83v2h2.44v.69H42.8L44.37,75l-1.26-.8c.66-.55.93-.8,1.37-1.21L43,72l1.65-1.65a14.38,14.38,0,0,0-1.34-1,15.13,15.13,0,0,0,1.26-1.1l-2.22-1.54a7.89,7.89,0,0,1-1.65,1.15,30.91,30.91,0,0,0-2.85-1.23L36,68.62c.52.22.85.36,1.62.71-.82.27-1.34.41-1.81.52l-1.34-3.07a21.81,21.81,0,0,1-5.93.8v9.27H27.24v5.32H31V83.9h9.38c-.55.27-2.74,1-2.74,1H27.11V89H37.62c0,.66,0,.72-.58.72h-3l0,3.48H40.5a2,2,0,0,0,2.17-2.39V89H53.17V84.94H45.82a18.06,18.06,0,0,0,3.51-1ZM40.64,71c.69.47,1,.66,1.29.91a10,10,0,0,1-1.32.85c-1.12-.55-1.54-.71-1.87-.88C39.62,71.55,40.2,71.25,40.64,71Zm-.16,4.77c.25.16.58.36,1.56,1.07H38A25.46,25.46,0,0,0,40.47,75.8Zm-7.3-2.3h2.47V71.39H33.18v-.66a19.06,19.06,0,0,0,2.55-.36l1.07,2-.82,1,1.51.71c-.47.14-.93.3-1.84.49v-.41H33.18Zm0,2.69h2.47v-1l.88,1.67H33.18Zm14.57,4.64H32.63v-.88H47.74Z"/><path class="b8ae6f0a-4202-4fd9-a8cd-758f2e24e569" d="M62.14,88.42a17.93,17.93,0,0,0,6.28-2.36,35.29,35.29,0,0,1-2.63-5.27L65.4,81,62.85,77A18.81,18.81,0,0,0,67,73.45h-3v2.39H61.75v1.7a21.69,21.69,0,0,0,3.4,4.22l-2,4.58a22.29,22.29,0,0,1-1.4-1.81v8.75H57.22V84.83a26.83,26.83,0,0,1-2.62,5.08V82.15a11.14,11.14,0,0,0,2.24-6.31h-2.3V71.2h2.69V66.92h4.53V71.2h2.08v-2.3h5.73v-2h5.1v2h5.84v4.55H77.33a12.75,12.75,0,0,0,3.26,2.87v5.8c-.36-.22-2.22-1.1-2.46-1.24A16.51,16.51,0,0,1,75.52,86a15.61,15.61,0,0,0,5,2.14l0,5.11c-3.81-1.26-7.79-2.69-8.77-3.46a22.72,22.72,0,0,1-8.64,3.46Zm14.65-8.53a22.46,22.46,0,0,1-4-4.47l3.57-2H72.65A34.87,34.87,0,0,1,67,79.95l3.1-1.29a23.79,23.79,0,0,0,2,3.9,12,12,0,0,0,1.48-3.76Z"/></g></svg>