<svg xmlns="http://www.w3.org/2000/svg" viewBox="0 0 238 97"><defs><style>.\38 0538a1b-3208-43cb-b10b-d5120ee45877{fill:#ff4c00;}.\39 835ce77-4f8e-4e6d-bdd4-7db6987ebd21{fill:none;stroke:#ff4c00;stroke-miterlimit:10;}</style></defs><title>index</title><g id="1223ce40-c5ae-409b-abc4-e41bff0fef38" data-name="menu"><path class="80538a1b-3208-43cb-b10b-d5120ee45877" d="M36.1,25.8V39.5h-2.3V38.3h-6.1v6.36h-2.3V38.3H19.46v1.32H17.25V25.8h8.14V22.65h2.3V25.8ZM19.46,27.93v3h5.93v-3Zm5.93,8.23V33H19.46v3.17Zm2.3-8.23v3h6.1v-3Zm6.1,8.23V33h-6.1v3.17Z"/><path class="80538a1b-3208-43cb-b10b-d5120ee45877" d="M47.42,28.37H39.14V26.59h8.28Zm-.67,3.07h-7V29.71h7Zm-7,1.51h7v1.73h-7Zm7,10.37h-5v1h-1.9V36.26h6.94Zm-5-5.28v3.48h3.12V38ZM43,26.52a23.38,23.38,0,0,0-1.15-3.26l1.87-.55A22.68,22.68,0,0,1,45,25.84Zm16.78,16c0,1-.22,1.51-.91,1.8a8.37,8.37,0,0,1-3.24.31,7.29,7.29,0,0,0-.62-1.8c1,0,2,0,2.28,0s.41-.1.41-.36V40.89h-7a8,8,0,0,1-1.73,4,7.39,7.39,0,0,0-1.56-1.44c1.42-1.73,1.56-4.08,1.56-6V33.19H59.76ZM61,30.29V32H47.64V30.29h5.47V28.94H48.53V27.36h4.58V26.13H48V24.5h5.16V22.65h2.16V24.5h5.5v1.63h-5.5v1.22h5v1.58h-5v1.34Zm-3.36,9.1V37.89H50.93c0,.46,0,1-.07,1.49Zm-6.74-4.49v1.46h6.74V34.89Z"/><path class="80538a1b-3208-43cb-b10b-d5120ee45877" d="M82.34,32.9a8.85,8.85,0,0,0-.53-1.08c-2.45.19-3.82.29-4.66.38a25.65,25.65,0,0,0,7.61,3.24,9.82,9.82,0,0,0-1.42,1.75,23.86,23.86,0,0,1-10.1-5.83,21.18,21.18,0,0,1-9.62,6,11.26,11.26,0,0,0-1.25-1.75,20.51,20.51,0,0,0,7.18-3.41L69.48,32c-4.15.24-4.87.34-5.3.5a14.43,14.43,0,0,0-.7-1.8,1.83,1.83,0,0,0,.89-.6,11.75,11.75,0,0,0,1.87-2.62l2,.84a16.93,16.93,0,0,1-1.78,2.16l2.28-.1c-.22-.36-.41-.67-.62-1l1.58-.5A19.42,19.42,0,0,1,70.92,31a12.07,12.07,0,0,0,1.85-2.47l2,.6c-.12.24-.26.48-.41.72a11.94,11.94,0,0,0,1,1l-.07-.17a1.42,1.42,0,0,0,.77-.58,8.65,8.65,0,0,0,1.42-2.45l2,.82a15.61,15.61,0,0,1-1.39,2l2.69-.14a13.14,13.14,0,0,0-.86-1.08l1.58-.67A15,15,0,0,1,84,32.16ZM79.78,28a14.4,14.4,0,0,0-1.06-1.1c-10.7.46-11.91.43-12.79.72a15.15,15.15,0,0,0-.62-1.85,4.94,4.94,0,0,0,1.51-.6,20,20,0,0,0,4.1-2.69l2,1a35.2,35.2,0,0,1-3.24,2.06l7.27-.22c-.65-.53-1.32-1-2-1.46L76.61,23a31.12,31.12,0,0,1,4.94,4Zm1.3,11c-3,3.19-8.5,4.9-14.57,5.74a5.71,5.71,0,0,0-1-1.8c5.78-.65,11.14-2.09,13.78-4.82Zm-2.83-2.42c-2.52,2.11-6.67,3.65-10.49,4.51a7.57,7.57,0,0,0-1.15-1.58c3.65-.7,7.78-2,9.94-3.77Zm-2.66-2.28a25.24,25.24,0,0,1-7.66,3.58,8,8,0,0,0-1.22-1.37,23.05,23.05,0,0,0,7.27-3Z"/><path class="80538a1b-3208-43cb-b10b-d5120ee45877" d="M90.41,29.59v1.13c0,4.1-.36,10.06-2.83,14a9,9,0,0,0-2-1.15c2.38-3.7,2.59-9,2.59-12.82v-7h18v5.86Zm0-3.94v2H104v-2Zm16.08,13.06A25.3,25.3,0,0,1,103,40.87a13.18,13.18,0,0,0,4.85,1.94,6.9,6.9,0,0,0-1.34,1.85,12.24,12.24,0,0,1-8.69-7.06h-2.9V42l4.66-1a10.62,10.62,0,0,0-.14,1.87c-5.66,1.3-6.43,1.51-6.91,1.82v0a6.6,6.6,0,0,0-.89-1.85,2.27,2.27,0,0,0,1.22-2V37.61H90.48V35.73h3.94V33.6H91.08V31.7h3.34V29.61h2V31.7h4.27V29.61h2.09V31.7h3.77v1.9h-3.77v2.14h4.75v1.87h-2.69Zm-10-3h4.27V33.6H96.46Zm3.5,1.87a8.84,8.84,0,0,0,1.63,2.14,24.24,24.24,0,0,0,3.17-2.14Z"/><path class="80538a1b-3208-43cb-b10b-d5120ee45877" d="M26.5,68.1l-7-.1-1.76,4.69H14.93l6.7-17.15h2.84l6.7,17.15H28.24Zm-6.27-2.2h5.52L24,61c-.39-1.05-.68-2-.91-2.85l-.12,0A29.67,29.67,0,0,1,22,61Z"/><path class="80538a1b-3208-43cb-b10b-d5120ee45877" d="M39.78,59.41c3.13,0,5.18,2.25,5.18,6.36,0,4.6-2.56,7.16-6.57,7.16a8.37,8.37,0,0,1-2.82-.46v4.65l-2.67.44V62.11l-.2-2.25L35,59.51l.44,2h.1a5,5,0,0,1,4.22-2.06Zm2.37,6.67c0-3-1.2-4.47-3-4.47s-3.55,1.32-3.55,4.34v4.14a4.29,4.29,0,0,0,2.64.67C40.82,70.75,42.15,69.28,42.15,66.07Z"/><path class="80538a1b-3208-43cb-b10b-d5120ee45877" d="M54.3,59.41c3.13,0,5.18,2.25,5.18,6.36,0,4.6-2.56,7.16-6.57,7.16a8.37,8.37,0,0,1-2.82-.46v4.65l-2.67.44V62.11l-.2-2.25,2.32-.36.44,2h.1a5,5,0,0,1,4.22-2.06Zm2.37,6.67c0-3-1.2-4.47-3-4.47s-3.55,1.32-3.55,4.34v4.14a4.29,4.29,0,0,0,2.64.67C55.34,70.75,56.67,69.28,56.67,66.07Z"/><path class="80538a1b-3208-43cb-b10b-d5120ee45877" d="M62,54.73l2.69-.44v18.4H62Z"/><path class="80538a1b-3208-43cb-b10b-d5120ee45877" d="M79.6,59.65,76,68.57c-2.19,5.45-3.81,7.29-6.7,9l-2-1.39v-.05a10.72,10.72,0,0,0,4.32-4.08L66.4,59.87l3-.42L72,66.62c.35,1,.7,2.15,1,3.29h.19c.29-1.13.63-2.23,1-3.26l2.52-7Z"/><path class="80538a1b-3208-43cb-b10b-d5120ee45877" d="M94.92,72a6.14,6.14,0,0,1-3.21.89c-2.41,0-3.72-1.38-3.72-3.85V61.93H85.54V60L88,59.74l.21-3,2.44-.42v3.56l3.94-.21-.13,2.27H90.64V68.8c0,1.28.53,1.88,1.63,1.88A3.54,3.54,0,0,0,94.2,70h0Z"/><path class="80538a1b-3208-43cb-b10b-d5120ee45877" d="M95.54,66.17c0-4.29,2.62-6.77,6.53-6.77s6.52,2.48,6.52,6.76-2.59,6.75-6.52,6.75S95.54,70.43,95.54,66.17Zm10.28,0c0-3-1.44-4.58-3.75-4.58s-3.73,1.62-3.75,4.58,1.44,4.59,3.75,4.59S105.84,69.13,105.82,66.16Z"/><path class="80538a1b-3208-43cb-b10b-d5120ee45877" d="M128.54,70.28v2.41H117.17V55.53H128.3v2.41L120,57.75V63l7.23-.13v2.41L120,65.12v5.35Z"/><path class="80538a1b-3208-43cb-b10b-d5120ee45877" d="M143.15,72.68H140l-3.53-5.07-3.58,5.07h-3v0l4.89-6.57-4.55-5.95v0l2.92-.46,3.38,4.86,3.27-4.83h2.94v0l-4.6,6.38Z"/><path class="80538a1b-3208-43cb-b10b-d5120ee45877" d="M156.47,64.3v8.38h-2.69V64.93c0-2.18-.83-3.28-2.58-3.28s-3.7,1.17-3.7,4.32v6.72h-2.69v-18l2.69-.41v7.14h.08a5.5,5.5,0,0,1,4.42-2C154.79,59.41,156.47,61.11,156.47,64.3Z"/><path class="80538a1b-3208-43cb-b10b-d5120ee45877" d="M159.09,56a1.67,1.67,0,0,1,1.85-1.57c1.05,0,1.75.6,1.75,1.47a1.68,1.68,0,0,1-1.83,1.59C159.77,57.52,159.09,56.92,159.09,56Zm.4,4,2.69-.42v13h-2.69Z"/><path class="80538a1b-3208-43cb-b10b-d5120ee45877" d="M177.33,65.77c0,4.64-2.58,7.16-6.86,7.16a9.67,9.67,0,0,1-5.21-1.4V54.73l2.67-.44v7.12H168a4.89,4.89,0,0,1,4.11-2C175.28,59.41,177.33,61.65,177.33,65.77Zm-2.81.28c0-3-1.21-4.45-3.09-4.45s-3.5,1.29-3.5,4.34v4.13a4.24,4.24,0,0,0,2.61.67C173.17,70.74,174.51,69.25,174.51,66Z"/><path class="80538a1b-3208-43cb-b10b-d5120ee45877" d="M179.38,56a1.67,1.67,0,0,1,1.85-1.57c1.05,0,1.75.6,1.75,1.47a1.68,1.68,0,0,1-1.83,1.59C180.06,57.52,179.38,56.92,179.38,56Zm.4,4,2.69-.42v13h-2.69Z"/><path class="80538a1b-3208-43cb-b10b-d5120ee45877" d="M193.59,72a6.14,6.14,0,0,1-3.21.89c-2.41,0-3.72-1.38-3.72-3.85V61.93h-2.45V60l2.45-.23.21-3,2.44-.42v3.56l3.94-.21-.13,2.27h-3.81V68.8c0,1.28.53,1.88,1.63,1.88a3.54,3.54,0,0,0,1.92-.63h0Z"/><path class="80538a1b-3208-43cb-b10b-d5120ee45877" d="M195.39,71.2a1.8,1.8,0,0,1,1.87-1.8A1.65,1.65,0,0,1,199,71.07a1.81,1.81,0,0,1-1.87,1.81A1.66,1.66,0,0,1,195.39,71.2Z"/><line class="9835ce77-4f8e-4e6d-bdd4-7db6987ebd21" x1="148.55" y1="34.3" x2="213.39" y2="34.3"/><polygon class="80538a1b-3208-43cb-b10b-d5120ee45877" points="212.57 28.22 212.57 40.37 218.65 34.3 212.57 28.22"/></g></svg>