<svg xmlns="http://www.w3.org/2000/svg" viewBox="0 0 238 97"><defs><style>.cbcc5eef-a34a-4b7a-915f-5d784072ae9c{fill:#ff4c00;}.\33 a4ffe0d-7c05-4976-9e68-52f11e6f8012{fill:none;stroke:#ff4c00;stroke-miterlimit:10;}</style></defs><title>index</title><g id="124f8f58-92e6-4598-bcca-81d88f12f3c8" data-name="menu"><path class="cbcc5eef-a34a-4b7a-915f-5d784072ae9c" d="M32.54,36.79a16.26,16.26,0,0,0,5.38,2.47A8.06,8.06,0,0,0,36.48,41a16,16,0,0,1-3.26-1.51c-.26,2.76-.53,4-1.08,4.51a2,2,0,0,1-1.54.6,17.8,17.8,0,0,1-2.81,0,4.17,4.17,0,0,0-.55-1.73c1,.07,2.09.1,2.45.1s.62,0,.79-.19a4.91,4.91,0,0,0,.62-2.45H26.16c-1,2.11-3,3.5-7.13,4.34A5.72,5.72,0,0,0,18,43.05c3.22-.55,4.92-1.42,5.88-2.69H19.53v-.84a22.26,22.26,0,0,1-2.83,1.25,5.87,5.87,0,0,0-1.27-1.58,16.78,16.78,0,0,0,4.92-2.4H16V35h6.22A7.09,7.09,0,0,0,23,33.86H18.74v-6.7H34.63v6.7H25.39A11.52,11.52,0,0,1,24.72,35h12.5v1.75Zm-11-10.95H16.17v-1.7h5.35V22.63h2.16v1.51H26.3v1.7H23.69v1H21.53Zm-.65,4H32.4v-1.3H20.88Zm0,2.62H32.4v-1.3H20.88ZM32,38.71a13.6,13.6,0,0,1-2.11-1.92H23.25a14.38,14.38,0,0,1-2.33,1.92h3.72A9.92,9.92,0,0,0,25,37.2H27a9.93,9.93,0,0,1-.31,1.51ZM29.45,25.84H27.07v-1.7h2.38V22.63h2.21v1.51h5.5v1.7h-5.5v1H29.45Z"/><path class="cbcc5eef-a34a-4b7a-915f-5d784072ae9c" d="M54,26.23a2.55,2.55,0,0,1,0,.58c1.3,1.32,3.86,2.14,7,2.33A6.49,6.49,0,0,0,59.78,31a11.73,11.73,0,0,1-6.43-2.64c-.86,1.1-2.76,2.14-6.89,2.71a6.34,6.34,0,0,0-1.13-1.66h-6.1V27.62h7v1.58c5.21-.67,5.76-2,5.76-3v-.31H50a11.27,11.27,0,0,1-1.75,2.23,9.79,9.79,0,0,0-1.68-1.13,9.9,9.9,0,0,0,2.76-4.42l2,.43c-.14.41-.29.79-.46,1.2h7.49l.31-.1,1.54.5a22.05,22.05,0,0,1-2.09,3.55l-1.75-.62a18.56,18.56,0,0,0,1-1.66H54Zm-.19,14.54a62.31,62.31,0,0,1,6.77,2.62l-2,1.22A46.69,46.69,0,0,0,52.1,41.9l1.39-1.13H46.32l2,.91a32.94,32.94,0,0,1-7.34,3A18.13,18.13,0,0,0,39.31,43a26,26,0,0,0,6.91-2.23H42.36V31.13H58v9.65ZM45.62,25.63H39.74V23.95h5.88Zm-1.1,8.28H55.77V32.54H44.52Zm0,2.69H55.77V35.25H44.52Zm0,2.76H55.77V38H44.52Z"/><path class="cbcc5eef-a34a-4b7a-915f-5d784072ae9c" d="M84.24,39.48H78.69v3c0,1.08-.24,1.66-1.1,1.94a12.1,12.1,0,0,1-3.94.31,7.56,7.56,0,0,0-.7-1.94c1.32,0,2.69,0,3.07,0s.48-.1.48-.41v-2.9h-7.9a18.4,18.4,0,0,1,3.24,2.62l-1.61,1.51a19.77,19.77,0,0,0-3.82-3.22l1-.91H62.61V37.65h13.9V36.41c-4.78.12-9.41.24-12.79.29l-.1-1.7c2.33,0,5.35,0,8.66,0V33.89h-7.1V27.21h7.1V26.09h-9V24.36h9V22.68h2.21v1.68H83.3v1.73H74.49v1.13h7.37v6.67h-2A21.88,21.88,0,0,1,83.33,36l-1.25,1.3a13.71,13.71,0,0,0-1.32-1l-2.06,0v1.32h5.54Zm-16.95-9.6h5V28.65h-5Zm5,2.59V31.22h-5v1.25Zm2.21-3.82v1.22h5.16V28.65Zm5.16,3.82V31.22H74.49v1.25Zm-5.16,2.45,3.77,0a13.35,13.35,0,0,0-1.37-.6l.43-.41H74.49Z"/><path class="cbcc5eef-a34a-4b7a-915f-5d784072ae9c" d="M107.54,39H101a33.41,33.41,0,0,1,6.22,3.65l-1.7,1.58a32.21,32.21,0,0,0-6.1-3.84L100.94,39H97.87v5.62H95.64V39H86.16V37.17h9.48V35.35h2.23v1.82h9.67ZM105,36.31a54.42,54.42,0,0,0-7.34-2.09c-2.59,1.08-6.07,1.58-10.58,1.87a6.81,6.81,0,0,0-.79-1.85,44.76,44.76,0,0,0,7.63-.82c-1.51-.29-3.07-.58-4.63-.82.67-.6,1.42-1.39,2.18-2.18H86.37V28.65H93a24.29,24.29,0,0,0,1.8-2.45l2.11.67a21.31,21.31,0,0,1-1.39,1.78h5.35a10.1,10.1,0,0,0,.65-1.56l2.18.46c-.12.38-.26.74-.41,1.1h4v1.78h-4.92a9.13,9.13,0,0,1-2.4,2.5c2.78.65,5.28,1.32,7.18,1.94ZM94,40a17.63,17.63,0,0,1-5.83,4,14.71,14.71,0,0,0-1.87-1.51,14.16,14.16,0,0,0,5.5-3.24Zm10.82-13.83h-16v1.66H86.78V24.33h8.83c-.24-.43-.48-.84-.67-1.22l2.3-.53c.31.53.74,1.18,1.06,1.75h8.64v3.53h-2.14ZM93.93,30.43l-1.13,1.1c1.46.24,2.93.5,4.34.79a8.5,8.5,0,0,0,2.52-1.9Z"/><path class="cbcc5eef-a34a-4b7a-915f-5d784072ae9c" d="M18.86,64.22c0,3.89,1.73,6.23,5.33,6.23A6.73,6.73,0,0,0,28.46,69h0l.82,2.42a10.07,10.07,0,0,1-5.39,1.47c-5.22,0-7.94-3.7-7.94-8.76s2.73-8.88,8.27-8.88a9.58,9.58,0,0,1,4.88,1.2L28.25,59h0a6.37,6.37,0,0,0-4-1.26C20.69,57.77,18.86,60.29,18.86,64.22Z"/><path class="cbcc5eef-a34a-4b7a-915f-5d784072ae9c" d="M38.86,61.91c-3.23,0-4.87,1.24-4.87,4.46v6.32H31.3V62.11l-.2-2.25,2.33-.36.45,2.16h.06a5.44,5.44,0,0,1,4.75-2.26Z"/><path class="cbcc5eef-a34a-4b7a-915f-5d784072ae9c" d="M39.68,66.17c0-4.29,2.62-6.77,6.53-6.77s6.52,2.48,6.52,6.76-2.59,6.75-6.52,6.75S39.68,70.43,39.68,66.17Zm10.28,0c0-3-1.44-4.58-3.75-4.58s-3.73,1.62-3.75,4.58,1.44,4.59,3.75,4.59S50,69.13,50,66.16Z"/><path class="cbcc5eef-a34a-4b7a-915f-5d784072ae9c" d="M74,59.65l-4.62,13H66.81L64.53,65.9c-.38-1.21-.72-2.51-.92-3.29-.19.77-.52,2.06-.9,3.29l-2.29,6.78H57.88L53.31,59.87l2.79-.4,2.11,6.82c.38,1.22.73,2.57,1,3.47h.1c.22-.9.58-2.24,1-3.47l2.18-6.64h2.73l2.16,6.64c.42,1.33.79,2.75,1,3.63.22-.87.6-2.29,1-3.63l2.11-6.64Z"/><path class="cbcc5eef-a34a-4b7a-915f-5d784072ae9c" d="M87.06,72.57v.05l-2.4.3a4.5,4.5,0,0,1-.68-2h-.09a5.15,5.15,0,0,1-4.24,2c-3,0-5.11-2.31-5.11-6.39,0-4.59,2.63-7.13,6.63-7.13a8,8,0,0,1,2.73.45v-5.2l2.69-.41V68.38A12.33,12.33,0,0,0,87.06,72.57Zm-3.15-5.9V62.44a4,4,0,0,0-2.68-.86c-2.35,0-3.92,1.54-3.92,4.8,0,2.83,1.19,4.35,3.09,4.35C82.12,70.73,83.83,69.58,83.91,66.67Z"/><path class="cbcc5eef-a34a-4b7a-915f-5d784072ae9c" d="M98.72,54.79l-.69,2h0a3.08,3.08,0,0,0-1.87-.58c-1.67,0-2.62.83-2.62,3.21v.48l4.05-.21L97.42,62H93.5V72.68H90.81V62H88.43V60l2.38-.23v-.67c0-3.25,1.89-5,5-5A5.8,5.8,0,0,1,98.72,54.79Z"/><path class="cbcc5eef-a34a-4b7a-915f-5d784072ae9c" d="M111,72.57v.05l-2.41.3a4,4,0,0,1-.66-1.87h-.1a5.54,5.54,0,0,1-4.34,1.87c-2.6,0-4.33-1.6-4.33-4.9V59.79l2.69-.38v8c0,2.36,1,3.26,2.57,3.26a3.23,3.23,0,0,0,3.44-3.46V59.65h2.69v9.21A11.52,11.52,0,0,0,111,72.57Z"/><path class="cbcc5eef-a34a-4b7a-915f-5d784072ae9c" d="M125.44,64.3v8.38h-2.69V64.93c0-2.18-.83-3.28-2.58-3.28s-3.7,1.17-3.7,4.32v6.72h-2.69V62.11l-.2-2.25,2.33-.36.45,2h0A5.85,5.85,0,0,1,121,59.41C123.76,59.41,125.44,61.11,125.44,64.3Z"/><path class="cbcc5eef-a34a-4b7a-915f-5d784072ae9c" d="M140.34,72.57v.05l-2.4.3a4.5,4.5,0,0,1-.68-2h-.09a5.15,5.15,0,0,1-4.24,2c-3,0-5.11-2.31-5.11-6.39,0-4.59,2.63-7.13,6.63-7.13a8,8,0,0,1,2.73.45v-5.2l2.69-.41V68.38A12.33,12.33,0,0,0,140.34,72.57Zm-3.15-5.9V62.44a4,4,0,0,0-2.68-.86c-2.35,0-3.92,1.54-3.92,4.8,0,2.83,1.19,4.35,3.09,4.35C135.4,70.73,137.11,69.58,137.19,66.67Z"/><path class="cbcc5eef-a34a-4b7a-915f-5d784072ae9c" d="M142.69,56a1.67,1.67,0,0,1,1.85-1.57c1.05,0,1.75.6,1.75,1.47a1.68,1.68,0,0,1-1.83,1.59C143.38,57.52,142.69,56.92,142.69,56Zm.4,4,2.69-.42v13h-2.69Z"/><path class="cbcc5eef-a34a-4b7a-915f-5d784072ae9c" d="M160.57,64.3v8.38h-2.69V64.93c0-2.18-.83-3.28-2.58-3.28s-3.7,1.17-3.7,4.32v6.72h-2.69V62.11l-.2-2.25,2.33-.36.45,2h0a5.85,5.85,0,0,1,4.57-2.08C158.89,59.41,160.57,61.11,160.57,64.3Z"/><path class="cbcc5eef-a34a-4b7a-915f-5d784072ae9c" d="M175.06,61.69,173,61.54a4.48,4.48,0,0,1,.65,2.41c0,2.75-2.08,4.55-5.29,4.55h-.27c-1,0-1.46.26-1.46.69s.45.63,1.39.68c4.91.28,6.72,1.32,6.72,3.85s-2.53,4.08-6.47,4.08c-3.74,0-6-1.4-6-3.73,0-1.57.88-2.65,2.73-3.27a1.44,1.44,0,0,1-1-1.33c0-.73.58-1.28,1.57-1.5a4.12,4.12,0,0,1-2.47-4c0-2.72,2.11-4.57,5.28-4.57a6.5,6.5,0,0,1,2.87.6l3.92-.56,0,0Zm-8.37,10.13a2.12,2.12,0,0,0-1.91,2c0,1.3,1.32,2.06,3.56,2.06s3.73-.81,3.73-2.15S170.83,71.88,166.69,71.83ZM171.05,64a2.43,2.43,0,0,0-2.65-2.75A2.56,2.56,0,0,0,165.7,64a2.67,2.67,0,1,0,5.35,0Z"/><line class="3a4ffe0d-7c05-4976-9e68-52f11e6f8012" x1="148.55" y1="34.3" x2="213.39" y2="34.3"/><polygon class="cbcc5eef-a34a-4b7a-915f-5d784072ae9c" points="212.57 28.22 212.57 40.37 218.65 34.3 212.57 28.22"/></g></svg>