<svg xmlns="http://www.w3.org/2000/svg" viewBox="0 0 232.44 305.52"><defs><style>.da586fae-0e77-43bb-88c3-e95207e8dc44{fill:#0047ba;}.\30 3f254a8-bb4f-415a-bf65-1448642ba27c{fill:#ff4c00;}.\39 2f7f073-c3e1-41bf-95cc-55bd8acd2680{fill:none;stroke:#ff4c00;stroke-miterlimit:10;}</style></defs><title>index</title><g id="4f90f2cc-0e53-458c-a989-19e85c729315" data-name="pic"><rect class="da586fae-0e77-43bb-88c3-e95207e8dc44" x="0.15" y="0.34" width="232.09" height="305.06" rx="5" ry="5"/><polygon class="03f254a8-bb4f-415a-bf65-1448642ba27c" points="47.55 55.86 57.56 55.86 68.76 55.86 78.77 55.86 63.24 26.16 47.55 55.86"/><polygon class="03f254a8-bb4f-415a-bf65-1448642ba27c" points="37.46 48.01 48.91 26.16 21.8 26.16 21.8 33.29 33.85 33.29 21.82 55.86 47.54 55.86 47.7 48.01 37.46 48.01"/><path class="03f254a8-bb4f-415a-bf65-1448642ba27c" d="M188.86,35.12c.08-6.54-5.15-8.34-10.77-8.34h-10.6v29.1h8.72V42.67l6.54,13.2h7.42l-6.75-13.58C185.93,41.53,188.82,38.06,188.86,35.12Zm-10.89,2c-.38,0-.8,0-1.17,0h-.59V33.82h1.89c.63,0,2.77-.08,2.77,1.42S178.93,37.05,178,37.09Z"/><path class="03f254a8-bb4f-415a-bf65-1448642ba27c" d="M99.92,36.47H94.35c-.88-.3-1.09-1.78.17-1.78h14.71v-8H94.51c-5.91,0-8.76,3.85-8.76,8.54s3,9.56,8.76,9.56h5.41c1.09,0,1.63.47,1.63.93,0,.63-.59,1.27-1.72,1.31H85.92v8.8h14c6.79-.13,10.31-5.16,10.31-10.11S108.72,36.47,99.92,36.47Z"/><polygon class="03f254a8-bb4f-415a-bf65-1448642ba27c" points="126.85 37.02 120.52 37.02 120.52 26.55 111.01 26.55 111.01 55.88 120.52 55.88 120.52 45.41 126.85 45.41 126.85 55.88 136.36 55.88 136.36 26.55 126.85 26.55 126.85 37.02"/><polygon class="03f254a8-bb4f-415a-bf65-1448642ba27c" points="136.51 55.88 146.4 55.88 157.46 55.88 167.35 55.88 152.01 26.55 136.51 55.88"/><polygon class="03f254a8-bb4f-415a-bf65-1448642ba27c" points="199.6 45.43 210.16 45.43 210.16 37.07 199.6 37.07 199.6 35.02 210.16 35.02 210.16 26.66 191.18 26.62 191.18 55.88 210.24 55.88 210.24 47.6 199.6 47.6 199.6 45.43"/><path class="03f254a8-bb4f-415a-bf65-1448642ba27c" d="M67.57,62.61a56.29,56.29,0,0,1-2.36,9.5h2.23a48.91,48.91,0,0,0,2.49-9.31l11.35.13a92.91,92.91,0,0,1-3.5,9.18h5.1V82.18H78.29v4.3H83v9.25H78.29v3.94H83v9.12H78.29v4.13h4.54v10.84H54.06V110.3l-4.91,10.2a24.18,24.18,0,0,1-5.74-6.12v9.37H32.7v-8.16c-1.91,2.93-5.41,5.53-10.07,8.24V110.38a60.26,60.26,0,0,0,7-6.2H22.81V94h5l-6.06-7.91a20.62,20.62,0,0,0,4.72-10.33H22.81V65.54H32.7V62.61H44v2.93h8.61V75a47.12,47.12,0,0,0,3.63-12.43Zm-33,29.08a40.83,40.83,0,0,1-2.68-4.53c-1.79,4.21-2.61,5.23-4,6.82H32.7v-2.3ZM36.46,89l-1.85,2.68h5.67ZM35.12,75.74a12.94,12.94,0,0,1-.38,2,25.14,25.14,0,0,0,3.38,4.85,28.3,28.3,0,0,0,1.72-6.82Zm14.6,17.92a25.64,25.64,0,0,1-4.34-6.12,35.12,35.12,0,0,1-2,4.14h.06V94h9.18v10.2H45.77c3.89,3.83,6,4.91,8.29,6V93.6l-.38.38-2-4.08ZM48.06,75.74c-.06.45-.13,1.15-.19,1.59a24.12,24.12,0,0,0,2,3.12,34.62,34.62,0,0,0,2.36-4.72Zm16.71,6.44v4.3h3.51v-4.3Zm0,13.55v3.94h3.51V95.73Zm0,13.05v4.13h3.51v-4.13Z"/><path class="03f254a8-bb4f-415a-bf65-1448642ba27c" d="M137.66,98H147V85.62H143.4V64.39H127.2v7h5.67v1.53H127.2v4.91h5.67v1.53H127.2v4.72h5.67v1.59H122.48l3.63-4.34-2.93-1.85c1.53-1.28,2.17-1.85,3.19-2.81l-3.51-2.3,3.83-3.83a33.42,33.42,0,0,0-3.12-2.23,35.17,35.17,0,0,0,2.93-2.55l-5.16-3.57a18.33,18.33,0,0,1-3.83,2.68A71.85,71.85,0,0,0,110.88,62l-4.27,4.46c1.21.51,2,.83,3.76,1.66-1.91.64-3.12,1-4.21,1.21L103,62.22a50.7,50.7,0,0,1-13.77,1.85V85.62h-3V98H95v4h21.81c-1.28.64-6.38,2.42-6.38,2.42H86V114h24.42c0,1.53,0,1.67-1.34,1.67h-6.87l0,8.1h14.86c5,0,5-4.14,5-5.55V114h24.42v-9.55H129.5a42,42,0,0,0,8.16-2.42ZM117.45,72.11c1.59,1.08,2.23,1.53,3,2.1a23.29,23.29,0,0,1-3.06,2c-2.61-1.28-3.57-1.66-4.34-2C115.09,73.32,116.43,72.62,117.45,72.11Zm-.38,11.09c.57.38,1.34.83,3.63,2.49h-9.37A59.18,59.18,0,0,0,117.06,83.2Zm-17-5.36h5.74V72.94H100.1V71.41a44.29,44.29,0,0,0,5.93-.83l2.49,4.65-1.91,2.3c1.53.7,2.42,1.15,3.51,1.66-1.08.32-2.17.7-4.27,1.15v-1H100.1Zm0,6.25h5.74V81.8l2,3.89H100.1ZM134,94.87H98.83v-2H134Z"/><path class="03f254a8-bb4f-415a-bf65-1448642ba27c" d="M167.42,112.53A41.67,41.67,0,0,0,182,107a82,82,0,0,1-6.12-12.24l-.89.57-5.93-9.5a43.73,43.73,0,0,0,9.56-8.16h-7.08v5.55h-5v4A50.41,50.41,0,0,0,174.43,97l-4.65,10.65a51.81,51.81,0,0,1-3.25-4.21v20.34H156V104.18a62.37,62.37,0,0,1-6.1,11.82V97.94c5-6.19,4.89-13,5.21-14.67h-5.36V72.49H156V62.56h10.52v9.93h4.85V67.13H184.7V62.56h11.86v4.57h13.58V77.72h-7.4a29.64,29.64,0,0,0,7.58,6.68V97.88c-.83-.51-5.15-2.56-5.73-2.88a38.38,38.38,0,0,1-6.06,12c1.59,1,3.81,2.74,11.71,5l.07,11.87c-8.86-2.93-18.1-6.26-20.39-8-3.89,3.06-13.45,7.09-20.08,8Zm34-19.83a52.21,52.21,0,0,1-9.37-10.39l8.29-4.59h-8.53c-2.68,4.53-10.79,13.45-13.15,15.11l7.21-3a55.3,55.3,0,0,0,4.65,9.05A27.77,27.77,0,0,0,194,90.15Z"/><path class="03f254a8-bb4f-415a-bf65-1448642ba27c" d="M31.71,141.78V143H21.22v-1.25h3.27v-1.63H22V136h2.49v-1.41H21.42V133.3H31.53v1.25H28.34V136h2.58v4.2H28.34v1.63Zm-5.9-2.8v2.8H27V139h2.52v-1.85H27v-2.57H25.82v2.57H23.34V139Z"/><path class="03f254a8-bb4f-415a-bf65-1448642ba27c" d="M40.86,138.05a13.91,13.91,0,0,0-1.9-1.18l.76-1a15.3,15.3,0,0,1,2,1.08Zm.9,1.62c-.38,1.24-.89,2.57-1.37,3.71l-1.25-.71A33.61,33.61,0,0,0,40.65,139ZM41.3,135a13.2,13.2,0,0,0-1.9-1.24l.81-1a13.59,13.59,0,0,1,1.92,1.14ZM49.39,133V143.5H48.07v-4.58l-.56.27a9.92,9.92,0,0,0-.59-1.6v5.58H45.63v-4.28l-.7.29a14.44,14.44,0,0,0-.51-1.82,11,11,0,0,1-1.48,6.15,4.94,4.94,0,0,0-1.18-.8A7.45,7.45,0,0,0,43,139l-.75.28a12.16,12.16,0,0,0-.71-2.75l1-.35a11.64,11.64,0,0,1,.57,1.62c0-.34,0-.66,0-1V133h1.3v3.5l.6-.23c.22.51.43,1.09.6,1.63V133.2h1.29v3l.39-.17c.25.48.52,1,.75,1.55V133Z"/><path class="03f254a8-bb4f-415a-bf65-1448642ba27c" d="M67.24,138.85a7,7,0,0,1-1.43,2.68,6.47,6.47,0,0,0,2,.81,4.56,4.56,0,0,0-.81,1.07,6.38,6.38,0,0,1-2.09-1,7.66,7.66,0,0,1-2,1.11,5.08,5.08,0,0,0-.68-1v1H60.9v-1l-3.73.39-.1-1.18,1-.08v-3.51h-.9V137H67.46v1.09H62.18v4.27a5.79,5.79,0,0,0,1.75-.88,7.06,7.06,0,0,1-1.11-1.77l.42-.12h-.7v-1.05h3.62l.22,0Zm-7.39-2.17H58.52v-3.63h7.62v3.63H64.74V134h-4.9Zm-.54,1.45v.48h1.6v-.48Zm0,1.89h1.6v-.46H59.3Zm0,1.51,1.6-.15V141H59.3Zm5-6.31H60.2v-.8h4.12Zm-4.1,1.24v-.8h4.1v.8ZM64,139.63a4.5,4.5,0,0,0,.79,1.09,4.36,4.36,0,0,0,.75-1.09Z"/><path class="03f254a8-bb4f-415a-bf65-1448642ba27c" d="M81.32,137.22a7.73,7.73,0,0,0,4.34,5,5.54,5.54,0,0,0-1,1.3,8.65,8.65,0,0,1-4.35-4.91A8,8,0,0,1,76,143.49a4.08,4.08,0,0,0-1-1.17,7,7,0,0,0,4.21-5.1h-4v-1.43h4.22c.12-1.09.1-2.14.12-3.09H81c0,1,0,2-.14,3.09H85.4v1.43Z"/><path class="03f254a8-bb4f-415a-bf65-1448642ba27c" d="M95.19,135.94v-.45a12.24,12.24,0,0,1-1.24.83h4.89V140h-4c0,.12,0,.24-.06.36h4.36v3.09H97.91v-.31H95.77v.36H94.62v-2.4a7.39,7.39,0,0,1-.74,2,6.33,6.33,0,0,0-1.21-.53,9.71,9.71,0,0,0,1-4.9v-1.17l-.27.14a7.35,7.35,0,0,0-.72-1.32,8,8,0,0,0,3.44-2.63l1.26.5-.21.29c.86.5,1.82,1.07,2.35,1.45l-.71,1.16c-.31-.25-.76-.56-1.26-.88v.75Zm2.4,3.07v-.48H94.94c0,.15,0,.31,0,.48ZM95,137.28v.45h2.63v-.45Zm2.54-2.14-1.1-.7c-.24.23-.5.48-.75.7Zm-1.73,6.13v.82h2.14v-.82Zm5.3-.92h-1.3v-6.47h1.3Zm2.12-7.63v9.13c0,.74-.14,1.11-.57,1.33a4.39,4.39,0,0,1-2,.28,5.65,5.65,0,0,0-.41-1.38h1.38c.19,0,.27-.06.27-.25v-9.12Z"/><path class="03f254a8-bb4f-415a-bf65-1448642ba27c" d="M112.73,140.25a11.07,11.07,0,0,1-1.17,2.38,8.8,8.8,0,0,0-.9-.63,8.27,8.27,0,0,0,1-2.05Zm1.62-.67v3.85H113v-3.85h-2.16v-1.16H113v-.89h-2.23v-1.14h1.12a7,7,0,0,0-.34-1.21l1-.23H111v-1.12h2c-.1-.31-.23-.64-.35-.92l1.38-.34c.17.38.38.86.52,1.25h1.66V135h-1.45l.94.19c-.17.44-.35.89-.52,1.25h1.21v1.14h-2v.89h1.8v1.16ZM112.68,135a5.72,5.72,0,0,1,.38,1.21l-.83.23h1.67a13.18,13.18,0,0,0,.5-1.44Zm8.82,2.82h-1.08v5.69h-1.34v-5.69H118v.14c0,1.7-.15,4.09-1.14,5.58a5.15,5.15,0,0,0-1.07-.82,4.54,4.54,0,0,0,.52-1.12l-.82.51a14,14,0,0,0-.9-1.74l.9-.49a11.44,11.44,0,0,1,.87,1.52,12.53,12.53,0,0,0,.36-3.43v-4.13a16.46,16.46,0,0,0,3.51-1l1.06,1a17.93,17.93,0,0,1-3.29.87v1.82h3.5Z"/><path class="03f254a8-bb4f-415a-bf65-1448642ba27c" d="M138.77,136.07a13.34,13.34,0,0,1-1.25,4.31,5.36,5.36,0,0,0,2.05,1.92,5.38,5.38,0,0,0-1,1.21,6.2,6.2,0,0,1-1.95-1.85,7.7,7.7,0,0,1-2.46,1.9,5.79,5.79,0,0,0-.79-1.25,5.82,5.82,0,0,0,2.49-2,14.61,14.61,0,0,1-.79-2.34c-.17.28-.35.56-.53.8a8.17,8.17,0,0,0-.77-.72,11.55,11.55,0,0,1-1.6,1.5v.29l2-.17v1.17l-2,.2v1.15c0,.6-.1.92-.51,1.1a4.27,4.27,0,0,1-1.68.2,4,4,0,0,0-.39-1.17h1.1c.15,0,.2,0,.2-.16v-1l-2.2.22-.14-1.23,2.34-.2v-.64a8.53,8.53,0,0,0,1-.81H130.7a10.75,10.75,0,0,1-1.3.83,8.45,8.45,0,0,0-.92-1,9.92,9.92,0,0,0,2.2-1.45h-2.06v-1.18h1.76v-.78h-1.32v-1.16h1.32v-1.05h1.27v1.05h1v.74a10.13,10.13,0,0,0,.75-1.51l1.26.37a12.5,12.5,0,0,1-1.28,2.33h.82v.92a14.14,14.14,0,0,0,1.12-3.91l1.4.22c-.12.64-.25,1.29-.42,1.89h3.08v1.28Zm-7.11-.39h.19a7.53,7.53,0,0,0,.58-.78h-.77Zm1.9,2a6,6,0,0,0,.56-.85H132.5a6.61,6.61,0,0,1-.54.59h1l.24-.07Zm2.46-1.63a14.38,14.38,0,0,0,.71,2.7,13.06,13.06,0,0,0,.61-2.7Z"/><path class="03f254a8-bb4f-415a-bf65-1448642ba27c" d="M157.09,134.88h-2.41a14.27,14.27,0,0,1,2,1.8l-1.05.66h.49V142c0,.74-.2,1-.75,1.22a10.48,10.48,0,0,1-2.52.15,4.3,4.3,0,0,0-.32-1.17c.64,0,1.59,0,1.79,0s.3-.07.3-.25v-.83c-1.7.37-3.42.72-4.76,1l-.41-1.22c1-.13,2.4-.34,3.91-.57a18.09,18.09,0,0,0-3.64-.94l.41-.82a17,17,0,0,1,4,1l-.36.75.9-.14v-1.73h-5.18v.72a7,7,0,0,1-1.26,4.45,4.94,4.94,0,0,0-1.14-.81,5.4,5.4,0,0,0,1-3.66v-1.83h7.31c-.15-.19-.35-.39-.57-.61-5.66.22-6.34.23-6.84.41-.07-.27-.28-.9-.42-1.26a2.77,2.77,0,0,0,1-.57,6.12,6.12,0,0,0,.52-.42h-2.34v-1.21h3.64a11.19,11.19,0,0,0,1-1.12l1.4.53q-.26.3-.56.59h4.8Zm-3.37.81-.7-.53.46-.28H151c-.39.34-.78.64-1.16.92Z"/><path class="03f254a8-bb4f-415a-bf65-1448642ba27c" d="M167.1,136.84v6.68h-1.34v-6.68h-1.26v-1.25h1.26V132.7h1.34v2.89h1.12v1.25ZM175.3,141H173.8v1.22c0,.6-.1.92-.54,1.1a5.19,5.19,0,0,1-1.82.19,4.8,4.8,0,0,0-.37-1.16c.53,0,1.12,0,1.29,0s.22,0,.22-.17V141h-2.26c.43.29.86.61,1.14.82l-.86.93c-.38-.36-1.16-.94-1.72-1.34l.41-.41h-1.45v-1.1h4.74v-.42H173a6.64,6.64,0,0,0-.35-.76h.71c.12,0,.15,0,.15-.14v-.17h-1.25v.86H171v-.86h-1.26v1h-1.16v-4.16H171V135h-2.77v-1.07H171V132.7h1.26v1.19h1.25l-.88-.48.63-.74c.52.23,1.25.6,1.65.81l-.31.41h.57V135h-2.9v.34h2.46v3.32c0,.49-.09.67-.42.79a2,2,0,0,1-.49.12v.38h1.5Zm-5.59-4.82v.38H171v-.38Zm1.26,1.5v-.36h-1.26v.36Zm1.26-1.5v.38h1.25v-.38Zm1.25,1.5v-.36h-1.25v.36Z"/><path class="03f254a8-bb4f-415a-bf65-1448642ba27c" d="M191.59,142.38c.36,0,.43-.12.49-.87a3.43,3.43,0,0,0,1.14.42c-.13,1.22-.49,1.52-1.48,1.52H190c-1.39,0-1.73-.32-1.73-1.37v-.5H187c-.35,1.14-1.25,1.7-4.08,2a3.3,3.3,0,0,0-.6-1.08c2.24-.13,3-.36,3.28-.92h-1.47v-3.88h7.31v3.88h-1.84v.48c0,.3.09.32.57.32Zm-3.81-5H183V133h4.75v.79H186v.41h1.44v.22a4.1,4.1,0,0,0,1.3-1.73l1.18.17-.17.41H193v.86H189.3c-.07.1-.14.21-.22.31h3.4v.76h-3.57v-.56a5,5,0,0,1-.67.64,3.64,3.64,0,0,0-.75-.7v1.53H186v.46h1.73Zm-3.66-3.57v.41H185v-.41Zm2.21,1.12h-2.21v.48h2.21Zm-2.21,1.67H185v-.46h-.86Zm1.36,2.18h4.66v-.37h-4.66Zm0,1h4.66v-.37h-4.66Zm0,1.05h4.66v-.38h-4.66Zm2.77-5.36h4.62v1.87h-4.62Zm.9,1.23h.45v-.6h-.45Zm1.14,0h.46v-.6h-.46Zm1.15,0h.49v-.6h-.49Z"/><path class="03f254a8-bb4f-415a-bf65-1448642ba27c" d="M206.75,133l-.17.22a11.15,11.15,0,0,0,4.81,2.09,4.75,4.75,0,0,0-.87,1.05l-.72-.21v3h-8.06v-2.92c-.24.08-.49.16-.72.22a7.38,7.38,0,0,0-.74-1.07,9.61,9.61,0,0,0,5.25-2.8Zm2.63,3a12.88,12.88,0,0,1-1.58-.71v.3h-4.07v-.23a13.93,13.93,0,0,1-1.4.64Zm-7,3.52h6.82v3.92h-1.41v-.28h-4v.31h-1.36Zm1.31-1.22a4.58,4.58,0,0,0-.39-1.21l.89-.25h-1.31v1.46Zm0,2.12v.46h4v-.46Zm4,1.83v-.46h-4v.46Zm-2.63-5.41h-.9a5.24,5.24,0,0,1,.46,1.23l-.74.23h1.18Zm1.67-2.14a11.29,11.29,0,0,1-1-.75c-.3.25-.64.51-1,.75Zm-.56,2.14v1.46h1.08l-.7-.2a9.1,9.1,0,0,0,.45-1.26Zm2.3,0h-1.21l.9.22c-.23.46-.45.92-.64,1.24h.94Z"/><path class="03f254a8-bb4f-415a-bf65-1448642ba27c" d="M26.14,154.48v1h-5l0-.79,3.66-5.12-3.53.07v-1H26l.06.84-3.61,5.07Z"/><path class="03f254a8-bb4f-415a-bf65-1448642ba27c" d="M31.88,155.42v0l-.93.12a1.39,1.39,0,0,1-.24-.75h0a2.07,2.07,0,0,1-1.65.75c-.92,0-1.71-.45-1.71-1.43s.93-1.81,3.1-1.81h.27c0-.94-.5-1.27-1.35-1.27a2.51,2.51,0,0,0-1.52.49h0l-.29-.83a3.49,3.49,0,0,1,2-.53c1.52,0,2.21.6,2.21,2.06v1.52A4.92,4.92,0,0,0,31.88,155.42Zm-1.18-2.15V153h-.3c-1.54,0-2,.46-2,1s.39.72.91.72A1.36,1.36,0,0,0,30.7,153.27Z"/><path class="03f254a8-bb4f-415a-bf65-1448642ba27c" d="M36.76,151.52h0a2.34,2.34,0,0,0-1.45-.53c-.62,0-1,.27-1,.65,0,1.1,2.87.46,2.87,2.36,0,1.09-.95,1.55-2.12,1.55a3.87,3.87,0,0,1-2-.53l.3-.83h0a2.45,2.45,0,0,0,1.62.55c.69,0,1.09-.23,1.09-.66,0-1.16-2.85-.53-2.85-2.38,0-.93.73-1.51,2-1.51a3.2,3.2,0,0,1,1.79.5Z"/><path class="03f254a8-bb4f-415a-bf65-1448642ba27c" d="M43.31,152.13v3.34H42.24v-3.09c0-.87-.33-1.3-1-1.3s-1.47.46-1.47,1.72v2.67H38.67v-7.16l1.07-.16V151h0a2.19,2.19,0,0,1,1.76-.81C42.64,150.18,43.31,150.86,43.31,152.13Z"/><path class="03f254a8-bb4f-415a-bf65-1448642ba27c" d="M49.28,155.42v0l-.93.12a1.39,1.39,0,0,1-.24-.75h0a2.07,2.07,0,0,1-1.65.75c-.92,0-1.71-.45-1.71-1.43s.93-1.81,3.1-1.81h.27c0-.94-.5-1.27-1.35-1.27a2.51,2.51,0,0,0-1.52.49h0l-.29-.83a3.49,3.49,0,0,1,2-.53c1.52,0,2.21.6,2.21,2.06v1.52A4.92,4.92,0,0,0,49.28,155.42Zm-1.18-2.15V153h-.3c-1.54,0-2,.46-2,1s.39.72.91.72A1.36,1.36,0,0,0,48.1,153.27Z"/><path class="03f254a8-bb4f-415a-bf65-1448642ba27c" d="M53.87,151.17c-1.28,0-1.94.49-1.94,1.77v2.51H50.87v-4.21l-.08-.89.93-.14.18.86h0a2.16,2.16,0,0,1,1.89-.9Z"/><path class="03f254a8-bb4f-415a-bf65-1448642ba27c" d="M59.16,153.14h-3.4a1.43,1.43,0,0,0,1.58,1.56,2.24,2.24,0,0,0,1.55-.51h0l.29.84a4,4,0,0,1-2,.53,2.37,2.37,0,0,1-2.52-2.6,2.54,2.54,0,0,1,2.56-2.78c1.36,0,2,.88,2,2.24,0,.18,0,.4,0,.62Zm-.82-1A1.07,1.07,0,0,0,57.2,151c-.75,0-1.28.51-1.41,1.48l2.54-.07A1.79,1.79,0,0,0,58.34,152.12Z"/><path class="03f254a8-bb4f-415a-bf65-1448642ba27c" d="M67.85,154.51v1H63.33v-6.83h4.43v1l-3.32-.07v2.08l2.88-.05v1l-2.88-.05v2.13Z"/><path class="03f254a8-bb4f-415a-bf65-1448642ba27c" d="M74.2,155.46H73l-1.41-2-1.42,2H69v0l1.94-2.61-1.81-2.37v0l1.16-.18,1.34,1.94,1.3-1.92h1.17v0l-1.83,2.54Z"/><path class="03f254a8-bb4f-415a-bf65-1448642ba27c" d="M80.21,152.71c0,1.83-1,2.85-2.62,2.85a3.33,3.33,0,0,1-1.12-.18v1.85l-1.06.17v-6.14l-.08-.89.92-.14.18.78h0a2,2,0,0,1,1.68-.82C79.39,150.18,80.21,151.07,80.21,152.71Zm-1.12.12c0-1.2-.48-1.78-1.21-1.78s-1.41.53-1.41,1.73v1.65a1.71,1.71,0,0,0,1.05.27C78.55,154.69,79.09,154.11,79.09,152.83Z"/><path class="03f254a8-bb4f-415a-bf65-1448642ba27c" d="M81.45,152.87a2.6,2.6,0,1,1,2.6,2.69A2.46,2.46,0,0,1,81.45,152.87Zm4.09,0c0-1.18-.57-1.82-1.49-1.82s-1.49.65-1.49,1.82.57,1.83,1.49,1.83S85.54,154,85.54,152.87Z"/><path class="03f254a8-bb4f-415a-bf65-1448642ba27c" d="M94.1,148.34l-.27.78h0a1.23,1.23,0,0,0-.75-.23c-.66,0-1,.33-1,1.28v.19l1.61-.09-.05.91H92v4.27H90.95v-4.27H90v-.79l.95-.09V150a1.81,1.81,0,0,1,2-2A2.31,2.31,0,0,1,94.1,148.34Z"/><path class="03f254a8-bb4f-415a-bf65-1448642ba27c" d="M94.46,152.87a2.6,2.6,0,1,1,2.6,2.69A2.46,2.46,0,0,1,94.46,152.87Zm4.09,0c0-1.18-.57-1.82-1.49-1.82s-1.49.65-1.49,1.82.57,1.83,1.49,1.83S98.55,154,98.55,152.87Z"/><path class="03f254a8-bb4f-415a-bf65-1448642ba27c" d="M104.15,151.17c-1.28,0-1.94.49-1.94,1.77v2.51h-1.07v-4.21l-.08-.89.93-.14.18.86h0a2.16,2.16,0,0,1,1.89-.9Z"/><path class="03f254a8-bb4f-415a-bf65-1448642ba27c" d="M107.88,148.64H109v6.83h-1.11Z"/><path class="03f254a8-bb4f-415a-bf65-1448642ba27c" d="M115.54,152.13v3.34h-1.07v-3.09c0-.87-.33-1.3-1-1.3s-1.47.46-1.47,1.72v2.67H110.9v-4.21l-.08-.89.93-.14.18.79h0a2.33,2.33,0,0,1,1.82-.83C114.87,150.18,115.54,150.86,115.54,152.13Z"/><path class="03f254a8-bb4f-415a-bf65-1448642ba27c" d="M121.93,152.13v3.34h-1.07v-3.09c0-.87-.33-1.3-1-1.3s-1.47.46-1.47,1.72v2.67h-1.07v-4.21l-.08-.89.93-.14.18.79h0a2.33,2.33,0,0,1,1.82-.83C121.26,150.18,121.93,150.86,121.93,152.13Z"/><path class="03f254a8-bb4f-415a-bf65-1448642ba27c" d="M123.4,152.87a2.6,2.6,0,1,1,2.6,2.69A2.46,2.46,0,0,1,123.4,152.87Zm4.09,0c0-1.18-.57-1.82-1.49-1.82s-1.49.65-1.49,1.82.57,1.83,1.49,1.83S127.49,154,127.49,152.87Z"/><path class="03f254a8-bb4f-415a-bf65-1448642ba27c" d="M134.62,150.27l-2.17,5.19h-1l-2.16-5.1,1.16-.16,1,2.71c.16.48.33,1,.46,1.5H132c.12-.43.26-.93.47-1.5l1-2.64Z"/><path class="03f254a8-bb4f-415a-bf65-1448642ba27c" d="M140,155.42v0l-.93.12a1.39,1.39,0,0,1-.24-.75h0a2.07,2.07,0,0,1-1.65.75c-.92,0-1.71-.45-1.71-1.43s.93-1.81,3.1-1.81h.27c0-.94-.5-1.27-1.35-1.27a2.51,2.51,0,0,0-1.52.49h0l-.29-.83a3.49,3.49,0,0,1,2-.53c1.52,0,2.21.6,2.21,2.06v1.52A4.92,4.92,0,0,0,140,155.42Zm-1.18-2.15V153h-.3c-1.54,0-2,.46-2,1s.39.72.91.72A1.36,1.36,0,0,0,138.86,153.27Z"/><path class="03f254a8-bb4f-415a-bf65-1448642ba27c" d="M144.75,155.2a2.45,2.45,0,0,1-1.28.36A1.36,1.36,0,0,1,142,154v-2.84h-1v-.78l1-.09.08-1.2,1-.17v1.42l1.57-.09-.05.9h-1.52v2.74c0,.51.21.75.65.75a1.41,1.41,0,0,0,.77-.25h0Z"/><path class="03f254a8-bb4f-415a-bf65-1448642ba27c" d="M145.8,148.83a.66.66,0,0,1,.74-.62c.42,0,.7.24.7.58a.67.67,0,0,1-.73.63C146.08,149.43,145.8,149.19,145.8,148.83Zm.16,1.61,1.07-.17v5.19H146Z"/><path class="03f254a8-bb4f-415a-bf65-1448642ba27c" d="M153.53,150.27l-2.17,5.19h-1l-2.16-5.1,1.16-.16,1,2.71c.16.48.33,1,.46,1.5h.09c.12-.43.26-.93.47-1.5l1-2.64Z"/><path class="03f254a8-bb4f-415a-bf65-1448642ba27c" d="M158.66,153.14h-3.4a1.43,1.43,0,0,0,1.58,1.56,2.24,2.24,0,0,0,1.55-.51h0l.29.84a4,4,0,0,1-2,.53,2.37,2.37,0,0,1-2.52-2.6,2.54,2.54,0,0,1,2.56-2.78c1.36,0,2,.88,2,2.24,0,.18,0,.4,0,.62Zm-.82-1a1.07,1.07,0,0,0-1.14-1.14c-.75,0-1.28.51-1.41,1.48l2.54-.07A1.79,1.79,0,0,0,157.84,152.12Z"/><path class="03f254a8-bb4f-415a-bf65-1448642ba27c" d="M167.35,154.51v1h-4.52v-6.83h4.43v1l-3.32-.07v2.08l2.88-.05v1l-2.88-.05v2.13Z"/><path class="03f254a8-bb4f-415a-bf65-1448642ba27c" d="M173.48,155.42v0l-1,.12a1.79,1.79,0,0,1-.27-.81h0a2,2,0,0,1-1.69.81c-1.21,0-2-.92-2-2.54a2.52,2.52,0,0,1,2.64-2.84,3.19,3.19,0,0,1,1.09.18v-2.07l1.07-.16v5.63A4.9,4.9,0,0,0,173.48,155.42Zm-1.25-2.35v-1.68a1.6,1.6,0,0,0-1.07-.34c-.93,0-1.56.61-1.56,1.91,0,1.13.47,1.73,1.23,1.73S172.2,154.23,172.23,153.07Z"/><path class="03f254a8-bb4f-415a-bf65-1448642ba27c" d="M179.76,155.42v0l-1,.12a1.57,1.57,0,0,1-.26-.75h0a2.21,2.21,0,0,1-1.73.75c-1,0-1.72-.64-1.72-1.95v-3.28l1.07-.15v3.19c0,.94.39,1.3,1,1.3a1.28,1.28,0,0,0,1.37-1.38v-3h1.07v3.67A4.59,4.59,0,0,0,179.76,155.42Z"/><path class="03f254a8-bb4f-415a-bf65-1448642ba27c" d="M182.19,152.92c0,1.17.53,1.75,1.49,1.75a2.3,2.3,0,0,0,1.44-.49h0l.3.85a3.74,3.74,0,0,1-1.89.53,2.39,2.39,0,0,1-2.46-2.65,2.5,2.5,0,0,1,2.62-2.73,2.76,2.76,0,0,1,1.68.49l-.3.84h0a2.25,2.25,0,0,0-1.33-.44C182.8,151.06,182.19,151.66,182.19,152.92Z"/><path class="03f254a8-bb4f-415a-bf65-1448642ba27c" d="M191,155.42v0l-.93.12a1.39,1.39,0,0,1-.24-.75h0a2.07,2.07,0,0,1-1.65.75c-.92,0-1.71-.45-1.71-1.43s.93-1.81,3.1-1.81h.27c0-.94-.5-1.27-1.35-1.27a2.51,2.51,0,0,0-1.52.49h0l-.29-.83a3.49,3.49,0,0,1,2-.53c1.52,0,2.21.6,2.21,2.06v1.52A4.92,4.92,0,0,0,191,155.42Zm-1.18-2.15V153h-.3c-1.54,0-2,.46-2,1s.39.72.91.72A1.36,1.36,0,0,0,189.85,153.27Z"/><path class="03f254a8-bb4f-415a-bf65-1448642ba27c" d="M195.74,155.2a2.45,2.45,0,0,1-1.28.36A1.36,1.36,0,0,1,193,154v-2.84h-1v-.78l1-.09.08-1.2,1-.17v1.42l1.57-.09-.05.9H194v2.74c0,.51.21.75.65.75a1.41,1.41,0,0,0,.77-.25h0Z"/><path class="03f254a8-bb4f-415a-bf65-1448642ba27c" d="M196.79,148.83a.66.66,0,0,1,.74-.62c.42,0,.7.24.7.58a.67.67,0,0,1-.73.63C197.06,149.43,196.79,149.19,196.79,148.83Zm.16,1.61,1.07-.17v5.19H197Z"/><path class="03f254a8-bb4f-415a-bf65-1448642ba27c" d="M199.5,152.87a2.6,2.6,0,1,1,2.6,2.69A2.46,2.46,0,0,1,199.5,152.87Zm4.09,0c0-1.18-.57-1.82-1.49-1.82s-1.49.65-1.49,1.82.57,1.83,1.49,1.83S203.6,154,203.59,152.87Z"/><path class="03f254a8-bb4f-415a-bf65-1448642ba27c" d="M210.83,152.13v3.34h-1.07v-3.09c0-.87-.33-1.3-1-1.3s-1.47.46-1.47,1.72v2.67h-1.07v-4.21l-.08-.89.93-.14.18.79h0a2.33,2.33,0,0,1,1.82-.83C210.16,150.18,210.83,150.86,210.83,152.13Z"/><line class="92f7f073-c3e1-41bf-95cc-55bd8acd2680" x1="21.84" y1="202.06" x2="210.24" y2="202.06"/><path class="03f254a8-bb4f-415a-bf65-1448642ba27c" d="M23.38,252.51v6.39H22V248.3h4.59v4.21Zm0-3.21v.59h1.89v-.59Zm1.89,2.19v-.67H23.38v.67Zm3.42,4.72v2.47H27.46v-2.47H26.32a3.86,3.86,0,0,1-1.53,2.7,5.3,5.3,0,0,0-.89-.8,2.77,2.77,0,0,0,1.21-1.89H23.93v-1.15h1.23v-.89H24.1v-1.11h5.72v1.11H28.69v.89H30v1.15Zm-1.23-1.15v-.89h-1.1v.89ZM32,257.23c0,.71-.13,1.11-.57,1.34a4.2,4.2,0,0,1-1.93.26,5,5,0,0,0-.44-1.4c.53,0,1.12,0,1.31,0s.24-.07.24-.25v-4.68H27.33v-4.24H32Zm-3.3-7.93v.59h1.92v-.59Zm1.92,2.22v-.71H28.67v.71Z"/><path class="03f254a8-bb4f-415a-bf65-1448642ba27c" d="M37.24,251.36a11.56,11.56,0,0,1-.74,4.08,16.87,16.87,0,0,1,1.3,1.29l-.86,1.1c-.27-.32-.64-.72-1.08-1.15a7.91,7.91,0,0,1-2,2.18,4.55,4.55,0,0,0-.95-1,7.2,7.2,0,0,0,2-2.14c-.59-.54-1.18-1.08-1.7-1.53a27,27,0,0,0,.65-2.64l-.77,0-.13-1.25,1.12,0c.14-.84.26-1.69.32-2.45l1.3.08c-.08.72-.19,1.51-.33,2.31l.64,0v-.76h1.25v.69l.52,0v1.17Zm-2.12.15c-.17.82-.35,1.61-.53,2.31.28.22.57.47.85.72a9.8,9.8,0,0,0,.53-3.09Zm7.88,2a7.3,7.3,0,0,0-.3-.78c-3.86.33-4.45.39-4.89.57-.08-.27-.3-.95-.45-1.31.25-.07.46-.31.75-.73a16.67,16.67,0,0,0,1.63-3.39l1.47.39a22.4,22.4,0,0,1-1.83,3.43l2.67-.19c-.3-.5-.62-1-.92-1.42l1.12-.56a13.24,13.24,0,0,1,2,3.34Zm-5.11.45h5.54v4.94H42.08v-.46h-2.9v.47H37.89Zm1.29,1.23v2h2.9v-2Z"/><path class="03f254a8-bb4f-415a-bf65-1448642ba27c" d="M47.65,250.93a12.36,12.36,0,0,1-.64,1.16v6.84H45.73v-5a9.76,9.76,0,0,1-.71.8,8.75,8.75,0,0,0-.77-1.23,11.14,11.14,0,0,0,2.27-3.18l1.12.39v-2.14h.95v1.68h.52v-2.4h1v2.4h.59v-1.68h1v2.76H47.65Zm0-2.63a12.31,12.31,0,0,1-2.52,2.88,6.86,6.86,0,0,0-.71-1.05,8,8,0,0,0,2-2.3Zm7.6,3a15,15,0,0,1-1.08,4.52,4.59,4.59,0,0,0,1.68,1.86,4.82,4.82,0,0,0-.89,1.1,5.26,5.26,0,0,1-1.48-1.69,7,7,0,0,1-1.82,1.81,6.47,6.47,0,0,0-.89-.92,3,3,0,0,0,.32-.21c-1.16.18-2.31.33-3.24.46l-.28-1.1,1.54-.15v-.85H47.44v-1h1.62v-.58c-.44,0-.88.08-1.28.11a4.07,4.07,0,0,0-.31-.9,20.27,20.27,0,0,0,3.49-.55l.7.9a13.17,13.17,0,0,1-1.43.3v.72h1.69v1H50.23v.72l1.44-.15,0,.57a5.66,5.66,0,0,0,1.14-1.49,15.27,15.27,0,0,1-.63-2.44c-.08.14-.18.3-.27.43a7.23,7.23,0,0,0-.65-.82H47.53v-1.14h4a14.62,14.62,0,0,0,.92-4l1.28.2c-.09.72-.22,1.43-.38,2.12h2.21v1.18Zm-2.14,0c0,.12-.07.22-.12.34a17.54,17.54,0,0,0,.53,2.54,16,16,0,0,0,.52-2.89Z"/><path class="03f254a8-bb4f-415a-bf65-1448642ba27c" d="M66.55,256A15.23,15.23,0,0,1,65,257a6.58,6.58,0,0,0,2.07.72,5.47,5.47,0,0,0-.82,1.17,5.76,5.76,0,0,1-4.14-3.38H60.93v1.85l2-.38a7,7,0,0,0-.12,1.16c-2.6.57-3,.66-3.27.83h0A4.32,4.32,0,0,0,59,257.8a1.28,1.28,0,0,0,.6-1.1v-1.23h-1v-1.18h1.73v-.82H58.89V252.3h1.48v-.82H58.64v.34c0,2.06-.19,5.14-1.43,7.08a6,6,0,0,0-1.25-.72c1.17-1.82,1.27-4.47,1.26-6.36v-3.5h9.1v3.16h-1.6v.82h1.7v1.17h-1.7v.82h2.21v1.18H65.7Zm-7.91-5.76h6.26v-.78H58.64Zm3,2h1.76v-.82H61.66Zm0,2h1.76v-.82H61.66Zm1.8,1.18a3.82,3.82,0,0,0,.65.79,12.89,12.89,0,0,0,1.18-.79Z"/><path class="03f254a8-bb4f-415a-bf65-1448642ba27c" d="M72.22,253.4c0,1.79.8,2.88,2.54,2.88a3.37,3.37,0,0,0,2.19-.76h0l.58,1.71a5.57,5.57,0,0,1-3,.83c-3,0-4.44-2-4.44-4.69s1.53-4.78,4.64-4.78a5.24,5.24,0,0,1,2.71.66l-.6,1.77h0a3.24,3.24,0,0,0-2-.65C73.06,250.37,72.22,251.58,72.22,253.4Z"/><path class="03f254a8-bb4f-415a-bf65-1448642ba27c" d="M84,255.79l-3.29-.06-.75,2.2H77.81l3.42-9.22h2.18l3.43,9.22H84.7Zm-2.87-1.54h2.45l-.79-2.42c-.17-.5-.3-1-.4-1.42l0,0,0,0c-.1.46-.23.92-.39,1.44Z"/><path class="03f254a8-bb4f-415a-bf65-1448642ba27c" d="M93.6,256.17v1.76h-6v-9.22h2.05v7.59Z"/><path class="03f254a8-bb4f-415a-bf65-1448642ba27c" d="M100.46,256.17v1.76h-6v-9.22h2.05v7.59Z"/><path class="03f254a8-bb4f-415a-bf65-1448642ba27c" d="M106.34,250.23v2.63l3.67-.07v1.62l-3.67-.07v3.59h-2.05v-9.22h6.31v1.64Z"/><path class="03f254a8-bb4f-415a-bf65-1448642ba27c" d="M119.94,253.28c0,2.87-1.73,4.78-4.54,4.79s-4.44-1.88-4.44-4.71,1.7-4.78,4.5-4.79S119.94,250.44,119.94,253.28Zm-2.11,0c0-1.89-.87-3-2.37-3s-2.39,1.07-2.4,3,.81,3,2.32,3S117.82,255.21,117.82,253.28Z"/><path class="03f254a8-bb4f-415a-bf65-1448642ba27c" d="M126.43,254.3a27.24,27.24,0,0,0,2.37,3.6v0l-2.31.07a21.57,21.57,0,0,1-2.09-3.45h-1.24v3.38h-2.05v-9.19a22.47,22.47,0,0,1,2.61-.18c3.54,0,4.75,1.25,4.75,3a2.77,2.77,0,0,1-2,2.77Zm-3.27-1.19h1.47c1.13,0,1.76-.55,1.76-1.52s-.71-1.58-2.59-1.58l-.64,0Z"/><path class="03f254a8-bb4f-415a-bf65-1448642ba27c" d="M141.91,256.28v1.64h-6.44V248.7h6.31v1.64l-4.26-.1v2.31l3.67-.07v1.61l-3.67-.07v2.36Z"/><path class="03f254a8-bb4f-415a-bf65-1448642ba27c" d="M151.22,257.89v0h-2.43l-2.09-3.64-2.08,3.64h-2.29v0l3-4.61-2.87-4.41v0l2.28-.27,2,3.63,2-3.51h2.22v0l-2.78,4.46Z"/><path class="03f254a8-bb4f-415a-bf65-1448642ba27c" d="M160,248.7v9.22H158v-3.84l-3.92-.06v3.9H152V248.7h2.05v3.79l3.92,0V248.7Z"/><path class="03f254a8-bb4f-415a-bf65-1448642ba27c" d="M161.88,248.7h2.05v9.22h-2.05Z"/><path class="03f254a8-bb4f-415a-bf65-1448642ba27c" d="M173.29,255.3c0,1.68-1.3,2.76-4.75,2.77a23.67,23.67,0,0,1-2.76-.18v-9.16a20.07,20.07,0,0,1,2.59-.18c3.44,0,4.55,1.05,4.55,2.53a2,2,0,0,1-1.31,2v0A2.11,2.11,0,0,1,173.29,255.3ZM167.83,250v2.55h1.34c1.22,0,1.76-.4,1.76-1.24s-.59-1.35-2.23-1.35Zm3.35,5.23c0-.89-.59-1.28-1.81-1.28h-1.54v2.63l.78,0C170.61,256.59,171.19,256.12,171.19,255.22Z"/><path class="03f254a8-bb4f-415a-bf65-1448642ba27c" d="M174.6,248.69h2.05v9.22h-2.05Z"/><path class="03f254a8-bb4f-415a-bf65-1448642ba27c" d="M185.39,250.41l-2.83,0v7.53h-2.05v-7.55l-2.82,0v-1.63h7.7Z"/><path class="03f254a8-bb4f-415a-bf65-1448642ba27c" d="M194.63,253.26c0,2.87-1.73,4.78-4.54,4.79s-4.44-1.88-4.44-4.71,1.7-4.78,4.5-4.79S194.63,250.42,194.63,253.26Zm-2.11,0c0-1.89-.87-3-2.37-3s-2.39,1.07-2.4,3,.81,3,2.32,3S192.51,255.19,192.51,253.26Z"/><path class="03f254a8-bb4f-415a-bf65-1448642ba27c" d="M203.68,257.88v0l-2.31.07a21.59,21.59,0,0,1-2.09-3.45H198v3.38H196v-9.19a22.48,22.48,0,0,1,2.61-.18c3.54,0,4.75,1.25,4.75,3a2.77,2.77,0,0,1-2,2.77A27.24,27.24,0,0,0,203.68,257.88ZM198,253.09h1.47c1.13,0,1.76-.55,1.76-1.52s-.71-1.58-2.59-1.58l-.64,0Z"/><path class="03f254a8-bb4f-415a-bf65-1448642ba27c" d="M210.3,250.91a4,4,0,0,0-2.25-.73c-1,0-1.56.38-1.54,1,.05,1.67,4.57,1,4.57,4.12,0,1.73-1.39,2.74-3.66,2.74a6.33,6.33,0,0,1-3.2-.8l.5-1.74h0a4,4,0,0,0,2.57.9c1.07,0,1.65-.35,1.64-1,0-1.79-4.53-1-4.53-4.18,0-1.67,1.24-2.63,3.57-2.63a5.86,5.86,0,0,1,2.82.67l-.5,1.68Z"/><path class="03f254a8-bb4f-415a-bf65-1448642ba27c" d="M32,277.32v2.08H21.42l0-1.72,5.27-4c1.65-1.22,2.09-1.92,2.09-2.77,0-1.19-.89-2-2.71-2a6.74,6.74,0,0,0-4,1.42h0l-.73-2.11a9.38,9.38,0,0,1,4.84-1.36c3.19,0,5.21,1.5,5.21,3.94,0,1.3-.61,2.77-2.92,4.24l-3.79,2.52Z"/><path class="03f254a8-bb4f-415a-bf65-1448642ba27c" d="M46.64,273.19a6.12,6.12,0,0,1-6.41,6.43,6,6,0,0,1-6.31-6.34,6.13,6.13,0,0,1,6.39-6.46A6,6,0,0,1,46.64,273.19Zm-2.47,0a3.64,3.64,0,0,0-3.84-4,3.76,3.76,0,0,0-3.94,4,3.63,3.63,0,0,0,3.83,4A3.77,3.77,0,0,0,44.17,273.16Z"/><path class="03f254a8-bb4f-415a-bf65-1448642ba27c" d="M58.2,277.4v2H48.59v-2h3.75V269l-3.76.09v-2.05h6.28V277.4Z"/><path class="03f254a8-bb4f-415a-bf65-1448642ba27c" d="M69.48,268.69A70.69,70.69,0,0,0,63,282.78H60.25l0,0A76.73,76.73,0,0,1,67,269l-8.69.33v-2.24H69.39Z"/><path class="03f254a8-bb4f-415a-bf65-1448642ba27c" d="M69.59,278a1.7,1.7,0,0,1,1.76-1.71A1.56,1.56,0,0,1,73,277.87a1.71,1.71,0,0,1-1.76,1.71A1.57,1.57,0,0,1,69.59,278Z"/><path class="03f254a8-bb4f-415a-bf65-1448642ba27c" d="M87.84,273.19a6.12,6.12,0,0,1-6.41,6.43,6,6,0,0,1-6.31-6.34,6.13,6.13,0,0,1,6.39-6.46A6,6,0,0,1,87.84,273.19Zm-2.47,0a3.64,3.64,0,0,0-3.84-4,3.76,3.76,0,0,0-3.94,4,3.63,3.63,0,0,0,3.83,4A3.77,3.77,0,0,0,85.36,273.16Z"/><path class="03f254a8-bb4f-415a-bf65-1448642ba27c" d="M100.15,268.69a70.69,70.69,0,0,0-6.49,14.09H90.92l0,0A76.73,76.73,0,0,1,97.67,269l-8.69.33v-2.24h11.07Z"/><path class="03f254a8-bb4f-415a-bf65-1448642ba27c" d="M100.26,278a1.7,1.7,0,0,1,1.76-1.71,1.56,1.56,0,0,1,1.69,1.59,1.71,1.71,0,0,1-1.76,1.71A1.57,1.57,0,0,1,100.26,278Z"/><path class="03f254a8-bb4f-415a-bf65-1448642ba27c" d="M118.5,273.19a6.12,6.12,0,0,1-6.41,6.43,6,6,0,0,1-6.31-6.34,6.13,6.13,0,0,1,6.39-6.46A6,6,0,0,1,118.5,273.19Zm-2.47,0a3.64,3.64,0,0,0-3.84-4,3.76,3.76,0,0,0-3.94,4,3.63,3.63,0,0,0,3.83,4A3.77,3.77,0,0,0,116,273.16Z"/><path class="03f254a8-bb4f-415a-bf65-1448642ba27c" d="M130.82,268.69a70.69,70.69,0,0,0-6.49,14.09h-2.74l0,0A76.72,76.72,0,0,1,128.34,269l-8.69.33v-2.24h11.07Z"/><path class="03f254a8-bb4f-415a-bf65-1448642ba27c" d="M148.32,272.19l-.21,2.11-13.91-.15v-2Z"/><path class="03f254a8-bb4f-415a-bf65-1448642ba27c" d="M164.55,273.19a6.12,6.12,0,0,1-6.41,6.43,6,6,0,0,1-6.31-6.34,6.13,6.13,0,0,1,6.39-6.46A6,6,0,0,1,164.55,273.19Zm-2.47,0a3.64,3.64,0,0,0-3.84-4,3.76,3.76,0,0,0-3.94,4,3.63,3.63,0,0,0,3.83,4A3.77,3.77,0,0,0,162.08,273.16Z"/><path class="03f254a8-bb4f-415a-bf65-1448642ba27c" d="M175.21,271.21a4.16,4.16,0,0,1,2.65,3.86c0,2.75-2.19,4.58-5.72,4.58s-5.54-1.79-5.54-4.61a5,5,0,0,1,2.68-4.39,4,4,0,0,1-2.14-3.67c0-2.71,1.95-4.49,5.19-4.49s5.2,1.77,5.2,4.57c0,1.66-.71,2.87-2.33,4.16Zm.23,3.8c0-2-2.23-2.63-4.38-3.51-1.45,1-2.07,1.92-2.07,3.22,0,1.82,1.19,2.91,3.19,2.91S175.45,276.53,175.45,275Zm-5.92-8.07c0,2,2,2.69,4,3.51a4.09,4.09,0,0,0,1.67-3.28,2.47,2.47,0,0,0-2.77-2.69C170.61,264.48,169.53,265.46,169.53,266.94Z"/><path class="03f254a8-bb4f-415a-bf65-1448642ba27c" d="M180,278a1.7,1.7,0,0,1,1.76-1.71,1.56,1.56,0,0,1,1.69,1.59,1.71,1.71,0,0,1-1.76,1.71A1.57,1.57,0,0,1,180,278Z"/><path class="03f254a8-bb4f-415a-bf65-1448642ba27c" d="M196.21,277.32v2.08H185.6l0-1.72,5.27-4c1.65-1.22,2.09-1.92,2.09-2.77,0-1.19-.89-2-2.71-2a6.74,6.74,0,0,0-4,1.42h0l-.73-2.11a9.38,9.38,0,0,1,4.84-1.36c3.19,0,5.21,1.5,5.21,3.94,0,1.3-.61,2.77-2.92,4.24l-3.79,2.52Z"/><path class="03f254a8-bb4f-415a-bf65-1448642ba27c" d="M210.82,273.19a6.12,6.12,0,0,1-6.41,6.43,6,6,0,0,1-6.31-6.34,6.13,6.13,0,0,1,6.39-6.46A6,6,0,0,1,210.82,273.19Zm-2.47,0a3.64,3.64,0,0,0-3.84-4,3.76,3.76,0,0,0-3.94,4,3.63,3.63,0,0,0,3.83,4A3.77,3.77,0,0,0,208.35,273.16Z"/></g></svg>