<svg xmlns="http://www.w3.org/2000/svg" viewBox="0 0 238 97"><defs><style>.\35 d5fb14f-eed6-4785-9795-1df9d99928d7{fill:#ff4c00;}.decf4bf0-0550-4c1d-b1e9-e625f349dde2{fill:none;stroke:#ff4c00;stroke-miterlimit:10;}</style></defs><title>index</title><g id="57b64c9c-d9b8-4d6d-b638-513adeaeccb8" data-name="menu"><path class="5d5fb14f-eed6-4785-9795-1df9d99928d7" d="M35.84,25.8V39.5h-2.3V38.3h-6.1v6.36h-2.3V38.3H19.21v1.32H17V25.8h8.14V22.65h2.3V25.8ZM19.21,27.93v3h5.93v-3Zm5.93,8.23V33H19.21v3.17Zm2.3-8.23v3h6.1v-3Zm6.1,8.23V33h-6.1v3.17Z"/><path class="5d5fb14f-eed6-4785-9795-1df9d99928d7" d="M47.17,28.37H38.89V26.59h8.28Zm-.67,3.07h-7V29.71h7Zm-7,1.51h7v1.73h-7Zm7,10.37h-5v1h-1.9V36.26h6.94Zm-5-5.28v3.48h3.12V38Zm1.3-11.52a23.38,23.38,0,0,0-1.15-3.26l1.87-.55a22.68,22.68,0,0,1,1.27,3.14Zm16.78,16c0,1-.22,1.51-.91,1.8a8.37,8.37,0,0,1-3.24.31,7.29,7.29,0,0,0-.62-1.8c1,0,2,0,2.28,0s.41-.1.41-.36V40.89h-7a8,8,0,0,1-1.73,4,7.39,7.39,0,0,0-1.56-1.44c1.42-1.73,1.56-4.08,1.56-6V33.19H59.5Zm1.27-12.22V32H47.38V30.29h5.47V28.94H48.27V27.36h4.58V26.13H47.69V24.5h5.16V22.65H55V24.5h5.5v1.63H55v1.22h5v1.58H55v1.34Zm-3.36,9.1V37.89H50.67c0,.46,0,1-.07,1.49Zm-6.74-4.49v1.46h6.74V34.89Z"/><path class="5d5fb14f-eed6-4785-9795-1df9d99928d7" d="M82.09,32.9a8.85,8.85,0,0,0-.53-1.08c-2.45.19-3.82.29-4.66.38a25.65,25.65,0,0,0,7.61,3.24A9.82,9.82,0,0,0,83.1,37.2,23.86,23.86,0,0,1,73,31.37a21.18,21.18,0,0,1-9.62,6,11.26,11.26,0,0,0-1.25-1.75,20.51,20.51,0,0,0,7.18-3.41L69.22,32c-4.15.24-4.87.34-5.3.5a14.43,14.43,0,0,0-.7-1.8,1.83,1.83,0,0,0,.89-.6A11.75,11.75,0,0,0,66,27.53l2,.84a16.93,16.93,0,0,1-1.78,2.16l2.28-.1c-.22-.36-.41-.67-.62-1l1.58-.5A19.42,19.42,0,0,1,70.66,31a12.07,12.07,0,0,0,1.85-2.47l2,.6c-.12.24-.26.48-.41.72a11.94,11.94,0,0,0,1,1L75,30.65a1.42,1.42,0,0,0,.77-.58,8.65,8.65,0,0,0,1.42-2.45l2,.82a15.61,15.61,0,0,1-1.39,2l2.69-.14a13.14,13.14,0,0,0-.86-1.08l1.58-.67a15,15,0,0,1,2.54,3.62ZM79.52,28a14.4,14.4,0,0,0-1.06-1.1c-10.7.46-11.91.43-12.79.72A15.15,15.15,0,0,0,65,25.75a4.94,4.94,0,0,0,1.51-.6,20,20,0,0,0,4.1-2.69l2,1a35.2,35.2,0,0,1-3.24,2.06l7.27-.22c-.65-.53-1.32-1-2-1.46L76.35,23a31.12,31.12,0,0,1,4.94,4Zm1.3,11c-3,3.19-8.5,4.9-14.57,5.74a5.71,5.71,0,0,0-1-1.8C71,42.24,76.35,40.8,79,38.06ZM78,36.53c-2.52,2.11-6.67,3.65-10.49,4.51a7.57,7.57,0,0,0-1.15-1.58c3.65-.7,7.78-2,9.94-3.77Zm-2.66-2.28a25.24,25.24,0,0,1-7.66,3.58,8,8,0,0,0-1.22-1.37,23.05,23.05,0,0,0,7.27-3Z"/><path class="5d5fb14f-eed6-4785-9795-1df9d99928d7" d="M90.15,29.59v1.13c0,4.1-.36,10.06-2.83,14a9,9,0,0,0-2-1.15c2.38-3.7,2.59-9,2.59-12.82v-7h18v5.86Zm0-3.94v2h13.56v-2Zm16.08,13.06a25.3,25.3,0,0,1-3.48,2.16,13.18,13.18,0,0,0,4.85,1.94,6.9,6.9,0,0,0-1.34,1.85,12.24,12.24,0,0,1-8.69-7.06h-2.9V42l4.66-1a10.62,10.62,0,0,0-.14,1.87c-5.66,1.3-6.43,1.51-6.91,1.82v0a6.6,6.6,0,0,0-.89-1.85,2.27,2.27,0,0,0,1.22-2V37.61H90.22V35.73h3.94V33.6H90.82V31.7h3.34V29.61h2V31.7h4.27V29.61h2.09V31.7h3.77v1.9h-3.77v2.14h4.75v1.87h-2.69Zm-10-3h4.27V33.6H96.2Zm3.5,1.87a8.84,8.84,0,0,0,1.63,2.14,24.24,24.24,0,0,0,3.17-2.14Z"/><path class="5d5fb14f-eed6-4785-9795-1df9d99928d7" d="M26.24,68.1l-7-.1-1.76,4.69H14.67l6.7-17.15h2.84l6.7,17.15H28ZM20,65.9H25.5L23.7,61c-.39-1.05-.68-2-.91-2.85l-.12,0a29.67,29.67,0,0,1-.9,2.88Z"/><path class="5d5fb14f-eed6-4785-9795-1df9d99928d7" d="M39.52,59.41c3.13,0,5.18,2.25,5.18,6.36,0,4.6-2.56,7.16-6.57,7.16a8.37,8.37,0,0,1-2.82-.46v4.65l-2.67.44V62.11l-.2-2.25,2.32-.36.44,2h.1a5,5,0,0,1,4.22-2.06Zm2.37,6.67c0-3-1.2-4.47-3-4.47s-3.55,1.32-3.55,4.34v4.14a4.29,4.29,0,0,0,2.64.67C40.56,70.75,41.9,69.28,41.9,66.07Z"/><path class="5d5fb14f-eed6-4785-9795-1df9d99928d7" d="M54,59.41c3.13,0,5.18,2.25,5.18,6.36,0,4.6-2.56,7.16-6.57,7.16a8.37,8.37,0,0,1-2.82-.46v4.65l-2.67.44V62.11L47,59.87l2.32-.36.44,2h.1A5,5,0,0,1,54,59.41Zm2.37,6.67c0-3-1.2-4.47-3-4.47s-3.55,1.32-3.55,4.34v4.14a4.29,4.29,0,0,0,2.64.67C55.08,70.75,56.42,69.28,56.42,66.07Z"/><path class="5d5fb14f-eed6-4785-9795-1df9d99928d7" d="M61.74,54.73l2.69-.44v18.4H61.74Z"/><path class="5d5fb14f-eed6-4785-9795-1df9d99928d7" d="M79.34,59.65l-3.59,8.92c-2.19,5.45-3.81,7.29-6.7,9L67,76.2v-.05a10.72,10.72,0,0,0,4.32-4.08l-5.19-12.2,3-.42,2.64,7.17c.35,1,.7,2.15,1,3.29H73c.29-1.13.63-2.23,1-3.26l2.52-7Z"/><path class="5d5fb14f-eed6-4785-9795-1df9d99928d7" d="M94.66,72a6.14,6.14,0,0,1-3.21.89c-2.41,0-3.72-1.38-3.72-3.85V61.93H85.28V60l2.45-.23.21-3,2.44-.42v3.56l3.94-.21-.13,2.27H90.39V68.8c0,1.28.53,1.88,1.63,1.88A3.54,3.54,0,0,0,93.94,70h0Z"/><path class="5d5fb14f-eed6-4785-9795-1df9d99928d7" d="M95.29,66.17c0-4.29,2.62-6.77,6.53-6.77s6.52,2.48,6.52,6.76-2.59,6.75-6.52,6.75S95.29,70.43,95.29,66.17Zm10.28,0c0-3-1.44-4.58-3.75-4.58s-3.73,1.62-3.75,4.58,1.44,4.59,3.75,4.59S105.59,69.13,105.57,66.16Z"/><path class="5d5fb14f-eed6-4785-9795-1df9d99928d7" d="M128.28,70.28v2.41H116.92V55.53H128v2.41l-8.34-.19V63l7.23-.13v2.41l-7.23-.14v5.35Z"/><path class="5d5fb14f-eed6-4785-9795-1df9d99928d7" d="M142.89,72.68h-3.1l-3.53-5.07-3.58,5.07h-3v0l4.89-6.57-4.55-5.95v0l2.92-.46,3.38,4.86,3.27-4.83h2.94v0L138,66.08Z"/><path class="5d5fb14f-eed6-4785-9795-1df9d99928d7" d="M156.21,64.3v8.38h-2.69V64.93c0-2.18-.83-3.28-2.58-3.28s-3.7,1.17-3.7,4.32v6.72h-2.69v-18l2.69-.41v7.14h.08a5.5,5.5,0,0,1,4.42-2C154.53,59.41,156.21,61.11,156.21,64.3Z"/><path class="5d5fb14f-eed6-4785-9795-1df9d99928d7" d="M158.83,56a1.67,1.67,0,0,1,1.85-1.57c1.05,0,1.75.6,1.75,1.47a1.68,1.68,0,0,1-1.83,1.59C159.52,57.52,158.83,56.92,158.83,56Zm.4,4,2.69-.42v13h-2.69Z"/><path class="5d5fb14f-eed6-4785-9795-1df9d99928d7" d="M177.07,65.77c0,4.64-2.58,7.16-6.86,7.16a9.67,9.67,0,0,1-5.21-1.4V54.73l2.67-.44v7.12h.09a4.89,4.89,0,0,1,4.11-2C175,59.41,177.07,61.65,177.07,65.77Zm-2.81.28c0-3-1.21-4.45-3.09-4.45s-3.5,1.29-3.5,4.34v4.13a4.24,4.24,0,0,0,2.61.67C172.91,70.74,174.26,69.25,174.26,66Z"/><path class="5d5fb14f-eed6-4785-9795-1df9d99928d7" d="M179.12,56A1.67,1.67,0,0,1,181,54.46c1.05,0,1.75.6,1.75,1.47a1.68,1.68,0,0,1-1.83,1.59C179.8,57.52,179.12,56.92,179.12,56Zm.4,4,2.69-.42v13h-2.69Z"/><path class="5d5fb14f-eed6-4785-9795-1df9d99928d7" d="M193.34,72a6.14,6.14,0,0,1-3.21.89c-2.41,0-3.72-1.38-3.72-3.85V61.93H184V60l2.45-.23.21-3,2.44-.42v3.56l3.94-.21-.13,2.27h-3.81V68.8c0,1.28.53,1.88,1.63,1.88a3.54,3.54,0,0,0,1.92-.63h0Z"/><path class="5d5fb14f-eed6-4785-9795-1df9d99928d7" d="M195.14,71.2a1.8,1.8,0,0,1,1.87-1.8,1.65,1.65,0,0,1,1.79,1.68,1.81,1.81,0,0,1-1.87,1.81A1.66,1.66,0,0,1,195.14,71.2Z"/><line class="decf4bf0-0550-4c1d-b1e9-e625f349dde2" x1="148.3" y1="34.3" x2="213.13" y2="34.3"/><polygon class="5d5fb14f-eed6-4785-9795-1df9d99928d7" points="212.32 28.22 212.32 40.37 218.39 34.3 212.32 28.22"/></g></svg>