<svg xmlns="http://www.w3.org/2000/svg" viewBox="0 0 238 97"><defs><style>.\37 a065472-68a8-419b-8826-9945a67d184a{fill:#ff4c00;}.\32 bf1cde4-db8a-4cde-8afd-d557fd5616bf{fill:none;stroke:#ff4c00;stroke-miterlimit:10;}</style></defs><title>index</title><g id="9128a2bd-83a4-4d8d-8a58-3cbd04f90828" data-name="line"><path class="7a065472-68a8-419b-8826-9945a67d184a" d="M22.21,29.11A28.56,28.56,0,0,1,20.62,32V45.67H18.56V34.92a21.07,21.07,0,0,1-1.73,2A17.14,17.14,0,0,0,15.49,35a22.49,22.49,0,0,0,4.75-6.58Zm-.38-4.78A24,24,0,0,1,17,30a17.46,17.46,0,0,0-1.2-1.68,17.56,17.56,0,0,0,4-4.68Zm15.46,6A30.74,30.74,0,0,1,35,39.67a9.62,9.62,0,0,0,3.53,4.1,8,8,0,0,0-1.44,1.75,10.52,10.52,0,0,1-3.22-3.82,14,14,0,0,1-3.91,4,11.82,11.82,0,0,0-1.42-1.51,11.74,11.74,0,0,0,1.27-.86c-2.62.38-5.28.77-7.34,1L22,42.58l3.31-.36V40.08H21.8V38.4h3.5V36.86c-1,.12-1.94.22-2.83.26a6.22,6.22,0,0,0-.53-1.44,43.36,43.36,0,0,0,7-1.2l1.18,1.44a20.61,20.61,0,0,1-2.93.65V38.4h3.6v1.68H27.2V42l3.1-.36,0,1.22a12.09,12.09,0,0,0,2.59-3.31,33.91,33.91,0,0,1-1.42-5.5,12.74,12.74,0,0,1-.7,1.27,11.72,11.72,0,0,0-1.51-1.61H22V31.87h8.28v0a32.05,32.05,0,0,0,1.9-8.3l2.06.31c-.22,1.54-.46,3-.79,4.46h4.78v1.9Zm-6.94.26h-8V25.1h1.58v3.72h1.46V23.59h1.68v5.23h1.68V25.1h1.61Zm2.59-.26c-.07.29-.17.58-.26.86a39.08,39.08,0,0,0,1.3,6,31.59,31.59,0,0,0,1.39-6.84Z"/><path class="7a065472-68a8-419b-8826-9945a67d184a" d="M44.09,30.55v1.13c0,4.1-.36,10.06-2.83,14a9,9,0,0,0-2-1.15c2.38-3.7,2.59-9,2.59-12.82v-7h18v5.86Zm0-3.94v2H57.65v-2ZM60.17,39.67a25.29,25.29,0,0,1-3.48,2.16,13.18,13.18,0,0,0,4.85,1.94,6.9,6.9,0,0,0-1.34,1.85,12.24,12.24,0,0,1-8.69-7.06h-2.9V43l4.66-1a10.62,10.62,0,0,0-.14,1.87c-5.66,1.3-6.43,1.51-6.91,1.82v0a6.6,6.6,0,0,0-.89-1.85,2.26,2.26,0,0,0,1.22-2V38.57H44.17V36.7H48.1V34.56H44.77v-1.9H48.1V30.58h2v2.09h4.27V30.58H56.5v2.09h3.77v1.9H56.5V36.7h4.75v1.87H58.57Zm-10-3h4.27V34.56H50.14Zm3.5,1.87a8.84,8.84,0,0,0,1.63,2.14,24.24,24.24,0,0,0,3.17-2.14Z"/><path class="7a065472-68a8-419b-8826-9945a67d184a" d="M84.73,38H75.1v4.7c0,1.46-.41,2.09-1.42,2.42a16.85,16.85,0,0,1-5.09.38,9.64,9.64,0,0,0-.94-2.21c1.92.07,3.84.07,4.39,0s.72-.17.72-.67V38H63.13V35.86h9.65V32.45h-8V30.31h8V27c-2.57.22-5.18.38-7.61.48a6.67,6.67,0,0,0-.53-1.94c5.66-.26,12.43-.89,16.18-2l1.66,1.82a49.55,49.55,0,0,1-7.37,1.34v3.53h8.26v2.14H75.1v3.41h9.62Z"/><path class="7a065472-68a8-419b-8826-9945a67d184a" d="M108.37,35.78h-2.14V43c0,1.08-.17,1.73-.86,2.14a6.48,6.48,0,0,1-3,.41,8.32,8.32,0,0,0-.72-2.18c.84,0,1.7,0,2,0s.36-.12.36-.41V35.78H101v9.55H98.84V35.78h-3v9.55H93.73V35.78h-2.9v9.84H88.59V35.78H86.31V33.58h2.28V25h17.64v8.54h2.14ZM93.73,33.58V27.24h-2.9v6.34Zm5.11,0V27.24h-3v6.34Zm5.18,0V27.24H101v6.34Z"/><path class="7a065472-68a8-419b-8826-9945a67d184a" d="M36.26,73.65H33.4L32,63.37a29.7,29.7,0,0,1-.18-3.15h-.09c-.3,1.27-.63,2.46-.9,3.21l-3.2,9H24.85l-3.28-9A33.68,33.68,0,0,1,20.65,60h-.09a32.71,32.71,0,0,1-.21,3.38L18.95,73.65h-2.6L18.9,56.49h2.81l3.66,10.08c.33.94.66,2,.94,3.13h.1c.28-1.09.6-2.22.91-3.12l3.55-10.09h2.81Z"/><path class="7a065472-68a8-419b-8826-9945a67d184a" d="M49.37,73.53v.05l-2.33.3A3.5,3.5,0,0,1,46.43,72h-.05a5.2,5.2,0,0,1-4.14,1.87c-2.3,0-4.3-1.13-4.3-3.6,0-2.67,2.34-4.56,7.8-4.56h.68c0-2.36-1.25-3.19-3.4-3.19a6.31,6.31,0,0,0-3.83,1.23h0l-.73-2.09a8.78,8.78,0,0,1,4.95-1.33c3.82,0,5.56,1.5,5.56,5.18v3.83A12.36,12.36,0,0,0,49.37,73.53Zm-3-5.41v-.6h-.75c-3.86,0-5.08,1.17-5.08,2.51s1,1.81,2.29,1.81A3.41,3.41,0,0,0,46.41,68.13Z"/><path class="7a065472-68a8-419b-8826-9945a67d184a" d="M63.67,65.27v8.38H61V65.89c0-2.18-.83-3.28-2.58-3.28s-3.7,1.17-3.7,4.32v6.72H52V63.08l-.2-2.25,2.33-.36.45,2h0a5.85,5.85,0,0,1,4.57-2.08C62,60.37,63.67,62.07,63.67,65.27Z"/><path class="7a065472-68a8-419b-8826-9945a67d184a" d="M78.46,73.53v.05l-2.41.3A4,4,0,0,1,75.38,72h-.1a5.54,5.54,0,0,1-4.34,1.87c-2.6,0-4.33-1.6-4.33-4.9V60.75l2.69-.38v8c0,2.36,1,3.26,2.57,3.26a3.23,3.23,0,0,0,3.44-3.46V60.61H78v9.21A11.52,11.52,0,0,0,78.46,73.53Z"/><path class="7a065472-68a8-419b-8826-9945a67d184a" d="M91.74,73.53v.05l-2.33.3A3.51,3.51,0,0,1,88.8,72h-.05a5.2,5.2,0,0,1-4.14,1.87c-2.3,0-4.3-1.13-4.3-3.6,0-2.67,2.34-4.56,7.8-4.56h.68c0-2.36-1.25-3.19-3.4-3.19a6.31,6.31,0,0,0-3.83,1.23h0l-.73-2.09a8.77,8.77,0,0,1,4.95-1.33c3.82,0,5.56,1.5,5.56,5.18v3.83A12.36,12.36,0,0,0,91.74,73.53Zm-3-5.41v-.6H88c-3.86,0-5.08,1.17-5.08,2.51s1,1.81,2.29,1.81A3.41,3.41,0,0,0,88.78,68.13Z"/><path class="7a065472-68a8-419b-8826-9945a67d184a" d="M94.36,55.69l2.69-.44v18.4H94.36Z"/><line class="2bf1cde4-db8a-4cde-8afd-d557fd5616bf" x1="149.04" y1="35.26" x2="213.88" y2="35.26"/><polygon class="7a065472-68a8-419b-8826-9945a67d184a" points="213.06 29.18 213.06 41.33 219.13 35.26 213.06 29.18"/></g></svg>