<svg xmlns="http://www.w3.org/2000/svg" viewBox="0 0 1920 1080"><defs><style>.\34 601f515-14d8-4d3b-bf3b-58804fe9a140,.ebd4f228-3bab-4ae3-8f53-bc63a84cae24{fill:#0047ba;}.\34 601f515-14d8-4d3b-bf3b-58804fe9a140{opacity:0.29;}.c83719af-c958-4794-a5a5-375e4d8f3b21{fill:#fff;}.ba63bd5f-e4ff-4823-9608-3d5c8bbadc08{fill:#f2f2f2;}.d1c75b6e-ef19-478e-bcad-6b19dcc6b60b{fill:none;stroke:#fff;stroke-miterlimit:10;}</style></defs><title>index0829</title><g id="abefa486-d80b-4086-a4b2-68556b0c8690" data-name="bg"><rect class="4601f515-14d8-4d3b-bf3b-58804fe9a140" width="1920" height="1080"/></g><g id="20634bda-079e-4883-b600-8640c0901e32" data-name="menu"><rect class="ebd4f228-3bab-4ae3-8f53-bc63a84cae24" width="1920" height="65"/><polygon class="c83719af-c958-4794-a5a5-375e4d8f3b21" points="113.92 48.77 122.44 48.77 131.98 48.77 140.5 48.77 127.28 23.48 113.92 48.77"/><polygon class="c83719af-c958-4794-a5a5-375e4d8f3b21" points="105.33 42.08 115.08 23.48 92 23.48 92 29.55 102.26 29.55 92.02 48.77 113.91 48.77 114.05 42.08 105.33 42.08"/><path class="ba63bd5f-e4ff-4823-9608-3d5c8bbadc08" d="M1434.79,34.38a9.74,9.74,0,0,1-2,3.7,8.93,8.93,0,0,0,2.74,1.12,6.27,6.27,0,0,0-1.12,1.47,8.8,8.8,0,0,1-2.88-1.41,10.59,10.59,0,0,1-2.8,1.54,7,7,0,0,0-.95-1.41v1.42H1426V39.44c-1.86.21-3.71.38-5.15.54l-.14-1.63,1.39-.11V33.38h-1.25v-1.5h14.21v1.5h-7.28v5.89a8,8,0,0,0,2.42-1.22,9.77,9.77,0,0,1-1.54-2.45l.58-.16h-1V34h5l.3-.06Zm-10.21-3h-1.83v-5h10.52v5h-1.92v-3.7h-6.77Zm-.75,2V34H1426v-.66Zm0,2.61H1426v-.64h-2.21Zm0,2.08c.7-.06,1.47-.13,2.21-.21v-.56h-2.21Zm6.93-8.71h-5.68v-1.1h5.68Zm-5.67,1.71V30h5.67v1.1Zm5.27,4.37a6.24,6.24,0,0,0,1.09,1.5,6,6,0,0,0,1-1.5Z"/><path class="ba63bd5f-e4ff-4823-9608-3d5c8bbadc08" d="M1439.61,36.31A15.28,15.28,0,0,1,1438,39.6a12.25,12.25,0,0,0-1.25-.86,11.42,11.42,0,0,0,1.41-2.83Zm2.24-.93V40.7H1440V35.39h-3v-1.6h3V32.55h-3.07V31h1.55a9.6,9.6,0,0,0-.46-1.66l1.31-.32h-2.16V27.45h2.74c-.14-.43-.32-.88-.48-1.26l1.9-.46c.24.53.53,1.18.72,1.73h2.29V29h-2l1.3.26c-.24.61-.48,1.23-.72,1.73h1.66v1.57h-2.74v1.23h2.48v1.6Zm-2.3-6.39a7.91,7.91,0,0,1,.53,1.67l-1.15.32h2.3a18.21,18.21,0,0,0,.69-2Zm12.18,3.89h-1.49v7.86h-1.86V32.89h-1.49v.19c0,2.35-.21,5.65-1.57,7.7a7.1,7.1,0,0,0-1.47-1.14,6.35,6.35,0,0,0,.72-1.55l-1.14.7a19.15,19.15,0,0,0-1.25-2.4l1.25-.67a15.69,15.69,0,0,1,1.2,2.1,17.27,17.27,0,0,0,.5-4.74v-5.7A22.7,22.7,0,0,0,1450,26l1.46,1.39a24.78,24.78,0,0,1-4.54,1.2v2.51h4.83Z"/><path class="ba63bd5f-e4ff-4823-9608-3d5c8bbadc08" d="M1456,33.58c-.66-.46-2-1.22-3-1.73l1-1.41c.88.43,2.31,1.12,3,1.55Zm2,2c-.85,1.67-1.86,3.49-2.82,5l-1.62-1.28a42.74,42.74,0,0,0,3-5Zm-1.19-6.26a29.48,29.48,0,0,0-2.87-1.87l1.12-1.34c.88.48,2.22,1.23,2.9,1.7Zm10.47,9.43c0,.93-.16,1.41-.77,1.71a6.56,6.56,0,0,1-2.66.32,6.32,6.32,0,0,0-.58-1.79c.74,0,1.57,0,1.83,0s.32-.08.32-.29V36.54c-1.6.43-3.27.85-4.59,1.18l-.56-1.57c1.33-.26,3.26-.69,5.15-1.14v-3h-5.15v3.2c0,1.79-.13,4.19-1,5.67a7.76,7.76,0,0,0-1.52-1,9.8,9.8,0,0,0,.78-4.63V30.33H1462V25.86H1464v4.47h3.38ZM1459.59,30a11.12,11.12,0,0,0-1.44-3l1.6-.7a11,11,0,0,1,1.57,2.88Zm1.73,2.61a15.58,15.58,0,0,1,3.59,1.28l-.82,1.3a15.93,15.93,0,0,0-3.54-1.42Zm6.61-5.73a26.69,26.69,0,0,1-1.6,3l-1.65-.61a19.68,19.68,0,0,0,1.39-3.06Z"/><path class="ba63bd5f-e4ff-4823-9608-3d5c8bbadc08" d="M1469.09,39.19a16.92,16.92,0,0,0,1.52-3.36l1.7.7a29.27,29.27,0,0,1-1.46,3.51Zm7-4.08h-4.59V27.27h3.68a14.61,14.61,0,0,0,.42-1.57l2.3.29c-.22.48-.48.9-.69,1.28h4.39v7.84H1477a10,10,0,0,1,1.68,2.11l-1.57.91a11,11,0,0,0-1.9-2.53Zm2.26,3.7c.77,0,.9-.21,1-1.73a4.92,4.92,0,0,0,1.73.67c-.22,2.24-.78,2.79-2.58,2.79h-3c-2.24,0-2.83-.53-2.83-2.24V36.09h1.94v2.19c0,.48.16.53,1.07.53Zm-5-9.35h6.32v-.74h-6.32Zm0,2.1h6.32v-.74h-6.32Zm0,2.11h6.32v-.75h-6.32Zm8.77,1.86a13.28,13.28,0,0,1,1.78,3.43l-1.82.77a13.78,13.78,0,0,0-1.63-3.49Z"/><path class="ba63bd5f-e4ff-4823-9608-3d5c8bbadc08" d="M1767.51,31.47a7.71,7.71,0,0,1-1.54,1.71,5,5,0,0,0-.62-.75,18.94,18.94,0,0,1-1.38,6.71,7.22,7.22,0,0,0-1.62-.9c1.2-2.46,1.3-6,1.3-8.55V24.78h13.54V26.5h-11.76v3.2c0,.62,0,1.31,0,2a6,6,0,0,0,1.46-1.47h-1.07V28.94h1.74v-.72c-.51,0-1,.1-1.47.11a4.8,4.8,0,0,0-.42-1.06,15.61,15.61,0,0,0,3.86-.69l1.15,1a11.74,11.74,0,0,1-1.57.43v1h1.66v1.33h-1.47c.46.29,1.25.77,1.49.94l-.91,1.15c-.16-.18-.46-.46-.77-.75v1.54h-1.55Zm4.71,5.73h5v1.57h-12.13V37.2h1.73v-3h1.83v3h1.73V33.06h.9a5.88,5.88,0,0,0-1-1,6.22,6.22,0,0,0,1.86-1.76h-1V28.94H1773v-.75c-.56.06-1.14.1-1.68.13a3.46,3.46,0,0,0-.38-1.07,19,19,0,0,0,4.31-.74l1.17,1a11.89,11.89,0,0,1-1.81.46v1h2.27v1.33h-2c.67.42,2.15,1.39,2.53,1.68l-.85,1.22c-.42-.42-1.23-1.09-1.92-1.63v1.62H1773v-1.9a6.77,6.77,0,0,1-1.49,1.81h.74v1.31h3.63v1.47h-3.63Z"/><path class="ba63bd5f-e4ff-4823-9608-3d5c8bbadc08" d="M1792.61,29.65H1782.3c0,2.77-.27,6.93-2,9.57a7.74,7.74,0,0,0-1.7-1c1.6-2.45,1.71-6,1.71-8.58V24.94h12.24Zm-1.92-3h-8.39v1.26h8.39Zm2.21,4.26v8.26h-1.81V38.6h-8.31V30.91h1.82v6h6.48v-6ZM1787,34.55V33h-1.59V31.44H1787V30h1.73v1.41h1.6V33h-1.6v1.57h1.9v1.54h-5.57V34.55Z"/><path class="ba63bd5f-e4ff-4823-9608-3d5c8bbadc08" d="M1808.94,35.35a20.55,20.55,0,0,1-2.06,1.23,8.91,8.91,0,0,0,2.8,1,7.39,7.39,0,0,0-1.1,1.58,7.79,7.79,0,0,1-5.6-4.58h-1.63v2.5l2.69-.51a9.5,9.5,0,0,0-.16,1.57c-3.52.77-4.08.9-4.42,1.12v0a5.87,5.87,0,0,0-.69-1.54,1.73,1.73,0,0,0,.82-1.49V34.56h-1.33V33h2.34v-1.1h-2V30.27h2v-1.1h-2.34v.46c0,2.79-.26,6.95-1.94,9.57a8.06,8.06,0,0,0-1.7-1c1.58-2.47,1.71-6.05,1.71-8.6V24.89h12.31v4.27h-2.16v1.1h2.3v1.58h-2.3V33h3v1.6h-1.68Zm-10.69-7.79h8.47V26.5h-8.47Zm4.08,2.72h2.38v-1.1h-2.38Zm0,2.69h2.38v-1.1h-2.38Zm2.43,1.6a5.18,5.18,0,0,0,.88,1.07,17.43,17.43,0,0,0,1.6-1.07Z"/><path class="ba63bd5f-e4ff-4823-9608-3d5c8bbadc08" d="M1823.76,37.56c.5,0,.61-.18.67-1.2a4.68,4.68,0,0,0,1.57.54c-.19,1.65-.66,2.08-2,2.08h-2.37c-1.91,0-2.37-.43-2.37-1.86v-.64h-1.76c-.5,1.55-1.75,2.3-5.6,2.67a4.41,4.41,0,0,0-.82-1.46c3.06-.14,4-.46,4.48-1.22h-2V31.12h10.13v5.36h-2.56v.62c0,.4.13.45.77.45Zm-5.25-6.92h-6.67v-6h6.55v1.09h-2.3v.54h2v.35a5.61,5.61,0,0,0,1.81-2.45l1.63.26c-.06.18-.14.37-.22.54h4.42v1.18h-5.06a4.58,4.58,0,0,1-.32.45H1825v1H1820V27a7.94,7.94,0,0,1-.83.8,5.89,5.89,0,0,0-1.15-1v2.14h-2v.66h2.43Zm-5.06-4.87v.54h1.14v-.54Zm3,1.55h-3v.61h3Zm-3,2.26h1.14v-.66h-1.14Zm1.84,3h6.43V32.1h-6.43Zm0,1.44h6.43v-.51h-6.43Zm0,1.46h6.43V35h-6.43Zm3.81-7.38h6.35v2.54h-6.35Zm1.26,1.68h.61V29h-.61Zm1.54,0h.66V29h-.66Zm1.58,0h.64V29h-.64Z"/><path class="ba63bd5f-e4ff-4823-9608-3d5c8bbadc08" d="M1541.86,33c-.06-.19-.16-.4-.26-.62-1.25.08-2,.14-2.58.21a16.39,16.39,0,0,0,4.72,1.84,7,7,0,0,0-1.2,1.47,16.12,16.12,0,0,1-6.69-3.78,12.24,12.24,0,0,1-3.63,2.75,15,15,0,0,0,4.08-1.65l1.33.69a17.22,17.22,0,0,1-5,2.24,7.22,7.22,0,0,0-.9-1,19.06,19.06,0,0,1-2.21.88,8.61,8.61,0,0,0-1-1.5,14.17,14.17,0,0,0,4.48-2,12.4,12.4,0,0,0-3.1.37,13.43,13.43,0,0,0-.61-1.49,1.27,1.27,0,0,0,.59-.42,6.57,6.57,0,0,0,1-1.65l0,0c-.1-.35-.34-1-.5-1.42a4,4,0,0,0,1.06-.4,13.36,13.36,0,0,0,2.75-1.73l1.66.82a18.33,18.33,0,0,1-1.91,1.17l4.18-.1a14.05,14.05,0,0,0-1.18-.91l1.44-.67a23.64,23.64,0,0,1,3.28,2.79l-1.52.74-.58-.64c-6.69.24-7.87.26-8.55.43l1.49.59a8,8,0,0,1-.93,1.25l1.15,0a4.93,4.93,0,0,0-.35-.66l1.36-.38c.19.37.42.78.61,1.18a6,6,0,0,0,1.07-1.47l1.75.5c-.1.18-.21.34-.29.5a6.08,6.08,0,0,0,.45.48v0a1.06,1.06,0,0,0,.54-.42,6.22,6.22,0,0,0,.77-1.59l1.68.67a9.3,9.3,0,0,1-.77,1.18l1.34-.06q-.24-.36-.48-.67l1.31-.51a9.35,9.35,0,0,1,1.57,2.48Zm-.59,4c-2.11,2.23-5.79,3.28-9.89,3.83a5.74,5.74,0,0,0-.85-1.52c3.83-.37,7.43-1.25,9.2-3Zm-1.86-1.62a17.21,17.21,0,0,1-7.14,3,6.39,6.39,0,0,0-.94-1.34c2.45-.4,5.23-1.22,6.66-2.35Z"/><path class="ba63bd5f-e4ff-4823-9608-3d5c8bbadc08" d="M1558.45,37a20.71,20.71,0,0,1-2.07,1.23,8.89,8.89,0,0,0,2.8,1,7.37,7.37,0,0,0-1.11,1.58,7.79,7.79,0,0,1-5.6-4.58h-1.63v2.5l2.69-.51a9.4,9.4,0,0,0-.16,1.57c-3.52.77-4.08.9-4.42,1.12v0a5.84,5.84,0,0,0-.69-1.54,1.73,1.73,0,0,0,.82-1.49V36.22h-1.33v-1.6h2.34v-1.1h-2V31.93h2v-1.1h-2.34v.46c0,2.79-.26,6.95-1.94,9.57a8,8,0,0,0-1.7-1c1.58-2.47,1.71-6.05,1.71-8.6V26.55h12.31v4.27H1556v1.1h2.31v1.59H1556v1.1h3v1.6h-1.68Zm-10.69-7.8h8.47V28.15h-8.47Zm4.08,2.72h2.38v-1.1h-2.38Zm0,2.69h2.38v-1.1h-2.38Zm2.43,1.6a5.15,5.15,0,0,0,.88,1.07,17.58,17.58,0,0,0,1.6-1.07Z"/><path class="ba63bd5f-e4ff-4823-9608-3d5c8bbadc08" d="M1565,30h2.56v1.6H1566l1,.24c-.27.56-.56,1.1-.82,1.62h1.1V35H1565V36.3h2.56v1.6H1565v2.85h-1.76V37.9h-2.77V36.3h2.77V35h-2.38v-1.6H1562a11,11,0,0,0-.56-1.58l.9-.27h-1.84V30h2.75v-1.1H1561V27.29h2.32V25.91H1565v1.38h2.19v1.57H1565Zm-.45,3.46a16.16,16.16,0,0,0,.77-1.86h-2.45a7.2,7.2,0,0,1,.63,1.62l-.72.24ZM1575,32.36a16.35,16.35,0,0,1-1.66,5.12,7.46,7.46,0,0,0,2.19,1.71,8.14,8.14,0,0,0-1.25,1.5,8.39,8.39,0,0,1-2-1.66,8.87,8.87,0,0,1-1.82,1.81,5.93,5.93,0,0,0-.75-.86v.8H1568V26.53h6.61v3c0,.82-.18,1.28-.8,1.54a7.43,7.43,0,0,1-2.64.27,6.54,6.54,0,0,0-.54-1.63c.78,0,1.66,0,1.9,0s.32-.06.32-.24V28.2h-3.12V32h3.81l.3-.08Zm-5.27,6.8a8,8,0,0,0,1.49-1.62,15.49,15.49,0,0,1-1.49-3.3Zm1.33-5.63a12.43,12.43,0,0,0,1.1,2.39,12.68,12.68,0,0,0,.83-2.39Z"/><path class="ba63bd5f-e4ff-4823-9608-3d5c8bbadc08" d="M1587.81,36.3h3.26v1.42h-3.26v1.47c0,.86-.16,1.3-.82,1.55a8.09,8.09,0,0,1-2.67.26,6.4,6.4,0,0,0-.59-1.65c.78,0,1.68,0,1.9,0s.34-.06.34-.24V37.72h-4.83a11.17,11.17,0,0,1,1.66,1.41l-1.39,1.17a11.3,11.3,0,0,0-2.11-1.87l.85-.7h-3.51V36.3H1586v-.56h-.82a9.41,9.41,0,0,1-4.31-.69,5.35,5.35,0,0,0-1.41-.66c-.46,0-1.23.78-1.87,1.58l-1-1.52a8.82,8.82,0,0,1,1.28-.94,7.33,7.33,0,0,0,1.2-1.89h-2.22c.37-.64.8-1.46,1.17-2.27h-1.49V28h1.42c-.14-.46-.42-1.14-.59-1.65l1.58-.5c.21.53.51,1.25.66,1.7l-1.28.45h2.1c-.35.74-.75,1.52-1.12,2.26h.71l.26-.08.9.37a10.37,10.37,0,0,1-1.17,2.53c.3.13.62.34,1.12.58a9.86,9.86,0,0,0,4.11.56,53.46,53.46,0,0,0,6.23-.37,6.22,6.22,0,0,0-.48,1.71c-.74,0-2,.1-3.14.13ZM1584.66,29a4.89,4.89,0,0,0,.13-.51h-3.89V27.17h2.29a8.86,8.86,0,0,0-.51-1l1.5-.38a7.6,7.6,0,0,1,.77,1.41h2a8.64,8.64,0,0,0,.66-1.36l1.79.3-.69,1.06H1591v1.28h-4.43c-.08.18-.16.35-.24.51h3.47v4.79H1582V29Zm3.3.85h-4.22v.48H1588Zm0,1.28h-4.22v.51H1588Zm0,1.31h-4.22v.51H1588Z"/><path class="ba63bd5f-e4ff-4823-9608-3d5c8bbadc08" d="M1643.31,34.06a15.79,15.79,0,0,1,.67,1.76l-.64.22h.24v1.54a3,3,0,0,1-2.34,3.15,4.26,4.26,0,0,0-.82-1.06,2.54,2.54,0,0,0,1.55-.94h-1.81V36.31h1.15v1.36h1V36h.7c0-.11-.06-.26-.1-.4a13.27,13.27,0,0,0-2.83.46v0a9.59,9.59,0,0,0-.32-1.06,2.08,2.08,0,0,0,.83-.43,8.54,8.54,0,0,0,.69-.59,3.72,3.72,0,0,0-1.14.19v0a8.33,8.33,0,0,0-.38-1.09.92.92,0,0,0,.53-.29,4.55,4.55,0,0,0,.95-1.14h-2.11v9.14h-1.83V26.47h6.18v5.2h-1.62l.59.32a8.62,8.62,0,0,1-1.1,1.18l.83,0c.21-.24.4-.5.59-.74l.93.64a15.33,15.33,0,0,1-2.08,1.86l1-.1a4.68,4.68,0,0,0-.19-.51Zm-4.21-6.31v.75h2.56v-.75Zm0,2.64h2.56v-.74h-2.56Zm11.7,8.23c0,.91-.13,1.44-.67,1.76a4.72,4.72,0,0,1-2.35.35,7.27,7.27,0,0,0-.4-1.55h-.77v-.45h-1V40.6h-1.33V36h0c-.08-.26-.22-.72-.34-1a1.64,1.64,0,0,0,.85-.43,9,9,0,0,0,.67-.59,3.73,3.73,0,0,0-1.14.19,6.85,6.85,0,0,0-.38-1.09,1.15,1.15,0,0,0,.53-.29,5.83,5.83,0,0,0,.95-1.17h-1v-5.2h6.29Zm-3,.27a7.42,7.42,0,0,0,.87,0c.21,0,.27-.08.27-.29V31.67h-2.9l.62.34a8.3,8.3,0,0,1-1.07,1.17l.78,0a9.35,9.35,0,0,0,.66-.77l.91.66a19.24,19.24,0,0,1-2.06,1.9l1-.1c-.08-.18-.14-.35-.22-.51l.9-.29a15.93,15.93,0,0,1,.75,1.76l-.94.37c0-.14-.11-.34-.16-.53a25.66,25.66,0,0,0-2.61.4h1.06v1.63h1V36.31h1.22Zm-1.5-11.14v.75H1649v-.75Zm0,2.64H1649v-.74h-2.64Z"/><path class="ba63bd5f-e4ff-4823-9608-3d5c8bbadc08" d="M1659.18,31.85s0,.53,0,.75c-.1,4.8-.21,6.61-.62,7.17a1.46,1.46,0,0,1-1,.69,9.65,9.65,0,0,1-1.62.06,4.56,4.56,0,0,0-.48-1.71c.46,0,.86,0,1.1,0a.5.5,0,0,0,.45-.24c.21-.32.32-1.58.38-5h-1.44c-.21,3-.7,5.46-2.08,7.2a5.55,5.55,0,0,0-1.38-1.42c1.57-2,1.68-5.2,1.71-9.25h-1.25V28.34h2.82a10.56,10.56,0,0,0-1-1.92l1.7-.64a9.91,9.91,0,0,1,1.22,2.14l-1,.42h3V30.1H1656c0,.61,0,1.17,0,1.74Zm5.38-5.57c-.11.38-.24.75-.38,1.12a10.1,10.1,0,0,0,3.62,3.94,7.6,7.6,0,0,0-1.36,1.5,11.76,11.76,0,0,1-3.09-3.62,10.73,10.73,0,0,1-3.23,3.73,6.37,6.37,0,0,0-1.31-1.5,9.71,9.71,0,0,0,4-5.67Zm-3,9.94a30.8,30.8,0,0,1,4.61,2.83l-1.33,1.63a26.83,26.83,0,0,0-4.48-3.06Zm2.59-.66a19.79,19.79,0,0,0-2.72-2.32l1.22-1.23a20,20,0,0,1,2.82,2.19Z"/><path class="ba63bd5f-e4ff-4823-9608-3d5c8bbadc08" d="M1671.54,32.58a6.67,6.67,0,0,0-.58-.66,7.8,7.8,0,0,1-1.22,2,9.48,9.48,0,0,0-1.17-1.09,7.88,7.88,0,0,0,1.65-3.7l1.54.32c-.1.4-.19.8-.32,1.2a5.91,5.91,0,0,1,1,.93Zm0,4.37a8.14,8.14,0,0,1-1.39,3.07,8.82,8.82,0,0,0-1.38-.8,5.93,5.93,0,0,0,1.23-2.59Zm2-1v4.77h-1.79V36h-2.94V34.34h2.94V33.4h1a9,9,0,0,0-.94-.77,7,7,0,0,0,1.52-3.43l1.52.29a13.78,13.78,0,0,1-.37,1.39,13,13,0,0,1,1.49,1.65l-1.1.94a11.22,11.22,0,0,0-.95-1.23,6.66,6.66,0,0,1-.74,1.15h.34v.94h2.61V36Zm2.51-6.95h-7.19V27.38h2.82c-.14-.38-.32-.8-.46-1.14l1.81-.42a11.73,11.73,0,0,1,.67,1.55h2.35Zm-.93,7.52a14.37,14.37,0,0,1,1.2,2.64l-1.47.56a13,13,0,0,0-1.12-2.72Zm8.42,3.51h-5v.7h-1.71V32.47l-.18.24a13.48,13.48,0,0,0-1.41-1.25,14.71,14.71,0,0,0,2.56-5.57l1.78.43a24.62,24.62,0,0,1-.87,2.51h4.79v1.7h-1.76V32h1.58v1.6h-1.58v1.54h1.6v1.6h-1.6v1.59h1.84ZM1680,30.54h-1.5V32h1.5Zm0,3.09h-1.5v1.54h1.5Zm-1.5,4.72h1.5V36.76h-1.5Zm2.08-9.6a11.61,11.61,0,0,0-.88-2.16l1.65-.51a8.68,8.68,0,0,1,1,2Z"/><path class="ba63bd5f-e4ff-4823-9608-3d5c8bbadc08" d="M1699.55,37.88h-6.11V39c0,.85-.19,1.26-.85,1.52a9.15,9.15,0,0,1-2.74.24,6.19,6.19,0,0,0-.58-1.6c.75,0,1.71,0,2,0s.34,0,.34-.24V37.88h-6.48v-1.5h6.48v-.46a11.68,11.68,0,0,0,1.76-.93h-5.14V33.66h7l.4-.1,1.07,1a22.4,22.4,0,0,1-3.06,1.84h6Zm-12.37-3h-1.81V31.59h1.2l-.29-4.75a22.28,22.28,0,0,0,3.23-.9l.77,1.1a15.24,15.24,0,0,1-2.18.61l0,.46h2V29.3h-2l0,.54h2v.82a12.54,12.54,0,0,0,1.12-.61c-.3-.19-.61-.37-.9-.53l.88-.75c.32.16.66.35,1,.54a6.14,6.14,0,0,0,.64-.67l1.25.37a6.8,6.8,0,0,1-.85,1,6.51,6.51,0,0,1,1,.74l-.94.83a10.53,10.53,0,0,0-.93-.78,11.64,11.64,0,0,1-1.3.83h5.19l.06-.56h-1.89V29.85h2l0-.54h-2V28.12h2l0-.53h-2.16v-1.2h4c-.08,1.68-.19,3.71-.34,5.2h1.19v3.28h-1.89V33h-10.28Zm1.15-3.28h2.59a10.13,10.13,0,0,0-.72-.74V31h-1.9Zm5-2.95a8.58,8.58,0,0,0-.83-.67,8.16,8.16,0,0,1-1.3.8,9,9,0,0,0-1-.85,7.34,7.34,0,0,0,1.22-.62c-.3-.18-.58-.34-.87-.48l.85-.74c.3.14.64.32,1,.51a5.28,5.28,0,0,0,.58-.64l1.25.37a5.84,5.84,0,0,1-.8.88c.32.22.61.45.83.64Z"/><path class="ba63bd5f-e4ff-4823-9608-3d5c8bbadc08" d="M1706,35.87c-.19-.54-.54-1.34-.9-2.11v7.06h-1.75V34.34a16.2,16.2,0,0,1-1.52,3.79,12,12,0,0,0-.88-1.89,16.68,16.68,0,0,0,2.08-5.47h-1.58V29h1.9V25.85h1.75V29h1.59v1.78h-1.59v.51c.42.54,1.7,2.67,2,3.14Zm8.64-1.82a5.89,5.89,0,0,0-.4-.64,12,12,0,0,1-1.74,3.54,9.81,9.81,0,0,0,3.81,2A7.41,7.41,0,0,0,1715,40.7a10.22,10.22,0,0,1-3.81-2.3,12.13,12.13,0,0,1-3.84,2.43,6.7,6.7,0,0,0-1.2-1.49A11.08,11.08,0,0,0,1710,37a15,15,0,0,1-1.76-3.38c-.21.21-.43.38-.64.56A8.61,8.61,0,0,0,1706.3,33a11.85,11.85,0,0,0,2.67-3.12l1.68.77a18.42,18.42,0,0,1-1.82,2.39l.93-.24a10.71,10.71,0,0,0,1.44,2.75,8.9,8.9,0,0,0,1.26-2.77l1.62.43a17.94,17.94,0,0,0-2.13-2.43l1.09-.91h-6V28.09h3.6a9,9,0,0,0-1-1.78l1.68-.62a8.35,8.35,0,0,1,1.22,2l-1,.43h4.35v1.74h-2.51a16.19,16.19,0,0,1,2.63,3Z"/><polygon class="ba63bd5f-e4ff-4823-9608-3d5c8bbadc08" points="1599 31 1601.89 31 1600.44 33.5 1599 36 1597.56 33.5 1596.11 31 1599 31"/><rect class="ebd4f228-3bab-4ae3-8f53-bc63a84cae24" x="679.87" y="801.04" width="250" height="97" rx="5" ry="5"/><path class="c83719af-c958-4794-a5a5-375e4d8f3b21" d="M705.89,840.45a14.74,14.74,0,0,1-2.83,5.35,14.61,14.61,0,0,0-1.58-1.27A10.48,10.48,0,0,0,703.9,840Zm3.86-.84h-7V824.49h7Zm-2-13.3h-3.07V829h3.07Zm0,4.37h-3.07v2.71h3.07Zm0,4.39h-3.07v2.74h3.07Zm.72,4.82a21.28,21.28,0,0,1,2.06,3.77l-1.75.89a19.77,19.77,0,0,0-2-3.89Zm15.27,1.9H722.4v1.78c0,1-.22,1.54-.94,1.82a9.92,9.92,0,0,1-3.46.31,6.33,6.33,0,0,0-.58-1.8c1.06,0,2.18,0,2.5,0s.43-.1.43-.38V841.8h-6.94v3.94h-2V841.8H710v-1.66h1.39v-6h4.42v-1.15h-5.71v-1.66h3.22V830h-2.14v-1.56h2.14v-1.18h-2.74V825.6h2.74v-1.92h2v1.92h3v-1.92h2v1.92h2.76v1.66h-2.76v1.18h2.52V830h-2.52v1.3h3.24v1.66h-5.78v1.15h4.58v6h1.32Zm-10.3-6v1.39h2.42v-1.39Zm0,4.39h2.42v-1.54h-2.42Zm1.9-11.71h3v-1.18h-3Zm0,2.86h3V830h-3Zm2.5,4.46v1.39h2.54v-1.39Zm2.54,4.39v-1.54h-2.54v1.54Z"/><path class="c83719af-c958-4794-a5a5-375e4d8f3b21" d="M779.31,840.86a19,19,0,0,1-5.52,4.34c-.38-.36-1.2-1.13-1.66-1.46a15.29,15.29,0,0,0,5.11-3.6Zm14.33-2.93v1.8H784v6H781.8v-6h-9.53v-1.8Zm-14.5-11.62h-6.55v-1.8h20.59v1.8h-6.65v1.58H792v5.64H774V827.9h5.16Zm-4,10.27v-1.75h15.6v1.75Zm.91-4.73h3.07v-2.3h-3.07Zm8.35-5.54H781.2v1.58h3.22Zm-3.22,5.54h3.22v-2.3H781.2Zm6.62,8.35a37.11,37.11,0,0,1,5.64,3.65l-1.75,1.3a33.23,33.23,0,0,0-5.52-3.79Zm-1.3-10.66v2.3h3.24v-2.3Z"/><path class="c83719af-c958-4794-a5a5-375e4d8f3b21" d="M714.92,858.92l-5.41-.07v14.83h-2.79V858.82l-5.38-.07v-2.22h13.58Z"/><path class="c83719af-c958-4794-a5a5-375e4d8f3b21" d="M716.59,857a1.67,1.67,0,0,1,1.85-1.57c1.05,0,1.75.6,1.75,1.47a1.68,1.68,0,0,1-1.83,1.59C717.27,858.52,716.59,857.92,716.59,857Zm.4,4,2.69-.42v13H717Z"/><path class="c83719af-c958-4794-a5a5-375e4d8f3b21" d="M724.84,867.3c0,2.93,1.32,4.39,3.74,4.39a5.78,5.78,0,0,0,3.61-1.24h0l.75,2.14a9.39,9.39,0,0,1-4.75,1.34c-4,0-6.18-2.77-6.18-6.65,0-4,2.4-6.87,6.58-6.87a7,7,0,0,1,4.22,1.22l-.76,2.1h0a5.65,5.65,0,0,0-3.35-1.12C726.37,862.62,724.84,864.14,724.84,867.3Z"/><path class="c83719af-c958-4794-a5a5-375e4d8f3b21" d="M747.16,873.49v0l-3.12.34a30.35,30.35,0,0,1-5.39-5.84l-.37-.48h-.53v6.13h-2.69v-18l2.69-.44v10.59h.59l4.7-5.2h3.11l0,0-5.74,5.83.67.89A35.48,35.48,0,0,0,747.16,873.49Z"/><path class="c83719af-c958-4794-a5a5-375e4d8f3b21" d="M758.17,867.84h-8.53c.15,2.67,1.47,3.93,4,3.93a5.62,5.62,0,0,0,3.9-1.27h0l.74,2.1a10,10,0,0,1-5,1.33c-4.24,0-6.34-2.8-6.34-6.52,0-4.11,2.54-7,6.44-7,3.41,0,5.11,2.2,5.11,5.63,0,.46,0,1-.07,1.56Zm-2.07-2.55a2.69,2.69,0,0,0-2.88-2.86c-1.87,0-3.22,1.27-3.53,3.71l6.39-.19A4.58,4.58,0,0,0,756.1,865.28Z"/><path class="c83719af-c958-4794-a5a5-375e4d8f3b21" d="M769.07,873a6.14,6.14,0,0,1-3.21.89c-2.41,0-3.72-1.38-3.72-3.85v-7.14h-2.45v-2l2.45-.23.21-3,2.44-.42v3.56l3.94-.21-.13,2.27h-3.81v6.87c0,1.28.53,1.88,1.63,1.88a3.54,3.54,0,0,0,1.92-.63h0Z"/><line class="d1c75b6e-ef19-478e-bcad-6b19dcc6b60b" x1="834.67" y1="835.3" x2="899.5" y2="835.3"/><polygon class="c83719af-c958-4794-a5a5-375e4d8f3b21" points="898.69 829.22 898.69 841.37 904.76 835.3 898.69 829.22"/><rect class="ebd4f228-3bab-4ae3-8f53-bc63a84cae24" x="979" y="801.04" width="250" height="97" rx="5" ry="5"/><path class="c83719af-c958-4794-a5a5-375e4d8f3b21" d="M1017.79,837.79a16.26,16.26,0,0,0,5.38,2.47,8.06,8.06,0,0,0-1.44,1.78,16,16,0,0,1-3.26-1.51c-.26,2.76-.53,4-1.08,4.51a2,2,0,0,1-1.54.6,17.8,17.8,0,0,1-2.81,0,4.17,4.17,0,0,0-.55-1.73c1,.07,2.09.1,2.45.1s.62,0,.79-.19a4.91,4.91,0,0,0,.62-2.45h-4.94c-1,2.11-3,3.5-7.13,4.34a5.72,5.72,0,0,0-1.06-1.66c3.22-.55,4.92-1.42,5.88-2.69h-4.32v-.84a22.26,22.26,0,0,1-2.83,1.25,5.87,5.87,0,0,0-1.27-1.58,16.78,16.78,0,0,0,4.92-2.4h-4.32V836h6.22a7.09,7.09,0,0,0,.77-1.18H1004v-6.7h15.89v6.7h-9.24A11.52,11.52,0,0,1,1010,836h12.5v1.75Zm-11-10.95h-5.35v-1.7h5.35v-1.51h2.16v1.51h2.62v1.7h-2.62v1h-2.16Zm-.65,4h11.52v-1.3h-11.52Zm0,2.62h11.52v-1.3h-11.52Zm11.14,6.24a13.6,13.6,0,0,1-2.11-1.92h-6.65a14.39,14.39,0,0,1-2.33,1.92h3.72a9.92,9.92,0,0,0,.34-1.51h2.06a9.93,9.93,0,0,1-.31,1.51Zm-2.57-12.87h-2.38v-1.7h2.38v-1.51h2.21v1.51h5.5v1.7h-5.5v1h-2.21Z"/><path class="c83719af-c958-4794-a5a5-375e4d8f3b21" d="M1039.24,827.23a2.55,2.55,0,0,1,0,.58c1.3,1.32,3.86,2.14,7,2.33A6.49,6.49,0,0,0,1045,832a11.73,11.73,0,0,1-6.43-2.64c-.86,1.1-2.76,2.14-6.89,2.71a6.34,6.34,0,0,0-1.13-1.66h-6.1v-1.75h7v1.58c5.21-.67,5.76-2,5.76-3v-.31h-2a11.27,11.27,0,0,1-1.75,2.23,9.79,9.79,0,0,0-1.68-1.13,9.9,9.9,0,0,0,2.76-4.42l2,.43c-.14.41-.29.79-.46,1.2h7.49l.31-.1,1.54.5a22.05,22.05,0,0,1-2.09,3.55l-1.75-.62a18.56,18.56,0,0,0,1-1.66h-3.34Zm-.19,14.54a62.31,62.31,0,0,1,6.77,2.62l-2,1.22a46.69,46.69,0,0,0-6.46-2.71l1.39-1.13h-7.18l2,.91a32.94,32.94,0,0,1-7.34,3,18.13,18.13,0,0,0-1.66-1.68,26,26,0,0,0,6.91-2.23h-3.86v-9.65h15.65v9.65Zm-8.18-15.15H1025v-1.68h5.88Zm-1.1,8.28H1041v-1.37h-11.26Zm0,2.69H1041v-1.34h-11.26Zm0,2.76H1041V839h-11.26Z"/><path class="c83719af-c958-4794-a5a5-375e4d8f3b21" d="M1069.48,840.48h-5.55v3c0,1.08-.24,1.66-1.1,1.94a12.1,12.1,0,0,1-3.94.31,7.56,7.56,0,0,0-.7-1.94c1.32,0,2.69,0,3.07,0s.48-.1.48-.41v-2.9h-7.9a18.4,18.4,0,0,1,3.24,2.62l-1.61,1.51a19.77,19.77,0,0,0-3.82-3.22l1-.91h-4.85v-1.82h13.9v-1.25c-4.78.12-9.41.24-12.79.29l-.1-1.7c2.33,0,5.35,0,8.66,0v-1.06h-7.1v-6.67h7.1v-1.13h-9v-1.73h9v-1.68h2.21v1.68h8.81v1.73h-8.81v1.13h7.37v6.67h-2a21.88,21.88,0,0,1,3.48,2.06l-1.25,1.3a13.71,13.71,0,0,0-1.32-1l-2.06,0v1.32h5.55Zm-16.95-9.6h5v-1.22h-5Zm5,2.59v-1.25h-5v1.25Zm2.21-3.82v1.22h5.16v-1.22Zm5.16,3.82v-1.25h-5.16v1.25Zm-5.16,2.45,3.77,0a13.35,13.35,0,0,0-1.37-.6l.43-.41h-2.83Z"/><path class="c83719af-c958-4794-a5a5-375e4d8f3b21" d="M1092.79,840h-6.53a33.42,33.42,0,0,1,6.22,3.65l-1.7,1.58a32.21,32.21,0,0,0-6.1-3.84l1.51-1.39h-3.07v5.62h-2.23V840h-9.48v-1.85h9.48v-1.82h2.23v1.82h9.67Zm-2.54-2.71a54.42,54.42,0,0,0-7.34-2.09c-2.59,1.08-6.07,1.58-10.59,1.87a6.81,6.81,0,0,0-.79-1.85,44.76,44.76,0,0,0,7.63-.82c-1.51-.29-3.07-.58-4.63-.82.67-.6,1.42-1.39,2.18-2.18h-5.09v-1.78h6.65a24.29,24.29,0,0,0,1.8-2.45l2.11.67a21.31,21.31,0,0,1-1.39,1.78h5.35a10.1,10.1,0,0,0,.65-1.56l2.18.46c-.12.38-.26.74-.41,1.1h4v1.78h-4.92a9.13,9.13,0,0,1-2.4,2.5c2.78.65,5.28,1.32,7.18,1.94Zm-11,3.72a17.63,17.63,0,0,1-5.83,4,14.71,14.71,0,0,0-1.87-1.51,14.16,14.16,0,0,0,5.5-3.24Zm10.82-13.83h-16v1.66H1072v-3.53h8.83c-.24-.43-.48-.84-.67-1.22l2.3-.53c.31.53.74,1.18,1.06,1.75h8.64v3.53h-2.14Zm-10.87,4.22-1.13,1.1c1.46.24,2.93.5,4.34.79a8.5,8.5,0,0,0,2.52-1.9Z"/><path class="c83719af-c958-4794-a5a5-375e4d8f3b21" d="M1004.1,865.22c0,3.89,1.73,6.23,5.33,6.23a6.73,6.73,0,0,0,4.27-1.42h0l.82,2.42a10.07,10.07,0,0,1-5.39,1.47c-5.22,0-7.94-3.7-7.94-8.76s2.73-8.88,8.27-8.88a9.58,9.58,0,0,1,4.88,1.21l-.86,2.53h0a6.37,6.37,0,0,0-4-1.26C1005.93,858.77,1004.1,861.29,1004.1,865.22Z"/><path class="c83719af-c958-4794-a5a5-375e4d8f3b21" d="M1024.1,862.91c-3.23,0-4.87,1.24-4.87,4.46v6.32h-2.69V863.11l-.2-2.25,2.33-.36.45,2.16h.06a5.44,5.44,0,0,1,4.75-2.26Z"/><path class="c83719af-c958-4794-a5a5-375e4d8f3b21" d="M1024.92,867.17c0-4.29,2.62-6.77,6.53-6.77s6.52,2.48,6.52,6.76-2.59,6.75-6.52,6.75S1024.92,871.43,1024.92,867.17Zm10.28,0c0-3-1.44-4.58-3.75-4.58s-3.73,1.62-3.75,4.58,1.44,4.59,3.75,4.59S1035.22,870.13,1035.2,867.16Z"/><path class="c83719af-c958-4794-a5a5-375e4d8f3b21" d="M1059.23,860.65l-4.62,13h-2.55l-2.28-6.78c-.38-1.21-.72-2.51-.92-3.29-.19.77-.52,2.06-.9,3.29l-2.29,6.78h-2.55l-4.57-12.82,2.79-.4,2.11,6.82c.38,1.22.73,2.57,1,3.47h.1c.22-.9.58-2.24,1-3.47l2.18-6.64h2.73l2.16,6.64c.42,1.33.79,2.75,1,3.63.22-.87.6-2.29,1-3.63l2.11-6.64Z"/><path class="c83719af-c958-4794-a5a5-375e4d8f3b21" d="M1072.3,873.57v.05l-2.4.3a4.5,4.5,0,0,1-.68-2h-.09a5.15,5.15,0,0,1-4.24,2c-3,0-5.11-2.31-5.11-6.39,0-4.59,2.63-7.13,6.63-7.13a8,8,0,0,1,2.73.45v-5.2l2.69-.41v14.14A12.33,12.33,0,0,0,1072.3,873.57Zm-3.15-5.9v-4.23a4,4,0,0,0-2.68-.86c-2.35,0-3.92,1.54-3.92,4.8,0,2.83,1.19,4.35,3.09,4.35C1067.36,871.73,1069.07,870.58,1069.15,867.67Z"/><path class="c83719af-c958-4794-a5a5-375e4d8f3b21" d="M1084,855.79l-.69,2h0a3.08,3.08,0,0,0-1.87-.58c-1.67,0-2.62.83-2.62,3.21v.48l4.05-.21-.13,2.29h-3.92v10.73h-2.69V863h-2.38v-2l2.38-.23v-.67c0-3.25,1.89-5,5-5A5.8,5.8,0,0,1,1084,855.79Z"/><path class="c83719af-c958-4794-a5a5-375e4d8f3b21" d="M1096.25,873.57v.05l-2.41.3a4,4,0,0,1-.66-1.87h-.1a5.54,5.54,0,0,1-4.34,1.87c-2.6,0-4.33-1.6-4.33-4.9v-8.24l2.69-.38v8c0,2.36,1,3.26,2.57,3.26a3.23,3.23,0,0,0,3.44-3.46v-7.58h2.69v9.21A11.52,11.52,0,0,0,1096.25,873.57Z"/><path class="c83719af-c958-4794-a5a5-375e4d8f3b21" d="M1110.68,865.3v8.38H1108v-7.76c0-2.18-.83-3.28-2.58-3.28s-3.7,1.17-3.7,4.32v6.72H1099V863.11l-.2-2.25,2.33-.36.45,2h0a5.85,5.85,0,0,1,4.57-2.08C1109,860.41,1110.68,862.11,1110.68,865.3Z"/><path class="c83719af-c958-4794-a5a5-375e4d8f3b21" d="M1125.58,873.57v.05l-2.4.3a4.5,4.5,0,0,1-.68-2h-.09a5.15,5.15,0,0,1-4.24,2c-3,0-5.11-2.31-5.11-6.39,0-4.59,2.63-7.13,6.63-7.13a8,8,0,0,1,2.73.45v-5.2l2.69-.41v14.14A12.33,12.33,0,0,0,1125.58,873.57Zm-3.15-5.9v-4.23a4,4,0,0,0-2.68-.86c-2.35,0-3.92,1.54-3.92,4.8,0,2.83,1.19,4.35,3.09,4.35C1120.64,871.73,1122.35,870.58,1122.43,867.67Z"/><path class="c83719af-c958-4794-a5a5-375e4d8f3b21" d="M1127.94,857a1.67,1.67,0,0,1,1.85-1.57c1.05,0,1.75.6,1.75,1.47a1.68,1.68,0,0,1-1.83,1.59C1128.62,858.52,1127.94,857.92,1127.94,857Zm.4,4,2.69-.42v13h-2.69Z"/><path class="c83719af-c958-4794-a5a5-375e4d8f3b21" d="M1145.82,865.3v8.38h-2.69v-7.76c0-2.18-.83-3.28-2.58-3.28s-3.7,1.17-3.7,4.32v6.72h-2.69V863.11l-.2-2.25,2.33-.36.45,2h0a5.85,5.85,0,0,1,4.57-2.08C1144.14,860.41,1145.82,862.11,1145.82,865.3Z"/><path class="c83719af-c958-4794-a5a5-375e4d8f3b21" d="M1160.31,862.69l-2.06-.15a4.48,4.48,0,0,1,.65,2.41c0,2.75-2.08,4.55-5.29,4.55h-.27c-1,0-1.46.26-1.46.69s.45.63,1.39.68c4.91.28,6.72,1.32,6.72,3.85s-2.53,4.08-6.47,4.08c-3.74,0-6-1.4-6-3.73,0-1.57.88-2.65,2.73-3.27a1.44,1.44,0,0,1-1-1.33c0-.73.58-1.28,1.57-1.5a4.12,4.12,0,0,1-2.47-4c0-2.72,2.11-4.57,5.28-4.57a6.5,6.5,0,0,1,2.87.6l3.92-.56,0,0Zm-8.37,10.13a2.12,2.12,0,0,0-1.91,2c0,1.3,1.32,2.06,3.56,2.06s3.73-.81,3.73-2.15S1156.07,872.88,1151.93,872.83Zm4.36-7.85a2.43,2.43,0,0,0-2.65-2.75,2.56,2.56,0,0,0-2.7,2.76,2.67,2.67,0,1,0,5.35,0Z"/><line class="d1c75b6e-ef19-478e-bcad-6b19dcc6b60b" x1="1133.8" y1="835.3" x2="1198.63" y2="835.3"/><polygon class="c83719af-c958-4794-a5a5-375e4d8f3b21" points="1197.82 829.22 1197.82 841.37 1203.89 835.3 1197.82 829.22"/><rect class="ebd4f228-3bab-4ae3-8f53-bc63a84cae24" x="679" y="203.5" width="550" height="570"/><polygon class="c83719af-c958-4794-a5a5-375e4d8f3b21" points="780.5 341.5 805.87 341.5 834.24 341.5 859.61 341.5 820.27 266.26 780.5 341.5"/><polygon class="c83719af-c958-4794-a5a5-375e4d8f3b21" points="754.95 321.62 783.97 266.26 715.27 266.26 715.27 284.32 745.82 284.32 715.33 341.5 780.48 341.5 780.89 321.62 754.95 321.62"/><path class="c83719af-c958-4794-a5a5-375e4d8f3b21" d="M1138.56,289c.21-16.57-13.06-21.13-27.29-21.13h-26.86v73.72h22.08V308.07l16.56,33.44h18.79l-17.09-34.4C1131.13,305.21,1138.46,296.39,1138.56,289Zm-27.6,5c-1,0-2-.11-3-.11h-1.48v-8.18h4.78c1.59,0,7-.21,7,3.61S1113.4,293.85,1111,294Z"/><path class="c83719af-c958-4794-a5a5-375e4d8f3b21" d="M913.2,292.38H899.08c-2.23-.75-2.76-4.5.43-4.5h37.27V267.73H899.51c-15,0-22.19,9.75-22.19,21.64,0,12.11,7.64,24.22,22.19,24.22h13.7c2.76,0,4.14,1.18,4.14,2.36,0,1.61-1.49,3.21-4.35,3.32H877.74v22.29h35.57c17.2-.32,26.12-13.07,26.12-25.61S935.5,292.38,913.2,292.38Z"/><polygon class="c83719af-c958-4794-a5a5-375e4d8f3b21" points="981.43 293.78 965.39 293.78 965.39 267.24 941.29 267.24 941.29 341.56 965.39 341.56 965.39 315.01 981.43 315.01 981.43 341.56 1005.53 341.56 1005.53 267.24 981.43 267.24 981.43 293.78"/><polygon class="c83719af-c958-4794-a5a5-375e4d8f3b21" points="1005.91 341.56 1030.96 341.56 1058.99 341.56 1084.05 341.56 1045.19 267.24 1005.91 341.56"/><polygon class="c83719af-c958-4794-a5a5-375e4d8f3b21" points="1165.76 315.08 1192.52 315.08 1192.52 293.89 1165.76 293.89 1165.76 288.7 1192.52 288.7 1192.52 267.52 1144.42 267.41 1144.42 341.56 1192.73 341.56 1192.73 320.58 1165.76 320.58 1165.76 315.08"/><path class="c83719af-c958-4794-a5a5-375e4d8f3b21" d="M1172.82,366.17a68.62,68.62,0,0,1-2.87,11.58h2.72a59.63,59.63,0,0,0,3-11.35l13.84.16a113.28,113.28,0,0,1-4.27,11.2h6.22V390h-5.6v5.25h5.74v11.27h-5.74v4.8h5.74v11.12h-5.74v5h5.54v13.22h-35.08v-16.4l-6,12.44a29.48,29.48,0,0,1-7-7.46v11.43H1130.3v-10c-2.33,3.58-6.6,6.74-12.28,10v-16.4a73.48,73.48,0,0,0,8.55-7.56h-8.32V404.42h6.06l-7.39-9.64a25.14,25.14,0,0,0,5.75-12.59h-4.43V369.75h12.05v-3.58h13.76v3.58h10.5v11.58a57.46,57.46,0,0,0,4.43-15.16Zm-40.27,35.45a49.75,49.75,0,0,1-3.26-5.52c-2.18,5.13-3.19,6.37-4.9,8.32h5.91v-2.8Zm2.33-3.27-2.25,3.27h6.92Zm-1.63-16.17a15.79,15.79,0,0,1-.47,2.41,30.66,30.66,0,0,0,4.12,5.91,34.51,34.51,0,0,0,2.1-8.32Zm17.8,21.85a31.26,31.26,0,0,1-5.29-7.46,42.83,42.83,0,0,1-2.49,5.05h.08v2.8h11.2v12.44h-8.32c4.74,4.66,7.31,6,10.11,7.31V404l-.47.47-2.49-5Zm-2-21.85c-.08.54-.16,1.4-.23,1.94a29.41,29.41,0,0,0,2.49,3.81,42.22,42.22,0,0,0,2.88-5.75ZM1169.4,390v5.25h4.28V390Zm0,16.52v4.8h4.28v-4.8Zm0,15.92v5h4.28v-5Z"/><path class="c83719af-c958-4794-a5a5-375e4d8f3b21" d="M1180,500.24h11.42V485.16H1187V459.27H1167.3v8.55h6.92v1.87h-6.92v6h6.92v1.87h-6.92v5.75h6.92v1.94h-12.67L1166,480c-1.48-.93-1.71-1.09-3.58-2.25,1.87-1.55,2.64-2.25,3.89-3.42l-4.28-2.8,4.66-4.66a40.73,40.73,0,0,0-3.81-2.72,42.89,42.89,0,0,0,3.58-3.11l-6.3-4.35a22.36,22.36,0,0,1-4.66,3.26,87.61,87.61,0,0,0-8.09-3.5l-5.21,5.44c1.48.62,2.41,1,4.59,2-2.33.78-3.81,1.17-5.13,1.48l-3.81-8.71a61.82,61.82,0,0,1-16.79,2.25v26.28h-3.61v15.08H1128v4.9h26.59c-1.55.78-7.77,3-7.77,3h-29.78v11.64h29.78c0,1.87,0,2-1.63,2h-8.37l.05,9.87H1155c6.14,0,6.14-5.05,6.14-6.76v-5.15h29.78V508.09H1170.1a51.19,51.19,0,0,0,10-3Zm-24.64-31.56c1.94,1.32,2.72,1.87,3.65,2.57a28.4,28.4,0,0,1-3.73,2.41c-3.19-1.55-4.35-2-5.29-2.49C1152.53,470.16,1154.16,469.3,1155.4,468.68Zm-.47,13.53c.7.47,1.63,1,4.43,3h-11.43A72.16,72.16,0,0,0,1154.94,482.21Zm-20.68-6.53h7v-6h-7v-1.87a54,54,0,0,0,7.23-1l3,5.68-2.33,2.8c1.87.86,3,1.4,4.28,2-1.32.39-2.64.86-5.21,1.4v-1.17h-7Zm0,7.62h7v-2.8l2.49,4.74h-9.48Zm41.28,13.14H1132.7v-2.49h42.84Z"/><path class="c83719af-c958-4794-a5a5-375e4d8f3b21" d="M1138.89,602.73a50.81,50.81,0,0,0,17.8-6.69,100,100,0,0,1-7.46-14.93l-1.09.7-7.23-11.58a53.32,53.32,0,0,0,11.66-10h-8.63V567h-6.14v4.82c2.41,4,4.66,6.84,9.64,12l-5.68,13a63.17,63.17,0,0,1-4-5.13v24.8H1125V592.55a76,76,0,0,1-7.44,14.41v-22c6.14-7.54,6-15.79,6.35-17.89h-6.53V553.91H1125V541.8h12.83v12.11h5.91v-6.53H1160V541.8h14.46v5.58H1191v12.91h-9a36.14,36.14,0,0,0,9.24,8.14v16.44c-1-.62-6.28-3.12-7-3.51a46.8,46.8,0,0,1-7.39,14.62c1.94,1.17,4.64,3.34,14.28,6.06l.09,14.47c-10.81-3.58-22.06-7.63-24.86-9.81-4.74,3.73-16.39,8.64-24.48,9.81Zm41.51-24.18A63.66,63.66,0,0,1,1169,565.88l10.11-5.6h-10.4c-3.26,5.52-13.16,16.4-16,18.42l8.79-3.65a67.41,67.41,0,0,0,5.68,11,33.86,33.86,0,0,0,4.2-10.65Z"/><polygon class="c83719af-c958-4794-a5a5-375e4d8f3b21" points="780.5 714.47 805.87 714.47 834.24 714.47 859.61 714.47 820.27 639.24 780.5 714.47"/><polygon class="c83719af-c958-4794-a5a5-375e4d8f3b21" points="754.95 694.59 783.97 639.24 715.27 639.24 715.27 657.29 745.82 657.29 715.33 714.47 780.48 714.47 780.89 694.59 754.95 694.59"/><path class="c83719af-c958-4794-a5a5-375e4d8f3b21" d="M1138.56,661.94c.21-16.57-13.06-21.13-27.29-21.13h-26.86v73.72h22.08V681l16.56,33.44h18.79l-17.09-34.4C1131.13,678.18,1138.46,669.37,1138.56,661.94Zm-27.6,5c-1,0-2-.11-3-.11h-1.48v-8.18h4.78c1.59,0,7-.21,7,3.61S1113.4,666.82,1111,666.93Z"/><path class="c83719af-c958-4794-a5a5-375e4d8f3b21" d="M913.2,665.35H899.08c-2.23-.75-2.76-4.5.43-4.5h37.27V640.7H899.51c-15,0-22.19,9.75-22.19,21.64,0,12.11,7.64,24.22,22.19,24.22h13.7c2.76,0,4.14,1.18,4.14,2.36,0,1.61-1.49,3.21-4.35,3.32H877.74v22.29h35.57c17.2-.32,26.12-13.07,26.12-25.61S935.5,665.35,913.2,665.35Z"/><polygon class="c83719af-c958-4794-a5a5-375e4d8f3b21" points="981.43 666.75 965.39 666.75 965.39 640.21 941.29 640.21 941.29 714.53 965.39 714.53 965.39 687.99 981.43 687.99 981.43 714.53 1005.53 714.53 1005.53 640.21 981.43 640.21 981.43 666.75"/><polygon class="c83719af-c958-4794-a5a5-375e4d8f3b21" points="1005.91 714.53 1030.96 714.53 1058.99 714.53 1084.05 714.53 1045.19 640.21 1005.91 714.53"/><polygon class="c83719af-c958-4794-a5a5-375e4d8f3b21" points="1165.76 688.05 1192.52 688.05 1192.52 666.87 1165.76 666.87 1165.76 661.68 1192.52 661.68 1192.52 640.49 1144.42 640.38 1144.42 714.53 1192.73 714.53 1192.73 693.56 1165.76 693.56 1165.76 688.05"/><path class="c83719af-c958-4794-a5a5-375e4d8f3b21" d="M771.51,366.15a68.64,68.64,0,0,1-2.87,11.58h2.72a59.64,59.64,0,0,0,3-11.35l13.84.16a113.27,113.27,0,0,1-4.27,11.2h6.22V390h-5.6v5.25h5.74v11.27h-5.74v4.8h5.74v11.12h-5.74v5h5.54V440.7H755V424.3l-6,12.44a29.48,29.48,0,0,1-7-7.46V440.7H729v-10c-2.33,3.58-6.6,6.74-12.28,10v-16.4a73.47,73.47,0,0,0,8.55-7.56h-8.32V404.4H723l-7.39-9.64a25.14,25.14,0,0,0,5.75-12.59h-4.43V369.72H729v-3.58h13.76v3.58h10.5v11.58a57.46,57.46,0,0,0,4.43-15.16ZM731.24,401.6a49.79,49.79,0,0,1-3.27-5.52c-2.18,5.13-3.19,6.37-4.9,8.32H729v-2.8Zm2.33-3.27-2.25,3.27h6.92Zm-1.63-16.17a15.79,15.79,0,0,1-.47,2.41,30.65,30.65,0,0,0,4.12,5.91,34.51,34.51,0,0,0,2.1-8.32ZM749.74,404a31.27,31.27,0,0,1-5.29-7.46A42.81,42.81,0,0,1,742,401.6H742v2.8h11.2v12.44h-8.32c4.74,4.67,7.31,6,10.11,7.31V403.93l-.47.47-2.49-5Zm-2-21.85c-.08.54-.16,1.4-.23,1.94a29.41,29.41,0,0,0,2.49,3.81,42.2,42.2,0,0,0,2.88-5.75ZM768.09,390v5.25h4.28V390Zm0,16.52v4.8h4.28v-4.8Zm0,15.92v5h4.28v-5Z"/><path class="c83719af-c958-4794-a5a5-375e4d8f3b21" d="M778.74,500.22h11.43V485.13h-4.43V459.25H766v8.55h6.92v1.87H766v6h6.92v1.87H766v5.75h6.92v1.94H760.24l4.43-5.29c-1.48-.93-1.71-1.09-3.58-2.25,1.87-1.55,2.64-2.25,3.89-3.42l-4.28-2.8,4.66-4.66a40.78,40.78,0,0,0-3.81-2.72,42.88,42.88,0,0,0,3.58-3.11l-6.3-4.35a22.35,22.35,0,0,1-4.66,3.26,87.6,87.6,0,0,0-8.09-3.5l-5.21,5.44c1.48.62,2.41,1,4.59,2-2.33.78-3.81,1.17-5.13,1.48l-3.81-8.71a61.81,61.81,0,0,1-16.79,2.25v26.28h-3.61v15.08h10.61v4.9h26.59c-1.55.78-7.77,3-7.77,3H715.77v11.64h29.78c0,1.87,0,2-1.63,2h-8.37l.05,9.87h18.11c6.14,0,6.14-5.05,6.14-6.76v-5.15h29.78V508.07H768.79a51.19,51.19,0,0,0,10-3Zm-24.64-31.56c1.94,1.32,2.72,1.87,3.65,2.57a28.39,28.39,0,0,1-3.73,2.41c-3.19-1.55-4.35-2-5.29-2.49C751.22,470.13,752.85,469.27,754.09,468.65Zm-.47,13.53c.7.47,1.63,1,4.43,3H746.63A72.16,72.16,0,0,0,753.63,482.18Zm-20.68-6.53h7v-6h-7V467.8a54,54,0,0,0,7.23-1l3,5.68-2.33,2.8c1.87.86,3,1.4,4.28,2-1.32.39-2.64.86-5.21,1.4v-1.17h-7Zm0,7.62h7v-2.8l2.49,4.74h-9.48Zm41.28,13.14H731.39v-2.49h42.84Z"/><path class="c83719af-c958-4794-a5a5-375e4d8f3b21" d="M737.58,602.71a50.81,50.81,0,0,0,17.8-6.69,100,100,0,0,1-7.46-14.93l-1.09.7-7.23-11.58a53.32,53.32,0,0,0,11.66-10h-8.63V567h-6.14v4.82c2.41,4,4.66,6.84,9.64,12l-5.68,13a63.16,63.16,0,0,1-4-5.13v24.8H723.66V592.52a76,76,0,0,1-7.44,14.41v-22c6.14-7.54,6-15.79,6.35-17.89H716V553.89h7.62V541.78h12.83v12.11h5.91v-6.53h16.25v-5.58h14.46v5.58h16.56v12.91h-9a36.14,36.14,0,0,0,9.24,8.14v16.44c-1-.62-6.28-3.12-7-3.51a46.8,46.8,0,0,1-7.39,14.62c1.94,1.17,4.64,3.34,14.28,6.06l.09,14.47c-10.81-3.58-22.06-7.63-24.86-9.81-4.74,3.73-16.39,8.64-24.48,9.81Zm41.51-24.18a63.67,63.67,0,0,1-11.43-12.67l10.11-5.6h-10.4c-3.26,5.52-13.16,16.4-16,18.42l8.79-3.65a67.41,67.41,0,0,0,5.68,11,33.86,33.86,0,0,0,4.2-10.65Z"/><path class="c83719af-c958-4794-a5a5-375e4d8f3b21" d="M716.57,741.86l7.49-9.41h-7.37V730.3H727v2.22l-7.53,9.37h7.64v2.18H716.57Z"/><path class="c83719af-c958-4794-a5a5-375e4d8f3b21" d="M733.61,730.3h2.12l5.93,13.77h-2.8l-1.28-3.15h-6l-1.24,3.15h-2.74Zm3.11,8.52-2.12-5.6-2.16,5.6Z"/><path class="c83719af-c958-4794-a5a5-375e4d8f3b21" d="M750,733.18a3,3,0,0,0-1.1-.85,3.29,3.29,0,0,0-1.43-.34,3.52,3.52,0,0,0-.86.11,2.62,2.62,0,0,0-.78.33,1.84,1.84,0,0,0-.57.58,1.6,1.6,0,0,0-.22.87,1.54,1.54,0,0,0,.19.8,1.76,1.76,0,0,0,.53.56,3.59,3.59,0,0,0,.83.41q.49.18,1.07.35t1.37.49a5.33,5.33,0,0,1,1.3.72,3.57,3.57,0,0,1,1,1.13,3.45,3.45,0,0,1,.38,1.69,4.31,4.31,0,0,1-.41,1.93,4,4,0,0,1-1.09,1.37,4.62,4.62,0,0,1-1.59.82,6.7,6.7,0,0,1-1.93.27,7.24,7.24,0,0,1-2.63-.5,5.06,5.06,0,0,1-2.1-1.47l1.75-1.63a3.52,3.52,0,0,0,1.35,1.11,3.61,3.61,0,0,0,2.54.3,2.34,2.34,0,0,0,.81-.36,2,2,0,0,0,.58-.63,1.83,1.83,0,0,0,.22-.94,1.54,1.54,0,0,0-.25-.9,2.27,2.27,0,0,0-.68-.62,5,5,0,0,0-1-.46l-1.23-.41a11.91,11.91,0,0,1-1.24-.47,4.09,4.09,0,0,1-1.12-.72,3.47,3.47,0,0,1-.81-1.1,3.75,3.75,0,0,1-.31-1.62,3.55,3.55,0,0,1,.44-1.81,3.87,3.87,0,0,1,1.15-1.25,5.1,5.1,0,0,1,1.61-.74,7,7,0,0,1,1.84-.24,6.55,6.55,0,0,1,2.13.37,5.2,5.2,0,0,1,1.88,1.11Z"/><path class="c83719af-c958-4794-a5a5-375e4d8f3b21" d="M754.18,730.3h2.45v5.56h6.44V730.3h2.45v13.77h-2.45V738h-6.44v6.11h-2.45Z"/><path class="c83719af-c958-4794-a5a5-375e4d8f3b21" d="M772.87,730.3H775l5.93,13.77h-2.8l-1.28-3.15h-6l-1.24,3.15h-2.74Zm3.11,8.52-2.12-5.6-2.16,5.6Z"/><path class="c83719af-c958-4794-a5a5-375e4d8f3b21" d="M782.29,730.3h4.78a8.65,8.65,0,0,1,1.89.2,4.86,4.86,0,0,1,1.62.67,3.5,3.5,0,0,1,1.14,1.22,3.71,3.71,0,0,1,.43,1.85,3.52,3.52,0,0,1-.85,2.44A4.26,4.26,0,0,1,789,738l3.68,6.11h-3l-3.19-5.83h-1.79v5.83h-2.45Zm4.45,5.93a7,7,0,0,0,1-.08,3,3,0,0,0,.94-.29,1.85,1.85,0,0,0,.69-.61,1.77,1.77,0,0,0,.27-1,1.57,1.57,0,0,0-.25-.92,1.9,1.9,0,0,0-.64-.57,2.71,2.71,0,0,0-.89-.29,6.34,6.34,0,0,0-1-.08h-2.22v3.87Z"/><path class="c83719af-c958-4794-a5a5-375e4d8f3b21" d="M794.52,730.3h9.12v2.14H797v3.5h6.32V738H797v3.89h7v2.18h-9.47Z"/><path class="c83719af-c958-4794-a5a5-375e4d8f3b21" d="M811.24,730.3h9.12v2.14h-6.67v3.5H820V738h-6.32v3.89h7v2.18h-9.47Z"/><path class="c83719af-c958-4794-a5a5-375e4d8f3b21" d="M826.43,736.72l-4.28-6.42h3l2.84,4.71,2.8-4.71h2.82l-4.2,6.48,4.94,7.29h-3.09l-3.36-5.41-3.23,5.41h-3Z"/><path class="c83719af-c958-4794-a5a5-375e4d8f3b21" d="M835.9,730.3h4.49a9.8,9.8,0,0,1,2.14.21,4.45,4.45,0,0,1,1.63.7,3.26,3.26,0,0,1,1.05,1.24,4.15,4.15,0,0,1,.37,1.83,4,4,0,0,1-.43,1.93,3.47,3.47,0,0,1-1.16,1.25,5.06,5.06,0,0,1-1.7.69,9.58,9.58,0,0,1-2.06.21h-1.89v5.7H835.9Zm4.16,6a7.2,7.2,0,0,0,1.15-.09,3.18,3.18,0,0,0,1-.31,1.77,1.77,0,0,0,.68-.61,1.83,1.83,0,0,0,.25-1,1.62,1.62,0,0,0-.92-1.57,2.89,2.89,0,0,0-1-.28,8.79,8.79,0,0,0-1.1-.07h-1.79v3.95Z"/><path class="c83719af-c958-4794-a5a5-375e4d8f3b21" d="M847.1,737.15a7.7,7.7,0,0,1,.55-3,6.55,6.55,0,0,1,1.54-2.27,6.8,6.8,0,0,1,2.33-1.44,8.34,8.34,0,0,1,2.95-.5,8.49,8.49,0,0,1,3,.5,6.89,6.89,0,0,1,2.35,1.44,6.49,6.49,0,0,1,1.55,2.27,7.71,7.71,0,0,1,.55,3,7.6,7.6,0,0,1-.55,2.95,6.8,6.8,0,0,1-1.55,2.29,7,7,0,0,1-2.35,1.5,8.05,8.05,0,0,1-3,.54,7.92,7.92,0,0,1-2.95-.54,6.79,6.79,0,0,1-3.87-3.79A7.59,7.59,0,0,1,847.1,737.15Zm2.66,0a5.84,5.84,0,0,0,.34,2,4.71,4.71,0,0,0,1,1.6,4.47,4.47,0,0,0,1.5,1.06,4.74,4.74,0,0,0,1.92.38,4.81,4.81,0,0,0,1.93-.38,4.46,4.46,0,0,0,1.51-1.06,4.73,4.73,0,0,0,1-1.6,5.85,5.85,0,0,0,.34-2,5.65,5.65,0,0,0-.34-2,4.83,4.83,0,0,0-1-1.59,4.46,4.46,0,0,0-1.5-1.07,4.75,4.75,0,0,0-1.94-.39,4.67,4.67,0,0,0-1.93.39,4.48,4.48,0,0,0-1.49,1.07,4.82,4.82,0,0,0-1,1.59A5.64,5.64,0,0,0,849.77,737.15Z"/><path class="c83719af-c958-4794-a5a5-375e4d8f3b21" d="M869.39,736.61h-1.77v-1.87h1.77v-1.38a6.81,6.81,0,0,1,.19-1.6,3.64,3.64,0,0,1,.62-1.35,3,3,0,0,1,1.16-.92,4.23,4.23,0,0,1,1.81-.34,6.05,6.05,0,0,1,.65,0,3.28,3.28,0,0,1,.53.11l-.16,2-.42-.1a2.83,2.83,0,0,0-.48,0,1.52,1.52,0,0,0-.82.2,1.31,1.31,0,0,0-.48.5,2.15,2.15,0,0,0-.22.68,4.59,4.59,0,0,0-.06.72v1.52h2.16v1.87h-2.16v7.47h-2.33Z"/><path class="c83719af-c958-4794-a5a5-375e4d8f3b21" d="M874.78,739.37a4.93,4.93,0,0,1,.4-2,4.7,4.7,0,0,1,1.08-1.55,4.76,4.76,0,0,1,1.61-1,5.8,5.8,0,0,1,4,0,4.77,4.77,0,0,1,1.61,1,4.71,4.71,0,0,1,1.08,1.55,4.94,4.94,0,0,1,.4,2,5,5,0,0,1-.4,2,4.77,4.77,0,0,1-1.08,1.56,4.91,4.91,0,0,1-1.61,1,5.52,5.52,0,0,1-4,0,4.91,4.91,0,0,1-1.61-1,4.77,4.77,0,0,1-1.08-1.56A5,5,0,0,1,874.78,739.37Zm2.37,0a3.73,3.73,0,0,0,.17,1.09,3,3,0,0,0,.5,1,2.58,2.58,0,0,0,.84.7,2.8,2.8,0,0,0,2.41,0,2.59,2.59,0,0,0,.84-.7,3,3,0,0,0,.5-1,3.75,3.75,0,0,0,.17-1.09,3.65,3.65,0,0,0-.17-1.08,3,3,0,0,0-.5-1,2.5,2.5,0,0,0-.84-.69,2.9,2.9,0,0,0-2.41,0,2.49,2.49,0,0,0-.84.69,3,3,0,0,0-.5,1A3.63,3.63,0,0,0,877.15,739.37Z"/><path class="c83719af-c958-4794-a5a5-375e4d8f3b21" d="M887.19,734.74h2.24v1.56h0a3.4,3.4,0,0,1,1.09-1.32,2.71,2.71,0,0,1,1.63-.51h.29a1,1,0,0,1,.27,0v2.14l-.4-.08-.32,0a2.47,2.47,0,0,0-1.28.29,2.33,2.33,0,0,0-.76.7,2.51,2.51,0,0,0-.37.84,3.25,3.25,0,0,0-.1.68v5h-2.33Z"/><path class="c83719af-c958-4794-a5a5-375e4d8f3b21" d="M899.24,730.3h2.45v13.77h-2.45Z"/><path class="c83719af-c958-4794-a5a5-375e4d8f3b21" d="M904.73,730.3H908l6.4,10.31h0V730.3h2.45v13.77h-3.11l-6.53-10.64h0v10.64h-2.45Z"/><path class="c83719af-c958-4794-a5a5-375e4d8f3b21" d="M919.9,730.3h3.25l6.4,10.31h0V730.3H932v13.77h-3.11l-6.53-10.64h0v10.64H919.9Z"/><path class="c83719af-c958-4794-a5a5-375e4d8f3b21" d="M934.41,737.15a7.7,7.7,0,0,1,.55-3,6.55,6.55,0,0,1,1.54-2.27,6.8,6.8,0,0,1,2.33-1.44,8.34,8.34,0,0,1,2.95-.5,8.49,8.49,0,0,1,3,.5,6.89,6.89,0,0,1,2.35,1.44,6.5,6.5,0,0,1,1.55,2.27,7.71,7.71,0,0,1,.55,3,7.6,7.6,0,0,1-.55,2.95,6.8,6.8,0,0,1-1.55,2.29,7,7,0,0,1-2.35,1.5,8.05,8.05,0,0,1-3,.54,7.92,7.92,0,0,1-2.95-.54A6.79,6.79,0,0,1,935,740.1,7.59,7.59,0,0,1,934.41,737.15Zm2.66,0a5.84,5.84,0,0,0,.34,2,4.71,4.71,0,0,0,1,1.6,4.47,4.47,0,0,0,1.5,1.06,4.74,4.74,0,0,0,1.92.38,4.81,4.81,0,0,0,1.93-.38,4.46,4.46,0,0,0,1.51-1.06,4.73,4.73,0,0,0,1-1.6,5.85,5.85,0,0,0,.34-2,5.65,5.65,0,0,0-.34-2,4.83,4.83,0,0,0-1-1.59,4.46,4.46,0,0,0-1.5-1.07,4.75,4.75,0,0,0-1.94-.39,4.68,4.68,0,0,0-1.94.39,4.48,4.48,0,0,0-1.49,1.07,4.82,4.82,0,0,0-1,1.59A5.64,5.64,0,0,0,937.07,737.15Z"/><path class="c83719af-c958-4794-a5a5-375e4d8f3b21" d="M949.63,730.3h2.74l3.79,10.6h.08l3.83-10.6h2.65l-5.52,13.77h-2.12Z"/><path class="c83719af-c958-4794-a5a5-375e4d8f3b21" d="M967.78,730.3h2.12l5.93,13.77H973l-1.28-3.15h-6l-1.24,3.15h-2.74Zm3.11,8.52-2.12-5.6-2.16,5.6Z"/><path class="c83719af-c958-4794-a5a5-375e4d8f3b21" d="M978.81,732.44h-4.22V730.3h10.89v2.14h-4.22v11.63h-2.45Z"/><path class="c83719af-c958-4794-a5a5-375e4d8f3b21" d="M987.07,730.3h2.45v13.77h-2.45Z"/><path class="c83719af-c958-4794-a5a5-375e4d8f3b21" d="M990.84,730.3h2.74l3.79,10.6h.08l3.83-10.6h2.65l-5.52,13.77h-2.12Z"/><path class="c83719af-c958-4794-a5a5-375e4d8f3b21" d="M1005.25,730.3h9.12v2.14h-6.67v3.5H1014V738h-6.32v3.89h7v2.18h-9.47Z"/><path class="c83719af-c958-4794-a5a5-375e4d8f3b21" d="M1022,730.3h9.12v2.14h-6.67v3.5h6.32V738h-6.32v3.89h7v2.18H1022Z"/><path class="c83719af-c958-4794-a5a5-375e4d8f3b21" d="M1033.84,730.3h4.88a10.86,10.86,0,0,1,2.7.35,7,7,0,0,1,2.45,1.16,6,6,0,0,1,1.77,2.12,7,7,0,0,1,.68,3.26,6.65,6.65,0,0,1-.68,3.11,6.34,6.34,0,0,1-1.77,2.14,7.36,7.36,0,0,1-2.45,1.24,9.55,9.55,0,0,1-2.7.4h-4.88Zm4.49,11.63a8.35,8.35,0,0,0,1.91-.22A5,5,0,0,0,1042,741a4,4,0,0,0,1.25-1.45,4.9,4.9,0,0,0,.49-2.31,5.22,5.22,0,0,0-.49-2.41,3.92,3.92,0,0,0-1.25-1.46,4.66,4.66,0,0,0-1.72-.72,9.5,9.5,0,0,0-1.91-.2h-2v9.53Z"/><path class="c83719af-c958-4794-a5a5-375e4d8f3b21" d="M1059.67,739a5.67,5.67,0,0,1-.43,2.25,5,5,0,0,1-1.17,1.7,5.15,5.15,0,0,1-1.75,1.08,6.56,6.56,0,0,1-4.39,0,5.25,5.25,0,0,1-1.76-1.08,4.85,4.85,0,0,1-1.17-1.7,5.77,5.77,0,0,1-.42-2.25V730.3H1051v8.62a4.7,4.7,0,0,0,.15,1.2,3,3,0,0,0,.52,1.06,2.67,2.67,0,0,0,1,.76,3.84,3.84,0,0,0,2.94,0,2.67,2.67,0,0,0,1-.76,3,3,0,0,0,.52-1.06,4.7,4.7,0,0,0,.15-1.2V730.3h2.45Z"/><path class="c83719af-c958-4794-a5a5-375e4d8f3b21" d="M1072.53,733.53a3.16,3.16,0,0,0-1.42-1.08,4.77,4.77,0,0,0-3.66,0,4.56,4.56,0,0,0-1.51,1.07,4.73,4.73,0,0,0-1,1.59,5.65,5.65,0,0,0-.34,2,6.13,6.13,0,0,0,.33,2.06,4.66,4.66,0,0,0,.94,1.6,4.23,4.23,0,0,0,1.47,1,4.8,4.8,0,0,0,1.93.37,4.26,4.26,0,0,0,2-.44,3.84,3.84,0,0,0,1.38-1.16l2,1.38a6.28,6.28,0,0,1-2.24,1.78,7.09,7.09,0,0,1-3.09.63,8,8,0,0,1-3-.54,6.69,6.69,0,0,1-3.84-3.79,7.71,7.71,0,0,1-.54-2.95,7.47,7.47,0,0,1,.57-3,6.62,6.62,0,0,1,1.57-2.27,7,7,0,0,1,2.36-1.44,8.43,8.43,0,0,1,3-.5,7.89,7.89,0,0,1,1.38.13,7,7,0,0,1,1.38.39,6.68,6.68,0,0,1,1.25.65,4,4,0,0,1,1,.93Z"/><path class="c83719af-c958-4794-a5a5-375e4d8f3b21" d="M1080.21,730.3h2.12l5.93,13.77h-2.8l-1.28-3.15h-6l-1.24,3.15h-2.74Zm3.11,8.52-2.12-5.6-2.16,5.6Z"/><path class="c83719af-c958-4794-a5a5-375e4d8f3b21" d="M1091.23,732.44H1087V730.3h10.89v2.14h-4.22v11.63h-2.45Z"/><path class="c83719af-c958-4794-a5a5-375e4d8f3b21" d="M1099.5,730.3H1102v13.77h-2.45Z"/><path class="c83719af-c958-4794-a5a5-375e4d8f3b21" d="M1104.32,737.15a7.68,7.68,0,0,1,.55-3,6.55,6.55,0,0,1,1.54-2.27,6.81,6.81,0,0,1,2.33-1.44,8.34,8.34,0,0,1,2.95-.5,8.48,8.48,0,0,1,3,.5,6.87,6.87,0,0,1,2.35,1.44,6.5,6.5,0,0,1,1.55,2.27,7.71,7.71,0,0,1,.55,3,7.6,7.6,0,0,1-.55,2.95,6.81,6.81,0,0,1-1.55,2.29,7,7,0,0,1-2.35,1.5,8,8,0,0,1-3,.54,7.92,7.92,0,0,1-2.95-.54,6.78,6.78,0,0,1-3.87-3.79A7.57,7.57,0,0,1,1104.32,737.15Zm2.66,0a5.85,5.85,0,0,0,.34,2,4.71,4.71,0,0,0,1,1.6,4.48,4.48,0,0,0,1.5,1.06,4.73,4.73,0,0,0,1.92.38,4.8,4.8,0,0,0,1.92-.38,4.45,4.45,0,0,0,1.51-1.06,4.71,4.71,0,0,0,1-1.6,5.85,5.85,0,0,0,.34-2,5.65,5.65,0,0,0-.34-2,4.8,4.8,0,0,0-1-1.59,4.45,4.45,0,0,0-1.5-1.07,4.73,4.73,0,0,0-1.94-.39,4.68,4.68,0,0,0-1.94.39,4.48,4.48,0,0,0-1.49,1.07,4.83,4.83,0,0,0-1,1.59A5.65,5.65,0,0,0,1107,737.15Z"/><path class="c83719af-c958-4794-a5a5-375e4d8f3b21" d="M1121.49,730.3h3.25l6.4,10.31h0V730.3h2.45v13.77h-3.11L1124,733.44h0v10.64h-2.45Z"/><path class="c83719af-c958-4794-a5a5-375e4d8f3b21" d="M1141.35,741.93l5.31-5.21a6.29,6.29,0,0,0,1-1.25,2.77,2.77,0,0,0,.38-1.45,2,2,0,0,0-.63-1.55,2.24,2.24,0,0,0-1.56-.57,2,2,0,0,0-1.6.67,3.06,3.06,0,0,0-.74,1.68l-2.28-.35a4.29,4.29,0,0,1,.49-1.58,4.44,4.44,0,0,1,1-1.25,4.53,4.53,0,0,1,1.41-.83,5,5,0,0,1,1.76-.3,5.87,5.87,0,0,1,1.72.25,4.38,4.38,0,0,1,1.47.77,3.7,3.7,0,0,1,1.4,3,4.19,4.19,0,0,1-.18,1.23,4.91,4.91,0,0,1-.48,1.08,6.64,6.64,0,0,1-.7,1,11.17,11.17,0,0,1-.87.88l-4,3.79h6.21v2.14h-9.16Z"/><path class="c83719af-c958-4794-a5a5-375e4d8f3b21" d="M1152.73,737.15a7.68,7.68,0,0,1,.55-3,6.55,6.55,0,0,1,1.54-2.27,6.81,6.81,0,0,1,2.33-1.44,8.34,8.34,0,0,1,2.95-.5,8.48,8.48,0,0,1,3,.5,6.87,6.87,0,0,1,2.35,1.44,6.5,6.5,0,0,1,1.55,2.27,7.71,7.71,0,0,1,.55,3,7.6,7.6,0,0,1-.55,2.95,6.81,6.81,0,0,1-1.55,2.29,7,7,0,0,1-2.35,1.5,8,8,0,0,1-3,.54,7.92,7.92,0,0,1-2.95-.54,6.78,6.78,0,0,1-3.87-3.79A7.57,7.57,0,0,1,1152.73,737.15Zm2.66,0a5.85,5.85,0,0,0,.34,2,4.71,4.71,0,0,0,1,1.6,4.47,4.47,0,0,0,1.5,1.06,4.73,4.73,0,0,0,1.92.38,4.8,4.8,0,0,0,1.92-.38,4.46,4.46,0,0,0,1.51-1.06,4.71,4.71,0,0,0,1-1.6,5.85,5.85,0,0,0,.34-2,5.65,5.65,0,0,0-.34-2,4.8,4.8,0,0,0-1-1.59,4.44,4.44,0,0,0-1.5-1.07,4.73,4.73,0,0,0-1.94-.39,4.68,4.68,0,0,0-1.94.39,4.48,4.48,0,0,0-1.49,1.07,4.84,4.84,0,0,0-1,1.59A5.65,5.65,0,0,0,1155.39,737.15Z"/><path class="c83719af-c958-4794-a5a5-375e4d8f3b21" d="M1173.81,733.14l-2.72,2.24-1.36-1.62,4.3-3.46h2.12v13.77h-2.33Z"/><path class="c83719af-c958-4794-a5a5-375e4d8f3b21" d="M1181.24,730.3h9.36v2.14l-5.5,11.63h-2.74l5.79-11.67h-6.9Z"/><path class="c83719af-c958-4794-a5a5-375e4d8f3b21" d="M731.95,237.11v1.56h-4.69v2.27h3.91v6.74h-3.91v2.56h5.05v1.56H716.12v-1.56h5.25v-2.56h-4v-6.74h4v-2.27h-4.89v-1.56Zm-6.31,13.14v-4.12h3.89v-3.62h-3.89v-3.83H723v3.83h-4v3.62h4v4.13Z"/><path class="c83719af-c958-4794-a5a5-375e4d8f3b21" d="M765.42,243.15l-1,1.07a19.35,19.35,0,0,0-2.62-2.56l1.05-1.05A14.77,14.77,0,0,1,765.42,243.15Zm0,4.76c-.58,1.47-1.2,2.85-1.85,4.13,0,.36-.09.56-.27.56l-1.36-1.07a29.17,29.17,0,0,0,2.56-4.74Zm.78-9.3-1,1.07a18.46,18.46,0,0,0-2.49-2.27l1.07-1.07A14.56,14.56,0,0,1,766.2,238.61Zm1.42,1.6c.18,0,.29.07.29.18s-.07.18-.22.29a27.9,27.9,0,0,1-.45,3.93,13.48,13.48,0,0,1-.62,1.89l-1.49-.29a9.21,9.21,0,0,0,.67-1.82,24.92,24.92,0,0,0,.47-4.29Zm2.11-3.93c.2,0,.31.11.31.2a.44.44,0,0,1-.29.36c-.05,2.18-.07,4.22-.07,6.11,0,1.67-.07,3.14-.2,4.43a20.28,20.28,0,0,1-.51,2.85,15.76,15.76,0,0,1-.93,2.44l-1.56-.64a10.67,10.67,0,0,0,1-2.27,14,14,0,0,0,.55-2.71,34.88,34.88,0,0,0,.2-4.11v-6.81Zm2.51,9.21-1.34.93c-.33-2.11-.69-3.93-1.07-5.47l1.07-.85C771.33,241.51,771.78,243.31,772.23,245.49Zm1.47-8.63c.24,0,.36.07.36.18s-.09.22-.27.36v14.41h-1.42v-15Zm2.64,8.63-1.35.93c-.33-2.11-.67-3.93-1.05-5.47l1.05-.85A50.56,50.56,0,0,1,776.34,245.49Zm1.47-9.27c.25,0,.38.07.38.18s-.11.22-.29.36V252.6h-1.42V236.13Z"/><path class="c83719af-c958-4794-a5a5-375e4d8f3b21" d="M824.22,242.95v1.35h-8.16v8.38h-1.49v-1.45c-1.42.22-3.38.49-5.91.82a.5.5,0,0,1-.35.2q-.16,0-.16-.22l-.35-1.42c.65,0,1.29-.07,1.93-.13v-6.18H808v-1.35Zm-2.56-6.69v5.83H810.94v-5.83Zm-7.09,8h-3.34v1.13h3.34Zm0,2.27h-3.34v1.27h3.34Zm0,2.42h-3.34v1.36c1.13-.09,2.25-.22,3.34-.36Zm5.52-10.45v-1h-7.6v1Zm0,1.15h-7.6v1.13h7.6Zm2.53,5.47A.78.78,0,0,1,823,245l.22.15.6.73a.83.83,0,0,1,.11.33q0,.16-.49.44a11,11,0,0,1-1.67,2.91,4.59,4.59,0,0,1-.45.53l.18.13a7.39,7.39,0,0,0,2.8,1l-1.07,1.42a10.19,10.19,0,0,1-2.85-1.38.5.5,0,0,1-.15-.11,18.36,18.36,0,0,1-2.54,1.56l-1.05-1.14a15,15,0,0,0,2.54-1.51,5.23,5.23,0,0,1-.51-.73,10.4,10.4,0,0,1-1.22-2.87h-.67v-1.27Zm-2.74,3.53c.11.15.22.29.33.42a8,8,0,0,0,.84-1c.27-.44.56-1,.89-1.64h-3.09A7.86,7.86,0,0,0,819.88,248.67Z"/><path class="c83719af-c958-4794-a5a5-375e4d8f3b21" d="M861.34,241c0-.14,0-.27,0-.42v-3a11.13,11.13,0,0,0-.13-1.36l1.8.15c.31,0,.47.09.47.22s-.14.38-.44.56v3.42c0,.15,0,.29,0,.42h6.83v1.56h-6.8a12.85,12.85,0,0,0,2.67,5,12,12,0,0,0,4.76,3.34L869,252.6a13.27,13.27,0,0,1-4.62-4,14.59,14.59,0,0,1-1.93-3.56c-.15.47-.29.89-.45,1.29a10.3,10.3,0,0,1-3.05,3.74,20.65,20.65,0,0,1-3.78,2.49l-1.49-1.35a20.85,20.85,0,0,0,3.54-2.05,9.28,9.28,0,0,0,2.85-3,10.69,10.69,0,0,0,1.13-3.62h-6.89V241Z"/><path class="c83719af-c958-4794-a5a5-375e4d8f3b21" d="M904.94,236.24c.25,0,.4.11.4.24s-.11.2-.29.36V238h2.07v1.09a21.66,21.66,0,0,0,.93-2.14l1.47.51a.21.21,0,0,1,.15.2c0,.15-.15.25-.42.35a19.84,19.84,0,0,1-2,3.76h1.4v1a12.5,12.5,0,0,0,1.34-2.58,21.16,21.16,0,0,0,1-4l1.56.27c.18.05.27.13.27.24s-.16.29-.49.42c-.16.76-.31,1.42-.45,2h4.56v1.42h-.89a25.28,25.28,0,0,1-.67,4.33,15.85,15.85,0,0,1-1,2.89q-.22.44-.44.82a13.33,13.33,0,0,0,3,2.89l-1.27,1.36a15.39,15.39,0,0,1-2.74-2.85,5.63,5.63,0,0,1-.42.47,22,22,0,0,1-2.87,2.31l-1.34-1.42a12.37,12.37,0,0,0,2.53-1.65,9.19,9.19,0,0,0,1.18-1.2,14.76,14.76,0,0,1-1.34-5.2,16.33,16.33,0,0,1-.94,1.44l-1.2-1.05.33-.44H906a9.41,9.41,0,0,1-1.11.93h1.78L907,244a.68.68,0,0,1,.36.13l.76.51a.31.31,0,0,1,.15.22c0,.15-.13.29-.35.42l-2.2,2.27v.38c1.27-.29,2.53-.64,3.76-1v1.42c-1,.31-2.24.67-3.76,1.07v1.07c0,1.05-.22,1.73-.62,2a5.48,5.48,0,0,1-2.51.35l-.51-1.44a9.44,9.44,0,0,0,1.78-.09c.18-.09.29-.35.29-.82v-.65c-1,.25-2,.51-3.13.78-.13.25-.25.36-.36.36s-.2-.09-.22-.29l-.42-1.69c1.38-.18,2.76-.42,4.13-.71v-1.49l.56,0,1.13-1.4h-3a21,21,0,0,1-1.93.93l-1.34-1.27a16.81,16.81,0,0,0,4-1.85h-3.54v-1.49h3.42v-2.27h-2.42V238h2.42v-1.84Zm2,3.22H905v2.27h.31A11.52,11.52,0,0,0,906.92,239.46Zm4.67,3.54a12.64,12.64,0,0,0,.91,3.94,12.67,12.67,0,0,0,.93-2.58,25.27,25.27,0,0,0,.64-3.83H911.5c-.07.22-.15.42-.22.58a13,13,0,0,1-1,2Z"/><path class="c83719af-c958-4794-a5a5-375e4d8f3b21" d="M954.74,236.32c.29,0,.45.11.45.24s-.13.24-.36.42v.73h7.11v1.42h-4.29a29.44,29.44,0,0,1,4.51,3.83l-1.42.91c-.51-.58-1.05-1.13-1.6-1.65q-4,.3-12,.75c-.13.18-.25.27-.36.27s-.18-.07-.2-.25l-.36-1.51c1.27,0,2.54-.07,3.8-.13l1.51-2.22H946V237.7h7.11v-1.51Zm4.78,7.12v7.45a1.49,1.49,0,0,1-1.25,1.51,7.18,7.18,0,0,1-1.94.27l-.64-1.56,1.6,0a.61.61,0,0,0,.67-.67V250h-7.74v2.64h-1.54v-9.16h10.85ZM958,246v-1.22h-7.74V246Zm0,2.62v-1.27h-7.74v1.27Zm-1.76-8.8.85-.71H953.8a.82.82,0,0,1-.31.2L952,241.26q2.94-.11,5.78-.27C957.23,240.57,956.71,240.19,956.2,239.82Z"/><path class="c83719af-c958-4794-a5a5-375e4d8f3b21" d="M994.23,248.82a20.19,20.19,0,0,1-1.31,3.63l-1.49-.71a16.62,16.62,0,0,0,1.29-3.29,18.16,18.16,0,0,0,.47-4v-2.49h8.52v5.6h-7.25C994.39,248,994.32,248.42,994.23,248.82Zm4-12.14c.16.07.25.16.25.24s-.09.18-.27.2a.67.67,0,0,1-.09.11,9.66,9.66,0,0,0,2.45,1.76,10.08,10.08,0,0,0,2.45,1l-1.05,1.49a14.48,14.48,0,0,1-2.13-1.13v.84h-5v-.89a19.34,19.34,0,0,1-2.13,1.38l-1.14-1.27a13.27,13.27,0,0,0,5.32-4.2Zm-3.6,8.67c0,.33,0,.64-.05.93h5.62v-.93Zm7,3v4.2h-1.49V252h-4v.49h-1.49v-4.2Zm-7-4.11h5.54v-1h-5.54Zm4.63-4.25s-.05,0-.07-.05a11.53,11.53,0,0,1-1.91-1.78,14.86,14.86,0,0,1-2,1.84Zm.84,10.78v-1.13h-4v1.13Zm4.43-11.76c.25,0,.4.09.4.2s-.11.24-.29.42v9.16h-1.49V238.9Zm3.31-2.16c.18,0,.29.11.29.22s-.15.29-.44.44V250.6a1.9,1.9,0,0,1-.62,1.54,4,4,0,0,1-2.58.53l-.64-1.56h1.45a.74.74,0,0,0,.82-.78v-13.7Z"/><path class="c83719af-c958-4794-a5a5-375e4d8f3b21" d="M1045.36,240.64c.16.09.25.16.25.24a.44.44,0,0,1-.29.36l-1.14,1.56h2.56v1.42h-3.47v1.56h3.05v1.42h-2.67a9.68,9.68,0,0,0,2.6,2.49l-1.07,1.13a12.12,12.12,0,0,1-1.91-2.18v4h-1.49v-4.05c-.24.44-.47.84-.69,1.18a14.65,14.65,0,0,1-1.73,2.24L1037.8,251a12.53,12.53,0,0,0,2.11-1.89,17.67,17.67,0,0,0,1.36-1.87h-2.76v-1.42h3.27v-1.56H1038V242.8h6l-1.07-.51,1.29-2.27Zm-2.29-4.11c.27,0,.42.09.42.24s-.11.2-.29.35v1.29h3.05v1.42h-7.81v-1.42h3.2v-2Zm-1.58,5.71-1.42.27a13.9,13.9,0,0,0-.85-2.05l1.42-.29A9.66,9.66,0,0,1,1041.49,242.24Zm11.39-4a17.26,17.26,0,0,1-4,1.42v2.42h5v1.49h-1.49v8.94h-1.49v-8.94h-2.05v.49c0,1.54-.05,2.78-.13,3.69a12.29,12.29,0,0,1-.69,3,11.27,11.27,0,0,1-1,1.94l-1.34-.93a12.48,12.48,0,0,0,.69-1.18,8.31,8.31,0,0,0,.65-2,27.38,27.38,0,0,0,.29-4.52V237.9l1.07.36a13.62,13.62,0,0,0,1.47-.42,17.31,17.31,0,0,0,2.49-1.15l1.13,1.16a1.36,1.36,0,0,1,.16.24q-.08.16-.16.16l-.34-.07A1.35,1.35,0,0,0,1052.89,238.26Z"/><path class="c83719af-c958-4794-a5a5-375e4d8f3b21" d="M1085.61,240.6v-4.27l1.44.13c.25,0,.4.11.4.24s-.09.2-.27.35v3.56h1.91v1.49h-1.91v10.58h-1.56V242.09h-1.93V240.6Zm10.72,7.31v-1.07l1.56.22q.27.05.27.22c0,.13-.13.27-.34.42v.22h2.27v1.34h-2.27v1.42a1.75,1.75,0,0,1-.67,1.49,5,5,0,0,1-2.82.51l-.56-1.49h1.64a.81.81,0,0,0,.93-.78v-1.15h-7.47v-1.34Zm-2.71-10.09v-1.56l1.44.13c.27,0,.42.11.42.24s-.11.2-.29.35v.85h2.4q-.65-.41-1.25-.71l.91-.85a14.3,14.3,0,0,1,1.78,1l-.65.56h1.51v1.36h-4.69v1h4.05v6.67h-1.49v-1.05h-2.56v1.13h-1.56v-1.13H1091v1.42h-1.49v-7h4.11v-1H1089v-1.36Zm-.27,13.14-1.07,1a12.15,12.15,0,0,0-2.05-1.36l1-.91A13,13,0,0,1,1093.35,251Zm.27-8.45v-1.05H1091v1.05Zm0,2.13v-1H1091v1Zm1.56-2.13h2.56v-1.05h-2.56Zm0,2.13h2.56v-1h-2.56Z"/><path class="c83719af-c958-4794-a5a5-375e4d8f3b21" d="M1136.82,237.62h-2.27v.84h2.05v2.85h-2.05v.93H1137v1.13h-7.11v-6.89h7Zm6.31,6.11v6.74H1140v.07c0,.51.13.78.42.78h3.34a1,1,0,0,0,.65-.2,2.61,2.61,0,0,0,.4-1.09l1.49.44a2.55,2.55,0,0,1-.78,1.64,2.31,2.31,0,0,1-1.42.42h-4c-1.09,0-1.62-.4-1.62-1.2v-.85h-1.71a2.27,2.27,0,0,1-1.11,1.25,14.88,14.88,0,0,1-4.51,1.15l-1.13-1.2a24.06,24.06,0,0,0,4.43-.73,1.45,1.45,0,0,0,.73-.47h-2.74v-6.74Zm-10-6.11h-1.85v.84h1.85Zm2,2.69v-.85h-3.84v.85Zm-2,1h-1.85v.93h1.85Zm8.45,4.33v-.71H1134v.71Zm0,1.78v-.71H1134v.71Zm0,1.05H1134v.78h7.54Zm-1.65-12.23c.15,0,.22.09.22.16s-.05.09-.13.15-.16.15-.29.36h6.18V238h-6.82a10.58,10.58,0,0,1-.93,1.22l-1.2-.73a8.8,8.8,0,0,0,1.84-2.62Zm6,3.93v3.05h-8.09v-3.05Zm-5.69.93h-1v1.2h1Zm4.54-2.49v1h-5.18v-1Zm-2.34,2.49h-1v1.2h1Zm2.07,0h-.85v1.2h.85Z"/><path class="c83719af-c958-4794-a5a5-375e4d8f3b21" d="M1185,236.5q.27.11.27.27c0,.11-.11.18-.33.24a15.63,15.63,0,0,0,3.42,1.47,23.8,23.8,0,0,0,3.73.91l-1.13,1.56a27.65,27.65,0,0,1-4.22-1.45,16.86,16.86,0,0,1-3-1.76c-.87.53-1.71,1-2.53,1.44a37.18,37.18,0,0,1-4.71,1.85l-1.27-1.13a28.73,28.73,0,0,0,4.69-1.65,25.94,25.94,0,0,0,3.84-2.25Zm5.33,5.09v4.83h-1.56V246h-10.09v.42h-1.56v-4.83Zm-1.42,5.32v5.69h-1.63v-.51h-7v.58h-1.64v-5.76Zm-8.56-2.2a12.64,12.64,0,0,0-.6-1.42l1.27-.29a14.2,14.2,0,0,1,.71,1.71h1.14v-1.84h-4.2v1.84Zm6.92,4.34v-1h-7v1Zm0,1.91v-.85h-7V251ZM1187,239.6v1.13h-6.52V239.6Zm-1.49,5.11.93-1.71,1.05.51c.15.07.22.15.22.22s-.09.25-.27.35l-.44.64h1.85v-1.84h-4.47v1.84Z"/></g></svg>