<svg xmlns="http://www.w3.org/2000/svg" viewBox="0 0 250 97"><defs><style>.c2ea1749-92cd-42a1-9198-10de70097854{fill:#fff;}.\39 8d15af2-b67b-43d0-9d9d-15b6def44c46{fill:none;stroke:#fff;stroke-miterlimit:10;}</style></defs><title>index0829</title><g id="cff99807-39bf-4e80-a535-26ff859dea6d" data-name="menu"><path class="c2ea1749-92cd-42a1-9198-10de70097854" d="M38.79,36.75a16.26,16.26,0,0,0,5.38,2.47A8.06,8.06,0,0,0,42.72,41a16,16,0,0,1-3.26-1.51c-.26,2.76-.53,4-1.08,4.51a2,2,0,0,1-1.54.6,17.8,17.8,0,0,1-2.81,0,4.17,4.17,0,0,0-.55-1.73c1,.07,2.09.1,2.45.1s.62,0,.79-.19a4.91,4.91,0,0,0,.62-2.45H32.4c-1,2.11-3,3.5-7.13,4.34A5.72,5.72,0,0,0,24.22,43c3.22-.55,4.92-1.42,5.88-2.69H25.78v-.84a22.26,22.26,0,0,1-2.83,1.25,5.87,5.87,0,0,0-1.27-1.58,16.78,16.78,0,0,0,4.92-2.4H22.27V35h6.22a7.09,7.09,0,0,0,.77-1.18H25v-6.7H40.87v6.7H31.63A11.52,11.52,0,0,1,31,35h12.5v1.75Zm-11-10.95H22.42V24.1h5.35V22.59h2.16V24.1h2.62v1.7H29.93v1H27.77Zm-.65,4H38.64v-1.3H27.12Zm0,2.62H38.64v-1.3H27.12Zm11.14,6.24a13.6,13.6,0,0,1-2.11-1.92H29.5a14.39,14.39,0,0,1-2.33,1.92h3.72a9.92,9.92,0,0,0,.34-1.51h2.06A9.93,9.93,0,0,1,33,38.67ZM35.69,25.81H33.31V24.1h2.38V22.59H37.9V24.1h5.5v1.7H37.9v1H35.69Z"/><path class="c2ea1749-92cd-42a1-9198-10de70097854" d="M60.24,26.19a2.55,2.55,0,0,1,0,.58c1.3,1.32,3.86,2.14,7,2.33A6.49,6.49,0,0,0,66,30.92a11.73,11.73,0,0,1-6.43-2.64c-.86,1.1-2.76,2.14-6.89,2.71a6.34,6.34,0,0,0-1.13-1.66h-6.1V27.58h7v1.58c5.21-.67,5.76-2,5.76-3v-.31h-2A11.27,11.27,0,0,1,54.46,28a9.79,9.79,0,0,0-1.68-1.13,9.9,9.9,0,0,0,2.76-4.42l2,.43c-.14.41-.29.79-.46,1.2h7.49l.31-.1,1.54.5a22.05,22.05,0,0,1-2.09,3.55l-1.75-.62a18.56,18.56,0,0,0,1-1.66H60.24Zm-.19,14.54a62.31,62.31,0,0,1,6.77,2.62l-2,1.22a46.69,46.69,0,0,0-6.46-2.71l1.39-1.13H52.56l2,.91a32.94,32.94,0,0,1-7.34,3A18.13,18.13,0,0,0,45.55,43a26,26,0,0,0,6.91-2.23H48.6V31.09H64.25v9.65ZM51.87,25.59H46V23.91h5.88Zm-1.1,8.28H62V32.5H50.76Zm0,2.69H62V35.22H50.76Zm0,2.76H62V37.93H50.76Z"/><path class="c2ea1749-92cd-42a1-9198-10de70097854" d="M90.48,39.44H84.94v3c0,1.08-.24,1.66-1.1,1.94a12.1,12.1,0,0,1-3.94.31,7.56,7.56,0,0,0-.7-1.94c1.32,0,2.69,0,3.07,0s.48-.1.48-.41v-2.9h-7.9a18.4,18.4,0,0,1,3.24,2.62l-1.61,1.51a19.77,19.77,0,0,0-3.82-3.22l1-.91H68.86V37.62h13.9V36.37c-4.78.12-9.41.24-12.79.29l-.1-1.7c2.33,0,5.35,0,8.67,0V33.85h-7.1V27.18h7.1V26h-9V24.32h9V22.64h2.21v1.68h8.81V26H80.74v1.13h7.37v6.67h-2a21.88,21.88,0,0,1,3.48,2.06l-1.25,1.3a13.71,13.71,0,0,0-1.32-1l-2.06,0v1.32h5.55Zm-16.95-9.6h5V28.62h-5Zm5,2.59V31.18h-5v1.25Zm2.21-3.82v1.22H85.9V28.62Zm5.16,3.82V31.18H80.74v1.25Zm-5.16,2.45,3.77,0a13.35,13.35,0,0,0-1.37-.6l.43-.41H80.74Z"/><path class="c2ea1749-92cd-42a1-9198-10de70097854" d="M113.79,39h-6.53a33.42,33.42,0,0,1,6.22,3.65l-1.7,1.58a32.21,32.21,0,0,0-6.1-3.84L107.19,39h-3.07V44.6h-2.23V39H92.4V37.14h9.48V35.31h2.23v1.82h9.67Zm-2.54-2.71a54.42,54.42,0,0,0-7.34-2.09c-2.59,1.08-6.07,1.58-10.58,1.87a6.81,6.81,0,0,0-.79-1.85,44.76,44.76,0,0,0,7.63-.82c-1.51-.29-3.07-.58-4.63-.82.67-.6,1.42-1.39,2.18-2.18H92.62V28.62h6.65a24.29,24.29,0,0,0,1.8-2.45l2.11.67a21.31,21.31,0,0,1-1.39,1.78h5.35a10.1,10.1,0,0,0,.65-1.56l2.18.46c-.12.38-.26.74-.41,1.1h4v1.78h-4.92a9.13,9.13,0,0,1-2.4,2.5c2.78.65,5.28,1.32,7.18,1.94Zm-11,3.72a17.63,17.63,0,0,1-5.83,4,14.71,14.71,0,0,0-1.87-1.51A14.16,14.16,0,0,0,98,39.27Zm10.82-13.83h-16v1.66H93V24.3h8.83c-.24-.43-.48-.84-.67-1.22l2.3-.53c.31.53.74,1.18,1.06,1.75h8.64v3.53h-2.14Zm-10.87,4.22L99,31.5c1.46.24,2.93.5,4.34.79a8.5,8.5,0,0,0,2.52-1.9Z"/><path class="c2ea1749-92cd-42a1-9198-10de70097854" d="M25.1,64.18c0,3.89,1.73,6.23,5.33,6.23A6.73,6.73,0,0,0,34.7,69h0l.82,2.42a10.07,10.07,0,0,1-5.39,1.47c-5.22,0-7.94-3.7-7.94-8.76s2.73-8.88,8.27-8.88a9.58,9.58,0,0,1,4.88,1.2L34.5,59h0a6.37,6.37,0,0,0-4-1.26C26.93,57.73,25.1,60.25,25.1,64.18Z"/><path class="c2ea1749-92cd-42a1-9198-10de70097854" d="M45.1,61.87c-3.23,0-4.87,1.24-4.87,4.46v6.32H37.54V62.08l-.2-2.25,2.33-.36.45,2.16h.06a5.44,5.44,0,0,1,4.75-2.26Z"/><path class="c2ea1749-92cd-42a1-9198-10de70097854" d="M45.92,66.14c0-4.29,2.62-6.77,6.53-6.77S59,61.85,59,66.13s-2.59,6.75-6.52,6.75S45.92,70.4,45.92,66.14Zm10.28,0c0-3-1.44-4.58-3.75-4.58s-3.73,1.62-3.75,4.58,1.44,4.59,3.75,4.59S56.22,69.09,56.2,66.12Z"/><path class="c2ea1749-92cd-42a1-9198-10de70097854" d="M80.23,59.61l-4.62,13H73.05l-2.28-6.78c-.38-1.21-.72-2.51-.92-3.29-.19.77-.52,2.06-.9,3.29l-2.29,6.78H64.12L59.55,59.83l2.79-.4,2.11,6.82c.38,1.22.73,2.57,1,3.47h.1c.22-.9.58-2.24,1-3.47l2.18-6.64h2.73l2.16,6.64c.42,1.33.79,2.75,1,3.63.22-.87.6-2.29,1-3.63l2.11-6.64Z"/><path class="c2ea1749-92cd-42a1-9198-10de70097854" d="M93.3,72.53v.05l-2.4.3a4.5,4.5,0,0,1-.68-2h-.09a5.15,5.15,0,0,1-4.24,2c-3,0-5.11-2.31-5.11-6.39,0-4.59,2.63-7.13,6.63-7.13a8,8,0,0,1,2.73.45v-5.2l2.69-.41V68.34A12.33,12.33,0,0,0,93.3,72.53Zm-3.15-5.9V62.4a4,4,0,0,0-2.68-.86c-2.35,0-3.92,1.54-3.92,4.8,0,2.83,1.19,4.35,3.09,4.35C88.36,70.69,90.07,69.55,90.15,66.64Z"/><path class="c2ea1749-92cd-42a1-9198-10de70097854" d="M105,54.76l-.69,2h0a3.08,3.08,0,0,0-1.87-.58c-1.67,0-2.62.83-2.62,3.21v.48l4.05-.21-.13,2.3H99.74V72.65H97.05V61.92H94.67v-2l2.38-.23V59c0-3.25,1.89-5,5-5A5.8,5.8,0,0,1,105,54.76Z"/><path class="c2ea1749-92cd-42a1-9198-10de70097854" d="M117.25,72.53v.05l-2.41.3a4,4,0,0,1-.66-1.87h-.1a5.54,5.54,0,0,1-4.34,1.87c-2.6,0-4.33-1.6-4.33-4.9V59.75l2.69-.38v8c0,2.36,1,3.26,2.57,3.26a3.23,3.23,0,0,0,3.44-3.46V59.61h2.69v9.21A11.52,11.52,0,0,0,117.25,72.53Z"/><path class="c2ea1749-92cd-42a1-9198-10de70097854" d="M131.68,64.27v8.38H129V64.89c0-2.18-.83-3.28-2.58-3.28s-3.7,1.17-3.7,4.32v6.72H120V62.08l-.2-2.25,2.33-.36.45,2h0a5.85,5.85,0,0,1,4.57-2.08C130,59.37,131.68,61.07,131.68,64.27Z"/><path class="c2ea1749-92cd-42a1-9198-10de70097854" d="M146.58,72.53v.05l-2.4.3a4.5,4.5,0,0,1-.68-2h-.09a5.15,5.15,0,0,1-4.24,2c-3,0-5.11-2.31-5.11-6.39,0-4.59,2.63-7.13,6.63-7.13a8,8,0,0,1,2.73.45v-5.2l2.69-.41V68.34A12.33,12.33,0,0,0,146.58,72.53Zm-3.15-5.9V62.4a4,4,0,0,0-2.68-.86c-2.35,0-3.92,1.54-3.92,4.8,0,2.83,1.19,4.35,3.09,4.35C141.64,70.69,143.35,69.55,143.43,66.64Z"/><path class="c2ea1749-92cd-42a1-9198-10de70097854" d="M148.94,56a1.67,1.67,0,0,1,1.85-1.57c1.05,0,1.75.6,1.75,1.47a1.68,1.68,0,0,1-1.83,1.59C149.62,57.48,148.94,56.88,148.94,56Zm.4,4,2.69-.42v13h-2.69Z"/><path class="c2ea1749-92cd-42a1-9198-10de70097854" d="M166.82,64.27v8.38h-2.69V64.89c0-2.18-.83-3.28-2.58-3.28s-3.7,1.17-3.7,4.32v6.72h-2.69V62.08l-.2-2.25,2.33-.36.45,2h0a5.85,5.85,0,0,1,4.57-2.08C165.14,59.37,166.82,61.07,166.82,64.27Z"/><path class="c2ea1749-92cd-42a1-9198-10de70097854" d="M181.31,61.65l-2.06-.15a4.48,4.48,0,0,1,.65,2.41c0,2.75-2.08,4.55-5.29,4.55h-.27c-1,0-1.46.26-1.46.69s.45.63,1.39.68c4.91.28,6.72,1.32,6.72,3.85s-2.53,4.08-6.47,4.08c-3.74,0-6-1.4-6-3.73,0-1.57.88-2.65,2.73-3.27a1.44,1.44,0,0,1-1-1.33c0-.73.58-1.28,1.57-1.5a4.12,4.12,0,0,1-2.47-4c0-2.72,2.11-4.57,5.28-4.57a6.5,6.5,0,0,1,2.87.6l3.92-.56,0,0Zm-8.37,10.13a2.12,2.12,0,0,0-1.91,2c0,1.3,1.32,2.06,3.56,2.06s3.73-.81,3.73-2.15S177.07,71.84,172.93,71.79Zm4.36-7.85a2.43,2.43,0,0,0-2.65-2.75,2.56,2.56,0,0,0-2.7,2.76,2.67,2.67,0,1,0,5.35,0Z"/><line class="98d15af2-b67b-43d0-9d9d-15b6def44c46" x1="154.8" y1="34.26" x2="219.63" y2="34.26"/><polygon class="c2ea1749-92cd-42a1-9198-10de70097854" points="218.82 28.18 218.82 40.33 224.89 34.26 218.82 28.18"/></g></svg>