<svg xmlns="http://www.w3.org/2000/svg" viewBox="0 0 238 97"><defs><style>.\31 0086343-0e50-4d8d-a5c3-9d0f65dd6361{fill:#ff4c00;}.e306db65-257e-4fb9-a7e3-96cc679fe0a0{fill:none;stroke:#ff4c00;stroke-miterlimit:10;}</style></defs><title>index</title><g id="92ae45cc-e7b7-4bb5-9c0f-845f7e7e0355" data-name="menu"><path class="10086343-0e50-4d8d-a5c3-9d0f65dd6361" d="M19.52,39.45a14.74,14.74,0,0,1-2.83,5.35,14.61,14.61,0,0,0-1.58-1.27A10.48,10.48,0,0,0,17.53,39Zm3.86-.84h-7V23.49h7Zm-2-13.3H18.29V28h3.07Zm0,4.37H18.29V32.4h3.07Zm0,4.39H18.29v2.74h3.07Zm.72,4.82a21.28,21.28,0,0,1,2.06,3.77l-1.75.89a19.77,19.77,0,0,0-2-3.89Zm15.27,1.9H36v1.78c0,1-.22,1.54-.94,1.82a9.92,9.92,0,0,1-3.46.31,6.33,6.33,0,0,0-.58-1.8c1.06,0,2.18,0,2.5,0s.43-.1.43-.38V40.8H27.05v3.94h-2V40.8H23.67V39.14h1.39v-6h4.42V31.94H23.77V30.29H27V29H24.85V27.43H27V26.25H24.25V24.6H27V22.68h2V24.6h3V22.68h2V24.6h2.76v1.66H34v1.18h2.52V29H34v1.3h3.24v1.66H31.45v1.15H36v6h1.32Zm-10.3-6v1.39h2.42V34.75Zm0,4.39h2.42V37.61H27.05ZM29,27.43h3V26.25H29Zm0,2.86h3V29H29Zm2.5,4.46v1.39H34V34.75ZM34,39.14V37.61H31.45v1.54Z"/><path class="10086343-0e50-4d8d-a5c3-9d0f65dd6361" d="M92.93,39.86a19,19,0,0,1-5.52,4.34c-.38-.36-1.2-1.13-1.66-1.46a15.29,15.29,0,0,0,5.11-3.6Zm14.33-2.93v1.8H97.64v6H95.43v-6H85.9v-1.8ZM92.77,25.32H86.21v-1.8h20.59v1.8h-6.65V26.9h5.45v5.64h-18V26.9h5.16Zm-4,10.27V33.84h15.6v1.75Zm.91-4.73h3.07v-2.3H89.69ZM98,25.32H94.83V26.9H98Zm-3.22,5.54H98v-2.3H94.83Zm6.62,8.35a37.11,37.11,0,0,1,5.64,3.65l-1.75,1.3a33.23,33.23,0,0,0-5.52-3.79Zm-1.3-10.66v2.3h3.24v-2.3Z"/><path class="10086343-0e50-4d8d-a5c3-9d0f65dd6361" d="M28.55,57.92l-5.41-.07V72.68H20.35V57.82L15,57.75V55.53H28.55Z"/><path class="10086343-0e50-4d8d-a5c3-9d0f65dd6361" d="M30.22,56a1.67,1.67,0,0,1,1.85-1.57c1.05,0,1.75.6,1.75,1.47A1.68,1.68,0,0,1,32,57.52C30.9,57.52,30.22,56.92,30.22,56Zm.4,4,2.69-.42v13H30.62Z"/><path class="10086343-0e50-4d8d-a5c3-9d0f65dd6361" d="M38.47,66.3c0,2.93,1.32,4.39,3.74,4.39a5.78,5.78,0,0,0,3.61-1.24h0l.75,2.14a9.39,9.39,0,0,1-4.75,1.34c-4,0-6.18-2.77-6.18-6.65,0-4,2.4-6.87,6.58-6.87a7,7,0,0,1,4.22,1.22l-.76,2.1h0a5.65,5.65,0,0,0-3.35-1.12C40,61.62,38.47,63.14,38.47,66.3Z"/><path class="10086343-0e50-4d8d-a5c3-9d0f65dd6361" d="M60.79,72.49v0l-3.12.34A30.35,30.35,0,0,1,52.28,67l-.37-.48h-.53v6.13H48.7v-18l2.69-.44V64.85H52l4.7-5.2h3.11l0,0-5.74,5.83.67.89A35.48,35.48,0,0,0,60.79,72.49Z"/><path class="10086343-0e50-4d8d-a5c3-9d0f65dd6361" d="M71.8,66.84H63.26c.15,2.67,1.47,3.93,4,3.93a5.62,5.62,0,0,0,3.9-1.27h0l.74,2.1a10,10,0,0,1-5,1.33c-4.24,0-6.34-2.8-6.34-6.52,0-4.11,2.54-7,6.44-7,3.41,0,5.11,2.2,5.11,5.63,0,.46,0,1-.07,1.56Zm-2.07-2.55a2.69,2.69,0,0,0-2.88-2.86c-1.87,0-3.22,1.27-3.53,3.71L69.7,65A4.58,4.58,0,0,0,69.73,64.28Z"/><path class="10086343-0e50-4d8d-a5c3-9d0f65dd6361" d="M82.7,72a6.14,6.14,0,0,1-3.21.89c-2.41,0-3.72-1.38-3.72-3.85V61.93H73.32V60l2.45-.23.21-3,2.44-.42v3.56l3.94-.21-.13,2.27H78.42V68.8c0,1.28.53,1.88,1.63,1.88A3.54,3.54,0,0,0,82,70h0Z"/><line class="e306db65-257e-4fb9-a7e3-96cc679fe0a0" x1="148.3" y1="34.3" x2="213.13" y2="34.3"/><polygon class="10086343-0e50-4d8d-a5c3-9d0f65dd6361" points="212.32 28.22 212.32 40.37 218.39 34.3 212.32 28.22"/></g></svg>