<svg xmlns="http://www.w3.org/2000/svg" viewBox="0 0 550 570"><defs><style>.\33 f3fc632-9f87-47ed-9197-c97fe26ee27f{fill:#fff;}</style></defs><title>index0829</title><g id="7688ca07-bc77-4f57-a7ff-0b3be606fb38" data-name="menu"><polygon class="3f3fc632-9f87-47ed-9197-c97fe26ee27f" points="101.5 138 126.87 138 155.24 138 180.61 138 141.27 62.76 101.5 138"/><polygon class="3f3fc632-9f87-47ed-9197-c97fe26ee27f" points="75.94 118.12 104.97 62.76 36.27 62.76 36.27 80.82 66.81 80.82 36.33 138 101.48 138 101.89 118.12 75.94 118.12"/><path class="3f3fc632-9f87-47ed-9197-c97fe26ee27f" d="M459.56,85.46c.21-16.57-13.06-21.13-27.29-21.13H405.41v73.72H427.5V104.57L444.06,138h18.79l-17.09-34.4C452.13,101.71,459.46,92.89,459.56,85.46Zm-27.6,5c-1,0-2-.11-3-.11H427.5V82.17h4.78c1.59,0,7-.21,7,3.61S434.4,90.35,432,90.45Z"/><path class="3f3fc632-9f87-47ed-9197-c97fe26ee27f" d="M234.2,88.88H220.08c-2.23-.75-2.76-4.5.43-4.5h37.27V64.23H220.51c-15,0-22.19,9.75-22.19,21.64,0,12.11,7.64,24.22,22.19,24.22h13.7c2.76,0,4.14,1.18,4.14,2.36,0,1.61-1.49,3.21-4.35,3.32H198.74v22.29h35.57c17.2-.32,26.12-13.07,26.12-25.61S256.5,88.88,234.2,88.88Z"/><polygon class="3f3fc632-9f87-47ed-9197-c97fe26ee27f" points="302.43 90.28 286.39 90.28 286.39 63.74 262.29 63.74 262.29 138.06 286.39 138.06 286.39 111.51 302.43 111.51 302.43 138.06 326.53 138.06 326.53 63.74 302.43 63.74 302.43 90.28"/><polygon class="3f3fc632-9f87-47ed-9197-c97fe26ee27f" points="326.91 138.06 351.96 138.06 380 138.06 405.05 138.06 366.19 63.74 326.91 138.06"/><polygon class="3f3fc632-9f87-47ed-9197-c97fe26ee27f" points="486.76 111.58 513.51 111.58 513.51 90.39 486.76 90.39 486.76 85.2 513.51 85.2 513.51 64.02 465.42 63.91 465.42 138.06 513.73 138.06 513.73 117.08 486.76 117.08 486.76 111.58"/><path class="3f3fc632-9f87-47ed-9197-c97fe26ee27f" d="M493.82,162.67a68.62,68.62,0,0,1-2.87,11.58h2.72a59.63,59.63,0,0,0,3-11.35l13.84.16a113.28,113.28,0,0,1-4.27,11.2h6.22v12.28h-5.6v5.25h5.74v11.27h-5.74v4.8h5.74V219h-5.74v5h5.54v13.22H477.34v-16.4l-6,12.44a29.48,29.48,0,0,1-7-7.46v11.43H451.3v-10c-2.33,3.58-6.6,6.74-12.28,10v-16.4a73.48,73.48,0,0,0,8.55-7.56h-8.32V200.92h6.06l-7.39-9.64a25.14,25.14,0,0,0,5.75-12.59h-4.43V166.25H451.3v-3.58h13.76v3.58h10.5v11.58A57.46,57.46,0,0,0,480,162.67Zm-40.27,35.45a49.75,49.75,0,0,1-3.26-5.52c-2.18,5.13-3.19,6.37-4.9,8.32h5.91v-2.8Zm2.33-3.27-2.25,3.27h6.92Zm-1.63-16.17a15.79,15.79,0,0,1-.47,2.41A30.66,30.66,0,0,0,457.9,187a34.51,34.51,0,0,0,2.1-8.32Zm17.8,21.85a31.26,31.26,0,0,1-5.29-7.46,42.83,42.83,0,0,1-2.49,5.05h.08v2.8h11.2v12.44h-8.32c4.74,4.66,7.31,6,10.11,7.31V200.46l-.47.47-2.49-5Zm-2-21.85c-.08.54-.16,1.4-.23,1.94a29.41,29.41,0,0,0,2.49,3.81,42.22,42.22,0,0,0,2.88-5.75Zm20.37,7.85v5.25h4.28v-5.25Zm0,16.52v4.8h4.28v-4.8Zm0,15.92v5h4.28v-5Z"/><path class="3f3fc632-9f87-47ed-9197-c97fe26ee27f" d="M501,296.74h11.42V281.66H508V255.77H488.3v8.55h6.92v1.87H488.3v6h6.92V274H488.3v5.75h6.92v1.94H482.55l4.43-5.29c-1.48-.93-1.71-1.09-3.58-2.25,1.87-1.55,2.64-2.25,3.89-3.42L483,268l4.66-4.66a40.73,40.73,0,0,0-3.81-2.72,42.89,42.89,0,0,0,3.58-3.11l-6.3-4.35a22.36,22.36,0,0,1-4.66,3.26,87.61,87.61,0,0,0-8.09-3.5l-5.21,5.44c1.48.62,2.41,1,4.59,2-2.33.78-3.81,1.17-5.13,1.48l-3.81-8.71A61.82,61.82,0,0,1,442,255.38v26.28h-3.61v15.08H449v4.9h26.59c-1.55.78-7.77,3-7.77,3H438.08v11.64h29.78c0,1.87,0,2-1.63,2h-8.37l.05,9.87H476c6.14,0,6.14-5.05,6.14-6.76v-5.15h29.78V304.59H491.1a51.19,51.19,0,0,0,10-3ZM476.4,265.18c1.94,1.32,2.72,1.87,3.65,2.57a28.4,28.4,0,0,1-3.73,2.41c-3.19-1.55-4.35-2-5.29-2.49C473.53,266.66,475.16,265.8,476.4,265.18Zm-.47,13.53c.7.47,1.63,1,4.43,3H468.94A72.16,72.16,0,0,0,475.94,278.71Zm-20.68-6.53h7v-6h-7v-1.87a54,54,0,0,0,7.23-1l3,5.68-2.33,2.8c1.87.86,3,1.4,4.28,2-1.32.39-2.64.86-5.21,1.4V274h-7Zm0,7.62h7V277l2.49,4.74h-9.48Zm41.28,13.14H453.7v-2.49h42.84Z"/><path class="3f3fc632-9f87-47ed-9197-c97fe26ee27f" d="M459.89,399.23a50.81,50.81,0,0,0,17.8-6.69,100,100,0,0,1-7.46-14.93l-1.09.7-7.23-11.58a53.32,53.32,0,0,0,11.66-10h-8.63v6.76H458.8v4.82c2.41,4,4.66,6.84,9.64,12l-5.68,13a63.17,63.17,0,0,1-4-5.13V413H446V389a76,76,0,0,1-7.44,14.41v-22c6.14-7.54,6-15.79,6.35-17.89h-6.53V350.41H446V338.3H458.8v12.11h5.91v-6.53H481V338.3h14.46v5.58H512v12.91h-9a36.14,36.14,0,0,0,9.24,8.14v16.44c-1-.62-6.28-3.12-7-3.51a46.8,46.8,0,0,1-7.39,14.62c1.94,1.17,4.64,3.34,14.28,6.06L512.2,413c-10.81-3.58-22.06-7.63-24.86-9.81-4.74,3.73-16.39,8.64-24.48,9.81Zm41.51-24.18A63.66,63.66,0,0,1,490,362.38l10.11-5.6h-10.4c-3.26,5.52-13.16,16.4-16,18.43l8.79-3.65a67.41,67.41,0,0,0,5.68,11,33.86,33.86,0,0,0,4.2-10.65Z"/><polygon class="3f3fc632-9f87-47ed-9197-c97fe26ee27f" points="101.5 510.97 126.87 510.97 155.24 510.97 180.61 510.97 141.27 435.74 101.5 510.97"/><polygon class="3f3fc632-9f87-47ed-9197-c97fe26ee27f" points="75.94 491.09 104.97 435.74 36.27 435.74 36.27 453.79 66.81 453.79 36.33 510.97 101.48 510.97 101.89 491.09 75.94 491.09"/><path class="3f3fc632-9f87-47ed-9197-c97fe26ee27f" d="M459.56,458.44c.21-16.57-13.06-21.13-27.29-21.13H405.41V511H427.5V477.55L444.06,511h18.79l-17.09-34.4C452.13,474.68,459.46,465.87,459.56,458.44Zm-27.6,5c-1,0-2-.11-3-.11H427.5v-8.18h4.78c1.59,0,7-.21,7,3.61S434.4,463.32,432,463.43Z"/><path class="3f3fc632-9f87-47ed-9197-c97fe26ee27f" d="M234.2,461.85H220.08c-2.23-.75-2.76-4.5.43-4.5h37.27V437.2H220.51c-15,0-22.19,9.75-22.19,21.64,0,12.11,7.64,24.22,22.19,24.22h13.7c2.76,0,4.14,1.18,4.14,2.36,0,1.61-1.49,3.21-4.35,3.32H198.74V511h35.57c17.2-.32,26.12-13.07,26.12-25.61S256.5,461.85,234.2,461.85Z"/><polygon class="3f3fc632-9f87-47ed-9197-c97fe26ee27f" points="302.43 463.25 286.39 463.25 286.39 436.71 262.29 436.71 262.29 511.03 286.39 511.03 286.39 484.49 302.43 484.49 302.43 511.03 326.53 511.03 326.53 436.71 302.43 436.71 302.43 463.25"/><polygon class="3f3fc632-9f87-47ed-9197-c97fe26ee27f" points="326.91 511.03 351.96 511.03 380 511.03 405.05 511.03 366.19 436.71 326.91 511.03"/><polygon class="3f3fc632-9f87-47ed-9197-c97fe26ee27f" points="486.76 484.55 513.51 484.55 513.51 463.37 486.76 463.37 486.76 458.18 513.51 458.18 513.51 436.99 465.42 436.88 465.42 511.03 513.73 511.03 513.73 490.06 486.76 490.06 486.76 484.55"/><path class="3f3fc632-9f87-47ed-9197-c97fe26ee27f" d="M92.51,162.65a68.64,68.64,0,0,1-2.87,11.58h2.72a59.64,59.64,0,0,0,3-11.35l13.84.16a113.27,113.27,0,0,1-4.27,11.2h6.22v12.28h-5.6v5.25h5.74V203h-5.74v4.8h5.74v11.12h-5.74v5h5.54V237.2H76V220.8l-6,12.44a29.48,29.48,0,0,1-7-7.46V237.2H50v-10c-2.33,3.58-6.6,6.74-12.28,10v-16.4a73.47,73.47,0,0,0,8.55-7.56H37.94V200.9H44l-7.39-9.64a25.14,25.14,0,0,0,5.75-12.59H37.94V166.22H50v-3.58H63.75v3.58h10.5v11.58a57.46,57.46,0,0,0,4.43-15.16ZM52.24,198.1A49.79,49.79,0,0,1,49,192.58c-2.18,5.13-3.19,6.37-4.9,8.32H50v-2.8Zm2.33-3.27-2.25,3.27h6.92Zm-1.63-16.17a15.79,15.79,0,0,1-.47,2.41A30.65,30.65,0,0,0,56.59,187a34.51,34.51,0,0,0,2.1-8.32Zm17.8,21.85A31.27,31.27,0,0,1,65.46,193,42.81,42.81,0,0,1,63,198.1H63v2.8h11.2v12.44H65.92c4.74,4.67,7.31,6,10.11,7.31V200.43l-.47.47-2.49-5Zm-2-21.85c-.08.54-.16,1.4-.23,1.94A29.41,29.41,0,0,0,71,184.41a42.2,42.2,0,0,0,2.88-5.75Zm20.37,7.85v5.25h4.28v-5.25Zm0,16.52v4.8h4.28V203Zm0,15.92v5h4.28v-5Z"/><path class="3f3fc632-9f87-47ed-9197-c97fe26ee27f" d="M99.74,296.72h11.43V281.63h-4.43V255.75H87v8.55h6.92v1.87H87v6h6.92V274H87v5.75h6.92v1.94H81.24l4.43-5.29c-1.48-.93-1.71-1.09-3.58-2.25,1.87-1.55,2.64-2.25,3.89-3.42L81.7,268l4.66-4.66a40.78,40.78,0,0,0-3.81-2.72,42.88,42.88,0,0,0,3.58-3.11l-6.3-4.35a22.35,22.35,0,0,1-4.66,3.26,87.6,87.6,0,0,0-8.09-3.5l-5.21,5.44c1.48.62,2.41,1,4.59,2-2.33.78-3.81,1.17-5.13,1.48l-3.81-8.71a61.81,61.81,0,0,1-16.79,2.25v26.28H37.12v15.08H47.73v4.9H74.32c-1.55.78-7.77,3-7.77,3H36.77v11.64H66.54c0,1.87,0,2-1.63,2H56.54l.05,9.87H74.71c6.14,0,6.14-5.05,6.14-6.76v-5.15h29.78V304.57H89.79a51.19,51.19,0,0,0,10-3ZM75.09,265.15c1.94,1.32,2.72,1.87,3.65,2.57A28.39,28.39,0,0,1,75,270.13c-3.19-1.55-4.35-2-5.29-2.49C72.22,266.63,73.85,265.77,75.09,265.15Zm-.47,13.53c.7.47,1.63,1,4.43,3H67.63A72.16,72.16,0,0,0,74.63,278.68Zm-20.68-6.53h7v-6h-7V264.3a54,54,0,0,0,7.23-1l3,5.68-2.33,2.8c1.87.86,3,1.4,4.28,2-1.32.39-2.64.86-5.21,1.4V274h-7Zm0,7.62h7V277l2.49,4.74H53.95Zm41.28,13.14H52.39v-2.49H95.23Z"/><path class="3f3fc632-9f87-47ed-9197-c97fe26ee27f" d="M58.58,399.21a50.81,50.81,0,0,0,17.8-6.69,100,100,0,0,1-7.46-14.93l-1.09.7L60.6,366.71a53.32,53.32,0,0,0,11.66-10H63.63v6.76H57.49v4.82c2.41,4,4.66,6.84,9.64,12l-5.68,13a63.16,63.16,0,0,1-4-5.13V413H44.66V389a76,76,0,0,1-7.44,14.41v-22c6.14-7.54,6-15.79,6.35-17.89H37V350.39h7.62V338.28H57.49v12.11H63.4v-6.53H79.65v-5.58H94.11v5.58h16.56v12.91h-9a36.14,36.14,0,0,0,9.24,8.14v16.44c-1-.62-6.28-3.12-7-3.51a46.8,46.8,0,0,1-7.39,14.62c1.94,1.17,4.64,3.34,14.28,6.06l.09,14.47c-10.81-3.58-22.06-7.63-24.86-9.81-4.74,3.73-16.39,8.64-24.48,9.81ZM100.09,375a63.67,63.67,0,0,1-11.43-12.67l10.11-5.6H88.37c-3.26,5.52-13.16,16.4-16,18.43l8.79-3.65a67.41,67.41,0,0,0,5.68,11A33.86,33.86,0,0,0,91,371.92Z"/><path class="3f3fc632-9f87-47ed-9197-c97fe26ee27f" d="M37.57,538.36l7.49-9.41H37.69V526.8H48V529l-7.53,9.37h7.64v2.18H37.57Z"/><path class="3f3fc632-9f87-47ed-9197-c97fe26ee27f" d="M54.61,526.8h2.12l5.93,13.77h-2.8l-1.28-3.15h-6l-1.24,3.15H48.62Zm3.11,8.52-2.12-5.6-2.16,5.6Z"/><path class="3f3fc632-9f87-47ed-9197-c97fe26ee27f" d="M71,529.68a3,3,0,0,0-1.1-.85,3.29,3.29,0,0,0-1.43-.34,3.52,3.52,0,0,0-.86.11,2.62,2.62,0,0,0-.78.33,1.84,1.84,0,0,0-.57.58,1.6,1.6,0,0,0-.22.87,1.54,1.54,0,0,0,.19.8,1.76,1.76,0,0,0,.53.56,3.59,3.59,0,0,0,.83.41q.49.18,1.07.35t1.37.49a5.33,5.33,0,0,1,1.3.72,3.57,3.57,0,0,1,1,1.13,3.45,3.45,0,0,1,.38,1.69,4.31,4.31,0,0,1-.41,1.93,4,4,0,0,1-1.09,1.37,4.62,4.62,0,0,1-1.59.82,6.7,6.7,0,0,1-1.93.27,7.24,7.24,0,0,1-2.63-.5A5.06,5.06,0,0,1,63,539l1.75-1.63a3.52,3.52,0,0,0,1.35,1.11,3.61,3.61,0,0,0,2.54.3,2.34,2.34,0,0,0,.81-.36,2,2,0,0,0,.58-.63,1.83,1.83,0,0,0,.22-.94,1.54,1.54,0,0,0-.25-.9,2.27,2.27,0,0,0-.68-.62,5,5,0,0,0-1-.46l-1.23-.41a11.91,11.91,0,0,1-1.24-.47,4.09,4.09,0,0,1-1.12-.72,3.47,3.47,0,0,1-.81-1.1,3.75,3.75,0,0,1-.31-1.62,3.55,3.55,0,0,1,.44-1.81,3.87,3.87,0,0,1,1.15-1.25,5.1,5.1,0,0,1,1.61-.74,7,7,0,0,1,1.84-.24,6.55,6.55,0,0,1,2.13.37,5.2,5.2,0,0,1,1.88,1.11Z"/><path class="3f3fc632-9f87-47ed-9197-c97fe26ee27f" d="M75.18,526.8h2.45v5.56h6.44V526.8h2.45v13.77H84.07v-6.11H77.63v6.11H75.18Z"/><path class="3f3fc632-9f87-47ed-9197-c97fe26ee27f" d="M93.87,526.8H96l5.93,13.77h-2.8l-1.28-3.15h-6l-1.24,3.15H87.88ZM97,535.32l-2.12-5.6-2.16,5.6Z"/><path class="3f3fc632-9f87-47ed-9197-c97fe26ee27f" d="M103.29,526.8h4.78a8.65,8.65,0,0,1,1.89.2,4.86,4.86,0,0,1,1.62.67,3.5,3.5,0,0,1,1.14,1.22,3.71,3.71,0,0,1,.43,1.85,3.52,3.52,0,0,1-.85,2.44,4.26,4.26,0,0,1-2.3,1.27l3.68,6.11h-3l-3.19-5.83h-1.79v5.83h-2.45Zm4.45,5.93a7,7,0,0,0,1-.08,3,3,0,0,0,.94-.29,1.85,1.85,0,0,0,.69-.61,1.77,1.77,0,0,0,.27-1,1.57,1.57,0,0,0-.25-.92,1.9,1.9,0,0,0-.64-.57,2.71,2.71,0,0,0-.89-.29,6.34,6.34,0,0,0-1-.08h-2.22v3.87Z"/><path class="3f3fc632-9f87-47ed-9197-c97fe26ee27f" d="M115.52,526.8h9.12v2.14H118v3.5h6.32v2.06H118v3.89h7v2.18h-9.47Z"/><path class="3f3fc632-9f87-47ed-9197-c97fe26ee27f" d="M132.24,526.8h9.12v2.14h-6.67v3.5H141v2.06h-6.32v3.89h7v2.18h-9.47Z"/><path class="3f3fc632-9f87-47ed-9197-c97fe26ee27f" d="M147.43,533.22l-4.28-6.42h3l2.84,4.71,2.8-4.71h2.82l-4.2,6.48,4.94,7.29h-3.09l-3.36-5.41-3.23,5.41h-3Z"/><path class="3f3fc632-9f87-47ed-9197-c97fe26ee27f" d="M156.9,526.8h4.49a9.8,9.8,0,0,1,2.14.21,4.45,4.45,0,0,1,1.63.7,3.26,3.26,0,0,1,1.05,1.24,4.15,4.15,0,0,1,.37,1.83,4,4,0,0,1-.43,1.93A3.47,3.47,0,0,1,165,534a5.06,5.06,0,0,1-1.7.69,9.58,9.58,0,0,1-2.06.21h-1.89v5.7H156.9Zm4.16,6a7.2,7.2,0,0,0,1.15-.09,3.18,3.18,0,0,0,1-.31,1.77,1.77,0,0,0,.68-.61,1.83,1.83,0,0,0,.25-1,1.62,1.62,0,0,0-.92-1.57,2.89,2.89,0,0,0-1-.28,8.79,8.79,0,0,0-1.1-.07h-1.79v3.95Z"/><path class="3f3fc632-9f87-47ed-9197-c97fe26ee27f" d="M168.1,533.65a7.7,7.7,0,0,1,.55-3,6.55,6.55,0,0,1,1.54-2.27,6.8,6.8,0,0,1,2.33-1.44,8.34,8.34,0,0,1,2.95-.5,8.49,8.49,0,0,1,3,.5,6.89,6.89,0,0,1,2.35,1.44,6.49,6.49,0,0,1,1.55,2.27,7.71,7.71,0,0,1,.55,3,7.6,7.6,0,0,1-.55,2.95,6.8,6.8,0,0,1-1.55,2.29,7,7,0,0,1-2.35,1.5,8.05,8.05,0,0,1-3,.54,7.92,7.92,0,0,1-2.95-.54,6.79,6.79,0,0,1-3.87-3.79A7.59,7.59,0,0,1,168.1,533.65Zm2.66,0a5.84,5.84,0,0,0,.34,2,4.71,4.71,0,0,0,1,1.6,4.47,4.47,0,0,0,1.5,1.06,4.74,4.74,0,0,0,1.92.38,4.81,4.81,0,0,0,1.93-.38,4.46,4.46,0,0,0,1.51-1.06,4.73,4.73,0,0,0,1-1.6,5.85,5.85,0,0,0,.34-2,5.65,5.65,0,0,0-.34-2,4.83,4.83,0,0,0-1-1.59,4.46,4.46,0,0,0-1.5-1.07,4.75,4.75,0,0,0-1.94-.39,4.67,4.67,0,0,0-1.93.39,4.48,4.48,0,0,0-1.49,1.07,4.82,4.82,0,0,0-1,1.59A5.64,5.64,0,0,0,170.77,533.65Z"/><path class="3f3fc632-9f87-47ed-9197-c97fe26ee27f" d="M190.39,533.11h-1.77v-1.87h1.77v-1.38a6.81,6.81,0,0,1,.19-1.6,3.64,3.64,0,0,1,.62-1.35,3,3,0,0,1,1.16-.92,4.23,4.23,0,0,1,1.81-.34,6.05,6.05,0,0,1,.65,0,3.28,3.28,0,0,1,.53.11l-.16,2-.42-.1a2.83,2.83,0,0,0-.48,0,1.52,1.52,0,0,0-.82.2,1.31,1.31,0,0,0-.48.5,2.15,2.15,0,0,0-.22.68,4.59,4.59,0,0,0-.06.72v1.52h2.16v1.87h-2.16v7.47h-2.33Z"/><path class="3f3fc632-9f87-47ed-9197-c97fe26ee27f" d="M195.78,535.87a4.93,4.93,0,0,1,.4-2,4.7,4.7,0,0,1,1.08-1.55,4.76,4.76,0,0,1,1.61-1,5.8,5.8,0,0,1,4,0,4.77,4.77,0,0,1,1.61,1,4.71,4.71,0,0,1,1.08,1.55,4.94,4.94,0,0,1,.4,2,5,5,0,0,1-.4,2,4.77,4.77,0,0,1-1.08,1.56,4.91,4.91,0,0,1-1.61,1,5.52,5.52,0,0,1-4,0,4.91,4.91,0,0,1-1.61-1,4.77,4.77,0,0,1-1.08-1.56A5,5,0,0,1,195.78,535.87Zm2.37,0a3.73,3.73,0,0,0,.16,1.09,3,3,0,0,0,.5,1,2.58,2.58,0,0,0,.84.7,2.8,2.8,0,0,0,2.41,0,2.59,2.59,0,0,0,.84-.7,3,3,0,0,0,.5-1,3.75,3.75,0,0,0,.16-1.09,3.65,3.65,0,0,0-.16-1.08,3,3,0,0,0-.5-1,2.5,2.5,0,0,0-.84-.69,2.9,2.9,0,0,0-2.41,0,2.49,2.49,0,0,0-.84.69,3,3,0,0,0-.5,1A3.63,3.63,0,0,0,198.15,535.87Z"/><path class="3f3fc632-9f87-47ed-9197-c97fe26ee27f" d="M208.19,531.24h2.24v1.56h0a3.4,3.4,0,0,1,1.09-1.32,2.71,2.71,0,0,1,1.63-.51h.29a1,1,0,0,1,.27,0v2.14l-.4-.08-.32,0a2.47,2.47,0,0,0-1.28.29,2.33,2.33,0,0,0-.76.7,2.51,2.51,0,0,0-.37.84,3.25,3.25,0,0,0-.1.68v5h-2.33Z"/><path class="3f3fc632-9f87-47ed-9197-c97fe26ee27f" d="M220.24,526.8h2.45v13.77h-2.45Z"/><path class="3f3fc632-9f87-47ed-9197-c97fe26ee27f" d="M225.73,526.8H229l6.4,10.31h0V526.8h2.45v13.77h-3.11l-6.53-10.64h0v10.64h-2.45Z"/><path class="3f3fc632-9f87-47ed-9197-c97fe26ee27f" d="M240.9,526.8h3.25l6.4,10.31h0V526.8H253v13.77h-3.11l-6.53-10.64h0v10.64H240.9Z"/><path class="3f3fc632-9f87-47ed-9197-c97fe26ee27f" d="M255.41,533.65a7.7,7.7,0,0,1,.55-3,6.55,6.55,0,0,1,1.54-2.27,6.8,6.8,0,0,1,2.33-1.44,8.34,8.34,0,0,1,2.95-.5,8.49,8.49,0,0,1,3,.5,6.89,6.89,0,0,1,2.35,1.44,6.5,6.5,0,0,1,1.55,2.27,7.71,7.71,0,0,1,.55,3,7.6,7.6,0,0,1-.55,2.95,6.8,6.8,0,0,1-1.55,2.29,7,7,0,0,1-2.35,1.5,8.05,8.05,0,0,1-3,.54,7.92,7.92,0,0,1-2.95-.54A6.79,6.79,0,0,1,256,536.6,7.59,7.59,0,0,1,255.41,533.65Zm2.66,0a5.84,5.84,0,0,0,.34,2,4.71,4.71,0,0,0,1,1.6,4.47,4.47,0,0,0,1.5,1.06,4.74,4.74,0,0,0,1.92.38,4.81,4.81,0,0,0,1.93-.38,4.46,4.46,0,0,0,1.51-1.06,4.73,4.73,0,0,0,1-1.6,5.85,5.85,0,0,0,.34-2,5.65,5.65,0,0,0-.34-2,4.83,4.83,0,0,0-1-1.59,4.46,4.46,0,0,0-1.5-1.07,4.75,4.75,0,0,0-1.94-.39,4.68,4.68,0,0,0-1.94.39,4.48,4.48,0,0,0-1.49,1.07,4.82,4.82,0,0,0-1,1.59A5.64,5.64,0,0,0,258.07,533.65Z"/><path class="3f3fc632-9f87-47ed-9197-c97fe26ee27f" d="M270.63,526.8h2.74l3.79,10.6h.08l3.83-10.6h2.65l-5.52,13.77h-2.12Z"/><path class="3f3fc632-9f87-47ed-9197-c97fe26ee27f" d="M288.78,526.8h2.12l5.93,13.77H294l-1.28-3.15h-6l-1.24,3.15h-2.74Zm3.11,8.52-2.12-5.6-2.16,5.6Z"/><path class="3f3fc632-9f87-47ed-9197-c97fe26ee27f" d="M299.81,528.94h-4.22V526.8h10.89v2.14h-4.22v11.63h-2.45Z"/><path class="3f3fc632-9f87-47ed-9197-c97fe26ee27f" d="M308.07,526.8h2.45v13.77h-2.45Z"/><path class="3f3fc632-9f87-47ed-9197-c97fe26ee27f" d="M311.84,526.8h2.74l3.79,10.6h.08l3.83-10.6h2.65l-5.52,13.77h-2.12Z"/><path class="3f3fc632-9f87-47ed-9197-c97fe26ee27f" d="M326.25,526.8h9.12v2.14h-6.67v3.5H335v2.06h-6.32v3.89h7v2.18h-9.47Z"/><path class="3f3fc632-9f87-47ed-9197-c97fe26ee27f" d="M343,526.8h9.12v2.14h-6.67v3.5h6.32v2.06h-6.32v3.89h7v2.18H343Z"/><path class="3f3fc632-9f87-47ed-9197-c97fe26ee27f" d="M354.84,526.8h4.88a10.86,10.86,0,0,1,2.7.35,7,7,0,0,1,2.45,1.16,6,6,0,0,1,1.77,2.12,7,7,0,0,1,.68,3.26,6.65,6.65,0,0,1-.68,3.11,6.34,6.34,0,0,1-1.77,2.14,7.36,7.36,0,0,1-2.45,1.24,9.55,9.55,0,0,1-2.7.4h-4.88Zm4.49,11.63a8.35,8.35,0,0,0,1.91-.22,5,5,0,0,0,1.72-.76,4,4,0,0,0,1.25-1.45,4.9,4.9,0,0,0,.49-2.31,5.22,5.22,0,0,0-.49-2.41,3.92,3.92,0,0,0-1.25-1.46,4.66,4.66,0,0,0-1.72-.72,9.5,9.5,0,0,0-1.91-.2h-2v9.53Z"/><path class="3f3fc632-9f87-47ed-9197-c97fe26ee27f" d="M380.67,535.52a5.67,5.67,0,0,1-.43,2.25,5,5,0,0,1-1.17,1.7,5.15,5.15,0,0,1-1.75,1.08,6.56,6.56,0,0,1-4.39,0,5.25,5.25,0,0,1-1.76-1.08,4.85,4.85,0,0,1-1.17-1.7,5.77,5.77,0,0,1-.42-2.25V526.8H372v8.62a4.7,4.7,0,0,0,.15,1.2,3,3,0,0,0,.52,1.06,2.67,2.67,0,0,0,1,.76,3.84,3.84,0,0,0,2.94,0,2.67,2.67,0,0,0,1-.76,3,3,0,0,0,.52-1.06,4.7,4.7,0,0,0,.15-1.2V526.8h2.45Z"/><path class="3f3fc632-9f87-47ed-9197-c97fe26ee27f" d="M393.53,530a3.16,3.16,0,0,0-1.42-1.08,4.77,4.77,0,0,0-3.66,0,4.56,4.56,0,0,0-1.51,1.07,4.73,4.73,0,0,0-1,1.59,5.65,5.65,0,0,0-.34,2,6.13,6.13,0,0,0,.33,2.06,4.66,4.66,0,0,0,.94,1.6,4.23,4.23,0,0,0,1.47,1,4.8,4.8,0,0,0,1.93.37,4.26,4.26,0,0,0,2-.44,3.84,3.84,0,0,0,1.38-1.16l2,1.38a6.28,6.28,0,0,1-2.24,1.78,7.09,7.09,0,0,1-3.09.63,8,8,0,0,1-3-.54,6.69,6.69,0,0,1-3.84-3.79,7.71,7.71,0,0,1-.54-2.95,7.47,7.47,0,0,1,.57-3,6.62,6.62,0,0,1,1.57-2.27,7,7,0,0,1,2.36-1.44,8.43,8.43,0,0,1,3-.5,7.89,7.89,0,0,1,1.38.13,7,7,0,0,1,1.38.39,6.68,6.68,0,0,1,1.25.65,4,4,0,0,1,1,.93Z"/><path class="3f3fc632-9f87-47ed-9197-c97fe26ee27f" d="M401.21,526.8h2.12l5.93,13.77h-2.8l-1.28-3.15h-6L398,540.57h-2.74Zm3.11,8.52-2.12-5.6-2.16,5.6Z"/><path class="3f3fc632-9f87-47ed-9197-c97fe26ee27f" d="M412.23,528.94H408V526.8H418.9v2.14h-4.22v11.63h-2.45Z"/><path class="3f3fc632-9f87-47ed-9197-c97fe26ee27f" d="M420.5,526.8H423v13.77H420.5Z"/><path class="3f3fc632-9f87-47ed-9197-c97fe26ee27f" d="M425.32,533.65a7.68,7.68,0,0,1,.55-3,6.55,6.55,0,0,1,1.54-2.27,6.81,6.81,0,0,1,2.33-1.44,8.34,8.34,0,0,1,2.95-.5,8.48,8.48,0,0,1,3,.5A6.87,6.87,0,0,1,438,528.4a6.5,6.5,0,0,1,1.55,2.27,7.71,7.71,0,0,1,.55,3,7.6,7.6,0,0,1-.55,2.95,6.81,6.81,0,0,1-1.55,2.29,7,7,0,0,1-2.35,1.5,8,8,0,0,1-3,.54,7.92,7.92,0,0,1-2.95-.54,6.78,6.78,0,0,1-3.87-3.79A7.57,7.57,0,0,1,425.32,533.65Zm2.66,0a5.85,5.85,0,0,0,.34,2,4.71,4.71,0,0,0,1,1.6,4.48,4.48,0,0,0,1.5,1.06,4.73,4.73,0,0,0,1.92.38,4.8,4.8,0,0,0,1.92-.38,4.45,4.45,0,0,0,1.51-1.06,4.71,4.71,0,0,0,1-1.6,5.85,5.85,0,0,0,.34-2,5.65,5.65,0,0,0-.34-2,4.8,4.8,0,0,0-1-1.59,4.45,4.45,0,0,0-1.5-1.07,4.73,4.73,0,0,0-1.94-.39,4.68,4.68,0,0,0-1.94.39,4.48,4.48,0,0,0-1.49,1.07,4.83,4.83,0,0,0-1,1.59A5.65,5.65,0,0,0,428,533.65Z"/><path class="3f3fc632-9f87-47ed-9197-c97fe26ee27f" d="M442.49,526.8h3.25l6.4,10.31h0V526.8h2.45v13.77h-3.11L445,529.94h0v10.64h-2.45Z"/><path class="3f3fc632-9f87-47ed-9197-c97fe26ee27f" d="M462.35,538.43l5.31-5.21a6.29,6.29,0,0,0,1-1.25,2.77,2.77,0,0,0,.38-1.45,2,2,0,0,0-.63-1.55,2.24,2.24,0,0,0-1.56-.57,2,2,0,0,0-1.6.67,3.06,3.06,0,0,0-.74,1.68l-2.28-.35a4.29,4.29,0,0,1,.49-1.58,4.44,4.44,0,0,1,1-1.25,4.53,4.53,0,0,1,1.41-.83,5,5,0,0,1,1.76-.3,5.87,5.87,0,0,1,1.72.25,4.38,4.38,0,0,1,1.47.77,3.7,3.7,0,0,1,1.4,3,4.19,4.19,0,0,1-.18,1.23,4.91,4.91,0,0,1-.48,1.08,6.64,6.64,0,0,1-.7,1,11.17,11.17,0,0,1-.87.88l-4,3.79h6.21v2.14h-9.16Z"/><path class="3f3fc632-9f87-47ed-9197-c97fe26ee27f" d="M473.73,533.65a7.68,7.68,0,0,1,.55-3,6.55,6.55,0,0,1,1.54-2.27,6.81,6.81,0,0,1,2.33-1.44,8.34,8.34,0,0,1,2.95-.5,8.48,8.48,0,0,1,3,.5,6.87,6.87,0,0,1,2.35,1.44,6.5,6.5,0,0,1,1.55,2.27,7.71,7.71,0,0,1,.55,3,7.6,7.6,0,0,1-.55,2.95,6.81,6.81,0,0,1-1.55,2.29,7,7,0,0,1-2.35,1.5,8,8,0,0,1-3,.54,7.92,7.92,0,0,1-2.95-.54,6.78,6.78,0,0,1-3.87-3.79A7.57,7.57,0,0,1,473.73,533.65Zm2.66,0a5.85,5.85,0,0,0,.34,2,4.71,4.71,0,0,0,1,1.6,4.47,4.47,0,0,0,1.5,1.06,4.73,4.73,0,0,0,1.92.38,4.8,4.8,0,0,0,1.92-.38,4.46,4.46,0,0,0,1.51-1.06,4.71,4.71,0,0,0,1-1.6,5.85,5.85,0,0,0,.34-2,5.65,5.65,0,0,0-.34-2,4.8,4.8,0,0,0-1-1.59,4.44,4.44,0,0,0-1.5-1.07,4.73,4.73,0,0,0-1.94-.39,4.68,4.68,0,0,0-1.94.39,4.48,4.48,0,0,0-1.49,1.07,4.84,4.84,0,0,0-1,1.59A5.65,5.65,0,0,0,476.39,533.65Z"/><path class="3f3fc632-9f87-47ed-9197-c97fe26ee27f" d="M494.81,529.64l-2.72,2.24-1.36-1.62,4.3-3.46h2.12v13.77h-2.33Z"/><path class="3f3fc632-9f87-47ed-9197-c97fe26ee27f" d="M502.24,526.8h9.36v2.14l-5.5,11.63h-2.74l5.79-11.67h-6.9Z"/><path class="3f3fc632-9f87-47ed-9197-c97fe26ee27f" d="M52.95,33.61v1.56H48.26v2.27h3.91v6.74H48.26v2.56h5.05v1.56H37.12V46.75h5.25V44.19h-4V37.45h4V35.18H37.48V33.61ZM46.64,46.75V42.63h3.89V39H46.64V35.18H44V39H40v3.62h4v4.13Z"/><path class="3f3fc632-9f87-47ed-9197-c97fe26ee27f" d="M86.42,39.65l-1,1.07a19.35,19.35,0,0,0-2.62-2.56l1.05-1.05A14.77,14.77,0,0,1,86.42,39.65Zm0,4.76c-.58,1.47-1.2,2.85-1.85,4.13,0,.36-.09.56-.27.56L82.93,48a29.17,29.17,0,0,0,2.56-4.74Zm.78-9.3-1,1.07a18.46,18.46,0,0,0-2.49-2.27l1.07-1.07A14.56,14.56,0,0,1,87.2,35.1Zm1.42,1.6c.18,0,.29.07.29.18s-.07.18-.22.29a27.9,27.9,0,0,1-.45,3.93A13.48,13.48,0,0,1,87.62,43l-1.49-.29a9.21,9.21,0,0,0,.67-1.82,24.92,24.92,0,0,0,.47-4.29Zm2.11-3.93c.2,0,.31.11.31.2a.44.44,0,0,1-.29.36c-.05,2.18-.07,4.22-.07,6.11,0,1.67-.07,3.14-.2,4.43A20.28,20.28,0,0,1,90,46.74,15.76,15.76,0,0,1,89,49.17l-1.56-.64a10.67,10.67,0,0,0,1-2.27,14,14,0,0,0,.55-2.71,34.88,34.88,0,0,0,.2-4.11V32.63ZM93.23,42l-1.34.93c-.33-2.11-.69-3.93-1.07-5.47l1.07-.85C92.33,38,92.78,39.81,93.23,42Zm1.47-8.63c.24,0,.36.07.36.18s-.09.22-.27.36V48.32H93.38v-15ZM97.34,42,96,42.92c-.33-2.11-.67-3.93-1.05-5.47L96,36.6A50.56,50.56,0,0,1,97.34,42Zm1.47-9.27c.25,0,.38.07.38.18s-.11.22-.29.36V49.1H97.49V32.63Z"/><path class="3f3fc632-9f87-47ed-9197-c97fe26ee27f" d="M145.22,39.45v1.35h-8.16v8.38h-1.49V47.72c-1.42.22-3.38.49-5.91.82a.5.5,0,0,1-.35.2q-.16,0-.16-.22l-.35-1.42c.65,0,1.29-.07,1.93-.13V40.79H129V39.45Zm-2.56-6.69v5.83H131.94V32.76Zm-7.09,8h-3.34v1.13h3.34Zm0,2.27h-3.34v1.27h3.34Zm0,2.42h-3.34v1.36c1.13-.09,2.25-.22,3.34-.36ZM141.1,35v-1h-7.6v1Zm0,1.14h-7.6V37.3h7.6Zm2.53,5.47a.78.78,0,0,1,.38-.15l.22.15.6.73a.83.83,0,0,1,.11.33q0,.16-.49.44A11,11,0,0,1,142.77,46a4.59,4.59,0,0,1-.45.53l.18.13a7.39,7.39,0,0,0,2.8,1l-1.07,1.42a10.19,10.19,0,0,1-2.85-1.38.5.5,0,0,1-.15-.11,18.36,18.36,0,0,1-2.54,1.56L137.63,48a15,15,0,0,0,2.54-1.51,5.23,5.23,0,0,1-.51-.73,10.4,10.4,0,0,1-1.22-2.87h-.67V41.65Zm-2.74,3.53c.11.15.22.29.33.42a8,8,0,0,0,.84-1c.27-.44.56-1,.89-1.64h-3.09A7.86,7.86,0,0,0,140.88,45.17Z"/><path class="3f3fc632-9f87-47ed-9197-c97fe26ee27f" d="M182.34,37.52c0-.14,0-.27,0-.42v-3a11.13,11.13,0,0,0-.13-1.36l1.8.15c.31,0,.47.09.47.22s-.15.38-.44.56V37.1c0,.15,0,.29,0,.42h6.83v1.56h-6.8a12.85,12.85,0,0,0,2.67,5,12,12,0,0,0,4.76,3.34L190,49.1a13.27,13.27,0,0,1-4.62-4,14.59,14.59,0,0,1-1.93-3.56c-.15.47-.29.89-.45,1.29A10.3,10.3,0,0,1,180,46.61a20.65,20.65,0,0,1-3.78,2.49l-1.49-1.35a20.85,20.85,0,0,0,3.54-2.05,9.28,9.28,0,0,0,2.85-3,10.69,10.69,0,0,0,1.13-3.62h-6.89V37.52Z"/><path class="3f3fc632-9f87-47ed-9197-c97fe26ee27f" d="M225.94,32.74c.25,0,.4.11.4.24s-.11.2-.29.36v1.13h2.07v1.09a21.66,21.66,0,0,0,.93-2.14l1.47.51a.21.21,0,0,1,.15.2c0,.15-.15.25-.42.35a19.84,19.84,0,0,1-2,3.76h1.4v1A12.5,12.5,0,0,0,231,36.69a21.16,21.16,0,0,0,1-4l1.56.27c.18.05.27.13.27.24s-.16.29-.49.42c-.16.76-.31,1.42-.45,2h4.56V37h-.89a25.28,25.28,0,0,1-.67,4.33,15.85,15.85,0,0,1-1,2.89q-.22.44-.44.82a13.33,13.33,0,0,0,3,2.89l-1.27,1.36a15.39,15.39,0,0,1-2.74-2.85,5.63,5.63,0,0,1-.42.47,22,22,0,0,1-2.87,2.31l-1.34-1.42a12.37,12.37,0,0,0,2.53-1.65,9.19,9.19,0,0,0,1.18-1.2,14.76,14.76,0,0,1-1.34-5.2,16.33,16.33,0,0,1-.94,1.44L229,40.16l.33-.44H227a9.41,9.41,0,0,1-1.11.93h1.78l.36-.15a.68.68,0,0,1,.36.13l.76.51a.31.31,0,0,1,.15.22c0,.15-.13.29-.35.42L226.77,44v.38c1.27-.29,2.53-.64,3.76-1v1.42c-1,.31-2.24.67-3.76,1.07V47c0,1.05-.22,1.73-.62,2a5.48,5.48,0,0,1-2.51.35l-.51-1.44a9.44,9.44,0,0,0,1.78-.09c.18-.09.29-.35.29-.82v-.65c-1,.25-2,.51-3.13.78-.13.25-.25.36-.36.36s-.2-.09-.22-.29l-.42-1.69c1.38-.18,2.76-.42,4.13-.71V43.28l.56,0,1.13-1.4h-3a21,21,0,0,1-1.93.93l-1.34-1.27a16.81,16.81,0,0,0,4-1.85h-3.54V38.23h3.42V36h-2.42V34.47h2.42V32.63Zm2,3.22H226v2.27h.31A11.52,11.52,0,0,0,227.92,36Zm4.67,3.54a12.64,12.64,0,0,0,.91,3.94,12.67,12.67,0,0,0,.93-2.58,25.27,25.27,0,0,0,.64-3.83H232.5c-.07.22-.15.42-.22.58a13,13,0,0,1-1,2Z"/><path class="3f3fc632-9f87-47ed-9197-c97fe26ee27f" d="M275.74,32.82c.29,0,.45.11.45.24s-.13.24-.36.42v.73h7.11v1.42h-4.29a29.44,29.44,0,0,1,4.51,3.83l-1.42.91c-.51-.58-1.05-1.13-1.6-1.65q-4,.3-12,.75c-.13.18-.25.27-.36.27s-.18-.07-.2-.25L267.26,38c1.27,0,2.54-.07,3.8-.13l1.51-2.22H267V34.2h7.11V32.69Zm4.78,7.12v7.45a1.49,1.49,0,0,1-1.25,1.51,7.18,7.18,0,0,1-1.94.27l-.64-1.56,1.6,0a.61.61,0,0,0,.67-.67v-.44h-7.74V49.1h-1.54V39.94h10.85ZM279,42.5V41.28h-7.74V42.5Zm0,2.62V43.85h-7.74v1.27Zm-1.76-8.8.85-.71H274.8a.82.82,0,0,1-.31.2L273,37.76q2.94-.11,5.78-.27C278.23,37.07,277.71,36.69,277.2,36.32Z"/><path class="3f3fc632-9f87-47ed-9197-c97fe26ee27f" d="M315.23,45.32A20.19,20.19,0,0,1,313.92,49l-1.49-.71A16.62,16.62,0,0,0,313.72,45a18.16,18.16,0,0,0,.47-4V38.45h8.52V44h-7.25C315.39,44.5,315.32,44.92,315.23,45.32Zm4-12.14c.16.07.25.16.25.24s-.09.18-.27.2a.67.67,0,0,1-.09.11,9.66,9.66,0,0,0,2.45,1.76,10.08,10.08,0,0,0,2.45,1L323,38a14.48,14.48,0,0,1-2.13-1.13v.84h-5v-.89a19.34,19.34,0,0,1-2.13,1.38l-1.14-1.27a13.27,13.27,0,0,0,5.32-4.2Zm-3.6,8.67c0,.33,0,.64-.05.93h5.62v-.93Zm7,3V49h-1.49v-.49h-4V49h-1.49v-4.2Zm-7-4.11h5.54v-1h-5.54Zm4.63-4.25s-.05,0-.07-.05a11.53,11.53,0,0,1-1.91-1.78,14.86,14.86,0,0,1-2,1.84Zm.84,10.78V46.12h-4v1.13Zm4.43-11.76c.25,0,.4.09.4.2s-.11.24-.29.42v9.16h-1.49V35.4Zm3.31-2.16c.18,0,.29.11.29.22s-.15.29-.44.44V47.1a1.9,1.9,0,0,1-.62,1.54,4,4,0,0,1-2.58.53l-.64-1.56h1.45a.74.74,0,0,0,.82-.78V33.12Z"/><path class="3f3fc632-9f87-47ed-9197-c97fe26ee27f" d="M366.36,37.14c.16.09.25.16.25.24a.44.44,0,0,1-.29.36l-1.14,1.56h2.56v1.42h-3.47v1.56h3.05V43.7h-2.67a9.68,9.68,0,0,0,2.6,2.49l-1.07,1.13a12.12,12.12,0,0,1-1.91-2.18v4h-1.49V45.12c-.24.44-.47.84-.69,1.18a14.65,14.65,0,0,1-1.73,2.24l-1.56-1.07a12.53,12.53,0,0,0,2.11-1.89,17.67,17.67,0,0,0,1.36-1.87h-2.76V42.28h3.27V40.72H359V39.3h6l-1.07-.51,1.29-2.27ZM364.07,33c.27,0,.42.09.42.24s-.11.2-.29.35v1.29h3.05v1.42h-7.81V34.91h3.2v-2Zm-1.58,5.71-1.42.27a13.9,13.9,0,0,0-.85-2.05l1.42-.29A9.66,9.66,0,0,1,362.49,38.74Zm11.39-4a17.26,17.26,0,0,1-4,1.42v2.42h5v1.49h-1.49V49h-1.49V40.08h-2.05v.49c0,1.54-.05,2.78-.13,3.69a12.29,12.29,0,0,1-.69,3,11.27,11.27,0,0,1-1,1.94l-1.34-.93a12.48,12.48,0,0,0,.69-1.18,8.31,8.31,0,0,0,.65-2,27.38,27.38,0,0,0,.29-4.52V34.4l1.07.36a13.62,13.62,0,0,0,1.47-.42,17.31,17.31,0,0,0,2.49-1.14l1.13,1.16a1.36,1.36,0,0,1,.16.24q-.08.16-.16.16l-.34-.07A1.35,1.35,0,0,0,373.89,34.76Z"/><path class="3f3fc632-9f87-47ed-9197-c97fe26ee27f" d="M406.61,37.1V32.83L408,33c.25,0,.4.11.4.24s-.09.2-.27.35V37.1h1.91v1.49h-1.91V49.17h-1.56V38.59h-1.93V37.1Zm10.72,7.31V43.34l1.56.22q.27.05.27.22c0,.13-.13.27-.34.42v.22h2.27v1.34h-2.27v1.42a1.75,1.75,0,0,1-.67,1.49,5,5,0,0,1-2.82.51l-.56-1.49h1.64a.81.81,0,0,0,.93-.78V45.75h-7.47V44.41Zm-2.71-10.09V32.76l1.44.13c.27,0,.42.11.42.24s-.11.2-.29.35v.85h2.4q-.65-.41-1.25-.71l.91-.85a14.3,14.3,0,0,1,1.78,1l-.65.56h1.51v1.36h-4.69v1h4.05v6.67h-1.49V42.28h-2.56v1.13h-1.56V42.28H412V43.7h-1.49v-7h4.11v-1H410V34.32Zm-.27,13.14-1.07,1a12.15,12.15,0,0,0-2.05-1.36l1-.91A13,13,0,0,1,414.35,47.46Zm.27-8.45V38H412V39Zm0,2.13v-1H412v1ZM416.19,39h2.56V38h-2.56Zm0,2.13h2.56v-1h-2.56Z"/><path class="3f3fc632-9f87-47ed-9197-c97fe26ee27f" d="M457.82,34.12h-2.27V35h2.05v2.85h-2.05v.93H458v1.13h-7.11V33h7Zm6.31,6.11V47H461V47c0,.51.13.78.42.78h3.34a1,1,0,0,0,.65-.2,2.61,2.61,0,0,0,.4-1.09l1.49.44a2.55,2.55,0,0,1-.78,1.64,2.31,2.31,0,0,1-1.42.42h-4c-1.09,0-1.62-.4-1.62-1.2V47h-1.71a2.27,2.27,0,0,1-1.11,1.25,14.88,14.88,0,0,1-4.51,1.14l-1.13-1.2a24.06,24.06,0,0,0,4.43-.73,1.45,1.45,0,0,0,.73-.47h-2.74V40.23Zm-10-6.11h-1.85V35h1.85Zm2,2.69V36h-3.83v.85Zm-2,1h-1.85v.93h1.85Zm8.45,4.33v-.71H455v.71Zm0,1.78v-.71H455v.71Zm0,1.05H455v.78h7.54Zm-1.65-12.23c.15,0,.22.09.22.16s-.05.09-.13.14-.16.15-.29.36h6.18v1.05h-6.82a10.58,10.58,0,0,1-.93,1.22L458,35a8.8,8.8,0,0,0,1.84-2.62Zm6,3.93v3.05h-8.09V36.67Zm-5.69.93h-1v1.2h1Zm4.54-2.49v1h-5.18v-1Zm-2.34,2.49h-1v1.2h1Zm2.07,0h-.85v1.2h.85Z"/><path class="3f3fc632-9f87-47ed-9197-c97fe26ee27f" d="M506,33q.27.11.27.27c0,.11-.11.18-.33.24A15.63,15.63,0,0,0,509.41,35a23.8,23.8,0,0,0,3.73.91L512,37.45A27.65,27.65,0,0,1,507.79,36a16.86,16.86,0,0,1-3-1.76c-.87.53-1.71,1-2.53,1.44a37.18,37.18,0,0,1-4.71,1.85l-1.27-1.13a28.73,28.73,0,0,0,4.69-1.65,25.94,25.94,0,0,0,3.83-2.25Zm5.33,5.09v4.83h-1.56V42.5H499.72v.42h-1.56V38.09ZM510,43.41V49.1h-1.63v-.51h-7v.58h-1.64V43.41Zm-8.56-2.2a12.64,12.64,0,0,0-.6-1.42l1.27-.29a14.2,14.2,0,0,1,.71,1.71h1.14V39.38h-4.2v1.84Zm6.92,4.34v-1h-7v1Zm0,1.91v-.85h-7v.85ZM508,36.1v1.13h-6.52V36.1Zm-1.49,5.11.93-1.71,1.05.51c.15.07.22.15.22.22s-.09.25-.27.35l-.44.64h1.85V39.38h-4.47v1.84Z"/></g></svg>