<?xml version="1.0" encoding="utf-8"?>
<!-- Generator: Adobe Illustrator 21.1.0, SVG Export Plug-In . SVG Version: 6.00 Build 0)  -->
<svg version="1.1" id="圖層_1" xmlns="http://www.w3.org/2000/svg" xmlns:xlink="http://www.w3.org/1999/xlink" x="0px" y="0px"
	 viewBox="0 0 250 97" style="enable-background:new 0 0 250 97;" xml:space="preserve">
<style type="text/css">
	.st0{fill:#0047BA;}
	.st1{fill:#0047BA;stroke:#0047BA;stroke-miterlimit:10;}
</style>
<title>index0829</title>
<g id="cff99807-39bf-4e80-a535-26ff859dea6d">
	<path class="st0" d="M38.8,36.8c1.6,1.1,3.5,2,5.4,2.5c-0.6,0.5-1.1,1.1-1.5,1.8c-1.1-0.4-2.2-0.9-3.3-1.5c-0.3,2.8-0.5,4-1.1,4.5
		c-0.4,0.4-1,0.6-1.5,0.6c-0.9,0.1-1.9,0.1-2.8,0c-0.1-0.6-0.2-1.2-0.5-1.7c1,0.1,2.1,0.1,2.5,0.1s0.6,0,0.8-0.2
		c0.4-0.7,0.6-1.6,0.6-2.5h-4.9c-1,2.1-3,3.5-7.1,4.3c-0.3-0.6-0.6-1.2-1.1-1.7c3.2-0.5,4.9-1.4,5.9-2.7h-4.3v-0.8
		c-0.9,0.5-1.9,0.9-2.8,1.2c-0.3-0.6-0.8-1.1-1.3-1.6c1.8-0.5,3.4-1.3,4.9-2.4h-4.3V35h6.2c0.3-0.4,0.6-0.8,0.8-1.2H25v-6.7h15.9
		v6.7h-9.2c-0.2,0.4-0.4,0.8-0.6,1.2h12.5v1.8H38.8z M27.8,25.8h-5.4v-1.7h5.4v-1.5h2.2v1.5h2.6v1.7h-2.6v1h-2.2L27.8,25.8z
		 M27.1,29.8h11.5v-1.3H27.1L27.1,29.8z M27.1,32.4h11.5v-1.3H27.1L27.1,32.4z M38.3,38.7c-0.8-0.6-1.5-1.2-2.1-1.9h-6.7
		c-0.7,0.7-1.5,1.4-2.3,1.9h3.7c0.2-0.5,0.3-1,0.3-1.5h2.1c-0.1,0.5-0.2,1-0.3,1.5L38.3,38.7z M35.7,25.8h-2.4v-1.7h2.4v-1.5h2.2
		v1.5h5.5v1.7h-5.5v1h-2.2V25.8z"/>
	<path class="st0" d="M60.2,26.2c0,0.2,0,0.4,0,0.6c1.3,1.3,3.9,2.1,7,2.3c-0.5,0.5-0.9,1.1-1.2,1.8c-2.4-0.2-4.6-1.1-6.4-2.6
		c-0.9,1.1-2.8,2.1-6.9,2.7c-0.3-0.6-0.7-1.2-1.1-1.7h-6.1v-1.8h7v1.6c5.2-0.7,5.8-2,5.8-3v-0.3h-2c-0.5,0.8-1.1,1.5-1.8,2.1
		c-0.5-0.4-1.1-0.8-1.7-1.1c1.3-1.2,2.3-2.7,2.8-4.4l2,0.4c-0.1,0.4-0.3,0.8-0.5,1.2h7.5l0.3-0.1l1.5,0.5c-0.6,1.2-1.3,2.4-2.1,3.5
		l-1.8-0.6c0.4-0.5,0.7-1.1,1-1.7h-3.3V26.2z M60.1,40.7c2.3,0.7,4.6,1.6,6.8,2.6l-2,1.2c-2.1-1.1-4.2-2-6.5-2.7l1.4-1.1h-7.2l2,0.9
		c-2.3,1.3-4.8,2.3-7.3,3c-0.5-0.6-1.1-1.1-1.7-1.6c2.4-0.4,4.7-1.2,6.9-2.2h-3.9v-9.7h15.7v9.6L60.1,40.7z M51.9,25.6H46v-1.7h5.9
		L51.9,25.6z M50.8,33.9H62v-1.4H50.8L50.8,33.9z M50.8,36.6H62v-1.3H50.8L50.8,36.6z M50.8,39.3H62v-1.4H50.8L50.8,39.3z"/>
	<path class="st0" d="M90.5,39.4h-5.5v3c0,1.1-0.2,1.7-1.1,1.9c-1.3,0.3-2.6,0.4-3.9,0.3c-0.1-0.7-0.4-1.3-0.7-1.9
		c1.3,0,2.7,0,3.1,0s0.5-0.1,0.5-0.4v-2.9h-7.9c1.2,0.7,2.3,1.6,3.2,2.6l-1.6,1.5c-1.1-1.2-2.4-2.3-3.8-3.2l1-0.9h-4.8v-1.8h13.9
		v-1.2c-4.8,0.1-9.4,0.2-12.8,0.3L69.9,35c2.3,0,5.3,0,8.7,0v-1.1h-7.1v-6.7h7.1V26h-9v-1.7h9v-1.7h2.2v1.7h8.8V26h-8.8v1.1h7.4v6.7
		h-2c1.2,0.6,2.4,1.3,3.5,2.1l-1.2,1.3c-0.4-0.4-0.9-0.7-1.3-1H85v1.3h5.6L90.5,39.4z M73.5,29.8h5v-1.2h-5V29.8z M78.5,32.4v-1.2
		h-5v1.2L78.5,32.4z M80.7,28.6v1.2h5.2v-1.2L80.7,28.6z M85.9,32.4v-1.2h-5.2v1.2L85.9,32.4z M80.7,34.9h3.8
		c-0.4-0.2-0.9-0.4-1.4-0.6l0.4-0.4h-2.8L80.7,34.9z"/>
	<path class="st0" d="M113.8,39h-6.5c2.2,1,4.3,2.2,6.2,3.7l-1.7,1.6c-1.9-1.5-3.9-2.8-6.1-3.8l1.5-1.4h-3.1v5.6h-2.2V39h-9.5v-1.9
		h9.5v-1.8h2.2v1.8h9.7L113.8,39z M111.2,36.3c-2.4-0.9-4.8-1.6-7.3-2.1c-2.6,1.1-6.1,1.6-10.6,1.9c-0.2-0.7-0.4-1.3-0.8-1.8
		c2.6-0.1,5.1-0.3,7.6-0.8c-1.5-0.3-3.1-0.6-4.6-0.8c0.7-0.6,1.4-1.4,2.2-2.2h-5.1v-1.8h6.7c0.7-0.8,1.3-1.6,1.8-2.5l2.1,0.7
		c-0.4,0.6-0.9,1.2-1.4,1.8h5.3c0.3-0.5,0.5-1,0.7-1.6l2.2,0.5c-0.1,0.4-0.3,0.7-0.4,1.1h4v1.8h-4.9c-0.6,1-1.4,1.8-2.4,2.5
		c2.8,0.7,5.3,1.3,7.2,1.9L111.2,36.3z M100.2,40c-1.7,1.7-3.6,3.1-5.8,4c-0.6-0.6-1.2-1.1-1.9-1.5c2-0.7,3.9-1.8,5.5-3.2L100.2,40z
		 M111.1,26.2h-16v1.7H93v-3.5h8.8c-0.2-0.4-0.5-0.8-0.7-1.2l2.3-0.5c0.3,0.5,0.7,1.2,1.1,1.8h8.6v3.5H111L111.1,26.2z M100.2,30.4
		L99,31.5c1.5,0.2,2.9,0.5,4.3,0.8c1-0.5,1.8-1.1,2.5-1.9L100.2,30.4z"/>
	<path class="st0" d="M25.1,64.2c0,3.9,1.7,6.2,5.3,6.2c1.5,0,3.1-0.5,4.3-1.4l0,0l0.8,2.4c-1.6,1-3.5,1.5-5.4,1.5
		c-5.2,0-7.9-3.7-7.9-8.8s2.7-8.9,8.3-8.9c1.7,0,3.4,0.4,4.9,1.2L34.5,59l0,0c-1.2-0.9-2.6-1.3-4-1.3C26.9,57.7,25.1,60.2,25.1,64.2
		z"/>
	<path class="st0" d="M45.1,61.9c-3.2,0-4.9,1.2-4.9,4.5v6.3h-2.7V62.1l-0.2-2.2l2.3-0.4l0.5,2.2h0.1c1.1-1.5,2.9-2.4,4.8-2.3
		L45.1,61.9z"/>
	<path class="st0" d="M45.9,66.1c0-4.3,2.6-6.8,6.5-6.8s6.6,2.5,6.6,6.8s-2.6,6.8-6.5,6.8S45.9,70.4,45.9,66.1z M56.2,66.1
		c0-3-1.4-4.6-3.8-4.6s-3.7,1.6-3.8,4.6c0,3,1.4,4.6,3.8,4.6S56.2,69.1,56.2,66.1L56.2,66.1z"/>
	<path class="st0" d="M80.2,59.6l-4.6,13h-2.6l-2.3-6.8c-0.4-1.2-0.7-2.5-0.9-3.3c-0.2,0.8-0.5,2.1-0.9,3.3l-2.3,6.8h-2.5l-4.6-12.8
		l2.8-0.4l2.1,6.8c0.4,1.2,0.7,2.6,1,3.5h0.1c0.2-0.9,0.6-2.2,1-3.5l2.2-6.6h2.7l2.2,6.6c0.4,1.3,0.8,2.8,1,3.6
		c0.2-0.9,0.6-2.3,1-3.6l2.1-6.6H80.2z"/>
	<path class="st0" d="M93.3,72.5L93.3,72.5l-2.4,0.4c-0.4-0.6-0.6-1.3-0.7-2h-0.1c-1,1.3-2.6,2.1-4.2,2c-3,0-5.1-2.3-5.1-6.4
		c0-4.6,2.6-7.1,6.6-7.1c0.9,0,1.9,0.1,2.7,0.5v-5.2l2.7-0.4v14.1C92.7,69.8,92.9,71.2,93.3,72.5z M90.2,66.6v-4.2
		c-0.8-0.6-1.7-0.9-2.7-0.9c-2.3,0-3.9,1.5-3.9,4.8c0,2.8,1.2,4.3,3.1,4.3C88.4,70.7,90.1,69.6,90.2,66.6L90.2,66.6z"/>
	<path class="st0" d="M105,54.8l-0.7,2l0,0c-0.5-0.4-1.2-0.6-1.9-0.6c-1.7,0-2.6,0.8-2.6,3.2v0.5l4.1-0.2l-0.1,2.3h-4v10.7h-2.7
		V61.9h-2.4v-2l2.4-0.2V59c0-3.2,1.9-5,5-5C103.1,54,104.1,54.2,105,54.8z"/>
	<path class="st0" d="M117.2,72.5L117.2,72.5l-2.4,0.4c-0.4-0.6-0.6-1.2-0.7-1.9h-0.1c-1.1,1.2-2.7,1.9-4.3,1.9
		c-2.6,0-4.3-1.6-4.3-4.9v-8.2l2.7-0.4v8c0,2.4,1,3.3,2.6,3.3c1.8,0.1,3.3-1.2,3.4-3c0-0.2,0-0.3,0-0.5v-7.6h2.7v9.2
		C116.7,70.1,116.9,71.3,117.2,72.5z"/>
	<path class="st0" d="M131.7,64.3v8.4H129v-7.8c0-2.2-0.8-3.3-2.6-3.3s-3.7,1.2-3.7,4.3v6.7H120V62.1l-0.2-2.2l2.3-0.4l0.4,2l0,0
		c1.1-1.3,2.8-2.1,4.6-2.1C130,59.4,131.7,61.1,131.7,64.3z"/>
	<path class="st0" d="M146.6,72.5L146.6,72.5l-2.4,0.4c-0.4-0.6-0.6-1.3-0.7-2h-0.1c-1,1.3-2.6,2.1-4.2,2c-3,0-5.1-2.3-5.1-6.4
		c0-4.6,2.6-7.1,6.6-7.1c0.9,0,1.9,0.1,2.7,0.5v-5.2l2.7-0.4v14.1C146,69.8,146.2,71.2,146.6,72.5z M143.4,66.6v-4.2
		c-0.8-0.6-1.7-0.9-2.7-0.9c-2.4,0-3.9,1.5-3.9,4.8c0,2.8,1.2,4.3,3.1,4.3C141.6,70.7,143.4,69.6,143.4,66.6L143.4,66.6z"/>
	<path class="st0" d="M148.9,56c0-0.9,0.8-1.6,1.8-1.6c0,0,0.1,0,0.1,0c1.1,0,1.8,0.6,1.8,1.5c0,0.9-0.8,1.6-1.8,1.6c0,0,0,0-0.1,0
		C149.6,57.5,148.9,56.9,148.9,56z M149.3,60l2.7-0.4v13h-2.7V60z"/>
	<path class="st0" d="M166.8,64.3v8.4h-2.7v-7.8c0-2.2-0.8-3.3-2.6-3.3s-3.7,1.2-3.7,4.3v6.7h-2.7V62.1l-0.2-2.2l2.3-0.4l0.4,2l0,0
		c1.1-1.3,2.8-2.1,4.6-2.1C165.1,59.4,166.8,61.1,166.8,64.3z"/>
	<path class="st0" d="M181.3,61.7l-2.1-0.2c0.4,0.7,0.7,1.6,0.6,2.4c0,2.8-2.1,4.5-5.3,4.5h-0.3c-1,0-1.5,0.3-1.5,0.7
		s0.4,0.6,1.4,0.7c4.9,0.3,6.7,1.3,6.7,3.8s-2.5,4.1-6.5,4.1c-3.7,0-6-1.4-6-3.7c0-1.6,0.9-2.7,2.7-3.3c-0.6-0.2-1-0.7-1-1.3
		c0-0.7,0.6-1.3,1.6-1.5c-1.6-0.7-2.6-2.3-2.5-4c0-2.7,2.1-4.6,5.3-4.6c1,0,2,0.2,2.9,0.6l3.9-0.6l0,0L181.3,61.7z M172.9,71.8
		c-1,0.1-1.9,1-1.9,2c0,1.3,1.3,2.1,3.6,2.1s3.7-0.8,3.7-2.2S177.1,71.8,172.9,71.8L172.9,71.8z M177.3,63.9
		c0.2-1.3-0.7-2.6-2.1-2.7c-0.2,0-0.4,0-0.6,0c-1.4-0.1-2.6,1-2.7,2.4c0,0.1,0,0.2,0,0.4c0,1.5,1.2,2.7,2.7,2.7
		S177.3,65.4,177.3,63.9L177.3,63.9L177.3,63.9z"/>
	<line class="st1" x1="154.8" y1="34.3" x2="219.6" y2="34.3"/>
	<polygon class="st0" points="218.8,28.2 218.8,40.3 224.9,34.3 	"/>
</g>
</svg>
