<svg xmlns="http://www.w3.org/2000/svg" viewBox="0 0 238 97"><defs><style>.\35 e9b1d99-6be1-48ba-8ffb-dabf60fb724d{fill:#ff4c00;}.\31 0f47972-bd28-4236-985e-9e89f31ab7e5{fill:none;stroke:#ff4c00;stroke-miterlimit:10;}</style></defs><title>index</title><g id="e01d1a05-de61-46a9-868a-2f417e27b223" data-name="menu"><path class="5e9b1d99-6be1-48ba-8ffb-dabf60fb724d" d="M19.77,39.45a14.74,14.74,0,0,1-2.83,5.35,14.61,14.61,0,0,0-1.58-1.27A10.48,10.48,0,0,0,17.78,39Zm3.86-.84h-7V23.49h7Zm-2-13.3H18.55V28h3.07Zm0,4.37H18.55V32.4h3.07Zm0,4.39H18.55v2.74h3.07Zm.72,4.82a21.28,21.28,0,0,1,2.06,3.77l-1.75.89a19.77,19.77,0,0,0-2-3.89Zm15.27,1.9H36.29v1.78c0,1-.22,1.54-.94,1.82a9.92,9.92,0,0,1-3.46.31,6.33,6.33,0,0,0-.58-1.8c1.06,0,2.18,0,2.5,0s.43-.1.43-.38V40.8H27.31v3.94h-2V40.8H23.93V39.14h1.39v-6h4.42V31.94H24V30.29h3.22V29H25.1V27.43h2.14V26.25H24.5V24.6h2.74V22.68h2V24.6h3V22.68h2V24.6H37v1.66H34.25v1.18h2.52V29H34.25v1.3h3.24v1.66H31.7v1.15h4.58v6h1.32Zm-10.3-6v1.39h2.42V34.75Zm0,4.39h2.42V37.61H27.31Zm1.9-11.71h3V26.25h-3Zm0,2.86h3V29h-3Zm2.5,4.46v1.39h2.54V34.75Zm2.54,4.39V37.61H31.7v1.54Z"/><path class="5e9b1d99-6be1-48ba-8ffb-dabf60fb724d" d="M93.19,39.86a19,19,0,0,1-5.52,4.34c-.38-.36-1.2-1.13-1.66-1.46a15.29,15.29,0,0,0,5.11-3.6Zm14.33-2.93v1.8H97.89v6H95.69v-6H86.16v-1.8ZM93,25.32H86.47v-1.8h20.59v1.8h-6.65V26.9h5.45v5.64h-18V26.9H93ZM89,35.59V33.84h15.6v1.75Zm.91-4.73H93v-2.3H89.95Zm8.35-5.54H95.09V26.9H98.3Zm-3.22,5.54H98.3v-2.3H95.09Zm6.62,8.35a37.11,37.11,0,0,1,5.64,3.65l-1.75,1.3a33.23,33.23,0,0,0-5.52-3.79Zm-1.3-10.66v2.3h3.24v-2.3Z"/><path class="5e9b1d99-6be1-48ba-8ffb-dabf60fb724d" d="M28.8,57.92l-5.41-.07V72.68H20.61V57.82l-5.38-.07V55.53H28.8Z"/><path class="5e9b1d99-6be1-48ba-8ffb-dabf60fb724d" d="M30.48,56a1.67,1.67,0,0,1,1.85-1.57c1.05,0,1.75.6,1.75,1.47a1.68,1.68,0,0,1-1.83,1.59C31.16,57.52,30.48,56.92,30.48,56Zm.4,4,2.69-.42v13H30.87Z"/><path class="5e9b1d99-6be1-48ba-8ffb-dabf60fb724d" d="M38.72,66.3c0,2.93,1.32,4.39,3.74,4.39a5.78,5.78,0,0,0,3.61-1.24h0l.75,2.14a9.39,9.39,0,0,1-4.75,1.34c-4,0-6.18-2.77-6.18-6.65,0-4,2.4-6.87,6.58-6.87a7,7,0,0,1,4.22,1.22L46,62.73h0a5.65,5.65,0,0,0-3.35-1.12C40.25,61.62,38.72,63.14,38.72,66.3Z"/><path class="5e9b1d99-6be1-48ba-8ffb-dabf60fb724d" d="M61,72.49v0l-3.12.34A30.35,30.35,0,0,1,52.54,67l-.37-.48h-.53v6.13H49v-18l2.69-.44V64.85h.59l4.7-5.2H60l0,0-5.74,5.83.67.89A35.48,35.48,0,0,0,61,72.49Z"/><path class="5e9b1d99-6be1-48ba-8ffb-dabf60fb724d" d="M72.05,66.84H63.52c.15,2.67,1.47,3.93,4,3.93a5.62,5.62,0,0,0,3.9-1.27h0l.74,2.1a10,10,0,0,1-5,1.33c-4.24,0-6.34-2.8-6.34-6.52,0-4.11,2.54-7,6.44-7,3.41,0,5.11,2.2,5.11,5.63,0,.46,0,1-.07,1.56ZM70,64.28a2.69,2.69,0,0,0-2.88-2.86c-1.87,0-3.22,1.27-3.53,3.71L70,65A4.58,4.58,0,0,0,70,64.28Z"/><path class="5e9b1d99-6be1-48ba-8ffb-dabf60fb724d" d="M83,72a6.14,6.14,0,0,1-3.21.89c-2.41,0-3.72-1.38-3.72-3.85V61.93H73.57V60L76,59.74l.21-3,2.44-.42v3.56l3.94-.21-.13,2.27H78.67V68.8c0,1.28.53,1.88,1.63,1.88A3.54,3.54,0,0,0,82.23,70h0Z"/><line class="10f47972-bd28-4236-985e-9e89f31ab7e5" x1="148.55" y1="34.3" x2="213.39" y2="34.3"/><polygon class="5e9b1d99-6be1-48ba-8ffb-dabf60fb724d" points="212.57 28.22 212.57 40.37 218.65 34.3 212.57 28.22"/></g></svg>