<svg xmlns="http://www.w3.org/2000/svg" viewBox="0 0 250 97"><defs><style>.c6f4a8c2-244d-4b4c-93a3-5140d4af8c63{fill:#fff;}.\34 1a41934-d192-402d-81ff-6c3130d4d622{fill:none;stroke:#fff;stroke-miterlimit:10;}</style></defs><title>index0829</title><g id="e5efbe9c-3884-4eea-b9e8-69790b0263ef" data-name="menu"><path class="c6f4a8c2-244d-4b4c-93a3-5140d4af8c63" d="M26,39.42a14.74,14.74,0,0,1-2.83,5.35A14.61,14.61,0,0,0,21.6,43.5,10.48,10.48,0,0,0,24,39Zm3.86-.84h-7V23.46h7Zm-2-13.3H24.79v2.66h3.07Zm0,4.37H24.79v2.71h3.07Zm0,4.39H24.79v2.74h3.07Zm.72,4.82a21.28,21.28,0,0,1,2.06,3.77l-1.75.89a19.77,19.77,0,0,0-2-3.89Zm15.27,1.9H42.53v1.78c0,1-.22,1.54-.94,1.82a9.92,9.92,0,0,1-3.46.31,6.33,6.33,0,0,0-.58-1.8c1.06,0,2.18,0,2.5,0s.43-.1.43-.38V40.76H33.55V44.7h-2V40.76H30.17V39.11h1.39v-6H36V31.9H30.27V30.25h3.22V29H31.35V27.39h2.14V26.22H30.75V24.56h2.74V22.64h2v1.92h3V22.64h2v1.92h2.76v1.66H40.49v1.18H43V29H40.49v1.3h3.24V31.9H37.95v1.15h4.58v6h1.32Zm-10.3-6V36.1H36V34.71Zm0,4.39H36V37.57H33.55Zm1.9-11.71h3V26.22h-3Zm0,2.86h3V29h-3Zm2.5,4.46V36.1h2.54V34.71Zm2.54,4.39V37.57H37.95v1.54Z"/><path class="c6f4a8c2-244d-4b4c-93a3-5140d4af8c63" d="M99.43,39.82a19,19,0,0,1-5.52,4.34c-.38-.36-1.2-1.13-1.66-1.46a15.29,15.29,0,0,0,5.11-3.6Zm14.33-2.93v1.8h-9.62v6h-2.21v-6H92.4V36.9ZM99.27,25.28H92.71v-1.8h20.59v1.8h-6.65v1.58h5.45V32.5h-18V26.86h5.16Zm-4,10.27V33.8h15.6v1.75Zm.91-4.73h3.07v-2.3H96.19Zm8.35-5.54h-3.22v1.58h3.22Zm-3.22,5.54h3.22v-2.3h-3.22ZM108,39.18a37.11,37.11,0,0,1,5.64,3.65l-1.75,1.3a33.23,33.23,0,0,0-5.52-3.79Zm-1.3-10.66v2.3h3.24v-2.3Z"/><path class="c6f4a8c2-244d-4b4c-93a3-5140d4af8c63" d="M35,57.89l-5.41-.07V72.65H26.85V57.78l-5.38-.07V55.49H35Z"/><path class="c6f4a8c2-244d-4b4c-93a3-5140d4af8c63" d="M36.72,56a1.67,1.67,0,0,1,1.85-1.57c1.05,0,1.75.6,1.75,1.47a1.68,1.68,0,0,1-1.83,1.59C37.4,57.48,36.72,56.88,36.72,56Zm.4,4,2.69-.42v13H37.12Z"/><path class="c6f4a8c2-244d-4b4c-93a3-5140d4af8c63" d="M45,66.26c0,2.93,1.32,4.39,3.74,4.39a5.78,5.78,0,0,0,3.61-1.24h0l.75,2.14a9.39,9.39,0,0,1-4.75,1.34c-4,0-6.18-2.77-6.18-6.65,0-4,2.4-6.87,6.58-6.87A7,7,0,0,1,53,60.59l-.76,2.1h0a5.65,5.65,0,0,0-3.35-1.12C46.49,61.58,45,63.1,45,66.26Z"/><path class="c6f4a8c2-244d-4b4c-93a3-5140d4af8c63" d="M67.29,72.45v0l-3.12.34A30.35,30.35,0,0,1,58.78,67l-.37-.48h-.53v6.13H55.2v-18l2.69-.44V64.81h.59l4.7-5.2h3.11l0,0-5.74,5.83.67.89A35.48,35.48,0,0,0,67.29,72.45Z"/><path class="c6f4a8c2-244d-4b4c-93a3-5140d4af8c63" d="M78.3,66.8H69.76c.15,2.67,1.47,3.93,4,3.93a5.62,5.62,0,0,0,3.9-1.27h0l.74,2.1a10,10,0,0,1-5,1.33c-4.24,0-6.34-2.8-6.34-6.52,0-4.11,2.54-7,6.44-7,3.41,0,5.11,2.2,5.11,5.63,0,.46,0,1-.07,1.56Zm-2.07-2.55a2.69,2.69,0,0,0-2.88-2.86c-1.87,0-3.22,1.27-3.53,3.71l6.39-.19A4.58,4.58,0,0,0,76.23,64.25Z"/><path class="c6f4a8c2-244d-4b4c-93a3-5140d4af8c63" d="M89.2,72a6.14,6.14,0,0,1-3.21.89c-2.41,0-3.72-1.38-3.72-3.85V61.89H79.82v-2l2.45-.23.21-3,2.44-.42v3.56l3.94-.21-.13,2.27H84.92v6.87c0,1.28.53,1.88,1.63,1.88A3.54,3.54,0,0,0,88.48,70h0Z"/><line class="41a41934-d192-402d-81ff-6c3130d4d622" x1="154.8" y1="34.26" x2="219.63" y2="34.26"/><polygon class="c6f4a8c2-244d-4b4c-93a3-5140d4af8c63" points="218.82 28.18 218.82 40.33 224.89 34.26 218.82 28.18"/></g></svg>