<svg xmlns="http://www.w3.org/2000/svg" viewBox="0 0 300.49 97"><defs><style>.c0c1e680-6c2c-44e8-9ac0-358e497c18bb{fill:#ff4c00;}.\33 140c9bf-904e-4495-ba7f-05ea1621625b{fill:none;stroke:#ff4c00;stroke-miterlimit:10;}</style></defs><title>index</title><g id="7a94d549-ee1c-4f2d-8078-b59d6949856d" data-name="line"><path class="c0c1e680-6c2c-44e8-9ac0-358e497c18bb" d="M33.78,23.12c-.14.22-.31.43-.48.67a21.33,21.33,0,0,0,6.41,3.89,8.75,8.75,0,0,0-.86,1.94,24.91,24.91,0,0,1-3.75-2.16v1.42H29.31v-1.2a21.1,21.1,0,0,1-3.6,2.21A11.5,11.5,0,0,0,24.66,28v1.32h-2v4.27l2.18-.58.31,2-2.5.74V42c0,1.1-.24,1.7-.89,2a6.86,6.86,0,0,1-3.12.41,8.89,8.89,0,0,0-.65-2c.91,0,1.8,0,2.06,0s.41-.12.41-.43V36.44l-2.35.65L17.53,35c.84-.19,1.85-.43,3-.72V29.36H17.77V27.3h2.71V22.62h2.18V27.3h2v.65a17,17,0,0,0,7.22-5.54Zm-5.23,14c0,.36-.1.72-.17,1.1h9.89v6.29h-2v-.67H30.2v.72h-1.9V38.75a13.25,13.25,0,0,1-2.4,5.83,7.21,7.21,0,0,0-1.8-1.22c2.21-2.69,2.47-6.48,2.47-9.22v-4H37.64v7Zm7.08-1.63V34.3H28.69c0,.41,0,.79,0,1.22Zm-6.94-3.79v1.15h6.94V31.74Zm6.22-4.42a26.1,26.1,0,0,1-2.71-2.18,20.9,20.9,0,0,1-2.4,2.18ZM30.2,39.92V42.2h6.1V39.92Z"/><path class="c0c1e680-6c2c-44e8-9ac0-358e497c18bb" d="M59.79,42.15c.79,0,.94-.48,1-3.46a7,7,0,0,0,2,.91c-.22,3.67-.82,4.66-2.86,4.66H56.87c-2.38,0-3-.72-3-3V34.81h-4c-.53,4.44-1.82,8-7.27,10a7.34,7.34,0,0,0-1.39-2c4.92-1.51,5.9-4.42,6.31-8h-6V32.65h9.36V28.23H46.35a18,18,0,0,1-2,3.5,12.08,12.08,0,0,0-2-1.06,19.79,19.79,0,0,0,3.31-7.61L48,23.5c-.24.82-.5,1.7-.82,2.59h3.74v-3.5h2.26v3.5H60.8v2.14H53.19v4.42h9.38v2.16H56.17v6.48c0,.74.14.86,1,.86Z"/><path class="c0c1e680-6c2c-44e8-9ac0-358e497c18bb" d="M69.25,26.31h4.22v1.82H64.54V26.31h4.37a14.35,14.35,0,0,0-1.51-2.86l1.68-.82a10.76,10.76,0,0,1,1.68,2.9Zm-3.86,6.84H73v1.75H65.39Zm7.56-3.36v1.75H65.72V29.79Zm0,13.37H67.83v1.15h-2V36.44h7.13Zm-5.11-5v3.31h3V38.15Zm18.6,3.41v2.11H73.71V41.55h5V35.89H74.51V33.83h4.22V29.19H74.1V27.1h5.38a16.86,16.86,0,0,0-2.28-3.6l1.73-.94a18,18,0,0,1,2.47,3.63l-1.54.91H86v2.09H81v4.63h4.46v2.06H81v5.66Z"/><path class="c0c1e680-6c2c-44e8-9ac0-358e497c18bb" d="M109.91,34.79h-2.14V42c0,1.08-.17,1.73-.86,2.14a6.48,6.48,0,0,1-3,.41,8.33,8.33,0,0,0-.72-2.18c.84,0,1.7,0,2,0s.36-.12.36-.41V34.79h-3.07v9.55h-2.11V34.79h-3v9.55H95.27V34.79h-2.9v9.84H90.13V34.79H87.85V32.58h2.28V24h17.64v8.54h2.14ZM95.27,32.58V26.24h-2.9v6.34Zm5.11,0V26.24h-3v6.34Zm5.18,0V26.24h-3.07v6.34Z"/><path class="c0c1e680-6c2c-44e8-9ac0-358e497c18bb" d="M123.66,24c0,4.3.53,13.13,9.58,18.48a11.07,11.07,0,0,0-1.68,2,20.48,20.48,0,0,1-9.17-12.55c-1.8,5.81-4.8,10-9.26,12.67a13.78,13.78,0,0,0-2-1.85c5.14-2.64,8.06-7.34,9.46-13.87l1.22.22c-.17-1-.26-2-.34-2.83h-5.69V24Z"/><path class="c0c1e680-6c2c-44e8-9ac0-358e497c18bb" d="M156.32,40.09H147v2.3c0,1.06-.24,1.58-1.08,1.87a13.08,13.08,0,0,1-4,.31,7.92,7.92,0,0,0-.72-1.9c1.32,0,2.71,0,3.07,0s.5-.1.5-.41V40.09H135V38.26h9.84V37.4A22.89,22.89,0,0,0,148,35.77h-8.59V34.14h10.87l.48-.12,1.27,1.15a24.72,24.72,0,0,1-5.09,2.9v.19h9.34ZM137.55,35.7h-2.11V31.11h1.82l-.43-7.1a45,45,0,0,0,4.7-1.22l1,1.32A21.54,21.54,0,0,1,139,25l.07,1h3.29v1.44h-3.22l.07,1.1h3.24V30a13.77,13.77,0,0,0,2-1.13,17,17,0,0,0-1.56-.86L144,27c.53.26,1.13.58,1.68.91a7,7,0,0,0,1.08-1.18l1.51.48a12.2,12.2,0,0,1-1.32,1.46,12.28,12.28,0,0,1,1.59,1.22l-1.13,1a11.31,11.31,0,0,0-1.61-1.27,18.63,18.63,0,0,1-2.16,1.42H152c0-.36.07-.72.12-1.1h-3.19V28.54h3.29l.1-1.1H149V26h3.36l0-1.08h-3.53V23.46h5.71c-.12,2.42-.34,5.5-.53,7.66h1.82V35.7h-2.21v-2.9H137.55Zm1.8-4.58h4.1a7,7,0,0,0-1.13-1.1h-3Zm7.95-4.42a9.19,9.19,0,0,0-1.49-1.13,14.16,14.16,0,0,1-2.06,1.32,11,11,0,0,0-1.22-1,10.6,10.6,0,0,0,2-1.1A13,13,0,0,0,143,24l1.08-.94c.5.24,1.08.53,1.61.84a6.9,6.9,0,0,0,1-1.06l1.51.41a11.18,11.18,0,0,1-1.25,1.42,11.57,11.57,0,0,1,1.46,1.06Z"/><path class="c0c1e680-6c2c-44e8-9ac0-358e497c18bb" d="M30.4,70.17v2.48H17.8l-.11-2,9.2-12.87L18,58V55.5H30l.14,2.11L21,70.35Z"/><path class="c0c1e680-6c2c-44e8-9ac0-358e497c18bb" d="M43.47,72.53v.05l-2.33.3A3.5,3.5,0,0,1,40.53,71h-.05a5.2,5.2,0,0,1-4.14,1.87c-2.3,0-4.3-1.13-4.3-3.6,0-2.67,2.34-4.56,7.8-4.56h.68c0-2.36-1.25-3.19-3.4-3.19a6.31,6.31,0,0,0-3.83,1.23h0l-.73-2.09a8.78,8.78,0,0,1,4.95-1.33c3.82,0,5.56,1.5,5.56,5.18v3.83A12.35,12.35,0,0,0,43.47,72.53Zm-3-5.41v-.6h-.75c-3.86,0-5.08,1.17-5.08,2.51s1,1.81,2.29,1.81A3.41,3.41,0,0,0,40.51,67.13Z"/><path class="c0c1e680-6c2c-44e8-9ac0-358e497c18bb" d="M54.41,62.74h-.07a5.87,5.87,0,0,0-3.64-1.33c-1.56,0-2.41.67-2.41,1.63,0,2.76,7.21,1.15,7.21,5.93,0,2.75-2.38,3.89-5.32,3.89a9.73,9.73,0,0,1-5.05-1.33l.74-2.09h.05A6.15,6.15,0,0,0,50,70.83c1.73,0,2.75-.57,2.75-1.67,0-2.9-7.16-1.33-7.16-6,0-2.34,1.84-3.81,5.08-3.81a8,8,0,0,1,4.49,1.27Z"/><path class="c0c1e680-6c2c-44e8-9ac0-358e497c18bb" d="M69.52,64.27v8.38H66.83V64.89c0-2.18-.83-3.28-2.58-3.28s-3.7,1.17-3.7,4.32v6.72H57.87v-18l2.69-.41V61.4h.08a5.51,5.51,0,0,1,4.42-2C67.84,59.37,69.52,61.07,69.52,64.27Z"/><path class="c0c1e680-6c2c-44e8-9ac0-358e497c18bb" d="M83.17,72.53v.05l-2.33.3A3.51,3.51,0,0,1,80.22,71h-.05A5.2,5.2,0,0,1,76,72.89c-2.3,0-4.3-1.13-4.3-3.6,0-2.67,2.34-4.56,7.79-4.56h.68c0-2.36-1.25-3.19-3.4-3.19A6.31,6.31,0,0,0,73,62.78h0l-.73-2.09a8.78,8.78,0,0,1,4.95-1.33c3.82,0,5.56,1.5,5.56,5.18v3.83A12.37,12.37,0,0,0,83.17,72.53Zm-3-5.41v-.6h-.75c-3.86,0-5.08,1.17-5.08,2.51s1,1.81,2.29,1.81A3.41,3.41,0,0,0,80.21,67.13Z"/><path class="c0c1e680-6c2c-44e8-9ac0-358e497c18bb" d="M93.38,61.87c-3.23,0-4.87,1.24-4.87,4.46v6.32H85.82V62.08l-.2-2.25L88,59.47l.45,2.16h.06a5.44,5.44,0,0,1,4.75-2.26Z"/><path class="c0c1e680-6c2c-44e8-9ac0-358e497c18bb" d="M105.32,66.8H96.79c.15,2.67,1.47,3.93,4,3.93a5.62,5.62,0,0,0,3.9-1.27h0l.74,2.1a10,10,0,0,1-5,1.33c-4.24,0-6.34-2.8-6.34-6.52,0-4.11,2.54-7,6.44-7,3.41,0,5.11,2.2,5.11,5.63,0,.46,0,1-.07,1.56Zm-2.07-2.55a2.69,2.69,0,0,0-2.87-2.86c-1.87,0-3.22,1.27-3.54,3.71l6.39-.19A4.68,4.68,0,0,0,103.25,64.25Z"/><path class="c0c1e680-6c2c-44e8-9ac0-358e497c18bb" d="M123.8,68.06l-7-.1L115,72.65h-2.81l6.7-17.15h2.84l6.7,17.15h-2.92Zm-6.27-2.2h5.52L121.26,61c-.39-1.05-.68-2-.91-2.85l-.12,0a29.7,29.7,0,0,1-.9,2.88Z"/><path class="c0c1e680-6c2c-44e8-9ac0-358e497c18bb" d="M141.57,72.53v.05l-2.4.3a4.5,4.5,0,0,1-.68-2h-.09a5.15,5.15,0,0,1-4.24,2c-3,0-5.11-2.31-5.11-6.39,0-4.59,2.63-7.13,6.63-7.13a8,8,0,0,1,2.73.45v-5.2l2.69-.41V68.34A12.33,12.33,0,0,0,141.57,72.53Zm-3.15-5.9V62.4a4,4,0,0,0-2.68-.86c-2.35,0-3.92,1.54-3.92,4.8,0,2.83,1.19,4.35,3.09,4.35C136.63,70.69,138.34,69.55,138.42,66.64Z"/><path class="c0c1e680-6c2c-44e8-9ac0-358e497c18bb" d="M164.37,64.27v8.38h-2.69V64.89c0-2.32-1-3.28-2.49-3.28s-3.38,1.1-3.49,4v7H153V64.89c0-2.3-1-3.28-2.46-3.28S147,62.78,147,65.93v6.72h-2.69V62.08l-.2-2.25,2.33-.36.44,2h0a5.85,5.85,0,0,1,4.43-2.07,4,4,0,0,1,3.83,2.35h0A6,6,0,0,1,160,59.37C162.51,59.37,164.37,61,164.37,64.27Z"/><path class="c0c1e680-6c2c-44e8-9ac0-358e497c18bb" d="M167,56a1.67,1.67,0,0,1,1.85-1.57c1.05,0,1.75.6,1.75,1.47a1.68,1.68,0,0,1-1.83,1.59C167.7,57.48,167,56.88,167,56Zm.4,4,2.69-.42v13h-2.69Z"/><path class="c0c1e680-6c2c-44e8-9ac0-358e497c18bb" d="M181.54,62.74h-.07a5.87,5.87,0,0,0-3.64-1.33c-1.56,0-2.41.67-2.41,1.63,0,2.76,7.21,1.15,7.21,5.93,0,2.75-2.38,3.89-5.32,3.89a9.73,9.73,0,0,1-5.05-1.33l.74-2.09H173a6.15,6.15,0,0,0,4.07,1.38c1.73,0,2.75-.57,2.75-1.67,0-2.9-7.16-1.33-7.16-6,0-2.34,1.84-3.81,5.08-3.81a8,8,0,0,1,4.49,1.27Z"/><path class="c0c1e680-6c2c-44e8-9ac0-358e497c18bb" d="M193.2,62.74h-.07a5.87,5.87,0,0,0-3.64-1.33c-1.56,0-2.41.67-2.41,1.63,0,2.76,7.21,1.15,7.21,5.93,0,2.75-2.38,3.89-5.32,3.89a9.73,9.73,0,0,1-5.05-1.33l.74-2.09h.05a6.15,6.15,0,0,0,4.07,1.38c1.73,0,2.75-.57,2.75-1.67,0-2.9-7.16-1.33-7.16-6,0-2.34,1.84-3.81,5.08-3.81a8,8,0,0,1,4.49,1.27Z"/><path class="c0c1e680-6c2c-44e8-9ac0-358e497c18bb" d="M196.22,56a1.67,1.67,0,0,1,1.85-1.57c1.05,0,1.75.6,1.75,1.47A1.68,1.68,0,0,1,198,57.48C196.9,57.48,196.22,56.88,196.22,56Zm.4,4,2.69-.42v13h-2.69Z"/><path class="c0c1e680-6c2c-44e8-9ac0-358e497c18bb" d="M201.68,66.14c0-4.29,2.62-6.77,6.53-6.77s6.52,2.48,6.52,6.76-2.59,6.75-6.52,6.75S201.68,70.4,201.68,66.14Zm10.28,0c0-3-1.43-4.58-3.75-4.58s-3.73,1.62-3.75,4.59,1.44,4.59,3.75,4.59S212,69.09,212,66.12Z"/><path class="c0c1e680-6c2c-44e8-9ac0-358e497c18bb" d="M228.8,64.27v8.38h-2.69V64.89c0-2.18-.83-3.28-2.58-3.28s-3.7,1.17-3.7,4.32v6.72h-2.69V62.08l-.2-2.25,2.33-.36.45,2h0a5.85,5.85,0,0,1,4.57-2.08C227.12,59.37,228.8,61.07,228.8,64.27Z"/><path class="c0c1e680-6c2c-44e8-9ac0-358e497c18bb" d="M249.85,57.89l-5.41-.07V72.65h-2.79V57.79l-5.38-.07V55.5h13.58Z"/><path class="c0c1e680-6c2c-44e8-9ac0-358e497c18bb" d="M260.13,66.8H251.6c.15,2.67,1.47,3.93,4,3.93a5.62,5.62,0,0,0,3.9-1.27h0l.74,2.1a10,10,0,0,1-5,1.33c-4.24,0-6.34-2.8-6.34-6.52,0-4.11,2.54-7,6.44-7,3.41,0,5.11,2.2,5.11,5.63,0,.46,0,1-.07,1.56Zm-2.07-2.55a2.69,2.69,0,0,0-2.88-2.86c-1.87,0-3.22,1.27-3.53,3.71l6.39-.19A4.49,4.49,0,0,0,258.06,64.25Z"/><path class="c0c1e680-6c2c-44e8-9ac0-358e497c18bb" d="M271.32,62.74h-.07a5.87,5.87,0,0,0-3.64-1.33c-1.56,0-2.41.67-2.41,1.63,0,2.76,7.21,1.15,7.21,5.93,0,2.75-2.38,3.89-5.32,3.89A9.73,9.73,0,0,1,262,71.54l.74-2.09h.05a6.15,6.15,0,0,0,4.07,1.38c1.73,0,2.75-.57,2.75-1.67,0-2.9-7.16-1.33-7.16-6,0-2.34,1.84-3.81,5.08-3.81a8,8,0,0,1,4.49,1.27Z"/><path class="c0c1e680-6c2c-44e8-9ac0-358e497c18bb" d="M283,72a6.14,6.14,0,0,1-3.21.89c-2.41,0-3.72-1.38-3.72-3.85V61.89h-2.45v-2L276,59.7l.21-3,2.44-.42v3.56l3.94-.21-.13,2.27h-3.81v6.87c0,1.28.53,1.88,1.63,1.88a3.54,3.54,0,0,0,1.93-.63h0Z"/><line class="3140c9bf-904e-4495-ba7f-05ea1621625b" x1="205.26" y1="33.3" x2="270.1" y2="33.3"/><polygon class="c0c1e680-6c2c-44e8-9ac0-358e497c18bb" points="269.28 27.22 269.28 39.37 275.36 33.3 269.28 27.22"/></g></svg>