<svg xmlns="http://www.w3.org/2000/svg" viewBox="0 0 232.44 305.52"><defs><style>.\31 b358f40-e1b6-455b-978e-b2a018cf24db{fill:#0047ba;}.\39 ce908be-eb72-4eb8-9ad6-312e89bfda61{fill:#ff4c00;}.\32 a9dafa4-9c90-455b-a4fd-843564c09ce3{fill:none;stroke:#ff4c00;stroke-miterlimit:10;stroke-width:0.5px;}</style></defs><title>index</title><g id="1ee1378c-139c-47ab-bc77-2ea550ed6467" data-name="pic"><rect class="1b358f40-e1b6-455b-978e-b2a018cf24db" width="232.44" height="305.52" rx="5" ry="5"/><path class="9ce908be-eb72-4eb8-9ad6-312e89bfda61" d="M32.58,241.88V244H21.84l0-1.74,5.33-4c1.67-1.23,2.11-1.94,2.11-2.8,0-1.2-.9-2.06-2.74-2.06a6.82,6.82,0,0,0-4,1.43h0l-.74-2.14a9.49,9.49,0,0,1,4.9-1.38c3.23,0,5.27,1.52,5.27,4,0,1.31-.62,2.8-3,4.29l-3.84,2.55Z"/><path class="9ce908be-eb72-4eb8-9ad6-312e89bfda61" d="M47.35,237.71a6.19,6.19,0,0,1-6.48,6.51,6.09,6.09,0,0,1-6.39-6.41,6.2,6.2,0,0,1,6.46-6.53A6.11,6.11,0,0,1,47.35,237.71Zm-2.5,0a3.68,3.68,0,0,0-3.88-4,3.81,3.81,0,0,0-4,4.08c0,2.21,1.23,4,3.87,4A3.82,3.82,0,0,0,44.85,237.67Z"/><path class="9ce908be-eb72-4eb8-9ad6-312e89bfda61" d="M59,242v2H49.32v-2h3.79v-8.46l-3.8.09v-2.08h6.35V242Z"/><path class="9ce908be-eb72-4eb8-9ad6-312e89bfda61" d="M70.45,233.15a71.5,71.5,0,0,0-6.56,14.25H61.11l0,0a77.58,77.58,0,0,1,6.85-13.9l-8.79.33v-2.27h11.2Z"/><path class="9ce908be-eb72-4eb8-9ad6-312e89bfda61" d="M70.56,242.56a1.72,1.72,0,0,1,1.78-1.73A1.58,1.58,0,0,1,74,242.44a1.73,1.73,0,0,1-1.79,1.73A1.59,1.59,0,0,1,70.56,242.56Z"/><path class="9ce908be-eb72-4eb8-9ad6-312e89bfda61" d="M86,242v2H76.25v-2H80v-8.46l-3.8.09v-2.08h6.35V242Z"/><path class="9ce908be-eb72-4eb8-9ad6-312e89bfda61" d="M100.07,237.71a6.19,6.19,0,0,1-6.48,6.51,6.09,6.09,0,0,1-6.39-6.41,6.2,6.2,0,0,1,6.46-6.53A6.11,6.11,0,0,1,100.07,237.71Zm-2.5,0a3.68,3.68,0,0,0-3.88-4,3.81,3.81,0,0,0-4,4.08c0,2.21,1.23,4,3.87,4A3.82,3.82,0,0,0,97.56,237.67Z"/><path class="9ce908be-eb72-4eb8-9ad6-312e89bfda61" d="M102.14,242.56a1.72,1.72,0,0,1,1.78-1.73,1.58,1.58,0,0,1,1.71,1.61,1.73,1.73,0,0,1-1.79,1.73A1.59,1.59,0,0,1,102.14,242.56Z"/><path class="9ce908be-eb72-4eb8-9ad6-312e89bfda61" d="M118.53,241.88V244H107.79l0-1.74,5.33-4c1.67-1.23,2.11-1.94,2.11-2.8,0-1.2-.9-2.06-2.74-2.06a6.82,6.82,0,0,0-4,1.43h0l-.74-2.14a9.49,9.49,0,0,1,4.9-1.38c3.23,0,5.27,1.52,5.27,4,0,1.31-.62,2.8-3,4.29L111,242.12Z"/><path class="9ce908be-eb72-4eb8-9ad6-312e89bfda61" d="M133.3,237.71a6.19,6.19,0,0,1-6.48,6.51,6.09,6.09,0,0,1-6.39-6.41,6.2,6.2,0,0,1,6.46-6.53A6.11,6.11,0,0,1,133.3,237.71Zm-2.5,0a3.68,3.68,0,0,0-3.88-4,3.81,3.81,0,0,0-4,4.08c0,2.21,1.23,4,3.87,4A3.82,3.82,0,0,0,130.8,237.67Z"/><path class="9ce908be-eb72-4eb8-9ad6-312e89bfda61" d="M151.81,236.69l-.21,2.14-14.07-.16v-2Z"/><path class="9ce908be-eb72-4eb8-9ad6-312e89bfda61" d="M165.18,242v2h-9.72v-2h3.79v-8.46l-3.8.09v-2.08h6.35V242Z"/><path class="9ce908be-eb72-4eb8-9ad6-312e89bfda61" d="M179.28,237.71a6.19,6.19,0,0,1-6.48,6.51,6.09,6.09,0,0,1-6.39-6.41,6.2,6.2,0,0,1,6.46-6.53A6.11,6.11,0,0,1,179.28,237.71Zm-2.5,0a3.68,3.68,0,0,0-3.88-4,3.81,3.81,0,0,0-4,4.08c0,2.21,1.23,4,3.87,4A3.82,3.82,0,0,0,176.77,237.67Z"/><path class="9ce908be-eb72-4eb8-9ad6-312e89bfda61" d="M181.35,242.56a1.72,1.72,0,0,1,1.78-1.73,1.58,1.58,0,0,1,1.71,1.61,1.73,1.73,0,0,1-1.79,1.73A1.59,1.59,0,0,1,181.35,242.56Z"/><path class="9ce908be-eb72-4eb8-9ad6-312e89bfda61" d="M197.74,241.88V244H187l0-1.74,5.33-4c1.67-1.23,2.11-1.94,2.11-2.8,0-1.2-.9-2.06-2.74-2.06a6.82,6.82,0,0,0-4,1.43h0l-.74-2.14a9.49,9.49,0,0,1,4.9-1.38c3.23,0,5.27,1.52,5.27,4,0,1.31-.62,2.8-3,4.29l-3.84,2.55Z"/><path class="9ce908be-eb72-4eb8-9ad6-312e89bfda61" d="M210.45,241.88V244H199.71l0-1.74,5.33-4c1.67-1.23,2.11-1.94,2.11-2.8,0-1.2-.9-2.06-2.74-2.06a6.82,6.82,0,0,0-4,1.43h0l-.74-2.14a9.49,9.49,0,0,1,4.9-1.38c3.23,0,5.27,1.52,5.27,4,0,1.31-.62,2.8-3,4.29L203,242.12Z"/><polygon class="9ce908be-eb72-4eb8-9ad6-312e89bfda61" points="47.47 57.75 57.49 57.75 68.71 57.75 78.73 57.75 63.19 28.02 47.47 57.75"/><polygon class="9ce908be-eb72-4eb8-9ad6-312e89bfda61" points="37.36 49.9 48.84 28.02 21.68 28.02 21.68 35.15 33.75 35.15 21.7 57.75 47.46 57.75 47.62 49.9 37.36 49.9"/><path class="9ce908be-eb72-4eb8-9ad6-312e89bfda61" d="M189,37c.08-6.55-5.16-8.35-10.79-8.35H167.59V57.78h8.73V44.54l6.55,13.22h7.43l-6.76-13.6C186.06,43.41,189,39.93,189,37Zm-10.91,2c-.38,0-.8,0-1.18,0h-.59V35.69h1.89c.63,0,2.77-.08,2.77,1.43S179,38.92,178.08,39Z"/><path class="9ce908be-eb72-4eb8-9ad6-312e89bfda61" d="M99.92,38.34H94.34c-.88-.3-1.09-1.78.17-1.78h14.73v-8H94.5c-5.92,0-8.77,3.85-8.77,8.55s3,9.57,8.77,9.57h5.41c1.09,0,1.64.47,1.64.93,0,.63-.59,1.27-1.72,1.31H85.9v8.81H100c6.8-.13,10.32-5.17,10.32-10.12S108.73,38.34,99.92,38.34Z"/><polygon class="9ce908be-eb72-4eb8-9ad6-312e89bfda61" points="126.88 38.89 120.55 38.89 120.55 28.4 111.02 28.4 111.02 57.78 120.55 57.78 120.55 47.28 126.88 47.28 126.88 57.78 136.41 57.78 136.41 28.4 126.88 28.4 126.88 38.89"/><polygon class="9ce908be-eb72-4eb8-9ad6-312e89bfda61" points="136.56 57.78 146.47 57.78 157.54 57.78 167.45 57.78 152.09 28.4 136.56 57.78"/><polygon class="9ce908be-eb72-4eb8-9ad6-312e89bfda61" points="199.75 47.31 210.32 47.31 210.32 38.94 199.75 38.94 199.75 36.88 210.32 36.88 210.32 28.51 191.31 28.47 191.31 57.78 210.41 57.78 210.41 49.49 199.75 49.49 199.75 47.31"/><path class="9ce908be-eb72-4eb8-9ad6-312e89bfda61" d="M67.52,64.51A56.37,56.37,0,0,1,65.16,74H67.4a49,49,0,0,0,2.49-9.32l11.36.13A93,93,0,0,1,77.74,74h5.11V84.12h-4.6v4.31H83v9.26H78.25v3.94H83v9.13H78.25v4.14H82.8v10.86H54V112.28L49.07,122.5a24.21,24.21,0,0,1-5.75-6.13v9.39H32.59v-8.17c-1.92,2.94-5.42,5.54-10.09,8.25V112.36a60.35,60.35,0,0,0,7-6.21H22.69V95.93h5L21.61,88a20.65,20.65,0,0,0,4.73-10.34H22.69V67.45h9.9V64.51H43.9v2.94h8.62V77a47.2,47.2,0,0,0,3.64-12.45ZM34.44,93.63a40.89,40.89,0,0,1-2.68-4.53c-1.79,4.21-2.62,5.24-4,6.83h4.85v-2.3Zm1.92-2.68-1.85,2.68h5.68ZM35,77.67a13,13,0,0,1-.38,2A25.18,25.18,0,0,0,38,84.5a28.35,28.35,0,0,0,1.72-6.83ZM49.64,95.61a25.68,25.68,0,0,1-4.34-6.13,35.17,35.17,0,0,1-2,4.15h.06v2.3h9.2v10.22H45.68c3.9,3.83,6,4.92,8.3,6V95.55l-.38.38-2-4.09ZM48,77.67c-.06.45-.13,1.15-.19,1.6a24.16,24.16,0,0,0,2,3.13,34.67,34.67,0,0,0,2.36-4.73Zm16.73,6.45v4.31h3.51V84.12Zm0,13.57v3.94h3.51V97.69Zm0,13.07v4.14h3.51v-4.14Z"/><path class="9ce908be-eb72-4eb8-9ad6-312e89bfda61" d="M137.71,100h9.38V87.57h-3.64V66.3H127.24v7h5.68v1.53h-5.68v4.92h5.68v1.53h-5.68V86h5.68v1.6H122.52l3.64-4.34-2.94-1.85c1.53-1.28,2.17-1.85,3.19-2.81l-3.51-2.3,3.83-3.83a33.48,33.48,0,0,0-3.13-2.24,35.22,35.22,0,0,0,2.94-2.55l-5.17-3.58a18.36,18.36,0,0,1-3.83,2.68,72,72,0,0,0-6.64-2.87l-4.28,4.47c1.21.51,2,.83,3.77,1.66-1.92.64-3.13,1-4.21,1.21L103,64.13A50.77,50.77,0,0,1,89.25,66V87.57h-3V100H95v4h21.84c-1.28.64-6.39,2.43-6.39,2.43H86V116h24.46c0,1.53,0,1.68-1.34,1.68h-6.88l0,8.11h14.88c5,0,5-4.15,5-5.56V116h24.46V106.4H129.54a42.05,42.05,0,0,0,8.17-2.43ZM117.47,74c1.6,1.09,2.24,1.53,3,2.11a23.32,23.32,0,0,1-3.07,2c-2.62-1.28-3.58-1.66-4.34-2C115.11,75.24,116.45,74.54,117.47,74Zm-.38,11.11c.57.38,1.34.83,3.64,2.49h-9.39A59.27,59.27,0,0,0,117.09,85.14Zm-17-5.36h5.75V74.86H100.1V73.32a44.36,44.36,0,0,0,5.94-.83l2.49,4.66-1.92,2.3c1.53.7,2.43,1.15,3.51,1.66-1.09.32-2.17.7-4.28,1.15v-1H100.1Zm0,6.26h5.75v-2.3l2,3.9H100.1ZM134,96.83H98.82v-2H134Z"/><path class="9ce908be-eb72-4eb8-9ad6-312e89bfda61" d="M167.52,114.51A41.74,41.74,0,0,0,182.14,109,82.14,82.14,0,0,1,176,96.76l-.89.57-5.94-9.52a43.8,43.8,0,0,0,9.58-8.17h-7.09V85.2h-5v4A50.49,50.49,0,0,0,174.54,99l-4.66,10.66a51.88,51.88,0,0,1-3.26-4.21v20.37H156.09V106.15A62.46,62.46,0,0,1,150,118V99.9c5-6.19,4.9-13,5.22-14.7h-5.36V74.41h6.26V64.46h10.54v9.95h4.85V69h13.35V64.46H196.7V69h13.6v10.6h-7.41a29.69,29.69,0,0,0,7.59,6.69v13.5c-.83-.51-5.16-2.57-5.74-2.89a38.44,38.44,0,0,1-6.07,12c1.6,1,3.81,2.75,11.73,5l.07,11.89c-8.88-2.94-18.12-6.27-20.42-8.06-3.9,3.07-13.47,7.1-20.11,8.06Zm34.1-19.86a52.29,52.29,0,0,1-9.39-10.41l8.3-4.6H192c-2.68,4.53-10.81,13.47-13.17,15.13l7.22-3a55.38,55.38,0,0,0,4.66,9.07,27.81,27.81,0,0,0,3.45-8.75Z"/><path class="9ce908be-eb72-4eb8-9ad6-312e89bfda61" d="M31.61,143.81v1.25H21.1v-1.25h3.27v-1.64h-2.5V138h2.5v-1.42H21.3v-1.25H31.42v1.25H28.23V138h2.59v4.2H28.23v1.64ZM25.7,141v2.81h1.21V141h2.52v-1.86H26.91v-2.58h-1.2v2.58H23.23V141Z"/><path class="9ce908be-eb72-4eb8-9ad6-312e89bfda61" d="M40.77,140.07a13.93,13.93,0,0,0-1.9-1.18l.77-1a15.32,15.32,0,0,1,2,1.08Zm.91,1.63c-.38,1.24-.89,2.58-1.37,3.71L39,144.7A33.66,33.66,0,0,0,40.56,141ZM41.21,137a13.22,13.22,0,0,0-1.9-1.24l.81-1A13.6,13.6,0,0,1,42,135.93Zm8.1-2.07v10.55H48v-4.59l-.56.27a9.93,9.93,0,0,0-.59-1.6v5.58H45.55v-4.28l-.7.29a14.46,14.46,0,0,0-.51-1.82,11,11,0,0,1-1.49,6.16,4.94,4.94,0,0,0-1.18-.8,7.46,7.46,0,0,0,1.28-3.7l-.75.28a12.17,12.17,0,0,0-.71-2.75l1-.35a11.65,11.65,0,0,1,.57,1.63c0-.34,0-.66,0-1V135h1.3v3.51l.6-.23c.22.51.43,1.09.6,1.64v-4.69h1.29v3.05l.39-.17c.26.48.52,1,.75,1.56V135Z"/><path class="9ce908be-eb72-4eb8-9ad6-312e89bfda61" d="M67.18,140.87a7.06,7.06,0,0,1-1.43,2.68,6.48,6.48,0,0,0,2,.81,4.56,4.56,0,0,0-.81,1.07,6.38,6.38,0,0,1-2.09-1,7.67,7.67,0,0,1-2,1.11,5.09,5.09,0,0,0-.68-1v1H60.84v-1l-3.74.39-.1-1.18,1-.08v-3.52H57.1v-1.09H67.41v1.09H62.12v4.27a5.79,5.79,0,0,0,1.75-.88,7.07,7.07,0,0,1-1.11-1.78l.42-.12h-.7v-1.06h3.62l.22,0Zm-7.41-2.17H58.46v-3.63h7.63v3.63H64.69V136H59.78Zm-.55,1.45v.48h1.6v-.48Zm0,1.89h1.6v-.46h-1.6Zm0,1.51,1.6-.15V143h-1.6Zm5-6.32H60.14v-.8h4.12Zm-4.11,1.24v-.8h4.11v.8ZM64,141.65a4.5,4.5,0,0,0,.79,1.09,4.36,4.36,0,0,0,.75-1.09Z"/><path class="9ce908be-eb72-4eb8-9ad6-312e89bfda61" d="M81.29,139.24a7.75,7.75,0,0,0,4.34,5,5.55,5.55,0,0,0-1,1.3,8.66,8.66,0,0,1-4.35-4.92,8,8,0,0,1-4.34,4.93,4.09,4.09,0,0,0-1-1.17,7,7,0,0,0,4.21-5.11h-4v-1.43h4.23c.12-1.09.1-2.15.12-3.1H81c0,1,0,2-.14,3.1h4.56v1.43Z"/><path class="9ce908be-eb72-4eb8-9ad6-312e89bfda61" d="M95.18,138v-.45a12.26,12.26,0,0,1-1.24.84h4.9V142h-4c0,.12,0,.24-.06.36h4.36v3.1H97.91v-.31H95.76v.36H94.61v-2.4a7.4,7.4,0,0,1-.74,2,6.34,6.34,0,0,0-1.21-.53,9.72,9.72,0,0,0,1-4.91V138.5l-.27.14a7.36,7.36,0,0,0-.72-1.32,8,8,0,0,0,3.45-2.64l1.27.5-.21.29c.86.5,1.82,1.07,2.36,1.45l-.71,1.16c-.31-.26-.77-.56-1.27-.88V138Zm2.4,3.08v-.48H94.93c0,.15,0,.31,0,.48Zm-2.63-1.74v.45h2.63v-.45Zm2.54-2.15-1.1-.7c-.24.23-.5.48-.75.7Zm-1.73,6.14v.82h2.15v-.82Zm5.3-.92h-1.3v-6.48h1.3Zm2.12-7.64v9.15c0,.74-.14,1.11-.57,1.34a4.4,4.4,0,0,1-2,.28,5.66,5.66,0,0,0-.41-1.38h1.38c.19,0,.27-.06.27-.26v-9.14Z"/><path class="9ce908be-eb72-4eb8-9ad6-312e89bfda61" d="M112.74,142.28a11.08,11.08,0,0,1-1.17,2.38,8.82,8.82,0,0,0-.91-.63,8.28,8.28,0,0,0,1-2.05Zm1.63-.67v3.85H113V141.6h-2.16v-1.16H113v-.89H110.8v-1.14h1.13a7,7,0,0,0-.34-1.21l1-.23H111v-1.13h2c-.1-.31-.23-.64-.35-.92l1.38-.34c.17.38.38.86.52,1.25h1.66V137h-1.45l.94.19c-.17.44-.35.89-.52,1.25h1.21v1.14h-2v.89h1.8v1.16ZM112.7,137a5.72,5.72,0,0,1,.38,1.21l-.84.23h1.67a13.2,13.2,0,0,0,.5-1.44Zm8.83,2.82h-1.08v5.7H119.1v-5.7H118v.14c0,1.71-.15,4.1-1.14,5.58a5.16,5.16,0,0,0-1.07-.82,4.55,4.55,0,0,0,.52-1.13l-.82.51a14,14,0,0,0-.91-1.74l.91-.49a11.46,11.46,0,0,1,.87,1.52,12.55,12.55,0,0,0,.36-3.44V135.8a16.48,16.48,0,0,0,3.52-1l1.06,1a18,18,0,0,1-3.3.87v1.82h3.51Z"/><path class="9ce908be-eb72-4eb8-9ad6-312e89bfda61" d="M138.83,138.09a13.36,13.36,0,0,1-1.25,4.32,5.36,5.36,0,0,0,2.05,1.93,5.39,5.39,0,0,0-1,1.21,6.21,6.21,0,0,1-2-1.86,7.71,7.71,0,0,1-2.46,1.9,5.8,5.8,0,0,0-.79-1.25,5.83,5.83,0,0,0,2.5-2,14.64,14.64,0,0,1-.79-2.34c-.17.28-.35.56-.53.8a8.18,8.18,0,0,0-.77-.72,11.57,11.57,0,0,1-1.6,1.5v.29l2-.17v1.17l-2,.2v1.15c0,.6-.1.92-.51,1.1a4.27,4.27,0,0,1-1.68.2,4,4,0,0,0-.39-1.17h1.1c.15,0,.2,0,.2-.16v-1l-2.21.22-.14-1.23L131,142v-.64a8.54,8.54,0,0,0,1-.81h-1.21a10.76,10.76,0,0,1-1.3.84,8.46,8.46,0,0,0-.92-1,9.93,9.93,0,0,0,2.21-1.45h-2.07v-1.18h1.76v-.78h-1.32v-1.16h1.32V134.7h1.28v1.06h1v.74a10.15,10.15,0,0,0,.75-1.51l1.27.37a12.51,12.51,0,0,1-1.28,2.33h.82v.92a14.16,14.16,0,0,0,1.13-3.91l1.4.22c-.12.64-.26,1.29-.42,1.89h3.09v1.28Zm-7.12-.39h.19a7.55,7.55,0,0,0,.58-.78h-.77Zm1.9,2a6,6,0,0,0,.56-.85h-1.63a6.62,6.62,0,0,1-.55.59h1l.24-.07Zm2.46-1.64a14.39,14.39,0,0,0,.71,2.7,13.08,13.08,0,0,0,.62-2.7Z"/><path class="9ce908be-eb72-4eb8-9ad6-312e89bfda61" d="M157.18,136.89h-2.41a14.3,14.3,0,0,1,2,1.8l-1.06.66h.49v4.71c0,.74-.2,1-.75,1.22a10.5,10.5,0,0,1-2.52.15,4.31,4.31,0,0,0-.33-1.17c.64,0,1.59,0,1.79,0s.3-.07.3-.26v-.84c-1.71.37-3.42.72-4.77,1l-.41-1.22c1-.13,2.4-.34,3.91-.57a18.12,18.12,0,0,0-3.65-.94l.41-.82a17.07,17.07,0,0,1,4,1l-.36.75.91-.14v-1.73h-5.19v.72a7,7,0,0,1-1.27,4.46,5,5,0,0,0-1.14-.81,5.4,5.4,0,0,0,1-3.67v-1.83h7.33c-.15-.19-.35-.39-.57-.62-5.66.22-6.35.23-6.85.41-.07-.27-.28-.91-.42-1.27a2.77,2.77,0,0,0,1-.57,6.13,6.13,0,0,0,.52-.42h-2.34v-1.21h3.64a11.21,11.21,0,0,0,1-1.13l1.4.53q-.26.3-.56.59h4.81Zm-3.38.81-.7-.53.46-.28h-2.47c-.39.34-.78.64-1.16.92Z"/><path class="9ce908be-eb72-4eb8-9ad6-312e89bfda61" d="M167.19,138.85v6.69h-1.35v-6.69h-1.27V137.6h1.27v-2.89h1.35v2.89h1.13v1.25Zm8.22,4.17H173.9v1.22c0,.6-.1.92-.55,1.1a5.2,5.2,0,0,1-1.82.19,4.81,4.81,0,0,0-.37-1.16c.53,0,1.13,0,1.29,0s.22,0,.22-.17V143h-2.26c.43.29.86.62,1.14.82l-.86.93c-.38-.36-1.16-.94-1.72-1.35l.41-.41h-1.45v-1.1h4.75v-.42h.42a6.65,6.65,0,0,0-.35-.77h.71c.12,0,.15,0,.15-.14v-.17h-1.25v.86h-1.27v-.86h-1.27v1h-1.16v-4.17h2.43V137h-2.77V135.9h2.77v-1.2h1.27v1.2h1.25l-.88-.48.63-.74c.52.23,1.25.6,1.65.81l-.31.41h.57V137h-2.9v.34h2.46v3.32c0,.49-.09.67-.42.79a2,2,0,0,1-.49.12v.38h1.5Zm-5.6-4.83v.38h1.27v-.38Zm1.27,1.5v-.36h-1.27v.36Zm1.27-1.5v.38h1.25v-.38Zm1.25,1.5v-.36h-1.25v.36Z"/><path class="9ce908be-eb72-4eb8-9ad6-312e89bfda61" d="M191.72,144.4c.36,0,.43-.12.49-.87a3.43,3.43,0,0,0,1.14.42c-.13,1.22-.49,1.52-1.49,1.52h-1.7c-1.39,0-1.73-.32-1.73-1.37v-.5h-1.27c-.35,1.14-1.25,1.71-4.09,2a3.31,3.31,0,0,0-.6-1.08c2.24-.13,3-.36,3.29-.92h-1.47v-3.89h7.32v3.89h-1.85v.48c0,.3.09.32.57.32Zm-3.82-5h-4.83V135h4.76v.79h-1.66v.41h1.44v.22a4.1,4.1,0,0,0,1.3-1.73l1.18.17-.17.41h3.25v.86h-3.74c-.07.1-.14.21-.22.31h3.4v.77H189v-.56a5,5,0,0,1-.67.64,3.64,3.64,0,0,0-.75-.7v1.53h-1.44v.46h1.73Zm-3.67-3.58v.41h.86v-.41Zm2.22,1.13h-2.22v.48h2.22Zm-2.22,1.67h.86v-.46h-.86Zm1.36,2.18h4.67v-.37h-4.67Zm0,1h4.67v-.37h-4.67Zm0,1.06h4.67v-.38h-4.67Zm2.77-5.36H193v1.87h-4.63Zm.91,1.23h.45v-.6h-.45Zm1.14,0h.46v-.6h-.46Zm1.15,0H192v-.6h-.49Z"/><path class="9ce908be-eb72-4eb8-9ad6-312e89bfda61" d="M206.9,135l-.17.22a11.16,11.16,0,0,0,4.82,2.09,4.76,4.76,0,0,0-.87,1.06l-.72-.21v3h-8.07v-2.93c-.24.08-.49.16-.72.22a7.4,7.4,0,0,0-.74-1.07,9.63,9.63,0,0,0,5.26-2.81Zm2.63,3a12.9,12.9,0,0,1-1.58-.71v.3h-4.07v-.23a13.94,13.94,0,0,1-1.4.64Zm-7,3.53h6.83v3.92h-1.42v-.28H203.9v.31h-1.36Zm1.31-1.22a4.59,4.59,0,0,0-.39-1.21l.89-.26H203v1.46Zm0,2.12v.46h4.05v-.46Zm4.05,1.83v-.46H203.9v.46Zm-2.63-5.42h-.91a5.25,5.25,0,0,1,.46,1.23l-.74.23h1.18Zm1.67-2.15a11.3,11.3,0,0,1-1-.75c-.3.26-.64.51-1,.75Zm-.56,2.15v1.46h1.08l-.7-.2a9.11,9.11,0,0,0,.45-1.27Zm2.3,0h-1.21l.91.22c-.23.46-.45.92-.64,1.24h.94Z"/><path class="9ce908be-eb72-4eb8-9ad6-312e89bfda61" d="M26,156.52v1H21l0-.79,3.67-5.13-3.54.07v-1h4.77l.06.84-3.62,5.08Z"/><path class="9ce908be-eb72-4eb8-9ad6-312e89bfda61" d="M31.77,157.46v0l-.93.12a1.39,1.39,0,0,1-.24-.75h0a2.07,2.07,0,0,1-1.65.75c-.92,0-1.71-.45-1.71-1.43s.93-1.82,3.11-1.82h.27c0-.94-.5-1.27-1.36-1.27a2.51,2.51,0,0,0-1.52.49h0l-.29-.83a3.49,3.49,0,0,1,2-.53c1.52,0,2.22.6,2.22,2.07v1.52A4.92,4.92,0,0,0,31.77,157.46Zm-1.18-2.15v-.24h-.3c-1.54,0-2,.46-2,1s.39.72.91.72A1.36,1.36,0,0,0,30.59,155.31Z"/><path class="9ce908be-eb72-4eb8-9ad6-312e89bfda61" d="M36.67,153.56h0a2.34,2.34,0,0,0-1.45-.53c-.62,0-1,.27-1,.65,0,1.1,2.87.46,2.87,2.36,0,1.1-.95,1.55-2.12,1.55a3.88,3.88,0,0,1-2-.53l.3-.83h0a2.45,2.45,0,0,0,1.62.55c.69,0,1.09-.23,1.09-.67,0-1.16-2.85-.53-2.85-2.39,0-.93.73-1.52,2-1.52a3.2,3.2,0,0,1,1.79.51Z"/><path class="9ce908be-eb72-4eb8-9ad6-312e89bfda61" d="M43.22,154.17v3.34H42.15v-3.09c0-.87-.33-1.31-1-1.31s-1.47.46-1.47,1.72v2.68H38.58v-7.17l1.07-.16V153h0a2.2,2.2,0,0,1,1.76-.81C42.56,152.22,43.22,152.89,43.22,154.17Z"/><path class="9ce908be-eb72-4eb8-9ad6-312e89bfda61" d="M49.2,157.46v0l-.93.12a1.39,1.39,0,0,1-.24-.75h0a2.07,2.07,0,0,1-1.65.75c-.92,0-1.71-.45-1.71-1.43s.93-1.82,3.11-1.82H48c0-.94-.5-1.27-1.36-1.27a2.51,2.51,0,0,0-1.52.49h0l-.29-.83a3.49,3.49,0,0,1,2-.53c1.52,0,2.22.6,2.22,2.07v1.52A4.92,4.92,0,0,0,49.2,157.46ZM48,155.31v-.24h-.3c-1.54,0-2,.46-2,1s.39.72.91.72A1.36,1.36,0,0,0,48,155.31Z"/><path class="9ce908be-eb72-4eb8-9ad6-312e89bfda61" d="M53.8,153.21c-1.29,0-1.94.5-1.94,1.78v2.52H50.79v-4.21l-.08-.9.93-.14.18.86h0a2.17,2.17,0,0,1,1.89-.9Z"/><path class="9ce908be-eb72-4eb8-9ad6-312e89bfda61" d="M59.1,155.18H55.7a1.43,1.43,0,0,0,1.59,1.57,2.24,2.24,0,0,0,1.56-.51h0l.29.84a4,4,0,0,1-2,.53,2.37,2.37,0,0,1-2.53-2.6,2.55,2.55,0,0,1,2.57-2.79c1.36,0,2,.88,2,2.24,0,.18,0,.4,0,.62Zm-.82-1A1.07,1.07,0,0,0,57.13,153c-.75,0-1.28.51-1.41,1.48l2.55-.07A1.79,1.79,0,0,0,58.28,154.16Z"/><path class="9ce908be-eb72-4eb8-9ad6-312e89bfda61" d="M67.8,156.55v1H63.27v-6.84h4.43v1l-3.32-.07v2.08l2.88-.05v1l-2.88-.05v2.13Z"/><path class="9ce908be-eb72-4eb8-9ad6-312e89bfda61" d="M74.16,157.51H72.92l-1.41-2-1.43,2H68.91v0l1.95-2.62L69,152.5v0l1.17-.18,1.35,1.94,1.31-1.92H74v0l-1.83,2.54Z"/><path class="9ce908be-eb72-4eb8-9ad6-312e89bfda61" d="M80.17,154.75c0,1.83-1,2.85-2.62,2.85a3.34,3.34,0,0,1-1.12-.18v1.85l-1.07.17v-6.15l-.08-.9.92-.14.18.78h0a2,2,0,0,1,1.68-.82C79.36,152.22,80.17,153.11,80.17,154.75Zm-1.12.12c0-1.2-.48-1.78-1.21-1.78s-1.42.53-1.42,1.73v1.65a1.71,1.71,0,0,0,1.05.27C78.52,156.74,79.05,156.15,79.05,154.87Z"/><path class="9ce908be-eb72-4eb8-9ad6-312e89bfda61" d="M81.42,154.91A2.6,2.6,0,1,1,84,157.6,2.46,2.46,0,0,1,81.42,154.91Zm4.1,0c0-1.18-.57-1.83-1.49-1.83s-1.49.65-1.5,1.83.57,1.83,1.5,1.83S85.52,156.09,85.51,154.91Z"/><path class="9ce908be-eb72-4eb8-9ad6-312e89bfda61" d="M94.08,150.38l-.28.78h0a1.23,1.23,0,0,0-.75-.23c-.67,0-1,.33-1,1.28v.19l1.61-.09-.05.91H92v4.28H90.93v-4.28H90v-.79l.95-.09v-.27a1.81,1.81,0,0,1,2-2A2.31,2.31,0,0,1,94.08,150.38Z"/><path class="9ce908be-eb72-4eb8-9ad6-312e89bfda61" d="M94.45,154.91A2.6,2.6,0,1,1,97,157.6,2.46,2.46,0,0,1,94.45,154.91Zm4.1,0c0-1.18-.57-1.83-1.49-1.83s-1.49.65-1.5,1.83.57,1.83,1.5,1.83S98.55,156.09,98.54,154.91Z"/><path class="9ce908be-eb72-4eb8-9ad6-312e89bfda61" d="M104.16,153.21c-1.29,0-1.94.5-1.94,1.78v2.52h-1.07v-4.21l-.08-.9.93-.14.18.86h0a2.17,2.17,0,0,1,1.89-.9Z"/><path class="9ce908be-eb72-4eb8-9ad6-312e89bfda61" d="M107.89,150.67H109v6.84h-1.11Z"/><path class="9ce908be-eb72-4eb8-9ad6-312e89bfda61" d="M115.56,154.17v3.34h-1.07v-3.09c0-.87-.33-1.31-1-1.31s-1.47.46-1.47,1.72v2.68h-1.07v-4.21l-.08-.9.93-.14.18.79h0a2.33,2.33,0,0,1,1.82-.83C114.89,152.22,115.56,152.89,115.56,154.17Z"/><path class="9ce908be-eb72-4eb8-9ad6-312e89bfda61" d="M122,154.17v3.34h-1.07v-3.09c0-.87-.33-1.31-1-1.31s-1.47.46-1.47,1.72v2.68h-1.07v-4.21l-.08-.9.93-.14.18.79h0a2.33,2.33,0,0,1,1.82-.83C121.29,152.22,122,152.89,122,154.17Z"/><path class="9ce908be-eb72-4eb8-9ad6-312e89bfda61" d="M123.43,154.91a2.6,2.6,0,1,1,2.6,2.69A2.46,2.46,0,0,1,123.43,154.91Zm4.1,0c0-1.18-.57-1.83-1.49-1.83s-1.49.65-1.5,1.83.57,1.83,1.5,1.83S127.53,156.09,127.52,154.91Z"/><path class="9ce908be-eb72-4eb8-9ad6-312e89bfda61" d="M134.67,152.31l-2.18,5.2h-1l-2.16-5.11,1.16-.16,1,2.72c.16.48.33,1,.46,1.5h.09c.12-.43.26-.93.47-1.5l1-2.65Z"/><path class="9ce908be-eb72-4eb8-9ad6-312e89bfda61" d="M140.1,157.46v0l-.93.12a1.39,1.39,0,0,1-.24-.75h0a2.07,2.07,0,0,1-1.65.75c-.92,0-1.71-.45-1.71-1.43s.93-1.82,3.11-1.82h.27c0-.94-.5-1.27-1.36-1.27a2.51,2.51,0,0,0-1.52.49h0l-.29-.83a3.49,3.49,0,0,1,2-.53c1.52,0,2.22.6,2.22,2.07v1.52A4.92,4.92,0,0,0,140.1,157.46Zm-1.18-2.15v-.24h-.3c-1.54,0-2,.46-2,1s.39.72.91.72A1.36,1.36,0,0,0,138.92,155.31Z"/><path class="9ce908be-eb72-4eb8-9ad6-312e89bfda61" d="M144.82,157.25a2.45,2.45,0,0,1-1.28.36,1.36,1.36,0,0,1-1.48-1.54v-2.85h-1v-.78l1-.09.08-1.2,1-.17v1.42l1.57-.09-.05.9h-1.52V156c0,.51.21.75.65.75a1.41,1.41,0,0,0,.77-.25h0Z"/><path class="9ce908be-eb72-4eb8-9ad6-312e89bfda61" d="M145.87,150.87a.66.66,0,0,1,.74-.63c.42,0,.7.24.7.59a.67.67,0,0,1-.73.64C146.14,151.46,145.87,151.22,145.87,150.87Zm.16,1.61,1.07-.17v5.2H146Z"/><path class="9ce908be-eb72-4eb8-9ad6-312e89bfda61" d="M153.61,152.31l-2.18,5.2h-1l-2.16-5.11,1.16-.16,1,2.72c.16.48.33,1,.46,1.5H151c.12-.43.26-.93.47-1.5l1-2.65Z"/><path class="9ce908be-eb72-4eb8-9ad6-312e89bfda61" d="M158.74,155.18h-3.4a1.43,1.43,0,0,0,1.59,1.57,2.24,2.24,0,0,0,1.56-.51h0l.29.84a4,4,0,0,1-2,.53,2.37,2.37,0,0,1-2.53-2.6,2.55,2.55,0,0,1,2.57-2.79c1.36,0,2,.88,2,2.24,0,.18,0,.4,0,.62Zm-.82-1a1.07,1.07,0,0,0-1.15-1.14c-.75,0-1.28.51-1.41,1.48l2.55-.07A1.79,1.79,0,0,0,157.92,154.16Z"/><path class="9ce908be-eb72-4eb8-9ad6-312e89bfda61" d="M167.45,156.55v1h-4.53v-6.84h4.43v1l-3.32-.07v2.08l2.88-.05v1l-2.88-.05v2.13Z"/><path class="9ce908be-eb72-4eb8-9ad6-312e89bfda61" d="M173.59,157.46v0l-1,.12a1.79,1.79,0,0,1-.27-.81h0a2.05,2.05,0,0,1-1.69.81c-1.21,0-2-.92-2-2.55a2.53,2.53,0,0,1,2.64-2.84,3.19,3.19,0,0,1,1.09.18v-2.07l1.07-.16v5.63A4.91,4.91,0,0,0,173.59,157.46Zm-1.25-2.35v-1.69a1.6,1.6,0,0,0-1.07-.34c-.94,0-1.56.61-1.56,1.91,0,1.13.47,1.74,1.23,1.74S172.3,156.27,172.33,155.11Z"/><path class="9ce908be-eb72-4eb8-9ad6-312e89bfda61" d="M179.88,157.46v0l-1,.12a1.57,1.57,0,0,1-.26-.75h0a2.21,2.21,0,0,1-1.73.75c-1,0-1.73-.64-1.73-2v-3.28l1.07-.15v3.2c0,.94.39,1.3,1,1.3a1.29,1.29,0,0,0,1.37-1.38v-3h1.07V156A4.59,4.59,0,0,0,179.88,157.46Z"/><path class="9ce908be-eb72-4eb8-9ad6-312e89bfda61" d="M182.31,155c0,1.17.53,1.75,1.49,1.75a2.3,2.3,0,0,0,1.44-.49h0l.3.85a3.75,3.75,0,0,1-1.89.53A2.39,2.39,0,0,1,181.2,155a2.5,2.5,0,0,1,2.62-2.74,2.77,2.77,0,0,1,1.68.49l-.3.84h0a2.25,2.25,0,0,0-1.34-.45C182.92,153.1,182.31,153.7,182.31,155Z"/><path class="9ce908be-eb72-4eb8-9ad6-312e89bfda61" d="M191.16,157.46v0l-.93.12a1.39,1.39,0,0,1-.24-.75h0a2.07,2.07,0,0,1-1.65.75c-.92,0-1.71-.45-1.71-1.43s.93-1.82,3.11-1.82H190c0-.94-.5-1.27-1.36-1.27a2.51,2.51,0,0,0-1.52.49h0l-.29-.83a3.49,3.49,0,0,1,2-.53c1.52,0,2.22.6,2.22,2.07v1.52A4.92,4.92,0,0,0,191.16,157.46ZM190,155.31v-.24h-.3c-1.54,0-2,.46-2,1s.39.72.91.72A1.36,1.36,0,0,0,190,155.31Z"/><path class="9ce908be-eb72-4eb8-9ad6-312e89bfda61" d="M195.88,157.25a2.45,2.45,0,0,1-1.28.36,1.36,1.36,0,0,1-1.48-1.54v-2.85h-1v-.78l1-.09.08-1.2,1-.17v1.42l1.57-.09-.05.9h-1.52V156c0,.51.21.75.65.75a1.41,1.41,0,0,0,.77-.25h0Z"/><path class="9ce908be-eb72-4eb8-9ad6-312e89bfda61" d="M196.93,150.87a.66.66,0,0,1,.74-.63c.42,0,.7.24.7.59a.67.67,0,0,1-.73.64C197.21,151.46,196.93,151.22,196.93,150.87Zm.16,1.61,1.07-.17v5.2h-1.07Z"/><path class="9ce908be-eb72-4eb8-9ad6-312e89bfda61" d="M199.65,154.91a2.6,2.6,0,1,1,2.6,2.69A2.46,2.46,0,0,1,199.65,154.91Zm4.1,0c0-1.18-.57-1.83-1.49-1.83s-1.49.65-1.5,1.83.57,1.83,1.5,1.83S203.75,156.09,203.74,154.91Z"/><path class="9ce908be-eb72-4eb8-9ad6-312e89bfda61" d="M211,154.17v3.34h-1.07v-3.09c0-.87-.33-1.31-1-1.31s-1.47.46-1.47,1.72v2.68h-1.07v-4.21l-.08-.9.93-.14.18.79h0a2.33,2.33,0,0,1,1.82-.83C210.32,152.22,211,152.89,211,154.17Z"/><path class="9ce908be-eb72-4eb8-9ad6-312e89bfda61" d="M31.42,253.45v.85H26.93v.38h3.55v.8H22.09v-.8h3.45v-.38H21.14v-.85h4.39v-.58h1.39v.58Zm-4.49,9.09h4.42v.93H21.23v-.93h4.31v-.37H22.35v-.81h3.18V261a11.84,11.84,0,0,0-2.59.16c0-.19-.19-.62-.28-.86a2.71,2.71,0,0,0,.6-.15,6.6,6.6,0,0,0,.79-.34H22.48v-.2H21.27v-1.73h10v1.73H30v-.87H22.5v.34h7.43v.73h-.82a11,11,0,0,1,1.29.89l-.75.63h.68v.81h-3.4Zm3.19-6.72v1.75H22.5v-1.75Zm-1.36.67h-5v.41h5Zm-3.2,3.34c-.27.16-.52.31-.78.44l3.18,0-.63-.35.06,0Zm1.37,1.52h2.6c-.14-.13-.32-.28-.52-.43l-2.08.06Z"/><path class="9ce908be-eb72-4eb8-9ad6-312e89bfda61" d="M51.57,260.37l.24,1.23c-1.64.71-3.42,1.42-4.79,2l-.61-1.42h0c.79-.24,1.9-.63,3.09-1V257H46.8v-1.38h2.68v-2.55h1.44v7.55ZM55.35,262c.43,0,.5-.55.57-2.62a4.13,4.13,0,0,0,1.32.65c-.13,2.4-.45,3.32-1.76,3.32H54.1c-1.28,0-1.66-.49-1.66-2.09v-8.21h1.44v2.53h3V257h-3v4.32c0,.63.06.73.44.73Z"/><path class="9ce908be-eb72-4eb8-9ad6-312e89bfda61" d="M78.24,260.6v.58h3.87v1.14H78.24v1.39H76.87v-1.39H73v-1.14h3.85v-.58H72.35v-1.2h4.53v-2.62H72.64v-1.13h9.93v1.13H78.24v2.62h4.64v1.2Zm-3.37-5.86H72.42v-1.21h2.46v-.65h1.35v.65h1.18v1.21H76.22v.65H74.88Zm.48,2.25v.5h1.07v1.16H75.35v.56H74.08v-.56H72.62v-1.16h1.45V257Zm3.54-2.25H77.78v-1.21h1.11v-.65h1.35v.65h2.52v1.21H80.24v.65H78.89Zm.93,4.47v-.62H78.7v-1.16h1.13V257H81.1v.44h1.39v1.16H81.1v.62Z"/><path class="9ce908be-eb72-4eb8-9ad6-312e89bfda61" d="M108,255.32v8.37h-1.45v-.82h-8v-7.5H100v6.08h2.54V253H104v8.5h2.58v-6.13Z"/><path class="9ce908be-eb72-4eb8-9ad6-312e89bfda61" d="M132.45,256.17a12.19,12.19,0,0,1-2.39,4.16,11.25,11.25,0,0,0,4.39,2,6.38,6.38,0,0,0-.93,1.29,11.61,11.61,0,0,1-4.54-2.28,12.87,12.87,0,0,1-4.7,2.34,7,7,0,0,0-.84-1.29,11.92,11.92,0,0,0,4.52-2.05,13,13,0,0,1-2.47-4.18h-1.82v-1.35h4.9a8.87,8.87,0,0,0-.65-1.64l1.47-.43a9.9,9.9,0,0,1,.79,1.75l-1,.31h5v1.35Zm-5.54,0a10,10,0,0,0,2.09,3.22,9.36,9.36,0,0,0,1.89-3.22Z"/><path class="9ce908be-eb72-4eb8-9ad6-312e89bfda61" d="M151.59,256.13v-.45a12.26,12.26,0,0,1-1.24.84h4.9v3.65h-4c0,.12,0,.24-.06.36h4.36v3.1h-1.21v-.31h-2.15v.36H151v-2.4a7.4,7.4,0,0,1-.74,2,6.34,6.34,0,0,0-1.21-.53,9.72,9.72,0,0,0,1-4.91v-1.17l-.27.14a7.36,7.36,0,0,0-.72-1.32,8,8,0,0,0,3.45-2.64l1.27.5-.21.29c.86.5,1.82,1.07,2.36,1.45l-.71,1.16c-.31-.26-.77-.56-1.27-.88v.75Zm2.4,3.08v-.48h-2.66c0,.15,0,.31,0,.48Zm-2.63-1.74v.45H154v-.45Zm2.54-2.15-1.1-.7c-.24.23-.5.48-.75.7Zm-1.73,6.14v.82h2.15v-.82Zm5.3-.92h-1.3v-6.48h1.3Zm2.12-7.64v9.15c0,.74-.14,1.11-.57,1.34a4.4,4.4,0,0,1-2,.28,5.66,5.66,0,0,0-.41-1.38H158c.19,0,.27-.06.27-.26v-9.14Z"/><path class="9ce908be-eb72-4eb8-9ad6-312e89bfda61" d="M185.2,253.31v10.41h-1.35v-.42h-7.26v.42h-1.3V253.31Zm-1.35,8.75v-7.51h-7.26v7.51Zm-3.13-1.57a4,4,0,0,0,0,.84,12.52,12.52,0,0,0-2.51.72,2.19,2.19,0,0,0-.31-.71.61.61,0,0,0,.38-.65v-.42l-.92.31a7.77,7.77,0,0,0-.66-.77,10.18,10.18,0,0,0,2.21-.7h-1.32v-1.66h5.35v1.66h-2.5a5.72,5.72,0,0,1-1.17.72v1Zm2.73-3.35H177v-.77h2.59v-.45h-2v-.74h2v-.49h1.25v.49H183v.74h-2.14v.45h2.61Zm-4.71,1.39h3v-.48h-3Zm4.84,1.25a7.67,7.67,0,0,1-1,.62,11.92,11.92,0,0,1,1,.79l-.88.52a20.09,20.09,0,0,0-2.77-2l.84-.46,1.08.68a9.18,9.18,0,0,0,.88-.66Z"/><path class="9ce908be-eb72-4eb8-9ad6-312e89bfda61" d="M208.9,262a13.75,13.75,0,0,0,2.14-.15c0,.34.13,1,.2,1.29a13.33,13.33,0,0,1-2.4.13h-4.57c-2,0-3-.63-3-2.76v-6h-.46v-1.22h9.87v1.22h-8v6.13c0,1,.34,1.4,1.53,1.4Zm-5.77-3.73h3.2v3.12h-3.2Zm1.11,2.19h.91v-1.27h-.91Zm4.63-2.7h-4.56V255h4.56Zm-1.37-1.86h-1.9v1h1.9Zm2.61,5.49h-3.27V258.3h3.27Zm-1.2-2.19H208v1.27h.94Z"/><path class="9ce908be-eb72-4eb8-9ad6-312e89bfda61" d="M26.12,269.8l-2.15,0v5.91H22.85v-5.92l-2.14,0v-.89h5.41Z"/><path class="9ce908be-eb72-4eb8-9ad6-312e89bfda61" d="M30.35,273.85l-2.79,0-.7,1.87H25.74l2.67-6.84h1.13l2.67,6.84H31Zm-2.5-.88h2.2L29.34,271c-.16-.42-.27-.78-.36-1.13h0a11.67,11.67,0,0,1-.36,1.15Z"/><path class="9ce908be-eb72-4eb8-9ad6-312e89bfda61" d="M33.26,268.85h1.11v6.84H33.26Z"/><path class="9ce908be-eb72-4eb8-9ad6-312e89bfda61" d="M41.24,271.06c0,1.59-1.15,2.46-3.13,2.46a8,8,0,0,1-.86,0v2.21H36.14v-6.8a11.4,11.4,0,0,1,1.68-.14C40.29,268.74,41.24,269.62,41.24,271.06Zm-1.14.06c0-1.12-.73-1.5-2.29-1.5l-.57,0v3a7,7,0,0,0,.81.05C39.45,272.65,40.1,272.17,40.1,271.11Z"/><path class="9ce908be-eb72-4eb8-9ad6-312e89bfda61" d="M46.94,274.72v1H42.41v-6.84h4.43v1l-3.32-.07v2.08l2.88-.05v1l-2.88-.05v2.13Z"/><path class="9ce908be-eb72-4eb8-9ad6-312e89bfda61" d="M48.28,268.85h1.11v6.84H48.28Z"/><path class="9ce908be-eb72-4eb8-9ad6-312e89bfda61" d="M54.44,272a1,1,0,1,1-1-1A1,1,0,0,1,54.44,272Z"/><path class="9ce908be-eb72-4eb8-9ad6-312e89bfda61" d="M63,268.85v6.84H61.93v-3l-3.43,0v3H57.39v-6.84H58.5v2.95l3.43,0v-2.91Z"/><path class="9ce908be-eb72-4eb8-9ad6-312e89bfda61" d="M70.34,268.85v4.08a2.79,2.79,0,1,1-5.57,0v-4.08h1.11v4.08c0,1.08.4,1.85,1.65,1.85s1.7-.77,1.7-1.85v-4.08Z"/><path class="9ce908be-eb72-4eb8-9ad6-312e89bfda61" d="M75.6,273.85l-2.79,0-.7,1.87H71l2.67-6.84h1.13l2.67,6.84H76.3ZM73.1,273h2.2L74.59,271c-.16-.42-.27-.78-.36-1.13h0a11.67,11.67,0,0,1-.36,1.15Z"/><path class="9ce908be-eb72-4eb8-9ad6-312e89bfda61" d="M82.46,270.21a2.76,2.76,0,0,0-1.62-.52c-.88,0-1.34.33-1.33.89,0,1.5,3.47.86,3.47,3.2,0,1.24-1,2-2.54,2a4.24,4.24,0,0,1-2.24-.61l.31-1h0a2.93,2.93,0,0,0,1.91.67c.92,0,1.39-.32,1.39-.94,0-1.62-3.45-.9-3.45-3.25,0-1.17.86-1.88,2.47-1.88a3.94,3.94,0,0,1,1.94.48l-.31,1Z"/><path class="9ce908be-eb72-4eb8-9ad6-312e89bfda61" d="M90,268.85v6.84H88.87v-3l-3.43,0v3H84.33v-6.84h1.11v2.95l3.43,0v-2.91Z"/><path class="9ce908be-eb72-4eb8-9ad6-312e89bfda61" d="M95.65,273.85l-2.79,0-.7,1.87H91l2.67-6.84h1.13l2.67,6.84H96.34Zm-2.5-.88h2.2L94.64,271c-.16-.42-.27-.78-.36-1.13h0a11.67,11.67,0,0,1-.36,1.15Z"/><path class="9ce908be-eb72-4eb8-9ad6-312e89bfda61" d="M104.25,268.85v6.84h-.94l-2.53-3.39c-.48-.65-1-1.37-1.24-1.75,0,.47.05,1.37.05,2.2v2.94h-1v-6.84h.9l2.58,3.39c.5.65,1,1.39,1.25,1.77,0-.47-.06-1.39-.06-2.22v-2.94Z"/><path class="9ce908be-eb72-4eb8-9ad6-312e89bfda61" d="M114.27,274.84v.84h-4.05v-.84h1.58v-3.53l-1.59,0v-.87h2.65v4.35Z"/><path class="9ce908be-eb72-4eb8-9ad6-312e89bfda61" d="M119.57,273.1a4.34,4.34,0,0,1-4.45,4.41l-.3-.87,0,0c2,0,3.14-.94,3.51-2.28a2.61,2.61,0,0,1-1.43.4,2,2,0,0,1-2.27-2.1,2.2,2.2,0,0,1,2.43-2.23C118.68,270.39,119.57,271.43,119.57,273.1Zm-2.54.8a2.5,2.5,0,0,0,1.42-.43,3.07,3.07,0,0,0,.06-.59,1.42,1.42,0,0,0-1.46-1.6,1.21,1.21,0,0,0-1.29,1.34A1.16,1.16,0,0,0,117,273.89Z"/><path class="9ce908be-eb72-4eb8-9ad6-312e89bfda61" d="M124.55,274.84v.84H120.5v-.84h1.58v-3.53l-1.59,0v-.87h2.65v4.35Z"/><path class="9ce908be-eb72-4eb8-9ad6-312e89bfda61" d="M130.55,275.61h-1v1.51h-1v-1.51h-3.12v-.71l3.08-4.41h1.08v4.33l1,0Zm-4.14-.73,2.12,0v-3Z"/><path class="9ce908be-eb72-4eb8-9ad6-312e89bfda61" d="M137.07,272.31c0,1.55.69,2.48,2.12,2.48a2.68,2.68,0,0,0,1.7-.56h0l.33,1a4,4,0,0,1-2.15.59c-2.08,0-3.16-1.48-3.16-3.49s1.09-3.54,3.3-3.54a3.82,3.82,0,0,1,1.94.48l-.34,1h0a2.54,2.54,0,0,0-1.58-.5C137.8,269.74,137.07,270.74,137.07,272.31Z"/><path class="9ce908be-eb72-4eb8-9ad6-312e89bfda61" d="M147.71,275.66v0l-1.27.08a18.71,18.71,0,0,1-1.77-2.74H143.5v2.66h-1.11v-6.83a14.36,14.36,0,0,1,1.69-.11c2.56,0,3.41.92,3.41,2.11a2.06,2.06,0,0,1-1.67,2.06A20.34,20.34,0,0,0,147.71,275.66Zm-4.21-3.49h1.33c1,0,1.52-.44,1.52-1.26s-.61-1.3-2.28-1.3l-.57,0Z"/><path class="9ce908be-eb72-4eb8-9ad6-312e89bfda61" d="M153.43,274.72v1H148.9v-6.84h4.43v1l-3.32-.07v2.08l2.88-.05v1l-2.88-.05v2.13Z"/><path class="9ce908be-eb72-4eb8-9ad6-312e89bfda61" d="M158.89,273.85l-2.79,0-.7,1.87h-1.12l2.67-6.84h1.13l2.67,6.84h-1.16Zm-2.5-.88h2.2l-.72-1.94c-.16-.42-.27-.78-.36-1.13h0a11.67,11.67,0,0,1-.36,1.15Z"/><path class="9ce908be-eb72-4eb8-9ad6-312e89bfda61" d="M165.79,269.8l-2.15,0v5.91h-1.11v-5.92l-2.14,0v-.89h5.41Z"/><path class="9ce908be-eb72-4eb8-9ad6-312e89bfda61" d="M166.9,268.85H168v6.84H166.9Z"/><path class="9ce908be-eb72-4eb8-9ad6-312e89bfda61" d="M175.47,268.85l-2.59,6.84h-1.14L169.08,269l1.2-.19,1.51,4.16c.19.54.36,1.07.52,1.68h0c.16-.61.34-1.14.53-1.68l1.44-4.08Z"/><path class="9ce908be-eb72-4eb8-9ad6-312e89bfda61" d="M181.08,274.72v1h-4.53v-6.84H181v1l-3.32-.07v2.08l2.88-.05v1l-2.88-.05v2.13Z"/><path class="9ce908be-eb72-4eb8-9ad6-312e89bfda61" d="M192.09,271.06c0,1.59-1.15,2.46-3.13,2.46a8,8,0,0,1-.86,0v2.21H187v-6.8a11.4,11.4,0,0,1,1.68-.14C191.14,268.74,192.09,269.62,192.09,271.06Zm-1.14.06c0-1.12-.73-1.5-2.29-1.5l-.57,0v3a7,7,0,0,0,.81.05C190.3,272.65,190.95,272.17,190.95,271.11Z"/><path class="9ce908be-eb72-4eb8-9ad6-312e89bfda61" d="M196.7,273.85l-2.79,0-.7,1.87h-1.12l2.67-6.84h1.13l2.67,6.84H197.4Zm-2.5-.88h2.2l-.72-1.94c-.16-.42-.27-.78-.36-1.13h0a11.67,11.67,0,0,1-.36,1.15Z"/><path class="9ce908be-eb72-4eb8-9ad6-312e89bfda61" d="M204.94,275.66v0l-1.27.08A18.73,18.73,0,0,1,201.9,273h-1.17v2.66h-1.11v-6.83a14.36,14.36,0,0,1,1.69-.11c2.56,0,3.41.92,3.41,2.11a2.06,2.06,0,0,1-1.67,2.06A20.34,20.34,0,0,0,204.94,275.66Zm-4.21-3.49h1.33c1,0,1.53-.44,1.53-1.26s-.61-1.3-2.28-1.3l-.57,0Z"/><path class="9ce908be-eb72-4eb8-9ad6-312e89bfda61" d="M211.74,275.66v0l-1.39.1a18.14,18.14,0,0,1-2.82-3.18h-.29v3.07h-1.11v-6.84h1.11v3.05h.23l2.63-3.05h1.28v0l-2.92,3.34A21.58,21.58,0,0,0,211.74,275.66Z"/><line class="2a9dafa4-9c90-455b-a4fd-843564c09ce3" x1="21.72" y1="192.98" x2="210.4" y2="192.98"/></g></svg>