<?xml version="1.0" encoding="utf-8"?>
<!-- Generator: Adobe Illustrator 21.1.0, SVG Export Plug-In . SVG Version: 6.00 Build 0)  -->
<svg version="1.1" id="圖層_1" xmlns="http://www.w3.org/2000/svg" xmlns:xlink="http://www.w3.org/1999/xlink" x="0px" y="0px"
	 viewBox="0 0 175.9 34.1" style="enable-background:new 0 0 175.9 34.1;" xml:space="preserve">
<style type="text/css">
	.st0{fill:#2E2A25;}
</style>
<g>
	<g>
		<polygon class="st0" points="29.6,34.1 41.1,34.1 54,34.1 65.5,34.1 47.6,0 		"/>
		<polygon class="st0" points="18,25.1 31.2,0 0,0 0,8.2 13.9,8.2 0,34.1 29.6,34.1 29.8,25.1 		"/>
	</g>
	<g>
		<path class="st0" d="M97.1,0.3c-0.1,1.1-0.5,2.8-1.3,5.2H97c0.9-2.4,1.2-4,1.4-5.1l6.3,0.1c-0.2,0.8-1.2,3.6-1.9,5.1h2.8v5.6H103
			v2.4h2.6v5.1H103v2.2h2.6v5H103v2.3h2.5v6h-10l0,0h-5.9v-7.4l-2.7,5.6c-1.9-1.5-2.3-2.2-3.2-3.4v5.2h-5.9v-4.5
			c-1.1,1.6-3,3.1-5.6,4.5v-7.4c1.2-0.9,3.3-2.8,3.9-3.4h-3.8v-5.6h2.7l-3.3-4.4c2.1-2.4,2.5-5,2.6-5.7h-2V1.9h5.5V0.3h6.2v1.6h4.8
			v5.2c0.6-1.5,1.7-4.2,2-6.9H97.1z M78.9,16.4c-1-1.5-1.4-2.4-1.5-2.5c-1,2.3-1.4,2.9-2.2,3.8h2.7v-1.3H78.9z M79.9,14.9l-1,1.5H82
			L79.9,14.9z M79.2,7.6C79.1,8.2,79,8.5,79,8.7c0.4,0.7,1,1.6,1.9,2.7c0.7-1.9,0.8-3,1-3.8H79.2z M87.2,17.5
			c-0.8-0.9-1.7-1.9-2.4-3.4c-0.2,0.4-0.4,1-1.1,2.3h0v1.3h5.1v5.6h-3.8c2.1,2.1,3.3,2.7,4.6,3.3v-9.2c-0.1,0.1-0.1,0.1-0.2,0.2
			l-1.1-2.3L87.2,17.5z M86.3,7.6c0,0.2-0.1,0.6-0.1,0.9c0.5,0.8,0.8,1.3,1.1,1.7c0.7-1.3,1.1-2,1.3-2.6H86.3z M95.5,11.1v2.4h1.9
			v-2.4H95.5z M95.5,18.6v2.2h1.9v-2.2H95.5z M95.5,25.8v2.3h1.9v-2.3H95.5z"/>
		<path class="st0" d="M135.8,19.9h5.2V13h-2V1.3H130v3.9h3.1V6H130v2.7h3.1v0.8H130v2.6h3.1v0.9h-5.7l2-2.4c-0.7-0.4-0.8-0.5-1.6-1
			c0.8-0.7,1.2-1,1.8-1.5l-1.9-1.3l2.1-2.1c-0.5-0.4-0.7-0.6-1.7-1.2c0.5-0.4,0.9-0.7,1.6-1.4l-2.9-2c-0.5,0.5-1.3,1.1-2.1,1.5
			c-1.9-0.9-3-1.3-3.7-1.6l-2.4,2.5c0.7,0.3,1.1,0.5,2.1,0.9c-1.1,0.4-1.7,0.5-2.3,0.7l-1.7-3.9c-2.6,0.7-4.4,1-7.6,1V13h-1.6v6.8
			h4.8v2.2h12c-0.7,0.4-3.5,1.3-3.5,1.3h-13.5v5.3h13.5c0,0.8,0,0.9-0.7,0.9h-3.8l0,4.5h8.2c2.8,0,2.8-2.3,2.8-3.1v-2.3h13.5v-5.3
			h-9.4c0.5-0.1,2.6-0.5,4.5-1.3V19.9z M124.6,5.6c0.9,0.6,1.2,0.8,1.7,1.2c-0.8,0.6-1.4,0.9-1.7,1.1c-1.4-0.7-2-0.9-2.4-1.1
			C123.3,6.2,124.1,5.8,124.6,5.6z M124.4,11.7c0.3,0.2,0.7,0.5,2,1.4h-5.2C122.9,12.4,123.8,12,124.4,11.7z M115.1,8.7h3.2V6h-3.2
			V5.2c1.4-0.1,2.9-0.4,3.3-0.5l1.4,2.6l-1.1,1.3c0.8,0.4,1.3,0.6,1.9,0.9c-0.6,0.2-1.2,0.4-2.4,0.6V9.6h-3.2V8.7z M115.1,12.2h3.2
			v-1.3l1.1,2.1h-4.3V12.2z M133.8,18.1h-19.4V17h19.4V18.1z"/>
		<path class="st0" d="M152.2,27.9c1.9-0.4,4.9-1.1,8.1-3c-1-1.5-2-3.5-3.4-6.8l-0.5,0.3l-3.3-5.2c2.4-1.4,4.5-3.6,5.3-4.5h-3.9v3.1
			h-2.8v2.2c1.1,1.8,2.1,3.1,4.4,5.4l-2.6,5.9c-0.5-0.5-0.9-1.1-1.8-2.3v11.2h-5.8V23.3c-0.7,2-2.3,4.9-3.4,6.5l0-10
			c2.8-3.4,2.7-7.2,2.9-8.1h-3v-6h3.5V0.3h5.8v5.5h2.7v-3h7.4V0.3h6.5v2.5h7.5v5.8h-4.1c0.4,0.5,1.6,2,4.2,3.7v7.4
			c-0.5-0.3-2.8-1.4-3.2-1.6c-0.4,1.4-1.7,4.6-3.3,6.6c0.9,0.5,2.1,1.5,6.5,2.7l0,6.6c-4.9-1.6-10-3.5-11.3-4.4
			c-2.1,1.7-7.4,3.9-11.1,4.4L152.2,27.9z M171,16.9c-2.7-2.3-4.3-4.4-5.2-5.7l4.6-2.5H160h5.7c-1.5,2.5-6,7.4-7.3,8.3l4-1.7
			c1,2.3,1.7,3.7,2.6,5c0.7-1.1,1.7-3.6,1.9-4.8L171,16.9z"/>
	</g>
</g>
</svg>
