<svg xmlns="http://www.w3.org/2000/svg" viewBox="0 0 438 232.22"><defs><style>.cls-1,.cls-2{fill:#0047ba;}.cls-2{font-size:43.6px;font-family:LatinaEssential-MediumIt, Latina Essential;letter-spacing:-0.02em;}.cls-3{letter-spacing:-0.06em;}.cls-4{letter-spacing:-0.04em;}.cls-5{letter-spacing:-0.03em;}.cls-6{letter-spacing:-0.04em;}.cls-7{letter-spacing:-0.04em;}.cls-8{letter-spacing:-0.04em;}.cls-9{letter-spacing:-0.03em;}</style></defs><title>有感哲學</title><g id="圖層_2" data-name="圖層 2"><g id="圖層_3" data-name="圖層 3"><path class="cls-1" d="M27.87,166.71H9.78a.41.41,0,0,1-.4-.48l6.3-35.45-13-.14a.41.41,0,0,1-.4-.48l2.54-14.41a.41.41,0,0,1,.4-.34H50.45a.41.41,0,0,1,.4.48l-2.63,14.89a.41.41,0,0,1-.4.34h0L34.56,131l-6.28,35.39A.41.41,0,0,1,27.87,166.71Zm-17.6-.82H27.53l6.28-35.4a.41.41,0,0,1,.4-.34h0l13.26.14L50,116.23H5.53l-2.4,13.59,13,.14a.41.41,0,0,1,.4.48Z"/><path class="cls-1" d="M62.36,166.71H44.29a.41.41,0,0,1-.4-.48l8.68-49.3a.41.41,0,0,1,.33-.33c8.89-1.71,13.76-2.06,18.35-2.06,16.19,0,24.4,5.13,24.4,15.25h0c0,8-4,14.36-11.26,18a70.31,70.31,0,0,0,8.29,18.18.41.41,0,0,1,.05.3l0,.14a.41.41,0,0,1-.4.33h0l-20.06-.07a.41.41,0,0,1-.35-.2,49.87,49.87,0,0,1-6.05-15.6h-.32l-2.74,15.54A.41.41,0,0,1,62.36,166.71Zm-17.59-.82H62l2.74-15.54a.41.41,0,0,1,.4-.34h1a.41.41,0,0,1,.4.33,49,49,0,0,0,5.91,15.48l19.2.07a70.6,70.6,0,0,1-8.17-18.22.41.41,0,0,1,.22-.48c7.16-3.44,11.11-9.62,11.11-17.39h0c0-9.58-7.93-14.43-23.58-14.43a88.91,88.91,0,0,0-17.91,2Zm25.94-26.61H67.2a.41.41,0,0,1-.4-.48L69,126.45a.41.41,0,0,1,.38-.34c.54,0,1,0,1.46,0,4.11,0,6.47,2,6.48,5.61h0C77.29,136.16,74.58,139.29,70.71,139.29Zm-3-.82h3c3.44,0,5.76-2.73,5.76-6.79,0-3.09-2-4.8-5.66-4.8l-1.09,0Z"/><path class="cls-1" d="M120.34,166.63H102.26a.41.41,0,0,1-.4-.48l2.54-14.29L94.2,117.11a.41.41,0,0,1,.36-.52l20.17-1.71a.41.41,0,0,1,.44.36l1.48,13.29c.25,2,.5,4.86.68,7.85,1.26-3.14,2.49-6,3.36-7.89l5.82-12.83a.41.41,0,0,1,.37-.24h19.94a.41.41,0,0,1,.34.63L123.1,153l-2.36,13.25A.41.41,0,0,1,120.34,166.63Zm-17.59-.82H120l2.31-13a.41.41,0,0,1,.06-.15l23.7-36.43H127.14l-5.71,12.6c-1,2.14-2.45,5.58-3.89,9.23a.41.41,0,0,1-.38.26H117a.41.41,0,0,1-.41-.39c-.19-3.5-.47-7-.77-9.3l-1.43-12.9-19.27,1.63,10.08,34.36a.41.41,0,0,1,0,.19Z"/><path class="cls-1" d="M180.71,166.71H162.62a.41.41,0,0,1-.4-.48l6.3-35.45-13-.14a.41.41,0,0,1-.4-.48l2.54-14.41a.41.41,0,0,1,.4-.34H203.3a.41.41,0,0,1,.4.48l-2.63,14.89a.41.41,0,0,1-.4.34h0L187.4,131l-6.28,35.39A.41.41,0,0,1,180.71,166.71Zm-17.6-.82h17.26l6.28-35.4a.41.41,0,0,1,.4-.34h0l13.26.14,2.49-14.07H158.37L156,129.83l13,.14a.41.41,0,0,1,.4.48Z"/><path class="cls-1" d="M215.21,166.71H197.13a.41.41,0,0,1-.4-.48l8.68-49.3a.41.41,0,0,1,.33-.33c8.89-1.71,13.76-2.06,18.35-2.06,16.19,0,24.4,5.13,24.4,15.25h0c0,8-4,14.36-11.26,18a70.31,70.31,0,0,0,8.29,18.18.41.41,0,0,1,.05.3l0,.14a.41.41,0,0,1-.4.33h0l-20.06-.07a.41.41,0,0,1-.35-.2,49.87,49.87,0,0,1-6.05-15.6h-.32l-2.74,15.54A.41.41,0,0,1,215.21,166.71Zm-17.59-.82h17.24l2.74-15.54a.41.41,0,0,1,.4-.34h1a.41.41,0,0,1,.4.33,49,49,0,0,0,5.91,15.48l19.2.07a70.6,70.6,0,0,1-8.17-18.22.41.41,0,0,1,.22-.48c7.16-3.44,11.11-9.62,11.11-17.39h0c0-9.58-7.93-14.43-23.58-14.43a88.91,88.91,0,0,0-17.91,2Zm25.94-26.61H220a.41.41,0,0,1-.4-.48l2.18-12.36a.41.41,0,0,1,.38-.34c.54,0,1,0,1.46,0,4.11,0,6.47,2,6.48,5.61h0C230.13,136.16,227.43,139.29,223.56,139.29Zm-3-.82h3c3.44,0,5.76-2.73,5.76-6.79,0-3.09-2-4.8-5.66-4.8l-1.09,0Z"/><path class="cls-1" d="M273.18,166.63H255.1a.41.41,0,0,1-.4-.48l2.54-14.29L247,117.11a.41.41,0,0,1,.36-.52l20.17-1.71a.41.41,0,0,1,.44.36l1.48,13.29c.25,2,.5,4.86.68,7.85,1.26-3.14,2.49-6,3.36-7.89l5.82-12.83a.41.41,0,0,1,.37-.24h19.95a.41.41,0,0,1,.34.63l-24.06,37-2.36,13.25A.41.41,0,0,1,273.18,166.63Zm-17.59-.82h17.25l2.31-13a.41.41,0,0,1,.06-.15l23.7-36.43H280l-5.71,12.6c-1,2.13-2.45,5.58-3.89,9.23a.41.41,0,0,1-.38.26h-.15a.41.41,0,0,1-.41-.39c-.19-3.5-.47-7-.77-9.3l-1.43-12.9L248,117.36,258,151.72a.41.41,0,0,1,0,.19Z"/><path class="cls-1" d="M323.2,167.73c-7.8,0-14.89-1.91-19.45-5.24a.41.41,0,0,1-.13-.49l5.54-12.83a.41.41,0,0,1,.38-.25h.2a.41.41,0,0,1,.25.08c3.6,2.73,9.9,4.21,14,4.21h0c2.35,0,3.75-.58,3.75-1.54,0-1.42-2.14-2.47-4.85-3.8-5.15-2.53-12.21-6-12.21-15.47,0-8.66,6.3-17.92,24-17.92a38.61,38.61,0,0,1,17.92,4.25.41.41,0,0,1,.2.54L347,132.18a.41.41,0,0,1-.59.18l-.12-.07C343.19,130,337.86,129,334.2,129c-4.07,0-4.07,1.35-4.07,2,0,1.69,2.35,2.76,5.32,4.12,5.16,2.35,12.23,5.57,12.23,14.86C347.67,160.76,338.07,167.73,323.2,167.73ZM304.49,162c4.43,3.12,11.23,4.9,18.7,4.9,14.37,0,23.66-6.65,23.66-16.94,0-8.76-6.51-11.73-11.75-14.12-3.24-1.48-5.8-2.64-5.8-4.86,0-1.92,1.55-2.81,4.88-2.81,3.68,0,9,1,12.22,3.22l5.45-12.11a37.61,37.61,0,0,0-17.21-4c-7.6,0-13.74,1.8-17.76,5.21a15.11,15.11,0,0,0-5.39,11.89c0,9,6.79,12.3,11.75,14.74,3,1.46,5.3,2.61,5.3,4.53,0,.71-.45,2.36-4.6,2.36h0c-4.13,0-10.42-1.47-14.19-4.17Z"/><path class="cls-1" d="M386.77,166.71H349.11a.41.41,0,0,1-.4-.48l8.88-50.48a.41.41,0,0,1,.4-.34h37a.41.41,0,0,1,.4.48l-2.33,13.25a.42.42,0,0,1-.41.34l-18.5-.48-1,5.6,15.55-.34a.41.41,0,0,1,.41.48l-2.25,12.77a.42.42,0,0,1-.41.34l-15.57-.35-1,5.64,19.19-.49a.43.43,0,0,1,.32.14.41.41,0,0,1,.09.34l-2.33,13.25A.41.41,0,0,1,386.77,166.71Zm-37.18-.82h36.84l2.19-12.42-19.19.49a.4.4,0,0,1-.32-.14.41.41,0,0,1-.09-.34l1.14-6.48a.41.41,0,0,1,.41-.34l15.57.35,2.1-11.93-15.55.34a.42.42,0,0,1-.32-.14.41.41,0,0,1-.09-.34l1.13-6.44a.41.41,0,0,1,.41-.34l18.5.48,2.19-12.42H358.33Z"/><path class="cls-1" d="M429.36,166.71H391.69a.41.41,0,0,1-.4-.48l8.88-50.48a.41.41,0,0,1,.4-.34h37a.41.41,0,0,1,.4.48l-2.33,13.25a.42.42,0,0,1-.41.34l-18.5-.48-1,5.6,15.55-.34a.41.41,0,0,1,.41.48l-2.25,12.77a.42.42,0,0,1-.41.34l-15.57-.35-1,5.64,19.19-.49a.43.43,0,0,1,.32.14.41.41,0,0,1,.09.34l-2.33,13.25A.41.41,0,0,1,429.36,166.71Zm-37.18-.82H429l2.19-12.42L412,154a.4.4,0,0,1-.32-.14.41.41,0,0,1-.09-.34l1.14-6.48a.41.41,0,0,1,.41-.34l15.57.35,2.1-11.93-15.55.34a.42.42,0,0,1-.32-.14.41.41,0,0,1-.09-.34l1.13-6.44a.41.41,0,0,1,.41-.34l18.5.48,2.19-12.42H400.91Z"/><path class="cls-1" d="M18.38,92.8a.41.41,0,0,1-.41-.41V59.74c-2.59,2.38-5.32,4.74-8.12,7a.41.41,0,0,1-.64-.19A55.19,55.19,0,0,0,.09,49.88a.41.41,0,0,1,.09-.6A85.68,85.68,0,0,0,22.24,27.61c.69-.9,1.34-1.83,1.94-2.77H3a.41.41,0,0,1-.41-.45c.26-2.65.39-5.34.39-8s-.13-5.31-.39-8A.41.41,0,0,1,3,8h29.5c.93-2.5,1.78-5.09,2.53-7.71A.41.41,0,0,1,35.56,0,95.23,95.23,0,0,0,54.32,2.25c1.7.15,2.55.69,2.55,1.58S56,5.89,54.16,7.12L53.83,8H92a.41.41,0,0,1,.41.45c-.26,2.64-.39,5.32-.39,8s.13,5.33.39,8a.41.41,0,0,1-.41.45H46.25c-.42.75-.85,1.49-1.28,2.21H83.6a.41.41,0,0,1,.41.45,62.51,62.51,0,0,0-.39,6.89V79c0,5.39-3.68,9.14-10.94,11.14h-.05c-5.38.71-8.55,1.11-9.4,1.17a67.06,67.06,0,0,0-6.69,1.07.41.41,0,0,1-.49-.35A55.17,55.17,0,0,0,51.5,75.77a.41.41,0,0,1,.41-.58c2.64.26,4.82.39,6.5.39,6.49,0,6.82-1,6.82-1.15V72.88H35.87V92.39a.41.41,0,0,1-.13.3.4.4,0,0,1-.31.11c-2.9-.26-5.81-.39-8.65-.39s-5.59.13-8.36.39Zm8.4-1.21c2.72,0,5.51.12,8.28.35V72.47a.41.41,0,0,1,.41-.41H65.64a.41.41,0,0,1,.41.41v2c0,1.36-2.35,2-7.63,2-1.55,0-3.53-.11-5.88-.33a56.2,56.2,0,0,1,4.27,15.44c2.36-.47,4.5-.81,6.35-1,.84-.07,4-.46,9.33-1.17C79.43,87.44,82.8,84.05,82.8,79V34.39a63.2,63.2,0,0,1,.34-6.52H44.25a.41.41,0,0,1-.35-.62c.59-1,1.18-2,1.75-3A.41.41,0,0,1,46,24H91.55c-.23-2.52-.35-5.07-.35-7.6s.12-5.08.35-7.6H53.24a.41.41,0,0,1-.38-.55l.59-1.56a.41.41,0,0,1,.16-.2C55.62,5.16,56,4.31,56,3.83s-1.11-.7-1.78-.76A96.54,96.54,0,0,1,35.75.89C35,3.5,34.14,6.08,33.21,8.56a.41.41,0,0,1-.38.27H3.49c.23,2.54.35,5.09.35,7.6s-.12,5.06-.35,7.6H24.92a.41.41,0,0,1,.35.62A40.66,40.66,0,0,1,22.9,28.1,86.65,86.65,0,0,1,1,49.72a56,56,0,0,1,8.78,16c2.88-2.34,5.67-4.77,8.32-7.23a.41.41,0,0,1,.69.3V91.94C21.43,91.71,24.12,91.59,26.77,91.59Zm38.86-32H35.46a.41.41,0,0,1-.41-.41V56.46a.41.41,0,0,1,.41-.41H65.64a.41.41,0,0,1,.41.41v2.73A.41.41,0,0,1,65.64,59.6Zm-29.76-.82H65.23V56.87H35.87ZM65.64,44.27H35.46a.41.41,0,0,1-.41-.41V41.22a.41.41,0,0,1,.41-.41H65.64a.41.41,0,0,1,.41.41v2.64A.41.41,0,0,1,65.64,44.27Zm-29.76-.82H65.23V41.63H35.87Z"/><path class="cls-1" d="M170.07,93.09a.41.41,0,0,1-.35-.2,55.71,55.71,0,0,0-8.81-11.53V92a.41.41,0,0,1-.45.41,86.28,86.28,0,0,0-16.33,0,.41.41,0,0,1-.45-.41V82.82c-7.57,1.26-15.06,2.41-22.26,3.42-1.51,1.4-2.14,1.58-2.53,1.58-.61,0-1.38-.33-1.58-1.92a.39.39,0,0,1,0-.05v-8.4a66.48,66.48,0,0,0-.68-9.12.41.41,0,0,1,.4-.47h3.79V37h-4.57a.41.41,0,0,1-.41-.45,74.08,74.08,0,0,0,0-15.15.41.41,0,0,1,.41-.45h15.21V19.47h-11a.41.41,0,0,1-.41-.45c.26-2.65.39-5.33.39-8s-.13-5.31-.39-8a.41.41,0,0,1,.41-.45h42.28a.41.41,0,0,1,.41.44c-.19,2.65-.29,5.33-.29,8s.1,5.33.29,8a.41.41,0,0,1-.41.44H150.26V21h16.39a.41.41,0,0,1,.41.45c-.16,1.6-.28,3.22-.34,4.84a102.9,102.9,0,0,0,2.94-24.7.41.41,0,0,1,.51-.4,161.38,161.38,0,0,0,19,3.31c1.91.19,2.31,1,2.31,1.68S190.72,7.8,189.1,9c-.23,1.73-.49,3.45-.78,5.13h19.14a.41.41,0,0,1,.41.45c-.26,2.7-.39,5.48-.39,8.26s.13,5.85.39,8.75a.41.41,0,0,1-.41.45h-3.9c-.55,14.51-3,26.52-7.22,35.72a42,42,0,0,0,12,7.44.41.41,0,0,1,.13.66,43.59,43.59,0,0,0-10.55,16.64.41.41,0,0,1-.57.24,43.86,43.86,0,0,1-12.83-9.85A78.68,78.68,0,0,1,170.27,93,.41.41,0,0,1,170.07,93.09ZM160.5,80a.41.41,0,0,1,.28.11,56.26,56.26,0,0,1,9.44,12,77.15,77.15,0,0,0,14-10.1.41.41,0,0,1,.58,0,43.7,43.7,0,0,0,12.45,9.76,44.35,44.35,0,0,1,10.18-16.08,42,42,0,0,1-11.88-7.56.41.41,0,0,1-.09-.47c4.32-9.21,6.77-21.35,7.29-36.07a.41.41,0,0,1,.41-.39H207c-.23-2.78-.35-5.59-.35-8.38s.12-5.3.35-7.89H187.84a.41.41,0,0,1-.4-.48c.32-1.87.62-3.8.88-5.75a.41.41,0,0,1,.16-.27c2-1.52,2.18-2.15,2.18-2.31,0-.47-.53-.76-1.58-.86A163.9,163.9,0,0,1,170.48,2.1a102.61,102.61,0,0,1-3.82,27.62.41.41,0,0,1-.8-.11V29c0-2.39.12-4.82.35-7.21H149.86a.41.41,0,0,1-.41-.41V19.06a.41.41,0,0,1,.41-.41h12.45c-.17-2.52-.26-5.08-.26-7.6s.09-5.07.26-7.6H120.91c.23,2.54.35,5.09.35,7.6s-.12,5.06-.35,7.6h11a.41.41,0,0,1,.41.41V21.4a.41.41,0,0,1-.41.41H116.72c.23,2.4.35,4.83.35,7.21s-.12,4.8-.35,7.21h4.53a.41.41,0,0,1,.41.41V68.27a.41.41,0,0,1-.41.41h-3.73a66.65,66.65,0,0,1,.62,8.77v8.37c.15,1.18.61,1.18.76,1.18s.63-.1,2.06-1.45a.41.41,0,0,1,.22-.11c7.38-1,15.06-2.22,22.84-3.51a.41.41,0,0,1,.33.09.41.41,0,0,1,.14.31v9.22c2.52-.23,5.07-.35,7.6-.35h0c2.65,0,5.34.12,8,.35V80.38a.41.41,0,0,1,.41-.41Zm0-4.94a.41.41,0,0,1-.41-.41V52.06a.41.41,0,0,1,.73-.25,72.49,72.49,0,0,1,5.91,9.3c.78-.9,1.6-1.86,2.44-2.87a.41.41,0,0,1,.69.1A87.39,87.39,0,0,0,174,66.9a.41.41,0,0,1-.09.51A48,48,0,0,1,160.65,75,.41.41,0,0,1,160.5,75Zm.41-21.73V74a47.05,47.05,0,0,0,12.25-7c-1.34-2.41-2.61-5-3.79-7.72-.83,1-1.64,1.93-2.41,2.82a.41.41,0,0,1-.67-.08A75.75,75.75,0,0,0,160.91,53.3ZM137.65,67.12a.41.41,0,0,1-.41-.41V63.78a.41.41,0,0,1,.41-.41h6.44a.41.41,0,0,1,.41.41v2.05a.41.41,0,0,1-.35.4l-6.45.88Zm.41-2.93v2.05l5.63-.77V64.19Zm6-11.52h-6.44a.41.41,0,0,1-.41-.41V50a.41.41,0,0,1,.41-.41h6.44a.41.41,0,0,1,.41.41v2.25A.41.41,0,0,1,144.09,52.67Zm-6-.82h5.63V50.42h-5.63Zm46-3.38a.41.41,0,0,1-.38-.27c-1-2.87-2-6-2.84-9.22a.41.41,0,0,1,0-.23c.2-.6.43-1.2.7-1.79.64-1.74,1.26-3.57,1.84-5.42a.41.41,0,0,1,.39-.29h1.46a.41.41,0,0,1,.41.37c.07.75.1,1.4.1,2a86.74,86.74,0,0,1-1.28,14.53.41.41,0,0,1-.37.33Zm-2.4-9.57c.69,2.63,1.45,5.16,2.27,7.55a89.62,89.62,0,0,0,1-12.84c0-.46,0-1-.07-1.54H184c-.55,1.76-1.15,3.51-1.77,5.2C182,37.82,181.81,38.36,181.63,38.9ZM160.5,44.37h-.1a.41.41,0,0,1-.31-.4V36.64a.41.41,0,0,1,.41-.41h3.32a.41.41,0,0,1,.38.55,52.6,52.6,0,0,1-3.35,7.38A.41.41,0,0,1,160.5,44.37Zm.41-7.32v5.28A54.71,54.71,0,0,0,163.23,37Zm-16.81,2.34h-6.44a.41.41,0,0,1-.41-.41V36.64a.41.41,0,0,1,.41-.41h6.44a.41.41,0,0,1,.41.41V39A.41.41,0,0,1,144.09,39.39Zm-6-.82h5.63V37h-5.63Z"/><path class="cls-1" d="M299.26,92h0a94.68,94.68,0,0,0-17.11,0,.41.41,0,0,1-.45-.41V81.67H263.82a.41.41,0,0,1-.41-.46,53.58,53.58,0,0,0,.39-6.4,56,56,0,0,0-.39-6.49.41.41,0,0,1,.41-.46h17.85V66H260.4a.41.41,0,0,1-.41-.46,44.13,44.13,0,0,0,.29-4.53l-3.67.72V77.06a16,16,0,0,1-2.21,8.81c-1.73,2.22-7.37,4.09-17.27,5.75a.41.41,0,0,1-.47-.35,66.65,66.65,0,0,0-4.85-17.86.41.41,0,0,1,.42-.57,52.06,52.06,0,0,0,5.23.39c1.93,0,1.93-.84,1.93-1.15V65.36l-5.27,1.07a.41.41,0,0,1-.49-.38,57.8,57.8,0,0,0-.78-6.5L232,54a43.1,43.1,0,0,0-1.74-6.86.41.41,0,0,1,.33-.54l8.83-1.32V34.8h-7.6a.41.41,0,0,1-.41-.45c.26-2.78.39-5.6.39-8.36s-.13-5.58-.39-8.36a.41.41,0,0,1,.41-.45h7.6V8.42a41.46,41.46,0,0,0-.77-7.15.41.41,0,0,1,.48-.47c3.28.64,8.9,1,16.72,1,1.5,0,2.26.43,2.26,1.29,0,.64-.47,1.32-1.46,2.15v12h5.25a.41.41,0,0,1,.37.24v-9a32.63,32.63,0,0,0-.39-4.92.41.41,0,0,1,.4-.47h58a.41.41,0,0,1,.4.47,32.41,32.41,0,0,0-.39,4.92V21.79a32.38,32.38,0,0,0,.39,4.92.41.41,0,0,1-.4.47H299.67v1.43h17.95A.41.41,0,0,1,318,29v9.57a.41.41,0,0,1-.41.41H299.67v1.43h22.54a.41.41,0,0,1,.4.47,31.54,31.54,0,0,0,0,9.84.41.41,0,0,1-.4.47h-8.52l-.93,2.21h8.66a.41.41,0,0,1,.41.46,41.88,41.88,0,0,0-.39,5.71,47,47,0,0,0,.39,6,.41.41,0,0,1-.41.46H299.67v1.82H318.4a.41.41,0,0,1,.41.46,55.72,55.72,0,0,0-.39,6.49,53.23,53.23,0,0,0,.39,6.4.41.41,0,0,1-.41.46H299.67v9.94a.41.41,0,0,1-.41.41Zm-8.79-1.21c2.78,0,5.6.12,8.38.35v-9.9a.41.41,0,0,1,.41-.41h18.68a54.08,54.08,0,0,1-.34-6,56.33,56.33,0,0,1,.34-6.13H299.26a.41.41,0,0,1-.41-.41V65.64a.41.41,0,0,1,.41-.41H321a47.8,47.8,0,0,1-.34-5.65,42.85,42.85,0,0,1,.33-5.35h-8.81a.41.41,0,0,1-.38-.57l1.27-3a.41.41,0,0,1,.38-.25h8.31a32.21,32.21,0,0,1,0-9.14H299.26a.41.41,0,0,1-.41-.41V38.59a.41.41,0,0,1,.41-.41h17.95V29.43H299.26a.41.41,0,0,1-.41-.41V26.77a.41.41,0,0,1,.41-.41h20.52a33,33,0,0,1-.33-4.57V8.42a33,33,0,0,1,.33-4.57H262.73a33.19,33.19,0,0,1,.33,4.57V21.79a33.16,33.16,0,0,1-.33,4.57h19.35a.41.41,0,0,1,.41.41V29a.41.41,0,0,1-.41.41H265v8.75h17.07a.41.41,0,0,1,.41.41v2.25a.41.41,0,0,1-.41.41h-21.2a32.17,32.17,0,0,1,0,9.14h9.19a.41.41,0,0,1,.38.25l1.27,3a.41.41,0,0,1-.38.57H260.86c0,.32,0,.64,0,1a.41.41,0,0,1-.81.08q-.1-.49-.2-1.09l-.78-5.48a26.09,26.09,0,0,1-.68-5.44l-2.17.32a.41.41,0,0,1-.47-.4V34.39a.41.41,0,0,1,.41-.41h5.22c-.23-2.65-.35-5.33-.35-8s.12-5.34.35-8H256.2a.41.41,0,0,1-.41-.41V5a.41.41,0,0,1,.15-.32c1.14-.91,1.31-1.42,1.31-1.63,0-.42-1-.47-1.45-.47a107.54,107.54,0,0,1-16.29-.88,40.63,40.63,0,0,1,.68,6.72v9.18a.41.41,0,0,1-.41.41h-7.56c.23,2.66.35,5.35.35,8s-.12,5.33-.35,8h7.56a.41.41,0,0,1,.41.41V45.62a.41.41,0,0,1-.35.4l-8.7,1.29a43.85,43.85,0,0,1,1.62,6.53l.88,5.57a58.83,58.83,0,0,1,.75,6.11l5.3-1.08a.41.41,0,0,1,.49.4v7.23c0,.9-.48,2-2.75,2-1.06,0-2.61-.11-4.61-.32a68,68,0,0,1,4.57,17c9.3-1.59,14.79-3.38,16.32-5.34a15.26,15.26,0,0,0,2.06-8.34V61.44a.41.41,0,0,1,.33-.4l4.49-.88a.41.41,0,0,1,.49.4,44.79,44.79,0,0,1-.25,4.67h21.22a.41.41,0,0,1,.41.41v2.64a.41.41,0,0,1-.41.41h-17.8a56.63,56.63,0,0,1,.34,6.13,54.33,54.33,0,0,1-.34,6h17.8a.41.41,0,0,1,.41.41v9.9C285.13,90.93,287.82,90.81,290.47,90.81Zm-29.86-37.4h10.11l-.93-2.21h-9.5Zm-1.78-11a.41.41,0,0,1,.41.41,25.4,25.4,0,0,0,.67,5.77l.19,1.35a32.11,32.11,0,0,0,.27-4.09A32.62,32.62,0,0,0,260,40.9a.41.41,0,0,1,.4-.47h21.27V39H264.6a.41.41,0,0,1-.41-.41V29a.41.41,0,0,1,.41-.41h17.07V27.18H262.26a.41.41,0,0,1-.31-.14l-.06-.09c0,2.47.16,5,.38,7.4a.41.41,0,0,1-.41.45h-5.25V42.7l2.17-.32ZM262.24,18c-.23,2.64-.35,5.33-.35,8q0,.25,0,.5a32.48,32.48,0,0,0,.35-4.7Zm34.29,36.22h-9.18A.41.41,0,0,1,287,54l-1.27-3a.41.41,0,0,1,.38-.57H297.7a.41.41,0,0,1,.38.56l-1.17,3A.41.41,0,0,1,296.53,54.23Zm-8.91-.82h8.63l.86-2.21H286.7Zm20.82-36.19h-5a.41.41,0,0,1-.41-.41V13.4a.41.41,0,0,1,.41-.41h5a.41.41,0,0,1,.41.41v3.42A.41.41,0,0,1,308.44,17.22Zm-4.57-.82H308V13.8h-4.16Zm-10.27.82h-5a.41.41,0,0,1-.41-.41V13.4a.41.41,0,0,1,.41-.41h5a.41.41,0,0,1,.41.41v3.42A.41.41,0,0,1,293.6,17.22ZM289,16.4h4.16V13.8H289Zm-10.37.82h-4.59a.41.41,0,0,1-.41-.41V13.4a.41.41,0,0,1,.41-.41h4.59a.41.41,0,0,1,.41.41v3.42A.41.41,0,0,1,278.66,17.22Zm-4.18-.82h3.77V13.8h-3.77Z"/><path class="cls-1" d="M374.88,93.09a.41.41,0,0,1-.4-.32,41.81,41.81,0,0,0-4.93-12.09.41.41,0,0,1,.38-.61c3.8.26,7.64.39,11.4.39,1.42,0,2.23-.24,2.23-.67V78.25h-35a.41.41,0,0,1-.41-.46,42.06,42.06,0,0,0,.39-5.71,41.38,41.38,0,0,0-.39-5.61.41.41,0,0,1,.41-.46h34.71a16.66,16.66,0,0,0-.34-2.14.41.41,0,0,1,.48-.49,75.81,75.81,0,0,0,12.58,1.06c.78-.55,1.54-1.16,2.29-1.82H365.7a.41.41,0,0,1-.41-.46,40.39,40.39,0,0,0,.39-4.93,38.63,38.63,0,0,0-.39-4.93.41.41,0,0,1,.41-.46h52.63a.41.41,0,0,1,.4.47,32.42,32.42,0,0,0-.39,4.92v4.59a.41.41,0,0,1-.13.3c-1.45,1.35-2.89,2.65-4.28,3.88h20.79a.41.41,0,0,1,.41.46,41.12,41.12,0,0,0-.39,5.61,41.81,41.81,0,0,0,.39,5.71.41.41,0,0,1-.41.46h-32.4v3.4A8.06,8.06,0,0,1,400.09,87a14.81,14.81,0,0,1-10,4.92l-15.15,1.17Zm-4.24-12.16a42.34,42.34,0,0,1,4.57,11.31L390,91.1a14,14,0,0,0,9.49-4.64,7.28,7.28,0,0,0,2-4.81V77.84a.41.41,0,0,1,.41-.41h32.34a42.81,42.81,0,0,1-.33-5.35,41.94,41.94,0,0,1,.33-5.25H412.86a.41.41,0,0,1-.27-.72c1.59-1.4,3.25-2.9,4.94-4.46V57.24a33,33,0,0,1,.33-4.57H366.17a37.77,37.77,0,0,1,.33,4.57,39.22,39.22,0,0,1-.34,4.57h33.13a.41.41,0,0,1,.28.71,30.69,30.69,0,0,1-3.27,2.67.43.43,0,0,1-.24.07,83.06,83.06,0,0,1-12.26-1,18.09,18.09,0,0,1,.27,2.09.41.41,0,0,1-.41.44H349a42.1,42.1,0,0,1,.33,5.25,43,43,0,0,1-.33,5.35h35a.41.41,0,0,1,.41.41v2c0,1.48-2.29,1.48-3,1.48C377.8,81.28,374.21,81.16,370.63,80.94ZM436.69,60h0c-2.65-.26-5.33-.39-8-.39s-5.09.13-7.67.39a.4.4,0,0,1-.31-.1.41.41,0,0,1-.13-.3V50.81H363.77v8.77a.41.41,0,0,1-.45.41c-2.65-.26-5.33-.39-8-.39a74.82,74.82,0,0,0-7.57.39.41.41,0,0,1-.45-.41V45a13.71,13.71,0,0,0-.75-4.83.41.41,0,0,1,.38-.55h3.11V12.22c0-2.44-.13-5-.39-7.58a.41.41,0,0,1,.41-.45A115.23,115.23,0,0,0,374.4,1.86a.41.41,0,0,1,.47.24,32.52,32.52,0,0,0,1.76,3.65A45.72,45.72,0,0,0,384.87.49a.41.41,0,0,1,.47,0c2.19,1.25,4.37,2.61,6.49,4,1.46-1.41,2.85-2.87,4.13-4.34a.41.41,0,0,1,.56-.05,56.84,56.84,0,0,0,7.09,4.67q-.07-.82-.13-1.68a.41.41,0,0,1,.41-.44h29.68a.41.41,0,0,1,.41.45,50.3,50.3,0,0,0-.29,5.33V39.64h3.4a.41.41,0,0,1,.4.47A32.41,32.41,0,0,0,437.1,45V59.58a.41.41,0,0,1-.41.41Zm-81.34-1.21c2.51,0,5.06.12,7.6.35V50.4a.41.41,0,0,1,.41-.41H421a.41.41,0,0,1,.41.41v8.73c2.46-.23,4.92-.35,7.31-.35s5.06.12,7.6.35V45a33,33,0,0,1,.33-4.57h-3.33a.41.41,0,0,1-.41-.41V8.42c0-1.62.08-3.28.25-5H404.32q.08,1,.16,2a.41.41,0,0,1-.6.39A58.64,58.64,0,0,1,396.32,1c-1.3,1.47-2.7,2.92-4.16,4.33a.41.41,0,0,1-.51,0c-2.11-1.43-4.28-2.79-6.46-4a46.39,46.39,0,0,1-7.67,4.93c2.33,1.69,4.52,3.41,6.52,5.1a.41.41,0,0,1,0,.65c-2.33,1.62-4.87,3.24-7.55,4.8a.41.41,0,0,1-.21.06H364.92a.41.41,0,0,1-.41-.41V14.86a.41.41,0,0,1,.37-.41,132.92,132.92,0,0,0,13.34-1.85.41.41,0,0,1,.18,0l1.41.38c.25,0,.32-.09.32-.37a2.21,2.21,0,0,0-.6-1.21,34.26,34.26,0,0,1-5.29-8.66A116.05,116.05,0,0,1,350.53,5c.23,2.46.35,4.89.35,7.21V40.05a.41.41,0,0,1-.41.41h-2.94a15.32,15.32,0,0,1,.62,4.57v14.1C350.55,58.9,353,58.78,355.35,58.78Zm10-42.77h10.81q1.86-1.09,3.62-2.21h-.1l-1.37-.37c-3.85.75-8.21,1.36-13,1.81Zm12.19-8.77a34.46,34.46,0,0,0,2.66,3.65,3,3,0,0,1,.78,1.73,1.48,1.48,0,0,1-.07.47q1.13-.74,2.21-1.48C381.36,10.16,379.49,8.69,377.51,7.24Zm41.21,33.22H402.9a.41.41,0,0,1-.21-.76c1.57-.91,3.18-1.8,4.8-2.65a.41.41,0,0,1,.19,0h11a.41.41,0,0,1,.41.41v2.64A.41.41,0,0,1,418.72,40.46Zm-14.28-.82h13.88V37.83H407.79C406.66,38.41,405.54,39,404.44,39.64Zm-9.25.82H386a.41.41,0,0,1-.24-.74c1.55-1.1,3.16-2.22,4.79-3.32a.41.41,0,0,1,.47,0c1.57,1.11,3.05,2.23,4.41,3.34a.41.41,0,0,1-.26.73Zm-7.89-.82H394c-1-.8-2.1-1.61-3.23-2.41C389.61,38,388.44,38.84,387.3,39.64Zm-8.22.82H364.92a.41.41,0,0,1-.41-.41V37.81a.41.41,0,0,1,.41-.41h11.33a.41.41,0,0,1,.25.09l2.83,2.25a.41.41,0,0,1-.26.73Zm-13.75-.82h12.58l-1.81-1.43H365.33Zm11-4.75a.41.41,0,0,1-.41-.41V28.65h-11a.41.41,0,0,1-.41-.41V26a.41.41,0,0,1,.41-.41h9.86a.41.41,0,0,1,.23.75l-.07,0c2.61,1.43,5.08,2.86,7.38,4.24a.41.41,0,0,1,0,.69c-1.81,1.17-3.76,2.35-5.78,3.52A.41.41,0,0,1,376.34,34.9Zm.41-6.57v5.45c1.59-.93,3.12-1.87,4.58-2.79C379.87,30.11,378.34,29.22,376.75,28.32Zm-11.42-.49h10.54l-2-1.09a.41.41,0,0,1-.21-.34h-8.36ZM405,34.6a.41.41,0,0,1-.26-.09c-1.68-1.36-3.41-2.67-5.15-3.89a.41.41,0,0,1,0-.67c1.48-1,3-2.11,4.48-3.22a.41.41,0,0,1,.17-.07c.64-.12.74-.28.74-.28,0-.27-.45-.49-.72-.6q-2.3-1.2-4.36-2.47a.41.41,0,0,1,0-.68,54.91,54.91,0,0,1,5.31-3.25.41.41,0,0,1,.6.36v5.45h13a.41.41,0,0,1,.41.41v2.25a.41.41,0,0,1-.41.41H405.36v5.94a.41.41,0,0,1-.41.41Zm-4.46-4.31c1.37,1,2.73,2,4.06,3.05v-5.5a.41.41,0,0,1,.41-.41h13.36V26H405.69a1.09,1.09,0,0,1,.06.37c0,.53-.44.89-1.31,1.07C403.13,28.42,401.8,29.37,400.49,30.29Zm.33-7.35c1.19.72,2.45,1.43,3.73,2.1l.38.18V20.43C403.53,21.21,402.15,22.05,400.82,22.95Zm-24.09,2.28a.41.41,0,0,1-.41-.41V18.57a.41.41,0,0,1,.66-.32c1.43,1.11,2.89,2.3,4.31,3.53a.41.41,0,0,1,0,.64,51.32,51.32,0,0,1-4.33,2.76A.41.41,0,0,1,376.73,25.23Zm.41-5.82v4.7c1.22-.72,2.3-1.41,3.22-2.05C379.3,21.14,378.22,20.26,377.14,19.41Zm13.55,5.53a.41.41,0,0,1-.19,0c-1.58-.85-3.15-1.67-4.68-2.43a.41.41,0,0,1,0-.7Q388.31,20,391,18.14a.41.41,0,0,1,.52,0,40.46,40.46,0,0,1,2.76,3.06.41.41,0,0,1,0,.55c-1,1-2.13,2.06-3.24,3A.41.41,0,0,1,390.7,24.94ZM386.81,22c1.26.64,2.54,1.31,3.83,2,.93-.83,1.85-1.69,2.73-2.56-.7-.85-1.45-1.67-2.23-2.47Zm18.54-4.91a.41.41,0,0,1-.29-.13c-1.62-1.68-3.29-3.32-5-4.87a.41.41,0,0,1,0-.62c1.22-1,2.54-2,3.92-2.94a.41.41,0,0,1,.65.35c-.06,1.48-.17,3-.34,4.46h14.38a.41.41,0,0,1,.41.41V16a.41.41,0,0,1-.41.41h-13v.27a.41.41,0,0,1-.41.41ZM401,11.86c1.35,1.26,2.7,2.58,4,3.93a.41.41,0,0,1,.33-.17h13V14.2H403.88a.41.41,0,0,1-.41-.46c.16-1.32.28-2.67.35-4C402.84,10.44,401.89,11.16,401,11.86Z"/><text class="cls-2" transform="translate(2.45 222.46)">#<tspan class="cls-3" x="26.55" y="0">M</tspan><tspan class="cls-4" x="62.05" y="0">Y</tspan><tspan x="88.16" y="0">B</tspan><tspan class="cls-5" x="115.28" y="0">R</tspan><tspan class="cls-6" x="141.84" y="0">A</tspan><tspan class="cls-4" x="168.57" y="0">V</tspan><tspan x="195.69" y="0">EDUC</tspan><tspan class="cls-7" x="304.56" y="0">A</tspan><tspan class="cls-8" x="331.24" y="0">T</tspan><tspan x="353.87" y="0">I</tspan><tspan class="cls-9" x="365.38" y="0">O</tspan><tspan x="395.77" y="0">N</tspan></text></g></g></svg>