<svg xmlns="http://www.w3.org/2000/svg" viewBox="0 0 295.17 134.13"><defs><style>.cls-1,.cls-2,.cls-5{fill:#fff;}.cls-2{font-size:35.3px;font-family:AvenirNext-DemiBold, Avenir Next;font-weight:700;}.cls-3{letter-spacing:-0.02em;}.cls-4{letter-spacing:0em;}.cls-5{font-size:13.57px;font-family:DFHeiStd-W7-B5pc-H, DFHei Std;letter-spacing:0.55em;}</style></defs><title>ZAshare</title><g id="圖層_2" data-name="圖層 2"><g id="圖層_3" data-name="圖層 3"><path class="cls-1" d="M282.6,36.91H11.6l-.21,1A12.45,12.45,0,0,1,10,41.39a14.21,14.21,0,0,1-2.41,3.17A14.87,14.87,0,0,1,4.47,47,13.13,13.13,0,0,1,.94,48.32l-.94.2V89.87l.94.19a12.7,12.7,0,0,1,3.53,1.37,13.82,13.82,0,0,1,3.16,2.41A14.12,14.12,0,0,1,10,97a12.54,12.54,0,0,1,1.35,3.53l.21.94h272l.2-.94A12.83,12.83,0,0,1,285.13,97a14.08,14.08,0,0,1,2.4-3.16,13.87,13.87,0,0,1,3.16-2.41,12.75,12.75,0,0,1,3.52-1.37l1-.19V48.51l-1-.2A13,13,0,0,1,290.7,47a14.92,14.92,0,0,1-3.16-2.41,14.17,14.17,0,0,1-2.4-3.17,12.73,12.73,0,0,1-1.36-3.51l-.2-1ZM13.5,39.32H281.67A15.6,15.6,0,0,0,283,42.57a17.19,17.19,0,0,0,2.8,3.68,17,17,0,0,0,3.69,2.8,15.38,15.38,0,0,0,3.25,1.37V88a16.25,16.25,0,0,0-3.25,1.37,17.46,17.46,0,0,0-3.69,2.8,17.26,17.26,0,0,0-2.8,3.69,15.84,15.84,0,0,0-1.37,3.24H13.5a15.44,15.44,0,0,0-1.37-3.24,17.28,17.28,0,0,0-2.8-3.69,17.27,17.27,0,0,0-3.69-2.8A16.18,16.18,0,0,0,2.4,88V50.42A15.32,15.32,0,0,0,5.65,49a16.79,16.79,0,0,0,3.69-2.8,17.21,17.21,0,0,0,2.8-3.68A15.21,15.21,0,0,0,13.5,39.32Z"/><path class="cls-1" d="M279.6,42.27a18.84,18.84,0,0,0,1.66,3,19.74,19.74,0,0,0,5.53,5.53,18.35,18.35,0,0,0,3,1.66V85.9a18.29,18.29,0,0,0-3,1.66,19.75,19.75,0,0,0-5.53,5.53,18.88,18.88,0,0,0-1.66,3h-264a18.9,18.9,0,0,0-1.65-3,20.07,20.07,0,0,0-2.5-3,20.42,20.42,0,0,0-3-2.49,18.29,18.29,0,0,0-3-1.66V52.48a18.35,18.35,0,0,0,3-1.66,19.88,19.88,0,0,0,3-2.49,20,20,0,0,0,2.5-3,18.85,18.85,0,0,0,1.65-3Zm2.65,2.36a17.09,17.09,0,0,1-1.69-3.19l-.15-.37H14.77l-.15.37a17.18,17.18,0,0,1-1.7,3.19,18.82,18.82,0,0,1-2.34,2.86,19.12,19.12,0,0,1-2.85,2.34,17,17,0,0,1-3.2,1.69l-.37.16v35l.37.16a18,18,0,0,1,3.2,1.69,19.07,19.07,0,0,1,2.85,2.34,18.78,18.78,0,0,1,2.34,2.86A17.15,17.15,0,0,1,14.62,97l.15.37H280.41l.15-.37a17.06,17.06,0,0,1,1.69-3.19,18.88,18.88,0,0,1,5.21-5.21,17.85,17.85,0,0,1,3.19-1.69l.37-.16v-35l-.37-.16a16.89,16.89,0,0,1-3.19-1.69,18.36,18.36,0,0,1-2.86-2.34A18.86,18.86,0,0,1,282.26,44.62Z"/><text class="cls-2" transform="translate(78.89 82.27)">ZAsha<tspan class="cls-3" x="102.18" y="0">r</tspan><tspan class="cls-4" x="114.39" y="0">e</tspan></text><text class="cls-5" transform="translate(120.45 132.09)">雜學校</text><path class="cls-1" d="M180.65,7.83h54.18V9.09H180.65V7.83ZM61,7.83h54.18V9.09H61Z"/><polygon class="cls-1" points="146.36 17.86 152.38 17.86 159.11 17.86 165.13 17.86 155.8 0.01 146.36 17.86"/><polygon class="cls-1" points="130.72 0 130.72 4.28 137.96 4.28 130.73 17.85 146.18 17.85 146.28 13.13 140.13 13.13 147.01 0 130.72 0"/></g></g></svg>