<svg xmlns="http://www.w3.org/2000/svg" viewBox="0 0 401 401"><defs><style>.cls-1{fill:#fff36e;}.cls-2{fill:#c39bde;}.cls-3{fill:#00addc;}.cls-4{fill:#ff7bd4;}.cls-5{fill:#8ae872;}.cls-6{font-size:19.53px;}.cls-6,.cls-7,.cls-8{fill:#0047a0;font-family:NotoSansCJKtc-Bold-B5pc-H, Noto Sans CJK TC;font-weight:700;}.cls-7{font-size:12.22px;}.cls-8{writing-mode:tb;text-orientation:upright;glyph-orientation-vertical:0deg;font-size:12.22px;}</style></defs><title>錢</title><g id="圖層_2" data-name="圖層 2"><g id="圖層_3" data-name="圖層 3"><path class="cls-1" d="M138.6,9.74l28,86.33a109.66,109.66,0,0,1,33.88-5.33V0A200.33,200.33,0,0,0,138.6,9.74Z"/><path class="cls-2" d="M310.26,200.5a109.76,109.76,0,1,1-216-27.68l-88-22.38A200.87,200.87,0,0,0,0,200.5C0,311.23,89.77,401,200.5,401S401,311.23,401,200.5Z"/><path class="cls-3" d="M200.5,0V90.74a110.44,110.44,0,0,1,19,1.64L235.15,3A201.72,201.72,0,0,0,200.5,0Z"/><path class="cls-4" d="M235.15,3,219.47,92.38A109.78,109.78,0,0,1,310.26,200.5H401C401,101.58,329.37,19.41,235.15,3Z"/><path class="cls-5" d="M166.62,96.08l-28-86.33A200.91,200.91,0,0,0,6.3,150.44l88,22.38A110,110,0,0,1,166.62,96.08Z"/><text class="cls-6" transform="translate(305.92 101.6)">人事<tspan x="0" y="22.49">費用</tspan><tspan x="0" y="44.98">22%</tspan></text><text class="cls-6" transform="translate(112.18 348.73)">博覽會舉辦費用 54%</text><text class="cls-6" transform="translate(50.06 95.33)">實體空間<tspan x="0" y="22.49">運營 16%</tspan></text><text class="cls-7" transform="translate(167.78 32.51) rotate(-8.3)">課<tspan x="0" y="14.07">程</tspan><tspan x="0" y="28.13">運</tspan><tspan x="0" y="42.2">營</tspan></text><text class="cls-8" transform="translate(229.1 17.19)">網路平台與<tspan x="-15.78" y="0">社群經營</tspan></text></g></g></svg>