<svg xmlns="http://www.w3.org/2000/svg" viewBox="0 0 103.87 18.24"><defs><style>.cls-1{fill:#fff;}</style></defs><title>按鈕上面字</title><g id="圖層_2" data-name="圖層 2"><g id="圖層_3" data-name="圖層 3"><path class="cls-1" d="M5.12,5.88l.5,1.8L9.89,6.5l.37,1.32L.37,10.58,0,9.26,4.12,8.11l-.5-1.8ZM9.18,8.73a32.37,32.37,0,0,1,0,6l3.28-.92.37,1.32-10.88,3-.37-1.32,6.08-1.7a37.2,37.2,0,0,0-.07-6.35ZM5.7,14.86l-1.42.95a28.5,28.5,0,0,0-2.44-4.72l1.3-.82A31.45,31.45,0,0,1,5.7,14.86Z"/><path class="cls-1" d="M21.59,2.33l.18,1.17,2.57-.39.21,1.4L21.61,5c-.34.76-.66,1.45-1,2l.65.33a12.64,12.64,0,0,0,1.05-2l1.38.54a15.09,15.09,0,0,1-1.57,2.95,17.32,17.32,0,0,1-2.38,2.73l-1.06-1A15.61,15.61,0,0,0,20.4,8.56L18.18,7.43l.76-1.26.45.21c.2-.39.38-.78.54-1.16L18,5.51l-.21-1.4,2.49-.38-.18-1.17ZM25,7.93a13.48,13.48,0,0,1-1.12,2,26.38,26.38,0,0,1,2,1.75l-1,1.35A22.83,22.83,0,0,0,23,11.17,20.28,20.28,0,0,1,20.19,14l-1.06-1a20.58,20.58,0,0,0,2.65-2.75,13.8,13.8,0,0,0,1.82-2.84ZM26.1,3l1.12,7.38-1.35.21L24.75,3.2Zm2.32-1.7,1.41,9.27a2.89,2.89,0,0,1-.05,1.51,1.42,1.42,0,0,1-1.11.61,8.27,8.27,0,0,1-1.63.09l-.46-1.42a7.49,7.49,0,0,0,1.68-.06c.09,0,.14-.07.16-.19a3.87,3.87,0,0,0-.05-.67L27,1.51Z"/><path class="cls-1" d="M41.43,1.68,41.36.25,42.83.18l.07,1.43,4.71-.23.07,1.37L43,3,43,4.45,47,4.26l.05,1a10.38,10.38,0,0,1-2.68,3.4,18.31,18.31,0,0,0,4.06,1l-.71,1.56A17,17,0,0,1,42.9,9.7a18.3,18.3,0,0,1-5.06,2L37,10.34a18.07,18.07,0,0,0,4.45-1.47A10.23,10.23,0,0,1,38.68,6l-.78,0L37.83,4.7l3.73-.18-.07-1.47-4.61.22-.07-1.37ZM42.89,8a7.7,7.7,0,0,0,2.27-2.3L40.35,6A7.82,7.82,0,0,0,42.89,8Z"/><path class="cls-1" d="M56.77,1.87,56.86,0l1.42.07-.09,1.87L59.37,2,59.3,3.41l-1.18-.06L58,5.42q.52-.13,1-.29l.15,1.18c-.4.17-.8.33-1.21.47l-.13,2.66a2.91,2.91,0,0,1-.35,1.49,1.41,1.41,0,0,1-1.21.41,5.78,5.78,0,0,1-1.08-.15L55,9.65a4.38,4.38,0,0,0,1.12.19.2.2,0,0,0,.21-.15A3.85,3.85,0,0,0,56.43,9l.08-1.78-1,.27-.42-1.44c.49-.09,1-.19,1.45-.3l.12-2.49-1.28-.06.07-1.42Zm5.58-.58,0-1,1.42.07,0,1,2.85.13-.06,1.38L63.7,2.74l-.06,1.17,2.7.13-.07,1.38-1.13-.05,0,1,1.18.06-.06,1.37L65,7.71l-.1,2.21a2,2,0,0,1-.43,1.4,2,2,0,0,1-1.41.34,7.38,7.38,0,0,1-1.23-.16L61.7,10a5.75,5.75,0,0,0,1.46.26c.19,0,.3-.19.32-.61l.09-2L61,7.52a10.79,10.79,0,0,1,.71,1.71l-1.41.53a9.56,9.56,0,0,0-.7-1.81l1.14-.44L59.3,7.44l.06-1.37,4.27.2,0-1-3.92-.18.07-1.38,2.4.11.06-1.17-2.7-.13.06-1.38Z"/><path class="cls-1" d="M78,2.18l-.16,1.07a21.64,21.64,0,0,1-1.51,2.21l1.6.24A14.26,14.26,0,0,1,76.26,10c-.07.12-.15.22-.21.31a2,2,0,0,0,.38.37c.61.54,2,1,4.21,1.32,1.12.17,2.33.3,3.65.4l-.71,1.43-3.15-.47c-2.45-.38-4.06-.93-4.82-1.63a2.2,2.2,0,0,1-.41-.41,11.06,11.06,0,0,1-1.53,1.27l-.78-1.16a7.87,7.87,0,0,0,1.6-1.22A6.74,6.74,0,0,1,73.92,8L75,7.69a7.82,7.82,0,0,0,.37,1.4,9,9,0,0,0,.91-2.31l-1-.14c-.17.18-.33.33-.48.47l-.92-.82a17.47,17.47,0,0,0,2.26-3L74.42,3l.21-1.37Zm2.89.64.1-.63,1.36.2-.1.63,2.52.38-.26,1.75.78.12-.19,1.26-.78-.12-.26,1.75-2.52-.38-.06.39,2.82.42-.19,1.27L81.3,9.43l-.07.44,3.16.47-.19,1.26L81,11.13l-.11.73-1.36-.2.11-.73-2.92-.44L77,9.23l2.92.44.07-.44-2.34-.35.19-1.27L80.14,8l.06-.39-2.09-.31L78.3,6l2.09.31.07-.49-2.77-.42.19-1.26,2.77.42.07-.49-2-.31.19-1.27Zm.83,3.7,1.17.18L83,6.2,81.81,6ZM82,4.77l1.17.18.07-.48-1.17-.18Z"/><path class="cls-1" d="M94.28,6.82l.54-1.94,1.33.37-.54,1.94,1.19.33L96.45,8.8l-1.19-.33-.17.61a19.62,19.62,0,0,1,1.14,2L95,12c-.14-.44-.27-.85-.42-1.22l-1.5,5.39-1.33-.37L93,11.37a16.53,16.53,0,0,1-1.21,1.44l-.52-1.21A14.14,14.14,0,0,0,92.81,9.8a16.66,16.66,0,0,0,1.11-1.7L92.6,7.74,93,6.45Zm7.39,6.08a11.93,11.93,0,0,1-2.09,2A8.5,8.5,0,0,0,101.7,17l-1.21,1.2a11.62,11.62,0,0,1-2.24-2.52,11.6,11.6,0,0,1-3.53.92l-.34-1.37a11.82,11.82,0,0,0,3.17-.84,11.54,11.54,0,0,1-.85-2.6l1.37-.53a9.27,9.27,0,0,0,.75,2.35,9.45,9.45,0,0,0,1.87-1.87ZM99.24,9.73a6.57,6.57,0,0,1-2.34,1.44l-.64-1.35a6.39,6.39,0,0,0,2.06-1.16Zm2.35-3-.33,1.19,2.6.72-.35,1.27L97.08,8.16l.35-1.27,2.41.67.33-1.19Zm.76,4a5.44,5.44,0,0,0,.76.84l-1.27.92a4.83,4.83,0,0,1-.73-1,8.15,8.15,0,0,1-.7-1.37l1.26-.56A6,6,0,0,0,102.36,10.73Z"/></g></g></svg>