<svg xmlns="http://www.w3.org/2000/svg" viewBox="0 0 141.57 132.47"><defs><style>.cls-1,.cls-2,.cls-3{fill:#fff;}.cls-2{font-size:8.62px;font-family:DFHeiStd-W7-B5pc-H, DFHei Std;letter-spacing:-0.03em;}.cls-3{font-size:7.71px;font-family:AvenirNext-DemiBold, Avenir Next;font-weight:700;letter-spacing:0em;}.cls-4{letter-spacing:-0.01em;}.cls-5{letter-spacing:-0.03em;}.cls-6{letter-spacing:-0.02em;}.cls-7{letter-spacing:-0.03em;}.cls-8{letter-spacing:-0.05em;}.cls-9{letter-spacing:-0.01em;}.cls-10{letter-spacing:-0.03em;}.cls-11{letter-spacing:-0.03em;}.cls-12{letter-spacing:-0.03em;}.cls-13{letter-spacing:-0.03em;}.cls-14{letter-spacing:-0.03em;}.cls-15{letter-spacing:-0.03em;}.cls-16{letter-spacing:-0.05em;}.cls-17{letter-spacing:-0.08em;}.cls-18{letter-spacing:-0.09em;}.cls-19{letter-spacing:-0.03em;}.cls-20{letter-spacing:-0.02em;}.cls-21{letter-spacing:-0.05em;}.cls-22{letter-spacing:-0.03em;}.cls-23{letter-spacing:-0.03em;}.cls-24{letter-spacing:0em;}.cls-25{letter-spacing:-0.03em;}.cls-26{letter-spacing:-0.03em;}</style></defs><title>右下</title><g id="圖層_2" data-name="圖層 2"><g id="圖層_3" data-name="圖層 3"><path class="cls-1" d="M120.19,26.79a.12.12,0,0,1-.12-.12V17.25c-.75.69-1.54,1.37-2.35,2a.12.12,0,0,1-.19-.05,15.94,15.94,0,0,0-2.63-4.81.12.12,0,0,1,0-.17A24.74,24.74,0,0,0,121.31,8c.2-.26.39-.53.56-.8h-6.1a.12.12,0,0,1-.12-.13c.07-.77.11-1.54.11-2.3s0-1.53-.11-2.3a.12.12,0,0,1,.12-.13h8.52c.27-.72.51-1.47.73-2.23a.12.12,0,0,1,.14-.08,27.5,27.5,0,0,0,5.42.65c.49,0,.74.2.74.46s-.26.59-.78,1l-.1.26h11a.12.12,0,0,1,.12.13c-.07.76-.11,1.54-.11,2.3s0,1.54.11,2.3a.12.12,0,0,1-.12.13H128.24l-.37.64H139a.12.12,0,0,1,.12.13,18,18,0,0,0-.11,2V22.81c0,1.56-1.06,2.64-3.16,3.22h0c-1.55.21-2.47.32-2.71.34a19.36,19.36,0,0,0-1.93.31.12.12,0,0,1-.14-.1,15.93,15.93,0,0,0-1.32-4.7.12.12,0,0,1,.12-.17c.76.07,1.39.11,1.88.11,1.87,0,2-.28,2-.33V21h-8.48v5.63a.12.12,0,0,1,0,.09.12.12,0,0,1-.09,0c-.84-.07-1.68-.11-2.5-.11s-1.61,0-2.41.11Zm2.42-.35c.79,0,1.59,0,2.39.1V20.93a.12.12,0,0,1,.12-.12h8.71a.12.12,0,0,1,.12.12v.56c0,.39-.68.57-2.2.57-.45,0-1,0-1.7-.09a16.23,16.23,0,0,1,1.23,4.46c.68-.14,1.3-.23,1.83-.29.24,0,1.15-.13,2.69-.34,2-.55,3-1.53,3-3V9.93a18.25,18.25,0,0,1,.1-1.88H127.66a.12.12,0,0,1-.1-.18l.51-.87a.12.12,0,0,1,.1-.06h13.15c-.07-.73-.1-1.46-.1-2.19s0-1.47.1-2.19H130.26a.12.12,0,0,1-.11-.16l.17-.45a.12.12,0,0,1,0-.06c.59-.39.71-.64.71-.78s-.32-.2-.51-.22a27.87,27.87,0,0,1-5.35-.63c-.22.75-.46,1.5-.73,2.21a.12.12,0,0,1-.11.08H115.9c.07.73.1,1.47.1,2.19s0,1.46-.1,2.19h6.19a.12.12,0,0,1,.1.18,11.74,11.74,0,0,1-.68,1,25,25,0,0,1-6.32,6.24A16.16,16.16,0,0,1,117.71,19c.83-.68,1.64-1.38,2.4-2.09a.12.12,0,0,1,.2.09v9.57C121.08,26.48,121.85,26.45,122.62,26.45Zm11.22-9.24h-8.71a.12.12,0,0,1-.12-.12V16.3a.12.12,0,0,1,.12-.12h8.71a.12.12,0,0,1,.12.12v.79A.12.12,0,0,1,133.84,17.21ZM125.24,17h8.48v-.55h-8.48Zm8.59-4.19h-8.71a.12.12,0,0,1-.12-.12V11.9a.12.12,0,0,1,.12-.12h8.71a.12.12,0,0,1,.12.12v.76A.12.12,0,0,1,133.84,12.78Zm-8.59-.24h8.48V12h-8.48Z"/><path class="cls-1" d="M130.28,61.33a.12.12,0,0,1-.1-.06,16.09,16.09,0,0,0-2.54-3.33V61a.12.12,0,0,1-.13.12,24.91,24.91,0,0,0-4.71,0,.12.12,0,0,1-.13-.12V58.36c-2.19.36-4.35.7-6.43,1-.44.4-.62.46-.73.46s-.4-.1-.46-.55h0V56.81a19.2,19.2,0,0,0-.2-2.63A.12.12,0,0,1,115,54h1.09v-8.9h-1.32a.12.12,0,0,1-.12-.13,21.39,21.39,0,0,0,0-4.37.12.12,0,0,1,.12-.13h4.39v-.44H116a.12.12,0,0,1-.12-.13c.07-.77.11-1.54.11-2.3s0-1.53-.11-2.3a.12.12,0,0,1,.12-.13h12.21a.12.12,0,0,1,.12.13c-.06.76-.08,1.54-.08,2.3s0,1.54.08,2.3a.12.12,0,0,1-.12.13h-3.6v.44h4.73a.12.12,0,0,1,.12.13c0,.46-.08.93-.1,1.4a29.71,29.71,0,0,0,.85-7.13.12.12,0,0,1,.15-.11,46.6,46.6,0,0,0,5.48,1c.55.06.67.29.67.48s-.22.47-.68.83c-.07.5-.14,1-.22,1.48h5.53a.12.12,0,0,1,.12.13c-.07.78-.11,1.58-.11,2.39s0,1.69.11,2.53a.12.12,0,0,1-.12.13H140A27.34,27.34,0,0,1,137.87,54a12.12,12.12,0,0,0,3.46,2.15.12.12,0,0,1,0,.19,12.59,12.59,0,0,0-3,4.8.12.12,0,0,1-.16.07,12.67,12.67,0,0,1-3.71-2.84,22.72,22.72,0,0,1-4.11,2.92Zm-2.76-3.79a.12.12,0,0,1,.08,0A16.24,16.24,0,0,1,130.33,61a22.28,22.28,0,0,0,4-2.92.12.12,0,0,1,.17,0A12.62,12.62,0,0,0,138.14,61a12.8,12.8,0,0,1,2.94-4.64,12.11,12.11,0,0,1-3.43-2.18.12.12,0,0,1,0-.14,27.09,27.09,0,0,0,2.1-10.41.12.12,0,0,1,.12-.11H141c-.07-.8-.1-1.62-.1-2.42s0-1.53.1-2.28h-5.54a.12.12,0,0,1-.12-.14c.09-.54.18-1.1.25-1.66a.12.12,0,0,1,0-.08c.58-.44.63-.62.63-.67s-.15-.22-.46-.25a47.32,47.32,0,0,1-5.37-.93,29.63,29.63,0,0,1-1.1,8,.12.12,0,0,1-.23,0v-.17c0-.69,0-1.39.1-2.08h-4.72a.12.12,0,0,1-.12-.12V40a.12.12,0,0,1,.12-.12H128c-.05-.73-.08-1.47-.08-2.19s0-1.46.08-2.19h-12c.07.73.1,1.47.1,2.19s0,1.46-.1,2.19h3.17a.12.12,0,0,1,.12.12v.68a.12.12,0,0,1-.12.12h-4.38c.07.69.1,1.39.1,2.08s0,1.39-.1,2.08h1.31a.12.12,0,0,1,.12.12v9.13a.12.12,0,0,1-.12.12h-1.08a19.24,19.24,0,0,1,.18,2.53v2.42c0,.34.18.34.22.34s.18,0,.6-.42l.06,0c2.13-.3,4.35-.64,6.59-1a.12.12,0,0,1,.1,0,.12.12,0,0,1,0,.09v2.66c.73-.07,1.46-.1,2.19-.1h0c.77,0,1.54,0,2.31.1V57.66a.12.12,0,0,1,.07-.11Zm0-1.43-.07,0a.12.12,0,0,1-.05-.1V49.48a.12.12,0,0,1,.21-.07,20.93,20.93,0,0,1,1.71,2.68l.7-.83a.12.12,0,0,1,.2,0,25.23,25.23,0,0,0,1.21,2.47.12.12,0,0,1,0,.15,13.87,13.87,0,0,1-3.84,2.19Zm.12-6.27v6a13.59,13.59,0,0,0,3.54-2c-.39-.69-.75-1.44-1.09-2.23l-.7.81a.12.12,0,0,1-.19,0A21.87,21.87,0,0,0,127.64,49.84Zm-6.72,4a.12.12,0,0,1-.12-.12v-.85a.12.12,0,0,1,.12-.12h1.86a.12.12,0,0,1,.12.12v.59a.12.12,0,0,1-.1.12l-1.86.25ZM121,53v.59l1.62-.22V53Zm1.74-3.33h-1.86a.12.12,0,0,1-.12-.12v-.65a.12.12,0,0,1,.12-.12h1.86a.12.12,0,0,1,.12.12v.65A.12.12,0,0,1,122.78,49.65ZM121,49.42h1.62V49H121Zm13.27-1a.12.12,0,0,1-.11-.08c-.3-.83-.58-1.72-.82-2.66a.12.12,0,0,1,0-.07c.06-.17.13-.35.2-.52.19-.5.37-1,.53-1.57a.12.12,0,0,1,.11-.08h.42a.12.12,0,0,1,.12.11c0,.22,0,.4,0,.57a25,25,0,0,1-.37,4.19.12.12,0,0,1-.11.1Zm-.69-2.76c.2.76.42,1.49.65,2.18a25.88,25.88,0,0,0,.29-3.71c0-.13,0-.28,0-.44h-.23c-.16.51-.33,1-.51,1.5C133.73,45.37,133.67,45.52,133.62,45.68Zm-6.1,1.58h0a.12.12,0,0,1-.09-.11V45a.12.12,0,0,1,.12-.12h1a.12.12,0,0,1,.11.16,15.19,15.19,0,0,1-1,2.13A.12.12,0,0,1,127.52,47.26Zm.12-2.11v1.53a15.8,15.8,0,0,0,.67-1.53Zm-4.85.68h-1.86a.12.12,0,0,1-.12-.12V45a.12.12,0,0,1,.12-.12h1.86a.12.12,0,0,1,.12.12v.68A.12.12,0,0,1,122.78,45.82ZM121,45.58h1.62v-.44H121Z"/><path class="cls-1" d="M133.88,96.46h0a27.34,27.34,0,0,0-4.94,0,.12.12,0,0,1-.13-.12V93.48h-5.15a.12.12,0,0,1-.12-.13,15.47,15.47,0,0,0,.11-1.85,16.18,16.18,0,0,0-.11-1.88.12.12,0,0,1,.12-.13h5.15V89h-6.14a.12.12,0,0,1-.12-.13,12.74,12.74,0,0,0,.08-1.31l-1.06.21v4.41a4.63,4.63,0,0,1-.64,2.55c-.5.64-2.13,1.18-5,1.66a.12.12,0,0,1-.14-.1,19.24,19.24,0,0,0-1.4-5.16.12.12,0,0,1,.12-.17A15,15,0,0,0,116,91c.56,0,.56-.24.56-.33V88.77l-1.52.31a.12.12,0,0,1-.14-.11,16.69,16.69,0,0,0-.22-1.88l-.25-1.61a12.44,12.44,0,0,0-.5-2,.12.12,0,0,1,.09-.16l2.55-.38v-3H114.4a.12.12,0,0,1-.12-.13c.07-.8.11-1.62.11-2.41s0-1.61-.11-2.41a.12.12,0,0,1,.12-.13h2.19V72.32a12,12,0,0,0-.22-2.07.12.12,0,0,1,.14-.14,28.68,28.68,0,0,0,4.83.28c.43,0,.65.13.65.37s-.13.38-.42.62v3.46h1.52a.12.12,0,0,1,.09,0l0,0v-2.6a9.42,9.42,0,0,0-.11-1.42.12.12,0,0,1,.12-.14h16.75a.12.12,0,0,1,.12.14,9.36,9.36,0,0,0-.11,1.42v3.86a9.35,9.35,0,0,0,.11,1.42.12.12,0,0,1-.12.14H134v.41h5.18a.12.12,0,0,1,.12.12V81a.12.12,0,0,1-.12.12H134v.41h6.51a.12.12,0,0,1,.12.14,9.11,9.11,0,0,0,0,2.84.12.12,0,0,1-.12.14H138l-.27.64h2.5a.12.12,0,0,1,.12.13,12.09,12.09,0,0,0-.11,1.65,13.56,13.56,0,0,0,.11,1.73.12.12,0,0,1-.12.13H134v.53h5.41a.12.12,0,0,1,.12.13,16.09,16.09,0,0,0-.11,1.88,15.37,15.37,0,0,0,.11,1.85.12.12,0,0,1-.12.13H134v2.87a.12.12,0,0,1-.12.12Zm-2.54-.35c.8,0,1.62,0,2.42.1V93.36a.12.12,0,0,1,.12-.12h5.39a15.62,15.62,0,0,1-.1-1.74,16.26,16.26,0,0,1,.1-1.77h-5.39a.12.12,0,0,1-.12-.12v-.76a.12.12,0,0,1,.12-.12h6.27a13.8,13.8,0,0,1-.1-1.63,12.37,12.37,0,0,1,.1-1.55H137.6a.12.12,0,0,1-.11-.16l.37-.87a.12.12,0,0,1,.11-.07h2.4a9.3,9.3,0,0,1,0-2.64h-6.49a.12.12,0,0,1-.12-.12V81a.12.12,0,0,1,.12-.12h5.18V78.39h-5.18a.12.12,0,0,1-.12-.12v-.65a.12.12,0,0,1,.12-.12h5.92a9.53,9.53,0,0,1-.09-1.32V72.32A9.53,9.53,0,0,1,139.8,71H123.33a9.58,9.58,0,0,1,.09,1.32v3.86a9.57,9.57,0,0,1-.09,1.32h5.59a.12.12,0,0,1,.12.12v.65a.12.12,0,0,1-.12.12H124v2.53h4.93A.12.12,0,0,1,129,81v.65a.12.12,0,0,1-.12.12h-6.12a9.29,9.29,0,0,1,0,2.64h2.65a.12.12,0,0,1,.11.07l.37.87a.12.12,0,0,1-.11.16h-3c0,.09,0,.19,0,.28a.12.12,0,0,1-.23,0q0-.14-.06-.31L122.29,84a7.53,7.53,0,0,1-.2-1.57l-.63.09a.12.12,0,0,1-.14-.12V79.82a.12.12,0,0,1,.12-.12H123c-.07-.76-.1-1.54-.1-2.31s0-1.54.1-2.31h-1.51a.12.12,0,0,1-.12-.12V71.34a.12.12,0,0,1,0-.09c.33-.26.38-.41.38-.47s-.29-.14-.42-.14a31.05,31.05,0,0,1-4.7-.25,11.73,11.73,0,0,1,.2,1.94V75a.12.12,0,0,1-.12.12h-2.18c.07.77.1,1.54.1,2.31s0,1.54-.1,2.31h2.18a.12.12,0,0,1,.12.12v3.24a.12.12,0,0,1-.1.12l-2.51.37a12.66,12.66,0,0,1,.47,1.89l.25,1.61a17,17,0,0,1,.22,1.76l1.53-.31a.12.12,0,0,1,.14.12v2.09c0,.26-.14.57-.79.57-.31,0-.75,0-1.33-.09A19.63,19.63,0,0,1,116,96.1c2.69-.46,4.27-1,4.71-1.54a4.41,4.41,0,0,0,.6-2.41V87.63a.12.12,0,0,1,.1-.12l1.3-.25a.12.12,0,0,1,.14.12,12.93,12.93,0,0,1-.07,1.35h6.13a.12.12,0,0,1,.12.12v.76a.12.12,0,0,1-.12.12h-5.14a16.35,16.35,0,0,1,.1,1.77,15.69,15.69,0,0,1-.1,1.74h5.14a.12.12,0,0,1,.12.12v2.86C129.8,96.15,130.57,96.11,131.34,96.11Zm-8.62-10.8h2.92l-.27-.64h-2.74Zm-.51-3.19a.12.12,0,0,1,.12.12,7.33,7.33,0,0,0,.19,1.66l.06.39a9.27,9.27,0,0,0,.08-1.18,9.42,9.42,0,0,0-.11-1.42.12.12,0,0,1,.12-.14h6.14v-.41h-4.93a.12.12,0,0,1-.12-.12V78.27a.12.12,0,0,1,.12-.12h4.93v-.41h-5.61a.12.12,0,0,1-.09,0l0,0c0,.71,0,1.43.11,2.14a.12.12,0,0,1-.12.13h-1.52v2.28l.63-.09Zm1-7c-.07.76-.1,1.54-.1,2.3q0,.07,0,.14a9.38,9.38,0,0,0,.1-1.36Zm9.9,10.46h-2.65a.12.12,0,0,1-.11-.07l-.37-.87a.12.12,0,0,1,.11-.16h3.36a.12.12,0,0,1,.11.16l-.34.87A.12.12,0,0,1,133.09,85.55Zm-2.57-.24H133l.25-.64h-3Zm6-10.45h-1.44a.12.12,0,0,1-.12-.12v-1a.12.12,0,0,1,.12-.12h1.44a.12.12,0,0,1,.12.12v1A.12.12,0,0,1,136.53,74.87Zm-1.32-.24h1.2v-.75h-1.2Zm-3,.24h-1.44a.12.12,0,0,1-.12-.12v-1a.12.12,0,0,1,.12-.12h1.44a.12.12,0,0,1,.12.12v1A.12.12,0,0,1,132.24,74.87Zm-1.32-.24h1.2v-.75h-1.2Zm-3,.24H126.6a.12.12,0,0,1-.12-.12v-1a.12.12,0,0,1,.12-.12h1.33a.12.12,0,0,1,.12.12v1A.12.12,0,0,1,127.93,74.87Zm-1.21-.24h1.09v-.75h-1.09Z"/><path class="cls-1" d="M123.25,132.47a.12.12,0,0,1-.12-.09,12.07,12.07,0,0,0-1.42-3.49.12.12,0,0,1,.11-.18c1.1.07,2.21.11,3.29.11.41,0,.64-.07.64-.19v-.45H115.64a.12.12,0,0,1-.12-.13,12.14,12.14,0,0,0,.11-1.65,12,12,0,0,0-.11-1.62.12.12,0,0,1,.12-.13h10a4.81,4.81,0,0,0-.1-.62.12.12,0,0,1,.14-.14,21.89,21.89,0,0,0,3.63.31c.22-.16.45-.34.66-.52H120.6a.12.12,0,0,1-.12-.13,11.66,11.66,0,0,0,.11-1.42,11.15,11.15,0,0,0-.11-1.42.12.12,0,0,1,.12-.13h15.2a.12.12,0,0,1,.12.14,9.36,9.36,0,0,0-.11,1.42v1.33a.12.12,0,0,1,0,.09l-1.23,1.12h6a.12.12,0,0,1,.12.13,11.87,11.87,0,0,0-.11,1.62,12.07,12.07,0,0,0,.11,1.65.12.12,0,0,1-.12.13h-9.36v1a2.33,2.33,0,0,1-.65,1.54,4.28,4.28,0,0,1-2.9,1.42l-4.37.34ZM122,129a12.22,12.22,0,0,1,1.32,3.27l4.27-.33a4,4,0,0,0,2.74-1.34,2.1,2.1,0,0,0,.59-1.39v-1.1a.12.12,0,0,1,.12-.12h9.34a12.36,12.36,0,0,1-.1-1.55,12.11,12.11,0,0,1,.1-1.52h-6.18a.12.12,0,0,1-.08-.21c.46-.4.94-.84,1.43-1.29v-1.27a9.54,9.54,0,0,1,.09-1.32H120.74a10.91,10.91,0,0,1,.1,1.32,11.32,11.32,0,0,1-.1,1.32h9.56a.12.12,0,0,1,.08.2,8.86,8.86,0,0,1-.94.77l-.07,0a24,24,0,0,1-3.54-.28,5.22,5.22,0,0,1,.08.6.12.12,0,0,1-.12.13h-10a12.15,12.15,0,0,1,.1,1.52,12.41,12.41,0,0,1-.1,1.55h10.1a.12.12,0,0,1,.12.12v.56c0,.43-.66.43-.88.43C124.1,129.06,123.06,129,122,129Zm19.07-6h0c-.77-.07-1.54-.11-2.3-.11s-1.47,0-2.22.11a.12.12,0,0,1-.09,0,.12.12,0,0,1,0-.09v-2.53H120v2.53a.12.12,0,0,1-.13.12c-.77-.07-1.54-.11-2.3-.11a21.6,21.6,0,0,0-2.19.11.12.12,0,0,1-.13-.12v-4.2a4,4,0,0,0-.22-1.4.12.12,0,0,1,.11-.16h.9v-7.92c0-.7,0-1.44-.11-2.19a.12.12,0,0,1,.12-.13,33.27,33.27,0,0,0,7-.67.12.12,0,0,1,.13.07,9.39,9.39,0,0,0,.51,1.05,13.2,13.2,0,0,0,2.38-1.52.12.12,0,0,1,.14,0c.63.36,1.26.75,1.87,1.16.42-.41.82-.83,1.19-1.25a.12.12,0,0,1,.16,0,16.41,16.41,0,0,0,2,1.35l0-.49a.12.12,0,0,1,.12-.13h8.57a.12.12,0,0,1,.12.13,14.52,14.52,0,0,0-.08,1.54v9h1a.12.12,0,0,1,.12.14,9.36,9.36,0,0,0-.11,1.42v4.2a.12.12,0,0,1-.12.12Zm-23.49-.35c.72,0,1.46,0,2.19.1v-2.52a.12.12,0,0,1,.12-.12h16.63a.12.12,0,0,1,.12.12v2.52c.71-.07,1.42-.1,2.11-.1s1.46,0,2.19.1v-4.07a9.53,9.53,0,0,1,.09-1.32h-1a.12.12,0,0,1-.12-.12V108c0-.47,0-.95.07-1.43h-8.31l0,.58a.12.12,0,0,1-.17.11,16.93,16.93,0,0,1-2.18-1.41c-.38.42-.78.84-1.2,1.25a.12.12,0,0,1-.15,0c-.61-.41-1.24-.8-1.87-1.17a13.4,13.4,0,0,1-2.22,1.42c.67.49,1.31,1,1.88,1.47a.12.12,0,0,1,0,.19c-.67.47-1.41.93-2.18,1.39l-.06,0h-3.27a.12.12,0,0,1-.12-.12v-.45a.12.12,0,0,1,.11-.12,38.38,38.38,0,0,0,3.85-.53h.05l.41.11c.07,0,.09,0,.09-.11a.64.64,0,0,0-.17-.35,9.89,9.89,0,0,1-1.53-2.5,33.51,33.51,0,0,1-6.85.66c.07.71.1,1.41.1,2.08v8a.12.12,0,0,1-.12.12h-.85a4.42,4.42,0,0,1,.18,1.32v4.07C116.23,122.6,116.93,122.56,117.61,122.56Zm2.88-12.35h3.12l1-.64h0l-.4-.11c-1.11.22-2.37.39-3.74.52Zm3.52-2.53a10,10,0,0,0,.77,1.05.86.86,0,0,1,.22.5.43.43,0,0,1,0,.14l.64-.43C125.12,108.52,124.58,108.1,124,107.68Zm11.9,9.59h-4.57a.12.12,0,0,1-.06-.22c.45-.26.92-.52,1.39-.76h3.24a.12.12,0,0,1,.12.12v.76A.12.12,0,0,1,135.91,117.27Zm-4.12-.24h4v-.53h-3Zm-2.67.24h-2.65a.12.12,0,0,1-.07-.21l1.38-1a.12.12,0,0,1,.13,0c.45.32.88.64,1.27,1a.12.12,0,0,1-.07.21Zm-2.28-.24h1.94c-.3-.23-.61-.46-.93-.7Zm-2.37.24h-4.09a.12.12,0,0,1-.12-.12v-.65a.12.12,0,0,1,.12-.12h3.27l.07,0,.82.65a.12.12,0,0,1-.07.21Zm-4-.24h3.63l-.52-.41h-3.11Zm3.18-1.37-.06,0a.12.12,0,0,1-.06-.1v-1.69h-3.18a.12.12,0,0,1-.12-.12v-.65a.12.12,0,0,1,.12-.12h2.85a.12.12,0,0,1,.07.22h0c.75.41,1.47.83,2.13,1.23a.12.12,0,0,1,0,.2c-.52.34-1.08.68-1.67,1Zm.12-1.9v1.57c.46-.27.9-.54,1.32-.81Zm-3.3-.14h3l-.57-.31a.12.12,0,0,1-.06-.1h-2.41Zm11.44,2-.07,0c-.49-.39-1-.77-1.49-1.12a.12.12,0,0,1,0-.19l1.29-.93,0,0c.19,0,.21-.08.21-.08s-.13-.14-.21-.17q-.67-.35-1.26-.71a.12.12,0,0,1,0-.2,15.85,15.85,0,0,1,1.53-.94.12.12,0,0,1,.17.1v1.57h3.74a.12.12,0,0,1,.12.12v.65a.12.12,0,0,1-.12.12h-3.86v1.71a.12.12,0,0,1-.07.11Zm-1.29-1.25c.39.28.79.58,1.17.88v-1.59a.12.12,0,0,1,.12-.12h3.86v-.41h-3.64a.31.31,0,0,1,0,.11c0,.15-.13.26-.38.31Zm.1-2.12c.34.21.71.41,1.08.61l.11.05v-1.38C131.52,111.71,131.13,112,130.74,112.22Zm-7,.66-.06,0a.12.12,0,0,1-.06-.1V111a.12.12,0,0,1,.19-.09c.41.32.83.66,1.25,1a.12.12,0,0,1,0,.19,14.82,14.82,0,0,1-1.25.8Zm.12-1.68v1.36c.35-.21.67-.41.93-.59C124.53,111.7,124.22,111.44,123.91,111.19Zm3.91,1.6h-.06l-1.35-.7a.12.12,0,0,1,0-.2l1.49-1a.12.12,0,0,1,.15,0,11.68,11.68,0,0,1,.8.88.12.12,0,0,1,0,.16c-.3.3-.61.6-.94.88A.12.12,0,0,1,127.82,112.79ZM126.7,112l1.11.58c.27-.24.53-.49.79-.74-.2-.24-.42-.48-.64-.71Zm5.35-1.42a.12.12,0,0,1-.09,0c-.47-.49-.95-1-1.43-1.4a.12.12,0,0,1,0-.18c.35-.28.73-.57,1.13-.85a.12.12,0,0,1,.19.1c0,.43-.05.86-.1,1.29h4.15a.12.12,0,0,1,.12.12v.65a.12.12,0,0,1-.12.12h-3.74v.08a.12.12,0,0,1-.07.11ZM130.79,109c.39.36.78.74,1.16,1.13a.12.12,0,0,1,.09,0h3.74v-.41h-4.17a.12.12,0,0,1-.12-.13c0-.38.08-.77.1-1.16Z"/><text class="cls-2" transform="translate(0 109.56)">亞洲最大教育創新博覽會</text><text class="cls-3" transform="translate(0 120.19)">Z<tspan class="cls-4" x="4.69" y="0">A</tspan><tspan class="cls-5" x="10.04" y="0">S</tspan><tspan class="cls-6" x="14.23" y="0">HA</tspan><tspan class="cls-7" x="25" y="0">R</tspan><tspan class="cls-8" x="29.65" y="0">E </tspan><tspan class="cls-9" x="35.5" y="0">E</tspan><tspan class="cls-10" x="40.1" y="0">X</tspan><tspan class="cls-11" x="44.95" y="0">P</tspan><tspan class="cls-8" x="49.41" y="0">O </tspan><tspan class="cls-12" x="57.11" y="0">f</tspan><tspan class="cls-13" x="59.41" y="0">o</tspan><tspan class="cls-8" x="63.87" y="0">r </tspan><tspan class="cls-14"><tspan x="0" y="8.04">IN</tspan><tspan class="cls-15" x="7.78" y="8.04">N</tspan><tspan class="cls-16" x="13.58" y="8.04">O</tspan><tspan class="cls-17" x="19.72" y="8.04">V</tspan><tspan class="cls-18" x="24.13" y="8.04">A</tspan><tspan class="cls-19" x="28.88" y="8.04">T</tspan><tspan class="cls-20" x="33.04" y="8.04">IV</tspan><tspan class="cls-21" x="39.91" y="8.04">E </tspan><tspan class="cls-22" x="45.77" y="8.04">E</tspan><tspan class="cls-23" x="50.25" y="8.04">DU</tspan><tspan class="cls-24" x="61.17" y="8.04">C</tspan><tspan class="cls-18" x="66.5" y="8.04">A</tspan><tspan class="cls-19" x="71.25" y="8.04">T</tspan><tspan class="cls-25" x="75.41" y="8.04">I</tspan><tspan class="cls-26" x="77.37" y="8.04">O</tspan><tspan class="cls-21" x="83.69" y="8.04">N</tspan></tspan></text></g></g></svg>