<svg xmlns="http://www.w3.org/2000/svg" viewBox="0 0 173.4 126.53"><defs><style>.cls-1{fill:#fff;}</style></defs><title>左下</title><g id="圖層_2" data-name="圖層 2"><g id="圖層_3" data-name="圖層 3"><polygon class="cls-1" points="23.69 126.51 32.9 126.51 43.21 126.51 52.42 126.51 38.13 99.18 23.69 126.51"/><polygon class="cls-1" points="14.41 119.28 24.95 99.18 0 99.18 0 105.74 11.09 105.74 0.02 126.51 23.68 126.51 23.83 119.28 14.41 119.28"/><path class="cls-1" d="M153.73,107.43c.08-6-4.74-7.67-9.91-7.67h-9.76v26.77h8V114.37l6,12.15h6.82L148.72,114C151,113.33,153.69,110.12,153.73,107.43Zm-10,1.81c-.35,0-.73,0-1.08,0h-.54v-3h1.73c.58,0,2.54-.08,2.54,1.31S144.59,109.2,143.71,109.24Z"/><path class="cls-1" d="M71.88,108.66H66.76c-.81-.27-1-1.63.15-1.63H80.44V99.71H66.91c-5.44,0-8.06,3.54-8.06,7.86s2.78,8.79,8.06,8.79h5c1,0,1.5.43,1.5.86,0,.58-.54,1.17-1.58,1.21H59v8.09H71.92c6.25-.12,9.49-4.75,9.49-9.3S80,108.66,71.88,108.66Z"/><polygon class="cls-1" points="96.66 109.17 90.84 109.17 90.84 99.53 82.09 99.53 82.09 126.53 90.84 126.53 90.84 116.89 96.66 116.89 96.66 126.53 105.42 126.53 105.42 99.53 96.66 99.53 96.66 109.17"/><polygon class="cls-1" points="105.55 126.53 114.65 126.53 124.83 126.53 133.93 126.53 119.82 99.53 105.55 126.53"/><polygon class="cls-1" points="163.61 116.91 173.33 116.91 173.33 109.22 163.61 109.22 163.61 107.33 173.33 107.33 173.33 99.64 155.86 99.6 155.86 126.53 173.4 126.53 173.4 118.91 163.61 118.91 163.61 116.91"/><path class="cls-1" d="M20.42,0a24.93,24.93,0,0,1-1,4.21h1A21.66,21.66,0,0,0,21.47.08l5,.06a41.14,41.14,0,0,1-1.55,4.07H27.2V8.67h-2v1.91h2.09v4.09H25.17v1.74h2.09v4H25.17v1.83h2v4.8H14.44v-6l-2.17,4.52a10.7,10.7,0,0,1-2.54-2.71v4.15H5V23.46A13.05,13.05,0,0,1,.52,27.11v-6a26.69,26.69,0,0,0,3.1-2.74H.6V13.89h2.2L.12,10.39A9.13,9.13,0,0,0,2.21,5.82H.6V1.3H5V0h5V1.3h3.81V5.51A20.87,20.87,0,0,0,15.4,0ZM5.8,12.88a18.08,18.08,0,0,1-1.19-2,8.88,8.88,0,0,1-1.78,3H5v-1Zm.85-1.19-.82,1.19H8.34ZM6.05,5.82a5.73,5.73,0,0,1-.17.88,11.13,11.13,0,0,0,1.5,2.15,12.53,12.53,0,0,0,.76-3Zm6.47,7.93A11.36,11.36,0,0,1,10.6,11a15.55,15.55,0,0,1-.9,1.84h0v1h4.07v4.52h-3a11.57,11.57,0,0,0,3.67,2.65V13.72l-.17.17-.9-1.81Zm-.73-7.93c0,.2-.06.51-.08.71a10.68,10.68,0,0,0,.9,1.38,15.33,15.33,0,0,0,1-2.09Zm7.4,2.85v1.91h1.55V8.67Zm0,6v1.74h1.55V14.67Zm0,5.78v1.83h1.55V20.45Z"/><path class="cls-1" d="M23,48.69H27.2V43.21H25.59v-9.4H18.42v3.11h2.51v.68H18.42v2.17h2.51v.68H18.42v2.09h2.51v.71h-4.6l1.61-1.92-1.3-.82c.68-.56,1-.82,1.41-1.24l-1.55-1,1.69-1.69a14.8,14.8,0,0,0-1.38-1,15.57,15.57,0,0,0,1.3-1.13l-2.29-1.58A8.12,8.12,0,0,1,14.13,34a31.81,31.81,0,0,0-2.94-1.27l-1.89,2c.54.23.88.37,1.67.73-.85.28-1.38.42-1.86.54L7.72,32.85a22.45,22.45,0,0,1-6.1.82v9.54H.31v5.48H4.16v1.78h9.66c-.56.28-2.82,1.07-2.82,1.07H.18v4.23H11c0,.68,0,.74-.59.74h-3l0,3.59H14a2.1,2.1,0,0,0,2.23-2.46V55.77H27V51.54H19.44A18.59,18.59,0,0,0,23,50.47Zm-9-11.46c.71.48,1,.68,1.33.93a10.31,10.31,0,0,1-1.36.88c-1.16-.56-1.58-.73-1.92-.9C13.05,37.76,13.65,37.45,14.1,37.23Zm-.17,4.91c.25.17.59.37,1.61,1.1H11.39A26.21,26.21,0,0,0,13.93,42.14ZM6.42,39.77H9V37.6H6.42v-.68A19.61,19.61,0,0,0,9,36.55l1.1,2.06-.85,1,1.55.73c-.48.14-1,.31-1.89.51v-.42H6.42Zm0,2.77H9v-1l.9,1.72H6.42Zm15,4.77H5.85v-.9H21.41Z"/><path class="cls-1" d="M8.1,85.91a18.45,18.45,0,0,0,6.47-2.43,36.32,36.32,0,0,1-2.71-5.42l-.4.25L8.84,74.11a19.36,19.36,0,0,0,4.24-3.61H9.94V73H7.71v1.75a22.32,22.32,0,0,0,3.5,4.35L9.15,83.77a22.94,22.94,0,0,1-1.44-1.86v9H3v-8.7a27.62,27.62,0,0,1-2.7,5.23v-8A11.46,11.46,0,0,0,2.65,73H.28V68.18H3v-4.4H7.71v4.4H9.85V65.81h5.9v-2H21v2h6V70.5H23.74a13.13,13.13,0,0,0,3.35,3v6c-.37-.23-2.28-1.13-2.54-1.28a17,17,0,0,1-2.68,5.31,16.07,16.07,0,0,0,5.19,2.2l0,5.26c-3.92-1.3-8-2.77-9-3.56a23.39,23.39,0,0,1-8.89,3.56Zm15.08-8.78A23.12,23.12,0,0,1,19,72.53l3.67-2H18.92a35.89,35.89,0,0,1-5.82,6.69l3.19-1.33a24.48,24.48,0,0,0,2.06,4A12.3,12.3,0,0,0,19.88,76Z"/></g></g></svg>