<svg xmlns="http://www.w3.org/2000/svg" viewBox="0 0 173.4 127.2"><defs><style>.cls-1{fill:#fff;}</style></defs><title>右上</title><g id="圖層_2" data-name="圖層 2"><g id="圖層_3" data-name="圖層 3"><polygon class="cls-1" points="23.69 27.32 32.9 27.32 43.21 27.32 52.42 27.32 38.13 0 23.69 27.32"/><polygon class="cls-1" points="14.41 20.1 24.95 0 0 0 0 6.56 11.09 6.56 0.02 27.32 23.68 27.32 23.83 20.1 14.41 20.1"/><path class="cls-1" d="M153.73,8.25c.08-6-4.74-7.67-9.91-7.67h-9.76V27.35h8V15.19l6,12.15h6.82l-6.21-12.49C151,14.14,153.69,10.94,153.73,8.25Zm-10,1.81c-.35,0-.73,0-1.08,0h-.54V7h1.73c.58,0,2.54-.08,2.54,1.31S144.59,10,143.71,10.06Z"/><path class="cls-1" d="M71.88,9.48H66.76c-.81-.27-1-1.63.15-1.63H80.44V.53H66.91c-5.44,0-8.06,3.54-8.06,7.86s2.78,8.79,8.06,8.79h5c1,0,1.5.43,1.5.86,0,.58-.54,1.17-1.58,1.21H59v8.09H71.92c6.25-.12,9.49-4.75,9.49-9.3S80,9.48,71.88,9.48Z"/><polygon class="cls-1" points="96.66 9.99 90.84 9.99 90.84 0.35 82.09 0.35 82.09 27.34 90.84 27.34 90.84 17.71 96.66 17.71 96.66 27.34 105.42 27.34 105.42 0.35 96.66 0.35 96.66 9.99"/><polygon class="cls-1" points="105.55 27.34 114.65 27.34 124.83 27.34 133.93 27.34 119.82 0.35 105.55 27.34"/><polygon class="cls-1" points="163.61 17.73 173.33 17.73 173.33 10.03 163.61 10.03 163.61 8.15 173.33 8.15 173.33 0.46 155.86 0.42 155.86 27.34 173.4 27.34 173.4 19.73 163.61 19.73 163.61 17.73"/><path class="cls-1" d="M166.17,36.29a24.93,24.93,0,0,1-1,4.21h1a21.66,21.66,0,0,0,1.1-4.12l5,.06a41.14,41.14,0,0,1-1.55,4.07h2.26V45h-2v1.91H173V51h-2.09V52.7H173v4h-2.09v1.83h2v4.8H160.19v-6L158,61.92a10.7,10.7,0,0,1-2.54-2.71v4.15h-4.74V59.75a13.05,13.05,0,0,1-4.46,3.65v-6a26.69,26.69,0,0,0,3.1-2.74h-3V50.18h2.2l-2.68-3.5A9.13,9.13,0,0,0,148,42.1h-1.61V37.58h4.38v-1.3h5v1.3h3.81v4.21a20.87,20.87,0,0,0,1.61-5.51ZM151.55,49.16a18.08,18.08,0,0,1-1.19-2,8.88,8.88,0,0,1-1.78,3h2.15v-1Zm.85-1.19-.82,1.19h2.51Zm-.59-5.87a5.73,5.73,0,0,1-.17.88,11.13,11.13,0,0,0,1.5,2.15,12.53,12.53,0,0,0,.76-3ZM158.27,50a11.36,11.36,0,0,1-1.92-2.71,15.55,15.55,0,0,1-.9,1.84h0v1h4.07v4.52h-3a11.57,11.57,0,0,0,3.67,2.65V50l-.17.17-.9-1.81Zm-.73-7.93c0,.2-.06.51-.08.71a10.68,10.68,0,0,0,.9,1.38,15.33,15.33,0,0,0,1-2.09Zm7.4,2.85v1.91h1.55V45Zm0,6V52.7h1.55V51Zm0,5.78v1.83h1.55V56.73Z"/><path class="cls-1" d="M168.8,85h4.15V79.5h-1.61V70.1h-7.17V73.2h2.51v.68h-2.51v2.17h2.51v.68h-2.51v2.09h2.51v.71h-4.6l1.61-1.92-1.3-.82c.68-.56,1-.82,1.41-1.24l-1.55-1,1.69-1.69a14.8,14.8,0,0,0-1.38-1,15.57,15.57,0,0,0,1.3-1.13l-2.29-1.58a8.12,8.12,0,0,1-1.69,1.19,31.81,31.81,0,0,0-2.94-1.27L155,71c.54.23.88.37,1.67.73-.85.28-1.38.42-1.86.54l-1.38-3.16a22.45,22.45,0,0,1-6.1.82V79.5h-1.31V85h3.85v1.78h9.66c-.56.28-2.82,1.07-2.82,1.07H145.93v4.23h10.81c0,.68,0,.74-.59.74h-3l0,3.59h6.58a2.1,2.1,0,0,0,2.23-2.46V92.06h10.81V87.83h-7.57a18.59,18.59,0,0,0,3.61-1.07Zm-9-11.46c.71.48,1,.68,1.33.93a10.31,10.31,0,0,1-1.36.88c-1.16-.56-1.58-.73-1.92-.9C158.8,74.05,159.4,73.74,159.85,73.51Zm-.17,4.91c.25.17.59.37,1.61,1.1h-4.15A26.21,26.21,0,0,0,159.68,78.43Zm-7.51-2.37h2.54V73.88h-2.54V73.2a19.61,19.61,0,0,0,2.63-.37l1.1,2.06-.85,1,1.55.73c-.48.14-1,.31-1.89.51v-.42h-2.54Zm0,2.77h2.54v-1l.9,1.72h-3.44Zm15,4.77H151.6v-.9h15.56Z"/><path class="cls-1" d="M153.85,122.2a18.45,18.45,0,0,0,6.47-2.43,36.32,36.32,0,0,1-2.71-5.42l-.4.25-2.63-4.21a19.36,19.36,0,0,0,4.24-3.61h-3.13v2.46h-2.23V111a22.32,22.32,0,0,0,3.5,4.35l-2.06,4.72a22.94,22.94,0,0,1-1.44-1.86v9H148.8v-8.7a27.62,27.62,0,0,1-2.7,5.23v-8a11.46,11.46,0,0,0,2.31-6.5H146v-4.77h2.77v-4.4h4.66v4.4h2.15V102.1h5.9v-2h5.25v2h6v4.69h-3.28a13.13,13.13,0,0,0,3.35,3v6c-.37-.23-2.28-1.13-2.54-1.28a17,17,0,0,1-2.68,5.31,16.07,16.07,0,0,0,5.19,2.2l0,5.26c-3.92-1.3-8-2.77-9-3.56a23.39,23.39,0,0,1-8.89,3.56Zm15.08-8.78a23.12,23.12,0,0,1-4.15-4.6l3.67-2h-3.78a35.89,35.89,0,0,1-5.82,6.69l3.19-1.33a24.48,24.48,0,0,0,2.06,4,12.3,12.3,0,0,0,1.52-3.87Z"/></g></g></svg>