<svg xmlns="http://www.w3.org/2000/svg" viewBox="0 0 20.62 168.74"><defs><style>.cls-1{fill:#fff;}</style></defs><title>左上</title><g id="圖層_2" data-name="圖層 2"><g id="圖層_3" data-name="圖層 3"><path class="cls-1" d="M.4,9.92v-7a.16.16,0,0,1,.19-.16L14.31,5.2l.05-5A.16.16,0,0,1,14.55,0l5.58,1a.16.16,0,0,1,.13.16V18.67a.16.16,0,0,1-.19.16l-5.77-1a.16.16,0,0,1-.13-.16h0l.06-5.14L.53,10.08A.16.16,0,0,1,.4,9.92ZM.71,3.11V9.79l13.71,2.43a.16.16,0,0,1,.13.16h0l-.06,5.14,5.45,1V1.27L14.68.35l-.05,5a.16.16,0,0,1-.19.15Z"/><path class="cls-1" d="M.4,23.28v-7a.16.16,0,0,1,.19-.16l19.09,3.36a.16.16,0,0,1,.13.13,35,35,0,0,1,.8,7.1c0,6.27-2,9.45-5.91,9.45h0a7.46,7.46,0,0,1-7-4.36A27.22,27.22,0,0,0,.69,35a.16.16,0,0,1-.12,0H.52a.16.16,0,0,1-.13-.16h0l0-7.77A.16.16,0,0,1,.5,27a19.31,19.31,0,0,1,6-2.34V24.5l-6-1.06A.16.16,0,0,1,.4,23.28Zm.32-6.81v6.68l6,1.06a.16.16,0,0,1,.13.16v.39a.16.16,0,0,1-.13.16,19,19,0,0,0-6,2.29l0,7.44a27.34,27.34,0,0,1,7.06-3.16.16.16,0,0,1,.19.08,7.18,7.18,0,0,0,6.74,4.3h0c3.71,0,5.59-3.07,5.59-9.13a34.43,34.43,0,0,0-.77-6.94Zm10.3,10V25.15A.16.16,0,0,1,11.2,25l4.79.84a.16.16,0,0,1,.13.15c0,.21,0,.4,0,.57,0,1.59-.79,2.51-2.17,2.51h0A2.65,2.65,0,0,1,11,26.52Zm.32-1.17v1.17c0,1.33,1.06,2.23,2.63,2.23,1.2,0,1.86-.78,1.86-2.19,0-.13,0-.27,0-.42Z"/><path class="cls-1" d="M.43,45.73v-7a.16.16,0,0,1,.19-.16l5.53,1L19.6,35.61a.16.16,0,0,1,.2.14l.66,7.81a.16.16,0,0,1-.14.17l-5.15.57c-.77.1-1.88.19-3,.26,1.21.49,2.33,1,3.06,1.3l5,2.25a.16.16,0,0,1,.09.14V56a.16.16,0,0,1-.24.13L5.69,46.8.56,45.89A.16.16,0,0,1,.43,45.73Zm.32-6.81V45.6l5,.89.06,0,14.11,9.18V48.36l-4.88-2.21c-.83-.38-2.16-.95-3.57-1.51a.16.16,0,0,1-.1-.15v-.06a.16.16,0,0,1,.15-.16c1.36-.07,2.7-.18,3.6-.3l5-.55L19.51,36,6.2,39.87H6.13Z"/><path class="cls-1" d="M.4,69.11v-7a.16.16,0,0,1,.19-.16l13.73,2.44.05-5a.16.16,0,0,1,.19-.15l5.58,1a.16.16,0,0,1,.13.16V77.86a.16.16,0,0,1-.19.16l-5.77-1a.16.16,0,0,1-.13-.16h0l.06-5.14L.53,69.27A.16.16,0,0,1,.4,69.11Zm.32-6.82V69l13.71,2.43a.16.16,0,0,1,.13.16h0L14.5,76.7l5.45,1V60.46l-5.26-.93-.05,5a.16.16,0,0,1-.19.15Z"/><path class="cls-1" d="M.4,82.47v-7a.16.16,0,0,1,.19-.16l19.09,3.36a.16.16,0,0,1,.13.13,35,35,0,0,1,.8,7.1c0,6.27-2,9.45-5.91,9.45h0a7.46,7.46,0,0,1-7-4.36,27.22,27.22,0,0,0-7,3.21.16.16,0,0,1-.12,0H.52a.16.16,0,0,1-.13-.16h0l0-7.77a.16.16,0,0,1,.08-.14,19.31,19.31,0,0,1,6-2.34v-.12l-6-1.06A.16.16,0,0,1,.4,82.47Zm.32-6.81v6.68l6,1.06a.16.16,0,0,1,.13.16v.39a.16.16,0,0,1-.13.16,19,19,0,0,0-6,2.29l0,7.44a27.34,27.34,0,0,1,7.06-3.16.16.16,0,0,1,.19.08A7.18,7.18,0,0,0,14.69,95h0c3.71,0,5.59-3.07,5.59-9.13A34.43,34.43,0,0,0,19.51,79ZM11,85.7V84.34a.16.16,0,0,1,.19-.16L16,85a.16.16,0,0,1,.13.15c0,.21,0,.4,0,.57,0,1.59-.79,2.51-2.17,2.51h0A2.65,2.65,0,0,1,11,85.7Zm.32-1.17V85.7c0,1.33,1.06,2.23,2.63,2.23,1.2,0,1.86-.78,1.86-2.19,0-.13,0-.27,0-.42Z"/><path class="cls-1" d="M.43,104.92v-7a.16.16,0,0,1,.19-.16l5.53,1L19.6,94.8a.16.16,0,0,1,.2.14l.66,7.81a.16.16,0,0,1-.14.17l-5.15.57c-.77.1-1.88.19-3,.26,1.22.49,2.33,1,3.06,1.3l5,2.25a.16.16,0,0,1,.09.14v7.72a.16.16,0,0,1-.24.13L5.69,106l-5.13-.91A.16.16,0,0,1,.43,104.92ZM.74,98.1v6.68l5,.89.06,0,14.11,9.18v-7.33l-4.88-2.21c-.83-.38-2.16-.95-3.57-1.51a.16.16,0,0,1-.1-.15v-.06a.16.16,0,0,1,.15-.16c1.36-.07,2.7-.18,3.6-.3l5-.55-.63-7.46L6.2,99.06H6.13Z"/><path class="cls-1" d="M0,124.28a13.11,13.11,0,0,1,2-7.53.16.16,0,0,1,.19-.05l5,2.14a.16.16,0,0,1,.1.15v.08a.16.16,0,0,1,0,.1,10.19,10.19,0,0,0-1.63,5.42h0c0,.91.22,1.45.6,1.45.55,0,1-.83,1.47-1.88,1-2,2.33-4.73,6-4.73,3.36,0,6.94,2.44,6.94,9.28A15,15,0,0,1,19,135.66a.16.16,0,0,1-.21.08l-5-2.25a.16.16,0,0,1-.07-.23l0,0A8.77,8.77,0,0,0,15,128.54c0-1.57-.52-1.57-.77-1.57-.66,0-1.07.91-1.59,2.06-.91,2-2.16,4.73-5.76,4.73C2.7,133.76,0,130,0,124.28ZM2.21,117a12.94,12.94,0,0,0-1.9,7.24c0,5.57,2.57,9.16,6.56,9.16,3.39,0,4.54-2.52,5.47-4.55.57-1.25,1-2.24,1.88-2.24s1.09.6,1.09,1.89a9.31,9.31,0,0,1-1.25,4.73l4.69,2.11a14.56,14.56,0,0,0,1.55-6.66c0-2.94-.7-5.32-2-6.88a5.85,5.85,0,0,0-4.6-2.09c-3.47,0-4.76,2.63-5.71,4.55-.56,1.15-1,2.05-1.75,2.05-.27,0-.91-.17-.91-1.78h0a10.68,10.68,0,0,1,1.62-5.49Z"/><path class="cls-1" d="M.4,148.9V134.32a.16.16,0,0,1,.19-.16l19.55,3.44a.16.16,0,0,1,.13.16v14.34a.16.16,0,0,1-.19.16l-5.13-.9a.16.16,0,0,1-.13-.16L15,144l-2.17-.38.13,6a.16.16,0,0,1-.19.16l-4.94-.87a.16.16,0,0,1-.13-.16l.14-6-2.19-.38.19,7.43a.17.17,0,0,1-.06.12.16.16,0,0,1-.13,0l-5.13-.9A.16.16,0,0,1,.4,148.9Zm.32-14.4v14.26l4.81.85-.19-7.43a.16.16,0,0,1,.06-.12.16.16,0,0,1,.13,0l2.51.44a.16.16,0,0,1,.13.16l-.14,6,4.62.81-.13-6a.16.16,0,0,1,.06-.12.16.16,0,0,1,.13,0l2.49.44a.16.16,0,0,1,.13.16l-.19,7.17,4.81.85v-14Z"/><path class="cls-1" d="M.4,165.39V150.81a.16.16,0,0,1,.19-.16l19.55,3.44a.16.16,0,0,1,.13.16v14.34a.16.16,0,0,1-.19.16l-5.13-.9a.16.16,0,0,1-.13-.16l.19-7.17-2.17-.38.13,6a.16.16,0,0,1-.19.16l-4.94-.87a.16.16,0,0,1-.13-.16l.14-6-2.19-.38.19,7.43a.17.17,0,0,1-.06.12.16.16,0,0,1-.13,0l-5.13-.9A.16.16,0,0,1,.4,165.39ZM.71,151v14.26l4.81.85-.19-7.43a.16.16,0,0,1,.06-.12.16.16,0,0,1,.13,0L8,159a.16.16,0,0,1,.13.16l-.14,6,4.62.81-.13-6a.16.16,0,0,1,.06-.12.16.16,0,0,1,.13,0l2.49.44a.16.16,0,0,1,.13.16l-.19,7.17,4.81.85v-14Z"/></g></g></svg>