<svg xmlns="http://www.w3.org/2000/svg" viewBox="0 0 50 50"><defs><style>.cls-1{fill:#ff4c00;}.cls-2{fill:#004798;}</style></defs><title>1</title><g id="圖層_2" data-name="圖層 2"><g id="圖層_3" data-name="圖層 3"><circle class="cls-1" cx="25" cy="25" r="25"/><path class="cls-2" d="M21.54,29.32v2.62H11.48V29.32H15V21.51l-3.5.11v-2.7h6.93v10.4Z"/><path class="cls-2" d="M33.79,21.46a16,16,0,0,0,7.54,10.62l-1.23,1.62a17.85,17.85,0,0,1-7-8.89,16.68,16.68,0,0,1-7.24,8.93l-1.13-1.66c4.72-2.82,7.13-6.76,7.27-11.82,0-1.18,0-2.09,0-2.76h1.87C33.91,19,33.86,20.36,33.79,21.46Z"/></g></g></svg>