<svg xmlns="http://www.w3.org/2000/svg" viewBox="0 0 50 50"><defs><style>.cls-1{fill:#ff4c00;}.cls-2{fill:#004798;}</style></defs><title>5</title><g id="圖層_2" data-name="圖層 2"><g id="圖層_3" data-name="圖層 3"><circle class="cls-1" cx="25" cy="25" r="25"/><path class="cls-2" d="M21.33,28.4c0,3.78-3.49,6.5-9.32,6.5l-.94-2.75,0,0c4.26,0,6.75-1.08,6.75-3.48,0-1.5-.87-2.42-2.79-2.42a10,10,0,0,0-2.42.39h0l-.91-1.92.41-7.47h8.65V20l-5.9-.18-.19,3.84a8.23,8.23,0,0,1,1.26-.09C19.43,23.6,21.33,25.65,21.33,28.4Z"/><path class="cls-2" d="M33.88,19.75a16,16,0,0,0,7.54,10.62L40.18,32a17.85,17.85,0,0,1-7-8.89A16.68,16.68,0,0,1,26,32l-1.13-1.66c4.72-2.82,7.13-6.76,7.27-11.82,0-1.18,0-2.09,0-2.76H34C34,17.34,33.95,18.66,33.88,19.75Z"/></g></g></svg>