<svg xmlns="http://www.w3.org/2000/svg" viewBox="0 0 291.31 129.94"><defs><style>.cls-1,.cls-2,.cls-4{fill:#fff;}.cls-2{font-size:34.83px;font-family:AvenirNext-DemiBold, Avenir Next;font-weight:700;}.cls-3{letter-spacing:-0.01em;}.cls-4{font-size:13px;font-family:DFHeiStd-W7-B5pc-H, DFHei Std;letter-spacing:0.55em;}</style></defs><title>Zaer CARD</title><g id="圖層_2" data-name="圖層 2"><g id="圖層_3" data-name="圖層 3"><path class="cls-1" d="M278.91,34.06H11.45l-.21.95a12.29,12.29,0,0,1-1.33,3.47A14,14,0,0,1,7.53,41.6,14.67,14.67,0,0,1,4.42,44,13,13,0,0,1,.93,45.31L0,45.51V86.32l.93.19a12.54,12.54,0,0,1,3.48,1.35,13.64,13.64,0,0,1,3.12,2.38,13.94,13.94,0,0,1,2.38,3.12,12.38,12.38,0,0,1,1.33,3.48l.21.93H279.86l.2-.93a12.66,12.66,0,0,1,1.34-3.48,13.9,13.9,0,0,1,2.37-3.12,13.68,13.68,0,0,1,3.12-2.38,12.58,12.58,0,0,1,3.48-1.35l.94-.19V45.51l-.94-.19A12.81,12.81,0,0,1,286.9,44a14.72,14.72,0,0,1-3.12-2.38,14,14,0,0,1-2.37-3.13A12.57,12.57,0,0,1,280.06,35l-.2-.95ZM13.32,36.43H278a15.4,15.4,0,0,0,1.35,3.21,17,17,0,0,0,2.76,3.63A16.74,16.74,0,0,0,285.73,46a15.18,15.18,0,0,0,3.21,1.35V84.45a16,16,0,0,0-3.21,1.35,17.23,17.23,0,0,0-3.64,2.76,17,17,0,0,0-2.76,3.65A15.64,15.64,0,0,0,278,95.4H13.32A15.24,15.24,0,0,0,12,92.2a17.05,17.05,0,0,0-2.76-3.65A17,17,0,0,0,5.57,85.8a16,16,0,0,0-3.2-1.35V47.38A15.12,15.12,0,0,0,5.57,46a16.57,16.57,0,0,0,3.64-2.76A17,17,0,0,0,12,39.64,15,15,0,0,0,13.32,36.43Z"/><path class="cls-1" d="M275.95,39.34a18.59,18.59,0,0,0,1.64,3A19.48,19.48,0,0,0,283,47.79a18.11,18.11,0,0,0,3,1.64v33A18.06,18.06,0,0,0,283,84a19.49,19.49,0,0,0-5.46,5.46,18.63,18.63,0,0,0-1.64,3H15.36a18.65,18.65,0,0,0-1.63-3,19.81,19.81,0,0,0-2.46-3,20.16,20.16,0,0,0-3-2.46,18.05,18.05,0,0,0-3-1.64v-33a18.11,18.11,0,0,0,3-1.64,19.62,19.62,0,0,0,3-2.46,19.78,19.78,0,0,0,2.46-3,18.61,18.61,0,0,0,1.63-3Zm2.62,2.33a16.87,16.87,0,0,1-1.67-3.15l-.15-.37H14.58l-.15.37a17,17,0,0,1-1.68,3.15,18.57,18.57,0,0,1-2.31,2.83,18.87,18.87,0,0,1-2.82,2.31,16.77,16.77,0,0,1-3.16,1.67l-.37.16V83.19l.37.16A17.73,17.73,0,0,1,7.62,85a18.82,18.82,0,0,1,2.82,2.31,18.53,18.53,0,0,1,2.31,2.83,16.93,16.93,0,0,1,1.68,3.15l.15.37H276.74l.15-.37a16.84,16.84,0,0,1,1.67-3.15A18.64,18.64,0,0,1,283.71,85a17.62,17.62,0,0,1,3.15-1.67l.37-.16V48.64l-.37-.16a16.67,16.67,0,0,1-3.15-1.67,18.12,18.12,0,0,1-2.82-2.31A18.61,18.61,0,0,1,278.57,41.67Z"/><path class="cls-1" d="M178.39,7.83h54.18V9.09H178.39V7.83Zm-119.64,0h54.18V9.09H58.75Z"/><text class="cls-2" transform="translate(58.73 78.82)">ZAer <tspan class="cls-3" x="87.26" y="0">C</tspan><tspan x="111.08" y="0">ARD</tspan></text><text class="cls-4" transform="translate(89.37 127.99)">雜學校學生證</text><polygon class="cls-1" points="144.1 17.86 150.12 17.86 156.85 17.86 162.86 17.86 153.53 0.01 144.1 17.86"/><polygon class="cls-1" points="128.45 0 128.45 4.28 135.69 4.28 128.46 17.85 143.92 17.85 144.02 13.13 137.86 13.13 144.75 0 128.45 0"/></g></g></svg>