<svg xmlns="http://www.w3.org/2000/svg" viewBox="0 0 336.13 149.63"><defs><style>.cls-1,.cls-2,.cls-4,.cls-5{fill:#fff;}.cls-2{font-size:40.19px;font-family:AvenirNextCondensed-DemiBold, Avenir Next Condensed;font-weight:700;}.cls-3{letter-spacing:-0.01em;}.cls-4{font-size:13px;font-family:DFHeiStd-W7-B5pc-H, DFHei Std;letter-spacing:0.55em;}.cls-5{font-size:32.45px;font-family:ViktorScript-Regular, Viktor Script;}.cls-6{letter-spacing:-0.03em;}.cls-7{letter-spacing:-0.01em;}</style></defs><title>校董證</title><g id="圖層_2" data-name="圖層 2"><g id="圖層_3" data-name="圖層 3"><path class="cls-1" d="M321.82,39.3H13.21L13,40.39a14.18,14.18,0,0,1-1.54,4A16.18,16.18,0,0,1,8.69,48,16.93,16.93,0,0,1,5.1,50.75a15,15,0,0,1-4,1.54L0,52.51v47.1l1.07.22a14.47,14.47,0,0,1,4,1.56,15.74,15.74,0,0,1,3.59,2.74,16.08,16.08,0,0,1,2.74,3.59,14.29,14.29,0,0,1,1.54,4l.24,1.07H322.92l.23-1.07a14.61,14.61,0,0,1,1.55-4,16,16,0,0,1,2.73-3.59,15.79,15.79,0,0,1,3.6-2.74,14.51,14.51,0,0,1,4-1.56l1.08-.22V52.51L335,52.28a14.78,14.78,0,0,1-4-1.54,17,17,0,0,1-3.6-2.74,16.13,16.13,0,0,1-2.73-3.61,14.5,14.5,0,0,1-1.55-4l-.23-1.09ZM15.37,42H320.75a17.76,17.76,0,0,0,1.56,3.71,19.57,19.57,0,0,0,3.19,4.19,19.32,19.32,0,0,0,4.2,3.19,17.52,17.52,0,0,0,3.71,1.56V97.44A18.51,18.51,0,0,0,329.69,99a19.88,19.88,0,0,0-4.2,3.19,19.65,19.65,0,0,0-3.19,4.21,18,18,0,0,0-1.56,3.69H15.37a17.58,17.58,0,0,0-1.56-3.69,19.67,19.67,0,0,0-3.19-4.21A19.66,19.66,0,0,0,6.43,99a18.43,18.43,0,0,0-3.7-1.56V54.67a17.44,17.44,0,0,0,3.7-1.56,19.12,19.12,0,0,0,4.2-3.19,19.6,19.6,0,0,0,3.19-4.19A17.32,17.32,0,0,0,15.37,42Z"/><path class="cls-1" d="M318.41,45.39a21.45,21.45,0,0,0,1.89,3.45,22.48,22.48,0,0,0,6.3,6.3A20.9,20.9,0,0,0,330.05,57V95.08A20.83,20.83,0,0,0,326.6,97a22.49,22.49,0,0,0-6.3,6.3,21.5,21.5,0,0,0-1.89,3.45H17.73a21.52,21.52,0,0,0-1.88-3.45A22.86,22.86,0,0,0,13,99.81,23.26,23.26,0,0,0,9.55,97a20.83,20.83,0,0,0-3.46-1.89V57a20.89,20.89,0,0,0,3.46-1.89A22.64,22.64,0,0,0,13,52.3a22.82,22.82,0,0,0,2.84-3.47,21.47,21.47,0,0,0,1.88-3.45Zm3,2.69a19.46,19.46,0,0,1-1.93-3.63l-.18-.43H16.82l-.18.43a19.57,19.57,0,0,1-1.94,3.63A21.43,21.43,0,0,1,12,51.34,21.77,21.77,0,0,1,8.79,54a19.35,19.35,0,0,1-3.64,1.93l-.43.18V96l.43.19a20.45,20.45,0,0,1,3.64,1.93A21.71,21.71,0,0,1,12,100.77,21.38,21.38,0,0,1,14.71,104a19.54,19.54,0,0,1,1.94,3.63l.18.43h302.5l.18-.43a19.43,19.43,0,0,1,1.93-3.63,21.51,21.51,0,0,1,5.93-5.93A20.33,20.33,0,0,1,331,96.18l.43-.19V56.12l-.43-.18A19.23,19.23,0,0,1,327.36,54a20.9,20.9,0,0,1-3.25-2.67A21.48,21.48,0,0,1,321.43,48.08Z"/><text class="cls-2" transform="translate(143.33 90.94)">ZAer <tspan class="cls-3" x="75.84" y="0">C</tspan><tspan x="95.3" y="0">ARD</tspan></text><text class="cls-4" transform="translate(111.89 147.68)">雜學校校董證</text><path class="cls-1" d="M205.83,9h62.52v1.45H205.83V9Zm-138,0H130.3v1.45H67.79Z"/><polygon class="cls-1" points="166.27 20.61 173.21 20.61 180.98 20.61 187.92 20.61 177.15 0.01 166.27 20.61"/><polygon class="cls-1" points="148.21 0 148.21 4.94 156.57 4.94 148.23 20.59 166.06 20.59 166.17 15.15 159.07 15.15 167.01 0 148.21 0"/><text class="cls-5" transform="translate(32.71 89.24)"><tspan class="cls-6"> </tspan><tspan class="cls-7" x="5.03" y="0">P</tspan><tspan x="27.94" y="0">rivilege</tspan></text></g></g></svg>