<svg xmlns="http://www.w3.org/2000/svg" viewBox="0 0 50 50"><defs><style>.cls-1{fill:#ff4c00;}.cls-2{fill:#004798;}</style></defs><title>w</title><g id="圖層_2" data-name="圖層 2"><g id="圖層_3" data-name="圖層 3"><circle class="cls-1" cx="25" cy="25" r="25"/><path class="cls-2" d="M15.09,22.93A143.76,143.76,0,0,1,33.75,9.28c3.73-2,3.5.93,2.33,2.57s-3.73,4.67-3.73,4.67,5.6-1.75,7.12-1.17-.7,2.8-1.87,4-6.88,5.37-6.88,5.37,6.65-1.87,8.28-.93-8.75,7-8.75,7,9-.35,7.93,1.63C36.52,35.53,23.6,36,23.6,36a24.65,24.65,0,0,1,2.68,1.17c2.8,1.79-1.17,2-2.92,1.93S13,38.1,11.24,33,13.38,24.49,15.09,22.93Z"/></g></g></svg>