<svg 
 xmlns="http://www.w3.org/2000/svg"
 xmlns:xlink="http://www.w3.org/1999/xlink"
 width="5.68cm" height="2.505cm">
<path fill-rule="evenodd"  fill="rgb(255, 255, 255)"
 d="M160.879,63.324 L160.879,69.741 L139.214,69.741 L139.214,38.620 L160.089,38.620 L160.089,44.950 L146.451,44.950 L146.451,50.840 L159.344,50.840 L159.344,56.862 L146.451,56.862 L146.451,63.324 L160.879,63.324 ZM131.092,44.752 C130.054,44.268 129.053,44.027 128.089,44.027 C127.591,44.027 127.086,44.071 126.576,44.159 C126.063,44.247 125.603,44.415 125.193,44.664 C124.784,44.913 124.441,45.235 124.162,45.631 C123.885,46.027 123.746,46.532 123.746,47.148 C123.746,47.675 123.855,48.115 124.076,48.466 C124.294,48.818 124.616,49.126 125.040,49.389 C125.464,49.653 125.967,49.895 126.553,50.115 C127.138,50.334 127.796,50.562 128.527,50.796 C129.579,51.148 130.675,51.536 131.816,51.961 C132.956,52.386 133.994,52.950 134.930,53.653 C135.866,54.356 136.640,55.229 137.254,56.268 C137.868,57.309 138.176,58.606 138.176,60.158 C138.176,61.947 137.846,63.492 137.188,64.796 C136.530,66.100 135.646,67.177 134.535,68.027 C133.424,68.877 132.151,69.507 130.719,69.917 C129.286,70.327 127.809,70.532 126.290,70.532 C124.067,70.532 121.919,70.144 119.843,69.368 C117.766,68.591 116.041,67.485 114.669,66.049 L119.580,61.038 C120.340,61.976 121.341,62.760 122.584,63.389 C123.827,64.020 125.062,64.335 126.290,64.335 C126.845,64.335 127.387,64.276 127.913,64.159 C128.439,64.042 128.899,63.851 129.295,63.587 C129.689,63.324 130.003,62.972 130.237,62.532 C130.471,62.093 130.588,61.566 130.588,60.950 C130.588,60.364 130.441,59.866 130.149,59.455 C129.857,59.045 129.440,58.671 128.899,58.334 C128.358,57.998 127.686,57.690 126.882,57.411 C126.078,57.133 125.164,56.833 124.142,56.510 C123.147,56.188 122.174,55.807 121.225,55.367 C120.274,54.928 119.426,54.364 118.681,53.675 C117.935,52.987 117.335,52.151 116.883,51.170 C116.428,50.188 116.202,48.994 116.202,47.587 C116.202,45.859 116.554,44.379 117.256,43.147 C117.957,41.917 118.878,40.906 120.018,40.115 C121.159,39.323 122.445,38.745 123.878,38.378 C125.310,38.012 126.757,37.829 128.219,37.829 C129.974,37.829 131.764,38.152 133.592,38.796 C135.419,39.441 137.020,40.393 138.394,41.653 L133.615,46.708 C132.971,45.888 132.130,45.235 131.092,44.752 ZM107.890,56.423 L116.004,69.741 L107.232,69.741 L100.491,57.389 L97.935,57.389 L97.935,69.741 L90.611,69.741 L90.611,38.620 L102.453,38.620 C103.943,38.620 105.397,38.774 106.816,39.081 C108.234,39.390 109.505,39.910 110.631,40.642 C111.757,41.375 112.656,42.342 113.329,43.543 C114.001,44.745 114.338,46.240 114.338,48.027 C114.338,50.137 113.768,51.910 112.627,53.345 C111.486,54.782 109.908,55.807 107.890,56.423 ZM106.463,46.378 C106.154,45.924 105.758,45.573 105.273,45.323 C104.788,45.075 104.245,44.906 103.642,44.818 C103.040,44.730 102.459,44.686 101.901,44.686 L97.891,44.686 L97.891,51.939 L101.461,51.939 C102.077,51.939 102.709,51.888 103.356,51.785 C104.002,51.683 104.589,51.500 105.119,51.236 C105.648,50.972 106.081,50.591 106.418,50.093 C106.756,49.595 106.926,48.950 106.926,48.159 C106.926,47.427 106.771,46.833 106.463,46.378 ZM85.035,67.081 C83.866,68.181 82.455,69.038 80.803,69.653 C79.150,70.269 77.316,70.576 75.299,70.576 C73.252,70.576 71.410,70.269 69.773,69.653 C68.135,69.038 66.747,68.181 65.607,67.081 C64.467,65.983 63.589,64.664 62.975,63.125 C62.361,61.587 62.054,59.881 62.054,58.005 L62.054,38.620 L69.510,38.620 L69.510,57.389 C69.510,58.240 69.620,59.045 69.839,59.807 C70.058,60.569 70.394,61.251 70.847,61.851 C71.300,62.452 71.900,62.928 72.646,63.279 C73.392,63.631 74.290,63.807 75.343,63.807 C76.395,63.807 77.294,63.631 78.040,63.279 C78.785,62.928 79.392,62.452 79.860,61.851 C80.327,61.251 80.664,60.569 80.869,59.807 C81.074,59.045 81.175,58.240 81.175,57.389 L81.175,38.620 L88.676,38.620 L88.676,58.005 C88.676,59.881 88.361,61.587 87.732,63.125 C87.103,64.664 86.204,65.983 85.035,67.081 ZM56.158,66.027 C54.651,67.477 52.861,68.598 50.786,69.389 C48.709,70.181 46.458,70.576 44.032,70.576 C41.605,70.576 39.361,70.181 37.299,69.389 C35.238,68.598 33.454,67.477 31.949,66.027 C30.443,64.576 29.267,62.833 28.419,60.796 C27.570,58.759 27.147,56.510 27.147,54.049 C27.147,51.559 27.570,49.309 28.419,47.302 C29.267,45.295 30.443,43.587 31.949,42.180 C33.454,40.774 35.238,39.690 37.299,38.928 C39.361,38.166 41.605,37.785 44.032,37.785 C46.458,37.785 48.709,38.166 50.786,38.928 C52.861,39.690 54.651,40.774 56.158,42.180 C57.663,43.587 58.840,45.295 59.689,47.302 C60.535,49.309 60.961,51.559 60.961,54.049 C60.961,56.510 60.535,58.759 59.689,60.796 C58.840,62.833 57.663,64.576 56.158,66.027 ZM52.277,50.269 C51.838,49.097 51.231,48.093 50.457,47.258 C49.682,46.422 48.746,45.763 47.650,45.280 C46.553,44.796 45.348,44.554 44.032,44.554 C42.716,44.554 41.517,44.796 40.435,45.280 C39.354,45.763 38.418,46.422 37.629,47.258 C36.839,48.093 36.232,49.097 35.809,50.269 C35.384,51.441 35.173,52.701 35.173,54.049 C35.173,55.455 35.392,56.752 35.831,57.939 C36.269,59.126 36.876,60.144 37.651,60.994 C38.425,61.844 39.354,62.510 40.435,62.994 C41.517,63.477 42.716,63.719 44.032,63.719 C45.348,63.719 46.546,63.477 47.628,62.994 C48.709,62.510 49.645,61.844 50.435,60.994 C51.224,60.144 51.838,59.126 52.277,57.939 C52.716,56.752 52.935,55.455 52.935,54.049 C52.935,52.701 52.716,51.441 52.277,50.269 ZM37.392,31.086 L27.076,31.086 L43.249,0.417 L59.248,31.086 L48.933,31.086 L37.392,31.086 ZM27.235,22.980 L27.067,31.086 L0.572,31.086 L12.969,7.778 L0.547,7.778 L0.547,0.417 L28.487,0.417 L16.682,22.980 L27.235,22.980 ZM5.958,42.203 C7.478,40.781 9.261,39.690 11.308,38.928 C13.354,38.166 15.562,37.785 17.931,37.785 C20.123,37.785 22.279,38.174 24.400,38.950 C26.519,39.727 28.237,40.862 29.553,42.356 L24.465,47.456 C23.763,46.489 22.842,45.771 21.703,45.301 C20.562,44.833 19.392,44.598 18.193,44.598 C16.879,44.598 15.672,44.840 14.576,45.323 C13.479,45.807 12.536,46.474 11.747,47.323 C10.958,48.174 10.343,49.177 9.905,50.334 C9.467,51.492 9.247,52.760 9.247,54.137 C9.247,55.543 9.467,56.833 9.905,58.005 C10.343,59.177 10.950,60.181 11.725,61.016 C12.500,61.851 13.428,62.504 14.510,62.972 C15.592,63.441 16.776,63.675 18.062,63.675 C19.553,63.675 20.854,63.383 21.965,62.796 C23.076,62.210 23.968,61.449 24.641,60.510 L29.860,65.433 C28.485,67.016 26.790,68.268 24.772,69.192 C22.755,70.115 20.431,70.576 17.799,70.576 C15.401,70.576 13.187,70.181 11.155,69.389 C9.122,68.598 7.361,67.477 5.870,66.027 C4.379,64.576 3.210,62.840 2.362,60.818 C1.513,58.796 1.090,56.569 1.090,54.137 C1.090,51.646 1.521,49.389 2.384,47.368 C3.246,45.345 4.438,43.624 5.958,42.203 Z"/>
</svg>