<?xml version="1.0" encoding="utf-8"?>
<!-- Generator: Adobe Illustrator 21.1.0, SVG Export Plug-In . SVG Version: 6.00 Build 0)  -->
<svg version="1.1" id="圖層_1" xmlns="http://www.w3.org/2000/svg" xmlns:xlink="http://www.w3.org/1999/xlink" x="0px" y="0px"
	 viewBox="0 0 412 328" style="enable-background:new 0 0 412 328;" xml:space="preserve">
<style type="text/css">
	.st0{fill:#8AF187;}
</style>
<path class="st0" d="M361.5,205.6v-87.3h26.2v63H412v24.3H361.5z M360.3,294.5c-3.1-0.2-6.1-0.4-9-0.4h-4.1v11.4
	c0,1.3,0.7,1.9,2,1.9c0,0,0-0.3,0.2-0.9c0-1.2,0-4.8,0.1-10.8c4.6,3.2,9.2,5.2,13.9,6.2c-0.2,11.9-1.4,19.1-3.8,21.8
	c-1.3,1.4-3.9,2.1-7.9,2.1h-7.5c-8.6,0-12.8-2.6-12.8-7.8v-19.3c-0.4,0.2-0.7,0.4-1.1,0.5c-2,7.4-4.7,13.2-8.2,17.4
	c-3.3,4-8.4,7.6-15.5,10.7c-2.4-5.1-5-9.5-7.8-13.1c-6.7,2.2-13.4,4.2-19.7,6.1c-1.2,1-1.8,1.6-2.2,1.6c-1,0-1.4-0.6-1.5-1.6
	c0.2-3,0.4-6,0.4-9c0-3.2-0.4-6.5-1.1-10.1h4.1c1,0,2.5-0.3,4.8-1v-15.8h-1.1c-2,0-4.3,0.3-6.8,0.7c0.2-3.5,0.4-6.6,0.4-9.3
	c0-3-0.2-6-0.4-9c2.3,0.3,4.6,0.4,6.8,0.4h1.1v-11h-0.4c-2.1,0-4.4,0.3-7.1,0.8c0.2-3.8,0.4-7.1,0.4-10.1c0-3.1-0.2-6.2-0.4-9.4
	c2.5,0.3,4.8,0.4,7.1,0.4h17.7c2.3,0,4.7-0.1,7.1-0.4c-0.3,3.2-0.4,6.4-0.4,9.4c0,3.2,0.1,6.5,0.4,10.1c-2.1-0.5-4.5-0.8-7.1-0.8
	h-0.8v11h0.8c2.2,0,4.4-0.1,6.7-0.4c-0.3,3.1-0.4,6.1-0.4,9c0,3,0.1,6.1,0.4,9.3c-2-0.4-4.2-0.7-6.7-0.7h-0.8v10.2
	c0.3-0.1,0.6-0.2,0.9-0.3c2.3-0.6,4.5-1.6,6.6-2.9c-0.5,3.6-0.7,7.1-0.7,10.5c0,1.6,0,3.1,0.2,4.5c0.4-0.2,0.7-0.5,1.1-0.9
	c2.7-2.9,4.8-6.7,6.5-11.3c-1.9,0.1-3.8,0.2-5.6,0.3c0.5-2.4,0.8-4.9,0.8-7.4v-44.4c0-2.3-0.3-4.7-0.8-7.1c3,0.3,6,0.4,9,0.4h33
	c3,0,6-0.1,9-0.4c-0.3,2.4-0.4,4.8-0.4,7.1v44.4C359.9,289.6,360,292.1,360.3,294.5z M331.1,296.3c0.2,0.1,0.3,0.1,0.3,0.1v-2.3
	h-5.8C327.3,294.9,329.1,295.7,331.1,296.3z M343.1,249.7h-16.2v3.5h16.2V249.7z M343.1,263.3h-16.2v3.5h16.2V263.3z M343.1,276.9
	h-16.2v3.6h16.2V276.9z M327.9,194.4h-17.5l-1.9,11.2h-27.1l18.4-87.3h39.6l17.4,87.3h-27.1L327.9,194.4z M319.2,144.5l-4.4,25.4
	h8.8L319.2,144.5z M300.4,44.4v42.9h-26.2V0h26.2l25.3,42.9V0h26.2v87.3h-26.2L300.4,44.4z M242.9,74.6c0-6.1-5-11.1-11.2-11.1h-6.9
	v23.8h-26.2V0h33.6c17.7,0,32,14.2,32,31.7c0,7.1-2.4,13.6-6.3,19c5.9,6.2,9.4,14.7,9.4,23.9v12.7h-24.4V74.6z M232.2,24.3h-7.4
	v14.8h7.4c4.1,0,7.5-3.4,7.5-7.5C239.8,27.7,236.4,24.3,232.2,24.3z M201,169c5.9,6.2,9.4,14.7,9.4,23.9v12.7H186v-12.7
	c0-6.1-5-11.1-11.2-11.1h-6.9v23.8h-26.2v-87.3h33.6c17.7,0,32,14.2,32,31.7C207.3,157.1,204.9,163.6,201,169z M175.3,142.6h-7.4
	v14.8h7.4c4.1,0,7.5-3.4,7.5-7.5C182.8,146,179.4,142.6,175.3,142.6z M165.1,76.1h-17.5l-1.9,11.2h-27.1L137,0h39.6L194,87.3H167
	L165.1,76.1z M156.3,26.2l-4.4,25.4h8.8L156.3,26.2z M54.4,0h59.4v24.3H80.5v8h28.1v24.3H80.5V63h35v24.3H54.4V0z M0,0h26.2v63h24.3
	v24.3H0V0z M0,118.3h26.2v87.3H0V118.3z M0,273.4c1.3,0.2,2.4,0.2,3.5,0.2v-28.2c0-2.5-0.2-5.1-0.4-7.8c8.9,0,16.9-0.8,24.1-2.4
	c1.3,3.3,3,6.3,5.2,9c0.5,0.7,0.8,1.2,0.8,1.6c0,0.6-0.3,0.8-0.8,0.8l-1.4-0.4c-3.9,0.8-8.4,1.5-13.2,1.9v1.6h6.1
	c1.8,0,3.7-0.1,5.6-0.4c2.3-1.4,4.6-3,6.7-4.6c-2.1-1.8-4.4-3.7-6.7-5.5c3.7-2,6.4-3.8,8.3-5.5c2.3,1.4,4.5,2.9,6.7,4.5
	c1.8-1.6,3.6-3.2,5.3-4.9c2,1.8,4.2,3.5,6.6,5c-0.1-0.9-0.2-1.8-0.2-2.7c2.1,0.3,4.2,0.4,6.4,0.4h15.4c2.5,0,5-0.1,7.5-0.4
	c-0.3,2-0.4,4-0.4,5.9v30c0,0.8,0,1.5,0.1,2.2c1.2,0,2.4-0.1,3.7-0.3c-0.3,1.9-0.4,3.7-0.4,5.5v6.2c0,2.9,0.1,5.8,0.4,8.6
	c-2.8-0.2-5.6-0.3-8.3-0.3c-2.8,0-5.6,0.1-8.3,0.3c0.2-2.8,0.4-5.7,0.4-8.6v-0.7H16.2v0.7c0,2.9,0.2,5.8,0.8,8.6
	c-2.9-0.2-5.8-0.3-8.7-0.3c-2.8,0-5.6,0.1-8.3,0.3c0.2-2.8,0.4-5.7,0.4-8.6v-6.2C0.4,276.8,0.2,275,0,273.4z M70.7,247h-8.3
	c-2.1,0-4.2,0.2-6.4,0.4c0.2-1.8,0.3-3.6,0.3-5.4c-1.3,1.1-2.7,2.1-3.8,2.9c1.7,1.7,3.5,3.4,5,5v-1c1.9,0.3,3.9,0.4,5.7,0.4h7.5V247
	z M70.6,273.8c0-0.8,0.1-1.5,0.1-2.3v-0.4h-7.9c-1.2,0-2.2,0.1-3.4,0.2c-1.5,0.8-3,1.7-4.3,2.5H70.6z M57.2,267.8v-6.9
	c1.9,0.3,3.9,0.4,5.7,0.4h7.9V259h-7.5c-1.7,0-3.6,0.2-5.7,0.4v-6.4c-1.7,0.9-3.3,1.9-4.8,3c1.2,1,2.6,2,3.9,2.8
	c0.6,0.3,0.9,0.6,0.9,1s-0.4,0.6-1.2,0.7c-1.5,1.2-3,2.3-4.3,3.3C53.8,265.1,55.4,266.4,57.2,267.8z M47.5,273.8
	c-1.3-1.1-2.8-2.2-4.2-3.4c-1.7,1.2-3.3,2.4-4.8,3.4H47.5z M43.3,258.1c1.2-0.9,2.3-1.8,3.5-2.8c-1.1-1.2-2.1-2.4-3.3-3.6
	c-1.7,1.3-3.5,2.5-5,3.7C40.1,256.4,41.8,257.3,43.3,258.1z M29.4,251.9v6.4c1.6-1,3.1-1.9,4.2-2.8C32,254.2,30.7,253,29.4,251.9z
	 M17.7,273.8h13.9c-1-0.8-1.8-1.5-2.6-2.2v0.3c-1.7-0.2-3.6-0.4-5.6-0.4h-5.7V273.8z M17.7,261.7h5.7c1.8,0,3.7-0.1,5.6-0.4v6.6
	c1.9-1.1,3.8-2.3,5.6-3.5c-2.5-1.5-5.1-3-7.8-4.6c0.2-0.1,0.3-0.2,0.4-0.2c-1.2-0.1-2.2-0.2-3.4-0.2h-6.1V261.7z M9.4,300.8h26.8
	c-0.1-0.9-0.2-1.8-0.4-2.8c2.6,0.6,6.5,1,11.7,1.2c1-0.8,1.9-1.7,2.9-2.7H23.8c-1.4,0-3.2,0.2-5.3,0.4c0.2-2.2,0.4-4.1,0.4-5.5
	c0-1.5-0.2-3.3-0.4-5.5c1.9,0.3,3.8,0.4,5.3,0.4h38.3c2.3,0,4.7-0.1,7.1-0.4c-0.3,1.9-0.4,3.7-0.4,5.5v4.7c-1.4,1.8-2.9,3.3-4.2,4.7
	h13.7c2.3,0,4.7-0.1,7.1-0.4c-0.3,2.2-0.4,4.2-0.4,6.2s0.1,4.1,0.4,6.3c-2.1-0.2-4.5-0.4-7.1-0.4H54.2v3.9c0,3.6-1.3,6.4-3.6,8.2
	c-2.5,2-5.9,3.1-10.2,3.1H27.1c-0.8-4-2.3-8.2-4.5-12.5c3.8,0.3,7.5,0.4,11.3,0.4c1.7,0,2.6-0.4,2.6-1.2v-1.9h-27
	c-2.1,0-4.5,0.2-7.1,0.4c0.2-2.4,0.4-4.5,0.4-6.3c0-2-0.2-4.1-0.4-6.2C4.8,300.7,7.1,300.8,9.4,300.8z M112.3,118.3v87.3H86.1
	l-25.3-42.9v42.9H34.6v-87.3h26.2l25.3,42.9v-42.9H112.3z M124.5,235.6c3.2,0.3,6.4,0.4,9.4,0.4c3.1,0,6.4-0.1,9.7-0.4
	c3.9,4.3,9.1,7.7,15.6,10.3c6.4,2.6,13.6,4.4,21.7,5.4c-2.4,5.3-4.1,10.2-5.3,14.8c-0.6-0.1-1-0.2-1.3-0.4c-0.1,0.5-0.1,0.9-0.1,1.2
	v18.7c0,1.6,0.1,3.2,0.4,4.7c-2.8-0.2-5.6-0.4-8.3-0.4h-62.5c-2.8,0-5.6,0.2-8.3,0.4c0.5-1.5,0.8-3.1,0.8-4.7v-19.1
	c-0.6,0.2-1,0.4-1.2,0.4c-1.3-4.7-3.2-9.5-5.6-14.5c7.2-1.2,14.2-3.4,21-6.6C116.2,243.1,120.8,239.7,124.5,235.6z M135.1,247.4
	c-2.9,2-5.9,4-9,5.8h17.5C140.4,251.4,137.7,249.5,135.1,247.4z M158.7,281.2v-4.5c-0.2,0.1-0.5,0.2-0.8,0.2c-2.4,1.6-4.6,3-6.7,4.3
	H158.7z M158.7,275.6v-4.5h-6.2c1.7,1.6,3.7,3,5.8,4.2C158.5,275.5,158.7,275.6,158.7,275.6z M141.8,281.2h6.2
	c-2-1.7-3.9-3.2-5.8-4.6c3.1-1.6,5.9-3.5,8.4-5.5h-8.8V281.2z M126.4,281.2v-2.9c-1.6,0.9-3.2,1.9-4.6,2.9H126.4z M126.4,276.6v-5.5
	h-6.6C122.3,272.7,124.5,274.6,126.4,276.6z M111.7,281.2h5.9c-1.6-1.6-3.6-3.3-5.9-5.1V281.2z M111.7,275.6c3.1-1.6,5.5-3.1,7-4.5
	h-7V275.6z M163.7,262.5c-2.3-0.7-4.4-1.5-6.4-2.4h-45.1c-1.9,0.8-3.8,1.6-5.7,2.4H163.7z M99.6,291.8c3.4,0.3,6.4,0.4,9,0.4h51.5
	c3,0,6-0.1,9-0.4c-0.3,1.7-0.4,3.4-0.4,5.1v20.7c0,3.1,0.1,6.2,0.4,9.3c-3.1-0.2-6.1-0.3-9-0.3c-3.1,0-6.1,0.1-9,0.3
	c0-0.7,0.1-1.3,0.1-1.9h-33.3c0,0.6,0.1,1.3,0.2,1.9c-3.2-0.2-6.4-0.3-9.4-0.3c-3.1,0-6.1,0.1-9,0.3c0.2-3.1,0.4-6.2,0.4-9.3v-20.7
	C100,294.9,99.8,293.2,99.6,291.8z M117.4,315.1h34.2v-2.7h-34.2V315.1z M117.4,304.7h34.2v-2.8h-34.2V304.7z M236.1,234.7
	c1.3,0,1.9,0.3,1.9,0.9c0,0.6-0.4,1.3-1,1.9c-0.6,0.6-1,1.2-1.2,2h25.8c3,0,6-0.1,9-0.3c-0.3,2.1-0.4,4.2-0.4,6.2v7c0,3,0.1,6,0.4,9
	c-2.2-0.2-4.3-0.3-6.4-0.3v1.9h6.8v7.4c-1.2-0.2-2.5-0.4-3.8-0.4h-3v5.9c0,1.2,0.1,2.3,0.4,3.5h-74.8c0.5-1.2,0.8-2.3,0.8-3.5v-5.9
	h-3.8c-1.2,0-2.5,0.2-3.8,0.4v-7.4h7.6v-2c-2.3,0.1-4.6,0.2-6.8,0.4c0.5-3,0.8-6,0.8-9v-7c0-2.4-0.3-4.5-0.8-6.2
	c3.4,0.2,6.4,0.3,9,0.3h24.3c-0.2-1.9-0.4-3.8-0.6-5.8C220.7,234.4,227.2,234.7,236.1,234.7z M248.8,272.3v-2.4h-14.7l-0.3,2.4
	H248.8z M248.8,262.9v-2.4h-13.6l-0.3,2.4H248.8z M206,272.3h12l0.3-2.4H206V272.3z M206,262.9h13.2l0.3-2.4H206V262.9z
	 M201.5,251.7v1.9h51.8c0-0.4,0.1-0.8,0.1-1.2v-0.7H201.5z M278.4,181.3v24.3h-61.1v-87.3h59.4v24.3h-33.2v8h28.1v24.3h-28.1v6.4
	H278.4z M205.3,312.8h-13.6c0.5-1.2,0.8-2.3,0.8-3.5v-24.2c0-1.1-0.3-2.3-0.8-3.5h71.1c-0.3,1.2-0.4,2.4-0.4,3.5v24.2
	c0,1.2,0.1,2.3,0.4,3.5h-10.1c0.7,0.2,1.3,0.3,2,0.4c5.6,1,11.3,1.7,17,1.9c-2.8,4.6-5.2,8.9-7.1,12.9c-10.8-1.4-21.9-3.9-33.5-7.4
	c2.9-2.6,5.3-5.2,7-7.8h-23.5c1.7,2.2,3.8,4.2,6.2,6.4c0.6,0.4,1,0.9,1,1.4c0,0.6-0.7,1-1.9,1.2c-9.6,2.9-20.2,5-32,6.2
	c-1.5-3.8-3.8-7.8-6.7-12.1c7.9-0.5,14.3-1.2,19.4-2.2C202.3,313.5,203.8,313.2,205.3,312.8z M208.6,305.8h37.6v-2.4h-37.6V305.8z
	 M208.6,298.4h37.6v-2.3h-37.6V298.4z M208.6,291h37.6v-2.3h-37.6V291z"/>
</svg>
